<svg width="79" height="78" viewBox="0 0 79 78" fill="none" xmlns="http://www.w3.org/2000/svg">
<rect x="0.304688" width="78" height="78" rx="10" fill="#47ADBF"/>
<g clip-path="url(#clip0_205_10)">
<path d="M34.3379 39L24.9079 48.43L22.1862 45.7083L26.9779 40.9167H17.3945V37.0833H26.9779L22.1862 32.2917L24.9079 29.57L34.3379 39ZM40.3945 21.75C33.8587 21.75 28.2812 23.8008 26.077 26.6758L26.9779 27.5L28.952 29.5508C28.8945 29.5125 28.8945 29.4167 28.8945 29.4167C28.8945 28.4583 32.977 25.5833 40.3945 25.5833C47.812 25.5833 51.8945 28.4583 51.8945 29.4167C51.8945 30.375 47.812 33.25 40.3945 33.25C35.3729 33.25 31.9229 31.9275 30.1979 30.7967L36.1779 36.7767C37.5195 36.9683 38.9379 37.0833 40.3945 37.0833C44.9754 37.0833 49.077 36.0675 51.8945 34.4767V39.8625C49.4029 41.6833 45.0329 42.8333 40.3945 42.8333C38.5545 42.8333 36.7529 42.6417 35.1045 42.3158L31.942 45.4592C34.472 46.2258 37.347 46.6667 40.3945 46.6667C44.7645 46.6667 48.8087 45.8042 51.8945 44.3092V48.5833C51.8945 49.5417 47.812 52.4167 40.3945 52.4167C32.977 52.4167 28.8945 49.5417 28.8945 48.5833V48.5067L26.9779 50.5L26.0962 51.3242C28.3004 54.1992 33.8779 56.25 40.3945 56.25C48.847 56.25 55.7279 52.8192 55.7279 48.5833V29.4167C55.7279 25.1808 48.8662 21.75 40.3945 21.75Z" fill="white"/>
</g>
<defs>
<clipPath id="clip0_205_10">
<rect width="46" height="46" fill="white" transform="translate(17.3945 16)"/>
</clipPath>
</defs>
</svg>
