<svg width="331" height="102" viewBox="0 0 331 102" fill="none" xmlns="http://www.w3.org/2000/svg">
<path d="M35.0004 39.1074C35.0004 31.5128 41.0557 25.3031 48.6479 25.1119L316.648 18.3615C324.515 18.1633 331 24.487 331 32.3571V87.7629C331 95.5869 324.588 101.892 316.765 101.761L48.7654 97.2607C41.1261 97.1324 35.0004 90.903 35.0004 83.2627V39.1074Z" fill="url(#paint0_linear_5_348)"/>
<path d="M62.8775 42.725V74H57.7475V42.725H62.8775ZM82.1227 48.8C84.0727 48.8 85.8127 49.205 87.3427 50.015C88.9027 50.825 90.1177 52.025 90.9877 53.615C91.8577 55.205 92.2927 57.125 92.2927 59.375V74H87.2077V60.14C87.2077 57.92 86.6527 56.225 85.5427 55.055C84.4327 53.855 82.9177 53.255 80.9977 53.255C79.0777 53.255 77.5477 53.855 76.4077 55.055C75.2977 56.225 74.7427 57.92 74.7427 60.14V74H69.6127V49.205H74.7427V52.04C75.5827 51.02 76.6477 50.225 77.9377 49.655C79.2577 49.085 80.6527 48.8 82.1227 48.8ZM120.831 74.315C118.731 74.315 116.841 73.955 115.161 73.235C113.481 72.485 112.161 71.435 111.201 70.085C110.241 68.735 109.761 67.16 109.761 65.36H115.251C115.371 66.71 115.896 67.82 116.826 68.69C117.786 69.56 119.121 69.995 120.831 69.995C122.601 69.995 123.981 69.575 124.971 68.735C125.961 67.865 126.456 66.755 126.456 65.405C126.456 64.355 126.141 63.5 125.511 62.84C124.911 62.18 124.146 61.67 123.216 61.31C122.316 60.95 121.056 60.56 119.436 60.14C117.396 59.6 115.731 59.06 114.441 58.52C113.181 57.95 112.101 57.08 111.201 55.91C110.301 54.74 109.851 53.18 109.851 51.23C109.851 49.43 110.301 47.855 111.201 46.505C112.101 45.155 113.361 44.12 114.981 43.4C116.601 42.68 118.476 42.32 120.606 42.32C123.636 42.32 126.111 43.085 128.031 44.615C129.981 46.115 131.061 48.185 131.271 50.825H125.601C125.511 49.685 124.971 48.71 123.981 47.9C122.991 47.09 121.686 46.685 120.066 46.685C118.596 46.685 117.396 47.06 116.466 47.81C115.536 48.56 115.071 49.64 115.071 51.05C115.071 52.01 115.356 52.805 115.926 53.435C116.526 54.035 117.276 54.515 118.176 54.875C119.076 55.235 120.306 55.625 121.866 56.045C123.936 56.615 125.616 57.185 126.906 57.755C128.226 58.325 129.336 59.21 130.236 60.41C131.166 61.58 131.631 63.155 131.631 65.135C131.631 66.725 131.196 68.225 130.326 69.635C129.486 71.045 128.241 72.185 126.591 73.055C124.971 73.895 123.051 74.315 120.831 74.315ZM160.409 60.995C160.409 61.925 160.349 62.765 160.229 63.515H141.284C141.434 65.495 142.169 67.085 143.489 68.285C144.809 69.485 146.429 70.085 148.349 70.085C151.109 70.085 153.059 68.93 154.199 66.62H159.734C158.984 68.9 157.619 70.775 155.639 72.245C153.689 73.685 151.259 74.405 148.349 74.405C145.979 74.405 143.849 73.88 141.959 72.83C140.099 71.75 138.629 70.25 137.549 68.33C136.499 66.38 135.974 64.13 135.974 61.58C135.974 59.03 136.484 56.795 137.504 54.875C138.554 52.925 140.009 51.425 141.869 50.375C143.759 49.325 145.919 48.8 148.349 48.8C150.689 48.8 152.774 49.31 154.604 50.33C156.434 51.35 157.859 52.79 158.879 54.65C159.899 56.48 160.409 58.595 160.409 60.995ZM155.054 59.375C155.024 57.485 154.349 55.97 153.029 54.83C151.709 53.69 150.074 53.12 148.124 53.12C146.354 53.12 144.839 53.69 143.579 54.83C142.319 55.94 141.569 57.455 141.329 59.375H155.054ZM163.747 61.58C163.747 59.03 164.257 56.795 165.277 54.875C166.327 52.925 167.767 51.425 169.597 50.375C171.427 49.325 173.527 48.8 175.897 48.8C178.897 48.8 181.372 49.52 183.322 50.96C185.302 52.37 186.637 54.395 187.327 57.035H181.792C181.342 55.805 180.622 54.845 179.632 54.155C178.642 53.465 177.397 53.12 175.897 53.12C173.797 53.12 172.117 53.87 170.857 55.37C169.627 56.84 169.012 58.91 169.012 61.58C169.012 64.25 169.627 66.335 170.857 67.835C172.117 69.335 173.797 70.085 175.897 70.085C178.867 70.085 180.832 68.78 181.792 66.17H187.327C186.607 68.69 185.257 70.7 183.277 72.2C181.297 73.67 178.837 74.405 175.897 74.405C173.527 74.405 171.427 73.88 169.597 72.83C167.767 71.75 166.327 70.25 165.277 68.33C164.257 66.38 163.747 64.13 163.747 61.58ZM203.195 74.405C200.855 74.405 198.74 73.88 196.85 72.83C194.96 71.75 193.475 70.25 192.395 68.33C191.315 66.38 190.775 64.13 190.775 61.58C190.775 59.06 191.33 56.825 192.44 54.875C193.55 52.925 195.065 51.425 196.985 50.375C198.905 49.325 201.05 48.8 203.42 48.8C205.79 48.8 207.935 49.325 209.855 50.375C211.775 51.425 213.29 52.925 214.4 54.875C215.51 56.825 216.065 59.06 216.065 61.58C216.065 64.1 215.495 66.335 214.355 68.285C213.215 70.235 211.655 71.75 209.675 72.83C207.725 73.88 205.565 74.405 203.195 74.405ZM203.195 69.95C204.515 69.95 205.745 69.635 206.885 69.005C208.055 68.375 209 67.43 209.72 66.17C210.44 64.91 210.8 63.38 210.8 61.58C210.8 59.78 210.455 58.265 209.765 57.035C209.075 55.775 208.16 54.83 207.02 54.2C205.88 53.57 204.65 53.255 203.33 53.255C202.01 53.255 200.78 53.57 199.64 54.2C198.53 54.83 197.645 55.775 196.985 57.035C196.325 58.265 195.995 59.78 195.995 61.58C195.995 64.25 196.67 66.32 198.02 67.79C199.4 69.23 201.125 69.95 203.195 69.95ZM233.646 48.8C235.596 48.8 237.336 49.205 238.866 50.015C240.426 50.825 241.641 52.025 242.511 53.615C243.381 55.205 243.816 57.125 243.816 59.375V74H238.731V60.14C238.731 57.92 238.176 56.225 237.066 55.055C235.956 53.855 234.441 53.255 232.521 53.255C230.601 53.255 229.071 53.855 227.931 55.055C226.821 56.225 226.266 57.92 226.266 60.14V74H221.136V49.205H226.266V52.04C227.106 51.02 228.171 50.225 229.461 49.655C230.781 49.085 232.176 48.8 233.646 48.8ZM248.65 61.49C248.65 59 249.16 56.795 250.18 54.875C251.23 52.955 252.64 51.47 254.41 50.42C256.21 49.34 258.205 48.8 260.395 48.8C262.015 48.8 263.605 49.16 265.165 49.88C266.755 50.57 268.015 51.5 268.945 52.67V40.7H274.12V74H268.945V70.265C268.105 71.465 266.935 72.455 265.435 73.235C263.965 74.015 262.27 74.405 260.35 74.405C258.19 74.405 256.21 73.865 254.41 72.785C252.64 71.675 251.23 70.145 250.18 68.195C249.16 66.215 248.65 63.98 248.65 61.49ZM268.945 61.58C268.945 59.87 268.585 58.385 267.865 57.125C267.175 55.865 266.26 54.905 265.12 54.245C263.98 53.585 262.75 53.255 261.43 53.255C260.11 53.255 258.88 53.585 257.74 54.245C256.6 54.875 255.67 55.82 254.95 57.08C254.26 58.31 253.915 59.78 253.915 61.49C253.915 63.2 254.26 64.7 254.95 65.99C255.67 67.28 256.6 68.27 257.74 68.96C258.91 69.62 260.14 69.95 261.43 69.95C262.75 69.95 263.98 69.62 265.12 68.96C266.26 68.3 267.175 67.34 267.865 66.08C268.585 64.79 268.945 63.29 268.945 61.58ZM289.858 74.405C287.908 74.405 286.153 74.06 284.593 73.37C283.063 72.65 281.848 71.69 280.948 70.49C280.048 69.26 279.568 67.895 279.508 66.395H284.818C284.908 67.445 285.403 68.33 286.303 69.05C287.233 69.74 288.388 70.085 289.768 70.085C291.208 70.085 292.318 69.815 293.098 69.275C293.908 68.705 294.313 67.985 294.313 67.115C294.313 66.185 293.863 65.495 292.963 65.045C292.093 64.595 290.698 64.1 288.778 63.56C286.918 63.05 285.403 62.555 284.233 62.075C283.063 61.595 282.043 60.86 281.173 59.87C280.333 58.88 279.913 57.575 279.913 55.955C279.913 54.635 280.303 53.435 281.083 52.355C281.863 51.245 282.973 50.375 284.413 49.745C285.883 49.115 287.563 48.8 289.453 48.8C292.273 48.8 294.538 49.52 296.248 50.96C297.988 52.37 298.918 54.305 299.038 56.765H293.908C293.818 55.655 293.368 54.77 292.558 54.11C291.748 53.45 290.653 53.12 289.273 53.12C287.923 53.12 286.888 53.375 286.168 53.885C285.448 54.395 285.088 55.07 285.088 55.91C285.088 56.57 285.328 57.125 285.808 57.575C286.288 58.025 286.873 58.385 287.563 58.655C288.253 58.895 289.273 59.21 290.623 59.6C292.423 60.08 293.893 60.575 295.033 61.085C296.203 61.565 297.208 62.285 298.048 63.245C298.888 64.205 299.323 65.48 299.353 67.07C299.353 68.48 298.963 69.74 298.183 70.85C297.403 71.96 296.293 72.83 294.853 73.46C293.443 74.09 291.778 74.405 289.858 74.405ZM310.521 67.835L305.076 80.255H301.746L304.941 67.835H310.521Z" fill="white"/>
<path d="M22.3917 31.5573C22.3917 31.5573 16.7553 32.0433 11.4576 34.0284" stroke="black" stroke-width="4" stroke-miterlimit="10" stroke-linecap="round" stroke-linejoin="round"/>
<path d="M24.4996 23.2523C17.4497 17.8944 8.26265 15.383 2.4964 13.8594" stroke="black" stroke-width="4" stroke-miterlimit="10" stroke-linecap="round" stroke-linejoin="round"/>
<path d="M22.1011 2.80078C22.1011 2.80078 33.0322 14.4644 33.6177 19.1052" stroke="black" stroke-width="4" stroke-miterlimit="10" stroke-linecap="round" stroke-linejoin="round"/>
<defs>
<linearGradient id="paint0_linear_5_348" x1="-92.5813" y1="-22.3333" x2="1.56756" y2="327.013" gradientUnits="userSpaceOnUse">
<stop stop-color="#FFEBA3"/>
<stop offset="0.5" stop-color="#322EF4"/>
<stop offset="1" stop-color="#5768FF"/>
</linearGradient>
</defs>
</svg>
