<svg width="307" height="229" viewBox="0 0 307 229" fill="none" xmlns="http://www.w3.org/2000/svg">
<g clip-path="url(#clip0_5_2222)">
<path d="M306.395 201.246H0.394531V201.4H306.395V201.246Z" fill="#EBEBEB"/>
<path d="M275.733 211.133H255.464V211.286H275.733V211.133Z" fill="#EBEBEB"/>
<path d="M203.101 212.805H197.783V212.958H203.101V212.805Z" fill="#EBEBEB"/>
<path d="M254.852 205.43H243.108V205.583H254.852V205.43Z" fill="#EBEBEB"/>
<path d="M58.9323 206.465H32.5001V206.618H58.9323V206.465Z" fill="#EBEBEB"/>
<path d="M68.2592 206.465H64.3853V206.618H68.2592V206.465Z" fill="#EBEBEB"/>
<path d="M138.186 209.059H80.8542V209.212H138.186V209.059Z" fill="#EBEBEB"/>
<path d="M145.439 173.835H27.2675C26.3417 173.833 25.4544 173.463 24.8004 172.805C24.1464 172.147 23.7791 171.255 23.7791 170.326V3.50927C23.7791 2.57962 24.1464 1.68795 24.8004 1.03001C25.4544 0.372073 26.3417 0.00162811 27.2675 0L145.439 0C146.365 0 147.254 0.369726 147.91 1.02784C148.565 1.68596 148.933 2.57856 148.933 3.50927V170.326C148.933 170.787 148.843 171.243 148.667 171.669C148.491 172.094 148.234 172.481 147.91 172.807C147.585 173.133 147.2 173.391 146.776 173.568C146.352 173.744 145.897 173.835 145.439 173.835ZM27.2675 0.153646C26.3823 0.155274 25.5339 0.509531 24.9086 1.13866C24.2833 1.76778 23.9321 2.62037 23.9321 3.50927V170.326C23.9321 171.215 24.2833 172.067 24.9086 172.696C25.5339 173.325 26.3823 173.68 27.2675 173.681H145.439C146.324 173.68 147.173 173.326 147.8 172.697C148.426 172.068 148.778 171.215 148.78 170.326V3.50927C148.778 2.6198 148.426 1.76723 147.8 1.13828C147.173 0.509331 146.324 0.155271 145.439 0.153646H27.2675Z" fill="#EBEBEB"/>
<path d="M277.82 173.835H159.643C158.717 173.833 157.829 173.463 157.174 172.805C156.519 172.148 156.15 171.256 156.149 170.326V3.50927C156.15 2.57905 156.519 1.6874 157.174 1.02964C157.829 0.371873 158.717 0.00162484 159.643 0L277.82 0C278.745 0.00325251 279.631 0.374414 280.283 1.03218C280.936 1.68994 281.303 2.58068 281.303 3.50927V170.326C281.303 171.254 280.936 172.145 280.283 172.803C279.631 173.461 278.745 173.832 277.82 173.835ZM159.643 0.153646C158.757 0.155271 157.908 0.509331 157.282 1.13828C156.656 1.76723 156.303 2.6198 156.302 3.50927V170.326C156.303 171.215 156.656 172.068 157.282 172.697C157.908 173.326 158.757 173.68 159.643 173.681H277.82C278.706 173.68 279.555 173.326 280.181 172.697C280.808 172.068 281.16 171.215 281.162 170.326V3.50927C281.16 2.6198 280.808 1.76723 280.181 1.13828C279.555 0.509331 278.706 0.155271 277.82 0.153646H159.643Z" fill="#EBEBEB"/>
<path d="M257.753 16.875H119.3V96.6357H257.753V16.875Z" fill="#E6E6E6"/>
<path d="M261.455 16.875H121.032V96.6357H261.455V16.875Z" fill="#F0F0F0"/>
<path d="M257.753 96.6367H119.3V103.545H257.753V96.6367Z" fill="#E6E6E6"/>
<path d="M267.618 96.6367H127.195V103.545H267.618V96.6367Z" fill="#F0F0F0"/>
<path d="M256.278 91.4378V22.082L126.216 22.082V91.4378L256.278 91.4378Z" fill="#FAFAFA"/>
<path d="M135.769 91.4378L166.173 22.082H180.531L150.12 91.4378H135.769Z" fill="white"/>
<path d="M128.609 86.2581C128.511 86.2581 128.418 86.2193 128.349 86.1501C128.28 86.081 128.241 85.9872 128.241 85.8894V25.4697C128.235 25.4168 128.239 25.3631 128.255 25.3122C128.27 25.2612 128.296 25.2142 128.331 25.1742C128.366 25.1342 128.409 25.1021 128.458 25.0802C128.506 25.0582 128.559 25.0469 128.612 25.0469C128.665 25.0469 128.717 25.0582 128.765 25.0802C128.814 25.1021 128.857 25.1342 128.892 25.1742C128.927 25.2142 128.953 25.2612 128.969 25.3122C128.984 25.3631 128.989 25.4168 128.982 25.4697V85.8894C128.982 85.9383 128.972 85.9868 128.953 86.0319C128.935 86.0771 128.907 86.118 128.872 86.1523C128.837 86.1867 128.796 86.2137 128.751 86.2319C128.706 86.25 128.657 86.259 128.609 86.2581Z" fill="#F0F0F0"/>
<path d="M153.205 91.4378L183.615 22.082H189.209L158.799 91.4378H153.205Z" fill="white"/>
<path d="M256.272 91.4378V22.082H255.617V91.4378H256.272Z" fill="#E6E6E6"/>
<path opacity="0.6" d="M262.679 29.9256H124.227L123.749 24.1055H262.202L262.679 29.9256Z" fill="#EBEBEB"/>
<path opacity="0.6" d="M262.679 39.4764H124.227L123.749 33.6562H262.202L262.679 39.4764Z" fill="#EBEBEB"/>
<path opacity="0.6" d="M262.679 49.0271H124.227L123.749 43.207H262.202L262.679 49.0271Z" fill="#EBEBEB"/>
<path opacity="0.6" d="M262.679 58.5763H124.227L123.749 52.75H262.202L262.679 58.5763Z" fill="#EBEBEB"/>
<path opacity="0.6" d="M262.679 68.1209H124.227L123.749 62.3008H262.202L262.679 68.1209Z" fill="#EBEBEB"/>
<path opacity="0.6" d="M262.679 77.6717H124.227L123.749 71.8516H262.202L262.679 77.6717Z" fill="#EBEBEB"/>
<path d="M87.3781 39.5547H39.8991V103.545H87.3781V39.5547Z" fill="#E6E6E6"/>
<path d="M90.689 39.5547H40.6152V103.545H90.689V39.5547Z" fill="#F0F0F0"/>
<path d="M86.4968 99.3301V43.7656H44.8135V99.3301H86.4968Z" fill="white"/>
<path d="M65.3645 86.243L57.7145 78.5607C55.866 76.699 54.8281 74.1773 54.8281 71.5483C54.8281 68.9193 55.866 66.3976 57.7145 64.5359L65.3645 56.8536C65.4409 56.7796 65.5429 56.7383 65.649 56.7383C65.7552 56.7383 65.8572 56.7796 65.9336 56.8536L73.5897 64.5297C75.4382 66.3914 76.4761 68.9132 76.4761 71.5421C76.4761 74.1711 75.4382 76.6928 73.5897 78.5545L65.9336 86.2368C65.858 86.3117 65.7564 86.3541 65.6503 86.3552C65.5441 86.3564 65.4417 86.3161 65.3645 86.243ZM65.6521 57.714L58.3081 65.089C57.4636 65.9361 56.7936 66.942 56.3364 68.0493C55.8793 69.1566 55.644 70.3435 55.644 71.5421C55.644 72.7408 55.8793 73.9277 56.3364 75.035C56.7936 76.1423 57.4636 77.1482 58.3081 77.9953L65.6521 85.3703L72.9961 77.9953C73.8421 77.149 74.5134 76.1434 74.9714 75.036C75.4295 73.9286 75.6653 72.7413 75.6653 71.5421C75.6653 70.343 75.4295 69.1557 74.9714 68.0483C74.5134 66.9409 73.8421 65.9353 72.9961 65.089L65.6521 57.714Z" fill="#F0F0F0"/>
<path d="M137.079 135.407C136.767 135.407 136.467 135.407 136.13 135.407C129.398 135.948 124 142.364 123.572 150.261C123.475 152.017 123.625 153.778 124.019 155.491C125.499 162.31 126.212 169.274 126.142 176.252V196.638C126.142 198.113 127.158 199.311 128.413 199.311H173.211V135.395L137.079 135.407Z" fill="#F0F0F0"/>
<path d="M186.736 151.34C186.736 142.17 180.157 134.807 172.25 135.44C165.518 135.981 160.114 142.397 159.692 150.295C159.591 152.038 159.738 153.786 160.126 155.488C161.607 162.306 162.32 169.27 162.25 176.249V196.634C162.25 198.109 163.266 199.308 164.521 199.308H181.877C183.101 199.308 184.147 198.079 184.147 196.634V175.044C184.097 168.503 184.802 161.977 186.247 155.599C186.573 154.203 186.737 152.774 186.736 151.34Z" fill="#FAFAFA"/>
<path d="M154.545 163.172H107.268V199.303H154.545V163.172Z" fill="#F5F5F5"/>
<path d="M77.5861 119.844H129.527C132.469 119.844 135.291 121.018 137.372 123.107C139.453 125.197 140.622 128.031 140.622 130.986V169.25H66.4905V131.011C66.4873 129.545 66.7719 128.094 67.3281 126.739C67.8842 125.384 68.701 124.153 69.7317 123.116C70.7623 122.079 71.9865 121.256 73.3343 120.694C74.6821 120.133 76.1269 119.844 77.5861 119.844Z" fill="#E6E6E6"/>
<path d="M85.6584 119.844H132.434C135.334 119.844 138.116 121.001 140.167 123.06C142.218 125.12 143.37 127.914 143.37 130.826V169.25H74.7158V130.857C74.7118 129.412 74.9919 127.98 75.5401 126.643C76.0883 125.307 76.8937 124.092 77.9103 123.069C78.9269 122.046 80.1346 121.234 81.4642 120.681C82.7938 120.127 84.2191 119.843 85.6584 119.844Z" fill="#F5F5F5"/>
<path d="M110.316 161.867H154.502C155.134 161.867 155.739 162.119 156.186 162.567C156.632 163.016 156.883 163.624 156.883 164.258V168.105C156.883 168.739 156.632 169.347 156.186 169.796C155.739 170.244 155.134 170.496 154.502 170.496H110.316C110.223 170.496 110.13 170.477 110.044 170.442C109.958 170.406 109.88 170.353 109.814 170.287C109.748 170.221 109.696 170.142 109.66 170.056C109.624 169.969 109.606 169.877 109.606 169.783V162.58C109.606 162.486 109.624 162.394 109.66 162.307C109.696 162.221 109.748 162.142 109.814 162.076C109.88 162.01 109.958 161.957 110.044 161.921C110.13 161.886 110.223 161.867 110.316 161.867Z" fill="#EBEBEB"/>
<path d="M60.9458 199.305H173.878V199.452C173.878 199.928 173.69 200.385 173.355 200.721C173.02 201.058 172.565 201.247 172.091 201.247H62.7267C62.2528 201.247 61.7982 201.058 61.4631 200.721C61.128 200.385 60.9397 199.928 60.9397 199.452V199.305H60.9458Z" fill="#E6E6E6"/>
<path d="M61.6251 135.407C61.313 135.407 61.0131 135.407 60.6765 135.407C53.9445 135.948 48.5406 142.364 48.1183 150.261C48.0212 152.002 48.1675 153.748 48.5528 155.448C50.0337 162.267 50.746 169.231 50.6765 176.209V196.595C50.6765 198.07 51.6924 199.268 52.947 199.268H107.911V135.352L61.6251 135.407Z" fill="#F0F0F0"/>
<path d="M121.448 151.34C121.448 142.17 114.869 134.807 106.962 135.44C100.23 135.981 94.8322 142.397 94.4038 150.295C94.3068 152.036 94.453 153.782 94.8383 155.482C96.3192 162.3 97.0315 169.264 96.962 176.243V196.628C96.962 198.103 97.9779 199.302 99.2325 199.302H116.589C117.813 199.302 118.865 198.073 118.865 196.628V175.044C118.813 168.503 119.515 161.978 120.959 155.599C121.285 154.203 121.449 152.774 121.448 151.34Z" fill="#FAFAFA"/>
<path d="M246.064 140.821C246.595 140.821 247.114 140.665 247.557 140.37C247.999 140.076 248.346 139.657 248.554 139.167C248.761 138.676 248.82 138.134 248.723 137.61C248.627 137.086 248.378 136.602 248.01 136.218C246.786 134.989 244.778 133.926 241.584 133.926C238.389 133.926 236.406 134.958 235.164 136.218C234.792 136.6 234.542 137.084 234.443 137.609C234.345 138.134 234.403 138.676 234.61 139.167C234.817 139.659 235.164 140.079 235.608 140.373C236.052 140.667 236.572 140.823 237.104 140.821H246.064Z" fill="#F5F5F5"/>
<path d="M255.054 139.81C255.392 139.805 255.722 139.7 256.002 139.509C256.282 139.318 256.501 139.049 256.631 138.735C256.761 138.421 256.797 138.076 256.734 137.741C256.671 137.407 256.513 137.099 256.278 136.854C255.482 136.043 254.203 135.379 252.153 135.379C250.103 135.379 248.824 136.043 248.028 136.854C247.79 137.098 247.629 137.406 247.565 137.742C247.501 138.077 247.536 138.423 247.666 138.739C247.797 139.054 248.017 139.323 248.299 139.514C248.581 139.704 248.912 139.807 249.252 139.81H255.054Z" fill="#F5F5F5"/>
<path d="M232.343 139.023C232.343 139.023 232.691 142.613 246.1 142.613C259.509 142.613 259.864 139.023 259.864 139.023H232.343Z" fill="#F0F0F0"/>
<path d="M218.12 133.002C218.005 133.006 217.891 133.016 217.777 133.032V131.803C217.777 131.676 217.752 131.549 217.703 131.431C217.655 131.314 217.583 131.207 217.494 131.116C217.404 131.026 217.297 130.955 217.18 130.906C217.063 130.857 216.937 130.832 216.81 130.832H211.614C211.487 130.832 211.361 130.857 211.244 130.906C211.127 130.955 211.02 131.026 210.93 131.116C210.841 131.207 210.769 131.314 210.721 131.431C210.672 131.549 210.647 131.676 210.647 131.803V142.614H217.777V140.868C217.89 140.887 218.005 140.899 218.12 140.905C218.877 140.903 219.603 140.601 220.139 140.063C220.674 139.525 220.976 138.796 220.978 138.035V135.865C220.976 135.105 220.674 134.377 220.138 133.84C219.603 133.303 218.877 133.002 218.12 133.002ZM219.754 138.035C219.752 138.47 219.579 138.886 219.273 139.193C218.967 139.501 218.553 139.674 218.12 139.676C218.005 139.673 217.89 139.661 217.777 139.639V134.268C217.889 134.243 218.004 134.23 218.12 134.231C218.552 134.231 218.967 134.403 219.273 134.709C219.579 135.016 219.752 135.431 219.754 135.865V138.035Z" fill="#E6E6E6"/>
<path d="M223.983 142.613H197.41V201.245H223.983V142.613Z" fill="#E6E6E6"/>
<path d="M223.977 201.238H270.721V142.607H223.977V201.238Z" fill="#F5F5F5"/>
<path d="M268.273 201.239V145.066H226.425V201.239H268.273Z" fill="#E6E6E6"/>
<path d="M236.994 201.247V145.074H226.431V201.247H236.994Z" fill="#E0E0E0"/>
<path d="M269.595 174.388V171.93H226.424V174.388H269.595Z" fill="#F5F5F5"/>
<path d="M240.5 171.93H231.32L234.044 151.734H240.5V171.93Z" fill="#E6E6E6"/>
<path d="M253.964 171.93H236.578L233.34 148.293H250.727L253.964 171.93Z" fill="#F0F0F0"/>
<path d="M256.29 171.93H238.193L234.956 148.293H253.053L256.29 171.93Z" fill="#F5F5F5"/>
<path d="M239.791 170.069L237.067 150.156H251.449L254.179 170.069H239.791Z" fill="white"/>
<path d="M243.358 163.652L242.453 157.064C242.419 156.803 242.441 156.537 242.518 156.285C242.594 156.032 242.724 155.8 242.898 155.602C243.072 155.405 243.286 155.247 243.526 155.14C243.766 155.033 244.026 154.978 244.289 154.981H246.051C246.497 154.976 246.929 155.135 247.267 155.426C247.604 155.718 247.825 156.123 247.887 156.566L248.787 163.155C248.821 163.416 248.799 163.682 248.722 163.934C248.645 164.186 248.515 164.419 248.341 164.616C248.167 164.814 247.953 164.971 247.713 165.079C247.473 165.186 247.213 165.24 246.951 165.238H245.194C244.749 165.242 244.317 165.084 243.979 164.792C243.641 164.5 243.421 164.095 243.358 163.652Z" fill="#F5F5F5"/>
<path d="M153.395 229C218.929 229 272.055 225.885 272.055 222.043C272.055 218.201 218.929 215.086 153.395 215.086C87.86 215.086 34.7338 218.201 34.7338 222.043C34.7338 225.885 87.86 229 153.395 229Z" fill="#F5F5F5"/>
<path d="M100.342 89.515C102.883 73.7916 92.2508 58.9762 76.5935 56.4239C60.9361 53.8717 46.183 64.549 43.6415 80.2724C41.0999 95.9958 51.7324 110.811 67.3897 113.363C83.047 115.916 97.8001 105.238 100.342 89.515Z" fill="#407BFF"/>
<path d="M56.4599 84.4077C56.4599 80.7816 57.1106 78.2434 58.4121 76.793C59.7137 75.3425 61.6945 74.6173 64.3547 74.6173C65.4249 74.5851 66.4924 74.7453 67.5065 75.0906C68.2532 75.3599 68.9381 75.7779 69.5199 76.3197C70.0063 76.7869 70.419 77.3257 70.7439 77.9177C71.0628 78.5387 71.3034 79.1973 71.46 79.8782C71.819 81.3358 71.9979 82.8323 71.9924 84.3339C71.9924 87.792 71.409 90.3261 70.2421 91.9363C69.0752 93.5465 67.0658 94.3496 64.2139 94.3455C62.8784 94.3995 61.549 94.1363 60.3338 93.5772C59.3304 93.0605 58.4847 92.2812 57.8858 91.3217C57.3562 90.4348 56.9932 89.4578 56.8148 88.4393C56.5611 87.1109 56.4421 85.7601 56.4599 84.4077ZM61.6986 84.4077C61.6986 86.8414 61.9026 88.5028 62.3106 89.3919C62.448 89.7736 62.6966 90.1049 63.024 90.3427C63.3515 90.5806 63.7426 90.714 64.1466 90.7256C64.6677 90.7292 65.1692 90.526 65.5419 90.1602C66.0219 89.6698 66.3512 89.0511 66.4905 88.3779C66.7103 87.1203 66.8026 85.8437 66.7659 84.5675C66.7659 82.0313 66.5619 80.3268 66.1539 79.4541C66.0022 79.0669 65.7376 78.7347 65.3947 78.5011C65.0518 78.2675 64.6466 78.1434 64.2323 78.145C63.8161 78.1369 63.4081 78.2616 63.0672 78.5013C62.7262 78.741 62.4698 79.0832 62.3351 79.4787C61.9107 80.3719 61.6986 82.019 61.6986 84.4199V84.4077Z" fill="#FAFAFA"/>
<path d="M86.1419 74.6172V94.0319H80.7991V81.31C80.012 81.9187 79.1722 82.4555 78.2899 82.9141C77.3044 83.389 76.2808 83.7796 75.2299 84.0818V79.7367C76.742 79.3002 78.161 78.5876 79.416 77.6348C80.4138 76.8207 81.2134 75.7886 81.7538 74.6172H86.1419Z" fill="#FAFAFA"/>
<path d="M157.375 91.5156C161.018 76.0123 151.457 60.4782 136.019 56.8191C120.581 53.16 105.112 62.7615 101.468 78.2648C97.8247 93.7681 107.386 109.302 122.824 112.961C138.262 116.62 153.731 107.019 157.375 91.5156Z" fill="#407BFF"/>
<path opacity="0.7" d="M157.375 91.5156C161.018 76.0123 151.457 60.4782 136.019 56.8191C120.581 53.16 105.112 62.7615 101.468 78.2648C97.8247 93.7681 107.386 109.302 122.824 112.961C138.262 116.62 153.731 107.019 157.375 91.5156Z" fill="#FAFAFA"/>
<path d="M112.715 84.4077C112.715 80.7816 113.366 78.2434 114.667 76.793C115.969 75.3425 117.95 74.6173 120.61 74.6173C121.68 74.5851 122.747 74.7453 123.762 75.0906C124.507 75.3584 125.19 75.7767 125.769 76.3197C126.257 76.7856 126.67 77.3247 126.993 77.9177C127.307 78.5454 127.541 79.2103 127.691 79.8966C128.05 81.3543 128.228 82.8508 128.223 84.3523C128.223 87.8104 127.64 90.3445 126.473 91.9547C125.306 93.5649 123.296 94.368 120.444 94.3639C119.109 94.4187 117.779 94.1554 116.564 93.5957C115.561 93.0789 114.715 92.2997 114.116 91.3402C113.587 90.4533 113.224 89.4763 113.045 88.4578C112.799 87.1225 112.688 85.7655 112.715 84.4077ZM117.954 84.4077C117.954 86.8414 118.158 88.5028 118.566 89.3919C118.703 89.7736 118.952 90.1049 119.279 90.3427C119.607 90.5806 119.998 90.714 120.402 90.7256C120.659 90.7279 120.914 90.6791 121.152 90.5821C121.391 90.4851 121.608 90.3417 121.791 90.1602C122.249 89.6598 122.551 89.0361 122.66 88.3656C122.886 87.1087 122.98 85.8317 122.941 84.5552C122.941 82.019 122.727 80.3145 122.299 79.4418C122.147 79.0536 121.881 78.7208 121.537 78.4871C121.193 78.2534 120.786 78.1299 120.371 78.1328C119.956 78.1259 119.549 78.2512 119.21 78.4908C118.87 78.7304 118.614 79.072 118.48 79.4664C118.143 80.3698 117.954 82.0169 117.954 84.4199V84.4077Z" fill="#FAFAFA"/>
<path d="M145.885 94.0323H130.035C130.224 92.4426 130.793 90.9224 131.693 89.6012C132.611 88.2122 134.337 86.5733 136.871 84.6845C137.969 83.9399 138.966 83.0557 139.839 82.0541C140.231 81.5684 140.458 80.9698 140.488 80.3455C140.495 80.0684 140.444 79.793 140.338 79.5368C140.233 79.2807 140.075 79.0495 139.876 78.8582C139.426 78.454 138.845 78.2304 138.241 78.2304C137.638 78.2304 137.057 78.454 136.607 78.8582C136.092 79.4989 135.791 80.2856 135.745 81.1076L130.457 80.6774C130.577 79.4433 130.968 78.2512 131.601 77.1866C132.175 76.3266 132.988 75.6554 133.939 75.2568C135.273 74.752 136.695 74.5242 138.119 74.5869C139.591 74.5186 141.063 74.727 142.458 75.2015C143.455 75.5877 144.309 76.2721 144.906 77.162C145.497 78.0349 145.807 79.0689 145.794 80.1243C145.788 81.3107 145.434 82.4691 144.778 83.4553C143.776 84.8343 142.532 86.0175 141.106 86.9462C140.041 87.6837 139.331 88.1999 138.976 88.4949C138.621 88.7899 138.174 89.2017 137.636 89.7302H145.885V94.0323Z" fill="#FAFAFA"/>
<path d="M186.318 96.9167C202.16 96.1164 214.357 82.5707 213.56 66.6616C212.763 50.7524 199.274 38.5044 183.432 39.3047C167.589 40.1051 155.393 53.6508 156.19 69.5599C156.987 85.469 170.476 97.7171 186.318 96.9167Z" fill="#407BFF"/>
<path d="M170.206 73.6714C168.831 70.3158 168.47 67.7181 169.123 65.8785C169.776 64.0388 171.332 62.6048 173.793 61.5764C174.773 61.1484 175.822 60.9007 176.889 60.845C177.682 60.8117 178.473 60.9392 179.215 61.2199C179.844 61.4638 180.43 61.8061 180.953 62.234C181.486 62.6853 181.961 63.2014 182.367 63.7704C183.251 64.9802 183.983 66.2951 184.545 67.6853C185.863 70.8894 186.285 73.4563 185.812 75.3861C185.339 77.3159 183.786 78.8195 181.155 79.8971C179.939 80.4556 178.611 80.7208 177.275 80.6715C176.159 80.5673 175.091 80.1687 174.178 79.5161C173.355 78.894 172.65 78.1278 172.097 77.2544C171.347 76.1281 170.713 74.9275 170.206 73.6714ZM175.059 71.6801C175.977 73.9234 176.81 75.3676 177.538 76.0375C177.814 76.3399 178.174 76.5515 178.571 76.6447C178.969 76.7379 179.385 76.7084 179.766 76.5599C180.25 76.3647 180.637 75.9845 180.843 75.5028C181.075 74.8651 181.118 74.1732 180.965 73.5116C180.695 72.2631 180.297 71.0459 179.778 69.8794C178.811 67.5358 177.966 66.0424 177.244 65.3991C176.956 65.1002 176.584 64.8953 176.178 64.8109C175.772 64.7265 175.351 64.7666 174.968 64.9259C174.585 65.0831 174.261 65.3568 174.042 65.7085C173.822 66.0602 173.718 66.4721 173.744 66.8864C173.711 67.8574 174.15 69.4553 175.059 71.6801Z" fill="#FAFAFA"/>
<path d="M189.821 61.2786L184.864 62.3602C184.617 60.8739 184.908 59.3481 185.684 58.0582C186.455 56.829 187.838 55.8047 189.833 54.9852C192.13 54.0306 193.966 53.7725 195.341 54.2109C195.986 54.3943 196.58 54.7249 197.077 55.1769C197.574 55.6289 197.96 56.1901 198.205 56.8167C198.52 57.5507 198.599 58.3648 198.432 59.146C198.221 60.0337 197.801 60.8577 197.208 61.549C197.801 61.4416 198.408 61.4229 199.007 61.4937C199.72 61.6022 200.392 61.8992 200.953 62.3541C201.558 62.8657 202.023 63.5235 202.306 64.2654C202.728 65.3061 202.869 66.4403 202.716 67.5535C202.57 68.7204 202.075 69.8155 201.296 70.694C200.275 71.7717 199.018 72.5946 197.624 73.097C196.36 73.6802 194.998 74.02 193.609 74.0988C192.58 74.1146 191.563 73.8694 190.653 73.3859C189.683 72.8398 188.834 72.1017 188.156 71.2164L192.771 68.5491C193.167 69.2707 193.77 69.8554 194.503 70.2269C195.079 70.443 195.717 70.4209 196.277 70.1654C196.589 70.0443 196.871 69.8561 197.102 69.614C197.334 69.3719 197.51 69.0819 197.618 68.7642C197.855 68.0426 197.807 67.2571 197.483 66.5701C197.243 65.8575 196.736 65.2667 196.069 64.9231C195.755 64.7877 195.416 64.7209 195.074 64.7273C194.732 64.7337 194.395 64.8129 194.086 64.9599C193.561 65.2092 193.069 65.5252 192.624 65.9002L191.437 62.2926C191.662 62.2444 191.883 62.1766 192.097 62.0898C192.394 61.9774 192.666 61.8072 192.897 61.5888C193.128 61.3705 193.314 61.1084 193.444 60.8176C193.573 60.5505 193.644 60.2587 193.651 59.9619C193.659 59.665 193.602 59.37 193.487 59.0968C193.402 58.8558 193.269 58.6347 193.096 58.4467C192.924 58.2586 192.715 58.1077 192.483 58.0028C192.239 57.911 191.978 57.8696 191.717 57.8812C191.456 57.8929 191.201 57.9572 190.965 58.0704C190.704 58.1641 190.464 58.3099 190.26 58.4989C190.056 58.6879 189.892 58.9164 189.778 59.1705C189.572 59.8604 189.587 60.5978 189.821 61.2786Z" fill="#FAFAFA"/>
<path d="M272.252 91.5156C275.896 76.0123 266.335 60.4781 250.897 56.819C235.459 53.1599 219.99 62.7615 216.346 78.2648C212.702 93.7681 222.264 109.302 237.702 112.961C253.14 116.62 268.609 107.019 272.252 91.5156Z" fill="#407BFF"/>
<path opacity="0.7" d="M270.898 99.3203C274.542 83.817 264.98 68.2828 249.542 64.6237C234.104 60.9646 218.635 70.5662 214.992 86.0695C211.348 101.573 220.909 117.107 236.347 120.766C251.785 124.425 267.254 114.824 270.898 99.3203Z" fill="#FAFAFA"/>
<path d="M227.043 84.4077C227.043 80.7816 227.693 78.2434 228.995 76.793C230.296 75.3425 232.277 74.6173 234.937 74.6173C236.008 74.5851 237.075 74.7453 238.089 75.0906C238.835 75.3584 239.518 75.7767 240.097 76.3197C240.584 76.7856 240.997 77.3247 241.321 77.9177C241.639 78.5387 241.88 79.1973 242.037 79.8782C242.396 81.3358 242.574 82.8323 242.569 84.3339C242.569 87.792 241.986 90.3261 240.819 91.9363C239.652 93.5465 237.642 94.3537 234.791 94.3578C233.455 94.4125 232.125 94.1493 230.91 93.5895C229.907 93.0728 229.061 92.2935 228.462 91.334C227.933 90.4471 227.57 89.4701 227.391 88.4516C227.139 87.119 227.022 85.764 227.043 84.4077ZM232.281 84.4077C232.281 86.8414 232.496 88.5028 232.924 89.3919C233.061 89.7736 233.31 90.1049 233.637 90.3427C233.965 90.5806 234.356 90.714 234.76 90.7256C235.017 90.7279 235.272 90.6791 235.511 90.5821C235.749 90.4851 235.966 90.3417 236.149 90.1602C236.607 89.6598 236.909 89.0361 237.018 88.3656C237.244 87.1087 237.338 85.8317 237.3 84.5552C237.3 82.019 237.086 80.3145 236.657 79.4418C236.505 79.0536 236.239 78.7208 235.895 78.4871C235.551 78.2534 235.145 78.1299 234.729 78.1328C234.314 78.1259 233.908 78.2512 233.568 78.4908C233.228 78.7304 232.973 79.072 232.838 79.4664C232.471 80.3678 232.285 82.019 232.281 84.4199V84.4077Z" fill="#FAFAFA"/>
<path d="M253.83 90.4612H244.209V86.1038L253.83 74.6172H258.432V86.3496H260.819V90.4612H258.432V94.0319H253.83V90.4612ZM253.83 86.3496V80.339L248.744 86.3496H253.83Z" fill="#FAFAFA"/>
<path d="M244.307 116.401C243.496 116.401 242.717 116.077 242.143 115.501C241.57 114.925 241.247 114.143 241.247 113.328C241.247 112.513 241.57 111.731 242.143 111.155C242.717 110.579 243.496 110.255 244.307 110.255C249.383 110.256 254.345 108.746 258.565 105.915C262.786 103.084 266.076 99.0601 268.019 94.3515C269.963 89.6428 270.472 84.4612 269.482 79.462C268.493 74.4628 266.049 69.8706 262.461 66.266C258.872 62.6615 254.3 60.2066 249.322 59.2118C244.344 58.2169 239.184 58.7269 234.495 60.6772C229.805 62.6274 225.797 65.9304 222.977 70.1683C220.157 74.4062 218.652 79.3887 218.652 84.4857C218.652 92.9501 215.304 101.068 209.344 107.053C203.383 113.038 195.3 116.401 186.871 116.401C178.442 116.401 170.358 113.038 164.398 107.053C158.438 101.068 155.09 92.9501 155.09 84.4857C155.09 77.6512 152.386 71.0966 147.574 66.2639C142.761 61.4312 136.234 58.7162 129.429 58.7162C122.623 58.7162 116.096 61.4312 111.283 66.2639C106.471 71.0966 103.767 77.6512 103.767 84.4857C103.767 90.7984 101.903 96.9694 98.4105 102.218C94.9178 107.467 89.9536 111.558 84.1456 113.973C78.3377 116.388 71.9469 117.019 65.7816 115.787C59.6163 114.554 53.9535 111.514 49.5093 107.049C45.0651 102.584 42.0392 96.8963 40.8143 90.7045C39.5894 84.5127 40.2206 78.0952 42.6279 72.2637C45.0352 66.4321 49.1106 61.4485 54.3386 57.9431C59.5666 54.4376 65.7123 52.5679 71.9986 52.5703C72.8101 52.5703 73.5884 52.8941 74.1623 53.4704C74.7362 54.0466 75.0586 54.8283 75.0586 55.6432C75.0586 56.4582 74.7362 57.2398 74.1623 57.8161C73.5884 58.3924 72.8101 58.7162 71.9986 58.7162C66.9233 58.7162 61.9619 60.2275 57.742 63.0591C53.522 65.8907 50.233 69.9153 48.2907 74.6241C46.3485 79.3329 45.8403 84.5142 46.8305 89.513C47.8206 94.5118 50.2646 99.1035 53.8534 102.707C57.4422 106.311 62.0145 108.766 66.9923 109.76C71.9701 110.754 77.1297 110.244 81.8187 108.294C86.5076 106.343 90.5154 103.04 93.335 98.8024C96.1547 94.5646 97.6597 89.5824 97.6597 84.4857C97.6597 76.0212 101.008 67.9034 106.968 61.9181C112.928 55.9328 121.012 52.5703 129.441 52.5703C137.87 52.5703 145.953 55.9328 151.914 61.9181C157.874 67.9034 161.222 76.0212 161.222 84.4857C161.222 87.8698 161.886 91.2207 163.175 94.3472C164.465 97.4737 166.355 100.315 168.738 102.707C171.121 105.1 173.95 106.999 177.063 108.294C180.176 109.589 183.513 110.255 186.883 110.255C190.253 110.255 193.59 109.589 196.703 108.294C199.817 106.999 202.646 105.1 205.028 102.707C207.411 100.315 209.301 97.4737 210.591 94.3472C211.881 91.2207 212.544 87.8698 212.544 84.4857C212.544 78.1731 214.408 72.0024 217.901 66.7538C221.393 61.5052 226.357 57.4146 232.165 54.9992C237.972 52.5837 244.363 51.9521 250.528 53.184C256.693 54.416 262.356 57.4562 266.8 61.9203C271.245 66.3843 274.271 72.0717 275.497 78.2631C276.722 84.4544 276.092 90.8717 273.686 96.7034C271.279 102.535 267.205 107.519 261.978 111.025C256.751 114.531 250.605 116.402 244.319 116.401H244.307Z" fill="#407BFF"/>
<path d="M213.23 105.898L212.759 105.511C214.152 103.783 215.372 101.919 216.4 99.9492L216.945 100.238C215.894 102.243 214.65 104.139 213.23 105.898Z" fill="#407BFF"/>
<path d="M199.399 116.156L199.172 115.584C203.021 114.044 206.55 111.795 209.576 108.953L209.992 109.402C206.909 112.294 203.317 114.584 199.399 116.156Z" fill="#407BFF"/>
<path d="M116.785 217.431H121.277L121.724 206.977H117.231L116.785 217.431Z" fill="#FFC3BD"/>
<path opacity="0.2" d="M121.724 206.98L121.497 212.37H116.999L117.225 206.98H121.724Z" fill="black"/>
<path d="M83.8285 213.89L88.2226 214.842L92.6352 205.107L88.241 204.148L83.8285 213.89Z" fill="#FFC3BD"/>
<path opacity="0.2" d="M88.2349 204.152L92.6352 205.105L90.3585 210.126L85.9644 209.167L88.2349 204.152Z" fill="black"/>
<path d="M107.17 70.2436C105.628 72.9724 104.073 75.7749 102.586 78.5774C101.099 81.3799 99.6426 84.1824 98.4063 86.991C98.082 87.6917 97.7944 88.3862 97.5251 89.0868C97.5251 89.0868 97.5251 89.1298 97.5251 89.179C97.5028 89.3565 97.5028 89.5361 97.5251 89.7137C97.6377 90.2932 97.8206 90.8566 98.0698 91.3915C98.3525 92.0399 98.6712 92.6719 99.0245 93.2844C100.616 95.9337 102.385 98.4716 104.318 100.881L102.005 103.339C99.2648 101.312 96.7964 98.9386 94.6609 96.2774C93.4194 94.7729 92.4594 93.0551 91.8273 91.2071C91.6395 90.6086 91.5245 89.9895 91.4846 89.3633C91.4516 88.9933 91.4516 88.621 91.4846 88.2509C91.5053 88.0443 91.538 87.8391 91.5826 87.6364C91.5826 87.538 91.6315 87.4274 91.656 87.3291L91.7356 87.0648C92.0048 86.2413 92.268 85.4054 92.5679 84.6065C93.7406 81.4755 95.0808 78.4104 96.5826 75.4246C98.0636 72.4623 99.612 69.5983 101.338 66.7344L107.17 70.2436Z" fill="#FFC3BD"/>
<path d="M103.449 100.094L106.607 101.132L103.951 105.619C103.951 105.619 101.638 104.574 101.173 102.435L103.449 100.094Z" fill="#FFC3BD"/>
<path d="M110.909 102.872L107.837 106.326L103.951 105.619L106.607 101.133L110.909 102.872Z" fill="#FFC3BD"/>
<path d="M122.262 45.7256C122.336 46.0883 122.58 46.3402 122.813 46.2911C123.045 46.2419 123.174 45.9162 123.101 45.5597C123.027 45.2033 122.782 44.9451 122.55 44.9943C122.317 45.0435 122.183 45.3692 122.262 45.7256Z" fill="#263238"/>
<path d="M122.55 46.3398C123.193 47.3457 123.972 48.2577 124.863 49.0502C124.655 49.2728 124.401 49.4474 124.119 49.562C123.836 49.6766 123.533 49.7284 123.229 49.7139L122.55 46.3398Z" fill="#ED847E"/>
<path d="M120.561 44.0123C120.507 44.0126 120.454 43.9929 120.414 43.957C120.375 43.9168 120.353 43.8628 120.353 43.8064C120.353 43.7501 120.375 43.6961 120.414 43.6559C120.639 43.3965 120.924 43.1965 121.244 43.0733C121.564 42.9501 121.91 42.9074 122.25 42.9491C122.306 42.9582 122.356 42.9891 122.389 43.0352C122.422 43.0813 122.436 43.1387 122.427 43.1949C122.417 43.25 122.386 43.2988 122.34 43.3309C122.294 43.3631 122.238 43.376 122.183 43.367C121.915 43.3436 121.647 43.3838 121.398 43.4841C121.149 43.5845 120.927 43.7423 120.75 43.9447C120.726 43.9703 120.697 43.9898 120.664 44.0016C120.631 44.0133 120.595 44.017 120.561 44.0123Z" fill="#263238"/>
<path d="M112.14 50.7461C112.752 54.0526 113.425 60.1001 111.124 62.3064C111.124 62.3064 112.023 65.6559 118.137 65.6559C124.869 65.6559 121.35 62.3064 121.35 62.3064C117.678 61.4276 117.776 58.6927 118.413 56.1606L112.14 50.7461Z" fill="#FFC3BD"/>
<path d="M110.206 63.0507C109.716 62.4361 109.184 61.6617 110.285 61.4343C111.509 61.1762 118.162 60.9181 120.457 61.3974C122.752 61.8768 122.097 63.1859 122.097 63.1859L110.206 63.0507Z" fill="white"/>
<path d="M89.9363 215.45C90.1178 215.515 90.3102 215.543 90.5024 215.532C90.6946 215.521 90.8829 215.473 91.0563 215.389C91.1232 215.327 91.1693 215.246 91.188 215.157C91.2066 215.067 91.197 214.974 91.1603 214.891C91.1398 214.822 91.1045 214.758 91.0569 214.704C91.0094 214.65 90.9507 214.606 90.8849 214.577C90.2729 214.289 88.8837 214.86 88.8225 214.885C88.8035 214.892 88.7871 214.904 88.7751 214.921C88.7632 214.937 88.7562 214.957 88.7551 214.977C88.7548 214.998 88.7604 215.019 88.7712 215.038C88.782 215.056 88.7976 215.071 88.8163 215.081C89.177 215.24 89.552 215.364 89.9363 215.45ZM90.6646 214.731L90.7931 214.774C90.8315 214.79 90.8658 214.814 90.8934 214.845C90.921 214.875 90.9411 214.912 90.9522 214.952C91.0134 215.149 90.9522 215.21 90.9155 215.229C90.6768 215.432 89.7772 215.229 89.1468 214.989C89.6271 214.79 90.1458 214.702 90.6646 214.731Z" fill="#407BFF"/>
<path d="M88.8408 215.106H88.8898C89.4039 214.952 90.4871 214.178 90.4993 213.668C90.5014 213.587 90.4758 213.509 90.4268 213.445C90.3777 213.381 90.3082 213.336 90.2301 213.318C90.1526 213.293 90.071 213.284 89.9901 213.292C89.9092 213.299 89.8306 213.322 89.7588 213.361C89.1468 213.668 88.7796 214.916 88.7613 214.971C88.7521 214.987 88.7473 215.005 88.7473 215.023C88.7473 215.041 88.7521 215.059 88.7613 215.075C88.7833 215.095 88.8115 215.106 88.8408 215.106ZM90.1138 213.508H90.1566C90.2913 213.557 90.2913 213.619 90.2913 213.65C90.2913 213.951 89.563 214.559 89.0673 214.805C89.2102 214.311 89.4955 213.87 89.8873 213.539C89.9552 213.498 90.0349 213.48 90.1138 213.49V213.508Z" fill="#407BFF"/>
<path d="M123.082 217.661C123.664 217.661 124.221 217.581 124.404 217.323C124.452 217.255 124.478 217.173 124.478 217.09C124.478 217.006 124.452 216.924 124.404 216.856C124.367 216.793 124.317 216.738 124.258 216.695C124.199 216.652 124.132 216.621 124.061 216.604C123.315 216.401 121.742 217.299 121.681 217.335C121.661 217.346 121.645 217.362 121.635 217.382C121.625 217.402 121.622 217.424 121.626 217.446C121.63 217.468 121.64 217.488 121.655 217.505C121.67 217.521 121.69 217.533 121.711 217.538C122.164 217.618 122.623 217.659 123.082 217.661ZM123.798 216.788C123.865 216.779 123.933 216.779 124 216.788C124.044 216.796 124.085 216.813 124.121 216.839C124.157 216.864 124.187 216.897 124.208 216.936C124.288 217.071 124.257 217.133 124.208 217.169C124 217.464 122.862 217.471 122.023 217.354C122.573 217.051 123.176 216.859 123.798 216.788Z" fill="#407BFF"/>
<path d="M121.724 217.563H121.766C122.311 217.323 123.388 216.334 123.303 215.836C123.303 215.713 123.199 215.566 122.911 215.535C122.802 215.519 122.69 215.528 122.585 215.56C122.479 215.592 122.382 215.646 122.299 215.719C121.73 216.192 121.607 217.403 121.601 217.458C121.599 217.477 121.602 217.496 121.609 217.514C121.617 217.531 121.629 217.546 121.644 217.557C121.669 217.568 121.697 217.57 121.724 217.563ZM122.825 215.719H122.886C123.076 215.719 123.088 215.811 123.094 215.836C123.143 216.143 122.415 216.911 121.87 217.243C121.928 216.728 122.142 216.244 122.482 215.854C122.578 215.771 122.699 215.723 122.825 215.719Z" fill="#407BFF"/>
<path d="M88.6449 214.4L83.7061 213.324C83.6194 213.307 83.5293 213.319 83.4504 213.359C83.3715 213.399 83.3085 213.465 83.2716 213.546L81.558 217.282C81.5162 217.373 81.4956 217.472 81.4976 217.572C81.4997 217.672 81.5243 217.77 81.5698 217.859C81.6152 217.947 81.6802 218.025 81.7598 218.085C81.8394 218.145 81.9315 218.185 82.0292 218.204C83.7612 218.548 84.618 218.628 86.7906 219.101C88.1247 219.396 91.1419 220.134 92.984 220.533C94.8261 220.933 95.4626 219.157 94.7466 218.825C91.5213 217.344 90.1749 216.041 89.2998 214.83C89.1425 214.61 88.909 214.456 88.6449 214.4Z" fill="#263238"/>
<path d="M121.246 216.906H116.35C116.26 216.907 116.173 216.938 116.103 216.995C116.033 217.052 115.984 217.131 115.965 217.22L115.065 221.251C115.044 221.348 115.045 221.449 115.067 221.545C115.09 221.641 115.135 221.732 115.197 221.808C115.259 221.885 115.338 221.947 115.428 221.989C115.517 222.031 115.615 222.052 115.714 222.05C117.482 222.05 120.047 221.915 122.268 221.915C124.875 221.915 127.121 222.063 130.175 222.063C132.011 222.063 132.531 220.188 131.76 220.016C128.241 219.242 125.371 219.162 122.329 217.281C122.011 217.055 121.636 216.925 121.246 216.906Z" fill="#263238"/>
<path d="M122.862 63.4187C126.35 63.0499 129.961 62.5951 133.456 62.042C136.892 61.5535 140.285 60.7931 143.602 59.768C143.988 59.6328 144.355 59.4915 144.722 59.3501C145.025 59.225 145.319 59.0814 145.604 58.9199C146.277 58.5327 147.017 58.0779 147.74 57.5924C149.196 56.6152 150.677 55.5766 152.14 54.5195L161.02 48.1094L163.272 50.6353C160.775 53.4009 158.174 56.0314 155.439 58.5757C154.068 59.8418 152.672 61.0894 151.155 62.2632C150.402 62.8778 149.649 63.4924 148.762 64.0578C148.275 64.3916 147.766 64.6914 147.238 64.9551C146.76 65.1825 146.283 65.3976 145.812 65.5697C143.987 66.3111 142.114 66.9271 140.206 67.4135C138.37 67.9174 136.491 68.3169 134.637 68.6426C130.925 69.3789 127.176 69.9102 123.406 70.2344L122.862 63.4187Z" fill="#FFC3BD"/>
<path d="M103.076 63.3031C98.8591 64.2742 91.7844 85.2868 91.7844 85.2868L98.6694 87.5853C98.6694 87.5853 105.695 77.1374 108.082 72.0917C110.554 66.837 107.384 62.3382 103.076 63.3031Z" fill="#263238"/>
<path d="M99.8691 86.5797C99.8691 86.5797 93.1371 85.2891 91.5887 84.3242C91.0501 85.1109 90.3647 87.9564 90.842 88.7922C91.3194 89.6281 97.5741 90.8388 98.4125 90.3471C99.2509 89.8555 99.8691 86.5797 99.8691 86.5797Z" fill="#263238"/>
<path opacity="0.2" d="M99.8691 86.5797C99.8691 86.5797 93.1371 85.2891 91.5887 84.3242C91.0501 85.1109 90.3647 87.9564 90.842 88.7922C91.3194 89.6281 97.5741 90.8388 98.4125 90.3471C99.2509 89.8555 99.8691 86.5797 99.8691 86.5797Z" fill="#FAFAFA"/>
<path d="M128.266 63.5615C128.266 63.5615 133.046 68.9883 128.529 102.588H104.484C104.318 98.9001 106.638 80.7944 103.076 63.328C105.734 62.814 108.422 62.4732 111.124 62.3078C114.53 62.111 117.944 62.111 121.35 62.3078C123.684 62.5447 125.997 62.9639 128.266 63.5615Z" fill="#263238"/>
<path d="M119.735 70.7473C124.049 75.2153 145.677 66.3039 145.677 66.3039L142.226 59.6172C142.226 59.6172 128.7 62.4443 123.143 62.3275C116.271 62.1677 116.473 67.3486 119.735 70.7473Z" fill="#263238"/>
<path d="M141.155 59.4677C141.155 59.4677 144.594 65.4291 144.876 67.2237C145.818 67.1193 148.395 65.7672 148.731 64.8699C149.068 63.9726 145.873 58.4229 144.943 58.1095C144.013 57.796 141.155 59.4677 141.155 59.4677Z" fill="#263238"/>
<path opacity="0.2" d="M141.155 59.4677C141.155 59.4677 144.594 65.4291 144.876 67.2237C145.818 67.1193 148.395 65.7672 148.731 64.8699C149.068 63.9726 145.873 58.4229 144.943 58.1095C144.013 57.796 141.155 59.4677 141.155 59.4677Z" fill="#FAFAFA"/>
<path d="M160.879 48.1746L163.939 44.5547L167.232 48.2422C167.232 48.2422 165.2 51.6716 161.975 51.1307L160.879 48.1746Z" fill="#FFC3BD"/>
<path d="M168.242 42.8438L171.21 44.5523L167.262 48.2152L163.964 44.5523L168.242 42.8438Z" fill="#FFC3BD"/>
<path d="M110.255 47.3907C111.411 51.6928 111.87 54.3109 114.539 56.1117C118.541 58.8158 123.523 55.7122 123.676 51.1212C123.817 46.9974 121.907 40.6119 117.28 39.7391C116.26 39.5383 115.206 39.6033 114.219 39.9278C113.231 40.2523 112.342 40.8255 111.638 41.5928C110.933 42.3601 110.436 43.2958 110.194 44.3108C109.952 45.3258 109.973 46.3861 110.255 47.3907Z" fill="#FFC3BD"/>
<path d="M119.698 30.9336C122.758 37.399 106.876 33.816 106.766 39.6791V39.7221C106.766 39.9618 106.766 40.1892 106.766 40.4043C106.313 39.9803 105.401 39.5132 103.829 40.1523C104.751 40.5021 105.586 41.0495 106.277 41.7564C105.665 42.2788 104.734 42.5554 105.132 45.0506C105.322 46.2797 106.54 48.1235 108.125 49.7644C108.816 50.8707 111.062 53.4028 111.02 54.0112C111.363 54.0075 111.701 53.9365 112.017 53.8022C112.116 54.0305 112.16 54.2789 112.146 54.5275C112.978 54.6873 113.633 54.5766 113.706 53.9928C114.386 54.0604 114.875 53.876 114.9 53.3229C115.548 53.4212 115.995 53.2122 115.965 52.5116C117.507 51.6635 118.033 49.8689 118.315 47.8777C118.64 45.3497 119.9 43.0371 121.846 41.4C124.961 38.8617 126.185 34.9099 119.698 30.9336Z" fill="#263238"/>
<path d="M116.448 47.1629C116.749 48.2382 117.394 49.1842 118.284 49.8548C119.459 50.7275 120.328 49.8548 120.249 48.5396C120.175 47.3104 119.471 45.4667 118.18 45.0918C116.889 44.7169 116.112 45.86 116.448 47.1629Z" fill="#FFC3BD"/>
<path d="M119.998 102.59C119.998 102.59 114.894 137.093 112.097 150.017C109.037 164.153 92.6229 209.552 92.6229 209.552L84.5751 207.807C84.5751 207.807 96.858 165.314 98.6083 151.302C100.505 136.091 104.483 102.59 104.483 102.59H119.998Z" fill="#407BFF"/>
<path opacity="0.5" d="M119.998 102.59C119.998 102.59 114.894 137.093 112.097 150.017C109.037 164.153 92.6229 209.552 92.6229 209.552L84.5751 207.807C84.5751 207.807 96.858 165.314 98.6083 151.302C100.505 136.091 104.483 102.59 104.483 102.59H119.998Z" fill="black"/>
<path opacity="0.3" d="M116.772 114.88C110.873 116.042 111.497 138.136 112.207 149.5C113.908 141.467 116.399 126.011 118.1 115.04C117.689 114.837 117.22 114.78 116.772 114.88Z" fill="black"/>
<path d="M128.529 102.59C128.529 102.59 129.141 136.343 128.658 150.116C128.15 164.435 123.15 211.328 123.15 211.328H115.555C115.555 211.328 115.273 165.271 114.943 151.21C114.569 135.876 112.727 102.59 112.727 102.59H128.529Z" fill="#407BFF"/>
<path opacity="0.5" d="M128.529 102.59C128.529 102.59 129.141 136.343 128.658 150.116C128.15 164.435 123.15 211.328 123.15 211.328H115.555C115.555 211.328 115.273 165.271 114.943 151.21C114.569 135.876 112.727 102.59 112.727 102.59H128.529Z" fill="black"/>
<path opacity="0.2" d="M121.571 205.833C121.56 205.833 121.55 205.83 121.541 205.825C121.532 205.82 121.524 205.814 121.518 205.805C121.512 205.797 121.507 205.788 121.504 205.778C121.502 205.768 121.502 205.758 121.503 205.747C122.844 192.774 126.008 161.387 126.399 150.109C126.809 138.586 126.442 112.81 126.314 105.183C126.315 105.163 126.324 105.144 126.339 105.131C126.354 105.117 126.373 105.109 126.393 105.109C126.413 105.109 126.431 105.117 126.445 105.131C126.459 105.145 126.467 105.164 126.467 105.183C126.595 112.81 126.962 138.592 126.552 150.115C126.154 161.393 122.99 192.792 121.656 205.766C121.656 205.776 121.653 205.786 121.648 205.795C121.643 205.804 121.636 205.812 121.628 205.819C121.62 205.825 121.611 205.83 121.601 205.832C121.591 205.835 121.581 205.835 121.571 205.833Z" fill="#FAFAFA"/>
<path d="M94.5507 206.85C94.5874 206.85 93.0513 209.776 93.0513 209.776L83.9998 207.803L84.7587 205.074L94.5507 206.85Z" fill="#263238"/>
<path d="M124.631 208.277C124.667 208.277 124.202 211.455 124.202 211.455H114.943L114.692 208.622L124.631 208.277Z" fill="#263238"/>
</g>
<defs>
<clipPath id="clip0_5_2222">
<rect width="306" height="229" fill="white" transform="translate(0.394531)"/>
</clipPath>
</defs>
</svg>
