<svg width="240" height="201" viewBox="0 0 240 201" fill="none" xmlns="http://www.w3.org/2000/svg">
<g clip-path="url(#clip0_5_2609)">
<path d="M60.1749 17.332L50.0704 185.909L205.506 187.589L220.248 19.9692L60.1749 17.332ZM200.863 165.445L59.0987 163.199L67.7713 37.5713L211.414 39.5031L200.863 165.445Z" fill="#D8A9FC"/>
<path d="M69.1357 172.349C69.1357 172.349 67.6542 166.818 64.3041 168.687C60.9539 170.556 69.0321 181.666 69.0321 181.666C69.0321 181.666 77.6641 169.927 74.0348 168.022C70.4055 166.117 69.1357 172.349 69.1357 172.349Z" stroke="#6F2C88" stroke-width="1.05" stroke-linecap="round" stroke-linejoin="round"/>
<path d="M93.5144 180.631L92.5192 177.936C93.2576 177.008 93.725 175.895 93.8701 174.719C94.2484 171.462 92.0194 168.681 88.8899 168.501C85.7604 168.322 82.9236 170.824 82.5543 174.077C82.1851 177.329 84.4095 180.115 87.5075 180.29C88.6256 180.348 89.7361 180.076 90.7001 179.508L93.5144 180.631Z" stroke="#6F2C88" stroke-width="1.05" stroke-linecap="round" stroke-linejoin="round"/>
<path d="M82.5318 29.2026C81.6537 32.7653 78.1054 35.1059 74.6067 34.4365C73.7767 34.2739 72.9892 33.9427 72.2929 33.4636C71.5967 32.9845 71.0066 32.3676 70.5594 31.6513C70.1122 30.9351 69.8174 30.1347 69.6933 29.3C69.5693 28.4653 69.6185 27.614 69.8381 26.7991C70.2504 25.0864 71.2988 23.5936 72.7714 22.6221C74.244 21.6507 76.0313 21.2729 77.7722 21.5651C78.6026 21.7264 79.3908 22.0568 80.0874 22.5357C80.784 23.0147 81.3741 23.6318 81.8208 24.3486C82.2675 25.0654 82.5612 25.8665 82.6835 26.7017C82.8059 27.5369 82.7542 28.3882 82.5318 29.2026Z" stroke="#6F2C88" stroke-width="1.14" stroke-linecap="round" stroke-linejoin="round"/>
<path d="M87.8137 25.8164L149.382 26.7688" stroke="#6F2C88" stroke-width="1.16" stroke-linecap="round" stroke-linejoin="round"/>
<path d="M88.4351 30.7969L124.233 31.017" stroke="#6F2C88" stroke-width="1.16" stroke-linecap="round" stroke-linejoin="round"/>
<path d="M233.099 127.043L207.528 145.921L190.034 137.659L152.876 120.106L112.048 162.445L106.244 112.886C106.244 112.886 134.896 76.5591 139.881 74.479C143.821 72.8257 181.942 90.5986 197.698 98.0968C201.858 100.078 204.452 101.34 204.452 101.34L229.668 99.2424C229.725 99.2223 229.785 99.2135 229.844 99.2166C229.904 99.2196 229.963 99.2344 230.017 99.26C230.071 99.2857 230.12 99.3217 230.16 99.3661C230.2 99.4105 230.231 99.4623 230.251 99.5187C230.272 99.575 230.28 99.6348 230.277 99.6945C230.274 99.7542 230.259 99.8128 230.234 99.8668C230.208 99.9208 230.172 99.9693 230.127 100.009C230.083 100.049 230.031 100.08 229.974 100.1L204.308 117.536L190.534 112.684L180.177 109.036L198.751 122.779L208.793 130.206L232.744 126.203C232.855 126.156 232.981 126.155 233.094 126.2C233.206 126.246 233.295 126.334 233.343 126.445C233.39 126.557 233.391 126.682 233.345 126.794C233.299 126.906 233.211 126.996 233.099 127.043Z" fill="#D8A9FC"/>
<path d="M233.099 127.041L207.528 145.919L197.378 141.125L190.034 137.657L198.778 122.777L204.218 126.821L208.82 130.222L232.744 126.201C232.855 126.154 232.981 126.153 233.094 126.198C233.206 126.244 233.295 126.332 233.343 126.443C233.39 126.555 233.391 126.68 233.345 126.792C233.299 126.904 233.211 126.994 233.099 127.041Z" fill="#FF9EB6"/>
<path opacity="0.48" d="M233.099 127.041L207.528 145.919L197.378 141.125L190.034 137.657L198.778 122.777L204.218 126.821L208.82 130.222L232.744 126.201C232.855 126.154 232.981 126.153 233.094 126.198C233.206 126.244 233.295 126.332 233.343 126.443C233.39 126.555 233.391 126.68 233.345 126.792C233.299 126.904 233.211 126.994 233.099 127.041Z" fill="#6F2C88"/>
<path d="M233.099 127.044L207.528 145.922L197.378 141.128C200.08 138.527 203.822 134.389 203.511 131.972C203.511 131.972 201.948 127.929 204.218 126.806L208.82 130.207L232.744 126.204C232.855 126.157 232.981 126.156 233.094 126.201C233.206 126.247 233.295 126.335 233.343 126.447C233.39 126.558 233.391 126.683 233.345 126.796C233.3 126.908 233.211 126.997 233.099 127.044Z" fill="#6F2C88"/>
<path d="M109.459 114.807C109.459 114.807 139.358 87.8516 146.108 87.8516C152.858 87.8516 208.797 130.19 208.797 130.19" stroke="#6F2C88" stroke-width="0.83" stroke-linecap="round" stroke-linejoin="round"/>
<path d="M48.0531 85.3031C48.0531 85.3031 60.4271 83.2185 70.2344 89.634C80.0417 96.0494 87.1112 100.538 87.1112 100.538L83.4144 87.7066L98.8458 83.6992L106.564 111.104L109.459 108.701L114.282 160.981C114.282 160.981 101.579 175.578 66.0557 167.24C30.5324 158.901 28.7628 108.238 28.7628 108.238L34.7111 88.5063L48.0531 85.3031Z" fill="#5463C7"/>
<path d="M34.5895 88.3891C34.5895 88.3891 68.8925 135.818 84.3014 140.755C97.4408 144.965 112.67 143.28 112.67 143.28L109.896 113.328L98.0397 121.064C98.0397 121.064 71.7563 101.539 66.4519 97.2081C61.1475 92.8772 49.1698 85.9766 49.1698 85.9766L34.5895 88.3891Z" fill="#FFE0E0"/>
<path d="M138.296 159.461L84.8283 181.03L76.2097 147.303L129.677 125.734L138.296 159.461Z" fill="#6F2C88"/>
<path d="M113.584 150.744C113.981 151.733 114.076 152.817 113.856 153.859C113.637 154.902 113.113 155.856 112.35 156.601C111.588 157.347 110.621 157.85 109.572 158.048C108.523 158.246 107.439 158.129 106.456 157.713C105.474 157.296 104.637 156.599 104.051 155.709C103.465 154.818 103.157 153.775 103.165 152.71C103.173 151.644 103.497 150.606 104.096 149.724C104.696 148.843 105.543 148.158 106.532 147.757C107.192 147.489 107.898 147.354 108.609 147.36C109.321 147.365 110.025 147.511 110.68 147.788C111.336 148.066 111.929 148.47 112.428 148.977C112.926 149.485 113.319 150.085 113.584 150.744Z" fill="#FFE0E0"/>
<path d="M55.7801 94.1574C54.2446 96.7721 34.6165 88.8426 34.6165 88.8426L31.3204 72.3906L37.6875 73.5452L47.1435 75.2614L48.1882 80.7559L49.1743 85.9718C49.1743 85.9718 57.2931 91.5427 55.7801 94.1574Z" fill="#FF9EB6"/>
<path opacity="0.48" d="M55.7801 94.1574C54.2446 96.7721 34.6165 88.8426 34.6165 88.8426L31.3204 72.3906L37.6875 73.5452L47.1435 75.2614L48.1882 80.7559L49.1743 85.9718C49.1743 85.9718 57.2931 91.5427 55.7801 94.1574Z" fill="#6F2C88"/>
<path d="M48.1882 80.7536C45.8942 80.762 43.6265 80.2669 41.5457 79.3034C39.4649 78.3399 37.622 76.9316 36.1475 75.1783C36.5803 74.5587 37.104 74.0074 37.701 73.543L47.157 75.2592L48.1882 80.7536Z" fill="#6F2C88"/>
<path d="M41.0646 37.6681C41.8856 37.1783 42.7939 36.8518 43.7394 36.7067C44.2111 36.6353 44.6926 36.6628 45.1531 36.7873C45.6136 36.9119 46.043 37.1307 46.4141 37.43C46.7793 37.7378 47.0369 38.1537 47.1494 38.6173C47.2619 39.081 47.2236 39.5683 47.04 40.0088C47.7109 39.6807 48.4674 39.5688 49.2049 39.6887C49.9423 39.8087 50.6241 40.1544 51.1559 40.678C51.6877 41.2017 52.0431 41.8774 52.1729 42.6115C52.3028 43.3456 52.2006 44.1018 51.8806 44.7754C52.355 44.6964 52.8424 44.7674 53.2744 44.9784C53.7063 45.1895 54.0613 45.5301 54.2896 45.9525C54.5038 46.3825 54.6112 46.8577 54.6026 47.3378C54.5939 47.8179 54.4696 48.2889 54.2401 48.711C53.7703 49.5547 53.0296 50.2162 52.1373 50.5889C52.6486 51.0719 53.0191 51.6842 53.2094 52.3606C53.3997 53.0369 53.4026 53.7522 53.2179 54.4301C52.8213 55.7897 51.9343 56.9548 50.7278 57.7007C49.5296 58.4357 48.2039 58.9401 46.8193 59.1878C42.531 60.0765 38.0742 59.665 34.0221 58.0062C32.6084 57.4764 31.3159 56.6681 30.2217 55.6296C28.2539 53.6259 27.2768 49.7892 28.6952 47.2015C29.3211 46.0558 31.0007 45.373 32.0093 44.5957C33.4187 43.5085 34.7516 42.327 36.1205 41.1858C37.6492 39.8547 39.3052 38.6765 41.0646 37.6681Z" fill="#6F2C88"/>
<path opacity="0.24" d="M26.8895 67.0603L26.84 67.0963C26.84 67.0963 31.3429 72.9097 36.976 76.2747C40.9431 78.6378 46.2475 77.91 49.0528 77.2631C49.6924 77.1181 50.2923 76.8344 50.8098 76.4322C51.3272 76.03 51.7497 75.5192 52.0472 74.9359C53.2125 72.7118 53.917 70.2763 54.1185 67.7747C54.1524 67.2241 54.1524 66.6719 54.1185 66.1214C53.9373 64.1603 53.4638 62.2373 52.7136 60.4157C51.5037 57.3885 50.0317 54.4722 48.3143 51.7L47.7784 50.9093C46.7225 49.5169 45.4 48.3473 43.8877 47.4686C42.3753 46.5898 40.7032 46.0192 38.9683 45.79C37.2333 45.5607 35.47 45.6774 33.7805 46.1331C32.091 46.5888 30.509 47.3745 29.1262 48.4447C27.7433 49.515 26.5871 50.8484 25.7246 52.3677C24.8621 53.8871 24.3104 55.5621 24.1015 57.2958C23.8926 59.0294 24.0307 60.7872 24.5077 62.4672C24.9848 64.1472 25.7913 65.7161 26.8805 67.0828L26.8895 67.0603Z" fill="#6F2C88"/>
<path d="M28.389 67.0327C27.5451 66.8286 26.66 66.8723 25.8404 67.1585C25.4335 67.3379 25.0675 67.5981 24.7648 67.9233C24.4621 68.2485 24.229 68.6318 24.0797 69.0499C23.7894 69.8929 23.7799 70.8069 24.0527 71.6556C24.2109 72.2055 24.5015 72.7083 24.8993 73.1202C25.6935 73.8122 26.7179 74.1838 27.7721 74.1625C28.621 74.1977 29.4702 74.1007 30.2892 73.875C31.2664 73.6099 32.2525 73.1068 32.7298 72.2172C32.9265 71.8229 33.0289 71.3885 33.0289 70.9481C33.0289 70.5076 32.9265 70.0732 32.7298 69.6789C31.9148 68.0615 30.0506 67.3472 28.389 67.0327Z" fill="#FF9EB6"/>
<path opacity="0.48" d="M28.389 67.0327C27.5451 66.8286 26.66 66.8723 25.8404 67.1585C25.4335 67.3379 25.0675 67.5981 24.7648 67.9233C24.4621 68.2485 24.229 68.6318 24.0797 69.0499C23.7894 69.8929 23.7799 70.8069 24.0527 71.6556C24.2109 72.2055 24.5015 72.7083 24.8993 73.1202C25.6935 73.8122 26.7179 74.1838 27.7721 74.1625C28.621 74.1977 29.4702 74.1007 30.2892 73.875C31.2664 73.6099 32.2525 73.1068 32.7298 72.2172C32.9265 71.8229 33.0289 71.3885 33.0289 70.9481C33.0289 70.5076 32.9265 70.0732 32.7298 69.6789C31.9148 68.0615 30.0506 67.3472 28.389 67.0327Z" fill="#6F2C88"/>
<path d="M26.8895 67.0603L26.84 67.0963C26.84 67.0963 31.3429 72.9097 36.976 76.2747C40.9431 78.6378 46.2475 77.91 49.0528 77.2631C49.6924 77.1181 50.2923 76.8344 50.8098 76.4322C51.3272 76.03 51.7497 75.5192 52.0472 74.9359C53.2125 72.7118 53.917 70.2763 54.1185 67.7747C54.1524 67.2241 54.1524 66.6719 54.1185 66.1214C53.9373 64.1603 53.4638 62.2373 52.7136 60.4157C51.5037 57.3885 50.0317 54.4722 48.3143 51.7L47.7784 50.9093C46.7225 49.5169 45.4 48.3473 43.8877 47.4686C42.3753 46.5898 40.7032 46.0192 38.9683 45.79C37.2333 45.5607 35.47 45.6774 33.7805 46.1331C32.091 46.5888 30.509 47.3745 29.1262 48.4447C27.7433 49.515 26.5871 50.8484 25.7246 52.3677C24.8621 53.8871 24.3104 55.5621 24.1015 57.2958C23.8926 59.0294 24.0307 60.7872 24.5077 62.4672C24.9848 64.1472 25.7913 65.7161 26.8805 67.0828L26.8895 67.0603Z" fill="#FF9EB6"/>
<path opacity="0.48" d="M26.8895 67.0603L26.84 67.0963C26.84 67.0963 31.3429 72.9097 36.976 76.2747C40.9431 78.6378 46.2475 77.91 49.0528 77.2631C49.6924 77.1181 50.2923 76.8344 50.8098 76.4322C51.3272 76.03 51.7497 75.5192 52.0472 74.9359C53.2125 72.7118 53.917 70.2763 54.1185 67.7747C54.1524 67.2241 54.1524 66.6719 54.1185 66.1214C53.9373 64.1603 53.4638 62.2373 52.7136 60.4157C51.5037 57.3885 50.0317 54.4722 48.3143 51.7L47.7784 50.9093C46.7225 49.5169 45.4 48.3473 43.8877 47.4686C42.3753 46.5898 40.7032 46.0192 38.9683 45.79C37.2333 45.5607 35.47 45.6774 33.7805 46.1331C32.091 46.5888 30.509 47.3745 29.1262 48.4447C27.7433 49.515 26.5871 50.8484 25.7246 52.3677C24.8621 53.8871 24.3104 55.5621 24.1015 57.2958C23.8926 59.0294 24.0307 60.7872 24.5077 62.4672C24.9848 64.1472 25.7913 65.7161 26.8805 67.0828L26.8895 67.0603Z" fill="#6F2C88"/>
<path d="M48.2107 68.4785C47.9659 68.7815 47.6553 69.0252 47.3025 69.1911C46.9496 69.3571 46.5636 69.4411 46.1735 69.4368C45.7834 69.4325 45.3994 69.3399 45.0503 69.1662C44.7012 68.9924 44.3962 68.7419 44.1581 68.4336" stroke="#6F2C88" stroke-width="0.83" stroke-linecap="round" stroke-linejoin="round"/>
<path d="M50.7233 59.3357C50.6457 59.7675 50.4933 60.1825 50.2731 60.5622C50.0398 60.9802 49.6739 61.3089 49.2329 61.4967C48.7834 61.6608 48.2915 61.6687 47.837 61.5191C47.4249 61.3876 47.0348 61.1953 46.6797 60.9486C46.6586 60.9354 46.6404 60.918 46.6262 60.8976C46.612 60.8772 46.602 60.8541 46.597 60.8298C46.5919 60.8054 46.5919 60.7803 46.5968 60.756C46.6017 60.7316 46.6116 60.7085 46.6257 60.688C46.649 60.6542 46.6827 60.6289 46.7217 60.6159C46.7607 60.603 46.8029 60.603 46.8418 60.6161C47.2106 60.7584 47.5881 60.877 47.9721 60.971C48.3132 61.0671 48.6764 61.0493 49.0065 60.9204C49.3365 60.7914 49.6152 60.5584 49.8002 60.2567C50.0155 59.9302 50.1994 59.5843 50.3496 59.2234C50.3702 59.1784 50.4078 59.1433 50.4541 59.1257C50.5004 59.108 50.5518 59.1093 50.5973 59.1291C50.6387 59.144 50.6738 59.1727 50.6967 59.2103C50.7197 59.2478 50.729 59.2921 50.7233 59.3357Z" fill="#6F2C88"/>
<path d="M42.2715 63.021C42.235 63.5569 42.0697 64.0762 41.7896 64.535C41.6355 64.7799 41.4331 64.991 41.1947 65.1555C40.9563 65.32 40.6869 65.4345 40.4028 65.4919C39.8661 65.5997 39.3111 65.575 38.7862 65.42C38.2668 65.3066 37.7705 65.1061 37.3183 64.827C37.2775 64.7987 37.2492 64.756 37.2391 64.7075C37.2291 64.659 37.2381 64.6085 37.2642 64.5664C37.2883 64.5298 37.3246 64.5029 37.3666 64.4906C37.4087 64.4782 37.4538 64.4812 37.4939 64.499C37.9402 64.6696 38.4037 64.7916 38.8763 64.8629C39.3222 64.9515 39.7812 64.9515 40.2271 64.8629C40.644 64.771 41.0125 64.5296 41.2628 64.1845C41.5295 63.8014 41.7332 63.3783 41.8662 62.9311C41.8738 62.9081 41.8859 62.8867 41.9019 62.8684C41.9178 62.85 41.9372 62.835 41.9589 62.8241C41.9807 62.8133 42.0044 62.8068 42.0287 62.8051C42.0529 62.8034 42.0773 62.8066 42.1003 62.8143C42.1252 62.8165 42.1494 62.8237 42.1715 62.8353C42.1936 62.8469 42.2132 62.8628 42.2291 62.882C42.245 62.9013 42.2569 62.9234 42.2642 62.9473C42.2715 62.9711 42.2739 62.9962 42.2715 63.021Z" fill="#6F2C88"/>
<path d="M49.7462 55.7681C49.5137 55.5224 49.219 55.344 48.8933 55.2514C48.5676 55.1589 48.2229 55.1558 47.8955 55.2424C47.2397 55.4257 46.6633 55.8207 46.2565 56.3656L49.7462 55.7681Z" fill="#6F2C88"/>
<path d="M40.056 59.4311C39.6248 59.2963 39.1672 59.2688 38.7229 59.351C38.2787 59.4333 37.8614 59.6227 37.5074 59.9028C36.9534 60.3352 36.568 60.9469 36.4177 61.6324L40.056 59.4311Z" fill="#6F2C88"/>
<path opacity="0.14" d="M34.6165 71.6457C34.9145 72.3253 35.4078 72.9014 36.034 73.3014C36.6602 73.7013 37.3911 73.9071 38.1345 73.8926C38.8778 73.8781 39.6002 73.6441 40.2103 73.2201C40.8203 72.7961 41.2907 72.2012 41.5619 71.5105C41.8332 70.8198 41.8931 70.0644 41.7341 69.3398C41.5751 68.6152 41.2044 67.9538 40.6687 67.4394C40.1331 66.9249 39.4566 66.5805 38.7248 66.4495C37.993 66.3186 37.2387 66.4071 36.5573 66.7038C36.1041 66.9005 35.6942 67.1845 35.3513 67.5395C35.0083 67.8945 34.7389 68.3136 34.5586 68.7727C34.3783 69.2319 34.2906 69.722 34.3006 70.215C34.3105 70.708 34.4179 71.1942 34.6165 71.6457Z" fill="#6F2C88"/>
<path opacity="0.14" d="M50.156 65.562C50.4828 66.3127 51.0474 66.9358 51.7631 67.3359C52.4788 67.7359 53.3062 67.8908 54.1185 67.7769C54.1524 67.2263 54.1524 66.6742 54.1185 66.1236C53.9373 64.1626 53.4638 62.2395 52.7136 60.418C52.4976 60.4694 52.2866 60.54 52.0832 60.6291C51.6319 60.8266 51.2241 61.1109 50.8829 61.4658C50.5418 61.8206 50.2741 62.239 50.0951 62.6971C49.9161 63.1552 49.8294 63.6441 49.8398 64.1356C49.8503 64.6272 49.9577 65.1119 50.156 65.562Z" fill="#6F2C88"/>
<path d="M44.8156 59.1797C45.1734 61.7946 46.4731 64.19 48.4719 65.9186C47.5837 66.3268 46.6691 66.675 45.7341 66.9609" stroke="#6F2C88" stroke-width="0.83" stroke-linecap="round" stroke-linejoin="round"/>
<path d="M30.5009 72.1167C29.9745 71.2249 29.3017 70.4276 28.5106 69.7581C27.728 69.1062 26.7428 68.7457 25.7233 68.7383" stroke="#6F2C88" stroke-width="1.04" stroke-linecap="round" stroke-linejoin="round"/>
<path d="M29.5732 70.8491C28.974 70.4285 28.2353 70.2547 27.5109 70.3639C27.158 70.4223 26.8203 70.5501 26.5173 70.7398C26.2143 70.9296 25.952 71.1774 25.7458 71.4691" stroke="#6F2C88" stroke-width="1.04" stroke-linecap="round" stroke-linejoin="round"/>
<path d="M24.1923 68.5532C25.0344 67.3402 26.7004 66.9269 28.1594 67.165C29.6183 67.4031 30.9332 68.1668 32.212 68.9216C32.5001 68.3147 32.6108 67.639 32.5311 66.9722C32.4514 66.3054 32.1848 65.6746 31.7617 65.1523C32.5284 64.9304 33.2304 64.5281 33.8087 63.9792C34.3871 63.4303 34.8249 62.7508 35.0852 61.9979C35.3456 61.2451 35.4209 60.4408 35.3049 59.6528C35.1888 58.8649 34.8848 58.1162 34.4184 57.4699C35.1777 57.3236 35.8882 56.99 36.4851 56.4996C37.0821 56.0091 37.5465 55.3774 37.8361 54.662C38.1028 53.9378 38.1422 53.1498 37.9491 52.4026C37.7561 51.6555 37.3398 50.9847 36.7554 50.4794C37.7073 49.6078 38.2855 48.4033 38.3693 47.117C38.4532 45.8306 38.0364 44.5615 37.2057 43.5742C32.9576 44.8011 28.8647 46.5105 25.0074 48.6689C23.2918 49.6572 21.5762 50.7849 20.5045 52.4516C19.5469 54.0483 19.1315 55.9108 19.3202 57.7619C19.5168 59.5995 20.0286 61.3897 20.8332 63.0542C21.7447 65.006 22.8714 66.8504 24.1923 68.5532Z" fill="#6F2C88"/>
<path d="M90.3263 152.75C90.3263 152.75 106.964 150.463 107.208 151.245C107.451 152.027 99.7914 155.338 99.7914 155.338C99.7914 155.338 115.646 156.236 115.826 157.202C116.006 158.168 103.511 159.417 103.511 159.417C103.511 159.417 115.628 158.995 115.75 159.956C115.871 160.917 103.754 162.544 103.754 162.544C103.754 162.544 115.506 162.306 115.687 163.326C115.867 164.345 104.056 165.19 104.056 165.19C104.056 165.19 112.012 165.85 111.891 166.987C111.769 168.124 91.9563 168.923 91.9563 168.923L90.3263 152.75Z" fill="#FF9EB6"/>
<path opacity="0.48" d="M90.3263 152.75C90.3263 152.75 106.964 150.463 107.208 151.245C107.451 152.027 99.7914 155.338 99.7914 155.338C99.7914 155.338 115.646 156.236 115.826 157.202C116.006 158.168 103.511 159.417 103.511 159.417C103.511 159.417 115.628 158.995 115.75 159.956C115.871 160.917 103.754 162.544 103.754 162.544C103.754 162.544 115.506 162.306 115.687 163.326C115.867 164.345 104.056 165.19 104.056 165.19C104.056 165.19 112.012 165.85 111.891 166.987C111.769 168.124 91.9563 168.923 91.9563 168.923L90.3263 152.75Z" fill="#6F2C88"/>
<path d="M34.5895 88.3867C34.5895 88.3867 27.4479 100.068 26.3492 110.477C24.2598 130.285 38.7276 154.262 49.1788 162.762C59.63 171.262 91.9338 169.982 91.9338 169.982L90.5829 151.616C90.5829 151.616 65.2632 152.514 61.5663 145.776C57.8694 139.037 48.0576 106.056 48.0576 106.056L34.5895 88.3867Z" fill="#5463C7"/>
<path d="M49.8183 117.707C49.8183 117.707 59.3779 147.304 62.3589 147.857C67.5417 148.818 90.4479 151.451 90.4479 151.451L91.9338 169.979" stroke="#6F2C88" stroke-width="0.83" stroke-linecap="round" stroke-linejoin="round"/>
<path d="M62.0436 147.809C60.2628 150.154 58.796 152.722 57.6803 155.446" stroke="#6F2C88" stroke-width="0.83" stroke-linecap="round" stroke-linejoin="round"/>
<path d="M62.0842 147.605C62.1592 150.454 62.2373 153.299 62.3183 156.141" stroke="#6F2C88" stroke-width="0.83" stroke-linecap="round" stroke-linejoin="round"/>
<path d="M87.6156 151.156L89.1241 170.061" stroke="#6F2C88" stroke-width="0.83" stroke-linecap="round" stroke-linejoin="round"/>
<path d="M30.8926 95.6445L42.9469 100.097L37.6425 108.875C37.6425 108.875 50.4217 111.283 62.4804 122.708" stroke="#6F2C88" stroke-width="0.83" stroke-linecap="round" stroke-linejoin="round"/>
<path d="M82.676 74.9377L96.1469 67.8125L84.0806 45.104L70.6097 52.2292L82.676 74.9377Z" fill="#6F2C88"/>
<path d="M82.8204 74.0075L94.1708 68.0039L82.7267 46.4663L71.3763 52.47L82.8204 74.0075Z" fill="#FFE0E0"/>
<path d="M95.2248 68.3025L96.1438 67.8164L84.0775 45.1079L83.1585 45.594L95.2248 68.3025Z" fill="#5463C7"/>
<path d="M79.6319 47.8281L79.4112 49.2298L74.5346 51.7547L73.3549 51.0448L79.6319 47.8281Z" fill="#6F2C88"/>
<path d="M86.3808 50.7074L86.6473 50.5664L84.8299 47.1445L84.5633 47.2855L86.3808 50.7074Z" fill="#6F2C88"/>
<path d="M88.7739 55.2231L89.0404 55.082L87.2217 51.6608L86.9552 51.8018L88.7739 55.2231Z" fill="#6F2C88"/>
<path d="M83.8961 87.7855C83.8961 87.7855 77.3895 70.143 77.7092 68.9165C78.0289 67.69 80.6045 61.0589 81.2439 60.8971C81.8833 60.7354 81.406 68.1168 81.8878 68.7592C82.3697 69.4017 85.3461 70.9247 86.3907 72.9284L92.177 69.8824L97.7245 84.0746L83.8961 87.7855Z" fill="#FF9EB6"/>
<path opacity="0.48" d="M83.8961 87.7855C83.8961 87.7855 77.3895 70.143 77.7092 68.9165C78.0289 67.69 80.6045 61.0589 81.2439 60.8971C81.8833 60.7354 81.406 68.1168 81.8878 68.7592C82.3697 69.4017 85.3461 70.9247 86.3907 72.9284L92.177 69.8824L97.7245 84.0746L83.8961 87.7855Z" fill="#6F2C88"/>
<path d="M81.8203 68.8281C84.2816 70.063 86.2202 72.1342 87.2868 74.6685" stroke="#6F2C88" stroke-width="0.83" stroke-linecap="round" stroke-linejoin="round"/>
<path d="M70.5541 94.7617L97.5624 119.381L109.459 108.716" stroke="#6F2C88" stroke-width="0.83" stroke-linecap="round" stroke-linejoin="round"/>
<path d="M83.4143 87.7031L90.6505 112.884" stroke="#6F2C88" stroke-width="0.83" stroke-linecap="round" stroke-linejoin="round"/>
<path d="M84.4816 91.1315L99.7914 86.9219" stroke="#6F2C88" stroke-width="0.83" stroke-linecap="round" stroke-linejoin="round"/>
<path d="M58.1396 85.1797L56.9329 89.9913L68.5053 91.1953C68.5053 91.1953 68.87 98.5318 76.2232 104.673" stroke="#6F2C88" stroke-width="0.83" stroke-linecap="round" stroke-linejoin="round"/>
<path d="M95.8739 131.85L97.5625 119.383L98.1659 131.85" stroke="#6F2C88" stroke-width="0.83" stroke-linecap="round" stroke-linejoin="round"/>
<path d="M229.983 100.101L204.317 117.537L190.543 112.685L197.716 98.0977C201.876 100.079 204.47 101.341 204.47 101.341L229.686 99.2433C229.8 99.2039 229.925 99.2114 230.034 99.2641C230.142 99.3168 230.225 99.4103 230.265 99.5241C230.304 99.6378 230.297 99.7626 230.244 99.8709C230.191 99.9791 230.097 100.062 229.983 100.101Z" fill="#FF9EB6"/>
<path opacity="0.48" d="M229.983 100.099L204.317 117.535L196.986 114.947L190.543 112.701L197.716 98.1133L201.363 99.8564L204.479 101.357L229.695 99.2589C229.801 99.2401 229.91 99.2597 230.003 99.3141C230.095 99.3686 230.165 99.4543 230.2 99.5557C230.235 99.6572 230.232 99.7677 230.193 99.8674C230.153 99.967 230.079 100.049 229.983 100.099Z" fill="#6F2C88"/>
<path d="M229.984 100.1L204.317 117.536L196.986 114.948C198.481 113.354 201.007 110.456 201.345 108.717C201.827 106.228 201.985 104.629 201.985 104.629C201.985 104.629 200.242 101.506 201.363 99.8397L204.479 101.34L229.695 99.2422C229.809 99.2041 229.934 99.2127 230.042 99.2662C230.149 99.3197 230.231 99.4137 230.269 99.5275C230.308 99.6413 230.299 99.7655 230.245 99.873C230.192 99.9804 230.098 100.062 229.984 100.1Z" fill="#6F2C88"/>
<path d="M107.843 23.6845V41.8841L94.0142 46.8709L107.843 44.9256V50.3168C107.843 50.4865 107.876 50.6545 107.941 50.8112C108.007 50.968 108.102 51.1103 108.223 51.2301C108.343 51.3499 108.486 51.4448 108.643 51.5093C108.801 51.5738 108.969 51.6068 109.139 51.6062H180.56C180.73 51.6073 180.899 51.5749 181.057 51.5106C181.215 51.4463 181.358 51.3515 181.479 51.2317C181.6 51.1119 181.696 50.9693 181.762 50.8123C181.827 50.6553 181.861 50.4869 181.861 50.3168V23.6845C181.861 23.3413 181.724 23.0122 181.481 22.7696C181.238 22.5269 180.908 22.3906 180.564 22.3906H109.139C108.795 22.3906 108.466 22.5269 108.222 22.7696C107.979 23.0122 107.843 23.3413 107.843 23.6845Z" fill="#FFE0E0"/>
<path d="M136.918 31.4531H173.621" stroke="#6F2C88" stroke-width="1.21" stroke-linecap="round" stroke-linejoin="round"/>
<path d="M136.918 34.9023H173.621" stroke="#6F2C88" stroke-width="1.21" stroke-linecap="round" stroke-linejoin="round"/>
<path d="M136.918 38.3477H173.621" stroke="#6F2C88" stroke-width="1.21" stroke-linecap="round" stroke-linejoin="round"/>
<path d="M136.918 41.8008H173.621" stroke="#6F2C88" stroke-width="1.21" stroke-linecap="round" stroke-linejoin="round"/>
<path d="M130.677 41.9742L128.97 39.0226C129.849 37.5731 130.158 35.8495 129.836 34.186C129.514 32.5224 128.584 31.0374 127.228 30.0186C125.871 28.9999 124.183 28.5201 122.492 28.6721C120.8 28.8242 119.226 29.5973 118.074 30.8416C116.921 32.0859 116.273 33.7128 116.254 35.407C116.235 37.1012 116.848 38.7419 117.972 40.0113C119.097 41.2806 120.654 42.0881 122.342 42.2773C124.029 42.4665 125.727 42.0239 127.106 41.0352L130.677 41.9742Z" stroke="#6F2C88" stroke-width="1.21" stroke-linecap="round" stroke-linejoin="round"/>
<path d="M142.97 88.3785C142.978 85.1083 141.927 81.923 139.972 79.2983C138.017 76.6737 135.263 74.7504 132.122 73.8158C128.981 72.8813 125.621 72.9855 122.545 74.113C119.468 75.2405 116.84 77.3308 115.052 80.0716L103.632 70.8438L113.827 82.3359C112.934 84.401 112.513 86.6384 112.594 88.886C112.675 91.1336 113.257 93.335 114.296 95.3306C115.336 97.3262 116.807 99.066 118.604 100.424C120.401 101.782 122.479 102.724 124.686 103.181C126.893 103.639 129.174 103.601 131.365 103.07C133.555 102.539 135.599 101.528 137.35 100.111C139.1 98.6935 140.513 96.9055 141.485 94.8763C142.457 92.8471 142.964 90.6275 142.97 88.3785Z" fill="#FFE0E0"/>
<path d="M128.299 85.2237C128.299 85.2237 124.535 80.6951 121.608 83.6603C117.019 88.3011 129.033 96.0509 129.033 96.0509C129.033 96.0509 140.331 88.0945 135.049 82.928C131.879 79.8505 128.299 85.2237 128.299 85.2237Z" fill="#FF82AA"/>
<path d="M184.387 70.0015L185.445 70.3834C185.498 70.4044 185.543 70.4406 185.575 70.4875C185.607 70.5343 185.624 70.5896 185.624 70.6462C185.624 70.7028 185.607 70.758 185.575 70.8049C185.543 70.8517 185.498 70.888 185.445 70.909L184.387 71.2909C183.757 71.5166 183.185 71.8785 182.712 72.3508C182.238 72.823 181.876 73.3938 181.649 74.0224L181.231 75.177C181.212 75.2284 181.179 75.2732 181.134 75.3057C181.09 75.3383 181.038 75.3571 180.983 75.36C180.928 75.3629 180.874 75.3496 180.827 75.3219C180.779 75.2941 180.741 75.2531 180.717 75.2039L179.934 73.5866C179.45 72.5698 178.604 71.7691 177.561 71.3403L176.507 70.9135C176.454 70.8935 176.408 70.8579 176.376 70.8113C176.344 70.7648 176.327 70.7095 176.327 70.6529C176.327 70.5963 176.344 70.5411 176.376 70.4945C176.408 70.448 176.454 70.4123 176.507 70.3923L177.61 69.9925C178.24 69.766 178.812 69.4037 179.285 68.9316C179.758 68.4595 180.121 67.8891 180.348 67.261L180.726 66.2097C180.746 66.1553 180.781 66.1081 180.828 66.0747C180.876 66.0414 180.932 66.0234 180.99 66.0234C181.048 66.0234 181.104 66.0414 181.151 66.0747C181.198 66.1081 181.234 66.1553 181.253 66.2097L181.636 67.261C181.863 67.8921 182.228 68.4652 182.704 68.939C183.179 69.4128 183.754 69.7757 184.387 70.0015Z" fill="#D8A9FC"/>
<path d="M218.145 3.96985L219.204 4.35173C219.259 4.36964 219.307 4.4045 219.341 4.4513C219.375 4.49811 219.393 4.55446 219.393 4.6123C219.393 4.67014 219.375 4.72649 219.341 4.7733C219.307 4.8201 219.259 4.85496 219.204 4.87287L218.145 5.25474C217.516 5.48129 216.944 5.84352 216.471 6.31564C215.998 6.78777 215.635 7.35818 215.408 7.98626L214.993 9.14086C214.975 9.19359 214.942 9.23973 214.898 9.27333C214.853 9.30693 214.799 9.32644 214.744 9.32934C214.688 9.33224 214.633 9.3184 214.585 9.28961C214.537 9.26082 214.499 9.2184 214.476 9.16782L213.697 7.55047C213.211 6.5329 212.364 5.73208 211.319 5.30416L210.27 4.8549C210.217 4.8349 210.171 4.79926 210.139 4.75271C210.107 4.70616 210.089 4.65092 210.089 4.59433C210.089 4.53774 210.107 4.4825 210.139 4.43595C210.171 4.3894 210.217 4.35375 210.27 4.33376L211.373 3.93841C212.003 3.71186 212.574 3.34963 213.048 2.87751C213.521 2.40538 213.884 1.83497 214.111 1.20689L214.494 0.151123C214.513 0.0966742 214.548 0.0495058 214.596 0.0161363C214.643 -0.0172331 214.699 -0.0351562 214.757 -0.0351562C214.815 -0.0351563 214.871 -0.0172331 214.918 0.0161363C214.966 0.0495058 215.001 0.0966742 215.02 0.151123L215.399 1.20689C215.623 1.8417 215.985 2.4189 216.46 2.89674C216.935 3.37458 217.511 3.74112 218.145 3.96985Z" fill="#D8A9FC"/>
<path d="M238.147 113.746L239.205 114.128C239.258 114.148 239.304 114.184 239.336 114.23C239.369 114.277 239.386 114.332 239.386 114.389C239.386 114.445 239.369 114.5 239.336 114.547C239.304 114.594 239.258 114.629 239.205 114.649L238.147 115.013C237.518 115.24 236.946 115.602 236.473 116.074C236 116.546 235.636 117.117 235.409 117.745L234.995 118.922C234.976 118.973 234.942 119.017 234.898 119.049C234.853 119.081 234.801 119.1 234.746 119.102C234.691 119.105 234.637 119.091 234.59 119.063C234.543 119.035 234.505 118.993 234.482 118.944L233.698 117.327C233.214 116.311 232.368 115.51 231.325 115.08L230.272 114.631C230.219 114.611 230.173 114.576 230.141 114.529C230.108 114.482 230.091 114.427 230.091 114.371C230.091 114.314 230.108 114.259 230.141 114.212C230.173 114.166 230.219 114.13 230.272 114.11L231.375 113.715C232.004 113.488 232.576 113.126 233.049 112.654C233.522 112.182 233.885 111.611 234.113 110.983L234.495 109.927C234.513 109.872 234.548 109.825 234.595 109.791C234.642 109.757 234.698 109.738 234.756 109.738C234.814 109.738 234.871 109.757 234.918 109.791C234.965 109.825 235 109.872 235.018 109.927L235.4 110.983C235.624 111.618 235.987 112.195 236.462 112.673C236.937 113.151 237.513 113.517 238.147 113.746Z" fill="#D8A9FC"/>
<path d="M22.2426 31.4972L23.3008 31.879C23.3553 31.8981 23.4026 31.9337 23.4361 31.9808C23.4695 32.0279 23.4875 32.0841 23.4875 32.1418C23.4875 32.1995 23.4695 32.2558 23.4361 32.3029C23.4026 32.35 23.3553 32.3855 23.3008 32.4047L22.2426 32.7955C21.6131 33.0221 21.0414 33.3843 20.5682 33.8564C20.095 34.3285 19.7319 34.899 19.5048 35.527L19.0861 36.6816C19.0673 36.733 19.0339 36.7778 18.9898 36.8104C18.9458 36.8429 18.8931 36.8618 18.8383 36.8647C18.7836 36.8675 18.7292 36.8543 18.682 36.8265C18.6348 36.7988 18.5968 36.7578 18.5727 36.7086L17.7937 35.0912C17.3065 34.0752 16.4596 33.2751 15.4162 32.8449L14.3625 32.3957C14.3095 32.3757 14.2638 32.34 14.2315 32.2935C14.1993 32.2469 14.182 32.1917 14.182 32.1351C14.182 32.0785 14.1993 32.0233 14.2315 31.9767C14.2638 31.9302 14.3095 31.8945 14.3625 31.8745L15.4657 31.4747C16.0973 31.2516 16.6715 30.8918 17.1472 30.4211C17.6229 29.9504 17.9882 29.3804 18.217 28.7522L18.5998 27.7009C18.6177 27.6459 18.6526 27.598 18.6996 27.564C18.7465 27.53 18.803 27.5117 18.8609 27.5117C18.9189 27.5117 18.9754 27.53 19.0223 27.564C19.0692 27.598 19.1041 27.6459 19.1221 27.7009L19.5048 28.7522C19.7294 29.3832 20.0914 29.9567 20.5648 30.4314C21.0382 30.906 21.6112 31.27 22.2426 31.4972Z" fill="#D8A9FC"/>
<path d="M8.44569 133.014L9.50387 133.396C9.55844 133.415 9.60572 133.45 9.63916 133.497C9.67261 133.544 9.69057 133.601 9.69057 133.658C9.69057 133.716 9.67261 133.772 9.63916 133.819C9.60572 133.867 9.55844 133.902 9.50387 133.921L8.44569 134.299C7.81663 134.525 7.24521 134.886 6.77204 135.358C6.29886 135.829 5.93555 136.398 5.70793 137.026L5.28916 138.185C5.27044 138.236 5.23697 138.281 5.19292 138.313C5.14886 138.346 5.09618 138.365 5.04144 138.368C4.9867 138.371 4.93232 138.357 4.88509 138.33C4.83786 138.302 4.79986 138.261 4.77583 138.212L3.99683 136.576C3.50888 135.561 2.6622 134.761 1.61931 134.33L0.565629 133.881C0.514007 133.86 0.469787 133.824 0.438647 133.778C0.407507 133.732 0.390869 133.678 0.390869 133.622C0.390869 133.567 0.407507 133.513 0.438647 133.467C0.469787 133.421 0.514007 133.385 0.565629 133.364L1.66884 132.964C2.29538 132.745 2.86631 132.392 3.34157 131.929C3.81684 131.467 4.18496 130.906 4.4201 130.287L4.80285 129.231C4.82289 129.178 4.85862 129.132 4.90527 129.1C4.95193 129.068 5.0073 129.051 5.06402 129.051C5.12073 129.051 5.17611 129.068 5.22276 129.1C5.26942 129.132 5.30514 129.178 5.32519 129.231L5.70793 130.287C5.93555 130.914 6.29886 131.483 6.77204 131.955C7.24521 132.426 7.81663 132.788 8.44569 133.014Z" fill="#D8A9FC"/>
<path d="M99.5032 195.646L100.557 196.023C100.611 196.042 100.659 196.078 100.692 196.125C100.726 196.172 100.744 196.228 100.744 196.286C100.744 196.344 100.726 196.4 100.692 196.447C100.659 196.494 100.611 196.53 100.557 196.549L99.5032 196.931C98.873 197.157 98.3006 197.519 97.8266 197.991C97.3526 198.463 96.9888 199.034 96.761 199.662L96.3467 200.817C96.3287 200.869 96.2953 200.916 96.2508 200.949C96.2063 200.983 96.1527 201.002 96.0969 201.005C96.0412 201.008 95.9858 200.994 95.9381 200.965C95.8903 200.937 95.8522 200.894 95.8289 200.844L95.0499 199.226C94.5662 198.208 93.7181 197.406 92.6723 196.98L91.6232 196.531C91.5701 196.511 91.5244 196.475 91.4922 196.428C91.4599 196.382 91.4426 196.327 91.4426 196.27C91.4426 196.214 91.4599 196.158 91.4922 196.112C91.5244 196.065 91.5701 196.03 91.6232 196.01L92.7264 195.614C93.3559 195.388 93.9276 195.025 94.4008 194.553C94.874 194.081 95.2371 193.511 95.4641 192.883L95.8469 191.827C95.866 191.772 95.9017 191.725 95.9489 191.692C95.996 191.659 96.0525 191.641 96.1103 191.641C96.1681 191.641 96.2245 191.659 96.2717 191.692C96.3189 191.725 96.3545 191.772 96.3737 191.827L96.752 192.883C96.9768 193.518 97.3402 194.095 97.816 194.573C98.2918 195.051 98.8681 195.417 99.5032 195.646Z" fill="#D8A9FC"/>
</g>
<defs>
<clipPath id="clip0_5_2609">
<rect width="239" height="201" fill="white" transform="translate(0.394531)"/>
</clipPath>
</defs>
</svg>
