<svg width="241" height="193" viewBox="0 0 241 193" fill="none" xmlns="http://www.w3.org/2000/svg">
<g clip-path="url(#clip0_5_1711)">
<path d="M156.62 115.133C162.309 109.588 169.986 127.721 172.64 134.646L177.958 128.563C174.236 124.137 160.805 107.03 171.822 102.696C179.407 99.7147 179.233 120.46 178.971 127.401L186.152 119.184C184.3 114.921 175.424 93.0674 187.689 92.117C195.906 91.4816 189.389 111.711 187.144 118.038L194.772 109.3C197.606 102.468 205.79 84.5085 211.326 90.2108C219.15 98.2538 202.264 107.682 196.004 110.788L188.713 119.124C195.137 115.323 212.361 105.9 213.369 113.742C214.916 125.766 192.201 121.791 187.259 120.803L179.478 129.687C184.888 128.297 207.675 122.921 206.209 131.382C204.101 143.568 182.78 132.424 178.927 130.296L173.386 136.633C173.419 136.726 173.446 136.807 173.473 136.878C179.576 137.796 201.632 141.646 197.088 148.722C190.582 158.845 175.92 141.635 172.612 137.519L160.336 151.563L158.914 150.33L171.37 136.085C165.175 132.815 148.6 122.948 156.62 115.133Z" fill="#35C4A6"/>
<path d="M186.016 181.21C179.761 181.21 173.664 179.499 171.408 174.367C166.444 163.066 179.756 153.127 188.403 149.032C191.672 147.485 195.099 146.176 198.412 144.91C201.436 143.754 204.564 142.564 207.544 141.196C215.451 137.572 222.629 132.545 228.729 126.359C228.915 126.169 229.155 126.04 229.417 125.989C229.679 125.938 229.95 125.968 230.195 126.075C230.439 126.182 230.645 126.36 230.785 126.586C230.925 126.813 230.993 127.076 230.979 127.342C230.619 136.031 230.015 144.443 226.566 152.144C223.956 157.977 219.635 163.549 212.982 169.62C209.549 172.754 204.907 176.637 199.36 178.82C195.087 180.39 190.57 181.199 186.016 181.21ZM208.051 142.287C205.032 143.672 201.888 144.872 198.848 146.035C195.579 147.294 192.151 148.592 188.92 150.124C180.671 154.029 167.926 163.424 172.52 173.873C176.334 182.519 192.729 180.135 198.935 177.674C204.275 175.567 208.808 171.777 212.159 168.714C218.698 162.74 222.915 157.309 225.46 151.634C228.816 144.128 229.415 135.83 229.769 127.277C229.772 127.254 229.767 127.232 229.755 127.213C229.743 127.195 229.725 127.181 229.704 127.173C229.688 127.162 229.669 127.156 229.65 127.156C229.63 127.156 229.611 127.162 229.595 127.173C223.397 133.477 216.096 138.599 208.051 142.287Z" fill="#35C4A6"/>
<path d="M77.7664 147.414C72.0834 141.869 64.4062 160.003 61.7472 166.927L56.4292 160.844C60.1507 156.418 73.5818 139.311 62.5645 134.977C54.9799 131.996 55.1542 152.742 55.4158 159.682L48.2235 151.465C50.076 147.197 58.952 125.349 46.6869 124.398C38.4702 123.763 44.9869 143.987 47.2318 150.32L39.6036 141.581C36.7648 134.749 28.5808 116.79 23.0449 122.492C15.226 130.524 32.1116 139.952 38.3722 143.059L45.668 151.395C39.2439 147.593 22.0151 138.171 21.0071 146.013C19.4651 158.037 42.1754 154.061 47.1174 153.057L54.8818 161.958C49.4712 160.567 26.6846 155.191 28.1503 163.652C30.2645 175.839 51.6071 164.695 55.4321 162.566L60.9735 168.904C60.9735 168.996 60.9135 169.078 60.8863 169.148C54.7837 170.066 32.7273 173.916 37.277 180.993C43.7773 191.116 58.4398 173.906 61.7472 169.789L74.0232 183.833L75.4453 182.6L63.0058 168.355C69.201 165.097 85.7543 155.213 77.7664 147.414Z" fill="#35C4A6"/>
<path d="M57.2737 138.487C55.7386 129.876 52.6521 121.613 48.1635 114.098C48.093 113.974 48.0614 113.832 48.0727 113.69C48.084 113.548 48.1377 113.413 48.2269 113.302C48.3161 113.191 48.4366 113.109 48.5729 113.067C48.7093 113.025 48.8551 113.025 48.9917 113.066C57.0504 115.526 65.1853 118.258 71.7401 123.498C77.4831 128.087 81.6622 134.36 85.1058 140.834C87.6449 145.624 89.868 150.69 90.5219 156.04C91.4373 163.551 89.1107 179.718 79.6244 181.212C67.7353 183.085 61.7417 167.874 60.009 158.896C58.7504 152.146 58.4779 145.243 57.2737 138.487Z" fill="#35C4A6"/>
<path d="M47.6023 28.7852H26.3523C26.0172 28.7844 25.6853 28.8497 25.3756 28.9772C25.0659 29.1046 24.7845 29.2918 24.5475 29.528C24.3106 29.7641 24.1228 30.0446 23.9949 30.3533C23.867 30.662 23.8015 30.9928 23.8023 31.3268V44.9744C23.8015 45.3084 23.867 45.6392 23.9949 45.9479C24.1228 46.2566 24.3106 46.537 24.5475 46.7732C24.7845 47.0093 25.0659 47.1965 25.3756 47.324C25.6853 47.4515 26.0172 47.5167 26.3523 47.516H32.6619L34.6616 50.97L36.9664 54.9508L39.2712 50.97L41.26 47.516H47.6023C48.2786 47.516 48.9272 47.2482 49.4054 46.7716C49.8836 46.2949 50.1523 45.6485 50.1523 44.9744V31.3105C50.148 30.6392 49.8774 29.9969 49.3997 29.5238C48.9219 29.0507 48.2758 28.7851 47.6023 28.7852Z" fill="white"/>
<path d="M32.7164 68.2102C28.2702 65.4948 25.5023 70.8061 25.4859 70.8387C25.4696 70.8713 22.6962 65.4785 18.25 68.2102C13.1446 71.3437 18.1356 81.2441 25.4859 83.6554C32.8308 81.255 37.8218 71.3437 32.7164 68.2102Z" fill="#FF5C5B"/>
<path d="M3.20604 39.6019C5.05268 39.8281 6.91923 39.8427 8.76919 39.6453C9.21722 39.6252 9.65491 39.5045 10.0496 39.2923C10.2418 39.1894 10.3973 39.0298 10.4949 38.8354C10.5924 38.6409 10.6272 38.4211 10.5945 38.2062C10.9295 38.1557 11.233 37.9811 11.4445 37.7174C11.5476 37.6259 11.6342 37.5176 11.7006 37.397C11.765 37.2521 11.7894 37.0928 11.7714 36.9354C11.7696 36.6915 11.7043 36.4522 11.5821 36.241C11.4599 36.0297 11.2848 35.8535 11.074 35.7297C11.2746 35.6702 11.4573 35.562 11.6057 35.4148C11.754 35.2676 11.8633 35.0859 11.9238 34.8862C11.9843 34.6865 11.9941 34.4749 11.9523 34.2704C11.9105 34.066 11.8184 33.8751 11.6843 33.7149C11.5109 33.5212 11.289 33.3769 11.0413 33.2967C11.2211 33.1338 11.4772 33.0523 11.6189 32.8568C11.7039 32.7104 11.7347 32.5388 11.7058 32.3721C11.6769 32.2053 11.5903 32.054 11.4609 31.9445C11.1912 31.7378 10.8636 31.6201 10.5237 31.6077C9.90755 31.586 9.29067 31.6024 8.67656 31.6566C8.04619 31.6866 7.41841 31.5577 6.85124 31.2819C6.73137 30.4727 6.92752 29.6255 6.70957 28.838C6.56845 28.3574 6.28476 27.9306 5.89577 27.6137C5.50679 27.2967 5.03071 27.1045 4.53008 27.0622C4.43324 27.0434 4.33331 27.0479 4.23855 27.0753C4.1438 27.1027 4.05696 27.1522 3.98521 27.2196C3.90259 27.3367 3.86401 27.479 3.87624 27.6215C3.93307 28.2739 4.06657 28.9173 4.27399 29.5386C4.37383 29.8505 4.40889 30.1794 4.37704 30.5053C4.34519 30.8311 4.2471 31.1471 4.08874 31.434C3.92075 31.626 3.76602 31.8293 3.6256 32.0422C3.50797 32.3742 3.42935 32.7186 3.3913 33.0686C3.30412 33.4108 3.03713 33.7692 2.68842 33.7312L3.20604 39.6019Z" fill="white"/>
<path d="M2.90639 32.0273H0.705109C0.533581 32.0273 0.394531 32.1659 0.394531 32.3369V39.9835C0.394531 40.1544 0.533581 40.293 0.705109 40.293H2.90639C3.07792 40.293 3.21697 40.1544 3.21697 39.9835V32.3369C3.21697 32.1659 3.07792 32.0273 2.90639 32.0273Z" fill="#121B46"/>
<path d="M1.73493 33.3952C1.92451 33.3952 2.0782 33.242 2.0782 33.0531C2.0782 32.8641 1.92451 32.7109 1.73493 32.7109C1.54535 32.7109 1.39166 32.8641 1.39166 33.0531C1.39166 33.242 1.54535 33.3952 1.73493 33.3952Z" fill="white"/>
<path d="M228.86 51.9688H207.582C207.248 51.9687 206.916 52.0345 206.607 52.1623C206.298 52.2901 206.017 52.4774 205.781 52.7135C205.545 52.9496 205.357 53.2298 205.23 53.5381C205.102 53.8465 205.037 54.1769 205.038 54.5104V68.1797C205.038 68.8528 205.306 69.4985 205.783 69.975C206.26 70.4515 206.907 70.7199 207.582 70.7213H213.919L215.919 74.1699L218.224 78.1507L220.528 74.1699L222.528 70.7213H228.86C229.535 70.7199 230.183 70.4517 230.661 69.9753C231.139 69.499 231.408 68.8533 231.41 68.1797V54.5104C231.41 53.8363 231.141 53.1898 230.663 52.7132C230.184 52.2365 229.536 51.9688 228.86 51.9688Z" fill="#FDB32C"/>
<path d="M216.524 67.4448C218.371 67.6674 220.237 67.6783 222.087 67.4774C222.534 67.4545 222.971 67.334 223.367 67.1244C223.556 67.018 223.709 66.8578 223.806 66.6643C223.903 66.4708 223.94 66.2527 223.912 66.0382C224.247 65.9877 224.551 65.8132 224.762 65.5494C224.865 65.458 224.952 65.3496 225.018 65.229C225.083 65.0842 225.107 64.9248 225.089 64.7674C225.086 64.5237 225.02 64.2849 224.898 64.0738C224.776 63.8627 224.602 63.6864 224.392 63.5618C224.592 63.5011 224.775 63.392 224.923 63.2443C225.071 63.0965 225.181 62.9145 225.242 62.7146C225.301 62.5153 225.311 62.3044 225.269 62.1007C225.227 61.897 225.135 61.7067 225.002 61.5469C224.828 61.3533 224.607 61.209 224.359 61.1288C224.539 60.9658 224.795 60.8844 224.936 60.6889C225.02 60.5421 225.051 60.3709 225.022 60.2044C224.993 60.0379 224.907 59.8866 224.778 59.7765C224.512 59.5643 224.182 59.446 223.841 59.4398C223.225 59.4126 222.608 59.429 221.994 59.4886C221.364 59.5186 220.736 59.3898 220.169 59.1139C220.049 58.2993 220.245 57.4847 220.027 56.6646C219.883 56.181 219.595 55.7525 219.201 55.4362C218.807 55.1199 218.325 54.9308 217.82 54.8942C217.724 54.8754 217.624 54.8799 217.529 54.9073C217.434 54.9347 217.347 54.9842 217.276 55.0517C217.193 55.1687 217.154 55.311 217.167 55.4536C217.223 56.1055 217.354 56.7489 217.559 57.3706C217.661 57.6819 217.698 58.0109 217.667 58.337C217.636 58.6631 217.538 58.9793 217.379 59.266C217.211 59.4571 217.054 59.6584 216.911 59.8688C216.793 60.2009 216.715 60.5453 216.676 60.8952C216.589 61.2374 216.322 61.5958 215.968 61.5632L216.524 67.4448Z" fill="white"/>
<path d="M216.224 59.8633H214.023C213.851 59.8633 213.712 60.0019 213.712 60.1728V67.8194C213.712 67.9904 213.851 68.129 214.023 68.129H216.224C216.396 68.129 216.535 67.9904 216.535 67.8194V60.1728C216.535 60.0019 216.396 59.8633 216.224 59.8633Z" fill="#121B46"/>
<path d="M215.396 60.8968C215.396 60.9645 215.376 61.0306 215.338 61.0869C215.3 61.1432 215.247 61.187 215.184 61.2129C215.121 61.2388 215.052 61.2456 214.986 61.2324C214.919 61.2192 214.858 61.1866 214.81 61.1388C214.762 61.0909 214.729 61.0299 214.716 60.9636C214.703 60.8972 214.709 60.8284 214.735 60.7659C214.761 60.7034 214.805 60.6499 214.862 60.6123C214.918 60.5748 214.985 60.5547 215.052 60.5547C215.144 60.5547 215.231 60.5907 215.295 60.6549C215.36 60.7191 215.396 60.8061 215.396 60.8968Z" fill="white"/>
<path d="M217.69 181.195H211.5C211.979 184.997 212.366 187.886 212.53 189.113C212.53 189.113 208.209 192.035 205.277 191.655C205.197 191.643 205.115 191.652 205.04 191.682C204.964 191.711 204.898 191.76 204.847 191.823C204.755 191.945 204.711 192.096 204.722 192.247C204.733 192.399 204.799 192.542 204.907 192.649C204.95 192.7 205.003 192.74 205.063 192.767C205.124 192.795 205.189 192.808 205.256 192.806H216.916C217.128 192.807 217.332 192.732 217.492 192.594C217.653 192.456 217.758 192.266 217.788 192.057C217.903 191.13 217.836 190.189 217.592 189.287L217.69 181.195Z" fill="#CC6F49"/>
<path d="M210.868 190.145C210.868 190.145 211.898 190.818 212.056 191.529C212.137 191.888 213.26 191.823 214.35 191.671C215.454 191.497 216.501 191.061 217.401 190.4C217.526 190.29 217.686 190.227 217.853 190.221C218.251 190.302 218.207 192.713 217.733 192.936C217.259 193.159 206.596 192.936 204.902 192.936C204.839 192.936 204.78 192.911 204.736 192.868C204.692 192.824 204.667 192.764 204.667 192.702C204.667 192.295 204.733 191.481 205.354 191.394C206.187 191.252 210.868 190.145 210.868 190.145Z" fill="#121B46"/>
<path d="M231.927 181.195H225.737L227.252 189.287C227.173 190.221 227.273 191.161 227.546 192.057C227.616 192.269 227.749 192.456 227.929 192.59C228.108 192.724 228.325 192.799 228.549 192.806H238.237C238.237 192.394 238.237 191.981 238.237 191.568C235.512 191.063 232.243 189.113 232.243 189.113C232.232 187.908 232.112 184.991 231.927 181.195Z" fill="#CC6F49"/>
<path d="M234.194 190.145C234.194 190.145 233.164 190.818 233.001 191.529C232.924 191.888 231.802 191.823 230.712 191.671C229.607 191.498 228.56 191.062 227.661 190.4C227.535 190.29 227.376 190.227 227.209 190.221C226.811 190.302 226.854 192.713 227.328 192.936C227.802 193.159 238.466 192.936 240.16 192.936C240.222 192.936 240.282 192.911 240.326 192.868C240.37 192.824 240.395 192.764 240.395 192.702C240.395 192.295 240.329 191.481 239.708 191.394C238.874 191.252 234.194 190.145 234.194 190.145Z" fill="#121B46"/>
<path d="M210.323 108.897C210.323 108.897 206.727 112.156 207.054 114.801C207.381 117.445 209.794 125.45 209.081 130.935C208.367 136.421 206.651 141.167 207.07 146.967C207.49 152.767 211.091 184.934 211.091 184.934C211.091 184.934 219.264 182.219 222.098 183.457C224.931 184.695 232.783 185.776 233.845 185.358C233.845 185.358 232.047 142.009 226.119 133.89C226.119 133.89 225.062 122.235 226.092 119.623C227.121 117.011 225.852 109.815 223.236 108.946C220.621 108.077 210.323 108.897 210.323 108.897Z" fill="#FDB32C"/>
<path d="M212.933 112.961C214.933 112.711 216.9 112.477 218.856 112.135C219.837 111.972 220.801 111.766 221.765 111.543C222.73 111.321 223.678 111 224.637 110.707C222.902 111.761 220.974 112.459 218.965 112.76C217.968 112.927 216.962 113.032 215.952 113.075C214.944 113.124 213.934 113.086 212.933 112.961Z" fill="#121B46"/>
<path d="M215.194 164.634C216.567 162.945 217.919 161.3 219.237 159.584C220.556 157.867 221.76 156.108 223.019 154.332C221.302 158.361 218.614 161.905 215.194 164.651V164.634Z" fill="#121B46"/>
<path d="M219.368 163.795C219.657 162.895 220.056 162.034 220.556 161.231C221.035 160.414 221.615 159.661 222.283 158.988C221.685 160.788 220.689 162.431 219.368 163.795Z" fill="#121B46"/>
<path d="M219.526 131.578C219.564 131.078 216.257 130.193 216.366 129.856C216.475 129.52 217.325 129.438 217.766 129.454C217.787 129.456 217.808 129.453 217.828 129.446C217.847 129.438 217.865 129.427 217.88 129.412C217.894 129.397 217.905 129.379 217.912 129.359C217.919 129.339 217.921 129.318 217.919 129.297C217.919 129.112 217.788 128.846 217.325 128.797C216.263 128.672 215.188 128.755 214.159 129.042L210.345 126.945C209.958 128.249 209.604 129.574 209.108 130.812C210.582 131.099 212.072 131.297 213.57 131.404C214.388 132.153 216.366 133.918 217.466 134.255C217.486 134.263 217.507 134.264 217.527 134.26C217.547 134.255 217.566 134.244 217.58 134.229C217.594 134.214 217.603 134.195 217.606 134.174C217.609 134.154 217.606 134.133 217.597 134.114C217.532 133.929 217.292 133.571 216.507 132.979C216.507 132.979 218.452 133.794 218.801 133.647C219.15 133.5 216.834 132.121 216.834 132.121C216.834 132.121 219.112 132.805 219.357 132.555C219.602 132.306 217.15 131.219 217.15 131.219C217.15 131.219 219.51 131.779 219.526 131.578Z" fill="#CC6F49"/>
<path d="M209.162 109.953C209.162 109.953 204.558 114.645 201.965 118.284C199.371 121.923 198.843 123.927 199.48 126.191C200.118 128.456 204.084 129.781 205.245 130.15C206.405 130.52 212.127 131.573 212.127 131.573L213.075 128.195L206.465 124.394L213.238 114.694L209.162 109.953Z" fill="#FDB32C"/>
<path d="M204.041 123.5C204.478 123.516 204.911 123.583 205.332 123.701C205.741 123.814 206.142 123.955 206.531 124.125L206.166 124.57C205.883 124.075 205.675 123.54 205.55 122.984C205.988 123.348 206.37 123.775 206.683 124.25L207.201 124.994L206.313 124.695C205.91 124.561 205.517 124.4 205.136 124.212C204.744 124.018 204.376 123.78 204.041 123.5Z" fill="#121B46"/>
<path d="M209.876 120.619C210.152 120.041 210.535 119.52 211.004 119.082C211.455 118.626 211.987 118.258 212.573 117.996C212.297 118.573 211.915 119.092 211.445 119.528C210.994 119.984 210.462 120.354 209.876 120.619Z" fill="#121B46"/>
<path d="M207.822 120.602H226.021C226.259 120.602 226.488 120.696 226.657 120.864C226.825 121.032 226.92 121.26 226.92 121.498V133.446H206.901V121.498C206.901 121.378 206.925 121.26 206.972 121.15C207.018 121.04 207.086 120.94 207.172 120.856C207.258 120.773 207.36 120.707 207.471 120.664C207.583 120.62 207.702 120.599 207.822 120.602Z" fill="#DFDFDF"/>
<path d="M226.92 133.254H206.923V134.731H226.92V133.254Z" fill="#A1B0CF"/>
<path d="M218.72 127.566C218.72 127.92 218.614 128.267 218.416 128.561C218.219 128.856 217.938 129.086 217.61 129.221C217.281 129.357 216.919 129.392 216.571 129.323C216.222 129.254 215.901 129.083 215.65 128.833C215.399 128.582 215.227 128.263 215.158 127.915C215.089 127.568 215.124 127.207 215.26 126.88C215.396 126.552 215.627 126.272 215.922 126.075C216.218 125.879 216.566 125.773 216.921 125.773C217.398 125.773 217.856 125.962 218.193 126.298C218.53 126.634 218.72 127.09 218.72 127.566Z" fill="white"/>
<path d="M228.075 130.767L227.737 130.349L227.497 130.403L227.121 130.164C227.007 130.37 226.936 130.506 226.914 130.55C225.891 130.866 224.942 131.385 224.125 132.076C224.062 132.11 224.006 132.156 223.961 132.212C223.916 132.267 223.882 132.331 223.862 132.4C223.841 132.468 223.835 132.54 223.843 132.612C223.85 132.683 223.872 132.752 223.907 132.814C223.916 132.833 223.929 132.849 223.946 132.862C223.962 132.875 223.981 132.884 224.001 132.888C224.022 132.893 224.043 132.893 224.063 132.889C224.083 132.885 224.103 132.876 224.119 132.863C224.479 132.608 225.247 132.244 225.514 132.434C225.781 132.624 223.509 135.204 223.814 135.6C223.934 135.758 225.623 133.971 225.623 133.971C225.623 133.971 224.174 136.219 224.533 136.295C224.893 136.371 226.408 134.552 226.408 134.552C226.408 134.552 225.225 136.974 225.596 136.904C225.966 136.833 227.149 135.09 227.149 135.09C226.913 135.572 226.812 136.108 226.854 136.643C226.858 136.663 226.867 136.681 226.881 136.696C226.895 136.711 226.913 136.721 226.933 136.726C226.952 136.73 226.973 136.729 226.992 136.722C227.011 136.715 227.028 136.703 227.04 136.686C227.77 135.801 228.462 133.249 228.723 132.173C228.979 131.983 229.219 131.777 229.47 131.576C228.996 131.332 228.533 131.049 228.075 130.767Z" fill="#CC6F49"/>
<path d="M224.081 109.582C225.045 109.977 225.983 110.434 226.887 110.951C227.89 111.586 237.36 119.64 237.469 121.975C237.578 124.31 229.159 132.413 229.159 132.413L226.98 130.241L230.369 123.181L221.161 114.692L224.081 109.582Z" fill="#FDB32C"/>
<path d="M231.54 121.605C231.466 121.936 231.345 122.254 231.181 122.55C231.021 122.836 230.839 123.108 230.636 123.365L230.14 123.984L230.075 123.218C230.056 122.958 230.056 122.697 230.075 122.436C230.092 122.167 230.143 121.9 230.227 121.643C230.361 121.879 230.463 122.131 230.532 122.393C230.608 122.641 230.663 122.896 230.696 123.153L230.151 123.001C230.333 122.731 230.537 122.477 230.761 122.241C230.99 121.994 231.252 121.78 231.54 121.605Z" fill="#121B46"/>
<path d="M227.416 129.872C227.893 129.959 228.341 130.164 228.718 130.469C229.109 130.752 229.425 131.124 229.639 131.555C229.165 131.454 228.72 131.249 228.335 130.955C227.951 130.661 227.637 130.285 227.416 129.855V129.872Z" fill="#121B46"/>
<path d="M226.146 119.31L223.051 117.648L225.868 120.418L226.146 119.31Z" fill="#121B46"/>
<path d="M223.847 99.1877C223.764 98.9064 223.581 98.6649 223.332 98.5089C223.083 98.3528 222.786 98.2929 222.495 98.3405C222.757 90.7102 216.377 91.7421 216.377 91.7421C212.372 92.0842 211.914 96.3257 211.947 98.4871C211.846 98.4247 211.738 98.3754 211.625 98.3405C211.335 98.2904 211.036 98.3493 210.787 98.5057C210.537 98.6622 210.354 98.9051 210.274 99.1877C210.21 99.4085 210.195 99.6407 210.231 99.8678C210.267 100.095 210.352 100.311 210.481 100.502C210.699 100.842 211.017 101.108 211.391 101.262C211.619 101.321 211.853 101.348 212.088 101.344C212.704 106.329 217.237 105.84 217.237 105.84C221.171 106.031 222.19 103.293 222.419 101.322C222.524 101.309 222.628 101.289 222.73 101.262C223.104 101.108 223.422 100.842 223.64 100.502C223.767 100.311 223.852 100.094 223.888 99.8674C223.923 99.6406 223.909 99.4087 223.847 99.1877Z" fill="#CC6F49"/>
<path d="M220.43 102.365C221.138 102.365 221.711 101.794 221.711 101.089C221.711 100.384 221.138 99.8125 220.43 99.8125C219.723 99.8125 219.15 100.384 219.15 101.089C219.15 101.794 219.723 102.365 220.43 102.365Z" fill="#C4533A"/>
<path d="M214.05 102.365C214.757 102.365 215.33 101.794 215.33 101.089C215.33 100.384 214.757 99.8125 214.05 99.8125C213.343 99.8125 212.769 100.384 212.769 101.089C212.769 101.794 213.343 102.365 214.05 102.365Z" fill="#C4533A"/>
<path d="M218.845 99.3691C219.049 99.3691 219.215 99.0312 219.215 98.6143C219.215 98.1973 219.049 97.8594 218.845 97.8594C218.64 97.8594 218.474 98.1973 218.474 98.6143C218.474 99.0312 218.64 99.3691 218.845 99.3691Z" fill="#121B46"/>
<path d="M219.597 97.6181C219.536 97.7408 219.451 97.8498 219.346 97.9385C219.237 98.0379 219.104 98.1071 218.959 98.1394C218.942 98.1434 218.924 98.1439 218.906 98.1409C218.888 98.1379 218.871 98.1314 218.856 98.1218C218.841 98.1122 218.828 98.0997 218.817 98.085C218.807 98.0703 218.8 98.0538 218.796 98.0362C218.792 98.0188 218.791 98.0007 218.794 97.983C218.797 97.9653 218.804 97.9484 218.814 97.9333C218.823 97.9181 218.836 97.905 218.85 97.8947C218.865 97.8844 218.882 97.8772 218.899 97.8733H218.932C219.047 97.8682 219.16 97.8384 219.262 97.7859C219.365 97.7334 219.455 97.6595 219.526 97.5692C219.53 97.5647 219.534 97.561 219.539 97.5585C219.544 97.556 219.55 97.5547 219.556 97.5547C219.562 97.5547 219.567 97.556 219.573 97.5585C219.578 97.561 219.582 97.5647 219.586 97.5692C219.593 97.5752 219.597 97.5832 219.599 97.5919C219.601 97.6007 219.6 97.6098 219.597 97.6181Z" fill="#121B46"/>
<path d="M215.636 99.3691C215.84 99.3691 216.006 99.0312 216.006 98.6143C216.006 98.1973 215.84 97.8594 215.636 97.8594C215.431 97.8594 215.265 98.1973 215.265 98.6143C215.265 99.0312 215.431 99.3691 215.636 99.3691Z" fill="#121B46"/>
<path d="M214.954 97.5697C215.026 97.6597 215.116 97.7334 215.218 97.7859C215.321 97.8383 215.433 97.8683 215.548 97.8738C215.566 97.8723 215.585 97.8745 215.602 97.8804C215.619 97.8863 215.635 97.8956 215.648 97.9079C215.661 97.9201 215.672 97.935 215.679 97.9516C215.686 97.9682 215.69 97.986 215.69 98.0041C215.691 98.022 215.688 98.0397 215.682 98.0565C215.676 98.0733 215.666 98.0886 215.654 98.1017C215.642 98.1149 215.627 98.1255 215.611 98.1329C215.595 98.1404 215.577 98.1446 215.559 98.1453H215.521C215.376 98.1118 215.241 98.0428 215.129 97.9444C215.027 97.8527 214.943 97.7443 214.878 97.624C214.87 97.6159 214.866 97.6052 214.866 97.5941C214.866 97.583 214.87 97.5723 214.878 97.5642C214.886 97.558 214.895 97.5547 214.905 97.5547C214.915 97.5547 214.925 97.558 214.933 97.5642L214.954 97.5697Z" fill="#121B46"/>
<path d="M218.627 100.898C218.498 101.149 218.311 101.365 218.082 101.528C217.841 101.704 217.552 101.801 217.254 101.805C216.956 101.798 216.668 101.697 216.431 101.518C216.314 101.435 216.206 101.341 216.11 101.235C216.022 101.127 215.935 101.012 215.859 100.898C215.973 100.98 216.077 101.067 216.186 101.154C216.295 101.241 216.404 101.311 216.524 101.371C216.747 101.494 216.998 101.558 217.254 101.556C217.512 101.554 217.765 101.487 217.989 101.36C218.219 101.231 218.433 101.076 218.627 100.898Z" fill="#121B46"/>
<path d="M217.63 102.234C217.519 102.322 217.382 102.37 217.24 102.37C217.099 102.37 216.961 102.322 216.851 102.234C216.978 102.262 217.107 102.276 217.237 102.278C217.369 102.279 217.501 102.265 217.63 102.234Z" fill="#121B46"/>
<path d="M216.317 95.9943C216.158 95.8538 215.951 95.7782 215.739 95.7825C215.532 95.7748 215.326 95.8024 215.129 95.864C214.929 95.9311 214.744 96.0363 214.584 96.1735C214.434 96.3048 214.31 96.4633 214.219 96.6406C214.207 96.6612 214.2 96.684 214.197 96.7075C214.195 96.731 214.197 96.7548 214.203 96.7775C214.21 96.8002 214.221 96.8214 214.236 96.8398C214.251 96.8583 214.269 96.8736 214.29 96.885C214.322 96.902 214.359 96.9086 214.395 96.9037C214.431 96.8989 214.465 96.8828 214.491 96.8578C214.602 96.7475 214.725 96.6492 214.856 96.5645C214.982 96.49 215.118 96.4351 215.26 96.4016C215.404 96.3679 215.553 96.3533 215.701 96.3582C215.855 96.3795 216.01 96.3795 216.164 96.3582H216.213C216.261 96.3466 216.302 96.3167 216.327 96.2749C216.353 96.2332 216.361 96.183 216.349 96.1355C216.354 96.111 216.354 96.0857 216.348 96.0614C216.343 96.037 216.332 96.0141 216.317 95.9943Z" fill="#121B46"/>
<path d="M218.164 95.9944C218.321 95.8552 218.525 95.7797 218.736 95.7826C218.944 95.7745 219.153 95.8021 219.352 95.8641C219.552 95.9291 219.738 96.0345 219.896 96.1737C220.048 96.3048 220.174 96.4632 220.267 96.6407C220.289 96.6827 220.294 96.7315 220.28 96.777C220.267 96.8225 220.237 96.8612 220.196 96.8851C220.163 96.9026 220.125 96.9094 220.088 96.9045C220.051 96.8997 220.016 96.8834 219.989 96.8579C219.879 96.7463 219.757 96.6479 219.624 96.5647C219.5 96.4883 219.363 96.4332 219.221 96.4017C219.078 96.3678 218.931 96.3532 218.785 96.3583C218.629 96.3794 218.472 96.3794 218.316 96.3583H218.273C218.249 96.3532 218.226 96.3434 218.206 96.3293C218.186 96.3152 218.169 96.2971 218.156 96.2763C218.144 96.2554 218.135 96.2322 218.132 96.208C218.128 96.1838 218.13 96.1592 218.136 96.1356C218.128 96.1118 218.127 96.0862 218.132 96.0615C218.136 96.0368 218.147 96.0137 218.164 95.9944Z" fill="#121B46"/>
<path d="M217.325 97.457C217.39 97.7449 217.439 98.0273 217.494 98.3042C217.541 98.5825 217.602 98.858 217.679 99.1297C217.679 99.1949 217.717 99.2601 217.739 99.3252C217.776 99.4018 217.798 99.4847 217.804 99.5696C217.807 99.6615 217.783 99.7521 217.736 99.831C217.688 99.9099 217.619 99.9737 217.537 100.015C217.464 100.052 217.383 100.074 217.3 100.079C217.218 100.084 217.135 100.071 217.058 100.042C216.916 99.9899 216.785 99.9126 216.671 99.814C216.788 99.877 216.918 99.913 217.051 99.9196C217.184 99.9262 217.316 99.9031 217.439 99.852C217.482 99.8216 217.517 99.7807 217.54 99.7332C217.563 99.6857 217.573 99.6331 217.57 99.5805C217.561 99.5211 217.54 99.464 217.51 99.4121C217.483 99.3415 217.461 99.2709 217.439 99.2003C217.36 98.9167 217.313 98.6253 217.297 98.3314C217.279 98.0397 217.288 97.747 217.325 97.457Z" fill="#121B46"/>
<path d="M210.715 99.5949C210.709 99.5024 210.723 99.4096 210.757 99.3232C210.791 99.2369 210.844 99.159 210.911 99.0953C210.992 99.034 211.089 98.9964 211.19 98.9868C211.291 98.9772 211.393 98.996 211.484 99.041C211.665 99.1085 211.825 99.2228 211.947 99.3722C212.068 99.5174 212.165 99.6804 212.235 99.8556C212.242 99.8708 212.246 99.8873 212.246 99.9041C212.246 99.9208 212.243 99.9374 212.236 99.9528C212.23 99.9681 212.22 99.9819 212.208 99.9932C212.195 100.005 212.181 100.013 212.165 100.019C212.145 100.033 212.121 100.041 212.097 100.041C212.072 100.041 212.048 100.033 212.028 100.019C211.914 99.885 211.768 99.7823 211.603 99.7198C211.576 99.706 211.547 99.6988 211.516 99.6988C211.486 99.6988 211.456 99.706 211.429 99.7198C211.37 99.7736 211.325 99.8406 211.298 99.9153C211.233 100.084 211.195 100.274 211.336 100.355C211.511 100.417 211.7 100.431 211.881 100.393C211.692 100.492 211.474 100.521 211.266 100.475C211.207 100.449 211.155 100.409 211.117 100.357C211.079 100.306 211.055 100.245 211.048 100.181C211.038 100.07 211.051 99.9569 211.086 99.8502C211.116 99.7323 211.178 99.625 211.266 99.5406C211.319 99.4976 211.382 99.4678 211.449 99.4536C211.516 99.4395 211.586 99.4414 211.652 99.4591C211.865 99.5314 212.054 99.6611 212.197 99.8339L211.985 99.9588C211.88 99.6566 211.674 99.3996 211.402 99.231C211.335 99.1963 211.262 99.1782 211.187 99.1782C211.112 99.1782 211.038 99.1963 210.971 99.231C210.845 99.3176 210.754 99.4468 210.715 99.5949Z" fill="#121B46"/>
<path d="M223.547 99.5949C223.553 99.5024 223.539 99.4096 223.505 99.3232C223.471 99.2369 223.419 99.159 223.351 99.0953C223.27 99.034 223.174 98.9964 223.073 98.9868C222.972 98.9772 222.87 98.996 222.779 99.041C222.598 99.1085 222.438 99.2228 222.316 99.3722C222.195 99.5174 222.097 99.6804 222.027 99.8556C222.02 99.8708 222.016 99.8873 222.016 99.9041C222.016 99.9208 222.019 99.9374 222.026 99.9528C222.033 99.9681 222.042 99.9819 222.055 99.9932C222.067 100.005 222.082 100.013 222.098 100.019C222.117 100.033 222.141 100.041 222.166 100.041C222.19 100.041 222.214 100.033 222.234 100.019C222.348 99.885 222.494 99.7823 222.659 99.7198C222.686 99.706 222.716 99.6988 222.746 99.6988C222.776 99.6988 222.806 99.706 222.833 99.7198C222.892 99.7736 222.937 99.8406 222.964 99.9153C223.029 100.084 223.068 100.274 222.926 100.355C222.751 100.418 222.563 100.431 222.381 100.393C222.57 100.492 222.788 100.521 222.997 100.475C223.056 100.449 223.107 100.409 223.145 100.357C223.184 100.306 223.208 100.245 223.215 100.181C223.225 100.07 223.212 99.9569 223.177 99.8502C223.147 99.7323 223.085 99.625 222.997 99.5406C222.943 99.4976 222.88 99.4678 222.813 99.4536C222.746 99.4395 222.676 99.4414 222.61 99.4591C222.397 99.5314 222.208 99.6611 222.065 99.8339L222.278 99.9588C222.382 99.6566 222.588 99.3996 222.861 99.231C222.927 99.1963 223.001 99.1782 223.076 99.1782C223.151 99.1782 223.225 99.1963 223.291 99.231C223.418 99.3176 223.508 99.4468 223.547 99.5949Z" fill="#121B46"/>
<path d="M224.947 109.606H224.877C224.2 109.391 223.627 108.932 223.271 108.32C222.914 107.708 222.799 106.985 222.948 106.293C223.449 103.767 224.283 99.2327 224.136 97.951C223.923 96.1589 222.708 91.0431 217.946 90.6738C213.184 90.3045 210.274 93.4706 209.691 98.0542C209.108 102.638 210.644 107.602 210.644 107.602C210.595 108.318 208.171 110.61 207.457 111.267C207.437 111.286 207.422 111.31 207.413 111.336C207.405 111.363 207.404 111.391 207.41 111.418C207.416 111.445 207.429 111.47 207.448 111.49C207.467 111.51 207.49 111.525 207.517 111.533C214.72 113.804 222.926 110.762 224.953 109.904C224.988 109.897 225.019 109.878 225.041 109.85C225.063 109.823 225.075 109.788 225.074 109.753C225.073 109.717 225.06 109.683 225.037 109.656C225.014 109.63 224.982 109.612 224.947 109.606ZM217.254 105.522C214.491 105.522 212.252 102.937 212.252 99.7486C212.252 96.5608 214.469 93.954 217.254 93.954C220.038 93.954 222.256 96.539 222.256 99.7269C222.256 102.915 219.978 105.522 217.254 105.522Z" fill="#121B46"/>
<path d="M208.318 111.217C210.415 110.465 212.467 109.595 214.464 108.61C215.448 108.108 216.403 107.551 217.325 106.943C218.241 106.313 219.103 105.608 219.902 104.836C219.279 105.784 218.511 106.629 217.624 107.34C216.728 108.041 215.767 108.656 214.753 109.175C213.741 109.682 212.692 110.11 211.614 110.457C210.542 110.812 209.438 111.066 208.318 111.217Z" fill="white"/>
<path d="M214.137 104.726C213.47 104.494 212.868 104.109 212.377 103.602C211.865 103.102 211.461 102.503 211.189 101.842C210.919 101.18 210.782 100.472 210.786 99.7568C210.784 99.4071 210.815 99.058 210.879 98.7141C210.954 98.3749 211.053 98.041 211.173 97.7148C211.173 98.0678 211.173 98.3991 211.173 98.7358C211.173 99.0725 211.2 99.4038 211.266 99.7242L211.336 100.213L211.451 100.685C211.487 100.842 211.535 100.997 211.593 101.147C211.635 101.302 211.692 101.453 211.761 101.598C212.005 102.201 212.332 102.767 212.731 103.281C213.145 103.813 213.616 104.298 214.137 104.726Z" fill="white"/>
<path d="M213.238 96.238C213.238 96.238 217.439 94.3155 221.253 96.238C221.253 96.238 217.363 90.0687 213.238 96.238Z" fill="white"/>
<path d="M177.097 0H76.1536C70.0177 0 65.0436 4.95774 65.0436 11.0734V181.927C65.0436 188.042 70.0177 193 76.1536 193H177.097C183.233 193 188.207 188.042 188.207 181.927V11.0734C188.207 4.95774 183.233 0 177.097 0Z" fill="#DFDFDF"/>
<path d="M140.912 4.63672H112.344V6.74387H140.912V4.63672Z" fill="#ADADAD"/>
<path d="M140.171 182.242H113.085V187.727H140.171V182.242Z" fill="#ADADAD"/>
<path d="M185.248 12.4492H68.0078V178.724H185.248V12.4492Z" fill="white"/>
<path d="M185.248 12.4492H68.0078V18.7761H185.248V12.4492Z" fill="#121B46"/>
<path d="M78.4311 134.994C81.0311 134.994 83.1388 132.893 83.1388 130.302C83.1388 127.71 81.0311 125.609 78.4311 125.609C75.8312 125.609 73.7234 127.71 73.7234 130.302C73.7234 132.893 75.8312 134.994 78.4311 134.994Z" fill="#6DB2E3"/>
<path d="M78.4311 174.068C81.0311 174.068 83.1388 171.967 83.1388 169.376C83.1388 166.784 81.0311 164.684 78.4311 164.684C75.8312 164.684 73.7234 166.784 73.7234 169.376C73.7234 171.967 75.8312 174.068 78.4311 174.068Z" fill="#3CDEBC"/>
<path d="M91.4482 134.994C94.0482 134.994 96.1559 132.893 96.1559 130.302C96.1559 127.71 94.0482 125.609 91.4482 125.609C88.8482 125.609 86.7405 127.71 86.7405 130.302C86.7405 132.893 88.8482 134.994 91.4482 134.994Z" fill="#6DB2E3"/>
<path d="M123.874 126.664H98.7985V129.092H123.874V126.664Z" fill="#BCDFFD"/>
<path d="M178.688 138.051H74.5681V140.478H178.688V138.051Z" fill="#BCDFFD"/>
<path d="M178.688 143.008H74.5681V145.435H178.688V143.008Z" fill="#BCDFFD"/>
<path d="M99.6431 147.969H74.5681V150.396H99.6431V147.969Z" fill="#BCDFFD"/>
<path d="M110.121 165.527H85.0459V167.955H110.121V165.527Z" fill="#BCDFFD"/>
<path d="M83.0121 42.2111C83.6115 39.6895 82.0466 37.161 79.5166 36.5635C76.9867 35.966 74.4498 37.5259 73.8504 40.0475C73.2509 42.5691 74.8159 45.0976 77.3458 45.6951C79.8758 46.2926 82.4126 44.7328 83.0121 42.2111Z" fill="#FF5C5B"/>
<path d="M110.121 37.2812H85.0459V39.7088H110.121V37.2812Z" fill="#BCDFFD"/>
<path d="M139.217 131.199H98.7985V133.627H139.217V131.199Z" fill="#BCDFFD"/>
<path d="M185.248 47.4609H68.0078V123.394H185.248V47.4609Z" fill="#FF5C5B"/>
<mask id="mask0_5_1711" style="mask-type:luminance" maskUnits="userSpaceOnUse" x="45" y="21" width="146" height="103">
<path d="M185.248 123.394H68.0077V108.416L45.5917 62.1072L59.1209 24.0047L190.114 21.0938L185.248 107.362V123.394Z" fill="white"/>
</mask>
<g mask="url(#mask0_5_1711)">
<path d="M152.735 130.186C148.97 130.186 145.162 128.442 142.17 127.074C138.253 125.282 135.735 120.421 136.558 116.239C136.818 114.837 137.452 113.529 138.393 112.455C139.335 111.381 140.549 110.58 141.909 110.135C142.192 110.054 142.454 109.988 142.77 109.929C143.199 109.846 143.622 109.729 144.034 109.581C145.489 109.011 146.633 107.523 147.085 105.611C147.394 103.925 147.453 102.204 147.259 100.501V100.213C147.074 97.2857 146.987 94.1902 148.055 91.3499C149.047 88.7322 151.488 85.9734 154.724 85.7344C155.111 85.7018 155.503 85.7344 155.879 85.7344C156.394 85.7623 156.911 85.7405 157.421 85.6692C159.748 85.2565 161.235 82.8344 162.418 80.8901C163.6 78.9459 165.535 76.3608 168.27 76.3989C169.158 76.4548 170.014 76.7548 170.742 77.2657C171.47 77.7766 172.042 78.4785 172.394 79.2935C173.059 80.9071 173.109 82.707 172.536 84.355C172.378 84.8546 172.176 85.3651 171.991 85.8593C171.37 87.4288 170.787 88.906 171.376 90.28C171.687 90.8922 172.106 91.444 172.612 91.9092C172.792 92.0993 172.977 92.2948 173.157 92.4903C174.363 93.9486 175.087 95.7433 175.228 97.6278C175.37 99.5123 174.922 101.394 173.947 103.015C172.623 105.112 170.477 106.572 168.406 107.979C165.791 109.76 163.317 111.438 162.489 114.252C162.058 115.712 162.162 117.233 162.276 118.835C162.436 120.226 162.41 121.632 162.2 123.017C161.88 124.451 161.213 125.785 160.258 126.904C159.302 128.023 158.087 128.892 156.718 129.436C155.454 129.949 154.1 130.204 152.735 130.186ZM155.345 86.3535C155.144 86.3535 154.953 86.3535 154.757 86.3535C151.798 86.5762 149.553 89.1287 148.633 91.5617C147.608 94.2771 147.695 97.3075 147.875 100.164V100.446C148.078 102.211 148.015 103.995 147.69 105.742C147.183 107.86 145.897 109.51 144.246 110.157C143.804 110.322 143.348 110.449 142.884 110.537C142.612 110.597 142.339 110.656 142.067 110.732C140.819 111.143 139.705 111.881 138.842 112.87C137.979 113.858 137.399 115.059 137.163 116.348C136.406 120.198 138.798 124.842 142.416 126.487C146.36 128.29 151.766 130.761 156.424 128.844C157.7 128.339 158.831 127.53 159.721 126.489C160.611 125.448 161.232 124.206 161.53 122.87C161.726 121.539 161.748 120.188 161.595 118.851C161.481 117.266 161.366 115.62 161.829 114.045C162.723 111.02 165.404 109.195 167.997 107.43C170.019 106.056 172.106 104.634 173.364 102.651C174.269 101.145 174.683 99.3968 174.55 97.6464C174.418 95.8961 173.744 94.2296 172.623 92.8759C172.46 92.6858 172.28 92.5012 172.106 92.3328C171.546 91.8101 171.086 91.1899 170.749 90.5027C170.057 88.8734 170.716 87.2442 171.354 85.6149C171.544 85.1262 171.746 84.6265 171.899 84.1486C172.424 82.6485 172.381 81.0088 171.779 79.5379C171.479 78.8312 170.988 78.2214 170.36 77.7765C169.733 77.3315 168.994 77.0689 168.226 77.018C165.812 76.9908 164.042 79.3858 162.93 81.2051C161.671 83.258 160.108 85.8159 157.481 86.2721C156.931 86.3512 156.375 86.3766 155.819 86.3481L155.345 86.3535Z" fill="#FF9F9E"/>
<path d="M174.007 72.6124C173.584 72.6124 173.17 72.4872 172.818 72.2527C172.465 72.0181 172.191 71.6848 172.029 71.2948C171.867 70.9048 171.824 70.4757 171.907 70.0617C171.99 69.6477 172.194 69.2674 172.493 68.9689C172.793 68.6704 173.174 68.4671 173.589 68.3848C174.005 68.3024 174.435 68.3447 174.827 68.5062C175.218 68.6678 175.552 68.9413 175.788 69.2923C176.023 69.6433 176.149 70.0559 176.149 70.4781C176.147 71.0437 175.921 71.5857 175.52 71.9857C175.119 72.3856 174.575 72.6109 174.007 72.6124ZM174.007 68.9737C173.709 68.9727 173.416 69.06 173.167 69.2246C172.918 69.3893 172.724 69.6238 172.609 69.8986C172.494 70.1734 172.463 70.476 172.521 70.7682C172.578 71.0604 172.722 71.3289 172.933 71.5399C173.144 71.7508 173.412 71.8946 173.705 71.9531C173.998 72.0116 174.302 71.9821 174.578 71.8684C174.854 71.7547 175.09 71.5619 175.256 71.3144C175.422 71.0669 175.511 70.7758 175.511 70.4781C175.51 70.0805 175.351 69.6995 175.069 69.4178C174.788 69.1362 174.406 68.9766 174.007 68.9737Z" fill="#FF9F9E"/>
<path d="M164.565 61.3695C164.566 61.5265 164.52 61.6804 164.433 61.8115C164.346 61.9426 164.223 62.0451 164.077 62.1059C163.932 62.1667 163.772 62.1832 163.617 62.1532C163.463 62.1233 163.32 62.0482 163.209 61.9375C163.097 61.8268 163.02 61.6856 162.989 61.5316C162.958 61.3777 162.974 61.218 163.034 61.0728C163.094 60.9276 163.196 60.8034 163.327 60.716C163.458 60.6287 163.612 60.582 163.769 60.582C163.979 60.582 164.181 60.6648 164.33 60.8123C164.479 60.9599 164.563 61.1601 164.565 61.3695Z" fill="#FF9F9E"/>
<path d="M79.2485 108.049C79.8172 108.049 80.2783 107.589 80.2783 107.023C80.2783 106.456 79.8172 105.996 79.2485 105.996C78.6797 105.996 78.2187 106.456 78.2187 107.023C78.2187 107.589 78.6797 108.049 79.2485 108.049Z" fill="#FF9F9E"/>
<path d="M173.849 112.637C173.457 112.637 173.074 112.521 172.747 112.304C172.421 112.087 172.167 111.778 172.017 111.417C171.867 111.056 171.827 110.658 171.904 110.275C171.981 109.891 172.169 109.539 172.447 109.263C172.724 108.986 173.078 108.798 173.462 108.722C173.847 108.645 174.246 108.684 174.608 108.834C174.971 108.984 175.28 109.237 175.498 109.562C175.716 109.887 175.833 110.269 175.833 110.66C175.831 111.184 175.622 111.686 175.25 112.057C174.878 112.427 174.375 112.636 173.849 112.637ZM173.849 109.314C173.582 109.312 173.32 109.391 173.097 109.538C172.874 109.685 172.7 109.895 172.597 110.141C172.494 110.387 172.466 110.658 172.518 110.92C172.569 111.181 172.698 111.422 172.886 111.611C173.075 111.8 173.316 111.929 173.578 111.981C173.84 112.033 174.112 112.007 174.36 111.905C174.607 111.803 174.818 111.631 174.967 111.409C175.116 111.188 175.195 110.927 175.195 110.66C175.195 110.304 175.053 109.962 174.801 109.71C174.549 109.458 174.207 109.315 173.849 109.314Z" fill="#FF9F9E"/>
<path d="M109.064 106.734C109.064 106.734 102.929 116.857 101.125 125.612H142.503C142.503 125.612 139.326 110.406 135.73 106.838L109.064 106.734Z" fill="#121B46"/>
<path d="M108.056 109.703C109.26 109.633 110.464 109.6 111.668 109.551L115.281 109.464C117.689 109.405 120.092 109.394 122.5 109.388C124.909 109.383 127.317 109.388 129.725 109.459L133.333 109.551C134.537 109.6 135.741 109.633 136.945 109.703C135.741 109.774 134.537 109.806 133.333 109.861L129.725 109.948C127.317 110.007 124.909 110.013 122.5 110.018C120.092 110.024 117.689 110.018 115.281 109.948L111.668 109.861C110.459 109.812 109.26 109.779 108.056 109.703Z" fill="white"/>
<path d="M112.262 109.949C112.107 110.743 111.844 111.512 111.483 112.236C111.133 112.975 110.69 113.667 110.165 114.294C109.625 114.935 108.952 115.452 108.192 115.809C107.428 116.164 106.559 116.218 105.757 115.961C106.534 115.968 107.299 115.763 107.969 115.369C108.617 114.97 109.195 114.467 109.68 113.881C110.666 112.657 111.531 111.34 112.262 109.949Z" fill="white"/>
<path d="M124.625 109.633C124.718 111.659 124.794 113.69 124.827 115.721L124.892 118.767V121.814V121.928L124.805 122.015C123.716 123.128 122.626 124.253 121.487 125.355L120.942 125.898V125.143C120.942 122.574 120.942 120.006 121.018 117.431C121.095 114.857 121.133 112.294 121.258 109.72C121.383 112.294 121.443 114.863 121.492 117.431C121.541 120 121.541 122.574 121.569 125.143L121.024 124.926C122.114 123.84 123.258 122.721 124.375 121.619L124.288 121.825L124.315 118.778L124.38 115.732C124.478 113.69 124.549 111.659 124.625 109.633Z" fill="white"/>
<path d="M134.008 109.703C134.09 110.421 134.221 111.132 134.4 111.832C134.565 112.503 134.842 113.142 135.218 113.722C135.596 114.277 136.133 114.705 136.76 114.949C137.432 115.187 138.139 115.311 138.852 115.319C138.126 115.563 137.346 115.597 136.602 115.416C135.825 115.215 135.148 114.74 134.695 114.08C134.269 113.426 134.003 112.683 133.916 111.908C133.812 111.174 133.844 110.426 134.008 109.703Z" fill="white"/>
<path d="M156.664 65.1328L151.558 65.2849C151.558 65.2849 149.924 72.7685 147.646 82.7558C146.898 81.5719 146.201 80.4549 145.554 79.405C143.231 83.8224 140.532 88.0323 137.484 91.9882C139.184 94.8719 141.146 98.0163 143.364 101.297L143.456 101.432C147.401 107.232 156.5 105.098 157.432 98.1738C157.432 98.0978 157.432 98.0163 157.459 97.9403C158.838 87.5077 159.078 76.0976 156.664 65.1328Z" fill="#F7BB8B"/>
<path d="M153.645 57.6001C153.531 56.275 153.357 54.8847 153.139 54.939C152.784 55.0096 152.594 55.9383 152.414 57.1114C152.836 57.2447 153.247 57.408 153.645 57.6001Z" fill="#F28766"/>
<path d="M155.803 59.2297C155.803 57.8068 155.678 55.0208 155.204 54.7656C154.833 54.5646 154.425 56.3459 154.147 57.872C154.772 58.2274 155.332 58.6865 155.803 59.2297Z" fill="#F28766"/>
<path d="M159.361 57.3445C159.023 57.5888 158.451 58.2731 157.726 60.2065C157.726 60.2065 158.222 55.8619 157.726 55.2373C157.334 54.7431 156.364 58.0559 155.977 59.4516C156.219 59.7664 156.404 60.1212 156.522 60.4998C156.666 60.9931 156.712 61.5095 156.658 62.0204C156.919 62.8551 156.84 63.7587 156.437 64.5353C156.034 65.3119 155.34 65.8991 154.506 66.1695C153.838 66.3917 153.126 66.4513 152.43 66.3433C151.906 66.5262 151.345 66.5802 150.796 66.5008C151.216 67.2349 151.697 67.9325 152.234 68.5862L155.787 67.9074C155.787 67.9074 159.683 60.5867 159.726 57.5237C159.734 57.4788 159.726 57.4327 159.706 57.3922C159.685 57.3517 159.651 57.319 159.61 57.2989C159.569 57.2788 159.523 57.2723 159.478 57.2805C159.433 57.2888 159.392 57.3112 159.361 57.3445Z" fill="#F7BB8B"/>
<path d="M146.889 90.6482C146.845 89.3231 146.889 88.0034 146.998 86.6892C147.041 86.0321 147.107 85.3804 147.172 84.7232C147.238 84.0661 147.319 83.4144 147.412 82.7627L147.924 82.9311C147.281 83.9086 146.622 84.8807 145.886 85.7985C146.354 84.7229 146.876 83.6716 147.45 82.6487L148.039 81.5625L147.962 82.8116C147.919 83.4741 147.864 84.1258 147.799 84.783C147.733 85.4401 147.668 86.0918 147.575 86.7435C147.414 88.0559 147.185 89.3593 146.889 90.6482Z" fill="#121B46"/>
<path d="M148.698 55.5115L154.822 66.9488C154.953 67.1858 155.161 67.372 155.411 67.4774C155.661 67.5828 155.939 67.6013 156.201 67.5299C157.329 67.2149 159.121 66.5035 159.563 65.0643C160.222 62.9246 154.692 52.2422 154.692 52.2422L148.698 55.5115Z" fill="#DFDFDF"/>
<path d="M142.116 40.6719L140.045 41.2747C139.744 41.3653 139.485 41.5613 139.317 41.8266C139.149 42.092 139.082 42.409 139.13 42.7193C139.793 46.6518 140.956 50.4842 142.59 54.124C142.719 54.4167 142.951 54.6522 143.242 54.7863C143.533 54.9203 143.863 54.9436 144.17 54.8517L146.001 54.3086L142.116 40.6719Z" fill="#28AD92"/>
<path d="M152.31 35.1484L142.557 38.0594C141.124 38.483 141.179 42.8873 142.683 47.8945C144.186 52.9017 146.567 56.5838 148 56.1819L157.748 53.2765L152.31 35.1484Z" fill="#35C4A6"/>
<path d="M157.628 43.4501C159.127 48.4573 159.187 52.8617 157.748 53.2908C156.31 53.7198 153.934 50.0323 152.436 44.9979C150.937 39.9635 150.877 35.5917 152.31 35.1627C153.743 34.7337 156.125 38.4375 157.628 43.4501Z" fill="#3CDEBC"/>
<path d="M170.705 23.4531L152.643 37.3451L152.703 38.5834C152.948 43.3169 154.432 47.9041 157.007 51.8888L179.521 52.0246L170.705 23.4531Z" fill="#DFDFDF"/>
<path d="M182.627 35.4978C185.025 43.4811 184.006 50.8289 180.355 51.9205C177.527 52.7623 173.947 49.6016 171.365 44.426C170.571 42.8224 169.914 41.1546 169.403 39.4405C168.935 37.8868 168.585 36.3002 168.357 34.694C167.534 28.7201 168.771 23.8867 171.681 23.0178C175.331 21.9316 180.23 27.5199 182.627 35.4978Z" fill="#C4C4C4"/>
<path d="M175.168 37.7258C176.655 42.6787 176.83 47.3926 175.865 50.5153C173.348 48.4299 170.891 44.4002 169.403 39.4419C167.916 34.4836 167.768 29.7696 168.706 26.6523C171.228 28.7323 173.664 32.7674 175.168 37.7258Z" fill="#919191"/>
<path d="M175.25 34.1523L177.206 40.6693L171.365 44.4274C170.571 42.8238 169.914 41.156 169.403 39.4419C168.935 37.8882 168.585 36.3016 168.357 34.6954L175.25 34.1523Z" fill="#EBEBEB"/>
<path d="M177.718 36.9647C178.263 38.7623 178.028 40.4187 177.206 40.6631C176.383 40.9074 175.299 39.6475 174.754 37.8499C174.209 36.0523 174.443 34.3959 175.266 34.1515C176.089 33.9071 177.178 35.1616 177.718 36.9647Z" fill="#35C4A6"/>
<path d="M154.457 36.2812C154.697 37.6661 155.002 39.0292 155.302 40.3815C155.601 41.7338 155.961 43.0969 156.392 44.4003C156.8 45.7204 157.292 47.0137 157.863 48.2725C158.457 49.5278 159.173 50.7227 159.999 51.8405C158.97 50.866 158.1 49.7373 157.421 48.4951C156.758 47.2458 156.211 45.9388 155.787 44.5904C155.368 43.2445 155.046 41.8707 154.822 40.4793C154.584 39.0925 154.462 37.6883 154.457 36.2812Z" fill="#121B46"/>
<path d="M146.573 54.3104C149.161 53.1014 151.916 52.2832 154.746 51.8828C152.16 53.0984 149.405 53.9168 146.573 54.3104Z" fill="#121B46"/>
<path d="M176.89 37.02C176.967 37.3385 177.025 37.6613 177.064 37.9867C177.08 38.1547 177.08 38.3238 177.064 38.4918C177.055 38.5848 177.033 38.6762 176.999 38.7633C176.977 38.8195 176.943 38.8703 176.9 38.9125C176.857 38.9546 176.805 38.9871 176.748 39.0077C176.623 39.0408 176.49 39.0232 176.377 38.9588C176.287 38.9121 176.204 38.8516 176.132 38.7796C176.003 38.6489 175.889 38.503 175.794 38.3452C175.614 38.0468 175.479 37.7226 175.397 37.3839C175.314 37.0447 175.283 36.695 175.304 36.3466C175.314 36.1618 175.349 35.9792 175.408 35.8035C175.437 35.7043 175.483 35.6107 175.544 35.5266C175.576 35.4707 175.619 35.4221 175.67 35.3838C175.722 35.3454 175.781 35.3182 175.844 35.3039C175.904 35.2966 175.965 35.3021 176.023 35.3198C176.082 35.3376 176.135 35.3673 176.181 35.4071C176.253 35.4682 176.316 35.5396 176.367 35.6189C176.458 35.7611 176.535 35.9121 176.595 36.0696C176.716 36.3792 176.814 36.6968 176.89 37.02ZM176.89 37.02C176.813 36.7041 176.688 36.4018 176.519 36.124C176.436 35.9894 176.338 35.8654 176.225 35.7547C176.121 35.6515 175.958 35.5863 175.925 35.6297C175.869 35.7111 175.838 35.8077 175.838 35.9067C175.827 36.0513 175.827 36.1966 175.838 36.3412C175.877 36.6407 175.931 36.938 176.002 37.2318C176.073 37.5265 176.162 37.8166 176.269 38.1008C176.319 38.236 176.381 38.3668 176.454 38.4918C176.499 38.5818 176.572 38.6557 176.661 38.7036C176.71 38.7036 176.824 38.5895 176.868 38.4483C176.919 38.2992 176.95 38.144 176.96 37.9867C176.986 37.6628 176.962 37.3369 176.89 37.02Z" fill="#121B46"/>
<path d="M172.231 23.625C173.677 23.9613 175.031 24.6102 176.198 25.5258C176.783 25.9866 177.312 26.5153 177.772 27.1007C178.215 27.6908 178.626 28.3035 179.004 28.9363C180.503 31.4591 181.717 34.1403 182.622 36.9305C183.056 38.3396 183.375 39.7818 183.575 41.2425C183.801 42.7093 183.801 44.2019 183.575 45.6686C183.369 47.146 182.853 48.5634 182.06 49.8286C181.632 50.4509 181.035 50.9387 180.339 51.2352C179.64 51.5195 178.858 51.5195 178.159 51.2352C178.51 51.3489 178.881 51.3914 179.249 51.3601C179.608 51.347 179.96 51.2601 180.284 51.1049C180.92 50.7851 181.451 50.2916 181.815 49.682C182.513 48.429 182.945 47.0463 183.085 45.6198C183.444 42.774 182.867 39.8794 181.995 37.1314C181.127 34.3631 179.979 31.69 178.568 29.1536C178.238 28.5206 177.875 27.906 177.478 27.3125C177.059 26.7304 176.573 26.1999 176.029 25.7322C174.922 24.7767 173.629 24.0593 172.231 23.625Z" fill="#121B46"/>
<path d="M151.281 67.633C151.281 67.633 149.145 63.0005 149.379 61.9143C149.613 60.8282 151.994 58.2757 153.133 58.6993C154.272 59.1229 152.528 62.3923 152.528 62.3923C152.528 62.3923 155.356 65.8191 155.04 67.557C154.724 69.2948 151.281 67.633 151.281 67.633Z" fill="#F7BB8B"/>
<path d="M130.619 63.8945C130.619 63.8945 139.849 68.7823 141.435 70.6613C143.02 72.5404 147.254 81.5229 147.254 81.5229L138.051 93.8617C138.051 93.8617 128.227 79.2583 130.619 63.8945Z" fill="#FDB32C"/>
<path d="M132.461 67.0935C132.103 66.5331 131.942 65.8704 132.003 65.209C131.48 64.8403 131.01 64.4038 130.603 63.9111C130.439 63.3245 130.058 61.8908 129.774 60.2779C129.494 58.8696 129.394 57.4318 129.475 55.9984C129.5 55.4617 129.644 54.9371 129.894 54.4615L115.869 46.5977C115.869 46.6411 115.869 46.6845 115.869 46.7334C116.093 48.0314 117.782 58.2141 116.049 63.6124C114.802 64.1703 113.455 64.4714 112.088 64.4976C110.35 64.531 108.684 65.1908 107.397 66.3549C106.029 67.6366 104.819 69.7818 104.798 73.3661C106.083 73.529 107.364 73.7788 108.644 74.0069C112.458 74.6912 116.273 75.4244 120.125 76.0543C125.072 76.8744 130.145 77.0482 135.141 77.6021C134.978 73.8929 134.221 70.0587 132.461 67.0935Z" fill="#F7BB8B"/>
<path d="M129.774 60.2839C122.146 61.2451 118.289 52.1703 118.147 51.8281C119.393 53.7762 121.345 55.1708 123.596 55.722C125.502 56.2026 127.486 56.3023 129.431 56.0153H129.48C129.398 57.4448 129.497 58.8789 129.774 60.2839Z" fill="#EBA771"/>
<path d="M115.728 63.4922C115.728 63.4922 124.724 73.4034 127.372 71.823C130.02 70.2427 130.679 64.2199 130.679 64.2199C130.679 64.2199 139.751 72.062 141.032 74.5928C142.312 77.1235 142.192 82.0764 139.021 89.8805C135.85 97.6845 137.038 108.237 137.038 108.237H108.007C109.506 104.785 110.088 101.007 109.696 97.2664C108.96 91.3577 101.975 72.4802 101.975 72.4802C101.975 72.4802 100.597 63.8072 115.728 63.4922Z" fill="#FDB32C"/>
<path d="M115.466 64.5459C116.18 65.3171 116.894 66.0828 117.646 66.816C118.398 67.5492 119.139 68.2878 119.929 68.9883C120.708 69.6769 121.522 70.3241 122.37 70.9271C123.197 71.5299 124.097 72.0245 125.05 72.3989C125.953 72.7939 126.975 72.825 127.9 72.4858C128.806 72.0716 129.533 71.347 129.949 70.4438C130.41 69.523 130.727 68.5379 130.892 67.522C131.092 66.496 131.205 65.4551 131.229 64.4102C131.474 66.5309 131.186 68.679 130.39 70.661C129.962 71.705 129.157 72.5515 128.134 73.0343C127.609 73.2616 127.039 73.3656 126.467 73.3384C125.908 73.3059 125.357 73.1905 124.833 72.9963C123.829 72.5934 122.884 72.0602 122.021 71.4105C121.167 70.7773 120.357 70.0879 119.596 69.3468C118.078 67.8735 116.695 66.2667 115.466 64.5459Z" fill="#121B46"/>
<path d="M136.4 76.2188C136.924 77.5951 137.544 78.9327 138.258 80.2213C139.011 81.5339 139.509 82.9767 139.724 84.4736C139.854 85.9821 139.7 87.5015 139.272 88.954C138.856 90.379 138.322 91.7669 137.675 93.1031C138.067 91.6748 138.487 90.2628 138.792 88.8345C139.114 87.4284 139.215 85.9811 139.092 84.5442C138.888 83.1128 138.455 81.7231 137.811 80.4276C137.512 79.7542 137.217 79.0754 136.967 78.3694C136.727 77.6668 136.538 76.9481 136.4 76.2188Z" fill="#121B46"/>
<path d="M122.816 92.8045C123.839 92.4656 124.921 92.3453 125.993 92.4515C127.067 92.5254 128.113 92.8273 129.061 93.3368C127.971 93.2879 126.968 93.1575 125.939 93.0815C124.909 93.0055 123.89 92.9349 122.816 92.8045Z" fill="#121B46"/>
<path d="M98.9674 90.2246C98.3735 89.6815 97.7742 89.1384 97.1857 88.5953C94.4613 86.0211 91.6444 83.561 88.9418 80.9922C88.1862 81.8068 87.4234 82.6486 86.6533 83.5175C84.9097 85.478 83.128 87.5743 81.3572 89.7901C80.257 91.1667 79.6396 92.8646 79.5992 94.624C79.5589 96.3835 80.0979 98.1077 81.1338 99.533C82.5432 101.477 84.0307 103.398 85.5963 105.295C90.1873 110.936 95.4723 115.98 101.327 120.306L105.01 116.765C105.01 116.765 99.812 107.533 93.5678 96.193C95.4312 94.1565 97.2347 92.1471 98.9674 90.2246Z" fill="#F7BB8B"/>
<path d="M101.076 119.234C101.076 119.234 103.043 127.282 105.048 129.601C105.074 129.634 105.109 129.659 105.149 129.673C105.189 129.687 105.233 129.689 105.274 129.678C105.315 129.668 105.352 129.646 105.38 129.615C105.409 129.584 105.428 129.545 105.435 129.503C105.528 129.096 105.495 128.2 104.759 126.278C104.759 126.278 107.282 129.856 108.067 129.992C108.851 130.128 106.285 125.104 106.285 125.104C106.285 125.104 109.554 128.83 110.263 128.662C110.971 128.493 107.843 123.861 107.843 123.861C107.843 123.861 111.44 127.505 111.69 127.168C112.311 126.332 107.407 121.08 108.012 120.624C108.617 120.168 110.192 120.95 110.933 121.466C110.969 121.492 111.01 121.509 111.054 121.518C111.098 121.526 111.142 121.524 111.186 121.514C111.229 121.503 111.269 121.483 111.303 121.455C111.338 121.427 111.366 121.392 111.385 121.352C111.554 121.004 111.657 120.412 110.895 119.82C108.699 118.022 106.069 116.827 103.266 116.355L101.076 119.234Z" fill="#F7BB8B"/>
<path d="M91.1812 93.7578C92.2667 94.2384 93.1346 95.1034 93.6168 96.1854C92.5313 95.7048 91.6634 94.8397 91.1812 93.7578Z" fill="#121B46"/>
<path d="M86.419 83.0946L97.0004 92.794L110.333 79.0867C110.333 79.0867 111.2 64.858 108.339 64.5973C104.089 64.2334 90.4402 77.3108 86.419 83.0946Z" fill="#FDB32C"/>
<path d="M105.838 83.6865L111.232 78.625L107.32 88.3842L105.838 83.6865Z" fill="#121B46"/>
<path d="M136.95 43.2538C136.792 39.1372 136.291 34.8957 134.869 31.2517C133.038 26.554 124.402 24.7347 118.387 29.9483C115.586 32.3704 114.998 36.7585 115.166 40.7719C115.051 40.7133 114.931 40.6643 114.807 40.6252C113.581 40.3211 112.349 41.2389 111.979 42.3903C111.847 42.852 111.817 43.337 111.891 43.8115C111.965 44.286 112.142 44.7387 112.409 45.1382C112.868 45.8427 113.531 46.3904 114.311 46.7078C114.844 46.8471 115.396 46.9021 115.946 46.8707C116.484 49.5195 117.896 51.9128 119.956 53.67C121.231 54.7467 122.737 55.5187 124.357 55.9272C125.978 56.3357 127.67 56.3698 129.306 56.027C131.91 55.4839 135.763 53.8275 136.722 51.1393C136.936 50.4228 137.032 49.6762 137.005 48.9289C137.005 48.7606 137.005 48.5868 137.005 48.413C137.021 46.7566 137.021 45.0133 136.95 43.2538Z" fill="#F7BB8B"/>
<path d="M137.005 48.4165C136.781 48.4772 136.55 48.5082 136.318 48.5088C135.94 48.5091 135.566 48.4295 135.221 48.275C134.875 48.1206 134.567 47.8949 134.316 47.6129C134.065 47.3309 133.876 46.999 133.763 46.6391C133.65 46.2792 133.615 45.8995 133.66 45.525C133.705 45.1506 133.829 44.7899 134.024 44.4668C134.219 44.1437 134.481 43.8656 134.792 43.6507C135.103 43.4359 135.456 43.2892 135.828 43.2205C136.2 43.1517 136.583 43.1624 136.95 43.2518C137.021 45.0114 137.021 46.7547 137.005 48.4165Z" fill="#EBA771"/>
<path d="M120.326 45.8423C120.326 46.3702 120.484 46.8862 120.778 47.3249C121.073 47.7636 121.491 48.1054 121.98 48.3069C122.47 48.5084 123.008 48.5606 123.528 48.4568C124.047 48.353 124.524 48.098 124.897 47.724C125.271 47.35 125.525 46.8738 125.627 46.3559C125.729 45.8379 125.674 45.3014 125.47 44.8143C125.266 44.3273 124.922 43.9116 124.48 43.6199C124.039 43.3282 123.52 43.1737 122.991 43.1758C122.283 43.1787 121.606 43.4609 121.106 43.9606C120.607 44.4604 120.326 45.137 120.326 45.8423Z" fill="#EBA771"/>
<path d="M132.254 40.6687C132.254 41.5376 132.602 42.2436 133.027 42.2436C133.452 42.2436 133.801 41.5376 133.801 40.6687C133.801 39.7998 133.452 39.0938 133.027 39.0938C132.602 39.0938 132.254 39.7998 132.254 40.6687Z" fill="#121B46"/>
<path d="M134.586 38.5934C134.448 38.8501 134.263 39.0785 134.041 39.2669C133.809 39.4695 133.53 39.6113 133.229 39.6796C133.155 39.696 133.078 39.683 133.014 39.6434C132.95 39.6038 132.904 39.5408 132.886 39.4678C132.877 39.4314 132.875 39.3936 132.881 39.3566C132.887 39.3197 132.9 39.2842 132.92 39.2524C132.94 39.2205 132.966 39.1929 132.996 39.1712C133.027 39.1494 133.062 39.134 133.098 39.1257H133.175C133.418 39.1208 133.658 39.0617 133.875 38.9527C134.093 38.8437 134.284 38.6876 134.433 38.4957C134.451 38.4784 134.474 38.4688 134.499 38.4688C134.523 38.4688 134.547 38.4784 134.564 38.4957C134.576 38.5085 134.585 38.5244 134.588 38.5416C134.592 38.5588 134.591 38.5767 134.586 38.5934Z" fill="#121B46"/>
<path d="M123.536 40.4574C123.685 40.6445 123.874 40.7972 124.088 40.905C124.303 41.0128 124.538 41.0731 124.778 41.0819C124.815 41.0804 124.852 41.0863 124.887 41.0992C124.922 41.112 124.954 41.1316 124.982 41.1569C125.009 41.1821 125.031 41.2124 125.047 41.2462C125.062 41.2799 125.071 41.3163 125.072 41.3534C125.075 41.4289 125.048 41.5025 124.997 41.5584C124.946 41.6142 124.875 41.6479 124.8 41.6521H124.713C124.411 41.5843 124.131 41.4403 123.901 41.234C123.678 41.0456 123.493 40.8172 123.356 40.5605C123.35 40.5495 123.347 40.5375 123.346 40.5252C123.346 40.5129 123.347 40.5006 123.351 40.4889C123.355 40.4773 123.362 40.4666 123.37 40.4574C123.378 40.4483 123.388 40.4409 123.399 40.4356C123.415 40.4241 123.434 40.418 123.454 40.418C123.474 40.418 123.493 40.4241 123.508 40.4356L123.536 40.4574Z" fill="#121B46"/>
<path d="M124.555 41.1169C124.804 40.8531 125.104 40.6425 125.437 40.4978C125.768 40.3536 126.129 40.2903 126.489 40.3131C126.837 40.3451 127.176 40.4447 127.486 40.6064C127.639 40.6824 127.775 40.7856 127.917 40.8725L128.303 41.1875C128.34 41.2149 128.363 41.2554 128.369 41.3002C128.376 41.345 128.364 41.3904 128.336 41.4264C128.309 41.4625 128.268 41.4861 128.223 41.4922C128.178 41.4983 128.132 41.4864 128.096 41.459L127.72 41.1984C127.592 41.1221 127.459 41.0532 127.323 40.992C127.06 40.8773 126.776 40.8163 126.489 40.8128C126.212 40.8163 125.939 40.8852 125.693 41.0137C125.454 41.1434 125.242 41.3165 125.067 41.5242C125.014 41.5897 124.937 41.6317 124.854 41.6409C124.77 41.65 124.686 41.6257 124.62 41.5731C124.554 41.5205 124.512 41.4441 124.503 41.3605C124.494 41.277 124.518 41.1933 124.571 41.1278L124.555 41.1169Z" fill="#121B46"/>
<path d="M132.559 45.4375C132.282 45.9628 131.884 46.415 131.398 46.7572C130.896 47.1267 130.29 47.3283 129.666 47.3329C129.044 47.3173 128.443 47.1105 127.944 46.7409C127.709 46.5647 127.487 46.3723 127.279 46.1652C127.094 45.9317 126.919 45.6982 126.734 45.4538C126.968 45.6276 127.186 45.8122 127.41 45.9969C127.633 46.1815 127.867 46.3227 128.113 46.4476C128.578 46.7173 129.105 46.8649 129.644 46.8767C130.182 46.8752 130.71 46.7329 131.175 46.4639C131.68 46.1849 132.146 45.8397 132.559 45.4375Z" fill="#121B46"/>
<path d="M130.472 48.2344C130.242 48.4182 129.955 48.5162 129.66 48.5113C129.366 48.5102 129.081 48.4129 128.848 48.2344C129.115 48.291 129.387 48.3219 129.66 48.3267C129.933 48.3279 130.206 48.2969 130.472 48.2344Z" fill="#121B46"/>
<path d="M127.731 35.2002C127.399 34.9132 126.972 34.7568 126.533 34.7603C126.1 34.7443 125.669 34.805 125.258 34.9395C124.842 35.0703 124.459 35.2889 124.135 35.5804C123.818 35.8534 123.557 36.1854 123.367 36.5579C123.32 36.6445 123.309 36.746 123.337 36.8405C123.364 36.935 123.428 37.0149 123.514 37.063C123.582 37.0989 123.659 37.113 123.735 37.1033C123.811 37.0935 123.882 37.0605 123.939 37.0087H123.972C124.203 36.7753 124.458 36.5677 124.734 36.3896C124.994 36.2271 125.28 36.1096 125.579 36.042C125.877 35.972 126.183 35.9428 126.489 35.9551C126.815 35.9824 127.143 35.9641 127.464 35.9008H127.562C127.662 35.8763 127.749 35.8136 127.803 35.7262C127.857 35.6388 127.874 35.5338 127.851 35.4337C127.837 35.3452 127.795 35.2635 127.731 35.2002Z" fill="#121B46"/>
<path d="M131.589 35.2002C131.925 34.912 132.355 34.7556 132.799 34.7603C133.231 34.7443 133.663 34.805 134.074 34.9395C134.49 35.0703 134.872 35.2889 135.196 35.5804C135.513 35.8534 135.774 36.1854 135.964 36.5579C135.995 36.6308 136.001 36.7115 135.982 36.7881C135.963 36.8648 135.92 36.9333 135.859 36.9837C135.798 37.0341 135.722 37.0637 135.643 37.0682C135.564 37.0727 135.486 37.0519 135.419 37.0087H135.387C135.155 36.781 134.899 36.5789 134.624 36.4059C134.364 36.2434 134.078 36.1259 133.779 36.0583C133.481 35.9883 133.175 35.9591 132.869 35.9714C132.543 35.9987 132.215 35.9804 131.894 35.9171H131.796C131.747 35.905 131.7 35.8833 131.659 35.8533C131.618 35.8233 131.583 35.7855 131.557 35.7421C131.531 35.6987 131.513 35.6506 131.506 35.6005C131.498 35.5504 131.5 35.4992 131.513 35.45C131.507 35.3603 131.534 35.2717 131.589 35.2002Z" fill="#121B46"/>
<path d="M129.84 38.2578C129.976 38.8552 130.074 39.4417 130.189 40.0283C130.289 40.6064 130.418 41.1792 130.575 41.7444C130.615 41.8856 130.659 42.0214 130.706 42.1517C130.78 42.313 130.826 42.4856 130.842 42.6622C130.846 42.8528 130.798 43.0408 130.702 43.2055C130.606 43.3703 130.466 43.5055 130.298 43.5963C130.142 43.6742 129.973 43.7192 129.799 43.7286C129.626 43.7379 129.452 43.7114 129.29 43.6506C128.994 43.5435 128.723 43.3813 128.489 43.1727C129.033 43.3791 129.693 43.542 130.085 43.2487C130.175 43.1903 130.247 43.1093 130.295 43.0139C130.343 42.9185 130.364 42.8121 130.358 42.7056C130.339 42.5825 130.3 42.4632 130.243 42.3526C130.182 42.2072 130.13 42.0585 130.085 41.9073C129.922 41.3152 129.825 40.7068 129.796 40.0934C129.75 39.4816 129.764 38.8667 129.84 38.2578Z" fill="#121B46"/>
<path d="M112.949 43.2418C112.937 43.0476 112.968 42.853 113.039 42.6719C113.111 42.4908 113.221 42.3276 113.363 42.1937C113.536 42.0749 113.736 42.0021 113.945 41.9822C114.154 41.9622 114.364 41.9958 114.556 42.0796C114.935 42.2222 115.268 42.4642 115.521 42.7802C115.774 43.0822 115.977 43.4234 116.12 43.7903C116.133 43.8224 116.14 43.8568 116.14 43.8914C116.139 43.9261 116.132 43.9603 116.119 43.9922C116.105 44.0241 116.085 44.0529 116.06 44.077C116.035 44.101 116.005 44.1199 115.973 44.1325C115.924 44.1505 115.871 44.1545 115.82 44.1439C115.769 44.1334 115.722 44.1087 115.684 44.0727C115.44 43.7942 115.132 43.5798 114.785 43.4482C114.724 43.4239 114.658 43.4147 114.592 43.4213C114.527 43.4279 114.464 43.4502 114.409 43.4862C114.289 43.5976 114.199 43.7378 114.148 43.8935C114.011 44.2411 113.93 44.6484 114.224 44.8059C114.597 44.9493 115.005 44.9777 115.395 44.8874C115.002 45.1 114.544 45.1599 114.109 45.0557C113.985 45.0074 113.877 44.9254 113.797 44.8188C113.717 44.7122 113.668 44.5855 113.657 44.4529C113.636 44.2188 113.66 43.9828 113.728 43.7578C113.789 43.5109 113.919 43.2865 114.104 43.1115C114.216 43.0201 114.348 42.9571 114.489 42.9278C114.631 42.8984 114.777 42.9037 114.916 42.9431C115.365 43.0894 115.763 43.3585 116.066 43.7197L115.619 43.9858C115.406 43.3536 114.975 42.8169 114.404 42.4707C114.269 42.3907 114.117 42.344 113.961 42.3346C113.804 42.3251 113.648 42.3531 113.505 42.4163C113.219 42.6092 113.02 42.9052 112.949 43.2418Z" fill="#121B46"/>
<path d="M135.654 32.6121C135.347 31.127 134.654 29.7485 133.643 28.615C131.404 26.1711 127.824 25.5086 124.506 25.4326C122.272 25.3728 119.972 25.5412 117.967 26.5187C114.796 28.0448 112.883 31.2761 110.551 33.91C107.032 37.8622 102.367 40.6255 97.202 41.8173C93.0065 42.7785 88.6421 42.6591 84.3485 43.0447C80.0549 43.4302 75.6305 44.4132 72.3231 47.1829C69.7568 49.3553 67.9969 52.478 65.0055 53.9932C63.3709 54.8404 61.4584 55.0793 59.6058 55.34L56.5709 55.731C52.1084 56.3175 49.5802 61.2922 51.9286 65.1263C51.9286 65.1263 51.9613 65.1806 51.9722 65.2078C53.5142 67.6788 55.9988 69.5959 56.9359 72.3547C57.7968 74.88 57.2029 77.6443 57.41 80.3C57.7369 84.4763 60.1344 88.3539 63.4036 90.9498C66.6728 93.5457 70.8356 94.9523 75.0148 95.4085C76.5471 95.5759 78.0904 95.6213 79.6299 95.5443C79.4238 93.4654 80.0396 91.3884 81.3462 89.755C83.1225 87.5393 84.8988 85.4484 86.6369 83.477L86.7296 83.3847L86.4135 83.0914C90.4293 77.2968 104.078 64.2194 108.328 64.6267C109.263 64.3993 110.238 64.3882 111.178 64.5941C111.485 64.5443 111.794 64.5134 112.104 64.5018C113.469 64.477 114.816 64.1816 116.066 63.6328C117.749 58.3921 116.213 48.6655 115.908 46.8897C115.357 46.9202 114.806 46.8653 114.273 46.7267C113.495 46.4061 112.835 45.8543 112.382 45.1464C112.111 44.7411 111.935 44.2805 111.866 43.7984C111.797 43.3162 111.838 42.8249 111.984 42.3604C112.151 41.8233 112.49 41.356 112.95 41.031C113.411 40.7059 113.965 40.5413 114.529 40.5628C115.058 41.4724 115.704 42.3087 116.452 43.0501C116.553 43.1775 116.679 43.2828 116.823 43.3595C116.966 43.4361 117.124 43.4824 117.286 43.4954C117.706 43.4954 117.978 43.0501 118.174 42.6808C118.43 42.2029 118.872 41.7087 119.122 41.2362C120.634 41.3093 122.143 41.0325 123.529 40.4276C124.916 39.8228 126.143 38.9062 127.116 37.7496C127.686 37.0237 128.203 36.2578 128.663 35.4578L130.586 32.2971C132.008 33.8775 134.259 36.7395 136.373 36.9893C136.372 35.5011 136.129 34.0229 135.654 32.6121Z" fill="#121B46"/>
</g>
<path d="M34.3401 175.723L31.7083 176.668C30.6262 176.109 29.4335 175.796 28.2157 175.75C27.7362 175.723 27.5837 175.978 27.5346 176.163C27.5299 176.184 27.5298 176.206 27.5342 176.228C27.5386 176.249 27.5476 176.27 27.5604 176.288C27.5732 176.306 27.5897 176.321 27.6087 176.332C27.6277 176.343 27.6489 176.35 27.6708 176.353C28.1231 176.407 28.9676 176.662 29.0385 176.988C29.1093 177.314 25.5785 177.716 25.5458 178.232C25.5458 178.438 28.0577 178.232 28.0577 178.232C28.0577 178.232 25.3878 178.943 25.6003 179.236C25.8128 179.53 28.2484 179.204 28.2484 179.204C28.2484 179.204 25.6657 180.236 26.0035 180.442C26.3414 180.648 28.45 180.132 28.45 180.132C27.9386 180.341 27.4913 180.68 27.1532 181.115C27.1422 181.133 27.1367 181.154 27.1374 181.175C27.1381 181.196 27.1449 181.217 27.1571 181.234C27.1692 181.251 27.1861 181.265 27.2057 181.273C27.2254 181.28 27.2469 181.282 27.2676 181.278C28.1994 181.148 29.8449 180.192 30.951 179.475V179.513C32.4306 179.65 33.9172 179.697 35.4026 179.655C35.0048 178.378 34.6561 177.042 34.3401 175.723Z" fill="#F28766"/>
<path d="M50.5228 158.695L44.017 172.066L31.9536 176.096L32.4276 180.131C32.4276 180.131 46.7142 179.262 49.0135 176.97C51.3129 174.678 55.6828 163.599 55.8408 162.491C55.9988 161.384 50.5228 158.695 50.5228 158.695Z" fill="#FDB32C"/>
<path d="M54.5331 156.77C54.5331 156.77 51.5145 159.838 51.6344 162.255C51.7542 164.671 51.9504 177.912 51.9504 177.912L50.719 178.509L48.1799 177.586C48.1799 177.586 49.4331 163.596 49.4331 162.097C49.4331 160.598 49.9126 158.296 51.3401 157.666C52.3658 157.244 53.4374 156.943 54.5331 156.77Z" fill="#FDB32C"/>
<path d="M15.4439 183.562C10.0878 184.241 6.42079 184.736 6.42079 184.736L5.23297 189.83L15.9724 189.949C15.6945 187.842 15.5311 185.735 15.4439 183.562Z" fill="#F08D6E"/>
<path d="M7.16728 184.512C6.52216 183.848 5.97209 183.099 5.53266 182.285C5.06407 181.248 5.32561 176.588 2.9881 176.898V187.672L3.94708 188.634H2.90637V190.806C2.90637 190.806 5.29836 191.637 6.75317 190.86C6.75317 190.86 5.3474 189.307 5.974 187.602C6.60061 185.896 7.16728 184.512 7.16728 184.512Z" fill="#FDB32C"/>
<path d="M12.6705 183.213V190.441H64.0956C64.0956 190.441 62.2921 180.123 58.102 178.787C53.9119 177.451 12.6705 183.213 12.6705 183.213Z" fill="#FF5C5B"/>
<path d="M16.7407 182.004L9.24873 186.164L8.64392 189.727L10.3657 191.709L12.0003 191.166L12.0821 191.139L20.0862 187.831C18.9202 185.936 17.7923 183.997 16.7407 182.004Z" fill="#FA9778"/>
<path d="M9.47755 185.483C8.60562 185.181 7.77891 184.763 7.02018 184.239C6.12659 183.533 4.21408 179.27 2.27979 180.617L7.23813 190.191L8.52947 190.604L7.58684 191.087L8.56761 192.999C8.56761 192.999 11.074 192.641 12.0112 191.288C12.0112 191.288 10.0497 190.544 9.83172 188.741C9.61377 186.938 9.47755 185.483 9.47755 185.483Z" fill="#FDB32C"/>
<path d="M12.5888 183.694L15.6074 189.863L34.5744 182.347C34.5744 182.347 56.3966 194.447 62.2703 192.155C68.144 189.863 68.46 178.632 66.0844 177.285C63.7087 175.938 50.7135 177.731 50.7135 177.731L50.0542 178.312C50.0542 178.312 37.119 172.854 34.0241 173.011C30.9292 173.169 12.5888 183.694 12.5888 183.694Z" fill="#FF5C5B"/>
<path d="M15.8417 189.62C17.3673 188.898 18.9093 188.225 20.4622 187.567C22.0151 186.91 23.568 186.275 25.1318 185.65C26.6955 185.026 28.2702 184.428 29.8503 183.847C31.4305 183.266 33.0106 182.696 34.6125 182.175L34.5744 182.327C34.2529 181.887 33.9314 181.447 33.6209 180.996C33.9968 181.393 34.3619 181.8 34.7106 182.202L34.7978 182.299L34.6725 182.354C33.1414 183.06 31.583 183.701 30.0356 184.358C28.4882 185.015 26.9135 185.629 25.3443 186.231C23.775 186.834 22.2003 187.437 20.6148 187.996C19.0292 188.556 17.4545 189.121 15.8417 189.62Z" fill="#121B46"/>
<path d="M52.1084 190.417C51.351 190.14 50.61 189.83 49.8635 189.537L47.6404 188.597C46.1638 187.973 44.7035 187.299 43.2487 186.626C41.7939 185.952 40.3446 185.257 38.8897 184.524L36.7484 183.438C36.0401 183.052 35.3263 182.683 34.6288 182.281C35.3862 182.553 36.1272 182.862 36.8792 183.156L39.1186 184.106C40.6006 184.731 42.0555 185.404 43.5157 186.077C44.976 186.751 46.4199 187.451 47.8747 188.179L50.0215 189.265C50.6971 189.645 51.4109 190.009 52.1084 190.417Z" fill="#121B46"/>
<path d="M50.1251 178.391C52.0271 178.928 53.7882 179.873 55.285 181.16C53.3854 180.617 51.6255 179.673 50.1251 178.391Z" fill="#121B46"/>
<path d="M56.6363 180.128C55.0318 180.287 53.4139 180.016 51.9504 179.341C52.749 179.245 53.5576 179.273 54.3478 179.422C55.1411 179.545 55.9121 179.783 56.6363 180.128Z" fill="#121B46"/>
<path d="M65.9481 157.948C65.3136 157.376 64.4932 157.052 63.6379 157.035C62.9667 157.023 62.3051 156.875 61.6927 156.601C60.8372 153.945 61.6927 148.933 61.7744 148.292C61.7771 148.27 61.7771 148.248 61.7744 148.227L54.8818 152.093C55.0054 152.327 55.0761 152.584 55.0888 152.848C55.1262 153.552 55.0768 154.258 54.9417 154.95C54.8001 155.748 54.6148 156.454 54.5331 156.742C53.9882 157.421 53.2308 157.768 52.2337 158.306C52.2447 158.573 52.2264 158.841 52.1792 159.104C51.8795 160.707 52.4026 162.949 52.3318 164.617C52.2446 166.556 52.1792 168.478 52.1956 170.422C52.1956 172.839 52.3154 175.142 52.4898 177.482H65.5667C65.1962 174.012 66.0789 168.836 67.0597 163.14C67.561 160.288 66.8145 158.762 65.9481 157.948Z" fill="#FA9778"/>
<path d="M54.9471 154.957C58.6959 155.429 60.5975 150.965 60.6683 150.797C60.0553 151.756 59.0952 152.442 57.9875 152.714C57.0491 152.949 56.0737 152.998 55.1161 152.861C55.1458 153.564 55.089 154.268 54.9471 154.957Z" fill="#FA7C55"/>
<path d="M54.5004 156.885C54.5004 156.885 53.0346 159.91 54.0917 160.594C55.1488 161.278 61.7635 156.586 61.7635 156.586C61.7635 156.586 65.3651 157.01 66.3677 159.54C67.3702 162.071 65.9427 177.728 65.9427 177.728C65.9427 177.728 53.7757 178.467 50.6862 177.728C50.6862 177.728 50.7407 169.978 50.3702 167.551C49.9997 165.123 50.2231 161.034 50.975 159.367C51.3946 158.503 54.5004 156.885 54.5004 156.885Z" fill="white"/>
<path d="M61.8725 156.406C61.8725 156.406 56.2385 159.019 56.7943 161.864C57.3501 164.71 59.7857 192.945 59.7857 192.945C59.7857 192.945 67.1687 193.178 69.9421 191.755C72.7155 190.333 66.4549 171.031 66.7709 169.212C67.0869 167.393 68.7543 159.247 66.3732 157.742C65.0373 156.866 63.4719 156.401 61.8725 156.406Z" fill="#FDB32C"/>
<path d="M60.1779 190.229C61.7996 190.818 63.5085 191.134 65.2343 191.163C66.0836 191.184 66.9324 191.104 67.7625 190.924C68.6086 190.74 69.4379 190.486 70.2417 190.164C69.5387 190.715 68.7412 191.135 67.8879 191.402C67.4588 191.54 67.0198 191.646 66.5747 191.717C66.1279 191.769 65.6787 191.796 65.2289 191.799C64.3287 191.789 63.4348 191.648 62.5754 191.381C61.7175 191.132 60.9073 190.743 60.1779 190.229Z" fill="#121B46"/>
<path d="M41.7554 164.241L42.5519 163.453L37.9562 158.84L37.1597 159.629L41.7554 164.241Z" fill="#121B46"/>
<path d="M39.2167 164.641C39.2167 164.641 39.4673 165.119 39.658 165.184C40.0563 165.315 40.4621 165.422 40.8731 165.505C40.9167 165.537 41.8212 166.303 43.167 167.411C43.5847 166.85 44.0152 166.29 44.4583 165.733C44.758 165.353 45.0468 164.967 45.3301 164.576L43.8535 163.908L42.9926 163.235C42.6058 162.757 41.4888 160.954 40.9657 160.992C40.3391 161.041 40.3773 161.285 40.3773 161.285C40.3773 161.285 41.3526 162.529 41.1346 163.023C40.9167 163.517 38.7862 161.166 38.7862 161.166L38.2414 160.715C38.2414 160.715 38.1378 162.018 38.6064 162.458C38.5317 162.67 38.5146 162.897 38.5567 163.118C38.5988 163.338 38.6987 163.543 38.8462 163.713C38.8462 163.713 38.8571 164.43 39.2167 164.641Z" fill="#FA9778"/>
<path d="M61.3167 158.461L57.0286 169.138L43.3032 163.283C43.3032 163.283 40.9221 166.287 41.1564 166.368C41.3907 166.45 53.5359 178.235 58.6196 177.366C63.7032 176.497 67.1087 161.616 67.1087 161.616L61.3167 158.461Z" fill="#FDB32C"/>
<path d="M58.4343 177.412C59.448 177.253 60.3591 176.705 60.9734 175.886C61.976 174.512 65.5722 167.234 65.5722 167.234C65.5722 167.234 63.5997 179.839 58.4343 177.412Z" fill="#121B46"/>
<path d="M59.1754 170.137C58.7635 170.095 58.3587 170 57.9712 169.855C57.5961 169.718 57.2318 169.552 56.8815 169.361L56.135 168.953L56.936 168.79C57.4817 168.662 58.0441 168.618 58.6033 168.66C58.1412 168.977 57.6318 169.219 57.094 169.377L57.1485 168.834C57.5257 168.986 57.8901 169.167 58.2382 169.377C58.5803 169.592 58.895 169.847 59.1754 170.137Z" fill="#121B46"/>
<path d="M44.9924 169.766C47.1093 170.867 49.0103 172.338 50.6046 174.11C49.5387 173.564 48.5326 172.908 47.6023 172.155C46.6553 171.447 45.781 170.646 44.9924 169.766Z" fill="#121B46"/>
<path d="M47.4279 164.973C47.9498 164.98 48.4642 165.097 48.9381 165.315C49.4121 165.533 49.8349 165.847 50.1795 166.238C49.6565 166.238 49.1402 166.119 48.6702 165.89C48.193 165.68 47.7686 165.367 47.4279 164.973Z" fill="#121B46"/>
<path d="M59.3334 161.066C59.3704 160.592 59.4922 160.129 59.693 159.698C59.8894 159.256 60.1562 158.849 60.4831 158.492C60.819 158.126 61.2321 157.839 61.6927 157.65C62.1565 157.475 62.6643 157.452 63.142 157.585C62.7106 157.697 62.2964 157.867 61.9106 158.09C61.5596 158.331 61.2362 158.61 60.9462 158.921C60.6503 159.244 60.3755 159.585 60.1234 159.942L59.3334 161.066Z" fill="#121B46"/>
<path d="M63.7033 146.153C63.6182 145.864 63.4299 145.616 63.1739 145.456C62.9179 145.296 62.612 145.235 62.3139 145.284C62.2512 145.303 62.1909 145.328 62.1341 145.36C62.2158 143.383 61.927 141.222 60.5539 140.027C57.5898 137.464 53.3398 138.36 52.4408 140.673C51.411 143.313 51.351 146.582 51.3892 149.363C51.3751 149.73 51.423 150.097 51.5308 150.449C51.9994 151.779 53.8956 152.594 55.1815 152.86C55.9862 153.028 56.8189 153.011 57.6159 152.81C58.413 152.608 59.1532 152.228 59.7802 151.698C60.7928 150.833 61.487 149.655 61.7526 148.352C62.0237 148.367 62.2956 148.342 62.5591 148.276C62.9422 148.116 63.2672 147.843 63.4908 147.494C63.6209 147.299 63.7073 147.078 63.7439 146.847C63.7806 146.615 63.7668 146.379 63.7033 146.153Z" fill="#FA9778"/>
<path d="M53.5468 145.308C53.5468 145.737 53.3779 146.084 53.1654 146.084C52.9529 146.084 52.784 145.737 52.784 145.308C52.784 144.879 52.9584 144.531 53.1654 144.531C53.3725 144.531 53.5468 144.879 53.5468 145.308Z" fill="#121B46"/>
<path d="M56.4619 146.084C56.6726 146.084 56.8433 145.737 56.8433 145.308C56.8433 144.879 56.6726 144.531 56.4619 144.531C56.2513 144.531 56.0805 144.879 56.0805 145.308C56.0805 145.737 56.2513 146.084 56.4619 146.084Z" fill="#121B46"/>
<path d="M53.3834 147.652C53.5209 147.912 53.719 148.136 53.9609 148.304C54.2076 148.485 54.5049 148.583 54.8109 148.586C55.1159 148.577 55.4106 148.475 55.6555 148.293C55.7718 148.206 55.8811 148.11 55.9824 148.005C56.075 147.886 56.1622 147.772 56.2385 147.652L55.9061 147.918C55.7955 147.998 55.6809 148.073 55.5629 148.141C55.3349 148.276 55.0758 148.349 54.8109 148.353C54.5449 148.356 54.283 148.286 54.0536 148.152C53.8083 148.017 53.5829 147.849 53.3834 147.652Z" fill="#121B46"/>
<path d="M54.4132 149.031C54.5282 149.119 54.6689 149.166 54.8137 149.166C54.9584 149.166 55.0992 149.119 55.2142 149.031C55.0815 149.059 54.9465 149.073 54.811 149.075C54.6771 149.076 54.5436 149.061 54.4132 149.031Z" fill="#121B46"/>
<path d="M55.7644 142.617C55.9265 142.474 56.1364 142.397 56.3529 142.4C56.5653 142.391 56.7776 142.42 56.9795 142.487C57.1815 142.552 57.3672 142.66 57.5244 142.802C57.6812 142.937 57.8106 143.101 57.9058 143.285C57.9173 143.306 57.9247 143.329 57.9273 143.352C57.93 143.376 57.928 143.399 57.9214 143.422C57.9148 143.445 57.9038 143.466 57.889 143.484C57.8741 143.503 57.8558 143.518 57.835 143.53C57.8035 143.551 57.7666 143.562 57.7287 143.562C57.6909 143.562 57.6539 143.551 57.6225 143.53C57.5075 143.418 57.3816 143.318 57.2465 143.231C57.1181 143.154 56.9784 143.097 56.8324 143.063C56.6859 143.029 56.5358 143.014 56.3856 143.019C56.2247 143.04 56.0616 143.04 55.9007 143.019H55.8571C55.808 143.008 55.7655 142.977 55.739 142.934C55.7124 142.892 55.704 142.84 55.7154 142.791C55.7074 142.76 55.7078 142.728 55.7164 142.698C55.725 142.667 55.7416 142.639 55.7644 142.617Z" fill="#121B46"/>
<path d="M53.8629 142.617C53.6998 142.476 53.4906 142.399 53.2744 142.4C53.062 142.391 52.8496 142.42 52.6478 142.487C52.4461 142.553 52.2605 142.66 52.1029 142.802C51.949 142.939 51.8215 143.103 51.727 143.285C51.7154 143.306 51.7081 143.329 51.7054 143.352C51.7028 143.376 51.7048 143.4 51.7113 143.422C51.7179 143.445 51.729 143.466 51.7438 143.485C51.7586 143.503 51.777 143.518 51.7978 143.53C51.8292 143.551 51.8662 143.562 51.9041 143.562C51.9419 143.562 51.9789 143.551 52.0103 143.53C52.1242 143.417 52.2503 143.316 52.3863 143.231C52.5142 143.153 52.6541 143.096 52.8004 143.063C52.9468 143.029 53.097 143.014 53.2472 143.019C53.4063 143.041 53.5675 143.041 53.7267 143.019H53.7757C53.824 143.006 53.8656 142.976 53.892 142.933C53.9183 142.891 53.9274 142.84 53.9174 142.791C53.9247 142.76 53.9235 142.727 53.9139 142.697C53.9043 142.666 53.8867 142.639 53.8629 142.617Z" fill="#121B46"/>
<path d="M54.0427 144.051C53.9773 144.339 53.9283 144.632 53.8738 144.92C53.825 145.203 53.7613 145.484 53.6831 145.761C53.667 145.83 53.6452 145.897 53.6177 145.962C53.5836 146.042 53.5616 146.126 53.5523 146.212C53.5497 146.307 53.5739 146.4 53.6221 146.482C53.6703 146.564 53.7405 146.63 53.8247 146.674C53.9009 146.713 53.9843 146.735 54.0698 146.74C54.1552 146.745 54.2406 146.731 54.3206 146.701C54.4654 146.649 54.5987 146.57 54.7129 146.467C54.5937 146.533 54.461 146.57 54.325 146.577C54.189 146.584 54.0533 146.559 53.9283 146.505C53.8839 146.475 53.8484 146.433 53.8254 146.385C53.8024 146.336 53.7928 146.282 53.7975 146.229C53.8069 146.168 53.8253 146.11 53.852 146.055C53.8823 145.984 53.9077 145.912 53.9283 145.838C54.009 145.545 54.0583 145.244 54.0754 144.941C54.0945 144.644 54.0836 144.346 54.0427 144.051Z" fill="#121B46"/>
<path d="M63.2564 146.5C63.2633 146.404 63.2487 146.308 63.2139 146.219C63.179 146.13 63.1247 146.049 63.0548 145.984C62.9692 145.926 62.8704 145.891 62.7676 145.882C62.6647 145.872 62.5612 145.888 62.4664 145.929C62.28 145.998 62.1161 146.116 61.9923 146.271C61.8694 146.422 61.7702 146.591 61.6981 146.771C61.6854 146.803 61.6858 146.838 61.699 146.87C61.7123 146.901 61.7374 146.926 61.7689 146.939C61.7932 146.948 61.8194 146.949 61.8445 146.944C61.8696 146.938 61.8925 146.925 61.9106 146.907C62.0278 146.769 62.1776 146.663 62.3465 146.597C62.3744 146.583 62.4052 146.576 62.4364 146.576C62.4676 146.576 62.4984 146.583 62.5263 146.597C62.5869 146.652 62.632 146.721 62.6571 146.798C62.7279 146.967 62.7661 147.168 62.6189 147.244C62.4354 147.316 62.2338 147.332 62.0414 147.287C62.2367 147.391 62.4635 147.42 62.6789 147.368C62.74 147.344 62.7932 147.303 62.8326 147.25C62.872 147.198 62.8961 147.135 62.9023 147.07C62.9091 146.954 62.8962 146.839 62.8641 146.728C62.8359 146.606 62.7713 146.497 62.6789 146.413C62.6244 146.368 62.5596 146.336 62.4902 146.322C62.4209 146.308 62.349 146.311 62.2811 146.331C62.067 146.404 61.8781 146.536 61.7363 146.711L61.9542 146.842C62.058 146.53 62.2707 146.266 62.5536 146.098C62.6194 146.058 62.694 146.034 62.7709 146.03C62.8478 146.025 62.9247 146.039 62.9949 146.071C63.0659 146.12 63.1258 146.184 63.1708 146.258C63.2158 146.332 63.245 146.414 63.2564 146.5Z" fill="#121B46"/>
<path d="M64.003 143.325C63.7741 142.602 63.4254 141.777 62.6789 141.647C62.8231 141.332 62.8977 140.99 62.8977 140.645C62.8977 140.299 62.8231 139.957 62.6789 139.643C62.3943 139.108 61.9709 138.66 61.453 138.345C60.7528 137.88 59.9583 137.576 59.1264 137.454C57.8466 137.341 56.5569 137.446 55.3123 137.764C54.6584 137.888 53.8411 137.997 53.1873 138.122C52.8335 137.903 52.4106 137.822 52.0007 137.897C51.5908 137.971 51.2233 138.194 50.9696 138.524C50.4804 139.206 50.2541 140.041 50.3321 140.875C50.4457 142.512 50.8401 144.118 51.4981 145.622C51.5417 144.987 51.6126 144.357 51.7052 143.732C51.9427 143.048 52.3298 142.424 52.8385 141.907C53.6465 142.697 54.6588 143.247 55.7625 143.497C56.8661 143.746 58.0176 143.685 59.0882 143.319C59.1523 143.835 59.2918 144.338 59.5023 144.813C59.6003 145.112 59.7685 145.385 59.9931 145.607C60.2177 145.829 60.4921 145.994 60.7937 146.089C60.9261 146.126 61.0673 146.118 61.1941 146.065C61.3209 146.011 61.4257 145.916 61.4911 145.796C61.5783 145.557 62.1722 145.334 62.1722 145.356L62.3466 145.285C62.6442 145.234 62.9505 145.294 63.2062 145.454C63.4618 145.615 63.6487 145.864 63.7305 146.154C63.7991 146.381 63.8161 146.62 63.7802 146.854C63.7444 147.088 63.6567 147.311 63.5235 147.506C63.2986 147.854 62.974 148.127 62.5918 148.288C62.3286 148.356 62.0567 148.384 61.7853 148.37C61.6416 149.051 61.3837 149.703 61.0225 150.298C61.5325 150.38 62.0555 150.304 62.5209 150.081C63.1366 149.674 63.6062 149.082 63.8613 148.392C64.1656 147.82 64.3858 147.207 64.5152 146.572C64.5948 145.465 64.4196 144.354 64.003 143.325Z" fill="#121B46"/>
</g>
<defs>
<clipPath id="clip0_5_1711">
<rect width="240" height="193" fill="white" transform="translate(0.394531)"/>
</clipPath>
</defs>
</svg>
