<svg width="301" height="54" viewBox="0 0 301 54" fill="none" xmlns="http://www.w3.org/2000/svg">
<path d="M27.605 32.4489C27.605 33.5188 26.7377 34.386 25.6679 34.386C24.598 34.386 23.7307 33.5188 23.7307 32.4489C23.7307 31.379 24.598 30.5117 25.6679 30.5117C26.7377 30.5117 27.605 31.379 27.605 32.4489Z" fill="white"/>
<path d="M34.3851 32.4489C34.3851 33.5188 33.5178 34.386 32.448 34.386C31.3781 34.386 30.5108 33.5188 30.5108 32.4489C30.5108 31.379 31.3781 30.5117 32.448 30.5117C33.5178 30.5117 34.3851 31.379 34.3851 32.4489Z" fill="white"/>
<path d="M41.1653 32.4489C41.1653 33.5188 40.298 34.386 39.2281 34.386C38.1583 34.386 37.291 33.5188 37.291 32.4489C37.291 31.379 38.1583 30.5117 39.2281 30.5117C40.298 30.5117 41.1653 31.379 41.1653 32.4489Z" fill="white"/>
<path fill-rule="evenodd" clip-rule="evenodd" d="M21.5511 19.3734H43.3442C50.1646 19.3734 55.6936 24.9024 55.6936 31.7228C55.6936 38.5432 50.1646 44.0723 43.3442 44.0723H24.8551C21.4968 45.5731 24.4666 48.9401 26.3935 50.6102C19.5943 48.4169 14.4144 43.4557 11.6534 39.1095C10.1135 37.0495 9.20166 34.4926 9.20166 31.7228C9.20166 24.9024 14.7307 19.3734 21.5511 19.3734ZM0.00012207 31.7228C0.00012207 19.8206 9.64882 10.1719 21.5511 10.1719H43.3442C55.2465 10.1719 64.8951 19.8206 64.8951 31.7228C64.8951 43.6251 55.2465 53.2738 43.3442 53.2738H21.5511C9.64882 53.2738 0.00012207 43.6251 0.00012207 31.7228Z" fill="white"/>
<path d="M21.3102 5.81225C21.3102 5.00985 21.9607 4.35938 22.7631 4.35938C23.5655 4.35938 24.216 5.00985 24.216 5.81225V12.108C24.216 12.9104 23.5655 13.5609 22.7631 13.5609C21.9607 13.5609 21.3102 12.9104 21.3102 12.108V5.81225Z" fill="white"/>
<path d="M26.1524 3.39004C26.1524 5.26231 24.6346 6.78008 22.7624 6.78008C20.8901 6.78008 19.3723 5.26231 19.3723 3.39004C19.3723 1.51777 20.8901 0 22.7624 0C24.6346 0 26.1524 1.51777 26.1524 3.39004Z" fill="white"/>
<path d="M40.1977 5.81225C40.1977 5.00985 40.8482 4.35938 41.6506 4.35938C42.453 4.35938 43.1034 5.00985 43.1034 5.81225V12.108C43.1034 12.9104 42.453 13.5609 41.6506 13.5609C40.8482 13.5609 40.1977 12.9104 40.1977 12.108V5.81225Z" fill="white"/>
<path d="M45.04 3.39004C45.04 5.26231 43.5223 6.78008 41.65 6.78008C39.7777 6.78008 38.2599 5.26231 38.2599 3.39004C38.2599 1.51777 39.7777 0 41.65 0C43.5223 0 45.04 1.51777 45.04 3.39004Z" fill="white"/>
<path d="M87.5009 45.2524C84.8018 45.2524 82.416 44.7222 80.3435 43.6618C78.2709 42.5773 76.6683 41.047 75.5357 39.0709C74.403 37.0948 73.8367 34.7692 73.8367 32.0942C73.8367 29.4191 74.403 27.0936 75.5357 25.1174C76.6683 23.1172 78.2709 21.5869 80.3435 20.5265C82.416 19.442 84.8018 18.8998 87.5009 18.8998C90.9953 18.8998 93.9114 19.6951 96.249 21.2856V26.4911C95.1886 25.5994 93.9716 24.9608 92.5979 24.5752C91.2484 24.1655 89.706 23.9607 87.9709 23.9607C85.3441 23.9607 83.2595 24.6957 81.7171 26.1657C80.1989 27.6117 79.4397 29.5878 79.4397 32.0942C79.4397 34.6246 80.2109 36.6248 81.7533 38.0949C83.2956 39.5408 85.3682 40.2638 87.9709 40.2638C89.7542 40.2638 91.3327 40.059 92.7064 39.6493C94.08 39.2155 95.3573 38.5287 96.5382 37.5888V42.7942C94.321 44.433 91.3086 45.2524 87.5009 45.2524Z" fill="white"/>
<path d="M99.6238 17.9961H105.082V29.3468C105.902 28.5034 106.829 27.8768 107.866 27.4671C108.902 27.0333 110.011 26.8164 111.191 26.8164C113.553 26.8164 115.312 27.4551 116.469 28.7323C117.65 29.9855 118.24 31.6845 118.24 33.8293V44.7101H112.782V34.4438C112.782 32.2026 111.746 31.082 109.673 31.082C108.757 31.082 107.902 31.3109 107.107 31.7688C106.311 32.2026 105.637 32.8533 105.082 33.7209V44.7101H99.6238V17.9961Z" fill="white"/>
<path d="M128.335 45.2524C126.214 45.2524 124.479 44.7222 123.129 43.6618C121.804 42.5773 121.141 41.1073 121.141 39.2516C121.141 37.3237 121.78 35.8295 123.057 34.7692C124.334 33.6847 126.141 33.1425 128.479 33.1425C129.515 33.1425 130.503 33.2509 131.443 33.4678C132.383 33.6847 133.215 33.986 133.938 34.3715V33.9378C133.938 32.8533 133.552 32.058 132.781 31.5519C132.01 31.0458 130.829 30.7928 129.238 30.7928C127.117 30.7928 125.165 31.1904 123.382 31.9857V28.0093C124.153 27.6719 125.153 27.3948 126.382 27.1779C127.612 26.9369 128.841 26.8164 130.07 26.8164C133.203 26.8164 135.54 27.4671 137.083 28.7685C138.625 30.0457 139.396 31.8411 139.396 34.1546V44.7101H134.263V43.1196C132.793 44.5414 130.817 45.2524 128.335 45.2524ZM129.817 41.6375C130.708 41.6375 131.516 41.4688 132.239 41.1314C132.962 40.794 133.528 40.3241 133.938 39.7216V37.9864C132.709 37.1671 131.359 36.7574 129.889 36.7574C128.877 36.7574 128.094 36.9743 127.539 37.408C127.009 37.8177 126.744 38.4323 126.744 39.2516C126.744 40.0228 127.009 40.6133 127.539 41.0229C128.069 41.4326 128.829 41.6375 129.817 41.6375Z" fill="white"/>
<path d="M149.358 45.2524C147.333 45.2524 145.791 44.6981 144.731 43.5895C143.694 42.4568 143.176 40.8904 143.176 38.8902V31.2989H140.646V27.3587H143.176V22.1532H148.635V27.3587H152.719V31.2989H148.635V38.1672C148.635 39.1793 148.827 39.9144 149.213 40.3723C149.599 40.806 150.285 41.0229 151.274 41.0229C152.069 41.0229 152.828 40.8301 153.551 40.4446V44.5294C152.442 45.0114 151.045 45.2524 149.358 45.2524Z" fill="white"/>
<path d="M163.662 45.2524C162.12 45.2524 160.59 45.1078 159.072 44.8186C157.553 44.5294 156.312 44.1438 155.348 43.6618V38.8179C156.625 39.4444 157.951 39.9144 159.325 40.2277C160.698 40.541 162.012 40.6976 163.265 40.6976C164.663 40.6976 165.723 40.4566 166.446 39.9746C167.169 39.4926 167.53 38.8179 167.53 37.9503C167.53 37.3237 167.35 36.7935 166.988 36.3597C166.627 35.9259 166.096 35.5404 165.398 35.203C164.723 34.8415 163.674 34.3715 162.253 33.7932C159.891 32.8292 158.18 31.7568 157.119 30.5759C156.059 29.3709 155.529 27.8888 155.529 26.1296C155.529 24.7077 155.915 23.4546 156.686 22.3701C157.457 21.2615 158.541 20.406 159.939 19.8035C161.337 19.2011 162.951 18.8998 164.783 18.8998C166.277 18.8998 167.603 19.0203 168.759 19.2613C169.916 19.5023 171.049 19.8758 172.157 20.3819V25.0813C170.037 24.0209 167.916 23.4907 165.795 23.4907C164.446 23.4907 163.385 23.7317 162.614 24.2137C161.843 24.6716 161.457 25.3343 161.457 26.2019C161.457 26.8285 161.638 27.3466 162 27.7563C162.361 28.166 162.867 28.5275 163.518 28.8408C164.169 29.1541 165.229 29.6119 166.699 30.2144C168.41 30.9374 169.747 31.6363 170.711 32.3111C171.675 32.9617 172.386 33.745 172.844 34.6607C173.302 35.5524 173.531 36.661 173.531 37.9864C173.531 40.2759 172.7 42.0592 171.037 43.3365C169.398 44.6137 166.94 45.2524 163.662 45.2524Z" fill="white"/>
<path d="M182.612 45.2524C180.587 45.2524 179.045 44.6981 177.985 43.5895C176.948 42.4568 176.43 40.8904 176.43 38.8902V31.2989H173.9V27.3587H176.43V22.1532H181.889V27.3587H185.974V31.2989H181.889V38.1672C181.889 39.1793 182.082 39.9144 182.467 40.3723C182.853 40.806 183.54 41.0229 184.528 41.0229C185.323 41.0229 186.082 40.8301 186.805 40.4446V44.5294C185.696 45.0114 184.299 45.2524 182.612 45.2524Z" fill="white"/>
<path d="M198.873 45.2524C196.776 45.2524 194.933 44.8788 193.342 44.1317C191.776 43.3606 190.559 42.2881 189.691 40.9145C188.848 39.5167 188.426 37.89 188.426 36.0344C188.426 34.2269 188.848 32.6243 189.691 31.2266C190.559 29.8288 191.776 28.7444 193.342 27.9732C194.933 27.202 196.776 26.8164 198.873 26.8164C200.945 26.8164 202.765 27.202 204.331 27.9732C205.922 28.7444 207.139 29.8288 207.982 31.2266C208.85 32.6243 209.284 34.2269 209.284 36.0344C209.284 37.89 208.85 39.5167 207.982 40.9145C207.139 42.2881 205.934 43.3606 204.367 44.1317C202.801 44.8788 200.969 45.2524 198.873 45.2524ZM198.873 40.9868C200.343 40.9868 201.512 40.541 202.379 39.6493C203.247 38.7335 203.681 37.5285 203.681 36.0344C203.681 34.492 203.247 33.2871 202.379 32.4195C201.536 31.5278 200.367 31.082 198.873 31.082C197.379 31.082 196.198 31.5278 195.33 32.4195C194.463 33.2871 194.029 34.492 194.029 36.0344C194.029 37.5285 194.463 38.7335 195.33 39.6493C196.222 40.541 197.403 40.9868 198.873 40.9868Z" fill="white"/>
<path d="M212.342 27.3587H217.62V29.8529C218.319 29.0095 219.295 28.3708 220.548 27.937C221.801 27.4792 223.223 27.2502 224.813 27.2502V31.4073C223.15 31.4073 221.68 31.6604 220.403 32.1665C219.15 32.6725 218.282 33.4437 217.8 34.48V44.7101H212.342V27.3587Z" fill="white"/>
<path d="M237.11 45.2524C233.785 45.2524 231.17 44.4571 229.266 42.8665C227.362 41.2519 226.41 38.9986 226.41 36.1067C226.41 33.2389 227.254 30.9735 228.941 29.3107C230.652 27.6478 233.086 26.8164 236.243 26.8164C238.315 26.8164 240.075 27.202 241.521 27.9732C242.967 28.7444 244.063 29.8168 244.81 31.1904C245.557 32.54 245.931 34.0703 245.931 35.7813V37.9864H231.616C232.001 40.2036 234.074 41.3121 237.833 41.3121C238.942 41.3121 240.087 41.2157 241.268 41.0229C242.448 40.8301 243.473 40.5651 244.34 40.2277V44.0594C243.497 44.4209 242.412 44.7101 241.087 44.927C239.761 45.1439 238.436 45.2524 237.11 45.2524ZM240.761 34.4438C240.689 33.2871 240.255 32.3954 239.46 31.7688C238.665 31.1181 237.568 30.7928 236.171 30.7928C234.797 30.7928 233.712 31.1181 232.917 31.7688C232.122 32.4195 231.688 33.3112 231.616 34.4438H240.761Z" fill="white"/>
<path d="M256.071 45.2524C254.77 45.2524 253.372 45.1078 251.878 44.8186C250.408 44.5535 249.251 44.1679 248.408 43.6618V39.3962C249.372 39.9746 250.528 40.4446 251.878 40.806C253.227 41.1675 254.481 41.3483 255.637 41.3483C256.625 41.3483 257.348 41.2639 257.806 41.0952C258.264 40.9265 258.493 40.6132 258.493 40.1554C258.493 39.7939 258.361 39.5047 258.095 39.2878C257.83 39.0468 257.421 38.842 256.866 38.6733C256.336 38.4805 255.445 38.2033 254.191 37.8418C252.721 37.408 251.565 36.9743 250.721 36.5405C249.902 36.0826 249.275 35.5163 248.841 34.8415C248.432 34.1667 248.227 33.2991 248.227 32.2388C248.227 30.4313 248.938 29.0818 250.36 28.1901C251.806 27.2743 253.758 26.8164 256.216 26.8164C257.421 26.8164 258.662 26.949 259.939 27.2141C261.24 27.4551 262.241 27.7804 262.939 28.1901V32.3472C262.241 31.8893 261.325 31.5158 260.192 31.2266C259.084 30.9374 257.999 30.7928 256.939 30.7928C255.951 30.7928 255.179 30.8892 254.625 31.082C254.095 31.2748 253.83 31.6363 253.83 32.1665C253.83 32.6243 254.083 32.9738 254.589 33.2148C255.119 33.4558 256.095 33.757 257.517 34.1185L258.24 34.2992C259.758 34.7089 260.939 35.1668 261.783 35.6729C262.626 36.1549 263.217 36.7453 263.554 37.4442C263.915 38.119 264.096 38.9745 264.096 40.0108C264.096 41.6013 263.409 42.8786 262.036 43.8426C260.662 44.7824 258.674 45.2524 256.071 45.2524Z" fill="white"/>
<path d="M278.226 24.0312H284.196L292.566 45.0013H286.206L284.646 41.0113H277.776L276.186 45.0013H269.826L278.226 24.0312ZM283.206 36.3013L281.196 30.4213L279.186 36.3013H283.206Z" fill="white"/>
<path d="M294.361 24.0312H300.571V45.0013H294.361V24.0312Z" fill="white"/>
</svg>
