<svg width="31" height="31" viewBox="0 0 31 31" fill="none" xmlns="http://www.w3.org/2000/svg">
<g id="Group 1171275553">
<path id="Vector" d="M15.4274 30.8319C23.9477 30.8319 30.8547 23.9299 30.8547 15.4159C30.8547 6.90195 23.9477 0 15.4274 0C6.90707 0 0 6.90195 0 15.4159C0 23.9299 6.90707 30.8319 15.4274 30.8319Z" fill="#E23340"/>
<path id="Vector_2" d="M18.2585 15.1689C19.6702 17.1719 20.9748 19.3878 21.8439 21.6506L19.1059 24.1244C19.1059 24.1244 17.6578 21.7351 15.4272 18.7363C13.1964 21.7348 11.748 24.1241 11.748 24.1241L9.01029 21.6506C9.87934 19.3881 11.1842 17.1719 12.5957 15.1689C10.9608 13.2485 9.13582 11.3519 7.26355 9.86169L10.798 6.71582C10.798 6.71582 12.942 8.62597 15.4262 11.5369C17.9118 8.62597 20.0545 6.71582 20.0545 6.71582L23.5889 9.86169C21.7183 11.3519 19.8933 13.2485 18.2585 15.1689Z" fill="white"/>
</g>
</svg>
