<svg width="22" height="60" viewBox="0 0 22 60" fill="none" xmlns="http://www.w3.org/2000/svg">
<path d="M11 39.7295L13.2755 46.7327H20.6391L14.6818 51.0609L16.9573 58.0641L11 53.7359L5.04272 58.0641L7.3182 51.0609L1.36092 46.7327H8.72452L11 39.7295Z" fill="#F97923"/>
<path d="M11 19.8647L13.2755 26.868H20.6391L14.6818 31.1962L16.9573 38.1994L11 33.8712L5.04272 38.1994L7.3182 31.1962L1.36092 26.868H8.72452L11 19.8647Z" fill="#F97923"/>
<path d="M11 0L13.2755 7.00321H20.6391L14.6818 11.3314L16.9573 18.3346L11 14.0064L5.04272 18.3346L7.3182 11.3314L1.36092 7.00321H8.72452L11 0Z" fill="#F97923"/>
</svg>
