<svg width="57" height="56" viewBox="0 0 57 56" fill="none" xmlns="http://www.w3.org/2000/svg">
<g id="Group 1171275429">
<rect id="Rectangle 1959" x="0.394531" width="56" height="56" rx="12" fill="#03ABA1"/>
<g id="Group 1171275424">
<path id="Vector" d="M24.3945 27C24.925 27 25.4337 26.7893 25.8087 26.4142C26.1838 26.0391 26.3945 25.5304 26.3945 25C26.3945 24.4696 26.1838 23.9609 25.8087 23.5858C25.4337 23.2107 24.925 23 24.3945 23C23.8641 23 23.3554 23.2107 22.9803 23.5858C22.6052 23.9609 22.3945 24.4696 22.3945 25C22.3945 25.5304 22.6052 26.0391 22.9803 26.4142C23.3554 26.7893 23.8641 27 24.3945 27ZM34.3945 25C34.3945 25.5304 34.1838 26.0391 33.8087 26.4142C33.4337 26.7893 32.925 27 32.3945 27C31.8641 27 31.3554 26.7893 30.9803 26.4142C30.6052 26.0391 30.3945 25.5304 30.3945 25C30.3945 24.4696 30.6052 23.9609 30.9803 23.5858C31.3554 23.2107 31.8641 23 32.3945 23C32.925 23 33.4337 23.2107 33.8087 23.5858C34.1838 23.9609 34.3945 24.4696 34.3945 25ZM21.9475 31.106C22.1835 30.988 22.4565 30.9681 22.7071 31.0505C22.9578 31.1329 23.1656 31.311 23.2855 31.546L23.2885 31.552L23.3225 31.61C23.3575 31.667 23.4155 31.756 23.4995 31.869C23.6685 32.094 23.9395 32.405 24.3315 32.719C25.1045 33.337 26.3875 34 28.3945 34C30.4015 34 31.6845 33.337 32.4575 32.72C32.8505 32.405 33.1215 32.094 33.2895 31.869C33.366 31.7676 33.4365 31.6617 33.5005 31.552L33.5045 31.545C33.6252 31.3101 33.8338 31.1324 34.085 31.0508C34.3361 30.9692 34.6094 30.9902 34.8451 31.1093C35.0808 31.2284 35.2598 31.4359 35.3431 31.6865C35.4263 31.9372 35.4071 32.2105 35.2895 32.447L35.2875 32.45V32.452L35.2835 32.458L35.2755 32.473C35.2445 32.5326 35.2111 32.591 35.1755 32.648C35.0878 32.7928 34.9926 32.933 34.8905 33.068C34.5483 33.5204 34.1505 33.9279 33.7065 34.281C32.6045 35.163 30.8875 36 28.3945 36C25.9015 36 24.1845 35.163 23.0825 34.28C22.639 33.9275 22.2416 33.5206 21.8995 33.069C21.7575 32.8793 21.6286 32.6802 21.5135 32.473L21.5055 32.458L21.5025 32.452L21.5015 32.449L21.5005 32.447C21.3821 32.2099 21.3627 31.9354 21.4465 31.684C21.5303 31.4325 21.7105 31.2246 21.9475 31.106ZM28.3945 14C20.6625 14 14.3945 20.268 14.3945 28C14.3945 35.732 20.6625 42 28.3945 42C36.1265 42 42.3945 35.732 42.3945 28C42.3945 20.268 36.1265 14 28.3945 14ZM16.3945 28C16.3945 21.373 21.7675 16 28.3945 16C35.0215 16 40.3945 21.373 40.3945 28C40.3945 34.627 35.0215 40 28.3945 40C21.7675 40 16.3945 34.627 16.3945 28Z" fill="white"/>
</g>
</g>
</svg>
