<svg xmlns="http://www.w3.org/2000/svg" width="234" height="221" fill="none" xmlns:v="https://vecta.io/nano"><style><![CDATA[.B{fill:#fff}.C{fill:#1b1b43}.D{fill:#9192ff}.E{fill:#d1d1ff}.F{fill:#ffbc96}.G{fill:#3335cf}.H{fill:#ffc967}]]></style><g clip-path="url(#B)"><path d="M57.818 129.146l-.249-.26 1.563-1.487.249.26-1.563 1.487zm3.117-2.984l-.254-.256 1.516-1.528.259.248-1.521 1.536zm3.001-3.113l-.264-.243 1.431-1.609.272.235-1.435 1.617h-.004zm2.831-3.269l-.278-.228 1.347-1.678.288.221-1.353 1.685h-.004zm2.668-3.403l-.288-.214 1.268-1.74.288.207-1.268 1.747zm2.507-3.52l-.298-.201 1.191-1.795.303.196-1.194 1.8h-.001zm19.736-2.491a5.3 5.3 0 0 1-1.94-.368l.134-.333a4.94 4.94 0 0 0 1.806.342c.089-.008.156 0 .233 0l.017.357c-.086 0-.186-.005-.254.002h.003zm2.391-.614l-.18-.31c.6-.347 1.097-.846 1.441-1.447l.313.178a4.27 4.27 0 0 1-1.573 1.579zm-19.769-.518l-.308-.191 1.119-1.839.31.184-1.124 1.846h.003zm13.612-.5c-.502-.548-.904-1.181-1.186-1.868l.333-.144a5.93 5.93 0 0 0 1.117 1.759l-.264.253zm8.318-2.701h-.36v-.096a3.73 3.73 0 0 0-.317-1.525l-.18-.35.314-.178c.071.123.134.25.193.38.233.525.352 1.092.35 1.665v.104zm-19.577-.377l-.277-.231c.47-.558.983-1.078 1.536-1.554l.235.271c-.537.465-1.037.971-1.494 1.514zm9.508-.912c-.041-.345-.062-.691-.062-1.039.001-.384.025-.768.073-1.149l.357.045a9.03 9.03 0 0 0-.071 1.11c0 .333.02.665.061.996l-.359.037zm-6.302-1.859l-.183-.307c.62-.383 1.268-.72 1.939-1.006l.144.329a14.5 14.5 0 0 0-1.894.984h-.006zm14.126-.369c-.565-.422-1.183-.766-1.84-1.023l.134-.333a8.31 8.31 0 0 1 1.935 1.07l-.229.286zm-10.219-1.312l-.094-.347c.703-.19 1.419-.331 2.142-.421l.045.356a14.97 14.97 0 0 0-2.087.412h-.006zm6.338-.299a13.09 13.09 0 0 0-2.118-.221l.009-.359c.733.017 1.464.093 2.185.228l-.076.352zm-3.078-.362l-.331-.12c.25-.688.568-1.349.951-1.973l.307.188c-.37.602-.678 1.241-.919 1.905h-.007zm2.203-3.591l-.265-.244.323-.332a11.7 11.7 0 0 1 1.327-1.125l.213.287a11.39 11.39 0 0 0-1.278 1.083l-.313.33h-.007zm3.408-2.504l-.151-.322c.654-.323 1.334-.593 2.033-.806l.105.343a12.99 12.99 0 0 0-1.979.784h-.007zm4.062-1.32l-.089-.348 2.082-.559.098.345-2.083.562h-.007zm4.173-1.181l-.108-.342 2.045-.677.118.339-2.055.679zm4.09-1.427l-.13-.335 1.992-.813.144.329-2.006.819zm3.978-1.714l-.155-.323 1.943-.941.157.323-1.945.941zm3.89-1.883l-.157-.323 1.943-.942.157.323-1.943.942zm3.889-1.885l-.157-.322 1.944-.942.157.323-1.944.941zm3.89-1.883l-.157-.323 1.936-.941.158.323-1.937.941zm3.889-1.885l-.157-.323 1.944-.941.158.322-1.945.942z" class="D"/><path d="M117.848 14.482c-.002.073.001.146.008.218h47.362c-.124-3.893-3.523-7.015-7.69-7.015a8.07 8.07 0 0 0-3.685.881c.058-3.03-1.402-5.932-4.093-7.489-4.033-2.332-9.317-.749-11.788 3.538a9.42 9.42 0 0 0-1.244 4.066c-1.97-.899-4.41-1.437-7.059-1.437-6.523.003-11.811 3.244-11.811 7.238z" fill="#ebebff"/><path d="M39.054 124.853H0v-.144c.104-3.295 2.93-5.877 6.434-5.877.996 0 1.98.219 2.881.641.026-2.523 1.322-4.822 3.421-6.034a6.79 6.79 0 0 1 2.536-.849c.893-.113 1.8-.048 2.668.192a7.65 7.65 0 0 1 2.681 1.338 7.61 7.61 0 0 1 1.956 2.267c.567.98.916 2.07 1.021 3.196 1.791-.751 3.717-1.128 5.66-1.109 5.411 0 9.812 2.72 9.812 6.062.001.065-.001.13-.007.195l-.009.122zm-38.765-.27h38.518v-.045c0-3.193-4.28-5.791-9.542-5.791-2.079 0-4.058.403-5.723 1.163l-.179.081-.013-.195a7.52 7.52 0 0 0-1.008-3.271c-.476-.846-1.116-1.589-1.883-2.187s-1.645-1.037-2.583-1.293c-.833-.23-1.704-.293-2.562-.185s-1.686.386-2.435.816c-2.075 1.2-3.334 3.505-3.286 6.015v.226l-.202-.104a6.5 6.5 0 0 0-2.956-.707c-3.303 0-5.98 2.395-6.145 5.477z" class="D"/><mask id="A" maskUnits="userSpaceOnUse" x="115" y="64" width="110" height="66"><path d="M115.42 120.967c.001 2.204.879 4.318 2.442 5.877a8.35 8.35 0 0 0 5.894 2.434h92.564a8.35 8.35 0 0 0 5.893-2.434 8.3 8.3 0 0 0 2.441-5.877V64.793H115.42v56.174z" class="B"/></mask><g mask="url(#A)"><path d="M115.42 120.967c.001 2.204.879 4.318 2.442 5.877a8.35 8.35 0 0 0 5.893 2.434h92.565a8.35 8.35 0 0 0 5.893-2.434 8.3 8.3 0 0 0 2.441-5.877V64.793H115.42v56.174z" class="B"/><path d="M109.704 79.127c1.278-4.083 5.317-7.216 9.731-7.548s8.917 2.155 10.849 6.002c2.35-.023 4.663 1.276 5.804 3.257a6.26 6.26 0 0 1 .801 3.26 6.25 6.25 0 0 1-1.003 3.205c2.797.483 5.307 2.319 6.545 4.784.608 1.235.91 2.597.88 3.972a8.56 8.56 0 0 1-1.054 3.93c3.077-1.56 7.014-1.418 9.967.36s4.814 5.126 4.71 8.477c1.918-2.999 5.594-4.869 9.249-4.702s7.138 2.36 8.764 5.521c1.716-5.119 6.291-9.252 11.703-10.574s11.486.214 15.537 3.926c6.093.951 10.533 7.548 8.946 13.292 3.291 2.716 4.974 7.132 4.285 11.249s-3.722 7.796-7.73 9.376l-104.832-.069-8.932-39.886 15.78-17.832z" class="E"/><g opacity=".8" class="B"><path d="M108.042 92.377c1.236-4.085 5.141-7.221 9.407-7.557s8.614 2.155 10.477 5.992c1.141-.011 2.264.286 3.25.859s1.798 1.401 2.352 2.396a6.32 6.32 0 0 1 .793 3.258c-.035 1.138-.377 2.245-.99 3.204 1.356.242 2.635.801 3.733 1.631a8.71 8.71 0 0 1 2.582 3.145 8.69 8.69 0 0 1 .867 3.972c-.03 1.374-.386 2.721-1.038 3.931a9.7 9.7 0 0 1 4.862-1.106c1.69.062 3.334.565 4.768 1.458a9.65 9.65 0 0 1 3.405 3.633 9.62 9.62 0 0 1 1.139 4.842c1.855-3 5.407-4.874 8.938-4.71s6.896 2.355 8.463 5.514c1.663-5.12 6.085-9.258 11.316-10.582s11.092.205 15.008 3.915c5.886.945 10.17 7.539 8.633 13.283 3.178 2.712 4.799 7.127 4.13 11.246s-3.601 7.798-7.475 9.374l-101.271.015-8.609-39.873 15.26-17.841z"/></g><path opacity=".7" d="M188.56 66.604c-30.339 28.455-51.851 36.126-78.958 38.87l-1.801 28.733 28.451 9.698c24.85-.718 48.71-36.596 63.448-67.379l-11.14-9.927" fill="#fff2e0"/><path d="M192.833 66.973c-4.932 5.82-12.371 11.387-21.146 18.906l11.973-4.866c-1.468 2.427-3.602 5.821-4.805 7.278 2.759-1.272 7.203-4.066 8.67-5.547 0 2.067-2.498 5.525-3.587 7.415 6.386-5.451 12.195-12.104 14.071-17.95l-5.176-5.237z" fill="#ffa121"/><path opacity=".4" d="M194.232 67.268c-2.919 3.857-7.285 7.576-12.446 12.584l6.986-3.304c-.876 1.602-2.149 3.844-2.859 4.81 1.612-.862 4.213-2.73 5.081-3.717-.022 1.352-1.504 3.639-2.161 4.885 3.755-3.63 7.19-8.045 8.338-11.886l-2.945-3.372" class="B"/><path d="M148.928 87.036c.039.899 0 2.418-.902 2.938-1.504.869-2.687-1.24-3.24-2.299-.658-1.266-.49-2.836 1-3.401 1.968-.747 3.07 1.082 3.142 2.761zm71.325 27.312c.039.9 0 2.418-.902 2.938-1.504.862-2.687-1.24-3.24-2.298-.658-1.266-.49-2.836 1-3.401 1.968-.747 3.07 1.082 3.142 2.761zm-79.319-36.231a1.26 1.26 0 1 0-1.26-1.257 1.26 1.26 0 0 0 1.26 1.257zm64.959 23.134a1.91 1.91 0 0 0 .864-2.566 1.92 1.92 0 0 0-2.572-.862 1.91 1.91 0 0 0-.864 2.566 1.92 1.92 0 0 0 2.572.862z" class="E"/></g><path d="M216.32 129.463h-92.564a8.54 8.54 0 0 1-6.018-2.492 8.49 8.49 0 0 1-2.493-6.004V64.626h109.593v56.342a8.49 8.49 0 0 1-2.496 6.007 8.53 8.53 0 0 1-6.022 2.489zM115.601 64.985v55.982c.002 2.156.862 4.223 2.391 5.747s3.602 2.382 5.764 2.384h92.564a8.17 8.17 0 0 0 5.763-2.384 8.13 8.13 0 0 0 2.391-5.747V64.985H115.601z" class="D"/><path d="M216.32 43.045h-92.564c-1.095 0-2.179.215-3.19.632s-1.93 1.03-2.704 1.802a8.31 8.31 0 0 0-1.807 2.696 8.29 8.29 0 0 0-.635 3.181v13.449h109.234V51.357c0-1.091-.216-2.172-.634-3.181a8.31 8.31 0 0 0-1.807-2.697 8.33 8.33 0 0 0-2.704-1.801 8.35 8.35 0 0 0-3.189-.632z" class="B"/><path d="M224.834 64.985H115.245V51.356c.002-2.251.9-4.41 2.497-6.002s3.76-2.488 6.018-2.49h92.564c2.258.003 4.422.898 6.018 2.49a8.49 8.49 0 0 1 2.496 6.002l-.004 13.628zm-109.233-.359h108.873V51.356a8.13 8.13 0 0 0-2.391-5.748c-1.529-1.525-3.601-2.382-5.763-2.385h-92.564c-2.163.002-4.236.86-5.764 2.385a8.13 8.13 0 0 0-2.391 5.748v13.269z" class="D"/><path d="M130.897 54.826c.502-2.467-1.096-4.872-3.569-5.372a4.57 4.57 0 0 0-5.387 3.56c-.502 2.467 1.096 4.872 3.57 5.372a4.57 4.57 0 0 0 5.386-3.56z" class="E"/><path d="M143.114 57.148a4.55 4.55 0 0 0 0-6.445 4.58 4.58 0 0 0-6.462 0 4.55 4.55 0 0 0 0 6.445 4.58 4.58 0 0 0 6.462 0z" class="B"/><path d="M139.878 58.662c-.94 0-1.859-.278-2.641-.799s-1.391-1.261-1.751-2.128-.454-1.82-.27-2.739.636-1.765 1.301-2.428a4.76 4.76 0 0 1 2.434-1.297c.922-.183 1.878-.089 2.746.27a4.75 4.75 0 0 1 2.134 1.746c.522.78.801 1.696.801 2.634 0 1.257-.501 2.463-1.392 3.352a4.76 4.76 0 0 1-3.362 1.389zm0-9.114c-.868 0-1.717.257-2.438.738a4.38 4.38 0 0 0-1.617 1.965 4.37 4.37 0 0 0-.25 2.529c.17.849.588 1.629 1.201 2.241s1.396 1.029 2.248 1.198a4.4 4.4 0 0 0 2.536-.249c.802-.331 1.488-.892 1.97-1.612a4.37 4.37 0 0 0 .74-2.432 4.38 4.38 0 0 0-1.288-3.094 4.4 4.4 0 0 0-3.102-1.284z" class="D"/><path d="M174.663 49.576h-18.192c-2.409 0-4.361 1.947-4.361 4.349v.002c0 2.402 1.952 4.349 4.361 4.349h18.192c2.409 0 4.361-1.947 4.361-4.349v-.002c0-2.402-1.952-4.349-4.361-4.349z" class="B"/><path d="M174.663 58.453h-18.192a4.55 4.55 0 0 1-1.787-.297c-.57-.218-1.089-.547-1.528-.97s-.788-.929-1.027-1.488-.361-1.162-.361-1.77.123-1.21.361-1.77.588-1.066 1.027-1.489a4.54 4.54 0 0 1 1.528-.97 4.55 4.55 0 0 1 1.787-.297h18.192c1.176.042 2.289.537 3.106 1.381a4.52 4.52 0 0 1 0 6.289c-.817.844-1.93 1.339-3.106 1.381zm-18.192-8.698c-1.108 0-2.171.439-2.954 1.22a4.16 4.16 0 0 0 0 5.892 4.18 4.18 0 0 0 2.954 1.22h18.192a4.18 4.18 0 0 0 2.954-1.22 4.16 4.16 0 0 0 0-5.892c-.783-.781-1.846-1.22-2.954-1.22h-18.192z" class="D"/><path d="M211.789 33.131c-7.295 6.369-19.879 1.98-23.786 7.066l11.173 8.823 12.613-15.888z" class="G"/><path d="M188.003 40.196c-.274.728-.345 1.516-.206 2.281a4.31 4.31 0 0 0 .995 2.065l7.923 9.044 2.467-4.567-11.179-8.822z" class="E"/><path d="M228.329 46.189c-4.544 8.541 2.624 19.748-1.441 24.711l-11.172-8.822 12.613-15.888z" class="G"/><path d="M226.888 70.898a4.33 4.33 0 0 1-4.424.231l-10.647-5.617 3.889-3.441 11.182 8.827z" class="E"/><path d="M234 22.185l-9.947 3.642 8.672 6.849L234 22.185z" class="C"/><path d="M232.725 32.675c-1.39 15.696-13.018 30.341-27.143 38.477l-12.87-10.154c5.401-16.945 15.459-29.072 31.341-35.171l8.672 6.848z" fill="#c5c5ff"/><path d="M192.712 60.998l-5.583 3.856 15.968 12.611 2.485-6.313-12.87-10.154z" class="G"/><path d="M221.025 45.332c3.276-.389 5.616-3.352 5.227-6.62s-3.361-5.601-6.638-5.213-5.616 3.352-5.227 6.62 3.362 5.601 6.638 5.213z" class="B"/><path d="M220.771 43.636l-.039-.356c.346-.036.685-.118 1.009-.243l.13.335c-.353.137-.723.226-1.1.264zm-1.125-.029a4.24 4.24 0 0 1-1.077-.32l.144-.328a3.92 3.92 0 0 0 .985.294l-.052.353zm3.203-.776l-.214-.287c.277-.206.526-.447.739-.718l.289.223c-.234.296-.506.559-.809.783h-.005zm-5.235-.144c-.291-.239-.549-.514-.767-.82l.288-.208a3.92 3.92 0 0 0 .703.751l-.224.277zm6.482-1.319l-.318-.165c.159-.305.276-.63.35-.965l.351.076c-.079.369-.208.726-.383 1.062v-.007zm-7.779-.494a4.24 4.24 0 0 1-.245-1.095l.359-.032c.029.344.105.682.225 1.006l-.339.121zm7.894-1.654c-.018-.342-.08-.68-.185-1.006l.341-.111a4.22 4.22 0 0 1 .205 1.102l-.361.014zm-7.73-.491l-.354-.063a4.19 4.19 0 0 1 .343-1.069l.325.155a3.89 3.89 0 0 0-.314.976v.001zm7.094-1.445c-.19-.288-.416-.549-.675-.777l.24-.269a4.3 4.3 0 0 1 .736.849l-.301.197zm-6.225-.395l-.274-.234a4.25 4.25 0 0 1 .837-.748l.203.296a3.86 3.86 0 0 0-.76.687h-.006zm4.698-.957a3.85 3.85 0 0 0-.974-.331l.069-.353c.369.073.727.195 1.065.362l-.16.322zm-3.013-.191l-.116-.339c.355-.123.725-.198 1.1-.224l.026.359c-.342.023-.68.092-1.004.204h-.006z" class="D"/><path d="M203.302 61.143l-.283-.224a.97.97 0 0 0-1.362.158l-11.201 14.109c-.332.419-.262 1.027.158 1.358l.284.224a.97.97 0 0 0 1.362-.158l11.2-14.109c.333-.419.262-1.027-.158-1.358z" class="C"/><g class="D"><path d="M210.726 199.766h-2.16v-.357h2.16v.357zm-4.321 0h-2.161v-.357h2.161v.357zm-4.322 0h-2.161v-.357h2.161v.357zm-4.322 0H195.6v-.357h2.161v.357zm-4.321 0h-2.161v-.357h2.161v.357zm-4.322 0h-2.161v-.357h2.161v.357zm-4.322 0h-2.161v-.357h2.161v.357zm-4.321 0h-2.161v-.357h2.161v.357zm-4.322 0h-2.161v-.357h2.161v.357zm-4.322 0h-2.161v-.357h2.161v.357zm-4.321 0c-.741-.005-1.476-.13-2.177-.37l.117-.339c.664.226 1.36.345 2.062.35l-.002.359zm43.479 0l-.015-.359c.702-.025 1.395-.163 2.053-.409l.127.336c-.695.258-1.426.403-2.167.428l.002.004zm-47.604-1.405a6.91 6.91 0 0 1-1.52-1.599l.297-.202a6.58 6.58 0 0 0 1.441 1.515l-.218.286zm51.686-.12l-.228-.281a6.49 6.49 0 0 0 1.398-1.554l.304.194c-.4.62-.896 1.172-1.47 1.636l-.004.005zm-54.143-3.473a6.83 6.83 0 0 1-.262-1.886v-.287h.36v.287c-.001.605.083 1.207.249 1.789l-.347.097zm56.496-.188l-.349-.089c.133-.526.2-1.067.2-1.609v-.484h.36v.484a6.87 6.87 0 0 1-.213 1.694l.002.004zm-56.398-4.146h-.36v-2.155h.36v2.155zm56.614-.191h-.361v-2.155h.361v2.155zm-56.614-4.119h-.36v-2.155h.36v2.155zm56.614-.191h-.361v-2.155h.361v2.155zm-56.614-4.119h-.36v-2.155h.36v2.155zm56.614-.191h-.361v-2.155h.361v2.155zm-56.614-4.119h-.36v-2.155h.36v2.155zm56.614-.191h-.361v-2.155h.361v2.155zm-56.614-4.119h-.36v-2.155h.36v2.155zm56.614-.191h-.361v-2.155h.361v2.155zm-56.614-4.119h-.36v-1.437c0-.245.012-.491.038-.735l.359.037c-.025.232-.037.465-.037.698v1.437zm56.614-.191h-.361v-1.246a6.51 6.51 0 0 0-.059-.882l.358-.049a7.44 7.44 0 0 1 .062.931v1.246zm-56.019-3.958l-.329-.144a6.9 6.9 0 0 1 1.229-1.83l.264.244a6.47 6.47 0 0 0-1.17 1.726l.006.004zm54.989-.167a6.57 6.57 0 0 0-1.213-1.702l.257-.252c.52.527.952 1.133 1.28 1.796l-.324.158zm-52.175-2.85l-.172-.316c.65-.355 1.353-.602 2.083-.734l.064.353a6.51 6.51 0 0 0-1.98.693l.005.004zm49.268-.088c-.626-.319-1.298-.534-1.993-.639l.054-.355c.733.11 1.443.338 2.103.675l-.164.319zm-4.123-.718h-2.161v-.359h2.161v.359zm-4.322 0h-2.161v-.359h2.161v.359zm-4.322 0h-2.161v-.359h2.161v.359zm-4.321 0h-2.161v-.359h2.161v.359zm-4.322 0h-2.161v-.359h2.161v.359zm-4.322 0h-2.161v-.359h2.161v.359zm-4.321 0h-2.161v-.359h2.161v.359zm-4.322 0h-2.161v-.359h2.161v.359zm-4.322 0h-2.161v-.359h2.161v.359zm-4.321 0h-2.161v-.359h2.161v.359z"/><path d="M206.785 153.618H160.81c-2.937 0-5.318 2.374-5.318 5.302v29.318c0 2.929 2.381 5.303 5.318 5.303h45.975a5.31 5.31 0 0 0 5.317-5.303V158.92a5.31 5.31 0 0 0-5.317-5.302z"/></g><g class="B"><path d="M171.465 176.938h-6.129v12.414h6.129v-12.414zm10.266.399h-6.13v12.016h6.13v-12.016zm10.264-6.277h-6.13v18.293h6.13V171.06zm10.265-5.367h-6.129v23.659h6.129v-23.659zm-2.018-6.452h-32.889v1.434h32.889v-1.434z"/></g><path d="M67.212 114.646a17.02 17.02 0 0 0-6.277-8.988l-1.216-.894 1.033 21.297 7.981-6.157-1.521-5.258z" class="H"/><path d="M92.858 140.386l-1.773-3.462a3.52 3.52 0 0 0-.912-1.126c-.379-.308-.819-.533-1.29-.663l-5.216-1.436-13.42-8.546-1.513-5.249-7.981 6.157.072 1.496c.071 1.47.554 2.891 1.395 4.101a7.89 7.89 0 0 0 3.359 2.745l13.031 5.603 6.194.143c1.997.687 2.685 2.402 3.924 1.785.461-.23-1.343-3.191-1.343-3.191l2.993 3.294 2.479-1.651z" class="F"/><path d="M70.09 125.028l-1.754 2.06.315.267 1.754-2.06-.315-.267z" fill="#d28572"/><path d="M69.517 149.013l9.764-.862c6.356-.559 11.885 4.56 12.194 11.291l2.206 47.956-13.468.419-10.696-58.804z" fill="#26289c"/><path d="M81.297 207.342l.413 13.246h19.957l-9.841-8.168-.619-6.383-9.91 1.305z" class="C"/><path d="M91.571 212.1l-4.198 3.226.504.652 4.198-3.226-.504-.652z" class="B"/><path d="M76.754 207.342l.412 13.246h19.959l-9.842-8.168-.619-6.383-9.91 1.305z" class="E"/><path d="M87.029 212.099l-4.198 3.226.504.652 4.198-3.226-.504-.652z" class="B"/><path d="M91.62 208.645H75.102L63.33 172.521l-1.648-5.058-23.537-.102c-1.453-.022-2.845-.693-4.034-1.685-2.502-2.104-3.655-5.411-3.199-8.643l2.077-14.69 34.967 4.534c3.235.419 6.258 1.832 8.651 4.043a15.65 15.65 0 0 1 4.7 8.295l10.313 49.43z" class="G"/><path d="M66.534 167.463l-3.204 5.058-1.648-5.058h4.852z" class="C"/><path d="M62.211 139.682l-.529 2.043-1.239 5.044-16.311-.675-11.743-.485c-.732-.03-1.448-.219-2.1-.553a5.04 5.04 0 0 1-1.672-1.381c-.45-.576-.769-1.244-.934-1.955s-.173-1.451-.023-2.165l5.474-26.278c.343-2.175 1.397-4.175 2.999-5.689s3.66-2.458 5.855-2.684l13.397-1.375 4.335 1.235c4.242 2.267 4.242 6.37 4.441 9.06.887 11.77-.199 18.899-1.949 25.858z" class="H"/><g class="C"><path opacity=".3" d="M51.151 138.842c-.169.679 10.712 2.199 10.53 2.883l-1.239 5.044-16.311-.675c-5.697-4.287-7.829-13.614-9.91-25.302l16.93 18.05z"/><path d="M92.239 141.794H76.891v3.02h15.348v-3.02z"/></g><path d="M118.804 144.814H87.972l14.178-27.044h30.832l-14.178 27.044z" class="D"/><path d="M51.307 81.908c-3.613-3.551-10.427-2.059-10.323 3.912-7.433 1.96-7.851 10.09-4.852 14.259l2.58.207.568-3.037 1.497 3.089 7.227.462 3.303-18.892z" class="C"/><path d="M57.346 95.189v11.35l-.012.3c-.044.554-.209 1.092-.483 1.576s-.652.902-1.106 1.225-.973.543-1.521.645-1.112.082-1.652-.057c-1.66-.427-3.128-1.395-4.172-2.75s-1.604-3.02-1.59-4.729l.058-7.557 10.479-.003z" class="F"/><path d="M57.346 100.094v6.442l-.012.3c-3.044-.499-6.562-4.011-7.422-7.837l7.433 1.095z" class="C"/><path d="M63.503 96.029c-.154.914-.371 1.817-.648 2.702-.909 2.873-2.54 5.266-5.458 4.85-6.864-.98-10.683-8.03-10.683-8.03l4.695-5.354 3.151-4.225 9.444 4.069a35.39 35.39 0 0 1-.5 5.988z" class="F"/><path d="M48.743 93.748c3.012-.096 5.342-1.626 6.339-5.971 0 0 7.02 6.034 10.46 2.813 2.881-2.701-2.007-8.916-10.098-9.656a11.48 11.48 0 0 0-8.195 2.494c-3.923 3.133-4.297 10.423-.632 12.946l2.128-2.626z" class="C"/><path d="M45.216 86.129c-.197-.71-.05-1.496.268-2.172a4.81 4.81 0 0 1 1.413-1.735 4.99 4.99 0 0 1 2.017-.944c.727-.168 1.488-.11 2.181.167a11.96 11.96 0 0 0-1.873.754c-.556.285-1.084.622-1.577 1.006a9.12 9.12 0 0 0-1.351 1.274 7.49 7.49 0 0 0-1.078 1.651z" fill="#ffa121"/><path d="M48.9 96.85c1.204-.481 1.708-2.047 1.125-3.498s-2.031-2.238-3.235-1.757-1.708 2.047-1.125 3.498 2.031 2.238 3.235 1.757z" class="F"/><g class="C"><path d="M47.84 95.784c.071-.472.04-.953-.091-1.412a3.85 3.85 0 0 0-.742-1.213l.101-.125a2.06 2.06 0 0 1 .636.502c.177.208.31.449.393.708a2.05 2.05 0 0 1 .088.805c-.024.271-.103.535-.23.776l-.156-.042zm11.279-1.519a.7.7 0 0 1-.479.594c-.129.042-.268.046-.399.011a.7.7 0 0 1-.461-.96.7.7 0 0 1 .259-.303c.114-.074.247-.113.383-.113a.74.74 0 0 1 .508.242.73.73 0 0 1 .189.528zm3.662.606a.62.62 0 0 1-.174.308c-.087.084-.196.141-.314.164s-.241.011-.353-.033a.62.62 0 0 1-.302-.898c.062-.103.153-.186.261-.239a.62.62 0 0 1 .35-.058c.171.03.323.127.422.268s.139.317.109.487zm-3.696-2.538c.027.361-.549.394-1.4.419s-1.441.287-1.441.06.622-.812 1.461-.954c.861-.145 1.347.046 1.38.474zm2.715.346c-.063.355.361.447.99.556s1.034.431 1.066.204-.367-.862-.974-1.092-1.007-.089-1.082.332zm-1.008 2.832a6.09 6.09 0 0 0 .524.542l.278.259c.111.096.207.207.288.329.052.082.082.176.088.273a.54.54 0 0 1-.068.287 1.04 1.04 0 0 1-.333.335 2.09 2.09 0 0 1-.772.279l-.06-.144a5.7 5.7 0 0 0 .615-.419.8.8 0 0 0 .192-.23c.033-.069.023-.092-.014-.172-.092-.144-.325-.351-.48-.557a2.37 2.37 0 0 1-.405-.703l.147-.078zm-3.498 2.535c.422.48.864.924 1.39 1.205a2.92 2.92 0 0 0 1.755.309l.043.155a2.17 2.17 0 0 1-.998.188 2.28 2.28 0 0 1-.995-.287 3.19 3.19 0 0 1-1.331-1.48l.137-.09z"/></g><g fill="#fe5b52"><path opacity=".2" d="M54.818 97.61c.941 0 1.704-.761 1.704-1.7s-.763-1.7-1.704-1.7-1.704.761-1.704 1.7.763 1.7 1.704 1.7zm8.685-1.581a20.39 20.39 0 0 1-.648 2.702 1.7 1.7 0 0 1-.379-1.518 1.7 1.7 0 0 1 .369-.717c.179-.206.405-.366.658-.467z"/></g><path d="M44.064 116.124l-9.842 4.666 3.087 7.299 10.319-4.747-3.564-7.218z" class="H"/><path d="M80.519 141.431l-.444-.229.099-.192.445.228-.101.193z" fill="#c5c5ff"/><path d="M84.6 142.445c-.318.626-2.754-.481-3.889-1.037.879.485 2.394 1.436 1.729 1.964-.54.416-1.739-.469-5.661-2.092.595.287 4.101 1.944 3.217 2.574-.962.684-5.091-.823-5.091-.823l-3.58 1.918h-4.137l-14.858.095c-.929.003-1.855-.113-2.754-.346-1.776-.463-3.426-1.316-4.83-2.496-.882-.739-1.654-1.601-2.292-2.558-.481-.726-.892-1.496-1.227-2.299l-3.914-9.255 10.319-4.748 5.383 10.9 17.756 3.847 4.956-1.235c1.066-.269 2.573.181 3.511.752 2.285 1.397 5.661 4.243 5.365 4.839z" class="F"/><path opacity=".2" d="M49.843 143.166c.001.522-.09 1.041-.269 1.531-1.776-.463-3.426-1.315-4.83-2.495a12.07 12.07 0 0 1-2.292-2.559c.667-.535 1.472-.871 2.323-.97s1.712.044 2.484.412 1.425.947 1.882 1.669.701 1.558.702 2.412z" fill="#fe5b52"/><path d="M70.742 138.011c1.227-.414 2.478-.757 3.745-1.025.639-.14 1.287-.232 1.939-.276a5.71 5.71 0 0 1 .996.026l.497.115c.166.038.311.119.467.178 1.209.547 2.26 1.327 3.279 2.13s1.978 1.678 2.911 2.586l.043.042.009.052c.039.191.004.39-.098.557a.73.73 0 0 1-.212.192c-.083.049-.175.082-.27.095-.312.039-.628.008-.926-.09a9.3 9.3 0 0 1-1.603-.671l-1.487-.852-1.44-.924.219-.347c.846.493 1.664 1.033 2.449 1.619.407.295.778.635 1.108 1.014.089.11.161.232.215.363.032.08.049.165.049.25a.48.48 0 0 1-.105.288c-.11.121-.258.203-.419.232a2.32 2.32 0 0 1-.398.058h-.04l-.045-.019-4.481-1.867.134-.314c.713.313 1.403.679 2.061 1.094.32.228.655.431.892.827.034.06.054.125.06.193s-.002.136-.024.201c-.051.121-.146.218-.265.273-.193.092-.404.142-.618.143-.802.019-1.557-.168-2.305-.353s-1.479-.431-2.206-.691l.055-.151 2.204.632c.743.177 1.501.328 2.237.288.352-.015.771-.168.599-.4-.161-.27-.493-.498-.798-.702-.646-.398-1.32-.749-2.017-1.049l.134-.313 4.499 1.833-.085-.014a2.2 2.2 0 0 0 .323-.048.41.41 0 0 0 .212-.1c.062-.025-.022-.246-.163-.413-.31-.351-.66-.667-1.042-.939-.774-.573-1.581-1.1-2.416-1.581l.218-.347 1.42.918 1.456.843a8.86 8.86 0 0 0 1.524.648c.24.081.494.111.746.088l.081-.015a.65.65 0 0 0 .06-.031c.048-.013.062-.051.094-.075.043-.08.059-.171.045-.26l.052.095-2.867-2.575c-.994-.814-2.031-1.59-3.176-2.125l-.432-.172-.447-.111a5.56 5.56 0 0 0-.939-.034 13.4 13.4 0 0 0-1.904.23c-1.265.239-2.516.552-3.745.935l-.056-.154z" fill="#d28572"/><path d="M38.827 171.582h-.54v46.398h.54v-46.398z" class="C"/><g class="E"><path d="M51.565 167.257H25.551c-1.768 0-3.201 1.429-3.201 3.192s1.433 3.191 3.201 3.191h26.014c1.768 0 3.201-1.428 3.201-3.191s-1.433-3.192-3.201-3.192zm-19.138 48.417h12.262a4.82 4.82 0 0 1 3.402 1.406 4.79 4.79 0 0 1 1.409 3.393V221H27.614v-.527a4.79 4.79 0 0 1 .366-1.837c.242-.582.596-1.111 1.043-1.557a4.82 4.82 0 0 1 1.561-1.04 4.83 4.83 0 0 1 1.842-.365z"/></g><g class="C"><path d="M70.035 147.64l-.457.288 46.115 72.889.456-.287-46.114-72.89z"/><path d="M115.694 147.647l-46.127 72.881.457.287 46.128-72.881-.457-.287z"/></g><path d="M133.257 144.814H52.459v6.077h80.798v-6.077z" class="E"/><path d="M59.233 47.928c-3.34 0-6.604-.988-9.381-2.838a16.85 16.85 0 0 1-6.219-7.557c-1.278-3.077-1.612-6.463-.961-9.729s2.26-6.267 4.621-8.622a16.9 16.9 0 0 1 8.645-4.608c3.275-.65 6.67-.316 9.756.958s5.722 3.433 7.578 6.202 2.846 6.025 2.846 9.355c-.005 4.464-1.786 8.744-4.951 11.901a16.93 16.93 0 0 1-11.933 4.938zm0-33.319c-3.268 0-6.463.966-9.181 2.777a16.49 16.49 0 0 0-6.086 7.396 16.44 16.44 0 0 0-.94 9.522c.638 3.197 2.211 6.133 4.522 8.438a16.54 16.54 0 0 0 8.461 4.51c3.206.636 6.528.309 9.548-.938s5.6-3.36 7.416-6.07a16.45 16.45 0 0 0 2.785-9.156c-.005-4.369-1.747-8.558-4.845-11.648s-7.298-4.827-11.679-4.832z" class="D"/><path d="M70.651 42.812c10.146 0 18.371-8.203 18.371-18.322S80.797 6.169 70.651 6.169s-18.372 8.203-18.372 18.322 8.225 18.322 18.372 18.322z" fill="#ebebff"/><path d="M70.658 24.838l-10.186-7.963.334-.424 9.839 7.692 5.486-4.633.349.411-5.821 4.918z" class="C"/><path d="M22.976 64.003h-9.329a2.72 2.72 0 0 0-1.922.794c-.51.508-.796 1.198-.796 1.917v9.304c0 .719.286 1.409.796 1.917a2.72 2.72 0 0 0 1.922.794h6.657l2.87 3.951v-3.961a2.72 2.72 0 0 0 1.793-.856c.468-.501.728-1.16.728-1.845v-9.304c0-.719-.286-1.409-.796-1.917a2.72 2.72 0 0 0-1.922-.794z" class="B"/><g class="D"><path d="M23.353 83.234l-3.14-4.326h-6.566c-.768-.001-1.505-.306-2.049-.847a2.89 2.89 0 0 1-.85-2.043v-9.304a2.89 2.89 0 0 1 .85-2.043 2.9 2.9 0 0 1 2.049-.847h9.329c.768.001 1.505.306 2.048.848a2.89 2.89 0 0 1 .85 2.043v9.304c-.002.7-.259 1.376-.723 1.903a2.91 2.91 0 0 1-1.798.961v4.353zm-9.707-19.051a2.55 2.55 0 0 0-1.794.742 2.53 2.53 0 0 0-.744 1.789v9.304a2.53 2.53 0 0 0 .744 1.789 2.54 2.54 0 0 0 1.794.742h6.749l2.593 3.577v-3.574l.167-.012a2.55 2.55 0 0 0 1.672-.802c.436-.468.68-1.082.682-1.721v-9.304a2.53 2.53 0 0 0-.745-1.789c-.476-.475-1.121-.742-1.794-.743h-9.325zm4.473 11.972l-3.734-5.379.887-.614 2.749 3.958 4.139-7.386.944.526-4.984 8.894z"/></g><path d="M228.599 220.461H7.266V221h221.333v-.539z" class="C"/></g><defs><clipPath id="B"><path d="M0 0h234v221H0z" class="B"/></clipPath></defs></svg>