<svg xmlns="http://www.w3.org/2000/svg" xmlns:xlink="http://www.w3.org/1999/xlink" width="490" height="307" fill="none" xmlns:v="https://vecta.io/nano"><style><![CDATA[.B{fill:#709632}.C{fill:#ff8b0d}.D{fill:#9dc11e}.E{fill:#d88d87}.F{fill:#ffeea4}.G{fill:#d0eff4}.H{fill:#fff}.I{fill:#ecb220}.J{fill:#ffb692}.K{stroke-miterlimit:10}.L{fill:#252538}.M{fill:#edcb3a}.N{fill:#54321a}]]></style><path d="M335.264 0c-19.031-.013-37.791 4.518-54.719 13.216s-31.533 21.313-42.603 36.794a52.5 52.5 0 0 1-24.471 18.754c-9.85 3.661-20.572 4.282-30.779 1.782-9.536-2.341-19.322-3.502-29.141-3.457-65.32.248-118.765 53.491-119.214 118.835-.184 25.446 7.747 50.289 22.642 70.921s35.978 35.981 60.189 43.817a119.69 119.69 0 0 0 74.447-.242c24.159-7.993 45.142-23.478 59.903-44.207 12.519-17.551 34.637-25.233 55.583-20.155 17.505 4.224 35.737 4.446 53.34.65a119.76 119.76 0 0 0 48.33-22.576c14.208-11.063 25.738-25.188 33.732-41.324s12.247-33.865 12.442-51.872C455.634 54.925 401.306 0 335.264 0z" class="G"/><path d="M142.458 161.728L88.859 69.182a6.13 6.13 0 0 0-3.754-2.882 6.13 6.13 0 0 0-2.409-.146c-.805.111-1.58.382-2.279.795L59.082 79.67l-9.101 5.427-24.032 14.318c-1.405.856-2.42 2.226-2.829 3.819s-.178 3.283.642 4.709l53.646 92.577c.401.707.94 1.326 1.583 1.822a6.11 6.11 0 0 0 2.165 1.066c.785.208 1.605.257 2.409.145s1.579-.385 2.277-.8l54.429-32.459a6.32 6.32 0 0 0 2.841-3.837c.408-1.601.173-3.299-.655-4.729z" class="C"/><path d="M26.647 98.128l54.429-32.459a6.11 6.11 0 0 1 4.686-.655 6.11 6.11 0 0 1 3.748 2.888l53.599 92.57c.823 1.424 1.056 3.114.649 4.707s-1.422 2.965-2.828 3.82l-54.428 32.467a6.12 6.12 0 0 1-2.277.794 6.11 6.11 0 0 1-2.407-.146c-.785-.207-1.521-.569-2.164-1.064s-1.183-1.112-1.586-1.817l-53.599-92.539a6.31 6.31 0 0 1 2.178-8.566z" class="M"/><path d="M50.655 83.817l9.101-5.434 59.848 103.345-9.101 5.427L50.655 83.817z" fill="#252535"/><path d="M69.943 140.456l6.45-3.845 26.9 46.436-6.458 3.846-26.893-46.437z" class="F"/><path d="M69.137 85.199l6.458-3.845 50.886 87.864-6.458 3.845-50.885-87.864zM50.772 95.834l10.279 17.745-17.458 10.411-10.272-17.745 17.45-10.411z" class="C"/><path d="M209.74 304.617h-77.856c-.284 0-.556-.113-.757-.313s-.313-.473-.313-.757v-29.109c0-.284.113-.556.313-.757s.473-.313.757-.313h77.856a5.08 5.08 0 0 1 1.943.386c.616.256 1.176.63 1.647 1.101a5.07 5.07 0 0 1 1.101 1.647c.255.616.387 1.277.387 1.944v21.093c0 .667-.132 1.328-.387 1.944a5.07 5.07 0 0 1-1.101 1.647c-.471.471-1.031.845-1.647 1.101a5.08 5.08 0 0 1-1.943.386z" class="B"/><path d="M229.655 304.617h-71.042v-31.249h71.011a5.37 5.37 0 0 1 3.799 1.573 5.37 5.37 0 0 1 1.165 1.743c.27.652.409 1.351.409 2.056v20.505c0 1.419-.562 2.781-1.563 3.788s-2.359 1.576-3.779 1.584z" class="D"/><path d="M210.677 273.369v31.249h23.676c.372 0 .674-.48.674-1.069v-29.118c0-.589-.302-1.07-.674-1.07l-23.676.008zm-10.496 0h-8.621v31.25h8.621v-31.25z" fill="#bee02f"/><g class="B"><use xlink:href="#B"/><use xlink:href="#B" y="3.541"/><use xlink:href="#B" y="7.084"/><use xlink:href="#B" y="10.627"/><use xlink:href="#B" y="14.17"/><use xlink:href="#B" y="17.72"/><use xlink:href="#B" y="21.263"/><use xlink:href="#B" y="24.806"/></g><path d="M193.77 272.855h-22.009v32.041h22.009v-32.041z" class="H"/><path d="M193.77 288.408h-22.009v16.489h22.009v-16.489z" class="G"/><path d="M196.181 273.547h-77.833c-.284 0-.556-.113-.757-.313s-.313-.473-.313-.757v-29.11a1.07 1.07 0 0 1 1.07-1.07h77.833c1.346 0 2.638.535 3.59 1.488a5.08 5.08 0 0 1 1.487 3.59v21.102c-.002 1.345-.538 2.635-1.49 3.585s-2.242 1.485-3.587 1.485z" class="B"/><path d="M216.104 273.547h-71.011v-31.25h71.011c1.425 0 2.791.567 3.799 1.574s1.573 2.374 1.573 3.799v20.505c0 1.424-.566 2.791-1.573 3.798a5.37 5.37 0 0 1-3.799 1.574z" class="D"/><path d="M197.126 242.305v31.249h23.676c.372 0 .674-.481.674-1.07v-29.109c0-.59-.302-1.07-.674-1.07h-23.676zm-10.496 0h-8.62v31.249h8.62v-31.249z" fill="#bee02f"/><g class="B"><use xlink:href="#C"/><use xlink:href="#C" y="3.551"/><use xlink:href="#C" y="7.094"/><use xlink:href="#C" y="10.637"/><use xlink:href="#C" y="14.18"/><use xlink:href="#C" y="17.723"/><use xlink:href="#C" y="21.266"/><use xlink:href="#C" y="24.807"/></g><path d="M180.211 241.785h-22.008v32.04h22.008v-32.04z" class="H"/><path d="M180.211 257.336h-22.008v16.489h22.008v-16.489z" class="G"/><path d="M489.115 304.471H.165v2.449h488.95v-2.449z" fill="#579baa"/><path d="M378.91 241.639V36.258H100.154v205.381H378.91z" fill="#98d3e5"/><path d="M384.018 236.537V31.156H105.262v205.381h278.756z" class="H"/><path d="M296.224 215.893h-68.553c0-37.606 30.947-68.553 68.553-68.553s68.553 30.947 68.553 68.553h-68.553z" fill="#e71c2e"/><path d="M296.224 215.893l-53.669-42.637a68.59 68.59 0 0 1 23.875-19.083c9.292-4.485 19.476-6.815 29.794-6.818 37.606 0 68.553 30.948 68.553 68.554l-68.553-.016z" class="C"/><path d="M296.224 215.893l.256-68.553c18.138.063 35.511 7.315 48.313 20.164a68.54 68.54 0 0 1 19.984 48.389h-68.553z" class="M"/><path d="M296.224 215.894l52.49-44.103a68.58 68.58 0 0 1 16.063 44.103h-68.553z" class="D"/><path d="M330.45 217.777l.054-1.883c.069-4.545-.767-9.058-2.459-13.276s-4.206-8.059-7.396-11.297-6.991-5.809-11.184-7.564a34.28 34.28 0 0 0-13.237-2.659c-4.545 0-9.045.904-13.238 2.659s-7.994 4.326-11.184 7.564a34.29 34.29 0 0 0-7.395 11.297 34.28 34.28 0 0 0-2.46 13.276c0 .628 0 1.256.054 1.883h68.445z" class="H"/><path d="M300.844 215.892a4.65 4.65 0 0 1-2.871 4.297c-.85.352-1.785.444-2.688.265s-1.731-.623-2.381-1.273a4.65 4.65 0 0 1-1.273-2.382c-.18-.902-.087-1.837.265-2.687a4.65 4.65 0 0 1 4.297-2.872 4.65 4.65 0 0 1 4.651 4.652z" fill="#294459"/><path d="M296.224 215.894l18.9-44.103" stroke="#294459" stroke-width="3" class="K"/><path d="M191.964 161.844h-64.212v3.876h64.212v-3.876zm-32.102 8.519h-32.11v3.876h32.11v-3.876z" class="G"/><path d="M191.964 183.953h-64.212v14.458h64.212v-14.458z" fill="#98d3e5"/><path d="M191.964 203.047h-64.212v3.876h64.212v-3.876zm-32.102 8.512h-32.11v3.876h32.11v-3.876z" class="G"/><path d="M122.309 291.857H83.587a2.46 2.46 0 0 0-2.457 2.458v7.698a2.46 2.46 0 0 0 2.457 2.457h38.723a2.46 2.46 0 0 0 2.458-2.457v-7.698a2.46 2.46 0 0 0-2.458-2.458z" class="C"/><g class="I"><path d="M111.805 291.857H73.083a2.46 2.46 0 0 0-2.457 2.458v7.698a2.46 2.46 0 0 0 2.457 2.457h38.722a2.46 2.46 0 0 0 2.458-2.457v-7.698a2.46 2.46 0 0 0-2.458-2.458z"/><path d="M90.804 304.47v-12.613H73.083a2.46 2.46 0 0 0-1.74.723 2.46 2.46 0 0 0-.532.8c-.123.299-.186.619-.185.943v7.69a2.46 2.46 0 0 0 2.457 2.457h17.722z"/></g><g class="F"><path d="M97.711 291.857h-4.481v12.613h4.481v-12.613z"/><use xlink:href="#D"/></g><use xlink:href="#E" class="C"/><g class="I"><use xlink:href="#E" x="-10.497"/><path d="M142.667 304.47v-12.613h-17.691a2.46 2.46 0 0 0-.942.188 2.45 2.45 0 0 0-.798.535 2.46 2.46 0 0 0-.532.8c-.123.299-.186.619-.185.943v7.69a2.46 2.46 0 0 0 2.457 2.457h17.691z"/></g><g class="F"><path d="M149.574 291.857h-4.481v12.613h4.481v-12.613z"/><use xlink:href="#D" x="51.863"/></g><path d="M140.853 279.244H102.13a2.46 2.46 0 0 0-2.457 2.458v7.698a2.46 2.46 0 0 0 2.457 2.457h38.723a2.46 2.46 0 0 0 2.457-2.457v-7.698a2.46 2.46 0 0 0-2.457-2.458z" class="C"/><g class="I"><path d="M130.356 279.244H91.634a2.46 2.46 0 0 0-2.457 2.458v7.698a2.46 2.46 0 0 0 2.457 2.457h38.722a2.46 2.46 0 0 0 2.458-2.457v-7.698a2.46 2.46 0 0 0-2.458-2.458z"/><path d="M109.355 291.857v-12.613H91.641c-.323 0-.644.064-.942.188a2.46 2.46 0 0 0-1.33 1.335 2.45 2.45 0 0 0-.185.942v7.691a2.46 2.46 0 0 0 .72 1.737c.461.461 1.086.72 1.738.72h17.714z"/></g><g class="F"><path d="M116.263 279.244h-4.481v12.613h4.481v-12.613z"/><use xlink:href="#D" x="18.552" y="-12.613"/></g><path d="M153.008 266.639h-38.722a2.46 2.46 0 0 0-2.458 2.457v7.698a2.46 2.46 0 0 0 2.458 2.458h38.722a2.46 2.46 0 0 0 2.458-2.458v-7.698a2.46 2.46 0 0 0-2.458-2.457z" class="C"/><g class="I"><use xlink:href="#F"/><path d="M121.511 279.244v-12.566h-17.722a2.46 2.46 0 0 0-1.738.72c-.46.46-.719 1.085-.719 1.737v7.621a2.46 2.46 0 0 0 2.457 2.457l17.722.031z"/></g><g class="F"><path d="M128.418 266.639h-4.48v12.613h4.48v-12.613z"/><use xlink:href="#D" x="30.707" y="-25.218"/></g><path d="M151.373 254.027H112.65a2.46 2.46 0 0 0-2.457 2.458v7.698a2.46 2.46 0 0 0 2.457 2.457h38.723a2.46 2.46 0 0 0 2.457-2.457v-7.698a2.46 2.46 0 0 0-2.457-2.458z" class="C"/><g class="I"><use xlink:href="#G"/><path d="M119.876 266.679v-12.652h-17.722a2.46 2.46 0 0 0-2.457 2.458v7.69c0 .653.259 1.278.719 1.741s1.086.722 1.738.724l17.722.039z"/></g><g class="F"><path d="M126.782 254.027h-4.481v12.613h4.481v-12.613z"/><use xlink:href="#D" x="29.063" y="-37.83"/></g><use xlink:href="#E" x="-15.9" y="-50.443" class="C"/><g class="I"><use xlink:href="#G" x="6.884" y="-12.613"/><path d="M126.76 254.027v-12.613h-17.714c-.324-.001-.644.062-.943.185a2.46 2.46 0 0 0-1.335 1.33 2.46 2.46 0 0 0-.187.943v7.69a2.46 2.46 0 0 0 .187.943 2.47 2.47 0 0 0 .535.8c.229.229.5.41.799.534s.62.188.944.188h17.714z"/></g><g class="F"><path d="M133.667 241.414h-4.481v12.613h4.481v-12.613z"/><use xlink:href="#D" x="35.955" y="-50.443"/></g><use xlink:href="#F" x="1.907" y="-37.838" class="C"/><g class="I"><path d="M133.923 228.801H95.2a2.46 2.46 0 0 0-2.457 2.457v7.698a2.46 2.46 0 0 0 2.457 2.458h38.723a2.46 2.46 0 0 0 2.457-2.458v-7.698a2.46 2.46 0 0 0-2.457-2.457z"/><path d="M112.922 241.414v-12.613H95.2a2.45 2.45 0 0 0-.941.187 2.44 2.44 0 0 0-.797.533c-.228.228-.409.499-.533.797s-.187.618-.187.94v7.69c-.001.324.062.644.185.943a2.46 2.46 0 0 0 1.33 1.335 2.46 2.46 0 0 0 .942.188h17.722z"/></g><path d="M119.829 228.801h-4.48v12.613h4.48v-12.613zm4.721 0h-2.365v12.613h2.365v-12.613z" class="F"/><path d="M399.15 171.977V304.308" stroke="#33334d" stroke-width="15" class="K"/><path d="M391.034 289.509l.077 2.822s-10.69.155-13.334 12.14h29.382l-.466-15.078-15.659.116z" class="L"/><path d="M414.159 149.635h-11.101c-8.221 0-14.885 6.664-14.885 14.884s6.664 14.884 14.885 14.884h11.101c8.22 0 14.884-6.663 14.884-14.884s-6.664-14.884-14.884-14.884z" fill="#33334d"/><path d="M417.322 171.977V304.308" stroke="#33334d" stroke-width="15" class="K"/><path d="M409.213 289.439l.07 2.891s-10.691.155-13.334 12.14h29.381l-.465-15.148-15.652.117z" fill="#2c2c42"/><path d="M407.299 94.578h.364c5.28 0 10.344 2.097 14.077 5.831a19.91 19.91 0 0 1 5.831 14.077v47.475h-40.188v-47.498a19.91 19.91 0 0 1 19.916-19.885z" class="H"/><path d="M402.926 130.75c1.264 3.52 4.931 11.257 4.931 11.257 1.878-3.571 3.52-7.261 4.914-11.047l-5.062-23.552-4.783 23.342z" class="M"/><path d="M436.401 101.67l-19.381-8.24c1.279 4 6.807 17.233-9.194 41.932-15.396-22.683-10.458-37.932-9.194-41.932l-19.381 8.24s-.186 15.505 6.977 35.94l-.085 29.769h18.132l3.101-3.427 3.706 3.427h18.404l-.085-29.769c7.217-20.458 7-35.94 7-35.94z" class="L"/><path d="M413.469 103.153c-.737-.74-1.613-1.326-2.578-1.726a7.92 7.92 0 0 0-3.042-.607c-1.045 0-2.078.206-3.043.607s-1.84.986-2.578 1.726l5.621 5.62 5.62-5.62z" class="M"/><path d="M416.904 96.128c0-20.807-4.063-9.993-9.078-9.993s-9.071-9.473-9.071 9.993c0 7.287 4.063 6.659 9.071 6.659s9.078.659 9.078-6.659z" class="J"/><path d="M398.941 90.081c.853-11.14 4.512-3.876 8.884-3.876 4.853 0 8.814-10.14 9.062 8.101-7.752 2.496-13.768-.442-17.946-4.225z" class="E"/><path d="M419.873 98.199c-1.249-4.093-3.024-5.341-3.024-5.341a13.96 13.96 0 0 1-9 7.055c-1.914-.474-3.705-1.347-5.256-2.563a13.95 13.95 0 0 1-3.745-4.492s-1.775 1.248-3.023 5.341 2.016 9.194 2.016 9.194l10.008-4.566 10.008 4.566s3.256-5.062 2.016-9.194z" fill="#e8e8f9"/><path d="M413.526 78.489c10.446-3.305 16.234-14.453 12.929-24.899s-14.453-16.234-24.899-12.928-16.234 14.453-12.929 24.899 14.454 16.234 24.899 12.928z" class="N"/><path d="M426.15 66.034l-37.311-.267a2.67 2.67 0 0 0-2.686 2.648l-.003.496c-.011 1.473 1.175 2.675 2.648 2.686l37.31.267c1.473.011 2.676-1.175 2.686-2.648l.004-.496a2.67 2.67 0 0 0-2.648-2.686z" class="E"/><path d="M427.301 69.063l.002-.233a1.27 1.27 0 0 0-1.263-1.28l-37.047-.259a1.27 1.27 0 0 0-1.28 1.263l-.002.233a1.27 1.27 0 0 0 1.263 1.28l37.047.259a1.27 1.27 0 0 0 1.28-1.263z" fill="#aa635f"/><use xlink:href="#H" class="L"/><use xlink:href="#I" fill="#ff9292"/><use xlink:href="#J" fill="#ffabab"/><use xlink:href="#K" class="H"/><use xlink:href="#L" class="E"/><path d="M407.314 91.686a16.28 16.28 0 0 1-6.221-1.284c-1.97-.832-3.756-2.044-5.257-3.567s-2.687-3.326-3.491-5.307-1.21-4.101-1.195-6.239l.132-18.078a15.6 15.6 0 0 1 1.227-5.966 15.61 15.61 0 0 1 3.418-5.042c1.459-1.44 3.188-2.578 5.087-3.35s3.932-1.161 5.982-1.147h1.341c2.05.013 4.077.43 5.966 1.227s3.602 1.958 5.042 3.417a15.61 15.61 0 0 1 3.35 5.087 15.62 15.62 0 0 1 1.147 5.982l-.124 18.078a16.3 16.3 0 0 1-1.278 6.23c-.831 1.973-2.044 3.762-3.567 5.265s-3.329 2.692-5.312 3.497-4.107 1.211-6.247 1.195z" class="J"/><use xlink:href="#H" class="L"/><use xlink:href="#I" fill="#ff9292"/><use xlink:href="#J" fill="#ffabab"/><use xlink:href="#K" class="H"/><path d="M398.515 64.84a1.91 1.91 0 0 0-1.772 1.164 1.91 1.91 0 0 0 .4 2.083c.265.269.604.452.974.528a1.9 1.9 0 0 0 1.103-.103 1.91 1.91 0 0 0 .86-.699c.211-.313.325-.681.326-1.059a1.91 1.91 0 0 0-1.891-1.915zm14.435.102c-.378-.003-.747.106-1.062.313a1.91 1.91 0 0 0-.71.85c-.147.347-.188.73-.117 1.101a1.9 1.9 0 0 0 .514.981 1.91 1.91 0 0 0 2.936-.265 1.91 1.91 0 0 0 .191-1.788c-.094-.232-.233-.444-.408-.622a1.91 1.91 0 0 0-.616-.418 1.9 1.9 0 0 0-.728-.151z" class="L"/><path d="M405.963 64.927l-.473-.003c-1.366-.01-2.481 1.09-2.49 2.455l-.035 4.876c-.01 1.366 1.089 2.481 2.455 2.491l.473.003c1.366.01 2.481-1.09 2.49-2.455l.035-4.876c.01-1.366-1.089-2.481-2.455-2.491z" class="E"/><path d="M416.159 61.468l-3.294-1.07a1.38 1.38 0 0 0-1.645.916c-.107.332-.084.693.064 1.01a1.38 1.38 0 0 0 .736.695l3.294 1.062c.347.112.724.082 1.048-.084a1.37 1.37 0 0 0-.203-2.529zm-17.528-1.171l-3.31 1.016a1.37 1.37 0 0 0-.854 1.68 1.37 1.37 0 0 0 1.629.948l3.311-1.016a1.38 1.38 0 0 0 .503-.233c.15-.111.275-.252.369-.413a1.36 1.36 0 0 0 .176-.525c.022-.185.007-.373-.046-.552a1.38 1.38 0 0 0-.261-.489 1.37 1.37 0 0 0-.968-.492 1.37 1.37 0 0 0-.549.077z" class="N"/><use xlink:href="#L" class="E"/><path d="M407.113 73.182a.72.72 0 0 1-.714-.721l.039-5.093c.001-.093.021-.186.058-.271a.69.69 0 0 1 .157-.228.7.7 0 0 1 .233-.15c.087-.034.18-.051.273-.048a.72.72 0 0 1 .713.721v5.085c-.002.097-.023.192-.063.28a.71.71 0 0 1-.167.233.72.72 0 0 1-.529.192z" fill="#f79c97"/><g class="N"><path d="M420.02 44.188a9.56 9.56 0 0 0-4.175 4.559c-.848 1.94-1.029 4.107-.512 6.16a9.56 9.56 0 0 0 9.199 7.227 9.68 9.68 0 0 0 2.736-.38l.116-2.008c.023-2.98-.628-5.927-1.903-8.621a19.82 19.82 0 0 0-5.461-6.937zm-24.66-.217c1.845 1.04 3.292 2.664 4.114 4.616a9.55 9.55 0 0 1 .428 6.169c-.544 2.047-1.754 3.855-3.437 5.14a9.56 9.56 0 0 1-5.865 1.96 9.31 9.31 0 0 1-2.729-.426 19.23 19.23 0 0 1-.085-2.008c.018-2.979.709-5.916 2.02-8.591a19.8 19.8 0 0 1 5.554-6.859z"/><path d="M407.05 57.475l10.853.078a15.91 15.91 0 0 0-4.579-11.278c-2.961-3.003-6.994-4.708-11.212-4.739l-10.853-.077c-.015 2.089.381 4.16 1.166 6.095s1.945 3.697 3.411 5.185a15.91 15.91 0 0 0 5.136 3.484 15.9 15.9 0 0 0 6.078 1.252z"/><path d="M408.818 53.413l8.419 2.504a12.85 12.85 0 0 0-8.636-15.97l-8.419-2.496a12.84 12.84 0 0 0 8.636 15.962z"/><path d="M410.539 52.823l7.364 4.729a12.82 12.82 0 0 0 1.832-4.661c.298-1.659.266-3.361-.094-5.007s-1.041-3.206-2.004-4.59-2.19-2.563-3.61-3.471l-7.364-4.737a12.83 12.83 0 0 0-1.833 4.663c-.298 1.66-.266 3.362.094 5.009s1.041 3.208 2.004 4.591a12.84 12.84 0 0 0 3.611 3.474z"/></g><path d="M417.942 43.738c-5.318 4.209-14.466 9.031-25.187 4.582 1.246 2.646 3.193 4.9 5.628 6.52 7.023 1.178 15.504-1.178 21.443-5.892a12.96 12.96 0 0 0-1.884-5.209z" fill="#875330"/><path d="M435.943 165.038l-75.934-34.118-15.124 34.156 75.925 34.118 15.133-34.156z" class="B"/><path d="M361.421 134.58l-12.877 29.087 70.856 31.869 12.884-29.086-70.863-31.87z" class="D"/><path d="M362.839 138.238l-10.636 24.009 65.785 29.629 10.629-24.016-65.778-29.622z" class="B"/><path d="M419.12 182.464c-.755-.335-1.568-.518-2.394-.539a6.28 6.28 0 0 0-2.418.419c-.77.298-1.475.744-2.072 1.314s-1.077 1.252-1.411 2.008l-49.219-22.28c.335-.755.519-1.568.539-2.394a6.28 6.28 0 0 0-1.733-4.49c-.57-.598-1.252-1.077-2.008-1.411l3.295-7.442c1.525.673 3.254.714 4.809.114s2.809-1.793 3.486-3.316l49.219 22.28c-.335.755-.519 1.568-.539 2.394a6.28 6.28 0 0 0 .419 2.418c.297.771.744 1.475 1.314 2.073s1.252 1.077 2.008 1.41l-3.295 7.442z" class="D"/><g class="B"><path d="M383.049 161.899a8.18 8.18 0 0 0-.581 4.713 8.19 8.19 0 0 0 2.135 4.241c1.115 1.171 2.553 1.986 4.132 2.34s3.226.233 4.735-.349 2.812-1.599 3.743-2.922 1.45-2.891 1.489-4.508-.401-3.21-1.266-4.576-2.117-2.446-3.596-3.102a8.18 8.18 0 0 0-6.256-.15 8.19 8.19 0 0 0-4.535 4.313z"/><path d="M443.788 167.256l-69.716-45.483-20.241 31.397 69.716 45.483 20.241-31.397z"/></g><path d="M374.902 125.609l-17.241 26.73 65.057 42.475 17.241-26.73-65.057-42.475z" class="D"/><path d="M375.731 129.439l-14.233 22.071 60.39 39.467 14.234-22.063-60.391-39.475z" class="B"/><path d="M424.47 181.86a6.29 6.29 0 0 0-4.732-.865c-1.63.35-3.054 1.333-3.959 2.733l-45.164-29.645a6.27 6.27 0 0 0 .903-2.281 6.25 6.25 0 0 0-.039-2.453 6.28 6.28 0 0 0-2.74-3.956l4.411-6.837c.694.447 1.469.753 2.282.9a6.29 6.29 0 0 0 2.453-.042c.807-.175 1.572-.507 2.25-.978a6.28 6.28 0 0 0 1.705-1.764l45.165 29.652c-.451.693-.76 1.468-.91 2.281a6.28 6.28 0 0 0 .034 2.455 6.29 6.29 0 0 0 2.736 3.962l-4.395 6.838z" class="D"/><g class="B"><path d="M392.026 155.951a8.18 8.18 0 0 0-1.295 4.567 8.17 8.17 0 0 0 1.46 4.517c.922 1.328 2.218 2.353 3.722 2.946s3.152.725 4.732.381 3.023-1.147 4.146-2.31a8.18 8.18 0 0 0 1.619-8.94 8.18 8.18 0 0 0-3.073-3.618 8.19 8.19 0 0 0-6.165-1.116c-1.051.228-2.046.661-2.929 1.274a8.2 8.2 0 0 0-2.217 2.299z"/><path d="M451.215 170.442l-60.879-56.77-25.334 27.458 60.886 56.762 25.327-27.45z"/></g><path d="M390.491 117.594l-21.566 23.373 56.801 53.01 21.566-23.381-56.801-53.002z" class="D"/><path d="M390.647 121.508l-17.8 19.303 52.724 49.242 17.807-19.295-52.731-49.25z" class="B"/><path d="M429.64 181.511a6.3 6.3 0 0 0-2.094-1.278 6.29 6.29 0 0 0-2.423-.379 6.27 6.27 0 0 0-2.385.576 6.29 6.29 0 0 0-1.982 1.446l-39.405-36.963c1.131-1.225 1.729-2.85 1.662-4.516a6.29 6.29 0 0 0-2.018-4.368l5.519-5.977a6.29 6.29 0 0 0 4.516 1.662c1.666-.067 3.238-.793 4.368-2.019l39.436 36.979c-1.131 1.225-1.728 2.849-1.661 4.516a6.28 6.28 0 0 0 2.018 4.368l-5.551 5.953z" class="D"/><path d="M402.158 150.393a8.18 8.18 0 0 0-2.067 4.275c-.251 1.597-.023 3.234.655 4.702s1.778 2.702 3.158 3.546 2.979 1.259 4.595 1.194a8.18 8.18 0 0 0 4.485-1.559 8.19 8.19 0 0 0 2.862-3.789 8.18 8.18 0 0 0 .275-4.74c-.379-1.572-1.215-2.997-2.404-4.094-.789-.728-1.715-1.294-2.723-1.665a8.18 8.18 0 0 0-3.153-.497c-1.073.044-2.127.298-3.102.749s-1.852 1.089-2.581 1.878z" class="B"/><path d="M412.586 172.1c1.752-5.279-6.256-6.395-6.256-6.395l-3.877-4.078s-3.48 3.644.721 6.442c0 0-4.946.884-8.318-.775-4.124-2.023-2.636 8.698.775 11.907 1.838 1.745 4.962-.356 8.117.225 4.287.775 10.52-1.085 8.838-7.326z" class="J"/><path d="M402.592 173.844l.07.403s-5.194 1.55-9.597.465l-.217-.713c1.729.612 5.008 1.201 9.744-.155zm.303 3.024s-4.651 1.473-8.31 1.163a6.97 6.97 0 0 1-.396-.659c2.913.259 5.848-.06 8.636-.938l.07.434zm-.565-5.814s-5.249 1.768-10.04-.542a8.64 8.64 0 0 1 0-.992c3.086 1.532 6.6 1.975 9.97 1.255l.07.279z" class="E"/><path d="M410.64 171.976c52.568-11.629 20.156-65.988 20.156-65.988" stroke="#252538" stroke-width="16" class="K"/><g class="J"><path d="M337.295 80.113l-.775 1.163a7.03 7.03 0 0 1-9.729 2.047c-.774-.504-1.441-1.155-1.963-1.917s-.888-1.619-1.078-2.523a7.02 7.02 0 0 1-.029-2.744c.17-.907.518-1.772 1.023-2.545l.776-1.163c.504-.774 1.156-1.441 1.919-1.963a7.03 7.03 0 0 1 5.27-1.108c.908.171 1.774.519 2.547 1.024a7.03 7.03 0 0 1 3.034 4.442c.382 1.824.024 3.726-.995 5.287z"/><path d="M338.644 76.934l4.155-12.404a1.62 1.62 0 0 0 .061-.758 1.61 1.61 0 0 0-.292-.702 1.62 1.62 0 0 0-1.319-.665 4.87 4.87 0 0 0-3.006 1.243c-.83.747-1.378 1.756-1.552 2.858-.907 4.279-7.032 1.69-6.101 8.528.635 4.582 3.876 4.543 5.868 4.023.516-.136.989-.403 1.372-.775s.663-.837.814-1.349zm-11.73 3.69c-.227.43-.616.753-1.08.898s-.968.101-1.4-.123l-6.442-3.799c-.431-.228-.754-.616-.899-1.081s-.101-.968.123-1.4a1.83 1.83 0 0 1 1.08-.901 1.84 1.84 0 0 1 .713-.076c.241.022.474.09.688.203l6.435 3.806a1.82 1.82 0 0 1 .559.447c.155.185.273.397.346.627s.099.472.078.712a1.82 1.82 0 0 1-.201.687z"/></g><path d="M322.109 75.785l3.488 1.767.876.481a2.12 2.12 0 0 1 .775.837c.171.345.244.729.213 1.112a2.13 2.13 0 0 1-.389 1.063c-.224.313-.528.559-.881.712s-.74.208-1.121.159c-.364-.053-.71-.194-1.008-.411l-.822-.527-3.248-2.202 3.489 1.775.86.465a1.81 1.81 0 0 0 .775.295 1.55 1.55 0 0 0 .788-.135c.246-.113.458-.288.616-.509a1.51 1.51 0 0 0 .286-.756c.024-.273-.026-.548-.147-.795a1.48 1.48 0 0 0-.504-.628l-.775-.512c-1.171-.674-2.217-1.419-3.271-2.194z" class="E"/><path d="M328.319 77.267a1.83 1.83 0 0 1-.451.558c-.185.155-.399.271-.629.343a1.84 1.84 0 0 1-.713.076c-.241-.022-.474-.091-.688-.203l-6.435-3.799a1.85 1.85 0 0 1-.901-1.08 1.83 1.83 0 0 1-.076-.713c.021-.24.09-.474.202-.688a1.84 1.84 0 0 1 .45-.558 1.85 1.85 0 0 1 .63-.343c.23-.072.473-.098.713-.076a1.84 1.84 0 0 1 .688.203l6.434 3.806a1.83 1.83 0 0 1 .558.448 1.82 1.82 0 0 1 .343.628 1.84 1.84 0 0 1 .077.711c-.022.24-.091.473-.202.686z" class="J"/><path d="M323.512 72.398l3.496 1.768.868.481c.331.203.599.492.776.837.17.345.243.729.212 1.112a2.13 2.13 0 0 1-.389 1.063c-.224.313-.528.559-.881.712s-.74.208-1.121.159c-.364-.053-.71-.194-1.008-.411l-.821-.527-3.249-2.202 3.489 1.775.86.465a1.81 1.81 0 0 0 .776.295 1.55 1.55 0 0 0 1.403-.643c.159-.222.256-.483.282-.755s-.02-.547-.135-.795a1.55 1.55 0 0 0-.511-.628l-.776-.512c-1.132-.674-2.217-1.419-3.271-2.194z" class="E"/><path d="M329.636 73.764c-.227.43-.616.753-1.081.899s-.967.101-1.4-.123l-6.442-3.806c-.43-.228-.753-.616-.898-1.081s-.101-.968.123-1.4.616-.753 1.081-.899.968-.101 1.4.123l6.442 3.845c.422.226.739.608.883 1.063s.106.951-.108 1.378z" class="J"/><path d="M324.791 68.895l3.488 1.76.876.488a2.01 2.01 0 0 1 .775.837c.171.344.245.728.214 1.112s-.165.751-.389 1.063-.529.558-.882.71-.74.206-1.121.154a2.33 2.33 0 0 1-1.008-.403l-.822-.535-3.248-2.194 3.489 1.775.86.457c.229.163.496.265.775.294.339.033.68-.046.97-.225s.512-.449.633-.768.133-.668.035-.994a1.55 1.55 0 0 0-.575-.811l-.776-.512-3.294-2.209z" class="E"/><path d="M332.527 71.322c-.226.43-.613.753-1.076.898s-.966.101-1.396-.123l-6.443-3.799a1.83 1.83 0 0 1-.904-1.079c-.072-.231-.098-.473-.076-.714s.092-.475.205-.688.262-.405.447-.56a1.82 1.82 0 0 1 1.34-.42 1.82 1.82 0 0 1 .686.205l6.442 3.799c.214.112.404.265.558.45s.272.399.344.63a1.83 1.83 0 0 1 .076.713c-.022.24-.09.474-.203.688z" class="J"/><path d="M327.729 66.467l3.489 1.76.876.481c.328.205.596.494.775.837a2.14 2.14 0 0 1 .21 1.114c-.031.383-.166.751-.388 1.065-.228.31-.534.554-.886.707s-.741.208-1.122.162a2.24 2.24 0 0 1-1-.411l-.822-.527-3.24-2.202 3.488 1.775.853.465a1.77 1.77 0 0 0 .775.295 1.55 1.55 0 0 0 .792-.133c.247-.113.461-.289.619-.511a1.51 1.51 0 0 0 .286-.756c.025-.273-.026-.548-.146-.795-.112-.249-.285-.465-.504-.628l-.814-.512-3.241-2.186z" class="E"/><path d="M383.793 106.493c-23.257 12.729-45.079 13.078-51.94-24.272" stroke="#252538" stroke-width="16" class="K"/><path d="M126.341 286.276l-88.105 20.528a5.78 5.78 0 0 1-2.265.087c-.753-.121-1.475-.39-2.124-.791s-1.212-.928-1.656-1.548a5.77 5.77 0 0 1-.933-2.066L1.498 174.636c-.177-.742-.206-1.511-.084-2.264a5.78 5.78 0 0 1 .792-2.123c.401-.649.927-1.211 1.547-1.656s1.321-.762 2.064-.934l88.151-20.497a5.78 5.78 0 0 1 2.265-.087c.753.121 1.475.39 2.124.791a5.79 5.79 0 0 1 1.656 1.548c.444.62.761 1.322.932 2.066l29.792 127.85a5.77 5.77 0 0 1-.746 4.392 5.79 5.79 0 0 1-3.649 2.554z" fill="#252535"/><path d="M103.983 144.803l-91.082 21.229c-2.289.534-3.712 2.822-3.179 5.111l30.492 130.825a4.26 4.26 0 0 0 5.111 3.179l91.082-21.229c2.289-.534 3.712-2.822 3.178-5.111l-30.492-130.825c-.533-2.289-2.821-3.713-5.111-3.179z" fill="#43415b"/><path d="M103.044 156.156l-84.287 19.645 4.119 17.674 84.288-19.645-4.12-17.674z" fill="#fffffd"/><path d="M103.048 156.156l-84.287 19.645 1 4.288 84.287-19.645-1-4.288z" class="G"/><g fill="#1c77b5"><use xlink:href="#M"/><path d="M58.747 194.683l-6.652 1.55a4.97 4.97 0 0 0-3.711 5.968l1.55 6.651a4.97 4.97 0 0 0 5.967 3.712l6.651-1.55a4.97 4.97 0 0 0 3.712-5.968l-1.55-6.651a4.97 4.97 0 0 0-5.967-3.712z"/><use xlink:href="#N"/><use xlink:href="#O"/><path d="M64.22 218.156l-6.652 1.55a4.97 4.97 0 0 0-3.712 5.967l1.55 6.652a4.97 4.97 0 0 0 5.968 3.711l6.651-1.55a4.97 4.97 0 0 0 3.712-5.967l-1.55-6.652a4.97 4.97 0 0 0-5.968-3.711zm22.265-5.192l-6.651 1.551a4.97 4.97 0 0 0-3.712 5.967l1.55 6.652a4.97 4.97 0 0 0 5.968 3.711l6.651-1.55a4.97 4.97 0 0 0 3.712-5.968l-1.55-6.651a4.97 4.97 0 0 0-5.968-3.712z"/><use xlink:href="#N" x="-33.585" y="57.33"/><path d="M69.693 241.634l-6.651 1.551a4.97 4.97 0 0 0-3.712 5.967l1.55 6.651a4.97 4.97 0 0 0 5.967 3.712l6.651-1.55a4.97 4.97 0 0 0 3.712-5.968l-1.55-6.651a4.97 4.97 0 0 0-5.967-3.712z"/><use xlink:href="#P"/><path d="M114.647 231.154l-6.651 1.55a4.97 4.97 0 0 0-3.712 5.968l1.551 6.651a4.97 4.97 0 0 0 5.967 3.712l6.652-1.551a4.97 4.97 0 0 0 3.711-5.967l-1.55-6.652a4.97 4.97 0 0 0-5.968-3.711zm-61.745 39.152l-6.651 1.55a4.97 4.97 0 0 0-3.712 5.968l1.55 6.651a4.97 4.97 0 0 0 5.967 3.712l6.651-1.55a4.97 4.97 0 0 0 3.712-5.968l-1.55-6.651a4.97 4.97 0 0 0-5.967-3.712z"/><use xlink:href="#P" x="-16.801" y="28.662"/><path d="M97.432 259.917l-6.651 1.551a4.97 4.97 0 0 0-3.712 5.967l1.55 6.652a4.97 4.97 0 0 0 5.968 3.711l6.651-1.55a4.97 4.97 0 0 0 3.712-5.968l-1.551-6.651a4.97 4.97 0 0 0-5.967-3.712zm22.69-5.285l-6.652 1.551a4.97 4.97 0 0 0-3.711 5.967l1.55 6.652a4.97 4.97 0 0 0 5.967 3.711l6.652-1.55a4.97 4.97 0 0 0 3.711-5.968l-1.55-6.651a4.97 4.97 0 0 0-5.967-3.712z"/></g><g class="G"><path d="M38.422 199.421l-6.651 1.551a4.97 4.97 0 0 0-3.711 5.967l1.55 6.652a4.97 4.97 0 0 0 5.967 3.711l6.651-1.55a4.97 4.97 0 0 0 3.712-5.968l-1.55-6.651a4.97 4.97 0 0 0-5.967-3.712zm22.266-5.189l-6.652 1.55a4.97 4.97 0 0 0-3.712 5.968l1.55 6.651a4.97 4.97 0 0 0 5.968 3.712l6.651-1.551a4.97 4.97 0 0 0 3.712-5.967l-1.55-6.652a4.97 4.97 0 0 0-5.968-3.711z"/><use xlink:href="#M" x="46.47" y="-10.832"/><use xlink:href="#O" x="1.938" y="-0.459"/><path d="M66.16 217.705l-6.651 1.55a4.97 4.97 0 0 0-3.712 5.967l1.55 6.652a4.97 4.97 0 0 0 5.967 3.711l6.652-1.55a4.97 4.97 0 0 0 3.712-5.967l-1.55-6.652a4.97 4.97 0 0 0-5.967-3.711z"/><use xlink:href="#P" x="-3.541" y="-23.924"/><use xlink:href="#N" x="-31.644" y="56.879"/><use xlink:href="#O" x="29.671" y="17.832"/><path d="M93.89 235.996l-6.651 1.55a4.97 4.97 0 0 0-3.712 5.967l1.55 6.652a4.97 4.97 0 0 0 5.968 3.711l6.652-1.55a4.97 4.97 0 0 0 3.711-5.967l-1.55-6.652a4.97 4.97 0 0 0-5.968-3.711zm22.698-5.295l-6.652 1.55a4.97 4.97 0 0 0-3.711 5.967l1.55 6.652a4.97 4.97 0 0 0 5.967 3.711l6.652-1.55a4.97 4.97 0 0 0 3.711-5.967l-1.55-6.652a4.97 4.97 0 0 0-5.967-3.711z"/><use xlink:href="#Q"/><path d="M77.099 264.656l-6.652 1.55a4.97 4.97 0 0 0-3.712 5.967l1.55 6.652a4.97 4.97 0 0 0 5.967 3.711l6.651-1.55a4.97 4.97 0 0 0 3.712-5.967l-1.55-6.652a4.97 4.97 0 0 0-5.967-3.711z"/><use xlink:href="#Q" x="44.532" y="-10.371"/><path d="M122.054 254.183l-6.652 1.55a4.97 4.97 0 0 0-3.711 5.968l1.55 6.651a4.97 4.97 0 0 0 5.967 3.712l6.652-1.55a4.97 4.97 0 0 0 3.711-5.968l-1.55-6.651a4.97 4.97 0 0 0-5.967-3.712z"/></g><path d="M107.331 183.358l-12.427 2.896a2.76 2.76 0 0 0-2.061 3.315l8.026 34.435a2.76 2.76 0 0 0 3.314 2.061l12.427-2.896a2.76 2.76 0 0 0 2.061-3.315l-8.026-34.435a2.76 2.76 0 0 0-3.314-2.061z" fill="#ad1e58"/><path d="M109.271 182.907l-12.427 2.896a2.76 2.76 0 0 0-2.061 3.314l8.026 34.436a2.76 2.76 0 0 0 3.315 2.061l12.427-2.897a2.76 2.76 0 0 0 2.061-3.314l-8.026-34.435a2.76 2.76 0 0 0-3.314-2.061z" fill="#e71c2e"/><path d="M133.184 90.304c-2.955 0-5.208-.831-6.759-2.493-1.552-1.699-2.327-4.118-2.327-7.258V50.969h6.094v30.028c0 1.33.258 2.29.775 2.881.555.591 1.33.886 2.327.886s1.755-.295 2.272-.886c.554-.591.831-1.551.831-2.881V50.969h5.872v29.584c0 3.139-.775 5.559-2.326 7.258-1.552 1.662-3.805 2.493-6.759 2.493zm13.426-39.335h7.645l5.928 23.213h.111V50.969h5.429V89.75h-6.26l-7.313-28.31h-.111v28.31h-5.429V50.969zm23.643 0h6.094V84.21h10.027v5.54h-16.121V50.969zm19.044 0h6.094V89.75h-6.094V50.969zm10.658 0h8.698l3.878 27.756h.111l3.878-27.756h8.698V89.75h-5.762V60.387h-.11l-4.432 29.363h-5.097l-4.432-29.363h-.111V89.75h-5.319V50.969zm29.811 0h6.094V89.75h-6.094V50.969zm15.423 5.54h-6.371v-5.54h18.836v5.54h-6.371V89.75h-6.094V56.509zm15.416-5.54h16.62v5.54h-10.526v10.249h8.365v5.54h-8.365V84.21h10.526v5.54h-16.62V50.969zm20.126 0h9.307c3.029 0 5.3.813 6.815 2.438s2.271 4.007 2.271 7.147v19.612c0 3.139-.757 5.522-2.271 7.147s-3.786 2.438-6.815 2.438h-9.307V50.969zm9.196 33.241c.998 0 1.755-.295 2.272-.886.554-.591.831-1.551.831-2.881V60.276c0-1.33-.277-2.29-.831-2.881-.517-.591-1.274-.886-2.272-.886h-3.102V84.21h3.102zm-157.02 60.387c-2.918 0-5.153-.831-6.704-2.493-1.514-1.662-2.271-4.007-2.271-7.036v-20.831c0-3.028.757-5.374 2.271-7.036 1.551-1.662 3.786-2.493 6.704-2.493s5.133.831 6.648 2.493c1.551 1.662 2.327 4.008 2.327 7.036v4.1h-5.762v-4.488c0-2.4-1.016-3.601-3.047-3.601s-3.047 1.201-3.047 3.601v21.662c0 2.364 1.015 3.546 3.047 3.546s3.047-1.182 3.047-3.546v-5.928h5.762v5.485c0 3.029-.776 5.374-2.327 7.036-1.515 1.662-3.731 2.493-6.648 2.493zm12.621-39.335h9.03c3.139 0 5.429.739 6.87 2.216 1.44 1.441 2.161 3.675 2.161 6.704v2.382c0 4.026-1.33 6.574-3.989 7.645v.111c1.477.443 2.511 1.348 3.102 2.715.628 1.366.942 3.195.942 5.485v6.814l.111 2.715a6.72 6.72 0 0 0 .554 1.994h-6.205c-.222-.628-.37-1.219-.443-1.773s-.111-1.551-.111-2.991v-7.092c0-1.773-.296-3.01-.887-3.712-.554-.701-1.532-1.052-2.936-1.052h-2.105v16.62h-6.094v-38.781zm8.31 16.621c1.219 0 2.124-.314 2.715-.942.627-.628.941-1.681.941-3.158v-2.992c0-1.403-.258-2.419-.775-3.047-.48-.628-1.256-.942-2.327-.942h-2.77v11.081h2.216zm14.034-16.621h16.621v5.54h-10.527v10.249h8.366v5.541h-8.366v11.911h10.527v5.54h-16.621v-38.781zm20.126 0h9.308c3.028 0 5.3.813 6.814 2.438s2.272 4.007 2.272 7.147v19.612c0 3.139-.757 5.521-2.272 7.146s-3.786 2.438-6.814 2.438h-9.308v-38.781zm9.197 33.241c.997 0 1.754-.296 2.272-.887.554-.59.831-1.551.831-2.88V114.57c0-1.33-.277-2.29-.831-2.881-.518-.591-1.275-.887-2.272-.887h-3.102v27.701h3.102zm13.31-33.241h6.094v38.781h-6.094v-38.781zm15.423 5.54h-6.371v-5.54h18.836v5.54h-6.371v33.241h-6.094v-33.241zm23.338 33.795c-2.954 0-5.189-.831-6.703-2.493-1.515-1.699-2.272-4.118-2.272-7.258v-2.216h5.762v2.66c0 2.511 1.053 3.767 3.158 3.767 1.034 0 1.81-.296 2.327-.886.554-.628.831-1.626.831-2.992 0-1.625-.37-3.047-1.108-4.266-.739-1.256-2.106-2.752-4.1-4.488-2.511-2.216-4.266-4.21-5.263-5.983-.997-1.81-1.496-3.841-1.496-6.094 0-3.066.776-5.429 2.327-7.091 1.551-1.699 3.804-2.549 6.759-2.549 2.918 0 5.115.85 6.593 2.549 1.514 1.662 2.271 4.062 2.271 7.202v1.606h-5.762v-1.994c0-1.33-.258-2.29-.775-2.881-.517-.628-1.274-.942-2.272-.942-2.031 0-3.047 1.238-3.047 3.712 0 1.404.37 2.715 1.108 3.934.776 1.218 2.161 2.696 4.155 4.432 2.549 2.216 4.303 4.229 5.263 6.038s1.441 3.934 1.441 6.372c0 3.176-.794 5.614-2.382 7.313-1.552 1.699-3.823 2.548-6.815 2.548z" class="D"/><defs ><path id="B" d="M235.012 275.889H157.42v1.411h77.592v-1.411z"/><path id="C" d="M221.461 244.816h-77.592v1.411h77.592v-1.411z"/><path id="D" d="M102.44 291.857h-2.364v12.613h2.364v-12.613z"/><path id="E" d="M174.164 291.857h-38.722a2.46 2.46 0 0 0-2.458 2.458v7.698a2.46 2.46 0 0 0 2.458 2.457h38.722a2.46 2.46 0 0 0 2.458-2.457v-7.698a2.46 2.46 0 0 0-2.458-2.458z"/><path id="F" d="M142.512 266.639h-38.723a2.46 2.46 0 0 0-2.457 2.457v7.698a2.46 2.46 0 0 0 2.457 2.458h38.723a2.46 2.46 0 0 0 2.457-2.458v-7.698a2.46 2.46 0 0 0-2.457-2.457z"/><path id="G" d="M140.877 254.027h-38.723a2.46 2.46 0 0 0-2.457 2.458v7.698a2.46 2.46 0 0 0 2.457 2.457h38.723a2.46 2.46 0 0 0 2.457-2.457v-7.698a2.46 2.46 0 0 0-2.457-2.458z"/><path id="H" d="M403.856 76.073a31.41 31.41 0 0 0 6.101-2.132c1.404-.682 2.83 1.054 2.202 2.713a5.76 5.76 0 0 1-4.496 3.876c-2.062.364-3.435-.07-4.349-.775-1.287-.946-.931-3.318.542-3.682z"/><path id="I" d="M407.663 80.561a5.76 5.76 0 0 0 4.496-3.876 2.31 2.31 0 0 0 .147-.775c-1.221-.372-2.53-.337-3.729.101a5.68 5.68 0 0 0-2.59 1.668c-.694.784-1.157 1.744-1.34 2.775a6.38 6.38 0 0 0 3.016.108z"/><path id="J" d="M406.275 78.6c.287.403 1.241.256 2.124-.341s1.38-1.403 1.093-1.814-1.24-.248-2.124.341-1.38 1.403-1.093 1.814z"/><path id="K" d="M403.856 76.074c2.102-.499 4.146-1.213 6.101-2.132a1.6 1.6 0 0 1 .629-.133c.216-.001.431.041.63.126a1.6 1.6 0 0 1 .53.364 1.59 1.59 0 0 1 .343.543c-1.493 1.462-3.351 2.498-5.38 3a13.18 13.18 0 0 1-4.178.465c-.076-.469.015-.949.257-1.357s.621-.718 1.068-.876z"/><path id="L" d="M411.097 84.972c0 .861-1.682 1.55-3.744 1.55s-3.737-.729-3.729-1.55 1.682-1.55 3.744-1.55 3.729.682 3.729 1.55z"/><path id="M" d="M36.482 199.867l-6.651 1.55a4.97 4.97 0 0 0-3.712 5.967l1.55 6.652a4.97 4.97 0 0 0 5.967 3.711l6.651-1.55a4.97 4.97 0 0 0 3.712-5.967l-1.55-6.652a4.97 4.97 0 0 0-5.967-3.711z"/><path id="N" d="M81.013 189.494l-6.651 1.55a4.97 4.97 0 0 0-3.712 5.967l1.55 6.652a4.97 4.97 0 0 0 5.968 3.711l6.651-1.55a4.97 4.97 0 0 0 3.712-5.967l-1.55-6.652a4.97 4.97 0 0 0-5.968-3.711z"/><path id="O" d="M41.956 223.353l-6.651 1.55a4.97 4.97 0 0 0-3.712 5.968l1.55 6.651a4.97 4.97 0 0 0 5.967 3.712l6.651-1.551a4.97 4.97 0 0 0 3.712-5.967l-1.55-6.651a4.97 4.97 0 0 0-5.967-3.712z"/><path id="P" d="M91.96 236.445l-6.651 1.55a4.97 4.97 0 0 0-3.712 5.968l1.55 6.651a4.97 4.97 0 0 0 5.967 3.712l6.651-1.551a4.97 4.97 0 0 0 3.712-5.967l-1.55-6.652a4.97 4.97 0 0 0-5.967-3.711z"/><path id="Q" d="M54.833 269.845l-6.651 1.55a4.97 4.97 0 0 0-3.712 5.968l1.55 6.651a4.97 4.97 0 0 0 5.968 3.712l6.651-1.55a4.97 4.97 0 0 0 3.712-5.968l-1.55-6.651a4.97 4.97 0 0 0-5.968-3.712z"/></defs></svg>