<svg xmlns="http://www.w3.org/2000/svg" xmlns:xlink="http://www.w3.org/1999/xlink" width="348" height="327" fill="none" xmlns:v="https://vecta.io/nano"><style><![CDATA[.B{fill:#fff}.C{stroke-miterlimit:10}.D{fill:#b7c2fb}.E{fill:#ee502d}.F{fill:#0f1e36}.G{fill:#feb8a6}.H{fill:#6252d7}.I{stroke:#0f1e36}.J{fill:#dbdfff}.K{stroke-width:1.54}]]></style><g clip-path="url(#A)"><path d="M9.101 127.859h97.566c2.681 0 4.855-2.173 4.855-4.854V5.365c0-2.681-2.174-4.854-4.855-4.854H9.101C6.42.51 4.247 2.683 4.247 5.365v117.641c0 2.681 2.173 4.854 4.854 4.854z" class="J"/><path d="M111.522 13.777H4.247V5.365c0-1.29.512-2.526 1.424-3.438S7.82.503 9.109.503h97.55c1.29 0 2.527.512 3.439 1.424s1.424 2.149 1.424 3.438v8.412z" class="H"/><path d="M31.339 7.585c0 .603.179 1.192.514 1.693a3.05 3.05 0 0 0 1.368 1.122c.557.231 1.169.291 1.761.173a3.05 3.05 0 0 0 2.394-2.394c.118-.591.057-1.204-.173-1.761s-.621-1.033-1.122-1.368-1.09-.514-1.693-.514c-.808 0-1.583.321-2.155.892s-.893 1.347-.893 2.155z" class="B"/><path d="M20.893 7.585c0 .603.179 1.192.514 1.694s.812.892 1.369 1.122 1.17.29 1.762.172 1.134-.409 1.56-.836.715-.971.832-1.562.055-1.205-.177-1.761-.624-1.032-1.126-1.366-1.092-.511-1.695-.51a3.04 3.04 0 0 0-2.152.893 3.04 3.04 0 0 0-.887 2.154z" fill="#e8f4ff"/><path d="M10.438 7.585c0 .603.179 1.192.514 1.693s.811.892 1.367 1.122 1.169.291 1.761.173 1.134-.408 1.56-.834.716-.969.834-1.56a3.05 3.05 0 0 0-1.296-3.128c-.501-.335-1.09-.514-1.693-.514-.808 0-1.583.321-2.155.892s-.893 1.347-.893 2.155z" class="D"/><g class="B"><path d="M81.293 30.245H16.614v3.728h64.679v-3.728zm13.242 0h-7.642v3.728h7.642v-3.728zM33.568 40.416H16.614v3.728h16.954v-3.728zm34.54 0H44.419v3.728h23.689v-3.728z"/><use xlink:href="#B"/><path d="M72.557 49.233H63.01v3.728h9.547v-3.728zm4.336 44.079H44.419v3.728h32.474v-3.728zM58.318 58.051H44.419v3.728h13.899v-3.728zm27.716 0H63.01v3.728h23.024v-3.728zm-52.466 8.817H16.614v3.728h16.954v-3.728zm34.54 0H44.419v3.728h23.689v-3.728zm-9.79 8.809H44.419v3.728h13.899v-3.728zm27.716 0H63.01v3.728h23.024v-3.728zm-27.716 8.817H44.419v3.728h13.899v-3.728zm27.716 0H63.01v3.728h23.024v-3.728zm-27.716 26.444H44.419v3.728h13.899v-3.728z"/></g><path d="M214.567 196.535h-91.651c-1.276 0-2.501-.507-3.404-1.41s-1.41-2.127-1.41-3.404V5.227c-.001-.633.123-1.26.364-1.845s.596-1.117 1.043-1.564a4.83 4.83 0 0 1 1.563-1.046c.585-.242 1.211-.367 1.844-.367h218.165a4.86 4.86 0 0 1 3.395 1.421c.902.9 1.414 2.119 1.427 3.393V181.98" stroke="#dbdfff" class="C"/><path d="M122.916.405h218.165c1.277 0 2.501.507 3.404 1.41s1.41 2.127 1.41 3.404v8.355H118.102V5.227a4.82 4.82 0 0 1 4.814-4.822z" class="H"/><path d="M319.013 7.431c0 .598-.177 1.182-.509 1.679a3.02 3.02 0 0 1-3.103 1.285 3.02 3.02 0 0 1-1.548-.827c-.423-.423-.711-.961-.827-1.548a3.02 3.02 0 0 1 .172-1.747c.229-.552.616-1.024 1.113-1.357s1.082-.509 1.68-.509c.397 0 .79.078 1.156.23s.7.375.981.655a3.02 3.02 0 0 1 .885 2.137z" class="B"/><path d="M329.379 7.431c0 .598-.178 1.183-.51 1.68s-.805.885-1.358 1.113-1.161.288-1.748.171-1.125-.406-1.548-.83-.709-.963-.825-1.55a3.02 3.02 0 0 1 .175-1.747c.23-.552.619-1.024 1.117-1.355s1.084-.507 1.682-.505c.8.002 1.567.322 2.132.888s.883 1.334.883 2.135z" fill="#e8f4ff"/><path d="M339.752 7.431c0 .598-.177 1.182-.509 1.679a3.03 3.03 0 0 1-1.357 1.113c-.552.229-1.16.289-1.747.172a3.02 3.02 0 0 1-1.547-.827c-.423-.423-.711-.961-.828-1.548s-.056-1.194.172-1.747.617-1.024 1.114-1.357a3.02 3.02 0 0 1 1.679-.509c.397 0 .79.078 1.157.23s.7.375.981.655.503.614.655.981a3.02 3.02 0 0 1 .23 1.157z" fill="#cedffd"/><use xlink:href="#C" class="B"/><path d="M318.827 28.632h-39.792c2.909 0 5.698 1.155 7.754 3.212S290 36.689 290 39.597s-1.155 5.697-3.211 7.753-4.845 3.212-7.754 3.212h39.792c2.908 0 5.697-1.155 7.753-3.212s3.212-4.845 3.212-7.753-1.155-5.697-3.212-7.753-4.845-3.212-7.753-3.212z" class="E"/><use xlink:href="#C" stroke="#ee502d" class="C"/><path d="M313.819 43.868l-2.383-2.383c.72-1.12 1.001-2.467.788-3.782a5.4 5.4 0 0 0-1.941-3.34c-1.037-.836-2.346-1.259-3.675-1.187s-2.587.632-3.528 1.573a5.4 5.4 0 0 0-1.574 3.528c-.071 1.33.352 2.639 1.188 3.676a5.4 5.4 0 0 0 3.34 1.941c1.314.213 2.661-.068 3.781-.788l2.375 2.375c.102.123.229.223.372.294a1.15 1.15 0 0 0 .928.042 1.15 1.15 0 0 0 .397-.259 1.14 1.14 0 0 0 .259-.398 1.15 1.15 0 0 0 .077-.468 1.13 1.13 0 0 0-.119-.459 1.16 1.16 0 0 0-.293-.372l.008.008zm-9.417-2.812a3.51 3.51 0 0 1-.962-1.801c-.136-.682-.066-1.389.2-2.032a3.52 3.52 0 0 1 1.296-1.578c.578-.386 1.258-.593 1.954-.593s1.375.206 1.953.593 1.03.936 1.296 1.578.336 1.35.2 2.032-.47 1.309-.961 1.801a3.52 3.52 0 0 1-1.142.763c-.427.177-.884.268-1.346.268s-.92-.091-1.347-.268-.815-.436-1.141-.763z" class="B"/><path d="M328.52 72.986H146.783a1.83 1.83 0 0 0-1.831 1.832v2.577a1.83 1.83 0 0 0 1.831 1.832H328.52a1.83 1.83 0 0 0 1.831-1.832v-2.577a1.83 1.83 0 0 0-1.831-1.832z" class="D"/><path d="M327.636 60.611H135.64a1.8 1.8 0 0 0-1.799 1.799v5.332a1.8 1.8 0 0 0 1.799 1.799h191.996a1.8 1.8 0 0 0 1.799-1.799v-5.332a1.8 1.8 0 0 0-1.799-1.799z" class="J"/><path d="M328.682 88.57h-45.846a1.51 1.51 0 0 0-1.507 1.507v65.352a1.51 1.51 0 0 0 1.507 1.507h45.846a1.51 1.51 0 0 0 1.507-1.507V90.078a1.51 1.51 0 0 0-1.507-1.507z" class="D"/><path d="M271.15 88.57H135.332a1.49 1.49 0 0 0-1.491 1.491v65.385a1.49 1.49 0 0 0 1.491 1.491H271.15a1.49 1.49 0 0 0 1.491-1.491V90.062a1.49 1.49 0 0 0-1.491-1.491z" class="J"/><g class="D"><path d="M135.056 184.922h88.498c.676 0 1.224-.548 1.224-1.224v-18.275c0-.676-.548-1.224-1.224-1.224h-88.498c-.675 0-1.223.548-1.223 1.224v18.275c0 .676.548 1.224 1.223 1.224zm4.142-111.936h-3.526a1.83 1.83 0 0 0-1.831 1.832v2.577a1.83 1.83 0 0 0 1.831 1.832h3.526a1.83 1.83 0 0 0 1.831-1.832v-2.577a1.83 1.83 0 0 0-1.831-1.832z"/></g><g class="B"><path d="M170.293 131.531l-4.011-15.811h2.156l1.88 7.999 1.175 5.462h.048c.252-1.572.746-3.444 1.289-5.487l2.107-7.974h2.14l1.92 8.023 1.102 5.413h.049l1.264-5.462 2.091-7.974h2.083l-4.474 15.811h-2.139l-1.994-8.234c-.439-1.7-.783-3.424-1.029-5.162h-.049c-.314 1.741-.722 3.465-1.223 5.162l-2.245 8.234h-2.14zm22.587 0l-4.052-15.811h2.164l1.872 7.999 1.175 5.462h.048c.252-1.572.746-3.444 1.289-5.487l2.107-7.974h2.139l1.921 8.023 1.102 5.413h.049l1.264-5.462 2.091-7.974h2.091l-4.482 15.811h-2.139l-1.994-8.234c-.439-1.7-.783-3.424-1.029-5.162h-.049c-.314 1.741-.72 3.464-1.215 5.162l-2.253 8.234h-2.099zm22.538 0l-4.012-15.811h2.164l1.872 7.999 1.175 5.462h.049c.259-1.572.745-3.444 1.288-5.487l2.107-7.974h2.14l1.92 8.023 1.103 5.413h.073l1.264-5.462 2.091-7.974h2.091l-4.482 15.811h-2.14l-1.993-8.234c-.439-1.7-.783-3.424-1.029-5.162h-.049c-.315 1.741-.721 3.464-1.216 5.162l-2.253 8.234h-2.163z"/></g><g class="F"><path d="M193.848 36.833c.553 0 1.031.108 1.437.324.414.207.733.526.958.958.233.423.349.949.349 1.579v3.948h-.647v-3.896c0-.759-.194-1.337-.582-1.734-.38-.397-.915-.595-1.605-.595-.527 0-.984.108-1.372.324s-.686.518-.893.906c-.199.388-.298.854-.298 1.398v3.598h-.647V34.04h.647v4.724l-.116-.207a2.53 2.53 0 0 1 1.022-1.255c.475-.311 1.057-.466 1.747-.466zm7.376 6.859c-.596 0-1.053-.164-1.372-.492-.311-.328-.466-.776-.466-1.346v-6.445h.647v6.381c0 .431.108.764.323.997s.527.349.932.349c.423 0 .773-.125 1.049-.375l.271.453c-.172.164-.384.285-.634.362-.241.078-.492.117-.75.117zm-3.081-6.251v-.557h4.038v.557h-4.038zm8.06 6.251c-.595 0-1.052-.164-1.372-.492-.31-.328-.465-.776-.465-1.346v-6.445h.647v6.381c0 .431.108.764.323.997s.527.349.932.349c.423 0 .772-.125 1.048-.375l.272.453c-.172.164-.384.285-.634.362a2.44 2.44 0 0 1-.751.117zm-3.08-6.251v-.557h4.038v.557h-4.038zm9.661 6.251a3.2 3.2 0 0 1-1.618-.414c-.475-.276-.854-.669-1.139-1.178-.276-.518-.414-1.13-.414-1.838s.138-1.316.414-1.825a3.03 3.03 0 0 1 1.139-1.191 3.2 3.2 0 0 1 1.618-.414c.638 0 1.208.147 1.708.44a3.02 3.02 0 0 1 1.191 1.204c.293.518.44 1.113.44 1.786s-.147 1.268-.44 1.786a3.11 3.11 0 0 1-1.191 1.217c-.5.285-1.07.427-1.708.427zm-3.391 2.459v-9.267h.621v2.213l-.103 1.178.129 1.178v4.698h-.647zm3.352-3.041a2.81 2.81 0 0 0 1.398-.349c.414-.242.737-.578.97-1.009.242-.431.363-.928.363-1.488 0-.57-.121-1.066-.363-1.488a2.45 2.45 0 0 0-.97-.996c-.414-.242-.88-.362-1.398-.362s-.984.121-1.398.362c-.405.233-.729.565-.971.996-.232.423-.349.919-.349 1.488 0 .561.117 1.057.349 1.488a2.67 2.67 0 0 0 .971 1.009 2.8 2.8 0 0 0 1.398.349zm7.09.582a4.96 4.96 0 0 1-1.579-.246c-.483-.164-.859-.371-1.126-.621l.298-.518c.258.224.604.419 1.035.582a4.1 4.1 0 0 0 1.398.233c.707 0 1.216-.116 1.527-.349s.466-.539.466-.919c0-.276-.082-.492-.246-.647-.155-.164-.367-.289-.634-.375a6.02 6.02 0 0 0-.88-.207l-.958-.194c-.319-.069-.613-.168-.88-.298a1.7 1.7 0 0 1-.647-.531c-.156-.233-.233-.539-.233-.919 0-.345.095-.656.285-.932s.474-.496.854-.66c.379-.173.854-.259 1.423-.259a4.6 4.6 0 0 1 1.269.181c.431.121.781.28 1.048.479l-.298.518c-.284-.216-.604-.371-.957-.466a4.12 4.12 0 0 0-1.075-.142c-.655 0-1.138.121-1.449.362-.302.242-.453.544-.453.906 0 .285.078.513.233.686.164.164.38.293.647.388.267.086.561.16.88.22l.958.181c.319.069.612.168.88.298.267.121.479.293.634.518.164.216.246.509.246.88s-.104.694-.311.971c-.198.276-.496.492-.893.647s-.884.233-1.462.233zm4.394-5.759c-.146 0-.276-.052-.388-.155a.57.57 0 0 1-.155-.401c0-.155.051-.285.155-.388.112-.104.242-.155.388-.155a.51.51 0 0 1 .376.155c.112.103.168.233.168.388a.55.55 0 0 1-.168.401.51.51 0 0 1-.376.155zm0 5.759c-.146 0-.276-.052-.388-.155a.57.57 0 0 1-.155-.401c0-.155.051-.285.155-.388.112-.103.242-.155.388-.155s.272.052.376.155c.112.104.168.233.168.388s-.056.289-.168.401a.51.51 0 0 1-.376.155zm1.556 1.243l4.271-12.192h.595l-4.271 12.192h-.595zm3.324 0l4.271-12.192h.595l-4.271 12.192h-.595z"/><path fill-rule="evenodd" d="M229.677 32.611a.4.4 0 0 1 .379-.269h.595a.4.4 0 0 1 .378.534l-4.271 12.192a.4.4 0 0 1-.378.268h-.595c-.131 0-.252-.063-.328-.169a.4.4 0 0 1-.051-.365l4.271-12.192zm3.324 0a.4.4 0 0 1 .379-.269h.595a.4.4 0 0 1 .379.534l-4.271 12.192c-.057.161-.209.268-.379.268h-.595c-.13 0-.252-.063-.328-.169a.4.4 0 0 1-.051-.365l4.271-12.192zm-42.854 1.427a.4.4 0 0 1 .401-.401h.647a.4.4 0 0 1 .401.401v3.131c.091-.074.187-.143.288-.207.552-.361 1.214-.53 1.964-.53.603 0 1.148.118 1.621.368a2.54 2.54 0 0 1 1.127 1.125c.273.497.397 1.093.397 1.768v3.947a.4.4 0 0 1-.401.401h-.647a.4.4 0 0 1-.401-.401v-3.896c0-.694-.177-1.156-.468-1.454l-.003-.003h0c-.286-.299-.705-.471-1.315-.471-.471 0-.859.096-1.177.273s-.562.423-.733.741c-.162.319-.252.718-.252 1.212v3.598a.4.4 0 0 1-.401.401h-.647a.4.4 0 0 1-.401-.401v-9.603zm8.838 1.372a.4.4 0 0 1 .401-.401h.647a.4.4 0 0 1 .401.401v1.074h1.747a.4.4 0 0 1 .401.401v.556a.4.4 0 0 1-.401.401h-1.747v3.947c0 .367.091.588.217.724.12.13.311.221.637.221.338 0 .587-.097.779-.271a.4.4 0 0 1 .328-.1c.119.018.224.087.286.191l.271.453a.4.4 0 0 1-.067.497 1.99 1.99 0 0 1-.79.454c-.281.09-.572.135-.871.135-.67 0-1.244-.186-1.66-.613l-.004-.004h0c-.398-.42-.575-.978-.575-1.622v-4.012h-.842a.4.4 0 0 1-.401-.401v-.556a.4.4 0 0 1 .401-.401h.842V35.41zm4.979 0a.4.4 0 0 1 .402-.401h.647a.4.4 0 0 1 .401.401v1.074h1.747a.4.4 0 0 1 .401.401v.556a.4.4 0 0 1-.401.401h-1.747v3.947c0 .367.091.588.217.724.12.13.31.221.637.221.338 0 .587-.097.779-.271a.4.4 0 0 1 .613.091l.272.453a.4.4 0 0 1-.067.497c-.222.21-.488.36-.79.454-.282.09-.573.135-.872.135-.669 0-1.243-.186-1.659-.613l-.004-.004h0c-.398-.42-.576-.978-.576-1.622v-4.012h-.841a.4.4 0 0 1-.401-.401v-.556a.4.4 0 0 1 .401-.401h.841V35.41zm6.764 6.148c.208.37.481.652.82.856.348.195.744.296 1.197.296a2.4 2.4 0 0 0 1.198-.296c.348-.203.619-.485.817-.852l.003-.005h0c.204-.364.312-.791.312-1.292 0-.512-.108-.937-.31-1.289l-.005-.008h0a2.05 2.05 0 0 0-.814-.837l-.005-.003h0c-.348-.203-.744-.308-1.196-.308s-.848.105-1.196.308l-.002.001c-.339.195-.612.472-.82.843-.194.354-.299.78-.299 1.294 0 .503.104.931.3 1.295zm-.313-4.258a3.31 3.31 0 0 1 .549-.4l.003-.002h0c.548-.313 1.157-.467 1.817-.467.701 0 1.34.161 1.908.493.573.321 1.021.776 1.341 1.356.331.585.491 1.249.491 1.982s-.16 1.397-.491 1.982a3.5 3.5 0 0 1-1.341 1.369l-.001.001c-.568.323-1.207.48-1.907.48-.66 0-1.269-.154-1.817-.467l-.003-.002c-.188-.109-.362-.234-.523-.375v2.902a.4.4 0 0 1-.401.401h-.647a.4.4 0 0 1-.401-.401v-9.267a.4.4 0 0 1 .401-.401h.621a.4.4 0 0 1 .401.401v.415zm7.937-.575c.447-.202.981-.293 1.586-.293a5 5 0 0 1 1.378.196c.463.13.861.307 1.178.543a.4.4 0 0 1 .109.522l-.298.518a.4.4 0 0 1-.59.12c-.242-.184-.514-.316-.819-.398-.321-.086-.644-.129-.971-.129-.618 0-.993.116-1.201.276-.212.171-.3.36-.3.591 0 .203.052.327.124.41a1.31 1.31 0 0 0 .484.284 6.88 6.88 0 0 0 .821.205l.973.184c.345.075.667.183.965.326.324.147.591.362.789.646.229.306.322.692.322 1.115 0 .45-.127.858-.388 1.208-.254.351-.621.607-1.07.783-.457.179-.998.261-1.609.261-.601 0-1.17-.088-1.706-.267l-.002-.001c-.517-.175-.949-.407-1.271-.708a.4.4 0 0 1-.074-.493l.298-.518c.06-.104.163-.176.281-.196a.4.4 0 0 1 .329.092c.213.184.512.357.912.509a3.7 3.7 0 0 0 1.259.208c.683 0 1.082-.116 1.286-.269.213-.159.306-.348.306-.598 0-.192-.054-.293-.121-.356l-.015-.015a1.08 1.08 0 0 0-.466-.27 5.6 5.6 0 0 0-.822-.193l-.01-.002h0l-.968-.196a4.32 4.32 0 0 1-.97-.329c-.322-.156-.591-.374-.796-.655-.222-.333-.31-.724-.31-1.156a2.01 2.01 0 0 1 .355-1.159c.241-.35.591-.613 1.022-.8zm5.768.552c-.021.022-.033.047-.033.099s.012.084.039.117c.035.029.066.038.103.038s.064-.01.092-.038c.039-.039.051-.071.051-.118s-.011-.067-.039-.093c-.04-.039-.063-.049-.104-.049a.15.15 0 0 0-.109.043zm-.551-.584c.183-.169.408-.262.66-.262a.91.91 0 0 1 .654.267c.192.18.291.415.291.678s-.1.499-.286.685a.91.91 0 0 1-.659.273c-.252 0-.477-.093-.66-.262l-.023-.023a.97.97 0 0 1-.261-.673.93.93 0 0 1 .272-.672zm.551 6.343c-.021.022-.033.047-.033.099s.012.084.039.117c.035.029.066.038.103.038s.064-.01.092-.038c.039-.039.051-.071.051-.117s-.011-.067-.039-.093c-.04-.039-.063-.049-.104-.049a.15.15 0 0 0-.109.043zm-.551-.584c.183-.169.408-.262.66-.262a.91.91 0 0 1 .654.267c.192.18.291.415.291.678s-.1.499-.286.685a.91.91 0 0 1-.659.273c-.252 0-.477-.093-.66-.262l-.023-.023a.97.97 0 0 1-.261-.673.93.93 0 0 1 .272-.672z"/></g><path d="M32.157 185.586c30.058-29.985 81.123-13.777 97.445 5.608s33.422 16.209 65.361 45.432 24.166 88.993-18.292 88.993H45.311S5.859 329.03.851 292.716s12.878-88.725 31.306-107.13z" fill="#a3b1fb"/><g fill="#8897e6"><path d="M46.194 204.898c.989-3.396 3.931-5.673 5.333-8.915 1.888-4.295.875-9.863 3.501-13.655s7.926-4.101 12.334-3.42c17.019 2.617 32.336 12.748 46.194 24.021s26.809 23.98 41.907 33.048c5.413 3.242 11.119 6.054 15.965 10.26s8.85 10.179 9.287 16.962c.112 1.966-.127 3.937-.705 5.819-7.512 2.804-15.195 4.992-22.627 8.031-12.051-.729-25.406 6.378-37.133 1.873-4.255-1.621-7.958-4.701-12.156-6.484-6.484-2.715-13.704-2.123-20.528-3.566-7.642-1.621-14.588-5.746-21.484-9.83-3.339-1.994-6.791-4.052-9.101-7.407-2.204-3.185-3.145-7.189-4.052-11.079l-6.208-27.124c-.657-2.723-1.297-5.763-.527-8.534zM10.9 223.027a138.51 138.51 0 0 0-.3 11.849c.259 13.696 2.31 27.011 11.346 37.773 7.829 9.312 19.969 14.264 31.46 17.206 30.982 7.95 63.464 12.65 95.362 14.636 20.852 1.288 41.655 1.28 62.143-2.432-5.454 13.697-16.971 23.584-34.224 23.584H45.311S5.859 329.03.851 292.715c-2.901-21.079 1.904-47.563 10.049-69.688z"/></g><g class="C I"><path d="M79.972 239.487A88.04 88.04 0 0 0 37.62 212.63m30.131 2.666l-12.14-10.26"/></g><path d="M123.184 195.683c.705 3.015 4.052 15.601 4.271 16.209s10.235 10.859 10.235 10.859-1.296 9.11-5.251 10.033c-7.03-4.912-12.958-11.235-17.408-18.566-2.537-4.182-6.216-22.465-6.216-22.465l14.369 3.93z" class="E"/><path d="M89.454 126.612c-1.524.956 4.579 3.849 5.089 5.859s1.799 6.029 3.477 12.156c1.945 7.043-11.775 10.244-3.153 21.663 0 0 7.699 2.933 11.427 2.731 0 0-3.89-5.09-3.112-15.876.308-4.304 3.655-17.449-1.411-23.348-3.841-4.498-8.704-5.455-12.318-3.185z" class="F"/><path d="M101.651 149.295a40.61 40.61 0 0 0 2.391 20.017s-9.174-3.12-12.846-6.337c-5.6-4.919-15.398 1.37-15.398 1.37a47.89 47.89 0 0 1-.486-19.896c2.099-10.536 2.95-13.583 8.412-15.512s12.156 1.621 12.156 1.621 7.796 3.704 5.77 18.737z" fill="#211717"/><path d="M77.906 169.709s4.862-.34 5.089-4.765c.138-2.723-1.475-10.811-1.475-10.811l12.967-1.775s-.6 10.917 1.045 12.716c.989 1.07 5.26 2.553 5.26 2.553l5.478 7.164-11.889 15.292-21.557-11.921 5.081-8.453z" class="G"/><path d="M99.682 167.198c-5.688-.263-11.306-1.355-16.678-3.242-.318-3.305-.807-6.592-1.467-9.846l12.967-1.775s-.6 10.916 1.045 12.715c.673.738 2.78 1.629 4.133 2.148z" fill="#ea7d77"/><path d="M98.142 134.384c3.136 3.833 2.763 5.972 2.585 11.443-.154 4.7 0 6.977-.713 9.044s-3.153 6.119-6.483 7.902a6.3 6.3 0 0 1-3.615.267c-4.384-1.005-11.119-5.786-12.594-8.753-1.086-2.18-1.775-6.151-2.01-9.838s-.446-8.331-.43-11.038c.073-9.571 17.505-6.038 23.259.973z" class="G"/><path d="M89.957 154.498a18.08 18.08 0 0 0 6.378 0c-.031.672-.275 1.316-.696 1.84a3.18 3.18 0 0 1-1.646 1.078c-2.982.68-4.036-2.918-4.036-2.918z" class="B"/><path d="M94.373 148.501s1.135 2.917.632 3.631c-.335.449-.794.79-1.321.98" stroke="#c9796d" stroke-width=".57" class="C"/><g class="F"><path d="M89 146.273c.028.169.106.326.224.451a.86.86 0 0 0 .438.251c.167.038.343.026.503-.035s.299-.169.398-.309a.87.87 0 0 0 .025-.965c-.092-.145-.225-.26-.382-.329a.86.86 0 0 0-.501-.061c-.224.041-.423.169-.555.355a.87.87 0 0 0-.15.642zm9.004.526a.87.87 0 0 0 .371.509c.183.117.403.161.617.123a.86.86 0 0 0 .538-.327c.132-.172.195-.388.175-.604a.87.87 0 0 0-.371-.509c-.183-.117-.403-.161-.617-.123s-.406.154-.538.327-.195.388-.175.604zm-6.013-3.793a2.8 2.8 0 0 0-1.096-.686 2.81 2.81 0 0 0-1.287-.124 3.98 3.98 0 0 0-1.823.632 2.18 2.18 0 0 1 2.204-1.621 1.95 1.95 0 0 1 1.36.5 1.96 1.96 0 0 1 .642 1.299zm9.084.633a2.81 2.81 0 0 0-1.095-.687c-.414-.14-.854-.183-1.287-.124a4.1 4.1 0 0 0-1.823.633 2.17 2.17 0 0 1 2.213-1.621c.5-.014.986.165 1.357.5s.599.8.636 1.299z"/></g><path d="M123.184 195.684c-1.029-3.193-3.947-13.112-4.968-15.155-4.595-9.182-10.082-10.851-10.082-10.851l-1.264 21.8 4.863 8.915c3.225-4.044 7.869-.908 11.451-4.709z" class="E"/><path d="M111.271 237.566l.453 10.641s7.294 9.976 16.022 15.463c2.356 1.547 4.977 2.645 7.732 3.242l31.606 5.673c.276 1.564-3.971 5.616-6.483 20.6-1.888 11.192-5.779 18.235-7.813 20.439-2.496 2.691-1.758 5.746 3.12 7.91a43.32 43.32 0 0 0 11.006 3.071c5.803.673 15.447 2.01 10.706-.81-4.206-2.488-12.967-4.392-12.919-11.143 0-2.861 19.532-42.628 20.528-45.278 4.539-12.1-2.034-16.103-10.989-18.429-6.062-1.581-30.901-4.052-37.944-6.346l-25.025-5.033z" class="G"/><path d="M167.708 247.664c-4.052-.551-12.456 4.052-14.101 8.42s-4.757 13.55-4.757 13.55-33.422-18.769-38.049-26.582 9.603-5.494 9.603-5.494l19.669 5.211c11.727 2.974 27.635 4.895 27.635 4.895z" class="F"/><path d="M89.957 239.009s0 3.744 4.117 13.104c2.642 5.989 7.108 10.147 13.34 13.332a69.62 69.62 0 0 0 12.156 4.627c12.724 3.752 33.317 2.634 33.317 2.634s9.433 12.197 18.031 19.604c6.305 5.43 26.534 17.424 32.912 25.277 2.844 3.517-.73 6.483 1.888 8.015s7.537-.964 11.289-.592 15.447 2.116 17.319-.129-4.506-4.125-8.25-5.252-12.562-5.454-16.517-8.663c-6.564-5.333-20.05-23.462-27.092-33.041-6.71-9.133-20.115-24.523-22.092-24.693-2.099-.179-4.863-2.27-8.453-3.558l-2.253-.811c-6.42-2.273-13.022-3.997-19.733-5.154l-39.978-4.7z" class="G"/><path d="M182.401 277.925c-6.71-9.133-20.366-23.713-22.092-24.693-2.934-1.67-4.862-2.27-8.453-3.558l-2.253-.811a120.41 120.41 0 0 0-19.733-5.154l-39.913-4.7" stroke="#ea7d77" class="C K"/><path d="M64.201 190.724c.972 5.357 2.431 11.038 3.144 15.082 1.677 9.328 8.355 24.977 10.795 33.292 1.678 5.746.859 9.773.235 14.125a79.47 79.47 0 0 1 14.482-8.477c.965-.429 1.937-.81 2.942-1.15 4.992-1.678 10.3-2.221 15.503-3.185 3.469-.641 8.639-1.297 12.667-3.129-2.537-2.804-7.748-18.939-7.01-24.815.753-6.094-.665-15.576-2.213-18.445s-6.645-24.361-6.645-24.361l-7.294-2.058s4.328 11.856-5.154 14.384c-14.863 3.972-17.748-12.285-17.748-12.285s-10.155-1.459-17.221 5.186c0 0 2.277 8.842 3.517 15.836z" class="E"/><path d="M123.994 237.299c-2.536-2.804-7.747-18.94-7.01-24.815.754-6.095-.665-15.577-2.212-18.445-.876-1.621-2.869-9.134-4.442-15.398" class="C I"/><g class="F"><path d="M83.951 247.81c6.848-5.025 10.284-5.827 18.64-7.659 5.486-1.207 9.595 0 15.99-.616 6.329 1.337 25.301 5.073 36.558 10.179 0 0-14.418-1.321-20.326.891-12.569 4.717-7.366 14.937-13.299 20.909-1.791 1.808-28.275 1.192-32.562-.17-9.531-3.023-10.997-10.471-11.054-13.68 0-.073.478-4.376.478-4.441 1.856-1.815 3.477-3.841 5.576-5.413zm3.826-109.974c-2.901.341-5.673.292-5.316 6.759.608 10.325-.446 22.878 3.898 33.228 2.642 6.305-9.636 6.604-15.293 2.666-7.488-5.203-7.367-14.717-2.302-23.024 4.052-6.662 3.088-12.156 3.088-15.341 0-7.229 2.553-12.773 7.877-15.885 5.713-3.347 12.805-2.431 16.654 1.329.964.941 2.488 1.97 2.577 3.485.17 2.821-.397 5.535-11.184 6.783z"/></g><path d="M97.339 237.501l43.763-.146 19.709 8.153-42.028-.94-21.444-7.067z" class="B"/><path d="M118.783 247.664h53.058v-3.096h-53.058v3.096z" class="H"/><path d="M97.339 237.501l21.444 7.067v3.096l-21.444-7.067v-3.096z" class="D"/><path d="M83.473 222.371l10.535.729s19.45 7.294 22.691 6.727c3.744-.624 11.168.583 13.607 1.84 2.213 1.142 4.612 2.277 3.615 3.071-.282.197-.505.465-.648.777s-.198.657-.163.998c0 0 1.297 2.334-.599 3.023-.488.214-1.015.324-1.548.324s-1.06-.11-1.548-.324c0 0 1.767 2.496-.138 2.431s-.972 1.434-3.485 1.232c-1.556-.122-7.99-5.673-12.586-6.694-2.877-.649-8.104-1.621-11.021-2.042-7.894-1.062-12.23-1.305-12.23-1.305l-6.483-10.787z" class="G"/><path d="M60.684 174.889c-1.28 1.515-3.477 3.241-2.715 10.179 1.159 10.535 12.051 42.514 12.967 43.438 4.101 4.052 14.588 5.511 23.956 6.232 0 0-1.702-8.266 2.431-11.962 0 0-13.51-3.12-15.471-3.922 0 0-5.819-16.208-6.483-24.313-.198-2.405-.594-4.791-1.183-7.131-.47-1.856-4.311-3.307-5.13-4.952-2.836-5.681-7.586-8.509-8.372-7.569z" class="E"/><g class="C I"><path d="M97.34 222.776s-13.51-3.153-15.487-3.922c0 0-5.819-16.209-6.483-24.313"/><path d="M75.815 219.916c2.182.408 4.438-.027 6.313-1.216"/></g><path d="M122.187 245.508h11.848l11.84-41.469h-7.358a2.34 2.34 0 0 0-1.35.427 2.33 2.33 0 0 0-.854 1.129l-14.126 39.913z" class="D"/><path d="M125.615 245.508h46.194l11.265-39.41c.067-.241.078-.494.032-.739a1.62 1.62 0 0 0-.3-.676c-.151-.2-.345-.362-.569-.473s-.469-.17-.719-.171h-42.863a1.62 1.62 0 0 0-1.548 1.175l-11.492 40.294z" class="H"/><path d="M153.299 223.157c-1.037 2.432-.308 5.13 1.621 5.949s4.36-.519 5.405-2.982.308-5.13-1.621-5.949-4.368.511-5.405 2.982z" fill="#f5faff"/><path d="M137.091 272.642c8.525.453 15.73.064 15.73.064s9.433 12.197 18.032 19.604c3.898 3.356 13.112 9.223 21.07 15.066" stroke="#ea7d77" class="C K"/><path d="M54.728 272.568c-8.266-2.82-16.362-6.07-24.377-9.554 2.548-3.476 5.85-6.33 9.657-8.35s8.022-3.152 12.329-3.312c26.63-.932 60.652 21.233 78.359 36.088 0 0-9.546 2.917-22.805 5.997-16.8-8.874-35.18-14.734-53.163-20.869z" fill="#a3b1fb"/><path d="M77.282 273.468c10.325 4.66 21.265 8.509 32.546 9.919 6.013.754 12.051 1.192 18.072 1.759-18.307-14.725-50.246-34.678-75.563-33.794-4.874.154-9.623 1.579-13.777 4.133 13.526 3.995 26.274 12.359 38.722 17.983z" class="D"/><g class="C I"><path d="M123.184 281.499c-20.018-15.074-46.154-29.507-70.88-30.147"/><path d="M.981 325.756h345.408" stroke-width="1.42"/></g><path d="M287.431 311.517a67.04 67.04 0 0 1-44.929-24.491 68.36 68.36 0 0 1-14.985-43.147V200.49a8.33 8.33 0 0 1 1.97-5.361c1.268-1.499 3.024-2.502 4.959-2.833 17.19-2.967 33.678-9.103 48.625-18.096 1.313-.792 2.816-1.21 4.348-1.21a8.41 8.41 0 0 1 4.348 1.21c14.946 8.994 31.435 15.131 48.625 18.096a8.34 8.34 0 0 1 4.96 2.833 8.33 8.33 0 0 1 1.969 5.361v43.389a68.36 68.36 0 0 1-14.984 43.147 67.04 67.04 0 0 1-44.93 24.491h.024z" class="E"/><path d="M287.464 301.338c-13.684-1.83-26.239-8.565-35.332-18.954a56.99 56.99 0 0 1-14.104-37.532v-42.417c.002-.03.013-.057.032-.079s.045-.037.074-.043c17.353-3.392 34.019-9.653 49.314-18.526.019-.008.039-.013.06-.013s.042.005.061.013c15.294 8.874 31.96 15.136 49.314 18.526.027.007.052.023.069.045s.028.049.028.077v42.417c.004 13.807-5.007 27.146-14.1 37.535a56.97 56.97 0 0 1-35.335 18.951h-.081z" class="B"/><g class="F"><path d="M262.462 271.985a9.42 9.42 0 0 0 4.774 1.346c2.723 0 4.311-1.435 4.311-3.51 0-1.928-1.102-3.031-3.882-4.1-3.363-1.192-5.446-2.934-5.446-5.843 0-3.242 2.658-5.592 6.67-5.592a9.38 9.38 0 0 1 4.555 1.005l-.738 2.172a8.2 8.2 0 0 0-3.914-.981c-2.812 0-3.882 1.686-3.882 3.088 0 1.928 1.256 2.877 4.101 3.979 3.484 1.345 5.259 3.031 5.259 6.054 0 3.185-2.358 5.932-7.221 5.932a10.72 10.72 0 0 1-5.259-1.313l.672-2.237zm17.368 0c1.442.866 3.09 1.331 4.773 1.346 2.723 0 4.311-1.435 4.311-3.51 0-1.928-1.102-3.031-3.881-4.1-3.364-1.192-5.446-2.934-5.446-5.843 0-3.242 2.666-5.592 6.669-5.592a9.38 9.38 0 0 1 4.555 1.005l-.73 2.172c-1.203-.647-2.548-.984-3.914-.981-2.82 0-3.89 1.686-3.89 3.088 0 1.928 1.256 2.877 4.101 3.979 3.485 1.345 5.259 3.031 5.259 6.054 0 3.185-2.358 5.932-7.22 5.932-1.837.02-3.648-.432-5.26-1.313l.673-2.237zm17.74-17.368h2.658v18.38h8.809v2.229H297.57v-20.609zm2.115-33.105h-4.182l-.048-5.941c-.026-2.149-.863-4.21-2.343-5.77-.73-.795-1.618-1.428-2.607-1.859s-2.057-.651-3.137-.645a7.74 7.74 0 0 0-3.129.68 7.75 7.75 0 0 0-2.586 1.889 8.54 8.54 0 0 0-2.285 5.803l.048 5.843h-4.214a1.18 1.18 0 0 0-.831.344c-.22.22-.344.519-.344.831v11.954a10.31 10.31 0 0 0 10.309 10.308h6.216c2.733-.002 5.354-1.089 7.286-3.022a10.32 10.32 0 0 0 3.022-7.286v-11.954a1.18 1.18 0 0 0-1.175-1.175zm-16.452-5.868a4.65 4.65 0 0 1 1.224-3.152c.369-.409.817-.738 1.317-.968a4.04 4.04 0 0 1 1.593-.369 3.96 3.96 0 0 1 1.596.345c.502.224.952.551 1.321.959.809.846 1.269 1.966 1.289 3.137l.048 5.916h-8.339l-.049-5.868zm5.933 17.975v3.493a1.73 1.73 0 0 1-1.722 1.608 1.73 1.73 0 0 1-1.723-1.608v-3.493c-.668-.38-1.192-.97-1.49-1.679a3.49 3.49 0 0 1-.157-2.241c.197-.743.634-1.401 1.244-1.87s1.356-.724 2.126-.724a3.48 3.48 0 0 1 2.126.724 3.49 3.49 0 0 1 1.086 4.111c-.298.709-.822 1.299-1.49 1.679z"/></g><path d="M41.79 167.639a22.21 22.21 0 0 0-9.103-30.055 22.21 22.21 0 0 0-30.055 9.103 22.21 22.21 0 0 0 9.103 30.055 22.21 22.21 0 0 0 30.055-9.103z" fill="#6ccb71"/><path d="M16.144 166.841l-5.43-6.297c-.183-.203-.319-.442-.399-.703s-.103-.536-.066-.806a1.87 1.87 0 0 1 .28-.758 1.88 1.88 0 0 1 .574-.57c.504-.324 1.107-.458 1.701-.378a2.52 2.52 0 0 1 1.54.816l2.909 3.38c.092.108.205.196.333.259a1.05 1.05 0 0 0 .408.107c.142.007.284-.014.417-.063s.255-.125.358-.222l11.873-11.192c.205-.193.446-.343.709-.442s.543-.145.824-.135.557.075.813.192.486.284.677.49a2.14 2.14 0 0 1 .577 1.537c-.01.282-.075.559-.192.815s-.284.487-.49.679l-14.328 13.461c-.211.197-.46.348-.732.447s-.56.14-.848.124-.57-.09-.829-.217a2.15 2.15 0 0 1-.678-.524z" class="B"/></g><defs><clipPath id="A"><path d="M0 0h347.37v326.332H0z" class="B"/></clipPath><path id="B" d="M58.318 49.233H44.419v3.728h13.899v-3.728z"/><path id="C" d="M318.827 50.562H143.509c-2.908 0-5.697-1.155-7.753-3.212s-3.212-4.845-3.212-7.753 1.155-5.697 3.212-7.753 4.845-3.212 7.753-3.212h175.318c2.908 0 5.697 1.155 7.753 3.212s3.212 4.845 3.212 7.753-1.155 5.697-3.212 7.753-4.845 3.212-7.753 3.212z"/></defs></svg>