<svg width="1123" height="279" viewBox="0 0 1123 279" fill="none" xmlns="http://www.w3.org/2000/svg">
<path d="M-93.3867 136.005C-42.5458 124.525 5.07614 90.0463 46.6654 59.8807C81.0849 34.9155 117.05 11.1501 154.754 -8.67334C158.359 -10.5688 179.147 -25.2895 179.147 -14.8768C179.147 0.0185871 179.147 14.914 179.147 29.8095C179.147 66.9976 178.302 99.7007 164.006 134.533C141.666 188.969 114.869 241.91 82.6247 291.198C80.2937 294.761 58.5956 329.336 71.9 316.643C87.6446 301.622 98.4542 281.696 111.539 264.491C131.865 237.768 154.278 212.65 178.306 189.208C278.628 91.3332 399.149 21.5451 509.51 -63.3483C517.32 -69.3556 526.041 -76.6306 535.376 -80.1714C543.652 -83.3105 540.633 -56.7483 540.633 -53.6751C540.633 1.34015 534.411 59.497 522.759 113.294C509.844 172.915 473.064 222.802 431.073 265.543C417.348 279.513 401.264 293.275 383.548 302.133C375.334 306.24 379.525 302.145 383.337 297.402C397.69 279.541 404.752 257.227 416.983 237.995C435.081 209.54 458.687 183.972 481.542 159.347C517.902 120.172 555.917 83.418 596.78 48.9457C653.321 1.24788 713.484 -40.1087 781.203 -70.2879C785.833 -72.3514 800.285 -82.0916 801.391 -72.3907C803.424 -54.5589 801.811 -35.7414 801.811 -17.8209C801.811 27.2499 802.259 70.5977 788.458 114.03C775.968 153.337 754.274 188.081 732.732 222.959C711.011 258.127 685.579 291.53 661.128 324.844C647.259 343.741 598.537 394.549 615.391 378.257C632.122 362.084 644.918 342.161 659.025 323.793C685.504 289.316 714.667 260.214 747.031 231.371C787.817 195.023 827.246 157.273 869.104 122.126C914.115 84.3307 959.987 47.5637 1005.06 9.83205C1025.39 -7.19553 1045.37 -24.7243 1065.93 -41.4783C1079.88 -52.8428 1076.35 -43.9007 1074.35 -31.5948C1066.63 15.7924 1063.75 62.979 1049.74 109.193C1021.88 201.127 961.26 279.788 890.763 343.875C878.895 354.664 866.78 366.127 853.753 375.524C851.254 377.326 846.763 381.632 850.914 375.944C864.817 356.891 873.732 334.307 883.614 313.068C900.365 277.061 917.81 241.024 943.441 210.342C991.546 152.757 1054.7 113.534 1115.46 71.1311C1128.02 62.3601 1140.35 53.1846 1152.99 44.5296C1157.36 41.5386 1162.54 37.9685 1167.08 39.4827" stroke="white" stroke-opacity="0.06" stroke-width="18" stroke-linecap="round"/>
</svg>
