<svg xmlns="http://www.w3.org/2000/svg" width="525" height="300" fill="none" xmlns:v="https://vecta.io/nano"><style><![CDATA[.B{fill:#102048}.C{fill:#fff}.D{fill:#e28b6d}.E{opacity:.4}.F{fill:#1f3c88}.G{fill:#eb5d60}.H{fill:#f9b384}.I{fill:#86a7ff}.J{fill:#3a6bea}.K{fill:#fbc343}]]></style><g clip-path="url(#A)"><path d="M247.452 45.839l-.604-.767c.165-.149 16.918-15.028 41.139-22.574 22.375-6.975 55.879-8.95 88.412 21.243l-.617.755c-32.203-29.882-65.355-27.94-87.499-21.047-24.028 7.486-40.666 22.241-40.831 22.389z" fill="#dadada"/><g fill="#f6f5f5"><path d="M505.883 238.661c-3.495-39.72-17.927-69.869-55.326-91.983-11.031-6.521-24.84-9.717-31.451-21.162-6.565-11.371-4.128-25.894-5.427-39.178-3.347-34.08-33.87-60.432-65.814-64.039s-63.717 11.827-87.992 34.28c-18.207 16.856-34.155 38.355-57.095 46.244-37.828 13.011-78.991-16.011-117.81-6.911-20.891 4.898-38.419 20.498-51.212 38.778C12.34 165.28 7 203.954 13.55 241.487c3.584 20.533 12.348 41.34 24.913 57.312l450.121-.992c13.157-14.038 18.798-42.115 17.299-59.146zM183.382 85.566c19.208 0 34.779-16.609 34.779-37.098S202.59 11.37 183.382 11.37s-34.779 16.61-34.779 37.098 15.571 37.098 34.779 37.098zm68.163-59.319c5.629-6.004 5.629-15.739 0-21.744s-14.756-6.004-20.385 0-5.629 15.739 0 21.744 14.756 6.004 20.385 0zM472.14 133.538c5.629-6.004 5.629-15.739 0-21.744s-14.755-6.004-20.384 0-5.629 15.74 0 21.744 14.755 6.004 20.384 0z"/></g><g fill="#dadada"><path d="M503.723 298.376l-.829-.47c16.907-33.996 18.697-70.539 4.912-100.258-14.502-31.248-44.079-52.269-83.302-59.196l.155-.992c39.527 6.981 69.346 28.198 83.987 59.739 13.925 30.017 12.129 66.893-4.923 101.177zm-462.63 1.442c-20.367-23.401-33.805-51.561-38.856-81.48-4.709-27.851-1.673-55.488 8.569-77.816 15.807-34.492 46.408-52.273 83.943-48.771l-.082.992c-37.133-3.453-67.391 14.12-83.022 48.221-10.147 22.138-13.163 49.552-8.489 77.195 5.02 29.721 18.383 57.723 38.628 80.977l-.69.682z"/></g><path d="M174.296 226.115H53.345v72.624h120.951v-72.624z" fill="#ff9064"/><path opacity=".5" d="M96.682 226.115H53.345v72.624h43.337v-72.624z" fill="#b25834"/><path opacity=".3" d="M119.618 226.115v17.692H130.9v-17.692h-11.282z" class="C"/><path d="M350.2 146.995H150.406V298.739H350.2V146.995Z" class="B"/><path d="M369.654 93.346h-36.962V57.358c-.015-3.487 1.27-6.837 3.57-9.313s5.43-3.877 8.699-3.892 6.409 1.354 8.731 3.808 3.634 5.792 3.649 9.278v.119 22.844.341.69l.037-.02c.236 3.3 1.632 6.384 3.908 8.633s5.265 3.499 8.368 3.499z" class="I"/><g fill="#d3dfff"><path d="M381.969 72.259v7.952c-.001 3.397-1.235 6.662-3.444 9.108s-5.222 3.885-8.404 4.014-6.288-1.064-8.664-3.325-3.838-5.418-4.079-8.805l24.591-8.944zm-36.953-28.035l-.771.03-.489.04-.526.069-.311.052-.384.079-.558.131-.79.25-.385.141-.372.151a5.04 5.04 0 0 0-.517.24 4.88 4.88 0 0 0-.45.232 1.43 1.43 0 0 0-.132.069l-.394.23a11.06 11.06 0 0 0-1.476 1.053l-.396.341-.422.397-.405.422c-.37.401-.715.826-1.034 1.273l-.404.595a15.32 15.32 0 0 0-1.082 2.116l-.215.561a15.93 15.93 0 0 0-.499 1.765l-.113.613-.151 1.253v184.398H167.981V64.709c.001-5.434 2.026-10.645 5.629-14.487s8.489-6 13.583-5.999h157.823z"/></g><g fill="#adc3ff"><path d="M312.481 63.004H187.457v7.018h125.024v-7.018zm-9.688 20.555H187.457v7.018h115.336v-7.018zm-6.079 20.556H187.457v7.018h109.257v-7.018zm15.767 20.556H187.457v7.018h125.024v-7.018zm-8.929 20.807h-67.781v7.018h67.781v-7.018z"/></g><path d="M249.413 184.89c-.743 0-1.437-.272-1.909-.968-.58-.855-.539-2.029-.513-2.804l.639-18.138.939.038-.639 18.138c-.028.845-.026 1.648.334 2.181.8 1.176 2.722.159 3.1-.059 1.892-1.083 3.251-3.12 4.566-5.091 1.461-2.181 2.974-4.456 5.257-5.521 1.356-.633 2.354.296 3.161 1.035.455.423.885.819 1.34.962 1.194.377 2.384.048 3.644-.303 1.116-.312 2.267-.635 3.449-.441 1.084.177 1.958.637 2.804 1.083 1.249.659 2.331 1.228 3.891.823 2.153-.553 4.153-1.86 6.087-3.125l1.684-1.081c2.175-1.349 5.442-3.048 8.692-2.253l-.209.978c-2.932-.714-5.975.878-8.011 2.142l-1.673 1.068c-1.995 1.307-4.06 2.656-6.356 3.247-1.895.486-3.235-.216-4.529-.901-.781-.41-1.588-.836-2.529-.991-.993-.161-2 .121-3.069.418-1.33.369-2.698.752-4.15.296-.649-.198-1.179-.692-1.688-1.164-.838-.778-1.391-1.234-2.164-.877-2.045.954-3.417 3.009-4.867 5.184-1.378 2.065-2.802 4.2-4.888 5.394-.732.443-1.552.693-2.393.73z" class="B"/><path opacity=".3" d="M332.739 153.349v87.366H167.981v-94.978l51.468 45.676c2.837 2.526 6.561 3.488 10.226 2.937 1.073-.162 2.158-.229 3.242-.199l35.082 1.053c1.208.041 2.411.198 3.592.47 3.637.843 7.437.072 10.443-2.294l50.705-40.031z" class="I"/><g fill="#7d69ed"><path d="M225.529 209.902l-1.372 1.624-62.005 73.34-11.742 13.877V146.991l75.119 62.911zM350.2 146.995l-75.121 62.907 75.121 88.837V146.995z"/></g><g fill="#5b4dad"><path d="M224.157 211.525l-62.005 73.34-11.742 2.756v-26.97c30.994-23.694 65.765-51.164 73.708-51.759l.039 2.633zm52.298 0l62.004 73.34 11.741 2.756v-26.97c-30.992-23.694-65.764-51.164-73.708-51.759l-.037 2.633z"/></g><path d="M350.2 298.739H150.406l.037-19.964 68.845-66.619c3.614-3.497 8.32-5.433 13.2-5.431h35.097c4.804-.001 9.442 1.878 13.034 5.281l69.783 66.081-.202 20.652z" fill="#7d69ed"/><path d="M361.183 288.018c13.399-14.293 13.399-37.466 0-51.758s-35.124-14.293-48.523 0-13.399 37.465 0 51.758 35.123 14.292 48.523 0z" fill="#5b4dad" class="E"/><path d="M371.523 288.018c13.399-14.293 13.399-37.466 0-51.758s-35.123-14.293-48.523 0-13.399 37.465 0 51.758 35.124 14.292 48.523 0z" class="G"/><path d="M346.528 281.971a5.47 5.47 0 0 1-2.356-.533c-.742-.352-1.406-.866-1.95-1.509l-12.138-14.299a3.13 3.13 0 0 1-.699-2.157c.043-.79.374-1.529.923-2.06a2.72 2.72 0 0 1 2.013-.775c.741.033 1.439.376 1.944.955l12.138 14.296c.02.025.045.045.074.056s.06.012.09.006.059-.016.083-.036.042-.047.053-.077l13.066-31.73a2.9 2.9 0 0 1 1.56-1.562 2.66 2.66 0 0 1 2.139.055c.679.318 1.213.907 1.487 1.642a3.2 3.2 0 0 1-.021 2.282l-13.067 31.73c-.458 1.103-1.206 2.042-2.153 2.701s-2.055 1.011-3.186 1.013v.002z" class="C"/><g class="B"><path d="M109.122 205.891l1.097 20.22h29.14l-13.161-11.53-.783-8.69-5.17-5.348-11.123 5.348zm-34.939-9.025l-4.7 18.048 23.972 11.197-7.052-17.045 1.723-7.689-5.953-8.355-7.991 3.844z"/></g><path d="M83.426 107.287s-2.82 12.533-1.88 40.109c0 0-8.303 30.917-7.364 49.467l13.944 4.511c7.307-17.314 13.314-33.973 16.508-49.205a28.73 28.73 0 0 0-.08-16.523l-6.714-21.838-14.414-6.521z" class="F"/><path d="M127.624 147.975l-2.209 57.917h-16.292c-4.248-18.862-5.828-34.965-6.382-45.755-.461-9.094-.197-14.409-.197-14.409-10.473-13.186-16.695-22.711-20.315-29.761-5.377-10.465-5.048-15.492-4.447-19.042.809-4.722 3.685-10.838 5.63-14.598 1.091-2.086 1.891-3.451 1.891-3.451l27.263 9.372-3.254 12.543-.056.211c-.24.935-.305 1.912-.191 2.874a7.71 7.71 0 0 0 .859 2.732l14.299 26.562c2.417 4.495 3.596 9.626 3.402 14.804z" class="J"/><g class="F"><path d="M119.148 206.267h-.022c-.093-.007-.18-.052-.241-.127a.39.39 0 0 1-.088-.27c.033-.581 3.394-58.169-.595-67.335-.701-1.61-1.889-3.665-3.267-6.044-5.763-9.956-15.395-26.62-13.373-50.634a.41.41 0 0 1 .036-.147.36.36 0 0 1 .087-.119c.036-.033.079-.058.125-.072s.093-.019.141-.013c.093.009.179.057.239.134s.089.175.081.275c-2.003 23.766 7.559 40.295 13.27 50.173 1.389 2.4 2.586 4.472 3.306 6.122 4.064 9.338.799 65.32.658 67.7a.38.38 0 0 1-.111.255.34.34 0 0 1-.246.102z"/><path opacity=".6" d="M112.565 88.249l-3.254 12.543c-12.54-5.505-21.566-13.882-25.898-18.459 1.091-2.086 1.891-3.451 1.891-3.451l27.261 9.366z"/></g><g class="C"><path d="M117.172 215.39l-.277-5.023 8.983-.173c.047-.004.094.003.139.02s.085.044.118.079.061.077.078.123a.37.37 0 0 1 .024.147c.001.05-.007.099-.024.145s-.042.088-.074.123a.37.37 0 0 1-.113.084c-.042.02-.089.03-.135.031l-8.249.161.186 3.498 8.349-.397a.35.35 0 0 1 .256.1.39.39 0 0 1 .116.261c.005.1-.028.198-.091.273s-.151.119-.245.124l-9.041.424zm-30.769-5.947a.32.32 0 0 1-.106-.018l-7.734-2.634 1.93-4.801 6.814 2.628c.088.034.159.104.199.194s.044.193.012.287-.097.17-.182.212-.181.047-.269.013l-6.189-2.38-1.361 3.389 6.994 2.38c.08.027.149.084.193.161s.061.167.049.256a.38.38 0 0 1-.12.228.34.34 0 0 1-.23.091v-.006z"/></g><path d="M122.201 32.751l-.51 2.027-2.03 8.192-1.372 5.495-12.22-4.684 5.893-12.865 2.878-4.432 7.361 6.267z" class="H"/><path d="M121.693 34.778l-2.032 8.192c-3.599-4.165-2.867-9.376-2.867-9.376l4.899 1.184z" class="B"/><path d="M131.368 21.22s-.782 18.55-9.556 16.964-8.617-17.549-8.617-17.549l11.438-3.923 6.735 4.508z" class="H"/><path d="M119.187 24.024s5.033-5.537 12.181-2.804c0 0 3.161 1.422 4.388-1.337 0 0-10.106-14.278-18.034-7.395 0 0-14.219 3.322-5.763 18.425l7.228-6.889z" class="B"/><g class="H"><path d="M119.829 27.701c1.473-.251 2.448-1.912 2.179-3.712s-1.681-3.056-3.153-2.805-2.448 1.912-2.179 3.712 1.681 3.056 3.153 2.805zm11.827 3.146c.138-.912-.443-1.77-1.297-1.917s-1.659.472-1.797 1.383.442 1.77 1.296 1.917 1.66-.472 1.798-1.383z"/></g><path d="M124.043 31.753c1.493 0 2.703-1.291 2.703-2.883s-1.21-2.884-2.703-2.884-2.703 1.291-2.703 2.884 1.21 2.883 2.703 2.883z" class="E G"/><path d="M174.766 58.873s1.618 2.366-1.673 4.732c0 0 2.623 1.916-6.419 5.075l-3.47 1.093-3.638-14.058s16.141-5.815 16.546-3.95-2.885 4.383-2.885 4.383 5.778-1.515 1.539 2.727z" class="H"/><path d="M159.568 55.712l-19.112 2.614s-27.497-20.89-33.136-18.885-24.676 34.594-24.676 34.594-5.17 1.755-4.936 4.012 33.607 20.714 38.072 16.043c2.808-2.943 6.033-26.405 6.033-26.405l12.161 5.394c3.605 1.6 7.588 1.962 11.395 1.035l17.831-4.337-3.631-14.064z" class="K"/><g opacity=".8" class="C"><path d="M158.358 68.271l-1.88-7.976-.459-2.181-.394-1.864-.703.095.407 1.928.465 2.197 1.881 7.986.603 2.517.688-.169-.608-2.532zM125.64 47.894l-.872.198c-5.295 1.178-10.969 2.13-16.502 1.13a20.55 20.55 0 0 1-7.598-2.987l-.446.595c2.427 1.584 5.119 2.651 7.927 3.143 5.656 1.019 11.401.056 16.764-1.136l1.595-.365-.868-.579zm-7.329 36.12c-1.591.141-3.236.286-4.833.127-4.695-.466-8.859-3.581-11.583-5.886-.967-.815-1.913-1.664-2.857-2.511-2.4-2.158-4.895-4.389-7.684-6.05a18.99 18.99 0 0 0-4.867-2.058l-.401.658c1.724.436 3.382 1.128 4.925 2.057 2.742 1.628 5.206 3.835 7.583 5.969l2.873 2.526c2.788 2.362 7.064 5.553 11.956 6.045 1.66.163 3.346.016 4.958-.127l.482-.036.163-.765-.714.052z"/></g><path d="M121.812 67.684l-4.951-2.316s1.265 8.389 3.652 9.588l1.299-7.272z" fill="#e49b31"/><g class="D"><path d="M166.664 68.68l-3.469 1.093-3.629-14.058 7.098 12.966zm217.495 84.813l11.516 5.515 8.574-30.125-11.233-3.154c-2.971 7.084-5.999 16.151-8.857 27.764z"/></g><g class="B"><path d="M393.016 125.729l11.233 3.153 9.591-28.11s-11.586-1.67-20.824 24.957zm-13.635 17.326l-8.303 24.398 31.02 12.702 6.267-25.402-28.984-11.698z"/></g><path d="M389.586 175.567c-.225.691-2.082 1.518-3.274.397-2.322-.438-3.889-.752-5.338-2.459-1.301-.533-1.885-2.045-1.29-3.316 1.14-2.437 2.906-5.874 3.744-5.737 1.055.171.29 3.641.29 3.641s1.757-4.402 3.425-3.821c.744.261-1.045 4.452-1.225 4.894.281-.397 2.51-3.601 3.363-2.929s-1.225 4.462-1.446 4.862c.241-.319 2.199-2.835 3.151-2.004.414.36-.234 2.917-1.4 6.472z" class="D"/><path d="M447.846 259.536s15.041-1.755 21.38-16.545l-16.685 1.004-4.695 15.541z" class="B"/><path d="M464.454 243.158l-14.414 9.527 6.485 10.16 13.899-10.102-5.97-9.585z" class="D"/><path d="M479.338 267.056l-8.914-14.314-13.899 10.102 2.366 3.711-1.409 19.803 21.856-19.302z" class="B"/><path d="M465.919 265.689l-7.058.382.048 1 7.057-.382-.047-1z" class="C"/><path d="M423.406 270.232l-15.824-1.003v13.667l17.023-1.154-1.199-11.51z" class="D"/><path d="M407.582 282.896v3.213l-11.907 12.7h30.707l-1.777-17.067-17.023 1.154z" class="B"/><path d="M407.449 285.907l-.472.867 6.743 4.177.472-.868-6.743-4.176z" class="C"/><path d="M422.606 182.978c-.243 6.217-.29 12.775-.186 19.383.095 5.735.292 11.502.575 17.156 1.353 28.047 4.482 52.884 4.482 52.884l-24.44 3.349c-11.59-86.234-4.07-122.673-4.07-122.673l10.651-2.317 9.456-2.054 10.597-2.307a10.7 10.7 0 0 0-.387.663c-1.615 2.818-2.894 6.568-3.882 11.02-1.544 6.927-2.409 15.532-2.796 24.896z" class="J"/><path d="M422.993 219.517c-10.248-23.232-6.403-41.703-6.403-41.703l6.016 5.157c-.243 6.217-.29 12.775-.186 19.383.093 5.743.29 11.518.573 17.163z" class="F"/><path d="M469.232 242.992c-11.75 4.759-21.38 16.545-21.38 16.545-10.142-19.123-18.8-38.324-25.428-57.175-5.518-15.683-9.625-31.125-12.004-46.066l-.798-5.535a7.95 7.95 0 0 1-.076-.52l9.532-1.535 10.225-1.644 5.161-.833c.558 3.511 1.301 7.179 2.19 10.961 8.879 37.751 32.578 85.802 32.578 85.802z" class="J"/><g opacity=".8" class="C"><path d="M448.554 194.915l-.446-1.19c-1.926-1.313-3.768-2.759-5.354-4.494-4.432-4.849-6.673-12.03-5.849-18.745.261-2.076.799-4.102 1.595-6.016l-.295-1.095c-1.015 2.209-1.689 4.577-1.999 7.014-.852 6.941 1.465 14.358 6.042 19.365 1.863 2.039 4.048 3.677 6.306 5.161zm12.299 29.947l-.296-.671c-2.593 1.131-5.7 1.325-8.924 1.519-3.255.199-6.62.397-9.571 1.629-2.999 1.247-5.324 3.472-7.014 6.201l.372.793c1.63-2.776 3.915-5.053 6.904-6.296 2.849-1.19 6.158-1.389 9.356-1.587s6.421-.375 9.173-1.588zm-56.31-2.858c7.819 4.234 14.152 11.332 19.751 17.991l-.094-1.239c-5.489-6.489-11.696-13.287-19.336-17.42-2.366-1.287-4.869-2.265-7.455-2.911l.045.793a31.03 31.03 0 0 1 7.089 2.786zm21.624 38.683c-1.958.496-4.091.373-5.862-.07-1.839-.46-3.642-1.219-5.392-1.953-1.859-.781-3.778-1.587-5.763-2.055a17.82 17.82 0 0 0-8.459.145l.085.752a17.2 17.2 0 0 1 8.223-.163c1.939.452 3.832 1.25 5.661 2.021 1.768.744 3.594 1.513 5.483 1.983a13.05 13.05 0 0 0 6.1.087l-.076-.747zm-23.742-70.593c.257 5.249-1.978 10.417-5.65 13.832 0 .317.021.645.032.966 4.09-3.554 6.6-9.154 6.321-14.838-.247-5.055-2.688-9.79-6.321-12.946l-.032.948c3.254 3.015 5.429 7.383 5.65 12.038z"/></g><g class="F"><path d="M436.641 157.19a54.84 54.84 0 0 1-11.233.893c-5.037-.123-10.055-.72-14.994-1.785-6.825-1.434-11.449-3.219-11.449-3.219l10.651-2.316c-.029-.171-.057-.351-.076-.52l9.532-1.535 10.597-2.306a9.93 9.93 0 0 0-.386.662l5.161-.833c.561 3.509 1.305 7.177 2.197 10.959z" class="E"/><path d="M422.419 202.873a.45.45 0 0 1-.271-.092c-.079-.06-.139-.144-.172-.241l-6.79-20.367-8.161-5.257a.5.5 0 0 1-.194-.308c-.026-.126-.005-.257.057-.366s.162-.19.278-.224.24-.019.346.041l8.45 5.43 6.901 20.704c.021.062.03.127.027.193s-.018.131-.045.19a.48.48 0 0 1-.109.157.46.46 0 0 1-.158.1.4.4 0 0 1-.159.04zm16.027-52.751c-15.745 6.387-42.771 2.798-42.771 2.798 1.1-12.204 1.175-48.301 18.801-52.815l7.877.883c4.126 1.725 7.352 8.303 9.776 16.115 1.457 4.652 2.623 9.745 3.543 14.518 1.938 9.973 2.774 18.501 2.774 18.501z"/></g><path d="M435.669 131.62c-7.416-4.603-8.976-14.971-8.976-14.971l5.432.453c1.461 4.662 2.627 9.745 3.544 14.518z" class="B"/><path d="M422.348 100.982l-1.058 16.168 16.175 9.216 3.274-16.751c-14.219-8.964-18.391-8.633-18.391-8.633z" class="F"/><path d="M453.167 123.207a11.62 11.62 0 0 1-1.301 1.735c-.89.983-1.937 1.789-3.092 2.38-1.56.807-3.277 1.208-5.011 1.171s-3.434-.51-4.963-1.381l-1.326-.752 3.281-16.755 2.754 1.775s12.804-19.304 13.745-18.923c.845.331-.594 3.32-.885 3.911.557-.873 4.709-7.369 5.819-6.917.883.349-.235 3.238-.372 3.589.253-.397 2.482-3.891 3.826-3.048.619.397-1.777 4.18-2.012 4.561.29-.301 2.951-3.048 3.609-2.225s-1.907 4.111-2.199 4.482c.264-.252 2.537-2.366 3.262-1.344.939 1.321-10.695 20.521-15.135 27.742z" class="D"/><path d="M451.86 124.937c-.889.983-1.936 1.789-3.092 2.379-1.697.88-3.578 1.277-5.462 1.153-.083-.365-.124-.738-.123-1.113.002-1.093.343-2.154.969-3.018s1.504-1.483 2.495-1.759 2.04-.195 2.983.231 1.727 1.175 2.23 2.127z" class="E G"/><g class="I"><path d="M412.615 149.527c-6.949 0-13.174-.474-16.228-.753l-.372-.032c-.093-.005-.18-.047-.243-.119a.4.4 0 0 1-.097-.266c.001-.099.038-.191.103-.26a.34.34 0 0 1 .246-.107l.418.034c6.961.637 30.491 2.296 41.147-3.006.085-.042.182-.047.269-.013s.159.104.199.194a.4.4 0 0 1 .012.287.37.37 0 0 1-.182.212c-6.095 3.036-16.287 3.829-25.272 3.829zm3.691-38.022c-3.739 0-5.392-2.635-5.418-2.673-.047-.084-.061-.184-.04-.279s.075-.177.152-.23.17-.072.26-.053.169.074.221.153c.123.199 3.073 4.823 10.504.542.041-.027.087-.045.135-.052a.34.34 0 0 1 .142.009.35.35 0 0 1 .127.069.36.36 0 0 1 .092.116.39.39 0 0 1 .041.146c.004.051-.002.102-.017.151s-.039.094-.071.132a.37.37 0 0 1-.114.091c-2.413 1.39-4.408 1.878-6.014 1.878z"/></g><path d="M428.678 69.55c1.975-1.19 4.639-1.289 6.39.242.913.793 1.499 1.945 2.346 2.824 1.815 1.882 4.648 2.354 6.381 4.317 1.344 1.515 1.824 3.724 1.69 5.807s-.82 4.071-1.549 6.009c-1.039 2.764-2.231 5.573-4.315 7.564-.792.761-1.721 1.388-2.762 1.652s-2.2.091-3.046-.595c-.892-.732-1.333-1.957-1.411-3.157s.162-2.392.4-3.57a1.7 1.7 0 0 0 .95.282c.335-.003.662-.107.945-.299a1.87 1.87 0 0 0 .651-.789c.144-.323.199-.683.159-1.038-.134-1.19-1.24-1.947-2.231-2.526l-4.927-2.879c-.959-.561-1.943-1.14-2.666-2.019-1.208-1.468-2.177-4.694-1.377-6.544.886-2.062 2.519-4.166 4.372-5.279z" fill="#fbb81d"/><path d="M409.187 79.299s-.1-11.881 13.732-8.752c2.323.522 4.406 1.887 5.891 3.863 2.252 2.975 3.695 15.468-2.74 18.925-8.063 4.345-16.883-14.036-16.883-14.036z" class="K"/><path d="M423.519 89.325l-.32 11.933c-.04 1.461-.594 2.852-1.552 3.898s-2.249 1.669-3.618 1.746c-.095.009-.186.009-.282.009a5.18 5.18 0 0 1-2.196-.495 5.51 5.51 0 0 1-1.823-1.395c-.51-.595-.9-1.296-1.143-2.06s-.336-1.572-.271-2.376l.019-.198.732-9.065.93-.18 9.524-1.817z" class="D"/><path d="M418.78 93.588c-1.313 3.022-3.602 5.438-6.447 6.808l.732-9.065.93-.18 4.785 2.437z" class="B"/><path d="M409.187 79.299s-3.532 15.667 3.878 16.418 10.458-6.392 10.458-6.392l.941-8.9-4.583-7.018-7.286 2.38-3.408 3.512z" class="D"/><path d="M409.187 79.299s6.812-4.075 9.283 1.378c1.723 3.802 4.348 5.89 6.933 4.636s.47-10.276.47-10.276l-9.634-2.634-5.764 3.51-1.288 3.385z" class="K"/><path d="M425.735 87.079c.889-1.642.578-3.608-.694-4.392s-3.025-.088-3.914 1.554-.577 3.608.695 4.392 3.025.088 3.913-1.554z" class="D"/><g class="B"><path d="M422.701 87.027h-.018a.23.23 0 0 1-.16-.086.26.26 0 0 1-.056-.181c.059-.89.586-2.578 2.153-2.578a.22.22 0 0 1 .096.012c.031.011.06.029.084.053s.044.052.057.084a.27.27 0 0 1 0 .203c-.013.032-.033.061-.057.084a.24.24 0 0 1-.084.053.22.22 0 0 1-.096.012c-1.519 0-1.673 2.023-1.685 2.108-.003.064-.03.124-.073.167a.23.23 0 0 1-.161.069zm-12.391-2.102a.67.67 0 0 1-.101.356.61.61 0 0 1-.27.236c-.11.049-.23.061-.347.037a.59.59 0 0 1-.307-.175c-.084-.09-.141-.204-.165-.328a.67.67 0 0 1 .035-.37.63.63 0 0 1 .221-.287.57.57 0 0 1 .333-.108.58.58 0 0 1 .425.188.66.66 0 0 1 .176.453zm3.99.661c.367 0 .665-.318.665-.71s-.298-.71-.665-.71-.666.318-.666.71.298.71.666.71zm-2.735 3.242c-.521 0-.874-.174-1.052-.52-.465-.904.613-2.6.832-2.931.037-.052.092-.087.153-.097s.122.006.172.044a.25.25 0 0 1 .096.16c.011.064-.002.131-.036.185-.572.857-1.033 1.955-.805 2.398.099.198.357.278.757.256h.013a.23.23 0 0 1 .156.076c.041.045.065.105.067.168s-.019.125-.058.172-.093.078-.152.085l-.143.004z"/></g><path d="M418.437 89.813c1.072-.474 1.581-1.785 1.137-2.928s-1.672-1.686-2.744-1.213-1.581 1.784-1.137 2.928 1.673 1.686 2.744 1.213z" class="E G"/><g class="B"><path d="M411.857 90.995a2.44 2.44 0 0 1-1.116-.254c-.027-.015-.051-.036-.071-.061s-.035-.054-.044-.085-.013-.064-.011-.097.012-.065.026-.094.033-.055.057-.076a.24.24 0 0 1 .08-.047c.029-.01.06-.014.091-.011a.22.22 0 0 1 .088.027c.056.028 1.322.692 2.636-.595.023-.023.049-.04.078-.052a.22.22 0 0 1 .091-.015c.031.001.062.009.09.023s.053.034.074.058a.26.26 0 0 1 .048.084c.011.031.015.064.013.097a.24.24 0 0 1-.023.095c-.013.03-.032.056-.055.079-.547.578-1.282.909-2.052.924zm-.831-7.484c-.397-.122-.804-.199-1.216-.23a1.52 1.52 0 0 0-.536.062c-.196.058-.387.136-.57.232h-.023c-.017.008-.036.011-.055.011s-.038-.005-.055-.013-.033-.02-.046-.035-.023-.032-.03-.051-.011-.038-.011-.058.004-.04.011-.059c.107-.268.293-.492.53-.636a1.5 1.5 0 0 1 .807-.198 1.79 1.79 0 0 1 .75.216 1.91 1.91 0 0 1 .604.521.17.17 0 0 1 .024.053c.005.019.007.04.004.059a.16.16 0 0 1-.018.056c-.01.017-.022.033-.037.045s-.034.023-.054.028-.041.005-.061 0l-.018-.004zm1.742-.22c.17-.307.406-.567.689-.758s.604-.308.937-.341c.352-.028.703.055 1.01.238a1.95 1.95 0 0 1 .695.73c.016.027.024.059.022.092s-.015.063-.034.087-.047.041-.076.049-.061.004-.088-.009h-.017a5.03 5.03 0 0 0-.744-.339 1.55 1.55 0 0 0-.712-.097c-.479.012-.97.272-1.47.555l-.017.01c-.033.017-.07.02-.105.008s-.064-.038-.081-.072c-.015-.022-.024-.048-.025-.075s.004-.054.016-.078zm112.161 215.018H3.209v1.003h521.72v-1.003z"/></g></g><defs><clipPath id="A"><path transform="translate(.069)" d="M0 0h524.861v299.818H0z" class="C"/></clipPath></defs></svg>