<svg xmlns="http://www.w3.org/2000/svg" width="251" height="220" fill="none" xmlns:v="https://vecta.io/nano"><style><![CDATA[.B{fill:#1b1b43}.C{fill:#9192ff}.D{fill:#d1d1ff}.E{fill:#fff}.F{fill:#ffbc96}.G{fill:#ebebff}.H{fill:#fc476a}]]></style><g clip-path="url(#A)"><g fill="#e5e5ff"><path opacity=".4" d="M106.305 32.659c4.66-4.66 4.66-12.216 0-16.876s-12.216-4.66-16.876 0-4.66 12.216 0 16.876 12.216 4.66 16.876 0zm20.04 148.943c7.417 0 13.43-6.012 13.43-13.429s-6.013-13.429-13.43-13.429a13.43 13.43 0 0 0-13.429 13.429 13.43 13.43 0 0 0 13.429 13.429z"/></g><g class="C"><path d="M101.475 187.871h-.423v-.387l1.919-.04.022.385-1.518.042zm-2.368-.107l-1.931-.251.065-.38 1.902.246-.036.385zm5.831-.124l-.051-.383 1.891-.327.078.378-1.918.332zm-9.668-.521l-1.872-.539.121-.368 1.843.531-.091.376zm13.476-.288l-.11-.371 1.82-.61.136.362-1.846.619zm-17.176-.928l-1.77-.819.176-.343 1.742.804-.148.358zm20.815-.446l-.164-.35 1.702-.877.189.337-1.727.887v.003zm-24.293-1.321l-1.625-1.084.224-.309 1.602 1.058-.201.335zm27.676-.588l-.215-.322 1.547-1.125.24.309-1.566 1.135-.006.003zm-30.834-1.684l-1.445-1.306.269-.278 1.424 1.287-.248.297zm33.902-.719l-.261-.287 1.367-1.344.282.264-1.388 1.367zm-36.694-1.998l-1.238-1.507.309-.234 1.215 1.484-.286.257zm39.365-.834l-.3-.245 1.151-1.534.317.219-1.165 1.56h-.003zm-41.711-2.27l-.993-1.674.341-.184.978 1.649-.325.209zm43.931-.928l-.334-.195.908-1.692.347.169-.921 1.713v.005zm-45.786-2.487l-.727-1.804.364-.132.716 1.778-.353.158zm47.504-1.014l-.361-.142.641-1.81.37.114-.658 1.834.008.004zm-48.82-2.644l-.446-1.897.379-.073.439 1.866-.373.104zm49.98-1.071l-.378-.086.358-1.885.383.057-.371 1.902.008.012zm-50.718-2.749l-.155-1.941.385-.017.155 1.913-.385.045zm51.298-1.1l-.385-.028.071-1.917h.387l-.081 1.937.008.008zm-.31-2.204l-.089-1.917.385-.033.091 1.945-.387.005zm-50.752-.572l-.387-.013.136-1.943.384.042c-.09.623-.125 1.267-.155 1.906l.022.008zm50.443-3.25l-.378-1.881.376-.09.383 1.909-.381.062zm-50.027-.565l-.379-.069.425-1.902.374.101c-.19.608-.333 1.238-.449 1.864l.028.006zm49.106-3.169l-.659-1.802.359-.146.669 1.829-.369.119zm-48.147-.543l-.367-.127.712-1.816.354.155-.704 1.788h.005zm46.691-3.005l-.928-1.68.331-.198.938 1.702-.341.176zm-45.162-.512l-.342-.181.976-1.686.328.205-.962 1.662zm43.193-2.768l-1.167-1.523.298-.247 1.184 1.547-.315.223zm-41.146-.464l-.309-.231 1.219-1.521.293.254a18.49 18.49 0 0 0-1.195 1.485l-.008.013zm38.702-2.485l-1.382-1.332.259-.288 1.402 1.352-.279.268zm-36.192-.415l-.272-.275 1.433-1.32.251.294-1.411 1.289v.012zm33.334-2.154l-1.566-1.111.212-.323 1.59 1.126-.236.308zm-30.421-.35l-.227-.309 1.612-1.083.204.328-1.589 1.064zm27.209-1.75l-1.716-.861.155-.353 1.742.876-.181.338zm-23.951-.273l-.179-.342 1.759-.834.155.355-1.735.821zm20.46-1.317l-1.826-.593.106-.371 1.856.6-.136.364zm-16.94-.192l-.124-.365 1.866-.559.096.375-1.838.549zm13.25-.851l-1.893-.31.047-.383 1.923.309-.077.384zm-9.538-.107l-.068-.381 1.929-.269.039.385-1.9.265zm5.733-.365l-1.919-.022-.009-.387 1.946.022-.018.387zM80.532 34.958v-.387a15.97 15.97 0 0 0 1.905-.13l.049.384a16.74 16.74 0 0 1-1.954.133zm-1.953-.098a16.11 16.11 0 0 1-1.928-.331l.088-.378a15.77 15.77 0 0 0 1.882.323l-.042.385zm5.824-.401l-.096-.376a15.95 15.95 0 0 0 1.82-.58l.139.361c-.609.235-1.231.434-1.863.596zm-9.628-.492a16.44 16.44 0 0 1-1.792-.783l.175-.345c.568.29 1.152.545 1.75.764l-.133.364zm13.268-.919l-.183-.34a15.79 15.79 0 0 0 1.626-1l.223.317a16.25 16.25 0 0 1-1.667 1.023zm-16.747-.863a16.49 16.49 0 0 1-1.547-1.188l.252-.293a16.18 16.18 0 0 0 1.518 1.159l-.223.322zm19.945-1.38l-.258-.282c.475-.424.924-.877 1.345-1.355l.291.255c-.431.489-.891.953-1.377 1.388v-.006zM68.34 29.632a16.35 16.35 0 0 1-1.229-1.521l.309-.224a15.85 15.85 0 0 0 1.199 1.485l-.28.26zm25.479-1.759l-.319-.218c.361-.526.69-1.072.986-1.637l.342.18a16.27 16.27 0 0 1-1.009 1.682v-.006zM66.072 26.46a16.19 16.19 0 0 1-.831-1.769l.359-.142a15.97 15.97 0 0 0 .811 1.727l-.339.184zm29.554-2.042l-.362-.136a15.67 15.67 0 0 0 .565-1.826l.376.091a16.45 16.45 0 0 1-.579 1.871zm-30.993-1.583a16.44 16.44 0 0 1-.384-1.919l.384-.053a15.97 15.97 0 0 0 .374 1.872l-.374.099zm31.922-2.211l-.384-.047a16.3 16.3 0 0 0 .113-1.906l-.011-.577.387-.014.011.591a16.55 16.55 0 0 1-.116 1.953zm-32.457-1.656v-.297a16.37 16.37 0 0 1 .084-1.657l.385.039a16.11 16.11 0 0 0-.082 1.619v.289l-.387.008zm31.993-2.774c-.099-.629-.236-1.252-.409-1.865l.371-.105a16.03 16.03 0 0 1 .419 1.909l-.382.06zm-31.219-1.029l-.377-.085a16.22 16.22 0 0 1 .543-1.88l.365.13a15.83 15.83 0 0 0-.531 1.835zm30.182-2.63a15.65 15.65 0 0 0-.842-1.711l.331-.2a15.99 15.99 0 0 1 .868 1.756l-.358.155zm-28.903-.958l-.347-.173c.292-.584.619-1.149.978-1.694l.323.214a15.7 15.7 0 0 0-.955 1.654zm27.018-2.361c-.379-.511-.788-1-1.225-1.462l.278-.266a16.15 16.15 0 0 1 1.256 1.499l-.309.229zm-24.912-.822l-.296-.249c.422-.498.874-.97 1.352-1.414l.263.283a16.45 16.45 0 0 0-1.326 1.38h.006zm22.294-1.948a15.93 15.93 0 0 0-1.538-1.133l.21-.325a16.7 16.7 0 0 1 1.575 1.161l-.248.297zm-19.506-.644l-.227-.309a16.38 16.38 0 0 1 1.646-1.052l.189.337c-.556.309-1.093.651-1.608 1.024zm16.304-1.428a15.68 15.68 0 0 0-1.764-.732l.127-.367a16.56 16.56 0 0 1 1.807.749l-.17.35zm-12.978-.427l-.145-.357a16.31 16.31 0 0 1 1.857-.63l.102.373a15.85 15.85 0 0 0-1.814.614zm9.375-.82a15.88 15.88 0 0 0-1.892-.288l.036-.385a16.2 16.2 0 0 1 1.933.296l-.076.378zm-5.699-.186l-.062-.382a16.5 16.5 0 0 1 1.948-.169l.011.387c-.635.018-1.269.072-1.897.164zM15.432 118.162a5.61 5.61 0 0 1-3.962-9.577 5.61 5.61 0 0 1 6.112-1.214 5.6 5.6 0 0 1 2.517 2.066c.616.922.945 2.006.945 3.115a5.62 5.62 0 0 1-5.612 5.61zm0-10.445c-.956.001-1.891.285-2.686.816a4.84 4.84 0 0 0-2.054 4.965 4.84 4.84 0 0 0 1.324 2.475 4.83 4.83 0 0 0 5.269 1.047 4.84 4.84 0 0 0-1.854-9.303z"/></g><path d="M203.047 46.108H42.28v118.861h160.767V46.108z" class="E"/><path d="M203.434 165.355H41.891V45.721h161.543v119.634zm-160.769-.774H202.66V46.494H42.665v118.087z" class="C"/><g class="D"><path d="M66.573 126.364H53.421v25.452h13.152v-25.452zm20.889-12.693H74.31v38.145h13.153v-38.145zm20.889-26.178H95.199v64.323h13.152V87.493zm20.889 18.585h-13.152v45.738h13.152v-45.738zm20.889-20.171h-13.152v65.909h13.152V85.907zm20.89 3.443h-13.153v62.466h13.153V89.35z"/></g><path d="M191.908 66.526h-13.153v85.29h13.153v-85.29z" fill="#1010ff"/><g fill="#3335cf"><path d="M57.386 141.717l-.351-.691 21.968-11.176 22.654-30.857 20.741 21.711 21.324-21.324 20.679 2.513 20.754-23.829.584.509-21.024 24.137-20.713-2.516-21.616 21.616-20.65-21.616-22.218 30.263-22.132 11.26zm97.642-80.936h-64.73v.774h64.73v-.774zm-21.848 8.511h-21.032v.774h21.032v-.774zM39.683 187.693a33.73 33.73 0 0 0-2.304-19.854c-2.743-6.126-7.393-11.268-13.047-14.422 2.864 3.632 3.602 8.616 3.892 13.345s.269 9.609 1.985 13.982 5.764 8.159 10.192 7.609l-.718-.66z"/><path d="M39.776 189.373a33.72 33.72 0 0 1 2.302-19.854c2.743-6.126 7.395-11.266 13.047-14.419-2.864 3.631-3.601 8.615-3.892 13.342s-.269 9.609-1.984 13.984-5.765 8.157-10.194 7.61l.72-.663z"/></g><path d="M34.701 186.21c-2.852-4.749-3.632-10.844-2.073-16.228s5.416-9.961 10.295-12.186c-1.024 6.809 4.035 13.386 3.13 20.215-.585 4.421-3.904 8.289-7.987 9.31l-3.364-1.111z" class="D"/><g class="C"><path d="M36.777 195.349c-.012-6.785 2.321-13.555 6.548-18.99s10.319-9.509 17.095-11.424c-3.847 2.964-5.663 7.698-6.943 12.275s-2.251 9.366-5.004 13.298-7.918 6.808-12.611 5.339l.914-.498z"/><path d="M38.91 195.712c.012-6.783-2.131-13.553-6.011-18.989s-9.474-9.51-15.695-11.425c3.533 2.966 5.201 7.699 6.375 12.275s2.067 9.366 4.594 13.298 7.273 6.808 11.577 5.341l-.84-.5z"/></g><path d="M50.292 218.865H25.785l-4.213-25.517h32.934l-4.213 25.517z" class="E"/><path d="M50.538 219.157H25.539l-4.309-26.098h33.617l-4.309 26.098zm-24.507-.581h24.015l4.111-24.937H21.914l4.118 24.937z" class="C"/><path d="M82.75 26.46H8.079v58.655H82.75V26.46z" class="E"/><path d="M83.137 85.502H7.692V26.073h75.445v59.429zm-74.672-.774h73.898V26.846H8.466v57.882z" class="C"/><path d="M35.064 36.068H18.223v9.536h16.841v-9.536z" class="D"/><path d="M72.806 36.989H42.167v.405h30.639v-.405z" class="C"/><g class="D"><path d="M72.806 40.635H42.167v.405h30.639v-.405zm0 3.645H42.167v.405h30.639v-.405zm-43.15 20.352h-3.517v10.896h3.517V64.632z"/></g><path d="M33.174 59.33h-3.517v16.198h3.517V59.33z" class="C"/><path d="M42.778 57.498h-3.517v17.963h3.517V57.498z" class="D"/><path d="M46.295 68.812h-3.517v6.647h3.517v-6.647z" class="C"/><path d="M55.899 63.074h-3.517v12.439h3.517V63.074z" class="D"/><path d="M59.417 60.325h-3.517v15.189h3.517V60.325z" class="C"/><path d="M69.021 66.759h-3.517v8.674h3.517v-8.674z" class="D"/><g class="C"><path d="M72.538 54.737h-3.517v20.697h3.517V54.737z"/><path d="M72.538 75.638H18.395V53.791h.405v21.44h53.738v.407z"/></g><path d="M227.241 208.392l2.321 10.378-15.764-.031 6.576-5.676-.483-5.156 7.35.485z" class="B"/><path d="M220.559 212.832l-.373.444 2.611 2.194.373-.444-2.611-2.194z" class="G"/><path d="M196.197 208.228l1.161 10.542h-16.924l7.737-5.707v-5.222l8.026.387z" class="B"/><path d="M188.356 212.833l-.373.444 2.611 2.194.373-.444-2.611-2.194z" class="G"/><g fill="#373660"><path d="M230.045 209.648l-2.514.035-7.462.101-4.143.057c-4.062-14.037-7.864-27.798-10.974-40.799l-1.746-7.555c-2.045-9.21-3.678-17.973-4.719-26.092l-.588-5.141-.348-3.969 18.568 3.094.593 5.3c2.796 23.973 7.574 49.167 13.333 74.969z"/><path d="M206.261 128.799l-.588 6.313-2.371 25.408-.089.967-4.488 48.161h-13.859c.274-27.86 1.184-54.343 4.835-73.904a121.57 121.57 0 0 1 .851-4.209l7.361-1.281 8.348-1.455z"/></g><g class="B"><path d="M199.754 143.442l-.38.073 5.266 27.162.38-.074-5.266-27.161z"/><path opacity=".3" d="M216.712 134.679l-11.045.433-7.18.283-8.8.349.851-4.209 7.361-1.281-.348-3.969 18.568 3.094.593 5.3z"/></g><path d="M196.048 99.79l7.118-.888 14.855 3.112.085 26.769a2.67 2.67 0 0 1-.215 1.057c-.143.334-.353.634-.618.884-.491.463-1.139.723-1.815.725l-24.912.085-4.797-14.494 4.624-13.694 5.675-3.555z" class="H"/><path d="M204.924 105.656a6.05 6.05 0 0 1-4.178-1.637l.198-.211c2.21 2.08 5.682 2.077 8.255 0l.183.226a7.1 7.1 0 0 1-4.458 1.622z" class="B"/><path d="M220.825 104.043a5.99 5.99 0 0 0-5.026-4.629l-9.479-1.303 5.737 9.799 1.774 6.129 8.934-1.261-1.94-8.735z" class="H"/><g class="F"><path d="M224.674 123.268c-.224 3.316-2.228 4.727-4.773 5.307-2.654.603-5.891.309-8.325.309-4 .011-8-.162-11.995-.379l-10.155.096-1.161-1.805c1.323-1.87 4.902-4.318 11.154-2.837l16.216-3.675-1.806-6.245 8.936-1.258 1.83 8.252c.104.74.13 1.489.079 2.235zm-43.564-6.75l6.383 8.026 1.161.291.956-9.343-6.531-3.082-1.969 4.108z"/></g><path d="M202.393 98.046l-9.322 1.476c-1.271.201-2.474.708-3.506 1.477a7.94 7.94 0 0 0-2.418 2.938l-4.062 8.473 6.531 3.082.689-6.711 12.088-10.735z" class="H"/><path opacity=".2" d="M224.674 123.268c-.224 3.316-2.228 4.727-4.773 5.307-.546-.668-.834-1.509-.814-2.371s.349-1.688.925-2.329a3.61 3.61 0 0 1 4.662-.607z" fill="#fe5b52"/><g class="B"><path d="M190.166 108.771l-2.04 18.018.289.033 2.04-18.018-.289-.033zm22.029-.889l-.278.08 3.578 12.38.278-.081-3.578-12.379zm-3.768-31.011a5.25 5.25 0 0 1 .183-1.968 2.79 2.79 0 0 1 1.205-1.584 2.83 2.83 0 0 1 .958-.348 3.47 3.47 0 0 1 1.012-.02 4.42 4.42 0 0 1 1.882.689 3.74 3.74 0 0 1 1.349 1.487c.306.62.371 1.332.181 1.998a4.18 4.18 0 0 1-1.035 1.702 8.1 8.1 0 0 1-1.548 1.216l-.062-.094a8.59 8.59 0 0 0 1.467-1.26c.44-.46.762-1.02.94-1.631a2.58 2.58 0 0 0-.185-1.81c-.291-.559-.725-1.032-1.259-1.368a4.14 4.14 0 0 0-1.756-.658 2.94 2.94 0 0 0-1.814.309 2.59 2.59 0 0 0-1.143 1.436c-.105.301-.176.612-.214.928a7.44 7.44 0 0 0-.042.967l-.119.009z"/><path d="M211.588 80.12a3.1 3.1 0 1 0 0-6.202 3.1 3.1 0 1 0 0 6.202z"/><path d="M213.937 94.178l-1.663-2.545.642 2.816-5.741 1.516-10.785.438.872-8.561c-2.755-1.354-4.709-10.081 5.748-11.551 1.899-.266 3.848-.096 5.612.65 5.377 2.275 7.195 8.306 7.69 16.611l-2.375.627z"/></g><path d="M204.975 103.236c-1.116 0-2.187-.443-2.977-1.231a4.22 4.22 0 0 1-1.236-2.975v-9.129h8.427v9.129a4.22 4.22 0 0 1-1.237 2.975c-.79.788-1.861 1.231-2.977 1.231z" class="F"/><path d="M206.467 93.727c-.902 2.658-3.015 3.902-5.705 4.577v-3.966l5.705-.611z" class="B"/><path d="M209.009 81.025l-.272 11.831s-4.974 3.619-8.455 2.579c-1.168-.348-1.961-1.676-2.499-3.327-.259-.824-.461-1.664-.607-2.514a39.74 39.74 0 0 1-.518-6.295l12.351-2.275z" class="F"/><g class="B"><path d="M198.834 88.302c0 .351-.211.636-.465.636s-.464-.285-.464-.636.211-.638.464-.638.465.285.465.638zm3.108.458c.294 0 .533-.33.533-.738s-.239-.738-.533-.738-.532.33-.532.738.238.738.532.738zm1.736-2.24c-.02.181-.619.223-1.295.105s-1.238-.084-1.134-.529c.088-.365.619-.334 1.289-.217s1.157.483 1.14.641zm-6.562.407c.023.178.539.17 1.103 0s1.051-.184.943-.619c-.09-.356-.539-.282-1.104-.111s-.964.574-.942.73z"/></g><g fill="#fe5b52"><path opacity=".2" d="M205.989 89.56c0 .273-.081.539-.233.766s-.367.403-.619.508a1.38 1.38 0 0 1-1.503-.299c-.192-.193-.323-.439-.376-.706s-.026-.545.079-.797.281-.467.508-.618a1.38 1.38 0 0 1 1.74.173c.259.258.404.609.404.974zm-7.59 1.404a1.37 1.37 0 0 1-.619 1.145 19.21 19.21 0 0 1-.607-2.514 1.38 1.38 0 0 1 1.226 1.369z"/></g><path d="M199.917 88.864a.72.72 0 0 1-.061.361 1.5 1.5 0 0 1-.176.296 1.7 1.7 0 0 0-.282.472.43.43 0 0 0 0 .207.44.44 0 0 0 .109.19 1.26 1.26 0 0 0 .481.28l-.014.155a.95.95 0 0 1-.688-.173c-.113-.084-.198-.198-.247-.33s-.054-.28-.021-.419a1.36 1.36 0 0 1 .404-.588c.145-.124.261-.28.339-.455l.156.005z" class="B"/><path d="M199.558 92.002c.507 1.62 2.683.798 2.853-.726l-2.853.726z" class="E"/><path d="M196.245 85.184c3.641 0 6.697-.342 9.575-1.741.309 2.375 1.329 3.522 2.708 4.158l2.901-2.417-1.499-4.877-7.882-.436-6.092 3.047.289 2.267z" class="B"/><path d="M210.812 89.345c.785-1.115.792-2.461.016-3.007s-2.041-.085-2.825 1.03-.791 2.461-.015 3.007 2.04.085 2.824-1.03z" class="F"/><path d="M208.721 89.146c-.055-.205-.072-.418-.048-.628a1.38 1.38 0 0 1 .229-.619c.132-.187.315-.334.526-.422.199-.086.415-.123.63-.108l.026.155c-.172.075-.338.162-.498.26-.143.091-.268.207-.368.344a1.54 1.54 0 0 0-.22.464c-.051.183-.093.369-.125.557l-.152-.001z" class="B"/><path d="M212.573 79.998a9.66 9.66 0 0 1-1.084-.774l-.981-.809-.973-.786-1.054-.761c.465-.036.931.044 1.356.234.423.18.816.422 1.167.719.347.29.659.62.928.984s.487.766.641 1.193z" fill="#ffa121"/><path d="M198.84 128.542h-10.251v3.03h10.251v-3.03z" class="B"/><path d="M191.877 131.574h-23.21l-10.186-22.004h23.21l10.186 22.004z" class="G"/><path d="M183.286 130.596a1.09 1.09 0 0 0-.894 1.075v-2.398a.98.98 0 0 0-.229-.646.97.97 0 0 0-.598-.334c-.127-.015-.256-.004-.379.033a.93.93 0 0 0-.334.182.92.92 0 0 0-.233.3c-.056.115-.088.241-.093.369v-.967c.005-.238-.078-.47-.232-.651s-.371-.299-.607-.332a.94.94 0 0 0-.387.039c-.125.041-.239.107-.337.194s-.175.195-.228.315-.079.25-.079.381v1.019c-.005-.128-.037-.254-.093-.369a.93.93 0 0 0-.234-.301c-.098-.083-.212-.144-.334-.181a.92.92 0 0 0-.38-.032.97.97 0 0 0-.825.979v1.904c-.025-.486-.396-1.084-.902-1.138-1.04-.096-.811 1.73-.811 1.73.31 1.857.85 2.052 1.958 2.132 1.748.123 3.502.123 5.25 0 1.114-.075 1.289-.196 1.775-1.856.164-.717.024-1.602-.774-1.447z" class="F"/><g fill="#d28572"><path d="M176.815 129.862a7.6 7.6 0 0 1 .121 1.175v.588a4.88 4.88 0 0 1-.054.591h-.113a4.47 4.47 0 0 1-.089-.587l-.032-.588a7.5 7.5 0 0 1 .056-1.179h.111zm1.903-.693a8.28 8.28 0 0 1 .122 1.247v.619a5.35 5.35 0 0 1-.054.619h-.113a5.15 5.15 0 0 1-.088-.619l-.034-.619a8.3 8.3 0 0 1 .053-1.251l.114.004zm1.865 0a7.43 7.43 0 0 1 .137 1.181c.01.196.013.394 0 .592a4.39 4.39 0 0 1-.044.596h-.113a4.87 4.87 0 0 1-.096-.59l-.042-.591c-.02-.396-.008-.794.037-1.188h.121zm2.421 1.54c-.085.119-.155.249-.207.387l-.166.428-.168.437c-.059.148-.126.292-.201.433l-.11-.031a2.5 2.5 0 0 1 .068-.48 3.4 3.4 0 0 1 .141-.464 2.77 2.77 0 0 1 .216-.441c.086-.152.211-.278.362-.365l.065.096z"/></g><path d="M231.189 81.076V91.7l-4.901 3.482h4.901 18.227V81.076h-18.227z" class="E"/><g class="C"><path d="M249.61 95.375h-23.928l5.313-3.776V80.883h18.615v14.492zm-22.715-.387h22.328V81.27h-17.841v10.522l-4.487 3.197zm13.158-3.11l-2.977-2.866.537-.557 2.247 2.163 3.819-7.002.679.37-4.305 7.891z"/></g><path d="M250.06 218.576H0v.58h250.06v-.58z" class="B"/></g><defs><clipPath id="A"><path d="M0 0h250.06v219.156H0z" class="E"/></clipPath></defs></svg>