<svg xmlns="http://www.w3.org/2000/svg" xmlns:xlink="http://www.w3.org/1999/xlink" width="371" height="342" fill="none" xmlns:v="https://vecta.io/nano"><style><![CDATA[.B{fill:#263238}.C{fill:#fff}.D{fill:#ff725e}.E{fill:#ffbf9d}.F{fill:#ff9a6c}.G{opacity:.3}.H{fill:#455a64}.I{fill:#e0e0e0}.J{fill:#ebebeb}]]></style><g class="I"><path d="M230.886 87.246c.114 0 .196.465.18 1.029s-.123 1.012-.237 1.012-.204-.457-.188-1.029.155-1.021.245-1.012zm1.543-7.927c-.022.682-.157 1.355-.4 1.992a5.98 5.98 0 0 1-.669 1.919c-.074-.688.012-1.384.253-2.033a4.23 4.23 0 0 1 .816-1.878zm3.984-7.013c.098.073-.408.816-1.037 1.739s-1.143 1.633-1.249 1.633c.143-.68.452-1.313.898-1.845.67-.963 1.307-1.6 1.388-1.527zm6.042-5.364c.065.098-.645.669-1.527 1.339a6.24 6.24 0 0 1-1.698 1.118c-.073-.09.539-.816 1.437-1.453a4.32 4.32 0 0 1 1.788-1.004zm7.209-3.666a5.1 5.1 0 0 1-1.723.988 5 5 0 0 1-1.943.62 5.15 5.15 0 0 1 1.764-1.012c.588-.323 1.235-.526 1.902-.596zm7.74-2.368a5.05 5.05 0 0 1-1.894.735 5.25 5.25 0 0 1-2.017.318 4.97 4.97 0 0 1 1.902-.735 5.07 5.07 0 0 1 2.009-.318zm7.96-1.501c-1.268.504-2.629.732-3.992.669a5.01 5.01 0 0 1 1.959-.547 5.12 5.12 0 0 1 2.033-.123zm8.058-.8a9.93 9.93 0 0 1-4.041.253c.639-.251 1.322-.368 2.008-.343a4.9 4.9 0 0 1 2.033.09zm8.075.53a4.9 4.9 0 0 1-2.033 0c-.687-.005-1.365-.152-1.992-.433a9.72 9.72 0 0 1 4.025.441v-.008zm7.854 1.943a5.23 5.23 0 0 1-2.001-.367 5.11 5.11 0 0 1-1.885-.816 5.06 5.06 0 0 1 2.008.376 4.9 4.9 0 0 1 1.878.808zm7.348 3.364a4.91 4.91 0 0 1-1.886-.743 4.95 4.95 0 0 1-1.699-1.118c.675.118 1.319.371 1.895.743.996.522 1.755 1.02 1.69 1.118zm6.507 4.801c-.082.09-.817-.457-1.633-1.159s-1.535-1.315-1.462-1.412a4.58 4.58 0 0 1 1.715 1.078c.857.718 1.461 1.412 1.38 1.494zm5.249 6.147c-.098.065-.669-.637-1.347-1.519a5.81 5.81 0 0 1-1.094-1.706c.09-.073.759.547 1.437 1.453a4.48 4.48 0 0 1 1.004 1.772zm3.715 7.184a5.79 5.79 0 0 1-.972-1.788 5.84 5.84 0 0 1-.685-1.91c.865 1.065 1.429 2.342 1.632 3.699h.025zm1.984 7.814a5.91 5.91 0 0 1-.531-1.96 5.87 5.87 0 0 1-.228-2.016 4.61 4.61 0 0 1 .645 1.943c.2.659.24 1.356.114 2.033zm.033 8.099a5.74 5.74 0 0 1 0-2.025 5.7 5.7 0 0 1 .269-2.017 7.5 7.5 0 0 1-.245 4.082l-.024-.041zm-2.156 7.781a5.05 5.05 0 0 1 .547-1.952c.15-.667.427-1.299.817-1.861a4.67 4.67 0 0 1-.417 2 4.98 4.98 0 0 1-.947 1.813zm-4.4 6.759c-.09-.082.449-.816 1.126-1.682s1.233-1.592 1.339-1.527a4.27 4.27 0 0 1-1.004 1.797c-.686.881-1.38 1.494-1.461 1.412zm-6.328 5.006c-.049-.107.702-.605 1.633-1.217.529-.427 1.121-.768 1.755-1.012.074.089-.571.743-1.518 1.371-.541.439-1.184.734-1.87.858zm-7.723 2.212c.635-.237 1.3-.382 1.976-.433.653-.183 1.33-.265 2.008-.244-.577.384-1.244.611-1.935.661-.67.186-1.377.191-2.049.016zm-7.813-1.731c1.299.365 2.566.837 3.788 1.412-.694.052-1.39-.08-2.017-.384-1.061-.4-1.829-.922-1.771-1.028zm-6.05-5.266c.098-.065.677.621 1.42 1.437s1.372 1.462 1.29 1.56c-.644-.277-1.207-.716-1.633-1.274-.734-.849-1.175-1.665-1.077-1.723zm-2.694-7.536a8 8 0 0 1 .449 1.967 7.46 7.46 0 0 1 .343 1.993 3.85 3.85 0 0 1-.76-1.903c-.211-.668-.222-1.383-.032-2.057zm2.408-7.568a7.93 7.93 0 0 1-.874 1.812c-.25.629-.576 1.224-.971 1.772.003-.7.21-1.383.596-1.967.522-1.012 1.167-1.69 1.249-1.617zm6.246-5.045c.057.114-.719.58-1.633 1.168a6.95 6.95 0 0 1-1.813 1.02c-.073-.09.58-.743 1.543-1.339a4.2 4.2 0 0 1 1.903-.849zm7.723-2.336a6.2 6.2 0 0 1-1.943.572 5.93 5.93 0 0 1-2.008.294 4.35 4.35 0 0 1 1.918-.71 4.26 4.26 0 0 1 2.033-.155zm8.091-.179a4.97 4.97 0 0 1-2.033.139 5.04 5.04 0 0 1-2.016-.278c.659-.195 1.352-.245 2.032-.147a5.06 5.06 0 0 1 2.017.286zm7.919 1.6a5.72 5.72 0 0 1-1.992-.359 5.65 5.65 0 0 1-1.926-.661 4.47 4.47 0 0 1 2.032.253 4.4 4.4 0 0 1 1.886.767z"/><path d="M316.742 95.574a5.93 5.93 0 0 1-1.845-.817 5.82 5.82 0 0 1-1.715-1.086 4.36 4.36 0 0 1 1.919.718c.988.514 1.706 1.086 1.641 1.184zm6.188 5.185c-.089.081-.816-.49-1.575-1.274s-1.421-1.437-1.331-1.535a4.08 4.08 0 0 1 1.633 1.225c.792.8 1.396 1.51 1.273 1.584zm4.524 6.686c-.107.057-.588-.71-1.143-1.633a5.88 5.88 0 0 1-.89-1.82c.089-.066.694.636 1.257 1.632.394.54.659 1.163.776 1.821zm2.702 7.617c-.579-1.228-.959-2.539-1.127-3.886a4.44 4.44 0 0 1 .817 1.869c.26.639.366 1.33.31 2.017zm1.012 8.026c-.251-.639-.373-1.322-.359-2.008a5.1 5.1 0 0 1 .049-2.033 4.73 4.73 0 0 1 .367 2 4.81 4.81 0 0 1-.057 2.041zm-.473 8.075c-.14-1.356.001-2.727.416-4.025.142.67.142 1.362 0 2.033-.001.685-.143 1.363-.416 1.992zm-1.829 7.886a9.84 9.84 0 0 1 1.078-3.91c.03.685-.084 1.369-.335 2.008a5.07 5.07 0 0 1-.743 1.902zm-3.111 7.463c.097-.677.33-1.327.686-1.911.482-1.004.906-1.804 1.021-1.755-.065.684-.283 1.346-.637 1.935-.236.643-.6 1.232-1.07 1.731zm-4.123 6.972a5.12 5.12 0 0 1 .907-1.829c.596-.939 1.159-1.633 1.257-1.592-.169.663-.475 1.283-.898 1.821-.604.947-1.168 1.665-1.266 1.6zm-4.857 6.474c.243-.638.613-1.221 1.085-1.715.694-.881 1.331-1.534 1.429-1.461a5.15 5.15 0 0 1-1.094 1.723c-.694.881-1.331 1.535-1.42 1.453zM311.386 166c-.081-.082.457-.817 1.217-1.633s1.445-1.421 1.535-1.347-.458.816-1.217 1.633-1.453 1.428-1.535 1.347zm-5.756 5.698c-.081-.082.507-.816 1.307-1.559s1.526-1.331 1.632-1.25-.506.776-1.314 1.56-1.543 1.339-1.625 1.249zm-5.976 5.47c-.073-.081.531-.767 1.363-1.51s1.568-1.29 1.633-1.2-.522.767-1.355 1.51-1.559 1.29-1.641 1.2zm-4.564 4.034c-.073-.082.204-.457.629-.816s.816-.605.906-.515-.204.466-.629.817-.824.604-.906.514zM59.713 164.13c.098-.057.425.278.727.751s.474.907.375.972-.424-.269-.727-.743-.474-.914-.376-.98zm-3.976-7.144a5.22 5.22 0 0 1 1.135 1.715 5.3 5.3 0 0 1 .767 1.91c-.106.057-.612-.71-1.143-1.714a5.14 5.14 0 0 1-.759-1.911zm-3.257-7.503a5.31 5.31 0 0 1 .963 1.813 5.17 5.17 0 0 1 .572 1.976 5 5 0 0 1-.963-1.813 5.2 5.2 0 0 1-.572-1.976zm-2.49-7.789a5.34 5.34 0 0 1 .816 1.903c.262.642.387 1.331.367 2.024a5.26 5.26 0 0 1-.776-1.902 5.05 5.05 0 0 1-.408-2.025zm-1.699-8.033c.328.608.526 1.279.58 1.968.191.665.247 1.362.163 2.049a5.05 5.05 0 0 1-.58-1.968c-.191-.665-.247-1.362-.163-2.049zm-.84-8.107a4.97 4.97 0 0 1 .367 2.024c.121.683.105 1.382-.049 2.058a4.9 4.9 0 0 1-.367-2.025 5.17 5.17 0 0 1 .049-2.057zm.057-8.181a5.08 5.08 0 0 1 .147 2.049 5.24 5.24 0 0 1-.286 2.041c-.189-.668-.236-1.369-.139-2.057-.047-.69.047-1.381.278-2.033zm.996-8.115a4.9 4.9 0 0 1-.098 2.049 5.22 5.22 0 0 1-.514 1.992 4.9 4.9 0 0 1 .098-2.049 5.1 5.1 0 0 1 .514-1.992zm1.975-7.936a4.99 4.99 0 0 1-.351 2.025 5.08 5.08 0 0 1-.759 1.91 9.97 9.97 0 0 1 1.11-3.935zm2.923-7.667a4.94 4.94 0 0 1-.588 1.968 5.03 5.03 0 0 1-.988 1.804 5.11 5.11 0 0 1 .596-1.968 5.05 5.05 0 0 1 .98-1.804zm3.829-7.208a5.17 5.17 0 0 1-.816 1.886c-.555.98-1.094 1.731-1.2 1.633a5.29 5.29 0 0 1 .816-1.886c.563-.955 1.094-1.69 1.2-1.633zm4.662-6.671c-.226.655-.582 1.257-1.045 1.772-.669.898-1.29 1.576-1.388 1.51a4.95 4.95 0 0 1 1.045-1.764c.678-.955 1.29-1.633 1.388-1.519zm5.454-6.131c.082.082-.482.816-1.257 1.633s-1.478 1.412-1.568 1.339.482-.816 1.257-1.633 1.486-1.421 1.568-1.339zm6.188-5.347c.065.09-.58.743-1.453 1.453a5.21 5.21 0 0 1-1.731 1.119c-.073-.09.58-.735 1.461-1.453s1.649-1.216 1.723-1.118zm6.834-4.483c.057.098-.678.653-1.633 1.241-.554.418-1.187.718-1.861.882-.065-.098.669-.653 1.633-1.249a4.9 4.9 0 0 1 1.861-.874zm7.389-3.502a5.12 5.12 0 0 1-1.796 1.004 5.01 5.01 0 0 1-1.96.612 5.07 5.07 0 0 1 1.796-1.004c.605-.335 1.272-.543 1.959-.612zm7.805-2.449a5.06 5.06 0 0 1-1.919.751 5.07 5.07 0 0 1-2.025.343 4.9 4.9 0 0 1 1.91-.751 5.12 5.12 0 0 1 2.033-.343zm8.05-1.38c-.625.295-1.302.461-1.992.49a5.07 5.07 0 0 1-2.05.065c.624-.299 1.302-.466 1.992-.49.671-.166 1.37-.188 2.05-.065zm8.172-.327a5.15 5.15 0 0 1-2.041.229c-.69.075-1.388.006-2.049-.204a10.15 10.15 0 0 1 4.082 0l.008-.024zm8.14.759c-1.382.121-2.774-.054-4.082-.514.682-.119 1.381-.103 2.057.049a4.99 4.99 0 0 1 2.025.465zm8.001 1.837a9.98 9.98 0 0 1-3.952-1.061c1.376.08 2.721.441 3.952 1.061zm7.593 2.955c-.69-.071-1.359-.279-1.968-.612a5.38 5.38 0 0 1-1.796-1.004 4.99 4.99 0 0 1 1.968.612c.66.211 1.27.553 1.796 1.004zm7.103 4.042c-.668-.175-1.295-.48-1.845-.898a5.37 5.37 0 0 1-1.633-1.257c.065-.114.89.294 1.853.89s1.69 1.167 1.625 1.265zm6.482 4.988c-.081.09-.816-.425-1.714-1.135s-1.519-1.372-1.445-1.47c.643.26 1.227.649 1.714 1.143.874.702 1.494 1.372 1.445 1.461zm5.805 5.772c-.09.082-.816-.522-1.559-1.331s-1.339-1.551-1.258-1.633.817.514 1.56 1.339 1.347 1.527 1.257 1.625zm5.16 6.336c-.098.065-.735-.596-1.421-1.494a5.14 5.14 0 0 1-1.077-1.747c.089-.073.726.596 1.412 1.494a5.09 5.09 0 0 1 1.086 1.747zm4.539 6.801c-.098.057-.669-.661-1.273-1.633-.431-.545-.745-1.173-.923-1.845.098-.065.67.661 1.282 1.633a4.89 4.89 0 0 1 .914 1.845zm3.993 7.135a5.21 5.21 0 0 1-1.152-1.698 5.08 5.08 0 0 1-.775-1.902 9.87 9.87 0 0 1 1.927 3.6zm2.669 5.535c-.106.049-.383-.326-.62-.816s-.343-.963-.237-1.012.384.326.621.816.342.963.236 1.012zM71.2 201.123c-.057-.106.318-.376.817-.613s.971-.334 1.012-.228-.327.384-.816.612-.963.335-1.012.229zm-6.654 4.384c-.082-.082.539-.751 1.429-1.42a4.33 4.33 0 0 1 1.755-.988c.065.098-.629.661-1.502 1.33a5.57 5.57 0 0 1-1.682 1.078zm-5.437 5.886a5.04 5.04 0 0 1 1.119-1.633c.702-.857 1.347-1.494 1.437-1.412-.255.628-.633 1.2-1.11 1.682-.702.8-1.347 1.428-1.445 1.363zm-4.041 6.891a4.85 4.85 0 0 1 .735-1.87c.514-.987 1.004-1.739 1.11-1.681a5.03 5.03 0 0 1-.735 1.877 4.96 4.96 0 0 1-1.11 1.674zm-2.547 7.576c-.03-.677.084-1.353.335-1.984a4.97 4.97 0 0 1 .743-1.869 9.55 9.55 0 0 1-1.078 3.853zm-.939 7.936a4.89 4.89 0 0 1-.082-2.008 4.74 4.74 0 0 1 .343-1.984 9.51 9.51 0 0 1-.261 3.992zm.832 7.944c-.577-1.232-.8-2.6-.645-3.952.415 1.277.633 2.609.645 3.952zm2.678 7.527a7.47 7.47 0 0 1-1.567-3.682c.416.531.728 1.134.923 1.78a5.59 5.59 0 0 1 .645 1.902zm4.311 6.72c-.09.073-.694-.596-1.347-1.494a4.97 4.97 0 0 1-.996-1.747c.098-.066.702.604 1.347 1.494a5.05 5.05 0 0 1 .996 1.747zm5.658 5.682c-.074.09-.817-.441-1.633-1.192s-1.421-1.42-1.331-1.502.816.449 1.633 1.192 1.331 1.413 1.331 1.502zm6.58 4.49a4.97 4.97 0 0 1-1.821-.865c-.947-.58-1.633-1.127-1.633-1.225a5.03 5.03 0 0 1 1.813.866c.98.571 1.698 1.118 1.641 1.224zm7.34 3.16a4.8 4.8 0 0 1-1.943-.506 4.8 4.8 0 0 1-1.804-.907c.678.036 1.341.208 1.951.506a4.91 4.91 0 0 1 1.796.907zm7.813 1.698c-.671.096-1.354.054-2.009-.122a4.8 4.8 0 0 1-1.935-.539 5 5 0 0 1 2.008.122 4.8 4.8 0 0 1 1.935.539zm7.993.065a4.75 4.75 0 0 1-1.992.302 4.9 4.9 0 0 1-2.008-.122 5.06 5.06 0 0 1 1.992-.302 5.02 5.02 0 0 1 2.008.122zm7.83-1.608c-.571.363-1.21.605-1.878.711a4.9 4.9 0 0 1-1.992.294 5 5 0 0 1 1.886-.711 4.82 4.82 0 0 1 1.984-.294zm7.348-3.135c.057.106-.711.58-1.707 1.061a4.74 4.74 0 0 1-1.894.678c.491-.466 1.072-.827 1.706-1.062a5.12 5.12 0 0 1 1.895-.677zm6.653-4.434c.074.09-.587.702-1.485 1.356s-1.674 1.11-1.739 1.012.604-.702 1.485-1.355c.507-.45 1.098-.794 1.739-1.013zm5.781-5.518c.09.073-.466.816-1.233 1.592s-1.461 1.379-1.543 1.29a5.25 5.25 0 0 1 1.233-1.633c.759-.751 1.453-1.331 1.543-1.249zm4.711-6.442c.106.057-.319.857-.939 1.78s-1.2 1.632-1.29 1.543a4.89 4.89 0 0 1 .939-1.78c.645-.915 1.224-1.609 1.29-1.543zm3.576-7.169c-.069.675-.278 1.329-.613 1.919-.441 1.012-.89 1.796-.996 1.739a9.68 9.68 0 0 1 1.633-3.658h-.024zm1.763-5.771c.114 0 .09.498-.049 1.045s-.343.972-.457.939-.09-.498.049-1.045.343-.964.457-.939z"/></g><path d="M215.727.688l-36.508 9.803c-1.415.38-2.254 1.835-1.874 3.251l6.779 25.248c.38 1.415 1.835 2.255 3.251 1.875l36.507-9.803c1.416-.38 2.255-1.835 1.875-3.251l-6.78-25.248c-.38-1.415-1.835-2.255-3.25-1.875z" fill="#f5f5f5"/><g class="I"><path d="M217.366 3.897a2.61 2.61 0 0 1-.269.425l-.817 1.159-3.11 4.229-4.654 6.238-2.751 3.682-1.47 1.943a4.15 4.15 0 0 1-2.139 1.461 4.08 4.08 0 0 1-2.596-.131l-2.237-.947-4.238-1.78-7.135-3.094-4.801-2.123-1.298-.596a2.7 2.7 0 0 1-.441-.229 2.26 2.26 0 0 1 .474.155l1.33.523 4.85 1.992 7.176 2.972 4.238 1.796 2.229.939c.742.287 1.557.325 2.323.108s1.44-.675 1.922-1.308l1.47-1.935 2.776-3.658 4.727-6.156 3.216-4.147.89-1.11c.096-.148.208-.285.335-.408z"/><path d="M196.065 21.197c.098.057-1.943 3.592-4.564 7.879l-4.898 7.666c-.082-.065 1.935-3.592 4.556-7.887l4.906-7.658zm10.304-2.767c.057-.098 3.592 1.943 7.886 4.556l7.658 4.899c-.065.073-3.592-1.943-7.886-4.556l-7.658-4.899z"/></g><path d="M347.203 103.036a20.19 20.19 0 0 1-20.19-20.19 20.16 20.16 0 0 1 1.53-7.734c1.013-2.453 2.499-4.681 4.375-6.559a20.19 20.19 0 0 1 6.553-4.383c2.451-1.016 5.078-1.539 7.732-1.539a20.19 20.19 0 0 1 20.19 20.182 20.17 20.17 0 0 1-1.527 7.737c-1.013 2.453-2.499 4.683-4.375 6.561a20.19 20.19 0 0 1-6.554 4.385c-2.452 1.017-5.08 1.54-7.734 1.54z" class="J"/><path d="M344.125 95.052h4.899V82.748h3.42l.368-4.082h-3.797v-2.384c0-.972.196-1.355 1.135-1.355h2.662v-4.278h-3.405c-3.657 0-5.306 1.633-5.306 4.695v3.266h-2.556v4.172h2.556l.024 12.271z" class="C"/><g class="J"><path d="M95.334 319.979c.198.867.135 1.773-.181 2.604a4.5 4.5 0 0 1-4.072 2.896 4.5 4.5 0 0 1-4.235-2.653c-.365-.811-.481-1.712-.333-2.589a4.5 4.5 0 0 1 3.425-3.638c.576-.133 1.173-.151 1.757-.053s1.141.31 1.643.623a4.5 4.5 0 0 1 1.278 1.206c.343.482.587 1.027.719 1.604z"/><path d="M74.099 324.918l33.718-7.74-2.939-2.139a9.37 9.37 0 0 1-3.6-5.462l-2.099-9.144c-.751-3.258-2.764-6.084-5.598-7.859s-6.256-2.351-9.514-1.603-6.085 2.764-7.859 5.597-2.351 6.256-1.603 9.515l2.017 8.826a9.3 9.3 0 0 1-.645 6.066l-1.878 3.943z"/><path d="M83.001 287.054l-.43.099a1.48 1.48 0 0 0-1.11 1.771l.952 4.145a1.48 1.48 0 0 0 1.771 1.11l.43-.099a1.48 1.48 0 0 0 1.11-1.771l-.952-4.145a1.48 1.48 0 0 0-1.771-1.11z"/></g><g class="I"><path d="M107.842 317.251c0 .074-7.471 1.846-16.713 3.968l-16.778 3.715c-.016-.065 7.47-1.845 16.721-3.968l16.77-3.715z"/><path d="M86.598 322.126c1.435.657 3.04.846 4.588.538 1.645-.338 3.12-1.238 4.172-2.547l-8.76 2.009zm10.54-22.893c-.086-.392-.259-.761-.506-1.077a.89.89 0 0 0-.506-.296c-.197-.038-.401-.009-.58.083a.95.95 0 0 0-.531 1.07l1.404 6.531c.286 1.576.449 3.266-.286 4.728-.622 1.085-1.604 1.92-2.776 2.359-1.165.432-2.368.755-3.592.963a18.94 18.94 0 0 0-4.474 1.421 2.41 2.41 0 0 0-.988.759.93.93 0 0 0-.162.594c.015.211.101.41.244.566.162.102.344.17.534.196s.384.013.568-.041a57.75 57.75 0 0 0 11.593-2.45 3.95 3.95 0 0 0 2.049-1.306 4.08 4.08 0 0 0 .392-2.71 64.8 64.8 0 0 0-2.384-11.39zm-5.412-7.691c0 .049-.767-.27-2.025-.523a13.13 13.13 0 0 0-2.245-.253 15.11 15.11 0 0 0-2.76.212c-.906.17-1.795.424-2.653.76a13.11 13.11 0 0 0-2.017 1.004c-1.102.677-1.69 1.233-1.723 1.192s.131-.155.4-.408c.16-.152.329-.294.506-.425a7.45 7.45 0 0 1 .719-.514c.64-.421 1.318-.782 2.025-1.078a14.4 14.4 0 0 1 2.702-.816c.927-.159 1.868-.225 2.809-.196.765.028 1.525.131 2.27.31a6.99 6.99 0 0 1 .816.228 5.39 5.39 0 0 1 .629.229 2.51 2.51 0 0 1 .547.278z"/></g><path d="M76.76 320.256c-.082 0 .359-1.086.514-2.449s0-2.506.082-2.523c.446 1.675.232 3.458-.596 4.98v-.008zm15.496 4.123s-.229.196-.678.327a3.43 3.43 0 0 1-1.821 0c-.596-.162-1.137-.481-1.568-.923-.319-.343-.441-.612-.416-.629.191.157.373.323.547.498a3.79 3.79 0 0 0 1.508.808 3.81 3.81 0 0 0 1.709.066l.719-.147zm-9.854-36.747a6.48 6.48 0 0 0-.318 1.224c.014.421.066.839.155 1.25a1.45 1.45 0 0 1-.408-1.266 1.41 1.41 0 0 1 .134-.676c.1-.211.25-.394.438-.532z" class="C"/><path d="M13.316 101.045a12.18 12.18 0 0 1 2.939-1.282l.604-2.915 4.899-.082.71 2.89c1.043.256 2.048.649 2.988 1.167l2.49-1.633 3.56 3.446-1.551 2.523a12.08 12.08 0 0 1 1.274 2.947l2.915.604.09 4.899-2.89.71c-.248 1.052-.638 2.065-1.159 3.012l1.633 2.45-3.413 3.543-2.531-1.51a12.14 12.14 0 0 1-2.939 1.281l-.612 2.915-4.899.082-.702-2.89a11.85 11.85 0 0 1-2.988-1.176l-2.49 1.633-3.543-3.421 1.543-2.539a11.89 11.89 0 0 1-1.331-2.947l-2.915-.605-.09-4.898 2.89-.71c.257-1.044.653-2.049 1.176-2.989l-1.633-2.449 3.421-3.543 2.547 1.543.008-.057zm2.621 6.531c-.726.752-1.212 1.702-1.398 2.73s-.062 2.088.354 3.046a5.28 5.28 0 0 0 1.987 2.336c.879.565 1.905.857 2.95.838s2.06-.346 2.919-.941a5.28 5.28 0 0 0 2.151-5.461 5.28 5.28 0 0 0-1.492-2.678 5.27 5.27 0 0 0-1.737-1.113 5.28 5.28 0 0 0-4.045.084 5.28 5.28 0 0 0-1.689 1.184v-.025zm330.156 111.41c.894-.537 1.855-.954 2.857-1.241l.588-2.825 4.776-.09.694 2.809a11.66 11.66 0 0 1 2.898 1.143l2.45-1.584 3.437 3.323-1.502 2.449c.541.892.959 1.853 1.241 2.857l2.833.588.081 4.776-2.8.694c-.254 1.012-.638 1.986-1.143 2.899l1.584 2.449-3.323 3.437-2.449-1.502a11.65 11.65 0 0 1-2.858 1.241l-.588 2.833-4.784.082-.686-2.809a11.56 11.56 0 0 1-2.898-1.135l-2.449 1.584-3.438-3.323 1.494-2.449c-.536-.894-.953-1.855-1.241-2.858l-2.824-.596-.082-4.776 2.8-.686a11.62 11.62 0 0 1 1.143-2.898l-1.584-2.449 3.323-3.437 2.45 1.494zm2.547 6.368a5.13 5.13 0 0 0-1.356 2.65c-.18.998-.059 2.027.345 2.957a5.13 5.13 0 0 0 7.626 2.163c.833-.578 1.475-1.39 1.847-2.334s.454-1.976.238-2.967a5.13 5.13 0 0 0-1.45-2.6c-.485-.467-1.057-.835-1.683-1.081a5.12 5.12 0 0 0-1.969-.355c-.673.012-1.338.157-1.955.426a5.12 5.12 0 0 0-1.643 1.141z" class="J"/><path d="M365.785 341.231c0 .114-80.599.212-180.007.212s-180.023-.098-180.023-.212 80.582-.212 180.023-.212l180.007.212z" class="B"/><path d="M230.208 87.941L93.301 100.318c-18.247 1.633-31.612 18.778-29.857 38.299l7.217 80.01c1.755 19.513 17.961 33.988 36.225 32.347l53.141-4.792c.807-.064 1.616.075 2.355.404s1.383.839 1.875 1.481l15.03 19.138a4.76 4.76 0 0 0 1.87 1.494c.741.33 1.554.465 2.362.392s1.584-.351 2.253-.808a4.75 4.75 0 0 0 1.573-1.805l11.365-21.513a4.9 4.9 0 0 1 1.584-1.792c.669-.458 1.44-.742 2.245-.829l41.254-3.714c18.247-1.633 31.612-18.778 29.849-38.307l-7.209-80.011c-1.764-19.512-17.978-34.004-36.225-32.371z" class="C"/><path d="M230.208 87.941l1.747-.082.963-.041a7.2 7.2 0 0 1 1.184 0l2.972.212 1.764.318c.655.093 1.305.23 1.943.408l2.106.604c.735.196 1.445.563 2.221.816 3.518 1.454 6.762 3.497 9.593 6.042a35.49 35.49 0 0 1 8.409 11.43l.816 1.813c.264.618.493 1.25.686 1.894.212.645.457 1.298.653 1.959s.319 1.356.482 2.05a63.48 63.48 0 0 1 1.159 8.727l3.74 41.132 2.171 23.922.572 6.302.286 3.201.147 1.633.073 1.633a37.59 37.59 0 0 1-1.682 13.136 35.65 35.65 0 0 1-6.531 12.026 33.18 33.18 0 0 1-11.12 8.719c-2.192 1.046-4.496 1.84-6.866 2.368a16.85 16.85 0 0 1-1.813.318l-1.82.262-3.674.343-14.916 1.347-15.3 1.388-7.773.71c-.625.086-1.226.302-1.764.632a4.57 4.57 0 0 0-1.363 1.287c-.347.549-.666 1.115-.955 1.698l-.955 1.812-7.495 14.198-1.894 3.592a9.37 9.37 0 0 1-1.078 1.772c-.451.542-1.006.989-1.633 1.314-.646.309-1.35.475-2.066.486a4.98 4.98 0 0 1-2.081-.42c-.651-.298-1.232-.729-1.706-1.266-.482-.53-.866-1.078-1.307-1.633l-10.287-13.063-2.621-3.347c-.44-.547-.873-1.127-1.306-1.633-.454-.508-1.011-.914-1.633-1.192a4.44 4.44 0 0 0-1.967-.392c-.686.041-1.405.123-2.107.18l-4.237.384-34.437 3.102-8.703.817a53.21 53.21 0 0 1-8.687.383c-.718-.057-1.445-.09-2.163-.171l-2.139-.392c-.359-.065-.718-.114-1.069-.196l-1.037-.31-2.074-.604-2-.817-1.004-.408-.947-.498-1.902-1.012-1.796-1.176a35.11 35.11 0 0 1-11.234-12.573c-.171-.31-.359-.612-.506-.923l-.433-.963-.816-1.927c-.253-.653-.457-1.323-.686-1.984-.245-.655-.455-1.323-.629-2a47 47 0 0 1-1.347-8.205l-5.715-63.249-1.347-14.924a37.9 37.9 0 0 1 1.421-14.5 34.62 34.62 0 0 1 6.536-12.287 34.61 34.61 0 0 1 10.846-8.72l1.519-.751 1.576-.588c.523-.196 1.045-.408 1.576-.58l1.633-.416 1.633-.408 1.633-.237 1.633-.237 1.633-.147 12.728-1.143 23.93-2.139 72.197-6.442 19.594-1.731 5.111-.441 1.739-.139s-.588.073-1.739.18l-5.103.482-19.594 1.813-72.189 6.58-23.921 2.172-12.729 1.151-1.633.147-1.633.237-1.633.237c-.531.122-1.061.269-1.592.4l-1.633.416c-.522.172-1.037.376-1.559.572l-1.559.579-1.502.751a34.3 34.3 0 0 0-10.701 8.643c-2.947 3.574-5.139 7.707-6.444 12.152a37.5 37.5 0 0 0-1.396 14.361l1.355 14.924 5.715 63.241c.204 2.756.652 5.488 1.339 8.164.131.678.416 1.315.612 1.976s.433 1.314.686 1.959l.816 1.903.425.955c.147.31.335.604.498.914 2.643 4.976 6.453 9.237 11.103 12.418l1.772 1.168 1.878.988.939.498.988.4 1.976.816 2.049.596 1.029.302c.343.082.694.131 1.045.204l2.106.376c.71.09 1.429.114 2.139.171 2.895.091 5.792-.056 8.662-.441l8.695-.816 34.437-3.111 4.246-.383 2.123-.18a5.02 5.02 0 0 1 2.155.425c.669.306 1.266.748 1.755 1.298.474.563.882 1.11 1.323 1.633l2.596 3.306 10.287 13.063c.433.531.817 1.11 1.282 1.633.437.493.974.888 1.576 1.159a4.49 4.49 0 0 0 1.904.391 4.51 4.51 0 0 0 1.892-.448c.584-.29 1.101-.699 1.519-1.2a9.24 9.24 0 0 0 1.028-1.706l1.894-3.593 7.503-14.189.931-1.756c.294-.6.621-1.183.98-1.747a4.99 4.99 0 0 1 1.48-1.396c.585-.358 1.237-.591 1.916-.686l7.797-.71 15.292-1.372 14.924-1.347 3.666-.343 1.804-.253c.602-.066 1.199-.17 1.788-.31a31.86 31.86 0 0 0 6.785-2.343 32.65 32.65 0 0 0 10.997-8.605 35.36 35.36 0 0 0 6.532-11.904 37.06 37.06 0 0 0 1.673-13.014l-.065-1.633-.147-1.632-.286-3.201-.563-6.303-2.147-23.921-3.674-41.148c-.18-2.921-.559-5.826-1.135-8.695l-.482-2.041c-.163-.678-.424-1.307-.637-1.943s-.391-1.29-.677-1.894l-.817-1.797c-1.988-4.318-4.826-8.191-8.344-11.389-2.822-2.492-6.043-4.493-9.527-5.919-.768-.286-1.478-.653-2.213-.817l-2.09-.612c-.635-.183-1.281-.325-1.935-.424l-1.763-.318c-1.119-.114-2.107-.172-2.956-.237a7.16 7.16 0 0 0-1.175 0h-.972l-1.747-.041z" class="B"/><use xlink:href="#D" class="D"/><g class="G"><use xlink:href="#D" y="0.001" fill="#000"/></g><path d="M288.696 75.128c13.106-8.177 17.102-25.431 8.925-38.537s-25.43-17.102-38.536-8.925-17.103 25.431-8.926 38.537 25.431 17.102 38.537 8.925z" class="D"/><path d="M292.507 53.445a18.74 18.74 0 0 0-16.571-20.677 18.74 18.74 0 0 0-20.677 16.572 18.74 18.74 0 0 0 16.571 20.677 18.74 18.74 0 0 0 20.677-16.571z" class="C"/><path d="M283.048 51.619c-.046 1.813-.628 3.572-1.674 5.053s-2.506 2.621-4.199 3.272a9.17 9.17 0 0 1-5.309.387c-1.769-.399-3.38-1.313-4.629-2.628a9.17 9.17 0 0 1-1.733-10.039c.736-1.657 1.947-3.059 3.48-4.028a9.17 9.17 0 0 1 5.132-1.415 9.18 9.18 0 0 1 8.932 9.397z" class="D"/><path d="M293.89 31.412l-.612-5.985 6.237-6.352.27 6.45-5.895 5.887zm13.153-4.425l-6.148-.653-6.327 5.789 6.164.808 6.311-5.944z" class="H"/><g class="G"><path d="M275.12 51.292l21.807-15.79a24.84 24.84 0 0 0-2.596-3.331l-19.178 17.668-.033 1.453z" fill="#000"/></g><path d="M300.062 24.635l-8.923 8.483-14.157 13.471-3.266 3.094a1.12 1.12 0 0 0-.049 1.584 1.12 1.12 0 0 0 1.584.049l8.924-8.491 14.165-13.504 3.265-3.102c.21-.204.331-.482.336-.775a1.11 1.11 0 0 0-.311-.785c-.204-.21-.482-.331-.775-.335a1.1 1.1 0 0 0-.784.311h-.009z" class="B"/><path d="M142.801 68.51c-5.629 0-11.029-2.236-15.009-6.217s-6.218-9.38-6.218-15.01 2.237-11.029 6.218-15.01 9.38-6.217 15.009-6.217 11.029 2.236 15.01 6.217 6.218 9.38 6.218 15.01-2.237 11.029-6.218 15.01a21.23 21.23 0 0 1-15.01 6.217z" class="H"/><path d="M142.801 37.763l4.703.065c.739.01 1.47.145 2.164.4a3.92 3.92 0 0 1 1.33.874c.38.379.677.832.874 1.331a6.32 6.32 0 0 1 .4 2.163l.065 4.703-.065 4.694a6.27 6.27 0 0 1-.4 2.164 3.66 3.66 0 0 1-.874 1.339 3.54 3.54 0 0 1-1.33.866c-.693.259-1.425.394-2.164.4l-4.703.073c-3.11 0-3.469 0-4.694-.073-.739-.005-1.472-.14-2.164-.4a3.65 3.65 0 0 1-1.339-.866 3.75 3.75 0 0 1-.865-1.339 6.27 6.27 0 0 1-.4-2.164l-.073-4.694.073-4.703a6.32 6.32 0 0 1 .4-2.163 3.87 3.87 0 0 1 .869-1.335 3.86 3.86 0 0 1 1.335-.869c.694-.255 1.425-.39 2.164-.4l4.694-.065zm0-2.098l-4.792.074a8.41 8.41 0 0 0-2.825.539c-.772.298-1.473.754-2.057 1.339a5.93 5.93 0 0 0-1.339 2.058c-.343.903-.528 1.859-.547 2.825l-.066 4.801.066 4.792c.018.966.203 1.922.547 2.825a5.61 5.61 0 0 0 1.339 2.057 5.82 5.82 0 0 0 2.057 1.347c.905.337 1.86.519 2.825.539l4.792.065 4.801-.065a8.66 8.66 0 0 0 2.825-.539 5.83 5.83 0 0 0 2.057-1.347 5.61 5.61 0 0 0 1.339-2.057c.341-.904.523-1.859.539-2.825l.074-4.792-.074-4.801c-.017-.966-.199-1.921-.539-2.825a5.94 5.94 0 0 0-1.338-2.058 5.93 5.93 0 0 0-2.058-1.339 8.45 8.45 0 0 0-2.825-.539l-4.801-.074zm0 5.658a5.98 5.98 0 0 0-3.32 1.007 5.97 5.97 0 0 0-2.201 2.682c-.452 1.092-.571 2.294-.34 3.453a5.98 5.98 0 0 0 1.636 3.06 5.97 5.97 0 0 0 3.06 1.636c1.159.231 2.36.112 3.452-.34a5.97 5.97 0 0 0 2.682-2.201 5.98 5.98 0 0 0 1.008-3.32 5.97 5.97 0 0 0-5.977-5.976zm0 9.854a3.87 3.87 0 0 1-2.147-.666 3.89 3.89 0 0 1-1.418-1.745 3.88 3.88 0 0 1-.211-2.239c.153-.751.524-1.439 1.067-1.979s1.235-.907 1.986-1.054a3.88 3.88 0 0 1 2.238.225c.707.294 1.311.791 1.736 1.428a3.88 3.88 0 0 1 .652 2.152 3.9 3.9 0 0 1-.29 1.497 3.88 3.88 0 0 1-.846 1.27c-.363.363-.794.65-1.269.845a3.88 3.88 0 0 1-1.498.291m7.61-10.115a1.39 1.39 0 0 1-.862 1.29c-.255.106-.536.133-.807.079a1.4 1.4 0 0 1-1.097-1.097 1.39 1.39 0 0 1 .594-1.433c.229-.153.499-.235.775-.235.371 0 .726.147.988.409a1.4 1.4 0 0 1 .409.987z" class="C"/><path d="M60.075 164.027L12.43 151.829c-1.42-.363-2.865.493-3.229 1.912L.658 187.11c-.363 1.42.493 2.866 1.912 3.229l47.645 12.198c1.42.363 2.865-.493 3.229-1.913l8.543-33.369c.364-1.419-.493-2.865-1.912-3.228z" class="D"/><g class="B"><path d="M59.19 168.425c-.179.107-.364.202-.555.286l-1.633.759-6.05 2.711-8.981 3.976-5.315 2.335-2.817 1.225c-1.018.441-2.152.539-3.23.278a5.1 5.1 0 0 1-2.746-1.723l-1.886-2.45-3.56-4.604-5.952-7.83-3.984-5.299-1.061-1.461c-.136-.161-.254-.336-.351-.523.151.147.29.305.416.474l1.127 1.404 4.082 5.225 6.025 7.773 3.552 4.605 1.878 2.449a4.74 4.74 0 0 0 2.515 1.584c2.066.587 3.919-.776 5.78-1.478l5.331-2.311 9.038-3.894 6.082-2.621 1.633-.677c.212-.095.434-.166.661-.213z"/><path d="M25.006 174.254c.057.106-4.392 2.702-9.944 5.805s-10.091 5.535-10.148 5.437 4.392-2.702 9.944-5.805 10.091-5.535 10.148-5.437zm13.063 3.348c.098-.057 2.702 4.393 5.805 9.936s5.535 10.091 5.429 10.148-2.702-4.392-5.805-9.936-5.535-10.091-5.429-10.148z"/></g><path d="M339.079 194.869l30.943-46.103-56.946 1.608 8.964 15.145-2.449 10.777 10.124 2.8 9.364 15.773z" class="C"/><path d="M322.04 165.519l47.982-16.753-40.307 30.33-10.124-2.8 2.449-10.777z" fill="#000" class="G"/><g class="B"><path d="M319.591 176.295c-.057-.098 11.193-6.352 25.113-13.953l25.31-13.577c0 .106-11.185 6.352-25.114 13.953l-25.309 13.577z"/><path d="M329.715 179.096s.057-.065.188-.171l.596-.474 2.302-1.788 8.532-6.531 28.256-21.407.196.376-.163.057-33.613 11.65-10.197 3.486-2.759.931-.727.229c-.081.032-.166.054-.253.065a1.48 1.48 0 0 1 .237-.106l.718-.27 2.752-1.004 10.156-3.617 33.563-11.764.172-.058c.026-.01.054-.014.082-.013s.056.008.081.02.048.03.066.051a.2.2 0 0 1 .04.073c.014.042.015.088.002.13s-.04.08-.075.107l-28.355 21.333-8.605 6.417-2.359 1.723-.613.441-.22.114z"/><path d="M339.079 194.893l-.163-.253-.474-.775-1.853-3.054-6.989-11.618.074.066-10.124-2.776h-.147v-.147l2.45-10.785v.131l-8.981-15.137-.172-.294h.343l27.481-.816 29.465-.817h.417l-.213.319-22.402 33.114-6.418 9.471-1.706 2.506-.441.637-.147.204c.044-.082.093-.161.147-.237l.441-.669 1.698-2.572 6.368-9.585 22.126-33.155.171.31-29.465.816-27.481.76.163-.302 8.981 15.161.041.057v.073l-2.449 10.777-.115-.187 10.116 2.824h.049v.049l6.801 11.61 1.82 3.127.466.816.122.351z"/></g><path d="M69.951 131.931L22.476 61.22l87.35 2.457-13.748 23.236 3.755 16.541-15.52 4.286-14.361 24.191z" class="C"/><path d="M96.077 86.913L22.476 61.22l61.837 46.52 15.52-4.286-3.756-16.541z" fill="#000" class="G"/><g class="B"><path d="M99.841 103.454c-.057.106-17.423-9.267-38.78-20.925L22.476 61.228c.049-.074 17.423 9.258 38.789 20.917l38.576 21.309z"/><path d="M84.312 107.739s-.114-.065-.327-.22l-.947-.686-3.592-2.662-13.185-9.87-43.426-32.714c-.038-.031-.064-.074-.074-.123s-.002-.098.021-.142.061-.077.106-.096.096-.021.143-.007l.261.09 51.5 18.027 15.578 5.503 4.237 1.519 1.094.408.367.147a3.54 3.54 0 0 1-.384-.106l-1.11-.367-4.205-1.445-15.675-5.38-51.541-17.904-.261-.09.196-.367L66.44 94.064l13.063 9.977 3.551 2.727.914.718.343.253z"/><path d="M69.959 131.931l.245-.433.718-1.241 2.792-4.76 10.483-17.806h.049l15.512-4.319-.106.188-3.78-16.533v-.065-.065l13.732-23.244.171.302-42.111-1.249-45.19-1.29.171-.31 34.004 50.864 9.797 14.696 2.604 3.927.678 1.02.229.351s-.082-.098-.229-.318l-.678-.988-2.613-3.862-9.846-14.589-34.29-50.88-.204-.327h.384l45.198 1.265 42.153 1.184h.343l-.172.294L96.232 86.97v-.139l3.739 16.541v.147l-.147.041-15.512 4.269.082-.057-10.638 17.848-2.833 4.71-.727 1.209-.237.392z"/></g><path d="M46.25 226.652L6.098 280.251l68.686 1.625-9.846-18.811 3.625-12.826-12.018-4.009-10.295-19.578z" class="C"/><path d="M64.938 263.065l-58.84 17.186 50.447-34.021 12.018 4.009-3.625 12.826z" fill="#000" class="G"/><g class="B"><path d="M68.563 250.24c.049.106-13.879 6.907-31.139 15.193L6.098 280.252c-.049-.107 13.879-6.916 31.139-15.202l31.326-14.81z"/><path d="M56.545 246.23a1.37 1.37 0 0 1-.245.196l-.743.531-2.898 2.009-10.687 7.307-35.368 24.011-.18-.384.212-.057 41.197-11.944 12.499-3.609 3.405-.947.89-.245c.101-.032.205-.054.31-.065a1.47 1.47 0 0 1-.294.114l-.882.277-3.38 1.021-12.467 3.739-41.164 12.067-.204.057c-.027.009-.055.013-.083.01s-.056-.01-.081-.023-.047-.03-.065-.052-.032-.047-.04-.074c-.011-.043-.009-.09.008-.132a.22.22 0 0 1 .082-.104l35.441-23.905 10.761-7.201 2.939-1.943.767-.49c.087-.06.177-.114.269-.164z"/><path d="M46.283 226.652a3.75 3.75 0 0 0 .18.319l.523.971 2.041 3.805 7.666 14.426-.074-.065 12.026 3.976.147.049v.147l-3.609 12.834v-.13l9.871 18.777.163.302h-.343l-33.155-.767-35.539-.816h-.474l.229-.311 29.024-38.551 8.319-11.022 2.188-2.956.572-.743.188-.245-.196.278-.563.776-2.212 2.98-8.246 11.127-28.73 38.552-.155-.318 35.539.816 33.155.817-.188.294-9.797-18.778v-.066-.073l3.641-12.818.106.188-12.075-4.099h-.049v-.049l-7.487-14.41-2-3.87-.514-1.012c-.171-.212-.171-.335-.171-.335z"/></g><g class="E"><path d="M238.021 257.236l-5.054.221-18.174 39.491-28.754 14.336 1.371 14.802s35.401-6.532 44.218-11.43 20.084-37.042 20.084-37.042c.058.229-11.96-20.304-11.96-20.304"/><path d="M187.712 293.306l-3.682-3.87a4.19 4.19 0 0 0-2.392-.662l-11.675.352a7.34 7.34 0 0 0-3.071 1.022c-.935.565-1.732 1.331-2.334 2.243l-4.245 7.226s-2.849 4.947-2.449 6.147c.16.5.498.923.949 1.189s.986.358 1.5.257c0 0 .4 2.286 1.168 2.751a3.59 3.59 0 0 0 1.402.384 3.58 3.58 0 0 0 1.439-.205 2.4 2.4 0 0 0 .935 1.045c.409.247.882.367 1.359.343.207-.012.413-.048.612-.106 1.38-.424 2.009-3.102 2.009-3.102l5.919-1.102s8.507 5.715 11.503 9.413 10.842.874 10.842.874l2.94-14.043-12.729-10.156z"/></g><path d="M179.107 294.988a9.59 9.59 0 0 1-2.555.424l-6.45.572.278-.205c-.448.964-.955 1.9-1.519 2.801a31.09 31.09 0 0 1-5.617 6.637 10.61 10.61 0 0 1-2.931 2.099c-.065-.098 1.021-.923 2.572-2.45 2.026-2.011 3.819-4.243 5.347-6.654.549-.872 1.048-1.774 1.494-2.702l.09-.188h.188c2.637-.302 4.899-.269 6.532-.326.854-.093 1.716-.096 2.571-.008zm.253 5.568c-.688.34-1.438.539-2.204.588a16.73 16.73 0 0 1-5.715-.205l.408-.236a17.36 17.36 0 0 1-.816 2.122c-1.051 2.204-2.546 4.167-4.393 5.764-.711.715-1.565 1.271-2.506 1.633-.065-.09.865-.751 2.155-2.025 1.676-1.658 3.057-3.591 4.082-5.715.306-.663.579-1.342.817-2.032l.114-.303.302.066c4.376 1.004 7.756.122 7.756.343z" class="F"/><path d="M194.203 303.478l-10.418-4.898c-1.398-.924-3.046-1.396-4.722-1.35s-3.296.605-4.642 1.603l-5.601 2.898a1.34 1.34 0 0 0-.743.67 1.27 1.27 0 0 0 .482 1.183 8.25 8.25 0 0 0 5.342 2.256c1.996.082 3.952-.563 5.508-1.815.898 2.45 1.829 4.948 3.519 6.94s4.295 3.396 6.858 2.923" class="E"/><path d="M189.786 313.905s-.09.049-.277.089a3.81 3.81 0 0 1-.817.098 6.58 6.58 0 0 1-3.135-.759c-1.517-.762-2.809-1.907-3.747-3.323a27.02 27.02 0 0 1-2.727-5.813l.514.139a8.29 8.29 0 0 1-6.058 1.894c-1.179-.082-2.329-.404-3.38-.947-.542-.286-1.049-.634-1.51-1.037a4.94 4.94 0 0 1-.67-.686 1.38 1.38 0 0 1-.274-.534c-.051-.196-.058-.401-.02-.6a1.3 1.3 0 0 1 .226-.473c.107-.14.241-.257.395-.344.245-.147.457-.245.678-.359l1.298-.678 2.539-1.306a23.22 23.22 0 0 1 5.021-2.188 7.67 7.67 0 0 1 4.939.751l3.862 1.829 5.543 2.702a13.58 13.58 0 0 1 1.993 1.086 13.22 13.22 0 0 1-2.115-.816l-5.642-2.49-3.878-1.739a7.07 7.07 0 0 0-4.555-.654c-1.69.533-3.313 1.262-4.834 2.172l-2.539 1.315-1.298.677c-.441.221-.898.441-.922.662s.318.751.743 1.094a7.37 7.37 0 0 0 1.355.947c.964.493 2.015.793 3.094.881a7.72 7.72 0 0 0 5.585-1.681l.359-.311.163.449c.635 1.997 1.495 3.914 2.564 5.715.842 1.379 2.018 2.522 3.421 3.323a7.45 7.45 0 0 0 4.106.915z" class="F"/><path d="M333.739 171.543c.629-7.927 2.45-15.74 2.654-23.676s-1.298-16.329-6.434-22.403-14.598-8.875-21.382-4.727l-1.78 6.654c.474 30.747-1.984 61.795-1.519 92.534.066 4.082 3.078 7.903 4.662 11.618s5.046 6.931 9.087 6.956c5.282 0 9.095-5.07 11.079-9.969 7.16-17.782 2.107-37.89 3.633-56.987z" class="B"/><path d="M317.46 129.138a22.38 22.38 0 0 0-3.658-5.716c-.762-.852-1.708-1.52-2.765-1.954s-2.201-.623-3.342-.552a3.13 3.13 0 0 0-1.511.477c-.455.286-.828.684-1.085 1.156-.417.98.245 2.384 1.314 2.368l.221.212 6.825 6.646a6.22 6.22 0 0 0 1.935 1.388 2.16 2.16 0 0 0 1.172.162 2.15 2.15 0 0 0 1.081-.481c.939-.947.4-2.523-.187-3.706z" class="D"/><path d="M321.419 137.221c-7.25-10.189-17.479-16.468-29.946-17.521-7.03-.596-10.042.67-15.202 1.69s-9.92 3.437-13.235 7.519c-3.943 4.858-7.348 10.361-8.442 16.517a53.41 53.41 0 0 0-.204 17.798c1.045 6.336 4.678 16.157 8.083 21.595l10.72 2.049c8.98.914 18.035 1.829 26.942.367s17.7-5.576 22.909-12.924c7.193-10.205 5.609-26.893-1.625-37.09z" class="B"/><path d="M306.952 136.11l-21.08-10.083-5.715.27c-12.736-.817-22.476 12.638-23.26 22.95-.874 11.43-1.486 25.472-.237 34.045 2.515 17.226 16.908 19.594 16.908 19.594l-1.404 14.696 33.335-.139 6.784-75.193a6.06 6.06 0 0 0-1.482-4.097c-.985-1.135-2.357-1.863-3.849-2.043z" class="E"/><path d="M282.418 181.063a3.6 3.6 0 0 0-1.102-2.31 3.7 3.7 0 0 0-2.133-1.036 3.69 3.69 0 0 0-2.324.473 4.94 4.94 0 0 0-1.716 1.961 4.96 4.96 0 0 0-.481 2.562 4.5 4.5 0 0 0 1.317 1.375 4.48 4.48 0 0 0 1.769.706 5.11 5.11 0 0 0 .605.066 4.08 4.08 0 0 0 2.8-.898c.417-.356.748-.801.967-1.303s.321-1.048.298-1.596z" class="F"/><path d="M260.489 164.93c-.009.574.204 1.129.595 1.55a2.22 2.22 0 0 0 1.503.704 2.13 2.13 0 0 0 .832-.09c.268-.086.517-.223.732-.406a2.12 2.12 0 0 0 .517-.657c.127-.252.202-.526.222-.807a2.2 2.2 0 0 0-.588-1.556c-.393-.421-.935-.672-1.511-.697-.28-.026-.563.005-.831.09a2.12 2.12 0 0 0-.732.405c-.214.183-.39.406-.517.658a2.12 2.12 0 0 0-.222.806zm-.09-9.667c.27.286 1.952-.93 4.327-.889s4.083 1.249 4.36.955c.131-.123-.147-.645-.89-1.209a6.07 6.07 0 0 0-3.486-1.126c-1.235-.018-2.444.356-3.453 1.069-.735.547-.996 1.07-.858 1.2zm13.937 19.578c0-.138-1.462-.408-3.846-.751-.604-.065-1.175-.196-1.273-.612-.045-.625.103-1.25.424-1.788l1.854-4.597c2.571-6.531 4.449-11.919 4.18-12.017s-2.564 5.119-5.136 11.658l-1.779 4.621a3.49 3.49 0 0 0-.343 2.376 1.53 1.53 0 0 0 .391.562c.171.156.375.27.596.336.333.093.676.145 1.021.155 2.409.155 3.903.188 3.911.057z" class="B"/><path d="M273.552 202.927c8.096.224 16.097-1.799 23.113-5.846 0 0-6.286 11.838-23.48 10.01l.367-4.164z" class="F"/><path d="M281.3 176.573c-.384 0-.425 2.547-2.653 4.351s-4.964 1.478-4.989 1.837c-.041.163.604.506 1.764.555a6.42 6.42 0 0 0 4.163-1.388 5.61 5.61 0 0 0 2.058-3.649c.114-1.078-.163-1.723-.343-1.706zm-19.537-29.539c.392.58 2.212.221 4.335.425s3.878.816 4.352.269c.212-.253 0-.816-.743-1.412-.998-.742-2.189-1.182-3.429-1.265a6.4 6.4 0 0 0-3.568.702c-.808.473-1.119.971-.947 1.281zm22.917 18.533a2.21 2.21 0 0 1-2.237 2.115c-.281.007-.561-.041-.823-.143s-.501-.255-.704-.45-.363-.43-.474-.688-.169-.536-.171-.818c.024-.575.27-1.118.688-1.515a2.21 2.21 0 0 1 1.549-.607c.282-.008.562.041.825.143a2.12 2.12 0 0 1 .705.453c.202.196.363.431.473.69a2.1 2.1 0 0 1 .169.82zm7.78-9.046c-.285.27-1.894-1.045-4.261-1.159s-4.172.979-4.409.677c-.122-.13.18-.636.963-1.151a6.1 6.1 0 0 1 3.552-.906c1.233.063 2.415.512 3.38 1.282.702.596.922 1.135.775 1.257zm-.906-7.674c-.49.514-2.294-.139-4.49-.278s-4.082.155-4.482-.425c-.172-.285.147-.816.988-1.281 1.143-.574 2.425-.814 3.698-.694a6.66 6.66 0 0 1 3.527 1.265c.751.588.98 1.159.759 1.413z" class="B"/><path d="M307.393 170.939c0-1.282 1.535-4.286 2.8-4.466 3.389-.482 9.471-.13 9.422 8.45-.073 11.724-11.838 9.234-11.855 8.899s-.44-8.458-.367-12.883z" class="E"/><path d="M311.026 179.552c.049 0 .204.147.547.311.491.194 1.036.194 1.527 0 1.241-.449 2.294-2.409 2.368-4.523a6.78 6.78 0 0 0-.556-2.931 2.37 2.37 0 0 0-.569-.976 2.38 2.38 0 0 0-.957-.6 1.04 1.04 0 0 0-.705.058c-.221.102-.399.278-.504.497-.163.327-.089.555-.147.58s-.253-.196-.155-.686a1.28 1.28 0 0 1 .466-.727c.324-.243.732-.349 1.134-.294a2.89 2.89 0 0 1 1.298.64c.372.32.655.729.825 1.189.489 1.017.724 2.138.686 3.266-.09 2.368-1.315 4.572-3.013 5.045a2.18 2.18 0 0 1-.971.053 2.2 2.2 0 0 1-.898-.371c-.36-.245-.417-.506-.376-.531z" class="F"/><path d="M310.675 166.538l-3.184 2.882c-11.977-13.136-34.935-45.548-33.661-43.621 0 0 9.021-3.013 18.443-.743s27.162 8.262 26.125 19.48-7.723 22.002-7.723 22.002z" class="B"/><path d="M327.82 165.118a3.81 3.81 0 0 0-.139-.694c-.169-.649-.393-1.283-.669-1.894a17.11 17.11 0 0 0-4.507-5.822c-2.839-2.329-6.056-4.154-9.511-5.396-3.813-1.535-8.165-2.825-12.353-4.972a57.28 57.28 0 0 1-11.063-7.25c-2.78-2.321-5.345-4.886-7.666-7.666a65.47 65.47 0 0 1-4.327-5.911l-1.069-1.65c-.113-.204-.247-.395-.4-.571a2.52 2.52 0 0 0 .293.629c.221.4.523 1.004.972 1.755a53.9 53.9 0 0 0 4.196 6.05 57.35 57.35 0 0 0 7.634 7.829 56.47 56.47 0 0 0 11.185 7.348c4.254 2.172 8.622 3.454 12.426 4.948 3.404 1.19 6.585 2.94 9.414 5.176a17.64 17.64 0 0 1 4.572 5.601c.751 1.551.947 2.506 1.012 2.49zm-3.527 1.608a6.27 6.27 0 0 0-.277-2.588 12.03 12.03 0 0 0-4.017-5.797c-2.319-1.984-5.715-3.347-9.487-4.482-4.112-1.122-8.087-2.693-11.855-4.686-3.735-2.017-7.209-4.485-10.344-7.348a52.81 52.81 0 0 1-6.907-7.781c-1.369-1.904-2.618-3.892-3.739-5.951l-.882-1.707a3.1 3.1 0 0 0-.343-.579 3.07 3.07 0 0 0 .237.628l.776 1.764c1.049 2.117 2.256 4.153 3.608 6.09 4.488 6.429 10.415 11.721 17.308 15.455a56.66 56.66 0 0 0 11.978 4.67c3.763 1.103 7.102 2.393 9.38 4.278a12.09 12.09 0 0 1 4.082 5.536c.236.816.398 1.652.482 2.498zm-15.349 19.562c0-.081 1.004-.138 2.76-.473a16.79 16.79 0 0 0 6.784-3.209 23.47 23.47 0 0 0 6.703-8.883c1.891-4.207 3.056-8.703 3.446-13.299a33.95 33.95 0 0 0-.082-7.119 35.05 35.05 0 0 0-1.502-6.467 34.17 34.17 0 0 0-5.413-9.797c-4.025-5.053-7.52-7.209-7.348-7.348.228.091.44.218.629.376.383.286.987.661 1.69 1.241a36.27 36.27 0 0 1 5.486 5.405 33.53 33.53 0 0 1 5.658 9.944c1.583 4.444 2.16 9.185 1.69 13.879a40.59 40.59 0 0 1-3.576 13.528c-1.568 3.523-3.976 6.606-7.013 8.981-2.074 1.575-4.496 2.628-7.062 3.07a14.23 14.23 0 0 1-2.09.188 2.45 2.45 0 0 1-.76-.017z" class="H"/><path d="M272.442 213.638l33.081-3.576 6.058 5.511-23.619 13.888-10.426 5.397-10.287-3.127-3.257-6.132 8.45-11.961z" class="E"/><path d="M227.84 253.921l12.94-24.248c4.377-7.413 12.541-11.618 12.541-11.618l19.112-4.384s-1.983 9.577 9.912 10.238c15.128.817 24.493-13.667 24.493-13.667s17.259 1.772 22.044 3.78 18.247 7.642 20.231 25.571l4.612 29.269-36.437 2.776.498 38.968 17.962 30.698h-88.036c1.372.375 6.221-20.125 3.045-36.331l-6.009-14.582c-2.427-5.83-3.865-12.025-4.253-18.329-.229-4.147-.115-7.29-.115-7.29s-9.356-3.242-12.54-10.851z" class="D"/><g class="E"><path d="M256.578 324.273l61.143-18.345-.433-34.29 31.131-2.367s-2.45 17.781-2.85 26.893c-.522 13.112-6.825 31.44-11.046 35.327s-79.569 8.164-79.569 8.164l1.624-15.382z"/><path d="M221.896 335.066c.248.414.613.746 1.049.954a2.44 2.44 0 0 0 1.401.213c.202-.032.399-.09.588-.171 1.338-.547.996-3.331.996-3.331l6.531-1.592s8.981 4.898 12.336 8.295 10.883-.147 10.883-.147l1.633-14.255-12.981-10.034s.816.596-.204-1.388-4.744-.914-4.744-.914c-.677-.972-3.192-1.143-3.192-1.143l-10.622 2.049a7.35 7.35 0 0 0-2.96 1.309c-.877.652-1.597 1.49-2.11 2.455l-3.951 7.47s-1.976 5.315-1.502 6.474a2.14 2.14 0 0 0 2.588 1.209s.816 3.331 1.681 3.38a7.33 7.33 0 0 0 2.58-.817v-.016z"/></g><g class="F"><path d="M243.76 323.22c0 .114-1.428.09-3.69.368-2.943.371-5.822 1.142-8.556 2.294-1.5.639-2.946 1.395-4.327 2.261-1.233.817-2.531 1.527-2.866 2.49-.075.212-.096.439-.059.661a1.33 1.33 0 0 0 .271.605 1.84 1.84 0 0 0 .858.612 2.85 2.85 0 0 0 .939.066s-.302.318-1.005.195c-.42-.09-.801-.313-1.085-.636-.2-.216-.339-.481-.405-.767s-.056-.585.029-.866a3.39 3.39 0 0 1 1.208-1.633l1.772-1.274c1.392-.918 2.865-1.708 4.401-2.359 2.789-1.191 5.753-1.922 8.776-2.164a12.31 12.31 0 0 1 3.739.147z"/><path d="M245.034 329.948c0 .204-4.343.359-9.634 1.085l-9.585 1.511c.862-.419 1.777-.718 2.719-.89 4.465-1.117 9.041-1.733 13.643-1.837.954-.086 1.915-.042 2.857.131zm-23.097 4.84c-.117-.362-.191-.738-.22-1.118a25.05 25.05 0 0 1-.245-3.119 13.82 13.82 0 0 1 .122-2.18 6.59 6.59 0 0 1 .874-2.4c.917-1.694 2.163-3.187 3.666-4.392a20.26 20.26 0 0 1 4.898-2.964 18.55 18.55 0 0 1 4.548-1.061l3.102-.229c.382-.052.769-.052 1.151 0a33.14 33.14 0 0 1-4.188.686 19.84 19.84 0 0 0-4.376 1.159c-1.687.759-3.266 1.739-4.694 2.915a14.6 14.6 0 0 0-3.56 4.172c-.737 1.302-1.101 2.782-1.053 4.278l-.025 4.253zm13.88-20.491c0 .106-1.584.269-4.083.759s-6.319 1.045-8.286 4.596c-2.18 3.266-4.017 6.312-4.728 8.761-.361 1.335-.596 2.702-.702 4.082a2.97 2.97 0 0 1-.147-1.119c-.019-1.036.11-2.07.384-3.069.629-2.572 2.449-5.715 4.629-8.981a11.24 11.24 0 0 1 1.903-2.253c.722-.608 1.553-1.073 2.449-1.372a22.75 22.75 0 0 1 4.449-1.061 16.48 16.48 0 0 1 4.132-.343z"/><path d="M242.226 337.344a3.5 3.5 0 0 1-.67-.432l-1.894-1.29c-2.365-1.566-4.818-2.995-7.348-4.278h.155l-6.531 1.632.204-.302a7.19 7.19 0 0 1 0 1.633 2.99 2.99 0 0 1-.621 1.633 1.62 1.62 0 0 1-.816.465c-.295.106-.609.151-.923.131-.648-.057-1.255-.347-1.706-.816a2.72 2.72 0 0 1-.318-.368l-.066-.098v-.049l.392.115-.204.106-.816.367c-.27.114-.58.212-.89.294-.159.039-.32.069-.482.09-.21.035-.425.01-.62-.074-.308-.201-.554-.483-.711-.816-.15-.286-.283-.58-.4-.882a16.4 16.4 0 0 1-.571-1.837l.408.237c-.439.134-.907.145-1.352.031a2.51 2.51 0 0 1-1.171-.676 2.05 2.05 0 0 1-.555-1.29c-.001-.434.046-.866.139-1.29a35.4 35.4 0 0 1 1.445-4.898l2.098-3.985 1.339-2.531a13.53 13.53 0 0 1 1.486-2.449 7.23 7.23 0 0 1 2.27-1.772c.845-.393 1.745-.655 2.669-.775l9.944-1.902h.074a9.2 9.2 0 0 1 1.796.326 2.98 2.98 0 0 1 1.633.955l-.384-.089a3.71 3.71 0 0 1 1.71-.459c.598-.013 1.191.119 1.727.385a4.3 4.3 0 0 1 1.895 2.564l-.09-.131 8.98 6.866 2.409 1.903c.289.213.562.448.816.702-.321-.165-.625-.362-.906-.588l-2.49-1.788-9.079-6.695-.065-.041v-.09a3.85 3.85 0 0 0-1.674-2.228 3.13 3.13 0 0 0-1.457-.302 3.15 3.15 0 0 0-1.433.4l-.228.122-.147-.204c-.355-.363-.81-.61-1.307-.71-.547-.153-1.107-.251-1.673-.294h.081l-9.936 1.951a8.72 8.72 0 0 0-2.498.727 6.53 6.53 0 0 0-2.041 1.632 11.97 11.97 0 0 0-1.404 2.344l-1.339 2.531-2.107 3.984V325a35.8 35.8 0 0 0-1.428 4.768c-.082.376-.126.759-.131 1.143.024.326.159.635.384.873a1.86 1.86 0 0 0 .862.489c.326.082.669.074.991-.023l.327-.082.081.319a15.55 15.55 0 0 0 .531 1.755c.152.519.433.99.816 1.372.089.02.181.02.27 0l.4-.074c.278-.071.551-.161.816-.269.279-.098.551-.213.817-.343l.187-.09.4.114v.041l.058.082c.178.258.411.473.682.631a2.13 2.13 0 0 0 .885.283 1.71 1.71 0 0 0 .727-.098 1.11 1.11 0 0 0 .579-.294 4.08 4.08 0 0 0 .507-2.808v-.245l.22-.057 6.532-1.543h.081l.065.04c2.537 1.321 4.978 2.816 7.308 4.474l1.828 1.397c.168.148.321.312.458.489z"/></g><path d="M145.283 339.026l-23.073-60.693c-.201-.529-.27-1.099-.202-1.661a3.5 3.5 0 0 1 1.844-2.674c.501-.263 1.058-.4 1.624-.4h74.205a3.49 3.49 0 0 1 1.877.548 3.5 3.5 0 0 1 1.291 1.468l22.223 57.893 46.619.817c.924 0 1.811.367 2.465 1.021a3.49 3.49 0 0 1 0 4.93c-.654.654-1.541 1.021-2.465 1.021H148.54a3.48 3.48 0 0 1-1.984-.624 3.47 3.47 0 0 1-1.273-1.646z" class="H"/><path d="M176.699 307.439a4.9 4.9 0 0 1-.826 2.721 4.89 4.89 0 0 1-2.198 1.804c-.895.371-1.88.468-2.83.279a4.89 4.89 0 0 1-2.509-1.341c-.685-.685-1.151-1.557-1.34-2.508s-.092-1.935.278-2.83.999-1.66 1.805-2.198a4.89 4.89 0 0 1 2.721-.826 4.9 4.9 0 0 1 3.464 1.435c.919.918 1.435 2.164 1.435 3.464z" class="C"/><path d="M249.818 231.935c.106.065-.881 1.918-2.278 5.004-3.637 8.052-6.023 16.611-7.078 25.383-.408 3.364-.522 5.462-.637 5.454-.092-.487-.117-.984-.073-1.478 0-.955.057-2.335.196-4.033.771-8.884 3.188-17.546 7.127-25.546.759-1.527 1.421-2.735 1.919-3.552.223-.443.5-.857.824-1.232zM353.75 268.83a2.81 2.81 0 0 1-.751.114l-2.188.245-8.164.686-27.955 2.106h-.359v-.359l-.735-11.667-.817-19.798c-.362-5.471.883-10.929 3.585-15.7 1.84-3.206 4.56-5.818 7.837-7.528.888-.45 1.817-.811 2.776-1.078a5.18 5.18 0 0 1 1.004-.245c0 .098-1.388.384-3.649 1.576a19.59 19.59 0 0 0-7.519 7.536c-2.585 4.711-3.751 10.071-3.356 15.43.147 6.075.506 12.753.898 19.766l.719 11.659-.384-.335 27.955-1.853 8.164-.474 2.196-.09c.247-.026.497-.023.743.009zm-68.564 23.839a4.93 4.93 0 0 1-1.216-.457c-.474-.19-.933-.417-1.372-.677a17.71 17.71 0 0 1-1.723-1.062 24.71 24.71 0 0 1-4.025-3.421c-1.478-1.58-2.773-3.322-3.861-5.192a28.51 28.51 0 0 1-2.49-5.968c-.475-1.701-.768-3.447-.874-5.209a17.1 17.1 0 0 1 0-2.025c-.001-.511.037-1.021.114-1.527.018-.436.098-.867.237-1.281.147 0-.098 1.853.196 4.792.178 1.713.517 3.405 1.012 5.054a30.34 30.34 0 0 0 2.45 5.805c1.059 1.819 2.301 3.526 3.706 5.094a27.82 27.82 0 0 0 3.837 3.454c2.368 1.747 4.074 2.482 4.009 2.62z" class="B"/><g clip-path="url(#C)"><use xlink:href="#E" fill="url(#A)"/><use xlink:href="#E" fill="url(#B)"/><path d="M162.373 134.464l-14.112 1.587c-3.632.524-6.066 1.344-8.163 2.405-2.169 1.095-3.967 2.453-5.685 4.545a16.89 16.89 0 0 0-3.363 6.457c-.637 2.263-.972 4.811-.78 8.474.193 3.672.265 4.845 1.174 14.154l1.587 14.108c.524 3.632 1.345 6.067 2.404 8.163a16.89 16.89 0 0 0 4.546 5.686 16.88 16.88 0 0 0 6.456 3.363c2.264.634 4.811.968 8.475.779 3.673-.19 4.844-.264 14.152-1.173s10.469-1.063 14.109-1.587c3.632-.523 6.069-1.344 8.167-2.405 2.168-1.095 3.963-2.456 5.681-4.548a16.89 16.89 0 0 0 3.363-6.457c.63-2.263.965-4.81.78-8.475-.193-3.671-.264-4.841-1.173-14.149s-1.066-10.472-1.587-14.112c-.528-3.632-1.35-6.066-2.405-8.163a16.9 16.9 0 0 0-4.549-5.686c-2.092-1.72-4.113-2.705-6.455-3.359-2.268-.634-4.816-.969-8.481-.779-3.672.191-4.84.264-14.151 1.173l.01-.001zm-2.471 6.477l3.074-.301 13.869-1.155c3.357-.174 5.225.207 6.479.559a10.64 10.64 0 0 1 4.189 2.179c1.317 1.082 2.171 2.152 2.95 3.691.587 1.16 1.323 2.919 1.802 6.246.517 3.597.658 4.679 1.552 13.826l1.152 13.865c.173 3.356-.208 5.225-.559 6.477-.465 1.66-1.098 2.872-2.18 4.188s-2.149 2.17-3.689 2.948c-1.16.589-2.921 1.323-6.248 1.803-3.597.517-4.679.658-13.83 1.552s-10.24.964-13.869 1.153c-3.357.172-5.225-.209-6.48-.56-1.66-.466-2.875-1.096-4.192-2.179a10.67 10.67 0 0 1-2.949-3.689c-.587-1.161-1.323-2.92-1.802-6.247-.517-3.597-.656-4.679-1.55-13.831l-1.155-13.865c-.173-3.356.208-5.225.559-6.479a10.66 10.66 0 0 1 2.18-4.192c1.083-1.316 2.152-2.171 3.691-2.949 1.162-.59 2.922-1.324 6.249-1.804 3.148-.451 4.369-.614 10.756-1.245l.001.009zm21.925 3.603c-2.27.222-3.933 2.243-3.711 4.514s2.244 3.932 4.515 3.711 3.933-2.244 3.711-4.515-2.244-3.933-4.515-3.711v.001zm-17.826 6.593c-9.72.949-16.831 9.6-15.881 19.32s9.599 16.828 19.319 15.878 16.829-9.595 15.88-19.316-9.598-16.832-19.318-15.882h0zm.604 6.176a11.48 11.48 0 0 1 2.231 22.85c-6.309.616-11.924-4-12.54-10.309a11.48 11.48 0 0 1 10.309-12.541z" class="C"/></g><defs><radialGradient id="A" cx="0" cy="0" r="1" gradientUnits="userSpaceOnUse" gradientTransform="translate(150.098 221.375) rotate(-95.5781) scale(87.3712 81.2621)"><stop stop-color="#fd5"/><stop offset=".1" stop-color="#fd5"/><stop offset=".5" stop-color="#ff543e"/><stop offset="1" stop-color="#c837ab"/></radialGradient><radialGradient id="B" cx="0" cy="0" r="1" gradientUnits="userSpaceOnUse" gradientTransform="matrix(11.351599035558344,37.36931185472795,-154.03787381178898,46.79176824552986,103.483,136.908)"><stop stop-color="#3771c8"/><stop offset=".128" stop-color="#3771c8"/><stop offset="1" stop-color="#60f" stop-opacity="0"/></radialGradient><clipPath id="C"><path transform="matrix(.995265 -.097202 .097202 .995265 117.562 129.152)" d="M0 0h88.158v88.158H0z" class="C"/></clipPath><path id="D" d="M301.35 59.401c2.72-15.207-7.403-29.739-22.61-32.458s-29.738 7.403-32.458 22.61 7.403 29.739 22.61 32.458 29.738-7.403 32.458-22.61z"/><path id="E" d="M184.739 122.592l-46.612 4.552c-11.358 1.109-19.665 11.215-18.556 22.573l4.552 46.612c1.109 11.357 11.216 19.665 22.573 18.556l46.612-4.553c11.357-1.109 19.665-11.215 18.556-22.572l-4.552-46.613c-1.11-11.357-11.216-19.665-22.573-18.555z"/></defs></svg>