<svg xmlns="http://www.w3.org/2000/svg" xmlns:xlink="http://www.w3.org/1999/xlink" width="482" height="346" fill="none" xmlns:v="https://vecta.io/nano"><style><![CDATA[.B{fill:#eea886}.C{fill:#23344a}.D{fill:#e64646}.E{fill:#ffc59c}.F{fill:#292c47}.G{fill:#2d314f}.H{fill:#faa146}]]></style><path d="M286.363 23.707c-2.293 1.357-4.408 2.266-8.295 3.453-10.167 3.108-12.993 4.237-24.292 6.216s-23.727-3.108-33.613 3.108-11.671 6.403-11.671 6.403l-4.801.942s-12.961-2.071-15.069-.098c-1.838 1.715.469.098-8.005 10.268s-5.602 5.944-8.473 10.165c-6.259 9.204-7.91 5.086-5.651 13.571s11.866 16.383 11.866 16.383 14.684 1.132 17.512 2.258 23.725 2.546 23.725 2.546l17.784 25.985c2.82 4.52 3.04 9.294 5.097 17.515l.83 3.436a145.28 145.28 0 0 0 32.671-47.755c7.578-17.948 11.469-37.237 11.441-56.719a147.27 147.27 0 0 0-1.056-17.675z" fill="url(#A)"/><path d="M381.797 195.297l-5.339 2.299-.735 11.362 3.181 1.815s-.288-8.878 2.893-15.476z" fill="#3d414a"/><path d="M378.369 199.004h-2.877v2.839h2.877v-2.839z" fill="#cf7923"/><path d="M213.771 237.852h31.024v-94.233h-31.024v94.233z" fill="#ffae55"/><path d="M104.766 189.014H353.8c5.208 0 9.43-4.222 9.43-9.43V9.458A9.43 9.43 0 0 0 353.8.028H104.766a9.43 9.43 0 0 0-9.429 9.429v170.126a9.43 9.43 0 0 0 9.429 9.43z" fill="url(#B)"/><path d="M104.807 154.658h248.48V9.282h-248.48v145.376z" fill="#fff"/><path d="M324.918 172.947c0 4.771 4.343 8.642 9.728 8.642s9.727-3.871 9.727-8.642-4.342-8.642-9.727-8.642-9.728 3.87-9.728 8.642z" fill="#ffae55"/><path d="M299.068 234.295H159.495v7.114h139.573v-7.114z" fill="url(#C)"/><path d="M115.56 139.129h-.014c.063.022.063.022.014 0z" fill="#323657"/><path opacity=".95" d="M68.859 129.227h73.49c5.806 0 10.512-4.707 10.512-10.513v-73.49c0-5.806-4.706-10.512-10.512-10.512h-73.49c-5.806 0-10.512 4.706-10.512 10.512v73.49c0 5.806 4.706 10.513 10.512 10.513z" fill="url(#D)"/><path d="M101.555 106.254H79.472v3.043h22.083v-3.043zm10.609 7.305H79.472v3.042h32.692v-3.042z" fill="#3f8bc0"/><path d="M92.182 64.742a4.07 4.07 0 0 0-.616-.459c-.345-.22-.708-.411-1.086-.57a9.79 9.79 0 0 0-1.392-.472c-.498-.128-1.011-.192-1.525-.193-.921 0-1.607.169-2.057.508a1.68 1.68 0 0 0-.679 1.428 1.46 1.46 0 0 0 .255.885 2.17 2.17 0 0 0 .738.616 6.18 6.18 0 0 0 1.221.486l1.707.459 2.288.727a6.28 6.28 0 0 1 1.742.966 4.06 4.06 0 0 1 1.102 1.392c.275.629.407 1.311.385 1.998a5 5 0 0 1-.518 2.361 4.41 4.41 0 0 1-1.406 1.585 6.12 6.12 0 0 1-2.033.882 10.1 10.1 0 0 1-2.408.272c-1.297.003-2.587-.19-3.827-.573a11.78 11.78 0 0 1-3.39-1.648l1.477-2.88a4.47 4.47 0 0 0 .787.57 11.69 11.69 0 0 0 1.344.7 10.34 10.34 0 0 0 1.718.594c.633.161 1.285.242 1.938.242 1.838 0 2.758-.589 2.758-1.767a1.44 1.44 0 0 0-.315-.944 2.68 2.68 0 0 0-.896-.679c-.451-.221-.921-.403-1.403-.543l-1.84-.543a15.62 15.62 0 0 1-2.128-.703 5.58 5.58 0 0 1-1.512-.945c-.393-.347-.704-.777-.909-1.259a4.37 4.37 0 0 1-.301-1.705 5.33 5.33 0 0 1 .47-2.334 4.73 4.73 0 0 1 1.344-1.694 6.06 6.06 0 0 1 1.995-1.02 8.25 8.25 0 0 1 2.443-.35 9.52 9.52 0 0 1 3.339.567 12.49 12.49 0 0 1 2.663 1.357l-1.471 2.684zm7.747 12.929c-.587.005-1.169-.098-1.718-.304a4.09 4.09 0 0 1-1.379-.847 3.94 3.94 0 0 1-.909-1.27c-.221-.504-.332-1.049-.326-1.599a3.53 3.53 0 0 1 .399-1.658 3.82 3.82 0 0 1 1.113-1.295c.517-.375 1.094-.658 1.707-.836.705-.207 1.437-.308 2.171-.301.556 0 1.111.048 1.659.144.493.084.975.223 1.438.413v-.725c0-.841-.236-1.485-.714-1.938s-1.18-.679-2.117-.679a5.63 5.63 0 0 0-1.986.364 9.2 9.2 0 0 0-1.984 1.067l-.993-2.06a9.38 9.38 0 0 1 5.279-1.629c1.824 0 3.24.452 4.248 1.357s1.512 2.199 1.512 3.884v3.947a1.15 1.15 0 0 0 .182.727.81.81 0 0 0 .272.182c.102.041.212.062.322.06v2.76a7.29 7.29 0 0 1-1.428.168 2.17 2.17 0 0 1-1.416-.413 1.76 1.76 0 0 1-.619-1.086l-.071-.703a5.64 5.64 0 0 1-2.057 1.696c-.808.383-1.691.578-2.584.573zm.92-2.372a4.24 4.24 0 0 0 1.561-.29 2.84 2.84 0 0 0 1.15-.776c.158-.099.289-.234.384-.394s.149-.341.159-.526V71.86c-.409-.15-.831-.268-1.259-.35s-.867-.132-1.306-.133a3.48 3.48 0 0 0-2.057.567c-.246.152-.45.364-.593.616s-.219.536-.222.825a1.74 1.74 0 0 0 .63 1.357c.43.372.984.571 1.553.556zm9.489-15.543h3.244V73.36a1.6 1.6 0 0 0 .339 1.086 1.21 1.21 0 0 0 .969.388 2.51 2.51 0 0 0 .641-.095 4.4 4.4 0 0 0 .667-.244l.434 2.47c-.485.226-.998.388-1.525.483-.517.107-1.043.164-1.571.171-1.017 0-1.804-.271-2.362-.814s-.836-1.314-.836-2.312V59.756zM123.92 77.67c-.946.014-1.885-.163-2.76-.521a6.22 6.22 0 0 1-2.085-1.395 6.21 6.21 0 0 1-1.365-2.104c-.316-.793-.476-1.639-.472-2.492a7.05 7.05 0 0 1 .458-2.554 6.22 6.22 0 0 1 1.333-2.106 6.37 6.37 0 0 1 2.117-1.441c.886-.369 1.838-.554 2.798-.543a6.88 6.88 0 0 1 2.772.543 6.41 6.41 0 0 1 2.081 1.428 6.07 6.07 0 0 1 1.306 2.082c.298.789.45 1.626.448 2.47v.605a2.62 2.62 0 0 1-.06.483h-9.817a3.82 3.82 0 0 0 .363 1.333 3.26 3.26 0 0 0 .752.991c.303.275.656.489 1.04.63a3.39 3.39 0 0 0 1.21.22 3.73 3.73 0 0 0 1.827-.472 2.48 2.48 0 0 0 1.175-1.248l2.785.776a5.65 5.65 0 0 1-2.239 2.383 6.94 6.94 0 0 1-3.667.934zm3.292-7.651a3.38 3.38 0 0 0-1.053-2.285 3.39 3.39 0 0 0-3.493-.63 3.16 3.16 0 0 0-1.004.641 3.31 3.31 0 0 0-.714.993c-.19.402-.301.837-.326 1.281h6.59z" fill="#4badcc"/><use xlink:href="#L" opacity=".95" fill="url(#E)"/><path d="M354.566 218.862l33.477 4.356 5.694-30.682-34.997-5.987-4.174 32.313z" fill="#eb4747"/><path d="M375.76 320.935s2.377 1.585 4.576-.527l.176 1.835s-3.754 3.379-4.752-.25v-1.058zm13.604-.303s1.419 1.281 3.563-.638l.272 2.144s-3.656 3.738-4.652.106l.817-1.612zm39.38-158.516l1.764-3.257c.245-.42 1.477-1.028 2.953-1.598s3.722-.682 3.944-.524a1.38 1.38 0 0 1 .475.354c.131.151.227.328.282.52a2.62 2.62 0 0 1 .076 1.343s.673.676.413 1.507a1.41 1.41 0 0 1 .312.756c.027.277-.029.556-.16.802 0 0 .573.665.187 1.286a10.71 10.71 0 0 0-1.628.964c-.394.355-3.046 1.444-5.749 2.095.005-.005-2.758-.255-2.869-4.248z" class="B"/><path d="M435.841 165.009l-.374.149-.198.076-.204.076.272.891.871-.025-.367-1.167zm-.665-2.171l.253.583.054.144.054.15a10.76 10.76 0 0 1-.181-3.065c0 .025-.022.052-.036.076-.004.011-.011.021-.019.03l-.019.03-.021.027-.028.03c-.056.057-.119.107-.187.149l-.041.022a1.19 1.19 0 0 1-.228.108l-.059.022-.063.019-.054.016-.087.022v.521l.016.019.074.09.07.095.101.138.068.103v.019l.076.12.209.383c.008.073.029.116.048.16v-.011zm17.586 3.067l-.038-.225-.228-1.306a18.26 18.26 0 0 0-1.211-3.566c-.814-1.786-2.274-4.199-4.614-5.548-1.534-.88-3.314-1.231-5.067-.999a11.46 11.46 0 0 0-2.405.543 7.56 7.56 0 0 0-2.367 1.259 6.51 6.51 0 0 0-.659.616 6.01 6.01 0 0 0-1.086 1.694c-.185.429-.324.875-.415 1.333a8.68 8.68 0 0 0-.177 1.509v.521a11.57 11.57 0 0 0 .152 1.672l.179.944.245.942.271.89c0 .019 0 .036.019.052l.339.871.06.131.133.285 8.501-.193 8.58-.193-.212-1.232zm-1.49.836l-3.236-.027-11.646-.101-.144-.369c0-.027-.019-.051-.027-.079l-.378-1.164-.059-.217-.125-.497-.12-.567c-.206-1.008-.268-2.04-.181-3.064 0-.068 0-.139.024-.207.07-.597.224-1.181.459-1.734.322-.757.822-1.424 1.457-1.946l.065-.052c.628-.494 1.34-.871 2.101-1.113a11.07 11.07 0 0 1 1.9-.466c1.684-.294 3.418.006 4.905.849a7.67 7.67 0 0 1 1.555 1.224c2.266 2.272 3.841 6.088 4.321 8.498l.057.304c.043.247.073.497.09.747l-1.018-.019zm-15.916-6.091c0 .025-.022.052-.036.076-.004.011-.011.021-.019.03l-.019.03-.021.027-.028.03c-.056.057-.119.107-.187.149l-.041.022a1.19 1.19 0 0 1-.228.108l-.059.022-.063.019-.054.016-.087.022v.521l.016.019c.025.027.049.06.074.09l.07.095.101.138.068.103v.019l.076.12.209.383.062.13.252.583.055.144.054.15c-.208-.998-.274-2.019-.195-3.035v-.011zm.485 4.343l-.374.149-.198.076-.204.076.272.89.871-.027-.367-1.148v-.016z" class="C"/><path d="M471.653 202.341l-40.233 5.236-6.82-36.843 42.062-7.195 4.991 38.802z" fill="#eb4747"/><path d="M451.272 166.752v-.049c0-.025 0-.212-.035-.527 0-.127-.025-.271-.046-.442-.116-1-.305-1.989-.565-2.961-.445-1.656-1.278-3.835-2.804-5.564-.319-.366-.667-.705-1.042-1.013-1.46-1.192-3.273-1.868-5.157-1.921a12.22 12.22 0 0 0-2.541.157c-1.975.32-3.504 1.164-4.559 2.516-.125.157-.239.323-.351.494-.357.563-.638 1.171-.836 1.808-.184.584-.314 1.183-.39 1.791 0 .1-.025.201-.036.301l-.027.312-.041 1.189v.388c.033.912.136 1.819.31 2.715l.065.317.128.543.089.318h2.283l9.89.016h5.7l-.035-.388zm-15.905-.5h-1.273l-.112-.542c-.112-.612-.191-1.229-.236-1.849a14.41 14.41 0 0 1-.038-1.455 9.53 9.53 0 0 1 .071-1.069l.016-.149c.06-.449.151-.892.272-1.328 0-.021 0-.043.019-.067l.078-.272a6.71 6.71 0 0 1 .739-1.596l.038-.057c.275-.421.609-.801.99-1.129a5.51 5.51 0 0 1 .918-.641c.737-.4 1.539-.669 2.369-.792.712-.117 1.434-.168 2.155-.155 1.773.005 3.49.616 4.867 1.732 2.985 2.464 3.857 6.929 4.093 8.897l.054.521-14.114-.027-.906-.022z" class="C"/><path d="M465.445 208.244l-46.958-3.615 3.775-38.042 43.634-1.284-.451 42.941z" class="H"/><path d="M334.284 187.192l.429-3.683c.043-.489-.617-1.691-1.496-3.005s-2.657-2.695-2.929-2.695a1.38 1.38 0 0 0-.59.013c-.193.047-.374.135-.531.258-.364.275-.652.638-.836 1.056 0 0-.939.166-1.199.996a1.41 1.41 0 0 0-.691.44c-.182.212-.297.472-.33.749 0 0-.849.215-.893.945a10.66 10.66 0 0 1 .776 1.723c.114.516 1.662 2.929 3.502 5.016 0 .008 2.405 1.39 4.788-1.813z" class="B"/><path d="M337.495 182.545a6.2 6.2 0 0 0-3.884-2.098 8.57 8.57 0 0 0-1.154-.097h-.863c-1.593.033-3.151.479-4.522 1.294-.617.382-1.178.847-1.669 1.382-1.845 2.006-2.527 4.766-2.768 6.731a19.06 19.06 0 0 0-.133 3.159c0 .386.038.617.04.641l.044.429 14.76-2.096 2.128-.301.04-.312c0-.049.044-.337.068-.787.068-1.189.06-3.529-.749-5.654a7.66 7.66 0 0 0-1.338-2.291zm1.24 8.075c0 .095 0 .177-.016.247l-2.986.426-12.401 1.759v-.241c-.059-1.721.055-6.354 2.685-9.212a5.61 5.61 0 0 1 .504-.497c1.461-1.303 3.404-1.949 5.793-1.922h.133c.89.007 1.771.191 2.589.543a5.15 5.15 0 0 1 1.837 1.357c.337.397.624.834.855 1.3 1.113 2.25 1.083 5.062 1.007 6.24z" class="C"/><path d="M304.564 234.989l3.08-39.643 6.878 39.09-4.758-.828-5.2 1.381z" fill="#ba3838"/><path d="M314.521 234.437l40.847-7.182-6.683-38.048-41.15 5.849 6.986 39.381z" class="D"/><path d="M359.048 200.533c-.046-.211-.104-.418-.174-.622a4.95 4.95 0 0 0-1.308-2.025 6.37 6.37 0 0 0-1.886-1.191 9.8 9.8 0 0 0-1.96-.606c-.505-.096-1.019-.142-1.533-.135-.949.016-1.882.238-2.736.651-.239.115-.471.244-.695.386-1.602 1.009-2.714 2.584-3.42 3.829-.019.03-.035.063-.052.093-.304.559-.576 1.135-.814 1.726-.157.379-.294.766-.41 1.159l-.317 1.251-.047.193-.065.249-.144.573 5.193.508 1.913.184 3.404.334 3.637.356.128-.228.057-.106.228-.467.108-.233c.538-1.233 1.384-3.651.893-5.879zm-1.628 5.832l-.106.231-.036.068-2.413-.16-6.926-.459-.329-.022-2.684-.179-.844-.054c0-.081.024-.163.041-.25l.04-.19.041-.176a12.92 12.92 0 0 1 .727-2.057c.763-1.732 1.974-3.692 3.437-4.962l.13-.109a6.37 6.37 0 0 1 1.029-.708l.222-.114a5.81 5.81 0 0 1 1.9-.543h.06a6.69 6.69 0 0 1 2.171.152c.529.12 1.046.288 1.545.502 1.433.606 2.38 1.55 2.814 2.809a5.37 5.37 0 0 1 .272 1.558c.062 1.857-.682 3.757-1.094 4.65l.003.013z" class="C"/><path d="M321.31 234.99l10.971-31.322-4.153 32.09-3.553-1.322-3.265.554z" fill="#ad3434"/><path d="M359.331 198.396l-.022-.032c-.877-1.357-2.245-2.172-4.071-2.47-.698-.119-1.405-.164-2.112-.136a7.94 7.94 0 0 0-1.68.253l-.578.179-.454.182h-.016c-.529.236-1.025.54-1.476.903-.033.022-.064.047-.093.074a7.41 7.41 0 0 0-.885.86l-.325.396a9.46 9.46 0 0 0-.815 1.233c-.508.938-.902 1.934-1.172 2.966l-.242 1.024-.13.724-.133 1.086c0 .092-.016.171-.019.236v.198.041.336h3.591 1.143 4.774 3.455 1.9l.073-.271c0-.019.025-.09.052-.204.193-.939.983-4.855-.765-7.578zm-10.043-.477a6.16 6.16 0 0 1 1.01-.676l.038-.022c.929-.478 1.957-.733 3.002-.744a9.6 9.6 0 0 1 1.791.128 5.97 5.97 0 0 1 1.973.66 4.49 4.49 0 0 1 1.629 1.52 4.67 4.67 0 0 1 .271.458c1.189 2.356.605 5.554.396 6.484h-1.791-2.209-7.798-1.702-.041l.182-1.357c.309-1.813 1.145-4.725 3.249-6.451z" class="C"/><path d="M324.575 239.681l7.445-33.841 1.273 34.831-4.063-1.555-4.655.565z" fill="#b06e2a"/><path d="M329.496 189.014s2.505 2.223 3.8 2.264 1.951-3.507 1.951-3.507l-1.115-2.171-4.636 3.414zm97.546-24.883s1.254-1.181 1.805-2.207 3.048 4.379 3.048 4.379-3.113.13-4.481 1.085-.372-3.257-.372-3.257z" class="B"/><path d="M437.012 156.866s-3.703 1.537-3.529 2.172c.032.167.106.323.214.454s.247.234.405.298l-1.238 1.324s-.323 1.338 1.23 1.3c0 0-.432 1.219 1.061 1.005 0 0 .076.931.785.952s3.05-1.064 3.05-1.064.435-.453-.146-1.286a1.4 1.4 0 0 0-.166-1.561 1.38 1.38 0 0 0-.402-1.517s.47-1.656-.871-2.204c0-.008-.236.062-.393.127z" fill="#db9c7c"/><path d="M430.62 158.793s2.741.22 4.185.999c.328.174.611.404.573.773s-.627.782-1.822.747-2.749.467-2.749.467-1.216-.397-.187-2.986z" class="B"/><path d="M331.331 183.705s-.814 1.401-.833 1.9-3.58-.293-3.58-.293 2.684-2.538 4.413-1.607z" fill="#cf8c6c"/><path d="M330.532 178.147s2.147 3.384 1.645 3.8c-.121.119-.271.207-.435.254s-.337.053-.504.017l.253 1.794s-.503 1.281-1.754.358c0 0-.344 1.246-1.444.212 0 0-.597.719-1.191.331s-1.884-2.624-1.884-2.624-.095-.627.858-.975a1.39 1.39 0 0 1 .334-.75c.184-.211.427-.362.697-.433 0 0 .177-.766 1.192-1.002 0 0 .578-1.628 1.989-1.305 0-.014.155.181.244.323z" fill="#db9c7c"/><path d="M334.658 183.395s-2.372-1.395-4.001-1.588c-.369-.043-.732-.019-.912.307s.063.999 1.059 1.656 1.984 1.962 1.984 1.962 1.221.375 1.87-2.337z" class="B"/><path d="M378.624 331.358c-1.917.576-2.489 3.833-4.121 4.791s-9.581 1.628-9.868-.863 3.335-4.723 4.967-5.971 5.287-5.337 6.033-6.968c0 0 .66 1.04 2.606.719s2.272-.836 2.272-.836c-.074 1.93.602 3.298.795 4.047.67 2.601-.765 4.517-2.684 5.081zm12.995.456c-1.479 1.357-1.759 3.495-3.39 4.454-.473.271-1.401.556-2.489.749-1.99.358-4.514.434-5.749-.288a1.36 1.36 0 0 1-.744-1.029c-.287-2.491 3.407-5.282 5.035-6.514 1.002-.765 2.041-2.549 2.866-4.185l1.235-2.619c.083.14.198.26.334.35.337.241.969.483 2.09.298 1.561-.255 2.172-.667 2.337-.814l.025-.022.024-.024c.32 1.555.814 3.146 1.021 3.895.686 2.554-1.197 4.478-2.595 5.749z" class="H"/><path d="M377.556 135.134s6.224-.651 8.466 5.358 4.343 7.977 4.614 11.128c1.07 12.77 7.033 9.883 5.355 17.243s-2.828 8.48-2.828 8.48l-14.255-2.796-14.442.046s5.648-2.82 4.391-8.829-4.391-15.862-2.622-22.572 7.6-7.545 11.321-8.058z" fill="#223247"/><path d="M333.294 240.671l36.12-1.265.66-33.732h-38.018l1.238 34.997z" class="H"/><path d="M481.123 199.646l-14.462-36.107 4.992 38.802 4.209-2.467 5.261-.228z" fill="#ad3434"/><path d="M475.922 207.055l-10.026-41.752-.451 42.941 4.883-1.867 5.594.678z" fill="#b06e2a"/><path d="M367.281 220.825s-5.244 18.278-6.159 22.943-3.477 27.257-3.751 31.097 8.561 21.855 9.044 23.152c1.867 5.03 9.5 23.267 9.5 23.267s4.926 2.928 4.372-1.357c-1.674-13.029-2.459-16.24-3.631-22.998-2.571-14.798-7.872-16.741-7.057-18.899 8.207-21.822 9.86-36.642 10.96-37.912s1.248.654 1.9 3.488-.272 22.351.895 29.886c.627 4.101 2.041 13.299 2.497 18.6l2.853 29.857s.315.914 3.976-1.11c.606-.337 3.51-21.714 3.599-28.011s-2.698-7.212-.458-19.428c4.796-26.19 4.133-30.701-1.463-49.524-13.715-46.057-27.077-3.051-27.077-3.051z" class="B"/><path d="M431.255 167.309c-.22-.228-13.525 9.964-14.977 10.802-2.856 1.65-5.972 1.566-9.191 1.764-3.618.22-7.73-.162-11.283.543-1.843.369-2.06.85-3.018 2.81-2.611 5.33-3.458 11.958-3.8 17.821-.361 6.112 1.984 10.358 4.446 15.743.836 1.834 2.017 3.723.394 5.398-1.461 1.506-4.327 1.81-6.243 2.06-4.715.616-11.943.994-16.473-.877-5.55-2.29-4.557-9.279-5.157-14.157-.399-3.257-1.976-8.159-2.882-11.324-.893-3.124-.991-4.437-.814-7.76-1.732 4.916-3.192 13.322-7.853 16.44-3.607 2.416-6.829-.814-9.421-3.08l-14.754-12.838 3.143-2.905c.345-.317.364-.401.754-.716.918-.736.815-1.004 1.765-.356.635.435 2.337 2.012 2.877 2.514 1.78 1.658 3.344 2.662 5.124 4.321 1.55 1.441 4.204 4.782 6.582 3.615 1.83-.898 2.326-4.614 2.956-6.278 1.745-4.614 3.504-9.255 5.586-13.728 2.225-4.788 7.157-7.329 11.942-9.229 4.139-1.65 9.676-1.319 13.875-.249 2.948.749 4.001.792 6.932 1.609 2.802.779 5.429 1.775 8.265 2.364a52.96 52.96 0 0 0 10.073.964c2.654.032 3.753-.416 5.99-1.965 3.005-2.088 7.402-5.7 10.702-7.359 2.114-1.064 2.842 2.392 4.46 4.053z" fill="#f0ddd5"/><path d="M384.828 167.651s-4.123 9.636-9.468 11.65c0 0-5.271-4.68-3.851-11.612 0 .003 6.802-3.482 13.319-.038zm-6.452-29.001s8.243 1.189 7.035 13.356-8.479 11.202-8.957 11.191-7.298.252-7.887-14.594c-.008 0-.283-10.979 9.809-9.953z" class="B"/><path d="M377.434 143.059l5.64 6.096c1.789 2.05 1.995 6.012 1.995 6.012s3.013-3.68 1.751-7.966-4.243-12.624-11.788-10.064-7.828 13.842-6.943 19.428c0-.003 3.39-12.341 9.345-13.506z" fill="#223247"/><g class="C"><path d="M351.454 196.014c-.219.459-.558.85-.982 1.132-3.768 2.032-4.422 6.831-4.555 8.528h-.798c.66-8.852 6.335-9.66 6.335-9.66z"/><path d="M351.403 196.061s-6.086.29-7.801 9.516l.624.097s1.192-6.785 6.05-8.623c.458-.222.848-.564 1.127-.99z"/></g><path d="M394.463 219.261s8.325 17.235 2.714 52.208l-42.434-3.41 11.907-50.033c.326-2.991 27.813 1.235 27.813 1.235z" fill="#f0ddd5"/><path d="M375.76 321.994s-1.954 2.332-1.764 2.714 4.457 1.246 5.103.337 1.414-2.801 1.414-2.801-3.73 1.656-4.753-.25zm12.917-.049s-1.821 2.568-1.629 2.953 3.974.994 4.614.085a24.26 24.26 0 0 0 1.542-2.845s-3.504 1.715-4.527-.193z" fill="#db8d3d"/><path d="M366.415 215.543s9.996 3.705 24.428-4.457l1.221 2.793c0 0-13.164 8.129-25.41 4.147.01 0-.405-1.856-.239-2.483z" fill="#ff4d4d"/><path d="M212.145 187.582c.061.031.05.028 0 0z" fill="#323657"/><path d="M179.64 269.271h9.755l-.741 7.082h-9.943l.929-7.082z" fill="#fff"/><path d="M187.391 185.103l18.346 10.084 18.424-28.991-22.284-7.741-14.486 26.648z" class="F"/><path d="M188.556 184.232l17.156 9.432 17.23-27.115-20.839-7.238-13.547 24.921z" fill="#fff"/><path d="M182.273 179.162l4.595-2.326c1.403-.798 5.005-1.9 5.298-2.155s10.686-.902 11.318-1.444 1.243 1.275-1.452 1.864-6.443 2.033-6.65 3.086 2.769 1.303 3.07 2.172-.084.673-.51.857-3.529-1.536-4.905-1.047-3.458-.188-4.505.171l-6.145 2.073-.114-3.251zm24.359 12.388l3.98-3.426c1.297-1.012 3.734-3.979 4.093-4.153s5.013-9.719 5.77-10.102-.717-1.669-2.323.641-4.425 5.282-5.497 5.064-.149-3.116-.849-3.737-.668-.182-1.01.146.071 3.931-.923 5.03-1.167 3.33-1.9 4.18l-4.342 4.983 3.001 1.374z" class="B"/><path d="M148.858 320.6l-.652 4.633c-.073.605-6.454-.356-6.454-.356l-.519-4.796s6.827-.049 7.625.519z" fill="#424773"/><path d="M148.274 324.72s2.022 2.427 3.979 3.485 5.03 1.477 6.186 2.573c.836.79 3.04 4.194-5.084 4.123s-12.04.483-12.909-.814 1.26-9.63 1.26-9.63 1.921.684 6.568.263z" class="F"/><path d="M194.592 320.6l-.654 4.633c-.073.605-6.454-.356-6.454-.356l-.516-4.796s6.826-.049 7.624.519z" fill="#424773"/><g class="F"><path d="M194.006 324.72s2.025 2.427 3.979 3.485 9.155 1.927 10.314 3.021c.833.793 2.223 3.974-9.207 3.675-8.121-.209-12.04.483-12.911-.814s1.259-9.63 1.259-9.63 1.811.73 6.566.263zM154.15 217.094s-5.998 9.529-5.55 18.142-2.172 18.017-3.075 27.017c-1.005 10.029-5.117 33.776-5.263 39.142s.638 22.498.638 22.498l8.226.19s6.911-41.528 8.686-45.751 10.667-34.435 10.965-37.825-14.627-23.413-14.627-23.413z"/><path d="M185.717 218.393l5.116 28.879c.597 5.266.994 25.514 1.292 28.806s1.99 43.115 3.58 48.012h-10.52s-8.075-28.95-8.075-42.646-6.242-29.775-10.265-38.813-13.237-9.253-15.718-26.016c0 0 31.252-3.539 34.59 1.778z"/></g><g class="B"><path d="M164.152 136.992s8.05-3.008 11.761 3.121 3.355 18.394-.703 19.903-10.154.72-12.23-3.113-3.944-9.377-3.863-13.093 2.921-5.749 5.035-6.818z"/><path d="M174.336 160.296s-.333 2.171.22 3.257-10.43 1.085-10.43 1.085-.891-5.822-2.582-10.742 12.792 6.4 12.792 6.4z"/></g><path d="M161.544 153.896s.757 1.251 3.851.765 6.87-4.614 8.162-5.054 1.306-1.21 1.306-1.21l.814 1.181 1.37.086s-1.251-3.683.638-5.184-1.959-11.918-11.883-8.452c0 0-7.621 2.104-7.344 6.436s1.392 9.274 3.086 11.432z" fill="#3a3f47"/><path d="M175.207 163.411s-.035-2.046-.96-2.242-10.236-1.085-11.376-.643v2.383s2.193 1.349 12.336.502z" fill="#e2d2ca"/><path d="M174.656 146.82c-.174-.727-2.022-2.804-2.73-.581s1.069 5.217 2.062 4.962 1.108-2.538.668-4.381z" class="B"/><g class="D"><path d="M147.378 239.804s4.937 1.452 13.354 2.38 29.455-.336 29.585-1.329-4.525-37.033-4.261-38.89.407-8.468.407-8.468c.106 1.81 1.951 9.212 4.18 13.248.814 1.458 3.504 6.026 4.807 4.986 6.302-5.032 16.06-23.991 16.678-24.156l-5.2-2.31c-.505-.169-5.051 4.646-7.806 7.629l-2.101 2.297c-.795-1.789-3.691-13.064-4.592-16.967-2.031-8.799-1.718-9.166-1.718-9.166-6.159-1.862-15.507-5.654-15.507-5.654l-12.336-.502s-11.318 2.5-15.775 4.522c-.423.19-.426 10.1-1.585 12.697l3.697 7.798s2.133 15.45 2.576 22.319c.198 3.146-4.403 29.566-4.403 29.566z"/><path d="M144.996 192.978c.323 1.04 1.783 1.917 2.733 2.302.626.254 1.312.323 1.976.198l.483-.089 8.452-1.569s1.851-21.301-11.546-26.404c-.356.117-5.057 16.022-2.098 25.562z"/><path d="M147.729 195.279c.626.254 1.312.323 1.976.198l.483-.089-.833-10.884-1.626 10.775z"/></g><path d="M197.035 195.199l1.034 4.375s1.121-4.392 1.066-6.672l-2.1 2.297z" fill="#a13131"/><path d="M161.859 137.713s-10.55-1.216-.179 16.408l.179-16.408z" fill="#3a3f47"/><path d="M215.682 164.638l1.072-1.84-8.449-2.915-1.07 1.832 8.447 2.923z" class="F"/><path d="M49.488 170.947H19.811v29.677h29.677v-29.677z" fill="url(#F)"/><path d="M38.099 170.947h-6.9v3.45h6.9v-3.45z" class="E"/><path d="M29.677 230.301H0v29.677h29.677v-29.677z" fill="url(#G)"/><path d="M18.288 230.301h-6.9v3.45h6.9v-3.45z" class="E"/><path d="M59.354 230.301H29.676v29.677h29.677v-29.677z" fill="url(#H)"/><path d="M47.966 230.301h-6.9v3.45h6.9v-3.45z" class="E"/><path d="M89.031 230.301H59.354v29.677h29.677v-29.677z" fill="url(#I)"/><path d="M77.642 230.301h-6.9v3.45h6.9v-3.45z" class="E"/><path d="M65.876 200.625H36.199v29.677h29.677v-29.677z" fill="url(#J)"/><path d="M54.487 200.625h-6.9v3.45h6.9v-3.45z" class="E"/><path d="M36.199 200.625H6.522v29.677h29.677v-29.677z" fill="url(#K)"/><path d="M24.81 200.625h-6.899v3.45h6.9v-3.45z" class="E"/><path d="M112.935 191.374l-1.151 4.574c-.138.6-6.367-1.05-6.367-1.05v-4.859s6.788.681 7.518 1.335z" fill="#666fb3"/><path d="M111.91 195.44s1.742 2.649 3.569 3.919 8.875 2.91 9.904 4.131c.744.882 1.778 4.218-9.532 2.696-8.037-1.086-12.002-.815-12.724-2.21s2.293-9.513 2.293-9.513 1.718.936 6.49.977z" class="G"/><g fill="#b3dcff"><path d="M133.999 74.197l-26.346 270.639 2.845.277 26.346-270.639-2.845-.277zM87.974 69.73L61.629 340.369l2.845.277L90.819 70.007l-2.845-.277z"/><path d="M88.994 73.702l-.276 2.845 46.021 4.464.276-2.845-46.021-4.464z"/><use xlink:href="#M"/><use xlink:href="#M" x="-2.084" y="21.377"/><use xlink:href="#M" x="-4.154" y="42.799"/><path d="M80.697 159.325l-.276 2.845 46.02 4.464.276-2.845-46.02-4.464zm-2.086 21.373l-.276 2.845 46.021 4.464.275-2.845-46.02-4.464zm-2.068 21.426l-.276 2.845 46.021 4.463.275-2.844-46.02-4.464zm-2.084 21.373l-.276 2.845 46.021 4.464.276-2.845-46.021-4.464z"/><use xlink:href="#M" x="-14.537" y="149.801"/><use xlink:href="#M" x="-16.621" y="171.168"/><path d="M68.23 287.688l-.276 2.845 46.02 4.464.276-2.845-46.02-4.464z"/><use xlink:href="#M" x="-20.769" y="214.002"/><path d="M64.076 330.483l-.276 2.845 46.021 4.464.275-2.845-46.02-4.464z"/></g><path d="M173.831 36.645s-.589.727-1.001.92l-1.319.543c-.14.061-.276.13-.407.206-.38.233-1.138.858-2.204 1.164l-5.877 1.403-1.118-2.855-.814-2.307s4.459-5.778 5.426-6.177c.088-.039.178-.073.271-.1.844-.271 1.58-.098 2.038-.185.171-.03 1.868-.223 2.234.133a1.66 1.66 0 0 1 .484.683c.101.265.132.551.092.832 0 0 .958 1.007 1.026 1.938 0 0 .914.901.67 2.084.008 0 .83 1.015.499 1.718z" class="B"/><path d="M122.253 74.083c1.113-.716 2.552-1.685 7.529-4.174 9.267-4.639 20.707-13.042 22.884-14.258 3.344-1.865 13.913-14.776 13.913-14.776-.543-1.946-5.556-5.849-5.556-5.849s-16.014 15.175-19.521 17.043c-3.012 1.607-17.881 3.23-21.985 3.651l-1.045.106c-4.272 5.833 1.393 19.795 3.781 18.258z" class="D"/><path d="M120.62 107.711s4.532 16.828 5.729 22.851c1.04 5.244 3.135 19.208 3.434 22.528s-13.384 35.456-14.806 41.256l-12.464-2.003s13.15-33.445 9.72-40.879c-5.103-11.052-5.765-10.718-9.785-19.814s-13.218-9.32-15.688-26.216c0 .002 30.516-3.073 33.86 2.277z" class="G"/><g class="B"><path d="M98.458 25.932s8.276-3.091 12.092 3.208 3.447 18.913-.725 20.463-10.436.738-12.572-3.203-4.071-9.641-3.971-13.449 3.002-5.92 5.176-7.019z"/><path d="M108.435 49.215s-.333 2.171.22 3.238-10.409 1.086-10.409 1.086-.89-5.811-2.579-10.724 12.767 6.4 12.767 6.4z"/></g><path d="M95.667 42.825s.757 1.249 3.846.765 6.856-4.595 8.143-5.046 1.3-1.208 1.3-1.208l.814 1.181 1.357.084s-1.248-3.675.635-5.173-1.954-11.896-11.858-8.436c0 0-7.6 2.098-7.328 6.424s1.39 9.253 3.092 11.408z" fill="#d88a51"/><path d="M108.755 35.764c-.174-.725-2.019-2.798-2.714-.578s1.056 5.214 2.046 4.943 1.108-2.524.668-4.365z" class="B"/><path d="M77.192 80.857c.09 1.086 1.33 2.261 2.171 2.839.561.385 1.22.6 1.9.621l.491.016 8.59.307s6.395-20.663-5.599-28.543c-.369.022-8.387 14.801-7.554 24.759z" class="D"/><path d="M103.123 203.976c.725 1.401 4.687 1.129 12.724 2.21 1.749.257 3.514.388 5.282.39l.47-4.834c-2.351-.814-5.084-1.661-6.124-2.383-1.826-1.27-3.569-3.919-3.569-3.919-4.771-.041-6.489-.977-6.489-.977s-3.013 8.113-2.294 9.513z" class="G"/><path d="M108.443 51.823s-6.748-1.569-10.553-.285l-.573.543s-1.156 2.215 3.195 2.405 11.191.497 7.931-2.663z" class="D"/><path d="M82.072 209.956l-1.151 4.571c-.138.597-6.368-1.047-6.368-1.047v-4.859s6.788.681 7.518 1.335z" fill="#666fb3"/><path d="M86.759 105.438s-2.272 9.369-2.945 18.749c-.621 8.669-1.753 18.186-2.652 27.243-1.004 10.108-3.865 26.447-4.012 31.854s-4.701 29.042-4.701 29.042l11.641 1.338s7.562-41.755 9.348-46.025 10.645-34.698 10.944-38.113-17.624-24.088-17.624-24.088zm-5.716 108.584s1.745 2.649 3.572 3.919 8.876 2.91 9.904 4.131c.744.883 1.775 4.218-9.535 2.696-8.034-1.086-12-.815-12.721-2.21s2.293-9.513 2.293-9.513 1.718.936 6.487.977z" class="G"/><path d="M122.975 128.746c.991-.141-2.462-29.696-2.199-31.55.177-1.238.15-10.841.076-16.828l1.086-6.061a27.73 27.73 0 0 1 2.372-1.498c1.501-.869 3.385-1.857 5.478-2.901-.245-1.433-.413-2.559-.478-3.219-.524-5.323-4.098-8.143-6.126-9.329-.446-.269-.912-.503-1.395-.698l-2.261-.945c-4.886-2.009-11.079-3.895-11.079-3.895h-9.967s-7.584 1.514-12.103 3.366c-.574.237-1.121.538-1.629.896l1.357 28.399a.52.52 0 0 0 0 .054c.608 3.995 1.251 8.707 1.466 12.013.087 1.357-1.455 8.593-2.261 15.243l-2.817 15.913s1.629 6.604 40.48 1.04z" class="D"/><path d="M249.638 70.216s-8.994-7.716-14.314-10.238c-3.679-1.74-9.159-2.605-9.461-2.605 0 0-2.677 1.344-8.664 1.344s-8.663-1.344-8.663-1.344c-.303 0-5.782.859-9.461 2.605-5.326 2.517-14.314 10.238-14.314 10.238-.308.242-.43.644-.308 1.019.578 1.795 2.505 7.397 8.123 11.731.341.264.826.248 1.162-.028 1.399-1.178 5.739-3.861 5.739-3.861l-.391 33.6c-.05.413.159.821.528 1.008 1.592.821 7.193 2.759 17.591 2.759s15.999-1.944 17.591-2.759a1 1 0 0 0 .528-1.008l-.391-33.6s4.34 2.688 5.739 3.861a.92.92 0 0 0 1.162.028c5.618-4.34 7.545-9.935 8.123-11.731.111-.374-.011-.776-.319-1.019z" fill="#b7e4ea"/><path d="M208.134 58.31s1.361 7.358 8.84 7.352c9.197-.005 9.792-7.699 9.792-7.699s-5.414 1.619-9.495 1.619-9.137-1.272-9.137-1.272z" fill="#75c6d3"/><path d="M216.974 60.683c-2.71 0-5.568-.534-7.419-.964l-1.151-2.666c.05.017 4.566 1.256 8.603 1.256 4.059 0 8.96-1.25 9.015-1.272l-.886 2.599c-1.956.43-5.254 1.046-8.162 1.046z" fill="#0288d1"/><path d="M210.425 57.527l-2.015-.474 1.211 2.677 1.135.248c-.309-.881-.413-1.658-.331-2.451zm12.86 2.484l1.801-.369.936-2.605-1.823.413c-.115.859-.539 1.801-.914 2.561z" fill="#01579b"/><path d="M216.897 67.021c-6.532 0-10.04-5.463-10.927-9.016 0 0-.132-.286.248-.413.281-.094 1.432-.479 1.938-.584.182-.038.358.066.419.248.479 1.382 2.748 7.027 8.795 7.027 6.119 0 8.063-5.557 8.454-7.011.05-.198.237-.314.43-.275.523.11 1.641.518 1.911.617.336.127.259.369.259.369-.524 3.453-3.31 9.032-11.522 9.038h-.005zm31.43 2.027c-.066-.055-.165-.022-.187.061-.176.722-.997 3.574-3.464 7.132a35.95 35.95 0 0 1-5.034 5.777c-.055.049-.05.132.011.176l1.03.793c.22.149.347.204.562.204.198 0 .418-.066.583-.193 5.618-4.34 7.579-9.946 8.157-11.742.055-.171.105-.518-.099-.826-.193-.281-1.184-1.079-1.559-1.382zm-62.255 0c.066-.055.165-.022.187.061.176.722.997 3.574 3.464 7.132a35.95 35.95 0 0 0 5.034 5.777c.055.049.049.132-.011.176l-1.03.793c-.22.149-.347.204-.562.204-.198 0-.418-.066-.584-.193-5.617-4.334-7.578-9.946-8.156-11.742-.055-.171-.105-.518.099-.826.193-.281 1.184-1.079 1.559-1.382z" fill="#29b6f6"/><use xlink:href="#L" x="122.889" opacity=".95" fill="url(#E)"/><path d="M324.791 65.315l.157-1.269a3.69 3.69 0 0 1 1.221-2.308c.675-.595 1.543-.923 2.443-.922h26.763a3.69 3.69 0 0 1 2.442.922c.675.595 1.109 1.415 1.221 2.308l.157 1.267c.017.131.005.263-.034.389s-.104.242-.192.34a.91.91 0 0 1-.315.23.92.92 0 0 1-.382.079h-32.565a.92.92 0 0 1-.691-.312c-.087-.098-.152-.213-.191-.338s-.05-.257-.034-.386zm26.661 4.73c.412 1.584 1.337 2.987 2.632 3.989s2.884 1.546 4.521 1.548h.828c.131.001.262-.026.382-.079a.93.93 0 0 0 .507-.57.93.93 0 0 0 .034-.389l-.462-3.691a.92.92 0 0 0-.308-.579c-.17-.149-.389-.23-.615-.228h-7.519zm-26.899 5.537h.829a7.4 7.4 0 0 0 7.152-5.537h-7.519c-.226-.002-.445.079-.615.228a.92.92 0 0 0-.308.579l-.461 3.691c-.017.131-.005.263.034.389s.104.242.191.34a.93.93 0 0 0 .697.31zm39.561 29.07l-3.073-24.571a.92.92 0 0 0-.308-.579c-.17-.149-.389-.23-.615-.228h-1.513a11.09 11.09 0 0 1-10.918-9.229h-3.848v9.166a1.89 1.89 0 0 1-1.724 1.903 1.85 1.85 0 0 1-1.385-.495c-.184-.173-.331-.382-.431-.615s-.152-.483-.152-.736v-9.224h-3.848c-.439 2.579-1.776 4.919-3.773 6.608a11.09 11.09 0 0 1-7.144 2.621h-1.521c-.226-.002-.445.079-.615.228s-.279.355-.308.579l-3.066 24.571a3.7 3.7 0 0 0 .29 1.956c.273.614.708 1.141 1.258 1.526.649.445 1.419.68 2.206.671h9.298a3.69 3.69 0 0 0 2.266-.777c.648-.504 1.11-1.21 1.312-2.005l5.491-21.226 5.489 21.212a3.69 3.69 0 0 0 3.581 2.796h9.297c.787.01 1.557-.222 2.206-.667a3.69 3.69 0 0 0 1.548-3.486z" fill="#8424ff"/><defs><linearGradient id="A" x1="102.025" y1="-186.75" x2="263.792" y2="122.67" xlink:href="#N"><stop offset=".17" stop-color="#69ffe9"/><stop offset="1" stop-color="#2749a8"/></linearGradient><linearGradient id="B" x1="87.254" y1="94.518" x2="384.867" y2="94.518" xlink:href="#N"><stop stop-color="#ff9f55"/><stop offset="1" stop-color="#ffd255"/></linearGradient><linearGradient id="C" x1="159.495" y1="237.851" x2="299.068" y2="237.851" xlink:href="#N"><stop stop-color="#ff9f55"/><stop offset="1" stop-color="#ffd255"/></linearGradient><linearGradient id="D" x1="178.117" y1="81.972" x2="12.537" y2="81.972" xlink:href="#N"><stop stop-color="#edf4ff"/><stop offset="1" stop-color="#edfffe"/></linearGradient><linearGradient id="E" x1="320.105" y1="83.858" x2="127.107" y2="83.858" xlink:href="#N"><stop stop-color="#edf4ff"/><stop offset="1" stop-color="#edfffe"/></linearGradient><linearGradient id="F" x1="34.649" y1="165.57" x2="34.649" y2="195.834" xlink:href="#N"><stop stop-color="#ffa35f"/><stop offset="1" stop-color="#e39155"/></linearGradient><linearGradient id="G" x1="14.838" y1="224.924" x2="14.838" y2="255.187" xlink:href="#N"><stop stop-color="#ffa35f"/><stop offset="1" stop-color="#e39155"/></linearGradient><linearGradient id="H" x1="44.515" y1="224.924" x2="44.515" y2="255.187" xlink:href="#N"><stop stop-color="#ffa35f"/><stop offset="1" stop-color="#e39155"/></linearGradient><linearGradient id="I" x1="74.19" y1="224.924" x2="74.19" y2="255.187" xlink:href="#N"><stop stop-color="#ffa35f"/><stop offset="1" stop-color="#e39155"/></linearGradient><linearGradient id="J" x1="51.035" y1="195.248" x2="51.035" y2="225.512" xlink:href="#N"><stop stop-color="#ffa35f"/><stop offset="1" stop-color="#e39155"/></linearGradient><linearGradient id="K" x1="21.361" y1="198.73" x2="21.361" y2="223.886" xlink:href="#N"><stop stop-color="#ffa35f"/><stop offset="1" stop-color="#e39155"/></linearGradient><path id="L" d="M264.315 29.559h-90.421a9.09 9.09 0 0 0-9.089 9.09v90.421a9.09 9.09 0 0 0 9.089 9.089h90.421a9.09 9.09 0 0 0 9.089-9.089V38.648a9.09 9.09 0 0 0-9.089-9.09z"/><path id="M" d="M86.926 95.124l-.276 2.845 46.021 4.463.276-2.844-46.021-4.464z"/><linearGradient id="N" gradientUnits="userSpaceOnUse"/></defs></svg>