<svg xmlns="http://www.w3.org/2000/svg" width="306" height="220" fill="none" xmlns:v="https://vecta.io/nano"><style><![CDATA[.B{fill:#fff}.C{fill:#ffcc59}.D{opacity:.5}.E{fill:#f7974d}.F{fill:#1c056d}.G{fill:#fe8e9c}.H{fill:#1b3d9e}.I{fill:#d4dfff}.J{fill:#eaf2fc}.K{fill:#e57492}.L{fill:#6880e4}.M{fill:#fc476a}.N{fill:#d40221}]]></style><g clip-path="url(#U)"><path d="M124.3 195.703l-2.042 9.029c-.127.085-5.241.086-6.487-.727l.344-9.286 8.185.984z" class="G"/><mask id="A" maskUnits="userSpaceOnUse" x="115" y="194" width="10" height="11"><path d="M124.3 195.703l-2.042 9.029c-.127.085-5.241.086-6.487-.727l.344-9.286 8.185.984z" class="B"/></mask><g mask="url(#A)" class="K"><path d="M124.856 194.989s-.139 3.06-.744 3.408-7.672.556-8.341.023.127-4.195.127-4.195l8.958.764z"/></g><path d="M115.155 202.778c.96.177 4.943.832 7.977.085.031-.008.063-.007.093.001s.058.023.081.044.04.048.049.078a.18.18 0 0 1 .006.092l-.496 3.071c.018.416 11.051 4.586 11.786 5.711.487.743.683 1.725.763 2.304a.41.41 0 0 1-.016.177c-.018.057-.049.11-.09.154a.41.41 0 0 1-.147.1c-.056.023-.117.033-.177.03l-20.67-1.1a.46.46 0 0 1-.329-.167.44.44 0 0 1-.085-.168c-.017-.061-.02-.125-.009-.188l.882-5.409.162-4.636c.001-.027.007-.053.019-.077s.029-.046.05-.062.045-.03.071-.036.053-.008.08-.004z" class="H"/><path d="M101.793 197.041l-2.544 9.739c-.127.086-5.241.085-6.488-.727l-.204-9.303 9.235.291z" class="G"/><mask id="B" maskUnits="userSpaceOnUse" x="92" y="196" width="10" height="11"><path d="M101.793 197.041l-2.544 9.739c-.127.086-5.241.085-6.488-.727l-.204-9.303 9.235.291z" class="B"/></mask><g mask="url(#B)" class="K"><path d="M101.443 200.235s-7.183.798-9.329-.854l.2-3.96 9.531.541-.402 4.273z"/></g><path d="M92.135 205.01c.963.159 4.961.734 7.979-.073.03-.008.062-.009.093-.002s.058.022.082.043a.2.2 0 0 1 .051.077c.01.03.012.061.007.092l-.435 3.08c.027.417 11.139 4.367 11.897 5.476.491.719.709 1.67.802 2.251.01.065.006.131-.012.194a.45.45 0 0 1-.091.171c-.043.049-.096.089-.156.117s-.125.041-.19.041H91.427c-.065 0-.129-.014-.189-.041a.45.45 0 0 1-.154-.114c-.043-.049-.074-.107-.092-.169s-.023-.127-.014-.191l.874-6.13.069-4.639c.001-.027.007-.053.018-.077s.028-.045.048-.062.044-.03.07-.038a.21.21 0 0 1 .079-.006z" class="H"/><path d="M305.833 89.033c1.511 22.332-7.338 45.232-22.694 61.423-6.282 6.627-13.635 12.159-21.752 16.369-28.259 14.639-64.013 12.575-91.481-3.486-12.757-7.46-23.995-17.731-37.866-22.856-18.409-6.8-38.77-3.648-58.357-2.28s-41.236.127-55.717-13.07C-.262 108.52-2.467 79.965 1.953 57.199 7.107 30.621 25.252 11.778 51.276 3.944c2.358-.71 4.744-1.322 7.157-1.835 25.429-5.427 49.158.465 73.382 8.119 10.725 3.39 21.572 6.646 32.831 7.655 20.532 1.839 41.15-2.197 61.71-.309 36.027 3.311 69.849 23.938 78.007 61.11.746 3.409 1.237 6.868 1.47 10.35z" fill="#f6f9ff"/><path d="M146.241 127.426l2.263 3.998c-.127.106-1.422 1.266-4.632.797-.146-.022-2.209-2.642-2.209-2.642l4.578-2.153z" class="G"/><path d="M126.353 85.683s5.331 20.32 6.35 21.038 15.985 21.319 14.989 22.124-6.973 3.15-8.967 2.786-14.309-16.692-15.392-17.634-4.228-28.166-4.228-28.166l7.248-.148z" class="M"/><mask id="C" maskUnits="userSpaceOnUse" x="119" y="85" width="29" height="47"><path d="M126.353 85.683s5.331 20.32 6.35 21.038 15.985 21.319 14.989 22.124-6.973 3.15-8.967 2.786-14.309-16.692-15.392-17.634-4.228-28.166-4.228-28.166l7.248-.148z" class="B"/></mask><g mask="url(#C)" class="N"><path d="M138.585 132.809s-15.95-16.337-16.409-17.422-3.262-5.426-3.262-5.426l3.492-4.813s5.106 8.013 5.737 8.414 15.774 16.393 12.737 18.49c-.548.38-2.295.757-2.295.757z"/><path d="M127.876 118.779l.668-13.783c1.423-16.528-2.829-21.485-2.829-21.485s-2.322 31.265-1.203 32.808 3.364 2.46 3.364 2.46z"/></g><path d="M122.548 77.224s6.462 10.295 5.145 20.01-2.379 31.611-2.379 31.611l-11.272-1.199 5.284-49.671 3.222-.751z" class="M"/><path d="M120.488 116.319l14.901 34.795c2.644 8.461-7.52 44.11-7.633 45.258s-13.182 1.226-13.993 0 2.379-40.216 2.379-40.216-19.463-31.294-16.6-34.481c3.835-4.266 20.947-5.356 20.947-5.356z" class="H"/><mask id="D" maskUnits="userSpaceOnUse" x="99" y="116" width="37" height="82"><path d="M120.488 116.319l14.901 34.795c2.644 8.461-7.52 44.11-7.633 45.258s-13.182 1.226-13.993 0 2.379-40.216 2.379-40.216-19.463-31.294-16.6-34.481c3.835-4.266 20.947-5.356 20.947-5.356z" class="B"/></mask><g mask="url(#D)" class="F"><path d="M120.958 198.519c.052 0 .102-.019.142-.052s.065-.081.072-.132c.254-1.689 6.284-41.413 5.852-43.241-.432-1.801-11.926-32.168-12.416-33.457-.021-.052-.062-.094-.114-.117s-.11-.024-.163-.004a.22.22 0 0 0-.119.111c-.024.05-.027.109-.009.162l12.399 33.405c.335 1.393-3.689 28.79-5.851 43.078-.008.056.006.114.04.159s.085.077.142.085c.008.002.017.003.025.003z"/><path d="M132.427 137.242s-4.556.266-6.233-.954c-2.162-1.574-11.475-13.736-11.475-13.736l8.057-4.594 9.651 19.284z"/></g><path d="M112.241 149.689l1.399-15.133c.27-.409 2.964 19.983 1.876 20.589l-3.275-5.456z" class="F"/><path d="M96.978 114.001s-6.311 12.513-6.488 19.971-1.261 61.781 0 62.676 13.452 3.227 13.748 0 16.017-80.224 8.396-80.294-15.657-2.353-15.657-2.353z" class="H"/><mask id="E" maskUnits="userSpaceOnUse" x="89" y="114" width="26" height="85"><path d="M96.978 114.001s-6.311 12.513-6.488 19.971-1.261 61.781 0 62.676 13.452 3.227 13.748 0 16.017-80.224 8.396-80.294-15.657-2.353-15.657-2.353z" class="B"/></mask><g mask="url(#E)" class="F"><path d="M95.777 199.865c.055 0 .107-.02.147-.057s.065-.088.069-.142l3.475-47.852c.066-3.138 7.696-37.42 7.772-37.766a.21.21 0 0 0-.028-.162c-.031-.049-.08-.083-.136-.095s-.114-.002-.163.028a.22.22 0 0 0-.095.135c-.315 1.415-7.715 34.671-7.782 37.851-.066 3.152-3.435 47.382-3.474 47.828-.002.028.001.057.01.084s.023.052.041.073.041.039.066.052a.21.21 0 0 0 .081.023h.016z"/><path d="M111.42 121.961s-2.812 15.552-4.214 16.127c-4.099 1.68-14.074-3.146-17.321-8.739s6.003-14.232 6.003-14.232l15.532 6.844z"/></g><path d="M121.822 78.313s3.012 9.468 2.662 14.711-5.686 29.75-6.673 30.567-6.008.497-8.585-.275-9.525-3.46-9.068-4.091 5.713-29.716 6.403-32.313 4.938-11.629 4.938-11.629 4.895 4.321 6.391 4.131 3.932-1.102 3.932-1.102z" class="B"/><path d="M117.035 66.208a1.05 1.05 0 0 1-.048-.165c-.289-1.579-1.688-11.722 1.099-14.163s12.476-.842 11.629 4.003c0 0-1.917 6.087 0 8s4.007 3.385 2.417 3.673-2.947-.946-3.523-.275-.623 5.55-2.833 5.168c-.676-.117-1.73-.612-2.88-1.288-.369 2.793-.874 6.435-1.084 7.15-.349 1.191-9.022-1.537-10.328-3.029-1.165-1.344 4.42-7.796 5.551-9.076z" class="G"/><mask id="F" maskUnits="userSpaceOnUse" x="111" y="50" width="22" height="29"><path d="M117.035 66.208a1.05 1.05 0 0 1-.048-.165c-.289-1.579-1.688-11.722 1.099-14.163s12.476-.842 11.629 4.003c0 0-1.917 6.087 0 8s4.007 3.385 2.417 3.673-2.947-.946-3.523-.275-.623 5.55-2.833 5.168c-.676-.117-1.73-.612-2.88-1.288-.369 2.793-.874 6.435-1.084 7.15-.349 1.191-9.022-1.537-10.328-3.029-1.165-1.344 4.42-7.796 5.551-9.076z" class="B"/></mask><g mask="url(#F)" class="K"><path d="M129.435 60.015s-4.252-1.706-5.163-3.488c0 0-1.334 2.744-2.786 2.6l.958-5.923 9.262 2.394-2.271 4.417z"/></g><path d="M122.906 71.163s-1.586-1.056-2.31-2.252c-.013-.022-.032-.04-.055-.05a.12.12 0 0 0-.074-.008c-.025.006-.048.019-.064.038s-.027.043-.029.069c-.077.96-.042 3.447 2.258 4.24l.274-2.038z" class="K"/><path d="M146.241 133.815s-.396 16.249-.915 16.303-1.83.415-1.801-.1.304-16.155.571-16.323 2.145.12 2.145.12z" class="I"/><mask id="G" maskUnits="userSpaceOnUse" x="143" y="133" width="4" height="18"><path d="M146.241 133.815s-.396 16.249-.915 16.303-1.83.415-1.801-.1.304-16.155.571-16.323 2.145.12 2.145.12z" class="B"/></mask><g mask="url(#G)" class="L"><path opacity=".4" d="M144.882 133.643s.72 15.372 0 15.638-2.274-.48-2.274-.48l.589-15.158h1.685z"/></g><path d="M155.119 132.257s-20.449-.462-21.565 0-.731 2.931-.371 2.931h21.936c.363-.205.975-2.528 0-2.931z" class="L"/><mask id="H" maskUnits="userSpaceOnUse" x="132" y="132" width="24" height="4"><path d="M155.119 132.257s-20.449-.462-21.565 0-.731 2.931-.371 2.931h21.936c.363-.205.975-2.528 0-2.931z" class="B"/></mask><g mask="url(#H)" class="F"><path opacity=".24" d="M156.321 134.447s-24.059-1.465-24.424-.952-.478 2.16.367 2.234 24.279.216 24.242-.148-.185-1.134-.185-1.134z"/></g><path d="M149.52 145.956c-.119-.691-9.329-.691-9.729-.269s-2.502 67.576-1.622 67.576 9.712.222 10.185.064 1.538-65.205 1.166-67.371z" class="L"/><mask id="I" maskUnits="userSpaceOnUse" x="137" y="145" width="13" height="69"><path d="M149.52 145.956c-.119-.691-9.329-.691-9.729-.269s-2.502 67.576-1.622 67.576 9.712.222 10.185.064 1.538-65.205 1.166-67.371z" class="B"/></mask><g mask="url(#I)" class="F"><path opacity=".24" d="M148.38 144.031s.156 58.145-12.238 64.007v7.404h17.046v-71.411h-4.808z"/></g><path d="M155.279 212.786s-23.598-.656-23.693 0-.563 3.65 0 3.65h23.693c.375-.094.847-3.183 0-3.65z" class="L"/><g class="F"><path d="M149.598 150.614c.086.003.169-.029.232-.088a.32.32 0 0 0 .012-.457c-.06-.063-.14-.098-.226-.101l-10.12-.459c-.086.005-.166.044-.223.108a.32.32 0 0 0-.081.234.32.32 0 0 0 .109.223c.064.057.149.086.235.081 1.017-.062 9.952.454 10.043.459h.019zm-11.64 58.449h.045c1.264-.175 10.519 0 10.611 0 .083-.005.161-.041.218-.101a.33.33 0 0 0 .088-.222c0-.083-.032-.162-.088-.222a.33.33 0 0 0-.218-.102c-.381-.008-9.399-.179-10.713 0-.081.012-.154.054-.205.118a.32.32 0 0 0-.07.225.32.32 0 0 0 .1.213c.06.056.138.087.22.089l.012.002z"/></g><g fill="#ffe0c1"><path d="M122.132 76.944l-2.806 1.031c-.808.255.785 2.824 1.126 2.682.294-.127 1.781-1.422 2.194-2.856.026-.09.032-.183.02-.276a.69.69 0 0 0-.09-.261.7.7 0 0 0-.186-.205.72.72 0 0 0-.253-.116h-.005zm-10.928-3.522s6.831 3.782 6.696 4.401-1.461 2.622-1.726 2.513-5.925-4.823-5.99-5.223 1.02-1.691 1.02-1.691z"/></g><g class="H"><path d="M119.326 77.975s.453.648.382 1.275-.819 1.934-1.073 1.876-1.479-1.434-1.345-1.9.41-1.37.606-1.406 1.43.154 1.43.154z"/><path d="M119.282 79.865s1.74 15.831 2.027 21.615.114 10.415-.017 11.008-3.108 5.961-3.369 5.856-2.592-5.87-2.671-6.478 1.25-15.507 1.357-18.079 1.654-14.125 1.654-14.125l1.019.203z"/></g><path d="M133.888 125.138l4.093 4.153c.134 0 3.769 2.209 4.183 2.575s.336 2.764.154 3.936-2.738 1.052-3.542.952-4.159-.983-4.229-1.555c-.054-.434-.017-2.964-.017-2.964l-5.343-2.924 4.701-4.173z" class="G"/><path d="M96.678 96.339c.273-1.906.648-17.038 12.466-22.195.28-.123.584-.182.89-.173a2.06 2.06 0 0 1 .877.225 2.05 2.05 0 0 1 1.073 1.399l.011.054 6.919 31.104c.519.774 18.044 17.313 18.366 18.997s-6.522 7.861-9.166 7.228c-2.518-.603-16.735-12.687-20.111-16.655-1.111 9.555-2.162 18.253-2.693 18.253-1.007 0-16.544-9.166-17.839-12.317s8.92-23.916 9.207-25.921z" class="M"/><g class="N"><path d="M108.003 116.326c-1.11-1.174-2.048-2.5-2.787-3.936-1.145-2.279-2.742-14.691-2.742-14.691s-.701 14.121.61 16.897 4.526 5.085 4.526 5.085l.393-3.355zm10.911-9.572s-.958 2.813-4.951 3.622c0 0 4.128-2.434 4.609-4.771l.342 1.149z"/></g><path d="M145.472 131.557c-.033.096-.143.141-.111.237l.686 2.319c.126.611.202 1.231.229 1.854.035 1.14 5.807.899 6.217.191s.793-2.501.656-2.913-1.284-1.844-1.78-2.01-5.128-1.904-5.897.322z" class="G"/><path d="M129.281 57.568s-5.724-1.491-6.614-3.816c0 0 2.199 3.351-1.546 5.881 0 0 .756-2.359-1.408-2.188s-1.065 3.557 0 3.489c0 0-2.103 3.592-2.958 3.506s-2.566-6.389-2.129-10.005 1.017-5.013 4.745-5.736 12.782 3.374 13.798 2.651 1.399 2.533-.626 2.652c0 0 1.388.932.163 1.925s-1.941.374-1.941.374.5 1.634-1.484 1.268z" class="H"/><path d="M128.095 69.116s-2.228.331-3.013-2.614c0 0 3.262 1.583 3.013 2.614z" class="B"/><path d="M277.937 64.931c-6.419-6.391-6.419-16.752 0-23.142s16.826-6.39 23.245 0 6.419 16.752 0 23.142-16.826 6.391-23.245 0z" class="I"/><path d="M283.461 55.195c.263-.744.671-1.43 1.201-2.016a8.08 8.08 0 0 1 1.719-1.429l1.712-.984.99-.551c.237-.138.46-.3.662-.485.115-.102.207-.225.273-.364a.42.42 0 0 0 0-.211c-.008-.044-.016-.087-.176-.167-.09-.044-.455-.179-1.38-.027-.509.09-1.007.235-1.485.431a8.47 8.47 0 0 0-1.526.795 1.34 1.34 0 0 1-.515.201c-.184.031-.372.022-.552-.024a1.33 1.33 0 0 1-.495-.245 1.34 1.34 0 0 1-.353-.425l-1.174-2.235a1.32 1.32 0 0 1-.117-.911 1.33 1.33 0 0 1 .506-.768c.69-.509 1.438-.934 2.229-1.267-.294-.566-.672-1.393-.605-1.803.104-.652 2.135-1.022 2.957-1.192.636-.133.961 1.429 1.071 2.128a9.29 9.29 0 0 1 2.406 0c.849.112 1.668.391 2.408.822.691.413 1.271.989 1.689 1.676.391.649.654 1.366.775 2.114.17 1.026.107 1.958-.187 2.771-.264.742-.672 1.426-1.201 2.011-.488.537-1.049 1.004-1.666 1.386l-1.554.886-1.116.603c-.26.138-.504.302-.728.491a1.23 1.23 0 0 0-.305.37.33.33 0 0 0 0 .16c.049.3.152.388.352.462.45.168 1.018.199 1.682.09.597-.101 1.175-.29 1.716-.562.554-.269 1.08-.594 1.567-.971a1.33 1.33 0 0 1 .528-.254 1.34 1.34 0 0 1 .587-.003 1.33 1.33 0 0 1 .53.248 1.31 1.31 0 0 1 .372.451l1.199 2.377a1.32 1.32 0 0 1 .112.873c-.063.295-.226.56-.461.751-.737.587-1.55 1.073-2.417 1.444l-.098.042c.286.561.738 1.54.657 1.991-.119.65-2.163.976-2.983 1.13-.669.127-.953-1.577-1.037-2.23a10.74 10.74 0 0 1-2.417.067c-.878-.07-1.735-.31-2.521-.706a5.71 5.71 0 0 1-1.952-1.632 5.76 5.76 0 0 1-1.059-2.586c-.166-1-.106-1.919.18-2.722z" class="J"/><path d="M158.41 83.139c-3.153-3.139-3.153-8.229 0-11.368a8.1 8.1 0 0 1 11.418 0c3.154 3.139 3.154 8.229 0 11.368a8.1 8.1 0 0 1-11.418 0z" class="I"/><path d="M161.237 76.231a2.98 2.98 0 0 1 1.091-.38 4.05 4.05 0 0 1 1.1 0l.955.167.548.104c.134.022.269.031.404.025a.57.57 0 0 0 .217-.052c.029-.019.053-.046.069-.077.011-.019.023-.038-.013-.118-.02-.046-.114-.212-.509-.445-.221-.126-.455-.228-.698-.305a4.24 4.24 0 0 0-.828-.18.66.66 0 0 1-.258-.086c-.079-.046-.147-.108-.2-.183s-.09-.159-.109-.248a.65.65 0 0 1 .002-.27l.266-1.211a.65.65 0 0 1 .245-.378c.124-.093.278-.139.433-.129.42.025.836.1 1.239.223.069-.305.19-.736.343-.869.247-.213 1.129.285 1.493.48.282.151-.092.84-.271 1.14a4.56 4.56 0 0 1 .904.76c.285.309.505.671.646 1.065a2.39 2.39 0 0 1 .106 1.161c-.059.368-.189.721-.382 1.04-.225.404-.552.743-.947.985a3 3 0 0 1-1.089.38c-.354.049-.714.049-1.068 0l-.863-.154-.612-.127a2.02 2.02 0 0 0-.429-.043c-.08-.001-.159.014-.233.043-.022.016-.039.037-.051.061-.032.039-.052.088-.054.139s.012.102.04.144a1.63 1.63 0 0 0 .606.562c.257.149.535.259.824.327.294.073.595.115.898.127.098.002.193.026.28.07s.162.106.221.183a.65.65 0 0 1 .122.26.66.66 0 0 1-.003.287l-.302 1.266a.65.65 0 0 1-.232.367c-.118.092-.263.142-.413.14a5.16 5.16 0 0 1-1.367-.215l-.05-.014c-.07.3-.21.812-.381.955-.255.208-1.121-.309-1.481-.507-.291-.163.14-.886.315-1.165a5.28 5.28 0 0 1-.929-.732 3.32 3.32 0 0 1-.727-1.058 2.79 2.79 0 0 1-.217-1.227c.03-.463.174-.912.419-1.307a2.69 2.69 0 0 1 .93-.984z" class="J"/><path d="M27.414 108.69a13.66 13.66 0 0 1 0-19.372c5.373-5.349 14.085-5.349 19.458 0a13.66 13.66 0 0 1 0 19.372c-5.373 5.349-14.085 5.349-19.458 0z" class="I"/><path d="M31.812 98.94c.398-.528.897-.973 1.468-1.308.542-.316 1.126-.555 1.734-.71l1.615-.356.929-.191c.224-.05.443-.125.651-.222a.95.95 0 0 0 .31-.222c.033-.05.053-.108.059-.167 0-.038.01-.073-.098-.177-.061-.059-.319-.253-1.095-.368-.431-.055-.866-.065-1.299-.029a7.2 7.2 0 0 0-1.423.253 1.12 1.12 0 0 1-.894-.128c-.132-.082-.245-.191-.332-.319a1.11 1.11 0 0 1-.174-.425l-.379-2.08a1.11 1.11 0 0 1 .137-.757c.135-.228.347-.401.598-.487a9.07 9.07 0 0 1 2.099-.45c-.091-.526-.183-1.283-.028-1.592.254-.494 1.963-.28 2.664-.209.544.055.404 1.382.316 1.967.664.118 1.309.323 1.919.608.651.303 1.233.734 1.713 1.266a4.11 4.11 0 0 1 .926 1.76 4.97 4.97 0 0 1 .084 1.882 4.58 4.58 0 0 1-.85 2.164c-.399.526-.897.97-1.467 1.306a6.56 6.56 0 0 1-1.682.688l-1.462.314-1.046.201c-.242.045-.478.116-.705.211a1.05 1.05 0 0 0-.337.217.28.28 0 0 0-.039.127c-.037.253.023.348.163.457.318.254.763.414 1.32.494a5.08 5.08 0 0 0 1.512-.019 7.5 7.5 0 0 0 1.497-.38 1.13 1.13 0 0 1 .486-.069c.165.013.325.063.469.145s.267.195.361.331a1.11 1.11 0 0 1 .183.453l.355 2.198c.041.249-.005.505-.131.725s-.322.39-.559.483a8.84 8.84 0 0 1-2.29.548l-.089.008c.087.52.2 1.416.02 1.754-.254.49-1.969.239-2.671.156-.565-.07-.361-1.499-.263-2.041a8.99 8.99 0 0 1-1.944-.551 5.73 5.73 0 0 1-1.834-1.195c-.512-.505-.904-1.118-1.145-1.794a4.82 4.82 0 0 1-.192-2.33 4.55 4.55 0 0 1 .837-2.139z" class="J"/><path d="M45.948 52.632a22.37 22.37 0 0 1 0-31.73c8.801-8.762 23.07-8.762 31.871 0a22.37 22.37 0 0 1 0 31.73c-8.801 8.762-23.07 8.762-31.871 0z" class="I"/><path d="M54.996 31.419c1.045-.294 2.138-.38 3.217-.253 1.021.124 2.02.389 2.968.787l2.46 1.132 1.399.667c.343.156.701.275 1.069.356a1.59 1.59 0 0 0 .625.016.58.58 0 0 0 .243-.161c.045-.044.087-.085.05-.328-.02-.137-.159-.65-1.061-1.562a9.99 9.99 0 0 0-1.66-1.322c-.663-.43-1.369-.791-2.107-1.078-.238-.093-.454-.234-.634-.415a1.82 1.82 0 0 1-.41-.635c-.09-.238-.13-.492-.116-.746s.082-.502.199-.728l1.588-3.076c.199-.386.529-.688.932-.852s.851-.18 1.265-.044c1.115.369 2.183.868 3.18 1.487.405-.774 1.039-1.853 1.549-2.102.818-.399 2.838 1.574 3.681 2.357.655.609-.85 2.201-1.548 2.877.747.809 1.384 1.712 1.895 2.686.547 1.036.88 2.17.979 3.336a6.72 6.72 0 0 1-.548 3.208c-.422.948-1.021 1.808-1.766 2.533-1.018.999-2.117 1.667-3.265 1.981a8.29 8.29 0 0 1-3.212.253 10.66 10.66 0 0 1-2.876-.76l-2.22-1.033-1.562-.769c-.36-.181-.738-.323-1.128-.422-.213-.059-.437-.076-.656-.049-.07.027-.131.07-.179.127-.299.293-.317.477-.243.76.168.633.581 1.291 1.229 1.945.587.586 1.26 1.081 1.995 1.469a12.23 12.23 0 0 0 2.333.979 1.83 1.83 0 0 1 .702.389 1.82 1.82 0 0 1 .466.652 1.81 1.81 0 0 1 .14.788c-.013.27-.085.533-.213.772l-1.726 3.216c-.196.365-.511.653-.893.815s-.809.19-1.209.079c-1.242-.357-2.431-.879-3.534-1.551l-.127-.076c-.406.76-1.145 2.04-1.721 2.305-.826.38-2.799-1.631-3.632-2.432-.668-.647 1.018-2.31 1.689-2.919a14.68 14.68 0 0 1-1.979-2.637 9.28 9.28 0 0 1-1.201-3.371c-.165-1.163-.064-2.348.294-3.466.366-1.152 1.063-2.238 2.071-3.227s2.08-1.64 3.21-1.957z" class="J"/><path d="M279.133 148.848c-3.554-3.538-3.554-9.275 0-12.813s9.316-3.538 12.87 0 3.554 9.275 0 12.813-9.316 3.538-12.87 0z" class="I"/><path d="M282.721 140.369a3.34 3.34 0 0 1 1.295-.145 4.51 4.51 0 0 1 1.207.281l1.008.426.575.253c.14.058.286.1.436.127a.68.68 0 0 0 .254 0c.037-.015.07-.038.096-.068.018-.019.034-.036.016-.127-.01-.055-.072-.261-.447-.617-.211-.193-.443-.363-.69-.506a4.65 4.65 0 0 0-.864-.41.74.74 0 0 1-.437-.413.71.71 0 0 1-.055-.302.72.72 0 0 1 .074-.298l.6-1.266a.74.74 0 0 1 .877-.389c.455.134.893.322 1.304.56.152-.318.395-.76.599-.868.324-.172 1.165.599 1.515.905.272.238-.314.899-.589 1.18a5.08 5.08 0 0 1 .8 1.061 3.56 3.56 0 0 1 .44 1.331 2.72 2.72 0 0 1-.181 1.302 3.26 3.26 0 0 1-.68 1.046 3.05 3.05 0 0 1-1.293.841 3.35 3.35 0 0 1-1.293.143c-.402-.036-.796-.128-1.172-.272l-.908-.39-.636-.291c-.148-.068-.302-.121-.461-.156a.67.67 0 0 0-.264-.011c-.028.011-.052.03-.071.053-.047.035-.081.084-.097.139s-.013.116.007.17c.105.297.284.562.522.77a3.38 3.38 0 0 0 .822.568c.304.155.624.278.954.366a.75.75 0 0 1 .288.149.74.74 0 0 1 .197.257c.046.099.068.207.067.316a.74.74 0 0 1-.076.314l-.657 1.32a.74.74 0 0 1-.35.341c-.152.07-.324.087-.487.047-.506-.129-.993-.325-1.446-.583a.62.62 0 0 1-.051-.029c-.154.314-.439.838-.667.952-.328.165-1.152-.623-1.496-.936-.277-.253.382-.944.645-1.199-.316-.315-.596-.663-.834-1.04a3.76 3.76 0 0 1-.527-1.345 3.14 3.14 0 0 1 .075-1.403c.149-.499.418-.954.784-1.325a3.02 3.02 0 0 1 1.272-.829z" class="J"/><path d="M199.115 208.55c0 2.98 4.537 5.924 11.234 6.559 7.673.729 15.197-1.497 16.806-4.971.197-.412.301-.863.304-1.319v4.603c0 .294-.064.584-.187.85s-.303.503-.528.693c-1.515 1.266-5.66 3.822-14.52 3.779-9.205-.044-12.06-3.039-12.869-4.355-.193-.316-.295-.68-.294-1.05l.054-4.789z" class="E"/><mask id="J" maskUnits="userSpaceOnUse" x="199" y="208" width="29" height="11"><path d="M199.115 208.55c0 2.98 4.537 5.924 11.234 6.559 7.673.729 15.197-1.497 16.806-4.971.197-.412.301-.863.304-1.319v4.603c0 .294-.064.584-.187.85s-.303.503-.528.693c-1.515 1.266-5.66 3.822-14.52 3.779-9.205-.044-12.06-3.039-12.869-4.355-.193-.316-.295-.68-.294-1.05l.054-4.789z" class="B"/></mask><g mask="url(#J)" class="C"><path d="M226.486 210.27c0 .281.276 5.16 0 5.464s-.613-4.627-.459-5.009c.037-.106.097-.202.177-.281a.74.74 0 0 1 .282-.174zm-2.188 2.193l.089 4.56-.147.029s-.592-4.294-.266-4.44l.324-.149zm-3.6 1.497s.372 4.266.094 4.32-.665-4.165-.665-4.165l.571-.155zm-4.494.617s.29 4.513-.036 4.585-1.052-4.44-.509-4.513l.545-.072zm-6.165 4.404s.327-4.548.037-4.476-.979 4.513-.725 4.548c.232.01.464-.014.688-.072zm-4.75-.757l.196-4.298c-.232.201-1.083 4.214-.636 4.256l.44.042zm-3.083-5.986l-.382 4.833c-.155-.007-.175-4.891.058-5.035s.324.202.324.202z" class="D"/></g><path d="M199.064 208.819c.003-.456.107-.906.304-1.318 1.609-3.474 9.133-5.7 16.807-4.971 6.696.633 11.292 3.31 11.284 6.289a3.11 3.11 0 0 1-.304 1.32c-1.609 3.473-9.133 5.699-16.806 4.97-6.697-.633-11.293-3.31-11.285-6.29z" class="C"/><mask id="K" maskUnits="userSpaceOnUse" x="199" y="202" width="29" height="14"><path d="M199.064 208.819c.003-.456.107-.906.304-1.318 1.609-3.474 9.133-5.7 16.807-4.971 6.696.633 11.292 3.31 11.284 6.289a3.11 3.11 0 0 1-.304 1.32c-1.609 3.473-9.133 5.699-16.806 4.97-6.697-.633-11.293-3.31-11.285-6.29z" class="B"/></mask><g mask="url(#K)" class="E"><path d="M223.569 205.909s4.014 3.755-1.081 6.698-18.445.798-18.445.798 14.164-1.34 16.499-3.005 2.1-3.486 2.1-3.486l.925-1.005" class="D"/></g><path d="M199.676 210.007l-.182 5.24c.091.07.348-4.003.348-4.606s-.166-.634-.166-.634z" class="C D"/><path d="M194.981 203.45c0 2.98 4.538 5.925 11.233 6.559 7.675.731 15.193-1.497 16.808-4.968.196-.412.3-.862.304-1.319v4.603a2 2 0 0 1-.186.85c-.123.266-.304.503-.529.692-1.513 1.267-5.659 3.823-14.52 3.781-9.205-.045-12.058-3.04-12.868-4.357a1.99 1.99 0 0 1-.293-1.048l.051-4.793z" class="E"/><mask id="L" maskUnits="userSpaceOnUse" x="194" y="203" width="30" height="11"><path d="M194.981 203.45c0 2.98 4.538 5.925 11.233 6.559 7.675.731 15.193-1.497 16.808-4.968.196-.412.3-.862.304-1.319v4.603a2 2 0 0 1-.186.85c-.123.266-.304.503-.529.692-1.513 1.267-5.659 3.823-14.52 3.781-9.205-.045-12.058-3.04-12.868-4.357a1.99 1.99 0 0 1-.293-1.048l.051-4.793z" class="B"/></mask><g mask="url(#L)" class="C"><path d="M222.353 205.167c0 .282.275 5.16 0 5.465s-.613-4.627-.46-5.009c.037-.105.097-.201.177-.28a.76.76 0 0 1 .283-.176zm-2.188 2.197l.088 4.559-.148.029s-.59-4.293-.266-4.44l.326-.148zm-3.6 1.498s.372 4.264.094 4.32-.665-4.167-.665-4.167l.571-.153zm-4.494.612s.29 4.512-.037 4.584-1.051-4.44-.509-4.512l.546-.072zm-6.165 4.408s.326-4.549.036-4.477-.978 4.513-.725 4.549c.232.009.464-.015.689-.072zm-4.75-.759l.195-4.296c-.233.202-1.082 4.214-.636 4.254l.441.042zm-3.084-5.985l-.376 4.833c-.148-.008-.176-4.89.056-5.035s.32.202.32.202z" class="D"/></g><path d="M194.93 203.72a3.14 3.14 0 0 1 .304-1.32c1.609-3.473 9.133-5.699 16.806-4.97 6.697.633 11.293 3.31 11.286 6.29a3.13 3.13 0 0 1-.304 1.321c-1.609 3.474-9.133 5.699-16.808 4.971-6.695-.633-11.291-3.311-11.284-6.289v-.003z" class="C"/><mask id="M" maskUnits="userSpaceOnUse" x="194" y="197" width="30" height="14"><path d="M194.93 203.72a3.14 3.14 0 0 1 .304-1.32c1.609-3.473 9.133-5.699 16.806-4.97 6.697.633 11.293 3.31 11.286 6.29a3.13 3.13 0 0 1-.304 1.321c-1.609 3.474-9.133 5.699-16.808 4.971-6.695-.633-11.291-3.311-11.284-6.289v-.003z" class="B"/></mask><g mask="url(#M)" class="E"><path d="M199.064 200.069s-5.918 10.474 16.364 8.253l-12.212-7.241-4.152-1.012z" class="D"/></g><path d="M195.542 204.915l-.182 5.239c.09.07.351-4.01.351-4.606s-.169-.633-.169-.633z" class="C D"/><path d="M202.318 198.129c-.006 2.98 4.539 5.923 11.234 6.559 7.674.728 15.198-1.497 16.808-4.971.196-.413.299-.863.304-1.32v4.604c0 .293-.063.583-.187.85s-.304.503-.528.693c-1.514 1.266-5.66 3.822-14.521 3.779-9.205-.045-12.058-3.04-12.867-4.356-.194-.315-.295-.678-.294-1.048l.051-4.79z" class="E"/><mask id="N" maskUnits="userSpaceOnUse" x="202" y="198" width="29" height="11"><path d="M202.318 198.129c-.006 2.98 4.539 5.923 11.234 6.559 7.674.728 15.198-1.497 16.808-4.971.196-.413.299-.863.304-1.32v4.604c0 .293-.063.583-.187.85s-.304.503-.528.693c-1.514 1.266-5.66 3.822-14.521 3.779-9.205-.045-12.058-3.04-12.867-4.356-.194-.315-.295-.678-.294-1.048l.051-4.79z" class="B"/></mask><g mask="url(#N)" class="C"><path d="M229.691 199.849c0 .281.274 5.159 0 5.464s-.614-4.627-.461-5.008c.037-.106.097-.202.177-.281a.74.74 0 0 1 .284-.175zm-2.188 2.193l.087 4.559-.147.029s-.59-4.293-.266-4.44l.326-.148zm-3.6 1.497s.371 4.266.094 4.321-.666-4.166-.666-4.166l.572-.155zm-4.495.616s.29 4.512-.037 4.584-1.05-4.44-.508-4.512l.545-.072zm-6.164 4.405s.325-4.548.035-4.476-.978 4.512-.725 4.548c.232.01.465-.015.69-.072zm-4.75-.758s.427-4.497.194-4.296-1.082 4.212-.636 4.254l.442.042zm-3.084-5.985l-.381 4.833c-.154-.008-.177-4.891.056-5.036s.325.203.325.203z" class="D"/></g><g class="C"><path d="M202.267 198.397c.004-.456.108-.906.304-1.318 1.609-3.474 9.134-5.699 16.807-4.971 6.696.633 11.292 3.31 11.286 6.289-.005.457-.108.907-.304 1.32-1.61 3.474-9.134 5.699-16.808 4.971-6.695-.634-11.291-3.311-11.285-6.29v-.001z"/><path d="M202.879 199.585l-.182 5.241c.09.069.349-4.004.349-4.607s-.167-.634-.167-.634z" class="D"/></g><g class="E"><path d="M213.901 198.962c.29-.328.64-.598 1.031-.796a7.33 7.33 0 0 1 1.333-.53l1.285-.343.741-.193c.174-.046.344-.105.509-.176a.76.76 0 0 0 .224-.142c.019-.025.029-.057.026-.088 0-.019 0-.037-.107-.076-.058-.023-.299-.093-.956-.066-.361.019-.721.062-1.077.126-.387.066-.77.158-1.145.274-.5.154-1.096.024-1.282-.281l-.598-.979c-.155-.254.028-.546.432-.688.545-.19 1.104-.337 1.672-.441-.149-.253-.331-.609-.246-.777.137-.269 1.584-.343 2.172-.38.458-.031.528.633.537.931a10.6 10.6 0 0 1 1.67.096c.549.071 1.085.219 1.594.437.396.166.744.429 1.01.766a1.64 1.64 0 0 1 .333.914 1.6 1.6 0 0 1-.399 1.15 3.48 3.48 0 0 1-1.029.794 6.91 6.91 0 0 1-1.294.507l-1.164.308-.835.209c-.188.045-.373.105-.553.177a.88.88 0 0 0-.254.142c-.014.02-.019.044-.016.067 0 .127.069.168.2.206a3.62 3.62 0 0 0 1.159.104 7 7 0 0 0 1.248-.168 9 9 0 0 0 1.183-.345c.509-.192 1.169-.064 1.359.264l.601 1.04c.14.243-.026.519-.4.664a10.73 10.73 0 0 1-1.818.507l-.073.014c.144.246.363.673.262.857-.145.268-1.594.325-2.183.356-.475.027-.508-.696-.508-.972a12.44 12.44 0 0 1-1.683-.066 6.63 6.63 0 0 1-1.685-.393c-.448-.165-.856-.424-1.195-.76a1.67 1.67 0 0 1-.486-1.122 1.59 1.59 0 0 1 .405-1.128z" class="D"/><path d="M191.93 192.17c0 2.98 4.539 5.923 11.235 6.559 7.673.728 15.198-1.497 16.807-4.971a3.14 3.14 0 0 0 .304-1.32v4.603a2.01 2.01 0 0 1-.714 1.541c-1.515 1.267-5.661 3.824-14.521 3.78-9.204-.044-12.059-3.039-12.868-4.355-.193-.316-.295-.68-.294-1.05l.051-4.787z"/></g><mask id="O" maskUnits="userSpaceOnUse" x="191" y="192" width="30" height="11"><path d="M191.93 192.17c0 2.98 4.539 5.923 11.235 6.559 7.673.728 15.198-1.497 16.807-4.971a3.14 3.14 0 0 0 .304-1.32v4.603a2.01 2.01 0 0 1-.714 1.541c-1.515 1.267-5.661 3.824-14.521 3.78-9.204-.044-12.059-3.039-12.868-4.355-.193-.316-.295-.68-.294-1.05l.051-4.787z" class="B"/></mask><g mask="url(#O)" class="C"><path d="M219.303 193.896c0 .281.276 5.158 0 5.464s-.613-4.627-.46-5.009c.037-.106.098-.202.177-.281s.176-.138.283-.174zm-2.188 2.187l.089 4.559-.148.029s-.591-4.293-.266-4.44l.325-.148zm-3.595 1.497s.371 4.266.094 4.32-.665-4.165-.665-4.165l.571-.155zm-4.5.622s.291 4.514-.035 4.586-1.052-4.441-.509-4.514l.544-.072zm-6.164 4.398s.327-4.549.037-4.477-.98 4.514-.725 4.55a2.38 2.38 0 0 0 .688-.073zm-4.75-.757l.196-4.297c-.232.2-1.084 4.214-.636 4.255l.44.042zm-3.083-5.985l-.382 4.833c-.155-.008-.176-4.891.056-5.036s.326.203.326.203z" class="D"/></g><g class="C"><path d="M191.879 192.438c.005-.456.109-.906.306-1.318 1.607-3.474 9.133-5.699 16.806-4.972 6.695.633 11.291 3.312 11.285 6.29a3.14 3.14 0 0 1-.304 1.32c-1.609 3.474-9.134 5.699-16.807 4.971-6.696-.633-11.292-3.311-11.286-6.291z"/><path d="M192.492 193.626l-.182 5.241c.092.07.349-4.003.349-4.606s-.167-.635-.167-.635z" class="D"/></g><g class="E"><path d="M201.464 192.73a3.44 3.44 0 0 1 1.029-.795c.426-.221.872-.399 1.334-.531l1.286-.345.741-.191c.174-.046.344-.105.509-.177.083-.034.159-.081.225-.141.01-.012.017-.026.021-.042s.006-.031.003-.046 0-.037-.105-.078c-.059-.021-.299-.092-.957-.064-.361.019-.72.061-1.076.126a8.99 8.99 0 0 0-1.145.273c-.5.155-1.096.025-1.282-.28l-.598-.98c-.155-.254.028-.545.433-.687a11.17 11.17 0 0 1 1.671-.441c-.149-.253-.331-.61-.245-.777.136-.269 1.583-.345 2.171-.38.458-.031.528.633.537.932a10.6 10.6 0 0 1 1.67.096c.549.07 1.085.218 1.593.437a2.54 2.54 0 0 1 1.017.76 1.65 1.65 0 0 1 .334.914 1.6 1.6 0 0 1-.4 1.15 3.48 3.48 0 0 1-1.035.787c-.413.214-.847.386-1.294.514l-1.164.308-.836.209a3.98 3.98 0 0 0-.552.176c-.09.033-.174.082-.248.143-.009 0-.018.029-.015.067 0 .127.067.167.198.206a3.66 3.66 0 0 0 1.161.103 6.99 6.99 0 0 0 1.247-.167 9 9 0 0 0 1.183-.346c.509-.192 1.168-.064 1.359.265l.602 1.04c.14.243-.027.519-.401.664a10.81 10.81 0 0 1-1.819.507l-.071.013c.143.245.362.672.262.857-.147.267-1.594.324-2.183.357-.477.026-.509-.696-.503-.972-.561.016-1.124-.006-1.683-.066-.576-.057-1.142-.189-1.684-.393-.448-.165-.856-.424-1.196-.76-.298-.299-.471-.7-.485-1.122a1.59 1.59 0 0 1 .391-1.123zm53.612 17.345v3.283a1.01 1.01 0 0 1-.198.604c-.128.176-.31.306-.518.371-1.781.564-6.935 1.873-16.155 1.785-9.172-.089-14.473-1.181-16.344-1.647-.222-.056-.418-.184-.559-.363s-.216-.401-.216-.629v-3.399l33.99-.005z"/></g><mask id="P" maskUnits="userSpaceOnUse" x="221" y="210" width="35" height="7"><path d="M255.076 210.075v3.283a1.01 1.01 0 0 1-.198.604c-.128.176-.31.306-.518.371-1.781.564-6.935 1.873-16.155 1.785-9.172-.089-14.473-1.181-16.344-1.647-.222-.056-.418-.184-.559-.363s-.216-.401-.216-.629v-3.399l33.99-.005z" class="B"/></mask><g mask="url(#P)" class="C"><path d="M224.558 210.419s-.209 5.26.315 5.103.471-4.877.471-4.877l-.786-.226zm3.668.597s-.21 5.26.315 5.103.471-4.879.471-4.879l-.786-.224zm5.774.257s-.21 5.26.314 5.104.472-4.879.472-4.879l-.786-.225zm6.233 5.262s.21-5.259-.314-5.102-.472 4.878-.472 4.878l.786.224zm4.764-.413s.21-5.255-.311-5.102-.472 4.877-.472 4.877l.783.225zm5.169-.471s.21-5.259-.314-5.102-.472 4.877-.472 4.877l.786.225zm3.669-.47s.209-5.259-.315-5.103-.472 4.878-.472 4.878l.787.225z" class="D"/></g><path d="M238.082 211.784c-9.385 0-16.993-.765-16.993-1.709s7.608-1.708 16.993-1.708 16.994.765 16.994 1.708-7.608 1.709-16.994 1.709z" class="C"/><mask id="Q" maskUnits="userSpaceOnUse" x="221" y="208" width="35" height="4"><path d="M238.082 211.784c-9.385 0-16.993-.765-16.993-1.709s7.608-1.708 16.993-1.708 16.994.765 16.994 1.708-7.608 1.709-16.994 1.709z" class="B"/></mask><g mask="url(#Q)"><path d="M254.586 209.666s-11.194 2.106-22.201.977-10.94-1.666-10.94-1.666l4.914-.886 28.227 1.582" fill="#f78537"/></g><path d="M259.921 204.373v3.284c0 .217-.069.428-.198.603s-.31.306-.518.372c-1.781.562-6.935 1.873-16.155 1.784-9.171-.089-14.471-1.181-16.343-1.646a1.03 1.03 0 0 1-.557-.364c-.141-.18-.217-.4-.217-.628v-3.4l33.988-.005z" class="E"/><mask id="R" maskUnits="userSpaceOnUse" x="225" y="204" width="35" height="7"><path d="M259.921 204.373v3.284c0 .217-.069.428-.198.603s-.31.306-.518.372c-1.781.562-6.935 1.873-16.155 1.784-9.171-.089-14.471-1.181-16.343-1.646a1.03 1.03 0 0 1-.557-.364c-.141-.18-.217-.4-.217-.628v-3.4l33.988-.005z" class="B"/></mask><g mask="url(#R)" class="C"><path d="M256.793 204.813l-.218 5.953c-.163-.359-.691-5.896-.691-5.896l.909-.057zm-5.013 5.607c.015-.158.09-5.094-.151-4.914s-.211 4.914-.211 4.914h.362zm-6.425.225l.084-5.097c-.228.086-.969 4.718-.863 5.095s.779.002.779.002zm-7.036.729l.018-6.398c-.258.187-.52 6.271-.52 6.271l.871.065" class="D"/></g><path d="M242.928 206.081c-9.386 0-16.994-.765-16.994-1.708s7.608-1.709 16.994-1.709 16.993.765 16.993 1.709-7.608 1.708-16.993 1.708z" class="C"/><mask id="S" maskUnits="userSpaceOnUse" x="225" y="202" width="35" height="5"><path d="M242.928 206.081c-9.386 0-16.994-.765-16.994-1.708s7.608-1.709 16.994-1.709 16.993.765 16.993 1.709-7.608 1.708-16.993 1.708z" class="B"/></mask><g mask="url(#S)" class="E"><path d="M251.818 202.665s-2.283 3.42-12.279 3.42-7.339-.521-7.339-.521l17.784-3.468c.483-.038 1.834.569 1.834.569z" class="D"/></g><path d="M255.158 196.096l.703 3.208c.047.213.024.434-.065.633s-.238.364-.427.473c-1.618.927-6.373 3.301-15.4 5.171-8.978 1.86-14.391 1.918-16.321 1.855a1.03 1.03 0 0 1-.623-.236c-.175-.146-.297-.346-.345-.568l-.729-3.322 33.207-7.214z" class="E"/><mask id="T" maskUnits="userSpaceOnUse" x="221" y="196" width="35" height="12"><path d="M255.158 196.096l.703 3.208c.047.213.024.434-.065.633s-.238.364-.427.473c-1.618.927-6.373 3.301-15.4 5.171-8.978 1.86-14.391 1.918-16.321 1.855a1.03 1.03 0 0 1-.623-.236c-.175-.146-.297-.346-.345-.568l-.729-3.322 33.207-7.214z" class="B"/></mask><g mask="url(#T)" class="C"><path d="M254.558 201.349c-.146-.048-1.315-4.711-1.576-4.483s1.145 4.742 1.145 4.742l.431-.259zm-2.74 1.316c-.299-.126-1.781-4.724-2.025-4.37s1.454 4.593 1.454 4.593l.571-.223zm-4.944 1.98s-1.435-5.573-1.693-5.258 1.189 5.251 1.189 5.251l.504.007zm-6.322 1.171c-.291-.76-.998-4.897-1.158-4.91s.547 5.104.547 5.104l.611-.194zm-5.769 1.329s-.382-5.485-.774-5.32.233 5.32.233 5.32h.541zm-4.683.302s-.312-5.111-.548-4.786.06 4.786.06 4.786h.488zm-4.623-4.256l.145 4.668c-.236-.216-.508-4.524-.508-4.524l.363-.144z" class="D"/></g><path d="M221.951 203.31c.202.922 7.799.054 16.97-1.938s16.439-4.354 16.237-5.276-7.8-.053-16.969 1.939-16.439 4.354-16.238 5.275z" class="C"/><path d="M238.082 206.01s-8.378 1.683-12.148 1.387a1.15 1.15 0 0 0 .118.835c.144.253.378.444.657.532 0 0 9.132-.095 11.373-2.754z" fill="#f78537"/><path d="M202.243 124.329c-4.603 6.52-6.296 14.391-6.895 22.215-.584 7.618-.254 15.274-.795 22.894-.52 7.373-1.947 14.956-6.247 21.15-2.172 3.134-4.952 5.804-8.177 7.852-2.949 1.862-6.255 3.113-9.658 3.856-7.055 1.543-14.356 1.116-21.522.986l-2.653-.035c-.836 0-.839-1.299 0-1.294 7.104.047 14.308.633 21.37-.447 3.392-.522 6.742-1.453 9.795-3.028 3.268-1.702 6.154-4.047 8.483-6.893 4.706-5.713 6.501-13.091 7.168-20.304.696-7.532.381-15.113.806-22.659.439-7.758 1.686-15.681 5.643-22.504a32.34 32.34 0 0 1 1.566-2.438c.477-.676 1.604-.03 1.122.653l-.006-.004z" class="F"/><path d="M187.996 86.091a22.69 22.69 0 0 0 6.271 6.317c2.362 1.577 4.933 2.818 7.639 3.689l7.204 2.051 4.15 1.122c1.001.289 1.967.683 2.883 1.176.515.27.969.641 1.337 1.089.142.175.196.518.217.773.013.172.027.334-.492.776-.291.248-1.512 1.076-5.054 1.363-1.744.142-3.723.066-5.88-.224-2.167-.293-4.298-.805-6.36-1.528-.667-.234-1.375-.326-2.079-.27s-1.389.258-2.01.593a5.07 5.07 0 0 0-1.596 1.355 5.02 5.02 0 0 0-.905 1.883l-2.261 9.299c-.284 1.165-.14 2.393.405 3.461a5.03 5.03 0 0 0 2.569 2.363 41.1 41.1 0 0 0 9.652 2.652l1.212.158c-.57 2.354-1.264 5.947-.627 7.437.986 2.305 8.798 1.805 11.982 1.677 2.709-.107 2.144-7.31 1.915-9.458 2.776-.446 5.279-1.122 7.465-2.022 3.265-1.348 5.996-3.107 8.106-5.231 2.21-2.225 3.782-4.819 4.674-7.706a22.47 22.47 0 0 0 .904-8.489c-.318-3.926-1.408-7.297-3.239-10.02-1.654-2.49-3.784-4.632-6.267-6.304a29.5 29.5 0 0 0-7.414-3.568c-2.294-.735-4.487-1.348-6.521-1.823l-4.667-1.194a15.55 15.55 0 0 1-3.126-1.146c-.634-.322-1.128-.684-1.464-1.078-.051-.058-.119-.248-.147-.589-.093-1.15.206-1.568.867-2.023 1.504-1.033 3.559-1.662 6.103-1.868a23.16 23.16 0 0 1 6.835.495c2.474.546 5.146.618 7.092 1.497 2.918 1.315 5.88.277 6.583-2.835l2.224-9.834c.253-1.117.116-2.287-.39-3.315s-1.348-1.853-2.39-2.339c-2.714-1.266-5.72-2.229-8.95-2.868.477-2.325.924-5.394.321-6.733-1.029-2.284-8.834-1.622-12.014-1.43-2.127.128-2.141 4.597-1.919 7.545-3.653.303-7.08 1.002-10.185 2.08-3.335 1.16-6.239 2.81-8.629 4.9-2.454 2.141-4.394 4.804-5.674 7.792-1.324 3.074-1.836 6.601-1.521 10.482.315 3.86 1.379 7.18 3.171 9.87z" class="E"/><path d="M191.906 87.097a22.69 22.69 0 0 0 6.272 6.316c2.362 1.576 4.933 2.816 7.639 3.686l7.204 2.051 4.15 1.122c1.001.289 1.969.683 2.885 1.177.514.27.969.64 1.337 1.088.142.175.196.519.216.773.014.172.028.334-.491.776-.291.247-1.513 1.075-5.054 1.363-1.745.141-3.723.066-5.881-.225a32.19 32.19 0 0 1-6.363-1.527c-.666-.235-1.375-.327-2.079-.272s-1.39.258-2.011.593a5.06 5.06 0 0 0-1.596 1.356c-.43.558-.739 1.2-.904 1.884l-2.261 9.299c-.284 1.165-.14 2.392.405 3.46s1.456 1.907 2.569 2.364a41 41 0 0 0 9.364 2.607c-.559 2.352-1.184 5.751-.568 7.191.985 2.305 8.797 1.805 11.981 1.678 2.478-.099 2.22-6.138 1.98-8.81 3.333-.431 6.299-1.175 8.843-2.223 3.269-1.347 5.996-3.106 8.105-5.23 2.211-2.225 3.783-4.818 4.674-7.706.841-2.747 1.148-5.628.904-8.49-.318-3.925-1.408-7.297-3.24-10.019a22.8 22.8 0 0 0-6.266-6.304c-2.291-1.529-4.787-2.73-7.413-3.568-2.294-.734-4.487-1.347-6.522-1.823l-4.669-1.196c-1.08-.269-2.128-.653-3.126-1.146-.634-.322-1.127-.683-1.464-1.078-.051-.058-.114-.248-.142-.589-.093-1.15.206-1.569.867-2.023 1.51-1.033 3.558-1.662 6.104-1.868a23.16 23.16 0 0 1 6.835.496c2.474.546 4.714 1.264 6.661 2.141a5.06 5.06 0 0 0 2.177.449c.751-.013 1.489-.193 2.161-.526s1.261-.812 1.724-1.4a5.03 5.03 0 0 0 .952-2.002l2.221-9.831c.253-1.117.116-2.287-.39-3.315a5.03 5.03 0 0 0-2.391-2.338c-3.064-1.431-6.499-2.474-10.213-3.102l-.398-.061c.536-2.326 1.295-6.343.58-7.924-1.033-2.284-8.833-1.622-12.014-1.43-2.575.155-2.053 6.675-1.761 9.152-3.188.352-6.189 1.005-8.939 1.96-3.336 1.16-6.24 2.81-8.63 4.9-2.454 2.141-4.393 4.803-5.674 7.791-1.324 3.074-1.836 6.602-1.522 10.482.314 3.858 1.381 7.178 3.172 9.873z" class="C"/></g><defs><clipPath id="U"><path transform="matrix(-1 0 0 1 306 0)" d="M0 0h306v219.162H0z" class="B"/></clipPath></defs></svg>