<svg xmlns="http://www.w3.org/2000/svg" xmlns:xlink="http://www.w3.org/1999/xlink" width="508" height="370" fill="none" xmlns:v="https://vecta.io/nano"><style><![CDATA[.B{fill:#d88d87}.C{fill:#709632}.D{fill:#9dc11e}.E{fill:#ffb692}.F{fill:#d0eff4}.G{fill:#98d3e5}.H{stroke-miterlimit:10}.I{fill:#edcb3a}.J{fill:#ff8b0d}.K{fill:#252538}.L{fill:#875330}.M{fill:#33334d}.N{stroke:#ffb692}.O{stroke-width:10}]]></style><g clip-path="url(#A)"><path d="M363.7 0c-22.946-.018-45.564 5.452-65.973 15.954s-38.018 25.732-51.363 44.423c-7.35 10.334-17.628 18.221-29.504 22.641a63.21 63.21 0 0 1-37.108 2.151 144.49 144.49 0 0 0-35.143-4.174C65.865 81.313 1.43 145.621.879 224.482c-.215 30.719 9.353 60.707 27.313 85.612a144.32 144.32 0 0 0 72.567 52.888 144.12 144.12 0 0 0 89.751-.295c29.126-9.649 54.423-28.341 72.22-53.363 15.085-21.189 41.75-30.465 67.014-24.334a144.19 144.19 0 0 0 64.308.785c21.223-4.583 41.14-13.899 58.269-27.256s31.031-30.409 40.67-49.89a144.75 144.75 0 0 0 15-62.624C508.813 66.311 443.313 0 363.7 0z" class="F"/><path d="M326.22 285.419l107.709-47.882 21.198 48.519-107.709 47.882-21.198-48.519z" class="C"/><path d="M431.901 242.723l18.057 41.302-100.512 44.728-18.057-41.302 100.512-44.728z" class="D"/><path d="M429.882 247.898l14.898 34.106-93.315 41.574-14.898-34.106 93.315-41.574z" class="C"/><path d="M349.923 310.232a8.89 8.89 0 0 1 3.392-.746 8.88 8.88 0 0 1 3.419.612 8.92 8.92 0 0 1 2.925 1.875c.842.812 1.516 1.782 1.984 2.854l69.809-31.241a8.93 8.93 0 0 1-.744-3.397 8.92 8.92 0 0 1 .61-3.423c.427-1.09 1.063-2.085 1.873-2.929a8.92 8.92 0 0 1 2.85-1.988l-4.617-10.566a8.89 8.89 0 0 1-3.392.745c-1.169.023-2.33-.184-3.419-.611a8.89 8.89 0 0 1-2.924-1.876 8.9 8.9 0 0 1-1.985-2.853l-69.809 31.278a8.93 8.93 0 0 1 .744 3.397c.023 1.17-.184 2.334-.61 3.424a8.93 8.93 0 0 1-1.873 2.928c-.811.844-1.779 1.519-2.85 1.988l4.617 10.529z" class="D"/><g class="C"><path d="M401.114 281.311c.919 2.104 1.195 4.433.793 6.693s-1.465 4.35-3.054 6.005a11.58 11.58 0 0 1-5.872 3.294c-2.239.492-4.574.308-6.709-.529s-3.974-2.29-5.285-4.174a11.62 11.62 0 0 1-2.077-6.41c-.044-2.296.593-4.553 1.83-6.485a11.59 11.59 0 0 1 5.12-4.374 11.55 11.55 0 0 1 4.415-.973 11.56 11.56 0 0 1 4.451.795 11.58 11.58 0 0 1 3.806 2.442c1.096 1.057 1.973 2.32 2.582 3.716z"/><path d="M318.229 293.337l74.669-91.29 40.732 33.777-74.669 91.291-40.732-33.778z"/></g><path d="M393.412 207.588l34.685 28.752-69.659 85.234-34.685-28.751 69.659-85.235z" class="D"/><path d="M393.936 213.119l28.637 23.745-64.659 79.179-28.628-23.744 64.65-79.18z" class="C"/><path d="M350.54 304.821c.744-.902 1.66-1.649 2.693-2.197a8.87 8.87 0 0 1 3.328-.998c1.164-.11 2.338.01 3.455.354a8.89 8.89 0 0 1 3.057 1.653l48.294-59.357a8.92 8.92 0 0 1-3.188-6.029c-.222-2.353.497-4.699 2.001-6.521l-8.87-7.357c-1.503 1.812-3.662 2.954-6.003 3.177s-4.677-.492-6.493-1.988l-48.322 59.356c.901.747 1.646 1.663 2.193 2.698a8.95 8.95 0 0 1 .994 3.333 8.92 8.92 0 0 1-.357 3.46 8.9 8.9 0 0 1-1.652 3.06l8.87 7.356z" class="D"/><g class="C"><path d="M383.262 255.919a11.61 11.61 0 0 1 3.716 5.619c.657 2.199.647 4.545-.027 6.739s-1.985 4.138-3.763 5.587-3.947 2.337-6.229 2.552a11.57 11.57 0 0 1-6.595-1.345c-2.017-1.091-3.665-2.758-4.737-4.787a11.62 11.62 0 0 1-1.281-6.616c.236-2.284 1.143-4.447 2.606-6.214.97-1.173 2.162-2.144 3.506-2.856a11.55 11.55 0 0 1 4.331-1.295 11.56 11.56 0 0 1 4.497.464c1.453.449 2.804 1.18 3.976 2.152z"/><path d="M314.761 305.019l25.404-115.222 51.583 11.69-25.413 115.231-51.574-11.699z"/></g><path d="M343.128 194.504l43.919 9.949-23.675 107.557-43.909-9.949 23.665-107.557z" class="D"/><path d="M346.091 199.203l36.264 8.218-21.945 99.891-36.255-8.217 21.936-99.892z" class="C"/><path d="M348.773 300.638a8.95 8.95 0 0 1 1.407-3.186 8.92 8.92 0 0 1 2.517-2.403c.989-.627 2.092-1.054 3.245-1.254s2.335-.172 3.477.085l16.31-74.799c-2.303-.523-4.303-1.939-5.563-3.938s-1.677-4.416-1.158-6.722l-11.215-2.546c-.258 1.142-.737 2.222-1.412 3.178a8.88 8.88 0 0 1-2.519 2.393c-.989.624-2.091 1.047-3.243 1.244a8.88 8.88 0 0 1-3.472-.095l-16.272 74.874a8.91 8.91 0 0 1 5.563 3.938 8.93 8.93 0 0 1 1.157 6.722l11.178 2.509z" class="D"/><path d="M355.895 242.208a11.58 11.58 0 0 1 5.867 3.312c1.586 1.661 2.643 3.756 3.038 6.019s.11 4.594-.818 6.695a11.6 11.6 0 0 1-4.398 5.108 11.58 11.58 0 0 1-6.492 1.797 11.57 11.57 0 0 1-6.393-2.121 11.6 11.6 0 0 1-4.136-5.323 11.62 11.62 0 0 1-.482-6.727c.681-2.991 2.515-5.591 5.104-7.232s5.719-2.191 8.71-1.528z" class="C"/><path d="M235.232 295.322c.004-4.183 1.391-8.247 3.947-11.556a18.89 18.89 0 0 1 10.176-6.732l2.551-.608h2.216a18.86 18.86 0 0 1 7.228 1.44c2.292.95 4.374 2.343 6.128 4.1s3.146 3.841 4.095 6.136 1.438 4.755 1.438 7.239a18.94 18.94 0 0 1-1.438 7.238 18.92 18.92 0 0 1-4.095 6.137 18.88 18.88 0 0 1-6.128 4.1 18.86 18.86 0 0 1-7.228 1.44h-2.973l-1.794-.608a18.9 18.9 0 0 1-10.188-6.747 18.93 18.93 0 0 1-3.935-11.579z" class="J"/><path d="M270.58 298.362c1.672-10.311-5.321-20.027-15.618-21.701s-20.001 5.328-21.672 15.64 5.321 20.028 15.618 21.701 20.001-5.328 21.672-15.64z" fill="#ecb220"/><path d="M265.872 296.726a14.01 14.01 0 0 0-12.544-15.324 14 14 0 0 0-15.303 12.561 14.01 14.01 0 0 0 12.544 15.324 14 14 0 0 0 15.303-12.561z" class="I"/><g fill="#ffeea4"><path d="M263.253 292.739c-.271-1.212-.735-2.371-1.374-3.435l-15.964 15.985c1.062.641 2.22 1.106 3.43 1.376l13.908-13.926zm-9.318-8.882l-13.459 13.478c.472 2.705 1.885 5.156 3.991 6.916l16.375-16.388a11.56 11.56 0 0 0-6.907-4.006z"/></g><path d="M257.963 314.312a18.96 18.96 0 0 1 3.947-11.563c2.554-3.312 6.133-5.683 10.175-6.744l2.552-.609h2.215a18.89 18.89 0 0 1 13.091 5.688c3.454 3.536 5.387 8.286 5.387 13.232s-1.933 9.696-5.387 13.232a18.89 18.89 0 0 1-13.091 5.688h-3l-1.804-.618c-4.037-1.065-7.609-3.438-10.157-6.75a18.94 18.94 0 0 1-3.928-11.556z" class="J"/><path d="M293.511 315.515a18.91 18.91 0 0 0-17.673-20.059c-10.412-.652-19.38 7.271-20.032 17.697s7.261 19.407 17.673 20.059 19.381-7.271 20.032-17.697z" fill="#ecb220"/><path d="M274.646 328.322c7.728 0 13.992-6.272 13.992-14.01s-6.264-14.011-13.992-14.011-13.991 6.273-13.991 14.011 6.264 14.01 13.991 14.01z" class="I"/><g fill="#ffeea4"><path d="M286.002 311.739a11.46 11.46 0 0 0-1.374-3.435l-15.963 15.976c1.062.643 2.22 1.11 3.43 1.385l13.907-13.926zm-9.346-8.883l-13.459 13.487a11.58 11.58 0 0 0 4 6.917l16.366-16.398a11.6 11.6 0 0 0-6.907-4.006z"/></g><path d="M411.423 273V25.045H75.342V273h336.081z" class="G"/><path d="M417.573 266.842V18.887H81.492v247.955h336.081z" fill="#fff"/><g class="I"><path d="M220.082 83.476l-4.571-10.407-4.57 10.407-11.309 1.142 8.477 7.572-2.412 11.11 9.814-5.728 9.814 5.728-2.411-11.11 8.467-7.572-11.299-1.142zm41.984 0l-4.57-10.407-4.571 10.407-11.309 1.142 8.477 7.572-2.411 11.11 9.814-5.728 9.813 5.728-2.411-11.11 8.468-7.572-11.3-1.142zm41.984 0l-4.57-10.407-4.58 10.407-11.3 1.142 8.478 7.572-2.412 11.11 9.814-5.728 9.814 5.728-2.412-11.11 8.468-7.572-11.3-1.142zm41.985 0l-4.571-10.407-4.579 10.407-11.3 1.142 8.477 7.572-2.411 11.11 9.813-5.728 9.805 5.728-2.402-11.11 8.468-7.572-11.3-1.142z"/></g><path d="M399.319 84.618l-11.3-1.142-4.57-10.407-4.58 10.407-11.3 1.142 8.477 7.572-2.411 11.11 9.814-5.728 9.804 5.728-2.402-11.11 8.468-7.572z" class="G"/><path d="M271.048 151.423c-1.682 0-3.327-.5-4.725-1.436s-2.489-2.266-3.133-3.822-.812-3.269-.484-4.921 1.138-3.17 2.328-4.361 2.705-2.002 4.355-2.331 3.36-.16 4.914.485a8.51 8.51 0 0 1 3.817 3.137c.934 1.4 1.433 3.047 1.433 4.732-.002 2.258-.899 4.423-2.494 6.019a8.51 8.51 0 0 1-6.011 2.498zm0-15.153c-1.313 0-2.596.39-3.688 1.12a6.65 6.65 0 0 0-2.444 2.984c-.502 1.215-.633 2.552-.376 3.841a6.65 6.65 0 0 0 1.819 3.402 6.64 6.64 0 0 0 3.4 1.817c1.288.255 2.623.122 3.835-.382s2.248-1.358 2.976-2.452a6.65 6.65 0 0 0 1.114-3.694c-.003-1.761-.703-3.449-1.947-4.693a6.63 6.63 0 0 0-4.689-1.943z" fill="#e71c2e"/><g class="D"><path d="M271.048 176.299a8.49 8.49 0 0 1-4.726-1.436 8.52 8.52 0 0 1-3.133-3.823 8.53 8.53 0 0 1-.482-4.922c.329-1.653 1.14-3.17 2.33-4.361s2.707-2.001 4.357-2.329a8.5 8.5 0 0 1 4.915.489c1.554.646 2.882 1.739 3.815 3.141s1.431 3.049 1.429 4.734a8.52 8.52 0 0 1-2.494 6.016 8.5 8.5 0 0 1-6.011 2.491zm0-15.152a6.63 6.63 0 0 0-3.687 1.12c-1.091.73-1.942 1.768-2.444 2.982s-.634 2.55-.378 3.839a6.66 6.66 0 0 0 1.817 3.403 6.63 6.63 0 0 0 3.397 1.818 6.62 6.62 0 0 0 3.834-.378 6.64 6.64 0 0 0 2.979-2.447c.729-1.093 1.118-2.378 1.118-3.692a6.66 6.66 0 0 0-1.946-4.696 6.64 6.64 0 0 0-4.69-1.949zm0 40.076c-1.682 0-3.327-.499-4.725-1.435s-2.489-2.266-3.133-3.822a8.53 8.53 0 0 1-.484-4.921c.328-1.652 1.138-3.17 2.328-4.361s2.705-2.002 4.355-2.331a8.49 8.49 0 0 1 4.914.485c1.554.644 2.882 1.736 3.817 3.137a8.52 8.52 0 0 1 1.433 4.731 8.53 8.53 0 0 1-2.494 6.02c-1.594 1.597-3.756 2.495-6.011 2.497zm0-15.152c-1.313 0-2.596.39-3.688 1.12a6.65 6.65 0 0 0-2.444 2.984c-.502 1.215-.633 2.551-.376 3.841a6.65 6.65 0 0 0 1.819 3.402 6.63 6.63 0 0 0 3.4 1.816c1.288.256 2.623.123 3.835-.382a6.64 6.64 0 0 0 2.976-2.451 6.65 6.65 0 0 0 1.114-3.695 6.64 6.64 0 0 0-1.934-4.717c-.616-.62-1.349-1.112-2.156-1.447a6.64 6.64 0 0 0-2.546-.509v.038z"/></g><g stroke="#294459" class="H"><path d="M267.693 194.477l1.934 1.937 5.842-5.85m-7.776-50.98l6.645 6.654"/><path d="M274.338 139.584l-6.645 6.654m0 23.118l1.934 1.937 5.842-5.85"/></g><path d="M344.726 137.965h-59.154v8.451h59.154v-8.451z" class="G"/><path d="M399.553 142.906h-48.079v3.51h48.079v-3.51z" class="F"/><path d="M344.726 163.562h-59.154v8.452h59.154v-8.452z" class="G"/><path d="M399.553 168.514h-48.079v3.509h48.079v-3.509z" class="F"/><path d="M344.726 188.449h-59.154v8.452h59.154v-8.452z" class="G"/><path d="M399.553 193.391h-48.079v3.509h48.079v-3.509z" class="F"/><path d="M185.322 47.648h-77.417v91.665h77.417V47.648z" class="G"/><path d="M181.443 139.323h-69.65c-.001-2.363.463-4.703 1.365-6.886a18 18 0 0 1 3.894-5.837c1.668-1.671 3.649-2.996 5.829-3.899a17.93 17.93 0 0 1 6.876-1.367h33.722a17.93 17.93 0 0 1 6.876 1.367c2.18.903 4.161 2.228 5.829 3.899a17.97 17.97 0 0 1 3.894 5.837c.903 2.183 1.366 4.523 1.365 6.886z" fill="#a94bbc"/><path d="M176.434 81.987V70.859c.001-3.421-.671-6.809-1.978-9.971a26.03 26.03 0 0 0-5.638-8.453c-2.415-2.42-5.283-4.339-8.439-5.649s-6.54-1.984-9.957-1.984h-7.86c-3.418-.001-6.802.672-9.959 1.981a26 26 0 0 0-8.443 5.648c-2.417 2.42-4.333 5.293-5.641 8.455s-1.979 6.551-1.978 9.973v11.128c0 3.11-1.234 6.093-3.43 8.292s-5.175 3.435-8.281 3.435a27.16 27.16 0 0 0 7.939 19.192 27.08 27.08 0 0 0 19.166 7.95h29.133a27.08 27.08 0 0 0 19.166-7.95 27.16 27.16 0 0 0 7.939-19.192 11.7 11.7 0 0 1-8.299-3.425c-1.091-1.089-1.956-2.383-2.546-3.808a11.73 11.73 0 0 1-.894-4.494z" fill="#fe6142"/><path d="M146.487 131.61c9.085 0 16.441-4.193 16.441-9.359a5.72 5.72 0 0 0-.701-2.714l-15.235-3.566-16.356 3.828a5.61 5.61 0 0 0-.589 2.452c0 5.166 7.346 9.359 16.44 9.359z" class="E"/><path d="M171.91 80.893h-50.826c-2.137 0-3.87 1.735-3.87 3.875v.889c0 2.14 1.733 3.875 3.87 3.875h50.826c2.137 0 3.869-1.735 3.869-3.875v-.889c0-2.14-1.732-3.875-3.869-3.875z" class="B"/><path d="M146.487 73.479c-4.361.002-8.542 1.739-11.625 4.828s-4.815 7.277-4.815 11.644v33.001h32.881V89.951a16.48 16.48 0 0 0-1.249-6.303c-.826-1.999-2.036-3.815-3.563-5.344s-3.34-2.743-5.335-3.571a16.42 16.42 0 0 0-6.294-1.254z" class="E"/><path d="M130.047 107.5v7.862c2.953 3.032 9.225 5.119 16.478 5.119s13.421-2.059 16.403-5.054v-7.993c-2.982-2.995-9.206-5.063-16.403-5.063S133 104.468 130.047 107.5z" class="B"/><path d="M146.487 117.374c-5.523 0-21.814-6.149-21.814-19.468l-2.234-27.713a23.13 23.13 0 0 1 6.762-16.347 23.07 23.07 0 0 1 16.324-6.771h1.991a23.06 23.06 0 0 1 16.302 6.781c4.322 4.335 6.748 10.211 6.746 16.336l-2.253 27.713c0 13.319-13.963 19.468-21.824 19.468z" class="E"/><path d="M153.656 98.898c-7.636-3.912-10.664-1.554-11.879.608l11.879-.608z" fill="#d37171"/><path d="M141.777 99.507s3.243 6.841 11.879-.608l-11.879.608z" fill="#bf6262"/><g class="K"><path d="M135.814 80.779a2.8 2.8 0 0 0-1.558.473 2.81 2.81 0 0 0-1.033 1.26c-.212.513-.268 1.078-.159 1.622a2.81 2.81 0 0 0 .767 1.438 2.8 2.8 0 0 0 3.056.609c.512-.213.95-.572 1.258-1.034a2.81 2.81 0 0 0-.349-3.545 2.8 2.8 0 0 0-1.982-.822zm21.356 0a2.8 2.8 0 0 0-1.557.473 2.81 2.81 0 0 0-1.033 1.26c-.212.513-.268 1.078-.16 1.622s.376 1.045.768 1.438a2.8 2.8 0 0 0 3.055.609c.513-.213.951-.572 1.259-1.034a2.81 2.81 0 0 0-.349-3.545 2.8 2.8 0 0 0-1.983-.822z"/><path d="M159.386 83.447l2.663-2.667h-4.953l2.29 2.667zm-26.236 0l2.664-2.667h-4.954l2.29 2.667z"/></g><g fill="#bc5746"><path d="M161.872 76.175l-4.851-1.544c-.504-.126-1.036-.055-1.489.199s-.791.671-.948 1.166a2.04 2.04 0 0 0 1.212 2.519l4.889 1.544a2.03 2.03 0 0 0 1.549-.139c.478-.25.837-.68.998-1.195s.111-1.073-.139-1.551-.679-.838-1.193-.999h-.028zm-25.881-1.545l-4.888 1.544a2.04 2.04 0 0 0-.264 3.685 2.03 2.03 0 0 0 1.488.199l4.879-1.544a2.02 2.02 0 0 0 .696-.381 2.04 2.04 0 0 0 .498-.618c.123-.237.199-.496.223-.762a2.03 2.03 0 0 0-.085-.79 2.04 2.04 0 0 0-.38-.697c-.171-.205-.381-.374-.617-.498a2.03 2.03 0 0 0-.761-.224c-.266-.024-.534.005-.789.085z"/></g><g class="B"><path d="M152.011 110.009c0 1.282-2.467 2.321-5.524 2.321s-5.523-1.039-5.523-2.321 2.476-2.312 5.523-2.312 5.524 1.039 5.524 2.312zm-4.187-30.745h-.86c-1.977 0-3.58 1.605-3.58 3.585v7.375c0 1.98 1.603 3.585 3.58 3.585h.86c1.977 0 3.58-1.605 3.58-3.585v-7.375c0-1.98-1.603-3.585-3.58-3.585z"/></g><path d="M149.544 91.524c-.28 0-.549-.111-.747-.31a1.06 1.06 0 0 1-.309-.748v-7.487c-.008-.144.014-.287.063-.422a1.06 1.06 0 0 1 .225-.362c.099-.104.218-.187.35-.244s.274-.086.418-.086c.281.002.549.116.747.316s.309.47.309.751v7.487a1.08 1.08 0 0 1-.295.775 1.07 1.07 0 0 1-.348.242 1.06 1.06 0 0 1-.413.087z" fill="#f79c97"/><g fill="#fe6142"><path d="M138.421 44.532c-5.197.027-10.174 2.107-13.849 5.787a19.77 19.77 0 0 0-5.778 13.868 2.93 2.93 0 0 0 .857 2.071 2.92 2.92 0 0 0 2.068.858h2.748c4.489 0 8.795-1.786 11.969-4.964s4.958-7.49 4.958-11.985v-2.705a2.95 2.95 0 0 0-.227-1.132 2.93 2.93 0 0 0-.647-.956c-.276-.273-.604-.487-.965-.632a2.92 2.92 0 0 0-1.134-.209z"/><path d="M157.694 71.57h15.767a4.06 4.06 0 0 0 2.875-1.192 4.07 4.07 0 0 0 1.191-2.879 27.49 27.49 0 0 0-8.034-19.34c-5.124-5.131-12.067-8.023-19.314-8.045h-11.954c-1.078 0-2.112.429-2.875 1.192s-1.191 1.799-1.191 2.879v3.819c0 6.25 2.48 12.245 6.893 16.664a23.52 23.52 0 0 0 16.642 6.903z"/></g><path d="M174.424 67.153a4.26 4.26 0 0 0 1.657-.332c.525-.22 1.001-.543 1.399-.95a26.97 26.97 0 0 0-.523-3.922 4.24 4.24 0 0 1-2.533.842h-16.637c-5.256.001-10.377-1.67-14.624-4.771s-7.399-7.475-9.004-12.487v2.471c0 .749 0 1.479.103 2.2a24.85 24.85 0 0 0 9.035 12.271 24.79 24.79 0 0 0 14.49 4.678h16.637z" fill="#f29538"/><g fill="#a94bbc"><path d="M171.975 90.86c.348-.02.674-.174.909-.43a1.34 1.34 0 0 0-.052-1.865c-.249-.243-.584-.379-.932-.379s-.682.136-.931.379a1.34 1.34 0 0 0-.052 1.865 1.33 1.33 0 0 0 .909.43 1.33 1.33 0 0 0-.851 2.279c.247.241.58.376.925.376a1.33 1.33 0 0 0 .926-.376c.247-.241.391-.57.401-.915a1.33 1.33 0 0 0-1.252-1.364zm-50.817 0a1.34 1.34 0 0 0 .91-.43c.235-.257.361-.595.352-.943a1.34 1.34 0 0 0-.405-.922c-.249-.243-.583-.379-.931-.379s-.683.136-.932.379a1.34 1.34 0 0 0-.052 1.865c.236.256.561.411.909.43a1.33 1.33 0 0 0-.85 2.279c.247.241.579.376.925.376s.677-.135.925-.376.392-.57.401-.915a1.33 1.33 0 0 0-1.252-1.364z"/></g><path d="M246.448 154.988H107.961v17.455h138.487v-17.455z" class="G"/><g class="F"><path d="M246.448 181.785H107.961v4.68h138.487v-4.68zm0 14.02H107.961v5.615h138.487v-5.615z"/></g><path d="M158.526 216.152h-50.565v30.512h50.565v-30.512z" fill="#e71c2e"/><path d="M215.128 216.152h-50.564v30.512h50.564v-30.512z" class="J"/><path d="M271.74 216.152h-50.565v30.512h50.565v-30.512z" class="I"/><path d="M328.342 216.152h-50.565v30.512h50.565v-30.512z" class="D"/><path d="M384.944 216.152H334.38v30.512h50.564v-30.512z" class="C"/><path d="M303.06 239.635l-7.44 11.371h14.879l-7.439-11.371z" fill="#43415b"/><path d="M397.375 254.909H95.484c-.516-.003-1.011-.21-1.375-.577s-.569-.862-.569-1.379a1.95 1.95 0 0 1 .569-1.377c.365-.365.859-.57 1.375-.57h301.891c.516 0 1.01.205 1.375.57a1.95 1.95 0 0 1 0 2.756c-.364.367-.859.574-1.375.577z" class="F"/><path d="M62.78 209.807v159.772" stroke="#33334d" stroke-width="15" class="H"/><path d="M72.557 351.702l-.093 3.416s12.889.178 16.085 14.657H53.116l.57-18.204 18.871.131z" class="K"/><path d="M58.07 182.842H44.686c-9.911 0-17.945 8.045-17.945 17.97s8.034 17.969 17.945 17.969H58.07c9.911 0 17.945-8.045 17.945-17.969s-8.034-17.97-17.945-17.97z" class="M"/><path d="M40.872 209.807v159.772" stroke="#33334d" stroke-width="15" class="H"/><path d="M50.649 351.627l-.093 3.491s12.889.178 16.085 14.657H31.208l.57-18.316 18.871.168z" fill="#2c2c42"/><use xlink:href="#B" class="L"/><path d="M35.591 130.533a59.8 59.8 0 0 0-15.029 7.89" class="H N O"/><path d="M72.146 132.508c7.067 0 12.795-5.736 12.795-12.812s-5.729-12.813-12.795-12.813-12.795 5.736-12.795 12.813 5.729 12.812 12.795 12.812z" class="L"/><path d="M139.375 154.624c-34.311 26.206-65.426 3.575-70.155-17.661" class="H N O"/><path d="M133.655 156.122c-5.655-5.353 3.477-12.054 3.477-12.054l2.121-7.619s6.692 2.181 3.374 8.424c0 0 8.973-4.352 12.992-2.808 1.869.739 5.281 7.862 5.131 12.092-.006.213-.054.422-.143.615a1.58 1.58 0 0 1-.372.511c-.157.143-.341.253-.542.323s-.413.1-.625.086c-3.548-.3-7.085.697-9.954 2.808-4.86 3.977-13.412 6.467-15.459-2.378z" class="E"/><g class="B"><path d="M142.646 144.871s2.804 5.045-2 9.734c0 0 3.542-4.876 1.589-9.537l.411-.197zm4.299 10.717c-.03-3.065-.775-6.081-2.177-8.807 0 0 4.505 2.312 2.177 8.807z"/><path d="M146.936 153.81v-.383s7.571-2.452 13.767-.169v.393c-2.364-.617-8.215-1.722-13.767.159zm-.822-5.232l-.365-.505s6.543-4.605 12.319-3.061a25.55 25.55 0 0 1 1.869 4.521c-4.421-1.008-9.056-.418-13.085 1.666l-.178-.44s6.543-4.68 12.805-2.031l-1.215-3.154c-2.123-.343-4.293-.253-6.381.263a15.98 15.98 0 0 0-5.769 2.741z"/></g><path d="M82.249 145.322l-6.991-16.51a9.12 9.12 0 0 0-5.2-4.634 9.1 9.1 0 0 0-6.95.394c-2.17 1.055-3.834 2.927-4.628 5.208a9.14 9.14 0 0 0 .394 6.96l6.991 16.509 16.384-7.927z" class="M"/><path d="M50.293 56.033h2.178a24.22 24.22 0 0 1 17.137 7.108c4.545 4.551 7.098 10.724 7.098 17.161v32.14H26.067v-32.14c0-6.435 2.552-12.606 7.095-17.157a24.22 24.22 0 0 1 17.131-7.111z" class="L"/><path d="M31.012 96.85h40.751v13.337a16.87 16.87 0 0 1-1.281 6.447 16.85 16.85 0 0 1-3.647 5.465c-1.562 1.564-3.417 2.805-5.458 3.652s-4.229 1.282-6.438 1.282h-7.113c-4.462 0-8.741-1.775-11.896-4.934s-4.927-7.444-4.927-11.912V96.85h.009z" fill="#603d25"/><path d="M78.034 195.543c-8.218 4.023-17.204 6.228-26.348 6.465a63.67 63.67 0 0 1-26.647-5.089l5.608-24.493-4.383-34.021c-.224-8.714 3.907-15.911 12.599-16.108l16.945-.439c11.216-.3 17.048 3.631 17.338 14.862l-1.935 35.846 6.823 22.977z" class="K"/><path d="M37.676 124.656c-.29 4.417 5.458 8.423 12.842 8.891s13.609-2.695 13.908-7.122-5.458-8.424-12.842-8.901-13.618 2.705-13.907 7.132z" class="E"/><path d="M30.61 96.867h41.854a3.18 3.18 0 0 0 3.178-3.182v-.749a3.18 3.18 0 0 0-3.178-3.182H30.61a3.18 3.18 0 0 0-3.178 3.182v.749a3.18 3.18 0 0 0 3.178 3.182z" class="B"/><path d="M73.781 93.489v-.356c0-.837-.678-1.516-1.514-1.516H30.806c-.836 0-1.514.679-1.514 1.516v.356c0 .837.678 1.516 1.514 1.516h41.461c.836 0 1.514-.679 1.514-1.516z" fill="#aa635f"/><path d="M51.537 88.342c2.918 0 5.716 1.161 7.779 3.226s3.222 4.868 3.222 7.789v29.8H40.536v-29.8c0-2.922 1.159-5.724 3.222-7.789s4.861-3.226 7.779-3.226z" class="E"/><path d="M62.537 92.656v18.794c0 2.921-1.159 5.723-3.222 7.789s-4.861 3.227-7.779 3.227-5.716-1.161-7.779-3.227-3.222-4.868-3.222-7.789V92.656" class="B"/><path d="M51.537 117.926c4.542 0 17.964-5.391 17.964-16.351l1.869-20.59a19.06 19.06 0 0 0-1.441-7.298 19.04 19.04 0 0 0-4.124-6.188 19.01 19.01 0 0 0-6.177-4.133 18.99 18.99 0 0 0-7.287-1.446h-1.626a18.99 18.99 0 0 0-13.436 5.573 19.04 19.04 0 0 0-5.565 13.454l1.869 20.591c-.009 10.997 11.487 16.388 17.955 16.388z" class="E"/><g class="L"><path d="M77.464 71.205c0-4.285-1.699-8.395-4.724-11.426a16.13 16.13 0 0 0-11.408-4.738H47.817c-1.178 0-2.307.468-3.139 1.302a4.45 4.45 0 0 0-1.3 3.144v5.953c0 4.287 1.701 8.398 4.728 11.429a16.13 16.13 0 0 0 11.414 4.734h13.506c.584 0 1.162-.115 1.701-.339a4.44 4.44 0 0 0 1.441-.966c.412-.414.739-.905.962-1.445a4.45 4.45 0 0 0 .335-1.704v-5.943z"/><path d="M31.694 82.278c-.802-1.8-1.241-3.74-1.292-5.71s.286-3.93.993-5.769a14.98 14.98 0 0 1 3.126-4.947c1.357-1.427 2.982-2.572 4.781-3.369l3.907-1.741c.803 1.8 1.243 3.741 1.295 5.712s-.285 3.932-.992 5.772a14.98 14.98 0 0 1-3.127 4.95c-1.358 1.428-2.983 2.573-4.784 3.37l-3.907 1.731z"/></g><g fill="#aa693c"><path d="M57.677 55.041v5.035a7.93 7.93 0 0 0 2.319 5.596 7.91 7.91 0 0 0 5.588 2.322h11.562c0-.215-.093-.431-.14-.636H65.584c-1.928-.002-3.776-.77-5.139-2.135a7.3 7.3 0 0 1-2.133-5.146v-5.035h-.636zm19.787 21.835v-.636H61.575a12.14 12.14 0 0 1-8.592-3.564c-2.279-2.282-3.559-5.377-3.559-8.603v-9.032h-.636v9.004a12.85 12.85 0 0 0 3.753 9.067 12.81 12.81 0 0 0 9.052 3.764h15.87zM53.275 55.041v7.3a10.1 10.1 0 0 0 2.941 7.118 10.08 10.08 0 0 0 7.098 2.971h14.151v-.636H63.313a9.43 9.43 0 0 1-6.669-2.772 9.46 9.46 0 0 1-2.762-6.681v-7.3h-.608z"/></g><path d="M56.5 103.363a37.46 37.46 0 0 1-7.178-2.461c-1.654-.759-3.318 1.263-2.589 3.2.383 1.175 1.081 2.222 2.017 3.027a6.75 6.75 0 0 0 3.292 1.541 6.26 6.26 0 0 0 5.094-.936c1.542-1.17 1.103-3.959-.636-4.371z" fill="#34344f"/><path d="M52.069 108.67c-1.222-.197-2.367-.728-3.308-1.534s-1.643-1.855-2.029-3.033a2.63 2.63 0 0 1-.178-.87c1.429-.447 2.965-.414 4.374.093 1.181.352 2.242 1.022 3.067 1.939a6.7 6.7 0 0 1 1.607 3.256 7.58 7.58 0 0 1-3.533.149z" fill="#ff9292"/><path d="M53.686 106.349c-.337.477-1.458.309-2.505-.384s-1.645-1.638-1.299-2.077 1.458-.309 2.505.383 1.626 1.601 1.299 2.078z" fill="#ffabab"/><path d="M56.5 103.363c-2.47-.575-4.875-1.399-7.178-2.461-.236-.1-.49-.15-.746-.148s-.509.058-.743.162-.444.256-.617.445a1.87 1.87 0 0 0-.389.655 13.72 13.72 0 0 0 6.346 3.481c1.594.438 3.248.611 4.898.515a2.36 2.36 0 0 0-.294-1.616c-.288-.487-.741-.853-1.277-1.033z" fill="#fff"/><g class="B"><path d="M60.874 88.912h4.383c.478 0 .937.19 1.276.529s.528.798.528 1.277-.19.939-.528 1.277-.797.529-1.276.529h-4.383a1.8 1.8 0 0 1-1.276-.529 1.81 1.81 0 0 1-.528-1.277c0-.479.19-.939.528-1.277a1.8 1.8 0 0 1 1.276-.529zm-19.684 0h4.383c.479 0 .937.19 1.276.529s.528.798.528 1.277-.19.939-.528 1.277-.797.529-1.276.529H41.19a1.8 1.8 0 0 1-1.276-.529 1.81 1.81 0 0 1-.528-1.277c0-.479.19-.939.528-1.277a1.8 1.8 0 0 1 1.276-.529z"/></g><g fill="#442d1e"><path d="M40.059 85.87l4.019-1.273c.424-.134.884-.094 1.278.111a1.68 1.68 0 0 1 .714 2.263c-.205.395-.558.692-.982.826l-4.019 1.264a1.67 1.67 0 0 1-1.839-.483c-.147-.171-.258-.371-.326-.586s-.092-.442-.07-.667a1.68 1.68 0 0 1 .629-1.154 1.67 1.67 0 0 1 .598-.302zm21.31-1.272l4.056 1.273a1.69 1.69 0 0 1 .609.294c.181.138.332.313.443.512s.181.419.204.646a1.68 1.68 0 0 1-.068.674c-.068.218-.18.419-.329.592a1.66 1.66 0 0 1-.536.413 1.67 1.67 0 0 1-1.324.06l-4.019-1.263c-.424-.133-.778-.429-.984-.823a1.68 1.68 0 0 1-.114-1.278c.133-.424.428-.779.822-.985a1.67 1.67 0 0 1 1.277-.115h-.037z"/></g><path d="M47.527 112.611c-.084 1.048 1.869 2.068 4.374 2.274s4.598-.477 4.673-1.525-1.869-2.069-4.383-2.275-4.58.478-4.664 1.526z" class="B"/><g class="K"><path d="M63.079 89.586a2.36 2.36 0 0 1 1.324.381c.394.256.703.623.887 1.055a2.37 2.37 0 0 1-.488 2.593c-.329.335-.75.564-1.21.659a2.36 2.36 0 0 1-2.438-1 2.37 2.37 0 0 1 .278-2.981c.435-.443 1.027-.697 1.648-.707zm-17.907 0a2.36 2.36 0 0 1 1.316.395c.39.259.695.628.875 1.061a2.37 2.37 0 0 1-.507 2.584c-.33.332-.752.559-1.211.651a2.36 2.36 0 0 1-1.368-.133 2.37 2.37 0 0 1-.773-3.86c.442-.444 1.041-.694 1.666-.697z"/><path d="M43.312 91.823l-2.234-2.237h4.159l-1.925 2.237zm22.001 0l-2.234-2.237h4.159l-1.925 2.237z"/></g><path d="M53.948 103.531h.355c1.311 0 2.374-1.064 2.374-2.377V91.055c0-1.313-1.063-2.377-2.374-2.377h-.355c-1.311 0-2.374 1.064-2.374 2.377v10.099c0 1.313 1.063 2.377 2.374 2.377z" class="B"/><path d="M52.817 101.811h.093c.356 0 .645-.29.645-.646V91.047c0-.357-.289-.646-.645-.646h-.093c-.356 0-.645.289-.645.646v10.118c0 .356.289.646.645.646z" fill="#f79c97"/><g fill="#0e5ea0"><path d="M257.72 180.466c-17.277 2.279-34.768-2.18-48.854-12.454a68.01 68.01 0 0 1-26.821-42.742 68.08 68.08 0 0 1 9.99-49.48c9.546-14.599 24.332-24.964 41.297-28.952a67.83 67.83 0 0 1 49.848 7.53c15.035 8.821 26.11 23.093 30.931 39.862s3.02 34.752-5.031 50.229-21.733 27.262-38.219 32.918a67.83 67.83 0 0 1-13.141 3.089zM241.279 53.47c-3.978.532-7.894 1.454-11.692 2.752a60.19 60.19 0 0 0-28.379 20.423c-7.235 9.468-11.503 20.873-12.264 32.77s2.017 23.754 7.985 34.07 14.857 18.628 25.543 23.884 22.689 7.222 34.49 5.648a60.16 60.16 0 0 0 31.81-14.494c8.938-7.875 15.343-18.228 18.406-29.748s2.644-23.693-1.202-34.975a60.32 60.32 0 0 0-25.172-31.709 60.18 60.18 0 0 0-39.525-8.62z"/><path d="M187.076 130.476L5.946 206.162l2.879 6.91 181.129-75.686-2.879-6.91z"/></g><path d="M109.756 170.9l21.057-8.798-6.206-5.522-18.029 7.534 3.178 6.786z" fill="#134e75"/><path d="M114.903 153.046L3.253 199.699l8.279 19.866 111.651-46.653-8.279-19.866z" fill="#0e5ea0"/><path opacity=".35" d="M241.279 53.47c-3.978.532-7.894 1.454-11.692 2.752a60.19 60.19 0 0 0-28.379 20.423c-7.235 9.468-11.503 20.873-12.264 32.77s2.017 23.754 7.985 34.07 14.857 18.628 25.543 23.884 22.689 7.222 34.49 5.648a60.16 60.16 0 0 0 31.81-14.494c8.938-7.875 15.343-18.228 18.406-29.748s2.644-23.693-1.202-34.975a60.32 60.32 0 0 0-25.172-31.709 60.18 60.18 0 0 0-39.525-8.62z" class="F"/><path d="M20.562 138.424c-27.853 20.525-17.403 57.69 18.179 60.058" class="H N O"/><path d="M23.693 148.878l13.889-11.297c.896-.796 1.627-1.763 2.149-2.843s.827-2.253.895-3.452-.1-2.398-.495-3.531-1.011-2.176-1.81-3.071a9.1 9.1 0 0 0-6.287-3.019c-1.195-.064-2.39.109-3.518.508s-2.166 1.017-3.055 1.819l-13.936 11.306 12.169 13.58z" class="M"/><path d="M32.909 197.078c-2.112-6.374 7.552-7.721 7.552-7.721l4.673-4.923s4.197 4.398-.869 7.768c0 0 5.972 1.076 10.038-.936 4.963-2.452 3.178 10.501-.935 14.376-2.215 2.096-5.991-.431-9.795.262-5.253.936-12.73-1.273-10.664-8.826z" class="E"/><g class="B"><path d="M44.919 199.203l-.084.487s6.262 1.872 11.571.561l.252-.861c-2.075.74-6.019 1.479-11.739-.187zm-.364 3.649s5.608 1.779 10.01 1.404l.486-.795a26.76 26.76 0 0 1-10.421-1.133l-.075.524zm.673-7.028s6.328 2.144 12.15-.646v-1.198c-3.724 1.85-7.963 2.384-12.029 1.517l-.121.327z"/></g><path d="M452.585 99.639h-41.62c-7.888 0-14.282 6.402-14.282 14.301v41.676c0 7.899 6.394 14.301 14.282 14.301h41.62c7.887 0 14.281-6.402 14.281-14.301V113.94c0-7.899-6.394-14.301-14.281-14.301z" class="J"/><path d="M445.229 99.639h-41.62c-7.887 0-14.281 6.402-14.281 14.301v41.676c0 7.899 6.394 14.301 14.281 14.301h41.62c7.887 0 14.281-6.402 14.281-14.301V113.94c0-7.899-6.394-14.301-14.281-14.301z" class="I"/><path d="M422.283 124.039c.02 1.495-.263 2.979-.831 4.361-.519 1.258-1.278 2.403-2.234 3.37a9.83 9.83 0 0 1-3.244 2.162 9.97 9.97 0 0 1-3.822.758 10.45 10.45 0 0 1-4.029-.758c-1.203-.486-2.29-1.223-3.187-2.162-.919-.971-1.634-2.117-2.103-3.37-.52-1.394-.777-2.873-.757-4.361a12.67 12.67 0 0 1 .757-4.493 10.04 10.04 0 0 1 2.103-3.416 9.43 9.43 0 0 1 3.187-2.18 10.44 10.44 0 0 1 4.029-.768 10.67 10.67 0 0 1 4.056.768 9.33 9.33 0 0 1 3.215 2.18c.924.985 1.639 2.147 2.103 3.416a12.65 12.65 0 0 1 .757 4.493zm13.927-9.163c.288-.332.621-.622.99-.861.489-.286 1.052-.419 1.617-.384h5.954l-32.143 41.855c-.285.34-.626.628-1.009.852a2.9 2.9 0 0 1-1.458.337h-6.066l32.115-41.799zm-20.207 9.163c.017-.905-.084-1.808-.3-2.686a4.73 4.73 0 0 0-.813-1.732 2.94 2.94 0 0 0-1.224-.936c-.483-.188-.996-.283-1.514-.28a3.93 3.93 0 0 0-1.496.28c-.476.194-.887.518-1.187.936-.366.522-.626 1.11-.766 1.732-.212.879-.309 1.782-.29 2.686-.021.879.076 1.758.29 2.611a4.69 4.69 0 0 0 .766 1.675 2.65 2.65 0 0 0 1.187.936c.478.18.985.269 1.496.262.516.005 1.029-.084 1.514-.262.486-.194.909-.517 1.224-.936.383-.496.66-1.067.813-1.675.218-.853.318-1.731.3-2.611zm30.759 22.518c.022 1.495-.258 2.978-.823 4.362-.521 1.258-1.283 2.403-2.243 3.369-.924.933-2.027 1.668-3.243 2.162-1.212.503-2.511.761-3.823.758a10.47 10.47 0 0 1-4.028-.758c-1.204-.486-2.29-1.223-3.187-2.162a10.01 10.01 0 0 1-2.103-3.369c-.521-1.394-.778-2.873-.757-4.362a12.64 12.64 0 0 1 .757-4.492c.464-1.269 1.179-2.431 2.103-3.416a9.24 9.24 0 0 1 3.187-2.162 10.45 10.45 0 0 1 4.028-.758c1.392-.014 2.773.244 4.066.758 1.21.484 2.303 1.221 3.206 2.162.93.982 1.649 2.145 2.112 3.416a12.87 12.87 0 0 1 .748 4.492zm-6.281 0c.02-.904-.077-1.807-.29-2.686a4.89 4.89 0 0 0-.822-1.731 2.88 2.88 0 0 0-1.225-.936c-.482-.188-.996-.284-1.514-.281-.512-.004-1.019.092-1.495.281s-.888.518-1.187.936c-.366.521-.627 1.109-.767 1.731-.204.88-.298 1.783-.28 2.686-.019.879.075 1.757.28 2.612.142.603.403 1.173.767 1.675.297.42.709.745 1.187.936a4.17 4.17 0 0 0 1.495.262c.517.004 1.029-.085 1.514-.262a2.81 2.81 0 0 0 1.225-.936c.382-.499.662-1.068.822-1.675a9.78 9.78 0 0 0 .281-2.612h.009z" fill="#fff"/></g><defs><clipPath id="A"><path fill="#fff" d="M0 0h508v370H0z"/></clipPath><path id="B" d="M30.61 132.508c7.067 0 12.795-5.736 12.795-12.812s-5.729-12.813-12.795-12.813-12.795 5.736-12.795 12.813 5.729 12.812 12.795 12.812z"/></defs></svg>