<svg xmlns="http://www.w3.org/2000/svg" width="328" height="362" fill="none" xmlns:v="https://vecta.io/nano"><style><![CDATA[.B{fill:#ffc0bb}.C{fill:#65cefe}.D{fill:#ff6e53}.E{fill:#e74a60}.F{fill:#eefbff}.G{fill:#d0eff4}.H{fill:#ffcb83}.I{fill:#eaa0a0}]]></style><path d="M160.717 326.541S31.24 316.99 15.672 253.504s18.936-72.123 30.72-107.681S4.738 89.293 40.5 40.911s88.514-49.226 110.743-26.439 47.862-13.925 89.115 6.753 51.362 62.454 38.317 95.092 40.452 63.843 47.155 100.844-53.835 125.694-165.113 109.38z" class="G"/><path d="M29.528 361.965h77.586l6.432-17.365a24.6 24.6 0 0 1 5.077-8.201c2.216-2.37 4.879-4.277 7.834-5.609 5.621-2.55 13.183-7.179 20.512-15.43 14.267-16.066 21.829-33.284 21.829-33.284l-48.082-.235s4.327-26.971-19.572-62.793c-2.553-3.838-3.725-8.434-3.322-13.031l2.265-26.124s16.241-18.2 6.276-40.777c0 0-9.526-13.228-13.307-8.386 0 0-28.779 68.723-31.398 78.942s-6.114 16.642-2.621 48.756c.925 8.503 1.258 15.592 1.246 21.423-.025 11.192-2.513 22.24-7.287 32.356l-23.466 49.758z" class="B"/><g style="mix-blend-mode:multiply" opacity=".2" class="B"><path d="M101.891 317.385c-7.209-8.016-17.206-6.751-27.725-10.408s-13.888-30.026-13.888-30.026l.022 2.894c-.025 11.191-2.513 22.24-7.287 32.355l-23.484 49.764h77.586l6.432-17.364a24.59 24.59 0 0 1 5.077-8.201 24.51 24.51 0 0 1 7.834-5.609c4.784-2.171 10.972-5.848 17.222-11.981-21.359 8.997-34.586 6.595-41.788-1.424z"/></g><path d="M165.365 52.991c-.081-.35-.23-.68-.44-.97s-.476-.536-.782-.722-.647-.308-1.001-.36a2.67 2.67 0 0 0-1.061.058c-.317-.681-.821-1.258-1.453-1.661a3.93 3.93 0 0 0-2.116-.618 3.97 3.97 0 0 0-1.173.179 4.87 4.87 0 0 0-1.979-1.837c-.819-.413-1.738-.584-2.651-.495a4.84 4.84 0 0 0-2.505.999c-.724.564-1.275 1.321-1.588 2.185a3.33 3.33 0 0 0-1.66-.421 3.32 3.32 0 0 0-1.649.461 3.33 3.33 0 0 0-1.204 1.221 3.35 3.35 0 0 0-.44 1.659 2.17 2.17 0 0 0 .016.323h21.686zm74.999-12.157a7.03 7.03 0 0 0-1.149-2.533 7.01 7.01 0 0 0-2.041-1.886 6.99 6.99 0 0 0-2.612-.941 6.98 6.98 0 0 0-2.771.151c-1.056-2.259-2.89-4.058-5.165-5.066a10.27 10.27 0 0 0-7.213-.417c-1.236-2.056-3.028-3.719-5.167-4.797a12.65 12.65 0 0 0-6.921-1.294 12.66 12.66 0 0 0-6.543 2.607c-1.892 1.471-3.33 3.449-4.149 5.705-1.324-.739-2.819-1.118-4.335-1.1a8.68 8.68 0 0 0-4.307 1.205c-1.307.771-2.389 1.871-3.141 3.191s-1.147 2.814-1.145 4.334a8.58 8.58 0 0 0 .042.848l56.617-.008zM86.766 94.331a5.88 5.88 0 0 0-.961-2.122 5.86 5.86 0 0 0-1.709-1.58c-.669-.407-1.413-.675-2.187-.789a5.84 5.84 0 0 0-2.32.126 8.62 8.62 0 0 0-4.322-4.242 8.59 8.59 0 0 0-6.038-.346 10.63 10.63 0 0 0-4.324-4.015 10.59 10.59 0 0 0-5.793-1.083c-1.994.194-3.893.951-5.476 2.182a10.64 10.64 0 0 0-3.471 4.775c-1.108-.617-2.358-.933-3.625-.918a7.25 7.25 0 0 0-3.601 1.008 7.29 7.29 0 0 0-2.627 2.667c-.629 1.103-.961 2.352-.961 3.623l.034.709 47.381.004z" fill="#fff"/><path d="M67.583 50.629c17.837 28.223 61.8 53.373 61.8 53.373s-34.947-2.846-52.284-25.494l6.29-5.221-9.186.97c-3.865-6.418-6.364-14.2-6.621-23.628z" fill="#e6a748"/><path d="M114.383 62.3l-6.724 3.115 3.867-5.571c-4.504-3.512-9.458-5.854-14.369-7.386l-4.33 6.153-.465-7.414c-13.161-2.842-24.78-.568-24.78-.568 17.837 28.223 61.8 53.373 61.8 53.373-.2-20.736-6.497-33.685-15-41.701z" class="H"/><path d="M61.035 90.448c4.826-2.862 10.182-4.711 15.742-5.436l3.47 3.882.106-4.201c19.879-.956 36.647 11.601 36.647 11.601-11.379 6.94-21.169 8.886-29.238 8.309l-1.232-3.654-1.35 3.379a36.53 36.53 0 0 1-10.285-3.058c.715-1.753 1.466-3.757 1.466-3.757l-4.239 2.329c-7.269-4.129-11.088-9.394-11.088-9.394z" class="D"/><path d="M87.761 104.603l-1.232-3.654-1.35 3.379a36.51 36.51 0 0 1-10.283-3.058l1.466-3.757-4.239 2.329c-7.277-4.129-11.096-9.394-11.096-9.394 23.13-2.651 55.962 5.846 55.962 5.846-11.371 6.94-21.162 8.886-29.228 8.309zm169.038-17.046l-1.67 12.667 8.979-6.575 27.468-14.077-21.252 1.96s-10.827 2.637-11.414 3.169-2.111 2.856-2.111 2.856z" class="E"/><g class="D"><path d="M247.387 79.896l44.193-.323-34.781 7.978-9.412-7.655z"/><path d="M271.005 100.3l-11.579-9.325 32.154-11.402-20.575 20.728z"/></g><path d="M252.243 94.152c.95-.372 1.94-.632 2.95-.777l-.082-.787a14.01 14.01 0 0 0-3.146.823l.278.741zm-27.848 70.592c1.763-.89 3.472-1.885 5.117-2.978l.436.659a50.56 50.56 0 0 1-5.206 3.026l-.347-.707zm9.773-6.611c1.454-1.326 2.783-2.783 3.971-4.354l.631.476c-1.217 1.609-2.579 3.103-4.067 4.462l-.535-.584zm7.021-9.39l1.059-2.522a31.47 31.47 0 0 0 .937-3.025l.765.201a33.49 33.49 0 0 1-.963 3.101l-1.085 2.588-.713-.343zm3.188-17.306l.789-.018c.051 2.01-.015 4.022-.2 6.024l-.785-.074c.181-1.972.247-3.953.196-5.932zm-1.123-11.863l.781-.112.743 5.954-.785.081-.739-5.923zm-.884-5.958c-.305-1.986-.405-3.999-.298-6.006l.787.048a28.53 28.53 0 0 0 .292 5.84v.046l-.783.108.002-.036zm1.002-11.952a14.36 14.36 0 0 1 3.426-5.049l.541.576a13.56 13.56 0 0 0-3.236 4.771l-.731-.299zm-27.093 67.349l2.974-1.102-.289-.737-2.946 1.092.261.747z" class="C"/><path d="M212.188 84.899s16.433-11.029 20.186-3.763-21.35 32.98-21.35 32.98l1.164-29.216zm0 48.057s16.433-11.031 20.186-3.763-21.35 32.978-21.35 32.978l1.164-29.215zm0 32.742s16.433-11.029 20.186-3.764-21.35 32.98-21.35 32.98l1.164-29.216z" class="I"/><path d="M200.837 72.539h-90.216a12.13 12.13 0 0 0-4.657.929 12.16 12.16 0 0 0-3.948 2.646 12.2 12.2 0 0 0-2.637 3.96 12.23 12.23 0 0 0-.924 4.67v184.893a12.22 12.22 0 0 0 3.564 8.626 12.15 12.15 0 0 0 8.602 3.573h90.216c3.226 0 6.321-1.285 8.602-3.573s3.564-5.391 3.564-8.626V84.745c0-1.603-.314-3.189-.925-4.67a12.2 12.2 0 0 0-2.637-3.96 12.17 12.17 0 0 0-3.947-2.646c-1.477-.614-3.059-.93-4.657-.93z" fill="#063e70"/><g style="mix-blend-mode:multiply" opacity=".2" class="B"><path d="M106.673 228s-16.317 40.056-14.734 47.629 11.486 17.702 35.783 14.326 41.097-7.89 41.097-7.89 1.015-54.059 0-56.8-44.708-22.201-46.426-22.201S106.673 228 106.673 228z"/></g><path d="M207.105 89.166H104.353V265.203H207.105V89.166Z" fill="#fff"/><path d="M130.939 129.326h49.58c1.82 0 3.566.725 4.854 2.016s2.011 3.042 2.011 4.868v66.161c-.001.904-.179 1.798-.524 2.633a6.89 6.89 0 0 1-1.488 2.233c-.637.638-1.394 1.145-2.227 1.491a6.86 6.86 0 0 1-2.626.523h-49.58c-1.82 0-3.566-.725-4.853-2.016a6.89 6.89 0 0 1-2.01-4.866v-66.163a6.89 6.89 0 0 1 2.011-4.864 6.86 6.86 0 0 1 4.852-2.016z" class="G"/><path d="M133.718 161.691l5.019 24.14a2.23 2.23 0 0 0 .757 1.29 2.22 2.22 0 0 0 1.4.518h29.672c.512-.006 1.006-.189 1.399-.519a2.23 2.23 0 0 0 .758-1.289l5.006-24.14h-44.011zm8.85 23.602c-.16 0-.318-.031-.465-.092a1.23 1.23 0 0 1-.395-.265 1.21 1.21 0 0 1-.263-.395c-.061-.148-.093-.307-.093-.467l-1.684-17.109a1.22 1.22 0 0 1 .356-.862 1.21 1.21 0 0 1 1.719 0 1.22 1.22 0 0 1 .356.862l1.684 17.109a1.22 1.22 0 0 1-.356.862 1.21 1.21 0 0 1-.859.357zm6.112 0a1.22 1.22 0 0 1-.466-.092 1.24 1.24 0 0 1-.394-.265 1.21 1.21 0 0 1-.263-.395c-.061-.148-.093-.307-.093-.467l-.675-17.109c0-.16.032-.319.093-.467a1.21 1.21 0 0 1 .658-.659c.147-.062.305-.093.465-.093s.317.031.465.093a1.22 1.22 0 0 1 .394.264 1.21 1.21 0 0 1 .264.395c.061.148.092.307.092.467l.673 17.109c0 .16-.031.319-.092.467s-.15.282-.263.395-.246.203-.393.264-.306.093-.465.093zm8.264-1.219a1.22 1.22 0 0 1-.356.862 1.21 1.21 0 0 1-1.719 0 1.22 1.22 0 0 1-.356-.862v-17.109a1.22 1.22 0 0 1 .356-.862 1.21 1.21 0 0 1 1.719 0 1.22 1.22 0 0 1 .356.862v17.109zm7.051 0a1.22 1.22 0 0 1-.356.862 1.21 1.21 0 0 1-1.719 0 1.22 1.22 0 0 1-.356-.862l.675-17.109a1.22 1.22 0 0 1 .338-.894c.113-.118.249-.213.4-.277s.313-.098.477-.098a1.22 1.22 0 0 1 .476.098c.151.064.287.159.4.277a1.22 1.22 0 0 1 .338.894l-.673 17.109zm6.11 0a1.22 1.22 0 0 1-.078.482 1.21 1.21 0 0 1-.26.412c-.113.119-.249.213-.4.277a1.2 1.2 0 0 1-.476.098c-.164 0-.326-.033-.477-.098s-.287-.158-.4-.277a1.21 1.21 0 0 1-.26-.412 1.22 1.22 0 0 1-.078-.482l1.684-17.109a1.24 1.24 0 0 1 .078-.482c.058-.153.147-.293.26-.412a1.23 1.23 0 0 1 .4-.277c.151-.064.313-.098.477-.098s.326.034.476.098a1.22 1.22 0 0 1 .401.277 1.25 1.25 0 0 1 .26.412 1.22 1.22 0 0 1 .077.482l-1.684 17.109z" fill="#6577ff"/><path d="M178.052 163.642h-44.646a1.94 1.94 0 0 1-1.375-.571c-.365-.366-.57-.862-.57-1.379s.205-1.013.57-1.379.859-.571 1.375-.571h44.646a1.94 1.94 0 0 1 .744.149c.236.098.45.241.63.422s.324.396.422.633.148.49.148.746-.05.51-.148.746-.241.452-.422.633-.394.325-.63.423a1.94 1.94 0 0 1-.744.148z" fill="#4054e7"/><path d="M142.784 159.888v-1.685a5.09 5.09 0 0 1 1.484-3.593c.95-.952 2.239-1.488 3.583-1.488h15.76a5.06 5.06 0 0 1 3.582 1.488c.951.953 1.484 2.245 1.484 3.593v1.685c0 .289.115.567.319.772a1.09 1.09 0 0 0 1.539 0c.204-.205.319-.483.319-.772v-1.685a7.28 7.28 0 0 0-2.122-5.136c-1.358-1.362-3.2-2.127-5.121-2.128h-15.762c-1.921 0-3.764.766-5.122 2.128a7.27 7.27 0 0 0-2.122 5.136v1.685c0 .289.115.567.319.772s.48.32.769.32a1.09 1.09 0 0 0 .771-.32c.204-.204.32-.482.32-.772z" fill="#6577ff"/><path d="M176.846 81.428H134.78c-.526 0-.952.427-.952.954v.297c0 .527.426.954.952.954h42.066c.525 0 .951-.427.951-.954v-.297c0-.527-.426-.954-.951-.954z" fill="#fff"/><path d="M96.41 195.648s.619 2.311 2.021 3.448l1.666-19.212s11.947-13.389 9.062-31.444c-.974-6.191-4.065-11.848-8.744-16.003-2.677-2.36-5.617-3.936-7.349-1.717l-22.883 55.925 26.228 9.003z" class="B"/><path d="M207.105 254.791H104.353v10.412h102.752v-10.412z" class="C"/><path d="M207.105 89.166H104.353v9.342h102.752v-9.342z" fill="#c0efff"/><path d="M95.499 149.703c3.741-1.725 5.693-11.483 6.392-15.865-3.004-3.028-6.766-5.751-8.825-3.114l-7.109 17.109c2.824 1.574 6.747 3.159 9.542 1.87z" class="I"/><path d="M51.883 316.056c8.211 5.058 34.645 20.182 61.966 23.407 1.602.189 2.727 1.659 2.255 2.932l-4.775 12.822c-.316.849-1.267 1.343-2.335 1.205-8.054-.98-41.285-5.997-64.667-24.134-.801-.617-1.131-1.553-.833-2.354l4.872-13.085c.459-1.225 2.179-1.617 3.517-.793z" fill="#064c91"/><path d="M49.484 328.321l-.09-.034a.93.93 0 0 1-.311-.192c-.09-.084-.162-.185-.213-.297s-.079-.233-.082-.356a.93.93 0 0 1 .061-.36l1.47-3.946a.92.92 0 0 1 .191-.312.93.93 0 0 1 .296-.214.91.91 0 0 1 .355-.082c.123-.004.245.017.36.062l.09.034a.92.92 0 0 1 .524.488c.051.112.079.233.082.356a.93.93 0 0 1-.062.361l-1.47 3.948a.93.93 0 0 1-.191.31c-.084.09-.184.163-.296.213a.91.91 0 0 1-.355.082.92.92 0 0 1-.359-.061zm4.916 3.035l-.092-.032a.93.93 0 0 1-.543-1.205l1.47-3.948a.93.93 0 0 1 .484-.519c.223-.102.478-.111.708-.025l.09.034a.93.93 0 0 1 .31.192.92.92 0 0 1 .213.296.93.93 0 0 1 .082.356c.004.123-.017.246-.061.361l-1.47 3.948a.93.93 0 0 1-.191.307.92.92 0 0 1-.293.211.91.91 0 0 1-.352.083.92.92 0 0 1-.356-.059zm4.876 3.002a.98.98 0 0 1-.571-1.257l1.436-3.858a.98.98 0 0 1 .509-.546c.235-.107.503-.116.745-.026a.99.99 0 0 1 .324.2.98.98 0 0 1 .31.681c.004.128-.016.256-.061.376l-1.436 3.858a.98.98 0 0 1-.2.325.97.97 0 0 1-.309.222c-.117.054-.243.083-.371.087s-.256-.017-.376-.062zm5.113 2.47l-.09-.034a.93.93 0 0 1-.31-.192.92.92 0 0 1-.212-.297.93.93 0 0 1-.02-.716l1.47-3.948a.93.93 0 0 1 .191-.311c.084-.09.184-.163.296-.214a.91.91 0 0 1 .355-.082.92.92 0 0 1 .359.061l.09.034a.93.93 0 0 1 .31.192c.09.084.162.185.213.297a.93.93 0 0 1 .082.355.94.94 0 0 1-.06.361l-1.47 3.948c-.043.115-.108.222-.191.312s-.184.163-.297.214a.95.95 0 0 1-.356.082.94.94 0 0 1-.36-.062zm4.986 2.853l-.09-.032a.93.93 0 0 1-.311-.192c-.09-.084-.162-.185-.213-.297a.93.93 0 0 1-.021-.716l1.47-3.946a.92.92 0 0 1 .19-.309c.083-.09.183-.162.293-.212s.23-.08.352-.084.243.016.357.058l.09.035a.92.92 0 0 1 .311.191.91.91 0 0 1 .213.297c.051.112.079.233.082.356a.94.94 0 0 1-.061.36l-1.47 3.948a.92.92 0 0 1-.484.519.93.93 0 0 1-.352.082.92.92 0 0 1-.356-.058zm5.205 2.262l-.09-.034a.93.93 0 0 1-.545-1.195l1.47-3.948a.95.95 0 0 1 .191-.311c.083-.09.184-.163.296-.214a.91.91 0 0 1 .355-.082.92.92 0 0 1 .359.061l.09.034a.92.92 0 0 1 .311.191.93.93 0 0 1 .295.653.91.91 0 0 1-.062.361l-1.47 3.948a.94.94 0 0 1-.194.308.93.93 0 0 1-.296.21.92.92 0 0 1-.354.08.93.93 0 0 1-.358-.062zm5.307 1.987l-.09-.034a.92.92 0 0 1-.311-.191.93.93 0 0 1-.213-.297c-.051-.112-.079-.233-.082-.356a.93.93 0 0 1 .062-.361l1.47-3.948a.93.93 0 0 1 .487-.524.91.91 0 0 1 .355-.082c.123-.003.245.018.359.062l.09.032a.93.93 0 0 1 .311.192c.09.084.162.185.213.297s.079.233.082.356a.93.93 0 0 1-.061.36l-1.47 3.946a.93.93 0 0 1-.842.61c-.123.004-.245-.017-.36-.062zm5.365 1.694c-.12-.044-.23-.112-.324-.2a.97.97 0 0 1-.223-.309.98.98 0 0 1-.026-.748l1.436-3.857a.98.98 0 0 1 .509-.547c.116-.053.242-.083.37-.087a.96.96 0 0 1 .375.061.99.99 0 0 1 .324.2.98.98 0 0 1 .223.31.97.97 0 0 1 .087.371.98.98 0 0 1-.061.376l-1.43 3.858a.98.98 0 0 1-.201.326.96.96 0 0 1-.31.223c-.117.053-.243.082-.372.086a.97.97 0 0 1-.377-.063zm5.629 1.123a.98.98 0 0 1-.573-1.257l1.436-3.858c.044-.12.112-.23.2-.324a1 1 0 0 1 .308-.224.97.97 0 0 1 .37-.087.96.96 0 0 1 .375.061.99.99 0 0 1 .547.509.98.98 0 0 1 .087.372c.005.128-.016.256-.061.376l-1.436 3.858c-.09.243-.273.439-.508.547a.97.97 0 0 1-.745.027zm5.525 1.536l-.09-.035a.91.91 0 0 1-.31-.191.93.93 0 0 1-.294-.653.94.94 0 0 1 .062-.36l1.468-3.949a.93.93 0 0 1 .191-.31c.084-.09.184-.163.296-.214s.232-.078.355-.082a.93.93 0 0 1 .359.06l.09.034a.93.93 0 0 1 .605.845.94.94 0 0 1-.062.36l-1.47 3.948c-.042.116-.107.221-.19.312a.93.93 0 0 1-.295.213c-.112.051-.232.079-.355.083s-.245-.017-.359-.061zm5.692.956l-.091-.034c-.115-.043-.221-.108-.31-.191a.94.94 0 0 1-.214-.297.95.95 0 0 1-.082-.357.94.94 0 0 1 .062-.36l1.47-3.948a.91.91 0 0 1 .191-.311c.083-.09.184-.163.296-.213a.91.91 0 0 1 .355-.082c.123-.004.245.017.359.062l.09.032c.115.042.221.108.311.191s.162.185.213.297a.95.95 0 0 1 .082.356c.004.123-.017.246-.061.361l-1.47 3.948a.92.92 0 0 1-.191.311c-.083.09-.184.163-.296.214s-.232.078-.355.082-.245-.017-.359-.061zm5.653.92a.98.98 0 0 1-.546-.511c-.107-.236-.117-.505-.027-.748l1.436-3.856a.97.97 0 0 1 1.254-.574c.241.091.437.274.544.51s.117.504.026.747l-1.435 3.857c-.045.12-.113.231-.2.324a.96.96 0 0 1-.308.223c-.116.054-.241.084-.369.088a.98.98 0 0 1-.375-.06z" fill="#063e70"/><path d="M68.104 345.752l.022-.06a1.21 1.21 0 0 1-.258-.065l-6.466-2.422a1.29 1.29 0 0 1-.693-.7c-.13-.316-.129-.671.002-.986l5.832-15.664a1.29 1.29 0 0 1 .643-.747c.305-.154.657-.181.981-.074l6.468 2.421a1.21 1.21 0 0 1 .475.333c.129.148.22.326.264.517l1.536.667c.172-1.318-.503-2.597-1.706-3.047l-6.466-2.422c-1.418-.53-3.036.288-3.605 1.824l-5.834 15.663c-.571 1.537.118 3.213 1.534 3.748l6.468 2.421c.475.169.988.202 1.481.096s.947-.348 1.311-.698l-1.988-.805z" class="H"/><path d="M66.686 333.321l-2.804-1.055a1.06 1.06 0 0 0-.765.075c-.237.121-.42.326-.512.575s-.089.525.012.771.289.446.529.559l2.814 1.053.727-1.978z" class="F"/><path d="M189.725 205.105s-13.878 1.169-14.363 4.868.583 10.218 13.684 11.483h13.571s-4.061-11.29-3.867-11.678-9.025-4.673-9.025-4.673z" fill="#efadab"/><path d="M167.458 260.274a3.77 3.77 0 0 0-1.15.963c-.316.395-.548.85-.685 1.337a3.77 3.77 0 0 0-.111 1.498c.063.502.226.986.48 1.423l34.07 58.508c2.619 4.089 9.024 13.724 30.279 18.676s29.987 19.278 29.987 19.278h65.508s-15.432-24.523-28.236-88.17c0 0-9.899-52.845-28.531-51.091 0 0-11.355-11.971-22.419-9.64 0 0-20.963-12.555-32.898-12.555l-28.679-33.968c-2.838-3.361-7.841-4.016-11.329-1.343-1.123.862-1.979 1.998-2.215 3.5-.873 5.549 6.408 19.562 18.051 36.496s40.469 70.653 27.95 94.302c0 0-12.816-9.64-23.874-25.102-9.264-12.965-20.162-17.323-26.198-14.112z" class="B"/><path d="M213.852 200.527a119.51 119.51 0 0 1 10.737 10.531c4.548 4.962 10.292 12.32 13.662 18.003 4.254 7.029 7.059 13.19 8.385 20.927l-.084.018c-1.528-7.269-5.519-15.099-8.996-20.507-2.603-4.229-7.409-10.946-13.487-17.989-3.048-3.526-6.915-7.691-10.277-10.918l.06-.065zm32.606 12.452c3.096 1.588 5.855 3.803 8.294 6.307 2.454 2.516 4.567 5.343 6.286 8.41a41.09 41.09 0 0 1 3.936 9.74c.753 3.175 1.239 5.33 1.317 10.354h-.086a51.25 51.25 0 0 0-1.888-10.165c-.984-3.213-2.365-6.649-4.038-9.505a44.97 44.97 0 0 0-6.033-8.372c-2.193-2.41-5.059-5.004-7.832-6.699l.044-.07zm22.363 9.48c2.739 2.074 5.511 5.751 6.854 8.233 1.782 3.129 3.1 6.502 3.913 10.011.647 2.37.801 4.673.914 7.085l-.087.012c-.4-2.338-.656-4.081-1.487-6.91-1.272-4.29-2.271-6.497-3.976-9.802-1.019-2.038-3.662-6.077-6.17-8.565l.039-.064zm-88.14 51.406c.581-2.956-2.854-7.643-5.972-11.179a7.24 7.24 0 0 0-3.543-2.221c-1.373-.376-2.825-.337-4.177.11a3.79 3.79 0 0 0-1.001 4.928l8.449 14.6c2.731-1.394 5.707-3.502 6.244-6.238zm2.755-93.995c1.657-.331 9.17-2.838 8.71-4.217l-7.41-8.784c-1.425-1.689-3.453-2.752-5.649-2.96h-.034l-.387-.014c-1.001 0-3.44.283-3.979 2.982-.533 2.665 3.867 9.141 5.808 11.834.327.456.779.808 1.3 1.014a2.91 2.91 0 0 0 1.641.145z" class="I"/><g style="mix-blend-mode:multiply" opacity=".2" class="B"><path d="M260.336 361.964h65.508s-10.117-16.079-20.769-55.987c-4.674 29.385-30.461 27.69-40.694 29.319-11.783 1.877-57.524-7.686-63.933-10.7 2.852 4.362 9.613 13.358 29.901 18.098 21.245 4.964 29.987 19.27 29.987 19.27z"/></g><g style="mix-blend-mode:multiply" opacity=".2" class="B"><path d="M193.049 210.512c12.844 20.696 35.888 68.235 24.487 88.975l7.566 7.491s19.121-21.241-11.304-68.077c-6.38-9.846-13.307-19.324-20.749-28.389z"/></g><path d="M15.726 132.23c-2.665-13.521 17.448-18.073 20.687-4.671.314 1.337.494 2.702.539 4.075.627 16.099-9.086 33.625-19.425 30.675s-4.388-13.947-1.254-20.544c1.464-3.08.148-6.046-.547-9.535zm292.595-29.495c-5.891-2.062-12.345 1.084-14.562 6.936-1.725 4.549-3.699 10.894-3.877 16.467-.325 10.069 3.668 31.677 18.936 37.012s24.377-8.739 14.218-25.025c-4.347-6.949-2.178-31.002-14.715-35.39z" class="G"/><path d="M37.494 199.21c-.765-.677-1.604-1.264-2.501-1.751l.349-.709c.959.512 1.854 1.136 2.667 1.858l-.515.602zm1.252 76.435c-1.37-1.468-2.651-3.017-3.837-4.638l.637-.466a50.13 50.13 0 0 0 3.777 4.576l-.577.528zm-7.009-9.761a33.15 33.15 0 0 1-2.283-5.597l.755-.229a32.28 32.28 0 0 0 2.229 5.46l-.701.366zm-3.44-11.537l-.128-2.812a32.35 32.35 0 0 1 .164-3.243l.785.079-.16 3.164.124 2.734-.785.078zm1.89-11.786l-.763-.201a51.3 51.3 0 0 1 1.89-5.721l.735.291a50 50 0 0 0-1.872 5.631h.01zm4.258-11.073l-.709-.347 2.747-5.33.695.376-2.733 5.301zm5.595-10.557l-.695-.371.022-.041a28.44 28.44 0 0 0 2.283-5.381l.757.227c-.593 1.92-1.382 3.774-2.355 5.532l-.012.034zm2.415-11.565a13.63 13.63 0 0 0-1.402-5.599l.707-.351a14.38 14.38 0 0 1 1.476 5.922l-.781.028zm3.014 72.56l-2.413-2.066.527-.59 2.387 2.044-.501.612z" class="C"/><path d="M32.298 185.829l-1.043 12.741-7.381-8.335L0 170.629l20.358 6.426s10.023 4.884 10.482 5.532 1.458 3.242 1.458 3.242z" fill="#e6a748"/><g class="H"><path d="M43.116 180.352L0 170.629l32.298 15.2 10.818-5.477z"/><path d="M15.716 195.265l13.291-6.651L0 170.629l15.716 24.636z"/></g><path d="M258.065 201.584a5.55 5.55 0 0 1 .91-2.006c.434-.601.984-1.109 1.617-1.494a5.53 5.53 0 0 1 2.068-.745c.733-.107 1.479-.066 2.195.12a8.17 8.17 0 0 1 4.094-4.017 8.13 8.13 0 0 1 5.719-.326 10.05 10.05 0 0 1 4.092-3.798 10.02 10.02 0 0 1 5.482-1.025c1.887.185 3.684.901 5.182 2.066s2.637 2.731 3.285 4.518a6.88 6.88 0 0 1 3.432-.872c1.2.015 2.375.343 3.41.953s1.892 1.48 2.488 2.525a6.91 6.91 0 0 1 .909 3.43 6.76 6.76 0 0 1-.034.671h-44.849zM85.13 24.204a3.98 3.98 0 0 1 1.394-2.216 3.96 3.96 0 0 1 2.467-.865c.338 0 .674.044 1.001.128.597-1.279 1.636-2.298 2.924-2.87a5.82 5.82 0 0 1 4.085-.239c.701-1.165 1.717-2.107 2.929-2.717a7.17 7.17 0 0 1 3.923-.732 7.18 7.18 0 0 1 3.708 1.478 7.21 7.21 0 0 1 2.351 3.233 4.92 4.92 0 0 1 4.896.056 4.93 4.93 0 0 1 1.781 1.807 4.95 4.95 0 0 1 .65 2.456 4.81 4.81 0 0 1-.024.48H85.13zm169.761 146.044s-.675 6.673-5.928 7.135c5.253.462 5.928 7.135 5.928 7.135s.674-6.673 5.925-7.135c-5.251-.464-5.925-7.135-5.925-7.135zM63.055 120.932s-.675 6.673-5.928 7.135c5.253.459 5.928 7.133 5.928 7.133s.675-6.674 5.926-7.133c-5.251-.462-5.926-7.135-5.926-7.135zm205.727 30.855s-.446 4.418-3.919 4.719c3.473.306 3.919 4.721 3.919 4.721s.447-4.417 3.922-4.721c-3.475-.305-3.922-4.719-3.922-4.719zM74.096 105.318s-.447 4.418-3.919 4.722c3.472.305 3.919 4.719 3.919 4.719s.447-4.418 3.921-4.719c-3.468-.306-3.921-4.722-3.921-4.722zm174.388 33.215s-.2 1.974-1.754 2.111c1.554.136 1.754 2.112 1.754 2.112s.201-1.976 1.755-2.112c-1.554-.137-1.755-2.111-1.755-2.111zm-180.767 8.465s-.2 1.974-1.752 2.111c1.554.136 1.752 2.112 1.752 2.112s.2-1.976 1.754-2.112c-1.554-.145-1.754-2.111-1.754-2.111z" fill="#fff"/><path d="M172.14 124.265c-1.077 0-2.143-.212-3.137-.625a8.19 8.19 0 0 1-2.66-1.782 8.22 8.22 0 0 1-1.776-2.666c-.412-.998-.624-2.067-.624-3.146v-6.089h16.391v6.089c.001 1.079-.211 2.148-.623 3.145a8.22 8.22 0 0 1-1.776 2.667 8.19 8.19 0 0 1-2.659 1.781c-.994.414-2.06.626-3.136.626z" class="E"/><path d="M155.749 124.265c-1.077 0-2.143-.212-3.137-.625a8.19 8.19 0 0 1-2.66-1.782c-.761-.763-1.365-1.669-1.776-2.666s-.624-2.067-.624-3.146v-6.089h16.391v6.089c.001 1.079-.211 2.148-.623 3.145s-1.015 1.903-1.776 2.667a8.19 8.19 0 0 1-2.659 1.781c-.994.414-2.06.626-3.136.626z" class="C"/><path d="M139.358 124.265a8.18 8.18 0 0 1-5.792-2.41 8.23 8.23 0 0 1-2.397-5.809v-6.089h16.391v6.089c0 1.08-.212 2.149-.624 3.147s-1.016 1.904-1.778 2.667a8.19 8.19 0 0 1-2.662 1.782 8.18 8.18 0 0 1-3.138.623z" class="E"/><path d="M122.959 124.265c-1.077 0-2.143-.212-3.137-.625a8.18 8.18 0 0 1-2.66-1.782 8.22 8.22 0 0 1-1.777-2.666c-.411-.998-.623-2.067-.623-3.146v-6.089h16.407v6.089a8.24 8.24 0 0 1-.625 3.149c-.412.998-1.017 1.905-1.78 2.668a8.19 8.19 0 0 1-2.664 1.781 8.18 8.18 0 0 1-3.141.621z" class="C"/><path d="M98.379 109.957h16.391v6.091c0 2.179-.863 4.269-2.4 5.81s-3.621 2.407-5.795 2.407-4.257-.866-5.794-2.407a8.23 8.23 0 0 1-2.4-5.81v-6.091h-.002z" class="E"/><path d="M221.285 124.265a8.18 8.18 0 0 1-3.141-.621 8.22 8.22 0 0 1-2.664-1.781c-.762-.764-1.367-1.67-1.78-2.669s-.625-2.068-.625-3.148v-6.089h16.393v6.089c0 2.177-.862 4.266-2.396 5.807s-3.615 2.408-5.787 2.412z" class="C"/><path d="M204.884 124.265c-2.174 0-4.259-.866-5.796-2.407a8.23 8.23 0 0 1-2.4-5.812v-6.089h16.387v6.089a8.23 8.23 0 0 1-2.399 5.81c-1.536 1.541-3.619 2.408-5.792 2.409z" class="E"/><path d="M188.531 124.265c-2.174 0-4.259-.866-5.796-2.407a8.23 8.23 0 0 1-2.401-5.812v-6.089h16.392v6.089c0 1.079-.212 2.148-.624 3.145a8.22 8.22 0 0 1-1.776 2.667 8.19 8.19 0 0 1-2.659 1.781c-.994.414-2.06.626-3.136.626zM81.988 109.957h16.391v6.091a8.23 8.23 0 0 1-2.4 5.81c-1.537 1.541-3.621 2.407-5.794 2.407a8.18 8.18 0 0 1-5.794-2.407 8.23 8.23 0 0 1-2.4-5.81v-6.091h-.002z" class="C"/><path d="M161.574 89.166h-11.653l-2.369 20.79h16.391l-2.369-20.79z" class="F"/><path d="M149.921 89.166h-11.653l-7.107 20.79h16.391l2.369-20.79z" class="D"/><path d="M138.268 89.166h-11.655l-11.843 20.79h16.391l7.107-20.79z" class="F"/><path d="M126.613 89.166h-11.655l-16.579 20.79h16.391l11.843-20.79z" class="D"/><path d="M114.958 89.166h-11.653l-21.317 20.79h16.391l16.579-20.79zm93.156 0h-11.655l16.622 20.79h16.391l-21.358-20.79z" class="F"/><path d="M196.517 89.166h-11.653l11.823 20.79h16.394l-16.564-20.79z" class="D"/><path d="M184.864 89.166h-11.655l7.125 20.79h16.392l-11.862-20.79z" class="F"/><path d="M173.209 89.166h-11.653l2.387 20.79h16.391l-7.125-20.79zm-48.721 130.797h62.481c1.784 0 3.495.711 4.756 1.976a6.75 6.75 0 0 1 1.971 4.769v.902a6.76 6.76 0 0 1-1.971 4.768c-1.261 1.264-2.971 1.975-4.754 1.975H124.49a6.7 6.7 0 0 1-2.577-.509 6.75 6.75 0 0 1-2.186-1.461 6.74 6.74 0 0 1-1.461-2.19 6.75 6.75 0 0 1-.514-2.583v-.9a6.76 6.76 0 0 1 .513-2.584 6.75 6.75 0 0 1 3.646-3.652c.817-.338 1.693-.512 2.577-.511z" class="D"/><path d="M140.393 228.284c.002.182-.023.364-.074.538a1.59 1.59 0 0 1-.2.442 1.56 1.56 0 0 1-.323.346 1.94 1.94 0 0 1-.424.249c-.164.067-.333.118-.507.15a3.45 3.45 0 0 1-.617.05h-1.612c-.073-.003-.143-.029-.2-.074-.036-.033-.063-.073-.08-.119a.3.3 0 0 1-.018-.142v-5.52c-.006-.049 0-.097.017-.143a.3.3 0 0 1 .081-.118.34.34 0 0 1 .2-.075h1.402c.306-.008.611.027.907.105a1.59 1.59 0 0 1 .589.307 1.23 1.23 0 0 1 .354.492c.083.21.124.435.12.661.001.141-.017.282-.052.419a1.4 1.4 0 0 1-.156.372 1.22 1.22 0 0 1-.256.303c-.106.092-.227.167-.357.221.167.031.326.09.473.175a1.46 1.46 0 0 1 .385.323c.112.136.201.291.26.458a1.68 1.68 0 0 1 .088.58zm-1.236-2.771c.002-.136-.019-.272-.062-.402-.039-.118-.108-.224-.2-.309-.099-.094-.218-.162-.348-.201-.184-.051-.375-.074-.565-.068h-.847v2.008h.931a1.33 1.33 0 0 0 .515-.082c.123-.051.233-.128.324-.225.085-.095.149-.208.188-.329s.062-.256.064-.388v-.004zm.373 2.811c.003-.167-.027-.332-.088-.488-.056-.137-.144-.259-.257-.355-.124-.101-.269-.175-.424-.217a2.27 2.27 0 0 0-.641-.074h-.979v2.181h1.189a1.63 1.63 0 0 0 .491-.067 1.07 1.07 0 0 0 .368-.2.93.93 0 0 0 .251-.328c.061-.141.092-.294.09-.448v-.004zm6.751-.551a2.86 2.86 0 0 1-.165 1.004 2.07 2.07 0 0 1-.468.749c-.211.209-.465.367-.745.464a2.89 2.89 0 0 1-1.002.158c-.316.004-.631-.046-.931-.148a1.99 1.99 0 0 1-.719-.438 1.89 1.89 0 0 1-.464-.725c-.114-.322-.169-.662-.162-1.004v-3.842c0-.024.007-.047.02-.068s.039-.037.066-.044a.66.66 0 0 1 .124-.03 1.67 1.67 0 0 1 .2 0 1.67 1.67 0 0 1 .2 0 .54.54 0 0 1 .126.03c.026.007.049.023.065.044s.02.044.02.068v3.736a2.42 2.42 0 0 0 .104.751c.061.197.165.379.304.532a1.24 1.24 0 0 0 .477.321 1.72 1.72 0 0 0 .627.109 1.79 1.79 0 0 0 .628-.107c.181-.066.343-.174.473-.315.135-.151.236-.329.296-.522a2.3 2.3 0 0 0 .102-.727v-3.784c0-.024.007-.048.021-.068a.12.12 0 0 1 .066-.044.68.68 0 0 1 .126-.03 1.67 1.67 0 0 1 .2 0 1.67 1.67 0 0 1 .2 0 .52.52 0 0 1 .124.03c.027.008.051.023.069.044s.02.044.02.068l-.002 3.788zm5.062 1.944a.78.78 0 0 1 0 .153c-.004.037-.015.073-.032.106a.16.16 0 0 1-.056.062c-.02.014-.044.021-.068.02h-2.964c-.073-.002-.143-.028-.2-.074-.036-.033-.063-.073-.08-.119a.3.3 0 0 1-.018-.142v-5.52a.3.3 0 0 1 .017-.143c.017-.045.045-.086.081-.119.057-.046.127-.072.2-.074h2.93c.024 0 .049.006.07.018s.039.038.05.063a.51.51 0 0 1 .03.108c.009.053.013.107.012.161a.76.76 0 0 1-.012.15c-.006.036-.016.071-.03.105-.011.024-.028.045-.05.06s-.046.018-.07.018h-2.403v1.944h2.044c.026-.001.05.007.07.022s.04.035.053.058c.017.033.028.069.032.107a1.36 1.36 0 0 1 .01.156c0 .05-.003.1-.01.149-.005.035-.016.069-.032.1-.012.023-.03.043-.053.056s-.045.017-.07.017h-2.064v2.209h2.447c.024-.001.047.006.068.018s.042.036.056.06c.018.033.028.069.032.106.008.055.012.11.01.165zm8.211.001c.001.057-.01.113-.032.165-.019.042-.048.079-.085.108s-.071.05-.114.062a.47.47 0 0 1-.128.02h-.272c-.076.002-.151-.007-.224-.026a.51.51 0 0 1-.183-.096c-.066-.055-.125-.118-.174-.189-.067-.098-.128-.201-.182-.307l-1.885-3.52-.296-.573-.28-.58.014.703c.014.239 0 .476 0 .713v3.737c0 .023-.007.045-.02.064s-.041.04-.068.048a.8.8 0 0 1-.127.028c-.133.017-.267.017-.4 0-.042-.006-.084-.015-.124-.028-.027-.009-.05-.026-.066-.048s-.02-.041-.02-.064v-5.713a.32.32 0 0 1 .021-.15c.019-.048.048-.09.087-.123.068-.052.151-.08.236-.081h.401c.08-.001.16.007.238.024a.5.5 0 0 1 .172.079c.057.042.107.094.148.152.056.079.106.162.15.247l1.448 2.717.259.486.24.466.228.452.223.448-.012-.787v-.788-3.357c-.001-.023.006-.044.02-.062a.14.14 0 0 1 .066-.051c.04-.016.083-.027.126-.032h.2a1.67 1.67 0 0 1 .2 0 .43.43 0 0 1 .127.032c.025.01.048.028.064.051s.02.039.02.062l.004 5.711zm6.814-2.827c.006.458-.054.914-.178 1.355-.103.375-.282.725-.526 1.026a2.33 2.33 0 0 1-.88.651c-.392.158-.812.236-1.235.227a3.18 3.18 0 0 1-1.202-.201c-.325-.128-.613-.335-.839-.602a2.56 2.56 0 0 1-.494-.986 5.11 5.11 0 0 1-.163-1.354 4.68 4.68 0 0 1 .177-1.331 2.78 2.78 0 0 1 .53-1.016c.239-.282.541-.503.881-.645a3.1 3.1 0 0 1 1.236-.229c.406-.01.81.058 1.19.201.325.129.613.336.841.602.236.285.407.618.5.976.115.433.169.879.162 1.326zm-.869.058a4.94 4.94 0 0 0-.092-.978 2.27 2.27 0 0 0-.31-.785c-.145-.221-.344-.399-.579-.518-.28-.133-.587-.197-.897-.187-.311-.011-.619.059-.895.201a1.69 1.69 0 0 0-.589.536 2.27 2.27 0 0 0-.324.781c-.065.309-.098.624-.097.94a5.2 5.2 0 0 0 .091 1.004 2.23 2.23 0 0 0 .304.791c.142.22.341.399.575.516a1.97 1.97 0 0 0 .903.185c.314.011.625-.058.905-.201.242-.128.448-.314.601-.542a2.29 2.29 0 0 0 .318-.803 4.5 4.5 0 0 0 .086-.94zm7.973 2.926a.25.25 0 0 1-.058.109c-.03.028-.066.05-.105.062-.053.016-.108.026-.164.03h-.24-.252a.81.81 0 0 1-.169-.03c-.038-.012-.072-.033-.1-.062a.29.29 0 0 1-.052-.109l-1.294-4.673h-.018l-1.191 4.673c-.007.04-.024.077-.048.109s-.059.05-.096.062a.73.73 0 0 1-.16.03h-.251-.262a.84.84 0 0 1-.172-.03.26.26 0 0 1-.103-.062c-.025-.031-.042-.069-.05-.109l-1.632-5.717c-.015-.056-.025-.114-.03-.173-.002-.017.001-.035.007-.052s.018-.031.031-.042a.23.23 0 0 1 .131-.044h.244.234a.44.44 0 0 1 .13.026c.027.009.049.027.062.052a.3.3 0 0 1 .026.087l1.39 5.187 1.318-5.177a.32.32 0 0 1 .034-.089c.017-.025.041-.044.07-.054a.46.46 0 0 1 .136-.03h.231c.07-.004.141-.004.212 0 .044.003.087.014.128.03.028.009.052.029.068.054a.36.36 0 0 1 .036.089l1.418 5.177 1.36-5.181.03-.085c.005-.013.013-.024.024-.034s.022-.016.036-.02c.041-.017.084-.027.128-.03.149-.012.299-.012.449 0 .043.003.085.019.12.046.013.012.023.027.029.044s.009.035.007.052c-.003.058-.012.115-.026.171l-1.616 5.713z" fill="#fff"/></svg>