<svg xmlns="http://www.w3.org/2000/svg" xmlns:xlink="http://www.w3.org/1999/xlink" width="440" height="394" fill="none" xmlns:v="https://vecta.io/nano"><path d="M190.864 382.876h69.462v-73.803h-69.462v73.803z" fill="url(#A)"/><g style="mix-blend-mode:multiply" opacity=".77"><path d="M190.864 337.441h69.462v-28.368h-69.462v28.368z" fill="#3949ab"/></g><path d="M280.262 391.429H170.957c0-3.422 1.356-6.704 3.771-9.124s5.689-3.779 9.104-3.779h83.555c3.414 0 6.689 1.36 9.104 3.779a12.92 12.92 0 0 1 3.771 9.124z" fill="url(#B)"/><path d="M78.211 332.608h294.774c8.561 0 15.502-6.955 15.502-15.536V134.778c0-8.581-6.941-15.537-15.502-15.537H78.211c-8.562 0-15.503 6.956-15.503 15.537v182.294c0 8.581 6.941 15.536 15.503 15.536z" fill="url(#C)"/><path d="M77.588 297.308h296.02c3.355 0 6.074-2.726 6.074-6.088V140.562c0-3.363-2.719-6.088-6.074-6.088H77.588c-3.355 0-6.074 2.725-6.074 6.088V291.22c0 3.362 2.72 6.088 6.075 6.088z" fill="url(#D)"/><g style="mix-blend-mode:multiply" opacity=".77"><path d="M375.64 141.829c0-.876-.347-1.717-.966-2.336a3.29 3.29 0 0 0-2.331-.968H71.871a6.05 6.05 0 0 1 2.215-2.936c1.024-.725 2.248-1.113 3.502-1.11h296.02c1.611 0 3.156.641 4.295 1.783s1.779 2.69 1.779 4.304v150.659c-.001 1.256-.391 2.48-1.114 3.506a6.07 6.07 0 0 1-2.928 2.222V141.829z" fill="#9fa8da"/></g><path d="M225.595 321.822c3.782 0 6.847-3.072 6.847-6.862s-3.065-6.861-6.847-6.861-6.846 3.072-6.846 6.861 3.065 6.862 6.846 6.862z" fill="#fff"/><g style="mix-blend-mode:screen" opacity=".45"><path d="M77.588 134.479h203.348L118.449 297.312H77.588c-1.611 0-3.156-.641-4.295-1.783s-1.779-2.69-1.779-4.304V140.566c0-1.614.64-3.163 1.779-4.304s2.684-1.783 4.295-1.783z" fill="#fff"/></g><path d="M198.474 10.46L95.216 57.288v97.73c0 55.059 65.117 87.772 103.258 103.481 38.108-15.704 103.258-48.417 103.258-103.481V57.288L198.474 10.46z" fill="url(#E)"/><path d="M105.909 64.191v90.825c0 34.909 31.14 65.809 92.56 91.879 61.42-26.07 92.56-56.97 92.56-91.879V64.191l-92.56-41.984-92.56 41.984z" fill="url(#F)"/><g style="mix-blend-mode:overlay" opacity=".36"><path d="M95.23 57.288v90.85c9.88 2.521 20.037 3.794 30.233 3.789 66.383 0 120.379-53.106 121.984-119.246l-48.973-22.22L95.23 57.288z" fill="#f3e5f5"/></g><path d="M253.215 247.25v6.675h93.234v-6.675h-93.234z" fill="url(#G)"/><path d="M253.131 247.199v6.671l-8.442.004-4.703-3.337 4.703-3.338h8.442z" fill="url(#H)"/><use xlink:href="#R" fill="url(#I)"/><use xlink:href="#R" fill="url(#J)"/><use xlink:href="#R" style="mix-blend-mode:multiply" fill="url(#J)"/><path d="M324.737 235.163v30.839c0 1.241 1.004 2.247 2.242 2.247h6.093c1.238 0 2.242-1.006 2.242-2.247v-30.839c0-1.241-1.004-2.247-2.242-2.247h-6.093c-1.238 0-2.242 1.006-2.242 2.247z" fill="url(#K)"/><path d="M343.981 235.578l.011 29.837a6.67 6.67 0 0 0 6.663 6.673l82.657-.029a6.67 6.67 0 0 0 6.659-6.678l-.011-29.837c-.001-3.686-2.984-6.674-6.663-6.672l-82.657.028a6.67 6.67 0 0 0-6.659 6.678z" fill="url(#L)"/><use xlink:href="#S" fill="url(#M)"/><use xlink:href="#S" y="12.069" fill="url(#N)"/><path d="M426.893 265.508c1.623 0 2.939-1.319 2.939-2.946s-1.316-2.946-2.939-2.946h-69.769c-1.624 0-2.94 1.319-2.94 2.946s1.316 2.946 2.94 2.946h69.769z" fill="url(#O)"/><path d="M112.923 342.528c.012-.034.021-.068.028-.103l.87-4.573.405-4.661c.002-.036.002-.072 0-.107l3.888-1.399 6.233-2.708-.047-2.359-.581-5.16c-.214-1.897-.721-3.729-.991-5.099l-.372-1.669c-.043-.212-.102-.421-.177-.624l-6.809-.756-4.098-.186c-.015-.035-.027-.071-.037-.107-.414-1.333-.972-2.368-1.265-3.128l-.512-1.175-.516-1.17c-.331-.741-.958-1.734-1.628-2.96l-.056-.097 2.567-3.291 3.721-5.636-1.307-1.897c-.8-1.161-2.065-2.564-3.255-4.023-1.12-1.308-2.311-2.553-3.568-3.729l-1.693-1.669-6.149 3.058-3.558 2.065-.084-.07a27.62 27.62 0 0 0-2.744-1.957l-1.07-.709-1.065-.708-2.963-1.604-.102-.056.381-4.153c.228-3.38.116-6.787.116-6.787l-2.181-.895c-1.604-.628-3.242-1.164-4.907-1.603l-2.661-.756-2.363-.466-2.326-.438s-1.888 2.797-3.502 5.855l-1.861 3.701h-.112a28.21 28.21 0 0 0-3.363-.21h-1.279-1.279c-1.123-.015-2.245.052-3.358.2h-.112l-1.912-3.654-2.405-4.06-1.172-1.804-2.326.489c-1.697.321-3.373.744-5.019 1.268l-4.898 1.678-2.163.933.186 6.773.433 4.153-.098.056-2.926 1.664-1.056.722-1.056.723c-.943.609-1.853 1.269-2.726 1.976l-.088.07-3.572-2.027-6.167-3.002s-.181.153-.465.466l-1.205 1.212c-.958 1.034-2.391 2.274-3.54 3.775l-3.223 4.056-1.312 1.962 3.809 5.594 2.591 3.263-.056.093-1.581 2.983a6.81 6.81 0 0 0-.4.858l-.126.312-1.735 4.326-.028.102-4.084.243-6.782.843a15.08 15.08 0 0 0-.554 2.284l-.93 5.086-.465 5.155a14.71 14.71 0 0 0-.088 2.331l6.293 2.657 3.865 1.347v.135l.498 4.634.037.335c.027.314.077.626.149.932l.712 3.305.028.103-3.377 2.433-5.186 4.363.73 2.242c.437 1.347 1.26 3.049 2 4.783s1.735 3.342 2.381 4.6l.828 1.492c.1.191.21.376.33.555l6.749-1.203 3.991-.979c0 .028.047.061.065.093.648.92 1.345 1.804 2.088 2.648l.819.984.819.978 2.395 2.378.079.079-1.54 3.883-2.019 6.465 1.828 1.487c1.079.932 2.702 1.865 4.261 2.951 1.441.953 2.938 1.817 4.484 2.587l2.088 1.1 1.619-1.399 3.409-3.263 2.833-2.997.107.042a22.65 22.65 0 0 0 3.181 1.105l1.223.368 1.228.364c1.081.302 2.179.54 3.288.713l.112.023.805 4.074c.721 3.375 1.781 6.587 1.781 6.587l2.326.209 2.395.196h2.791c1.725.026 3.451-.047 5.168-.219l2.326-.266 1.73-6.563.763-4.097.107-.028 3.293-.736 1.219-.392 1.219-.392a27.04 27.04 0 0 0 3.172-1.132l.102-.047 2.861 2.96 5.088 4.619 2.065-1.128a45.51 45.51 0 0 0 4.451-2.633l4.224-2.983 1.809-1.506-2.075-6.447-1.576-3.864.079-.079 2.367-2.405.819-.984.809-.993c.489-.652 1.307-1.491 2.07-2.666l.06-.093 3.996.932 6.758 1.133a4.85 4.85 0 0 0 .34-.555l.809-1.506 2.326-4.633 1.948-4.834.684-2.256-5.27-4.27-3.358-2.409zm-55.434 18.915a31.02 31.02 0 0 1-16.368-7.567c-4.589-4.089-7.866-9.45-9.415-15.404s-1.303-12.237.71-18.051 5.7-10.9 10.596-14.614 10.781-5.89 16.911-6.253 12.23 1.104 17.528 4.215 9.557 7.727 12.238 13.263a31.18 31.18 0 0 1 2.824 17.842c-1.136 8.174-5.462 15.563-12.028 20.544s-14.837 7.149-22.996 6.025z" fill="url(#P)"/><path d="M100.932 336.081c1.076-7.762-.17-15.668-3.578-22.721a39.59 39.59 0 0 0-15.571-16.899c-6.743-3.966-14.509-5.84-22.315-5.383a39.49 39.49 0 0 0-21.538 7.948c-6.237 4.726-10.936 11.199-13.503 18.6s-2.885 15.4-.916 22.984a39.64 39.64 0 0 0 11.979 19.621c5.841 5.209 13.092 8.565 20.837 9.644a39.44 39.44 0 0 0 15.402-.899c5.025-1.31 9.744-3.6 13.886-6.738s7.627-7.064 10.255-11.552 4.349-9.451 5.063-14.605zm-65.783-9.16a26.95 26.95 0 0 1 6.533-14.191 26.85 26.85 0 0 1 13.299-8.162c5.141-1.343 10.564-1.128 15.583.618s9.409 4.944 12.614 9.19 5.082 9.35 5.393 14.665a26.96 26.96 0 0 1-3.646 15.195 26.88 26.88 0 0 1-11.455 10.605 26.81 26.81 0 0 1-15.404 2.44 26.88 26.88 0 0 1-17.723-10.431 26.99 26.99 0 0 1-5.194-19.929z" fill="url(#Q)"/><g style="mix-blend-mode:multiply" opacity=".19"><path d="M394.19 43.192v-5.188l-8.549-2.508a32.3 32.3 0 0 0-1.735-6.498l6.153-6.451-2.609-4.494-8.656 2.116a32.47 32.47 0 0 0-4.744-4.754l2.111-8.679-4.484-2.592-6.418 6.162a32.47 32.47 0 0 0-6.489-1.739L356.286 0h-5.19l-2.503 8.567a32.36 32.36 0 0 0-6.484 1.739l-6.437-6.162-4.502 2.592 2.111 8.679a32.47 32.47 0 0 0-4.744 4.755l-8.661-2.116-2.586 4.494 6.149 6.451a32.59 32.59 0 0 0-1.735 6.498l-8.549 2.508v5.188l8.568 2.489c.351 2.23.933 4.417 1.735 6.526l-6.149 6.442 2.586 4.494 8.661-2.116a32.44 32.44 0 0 0 4.744 4.75l-2.13 8.679 4.483 2.596 6.438-6.167a32.03 32.03 0 0 0 6.484 1.739l2.502 8.567h5.209l2.498-8.567c2.218-.351 4.392-.934 6.489-1.739l6.437 6.167 4.484-2.596-2.112-8.679a32.44 32.44 0 0 0 4.744-4.75l8.624 2.116 2.591-4.494-6.135-6.442c.804-2.108 1.385-4.296 1.735-6.526l8.549-2.489zm-40.508 14.45a16.97 16.97 0 0 1-9.443-2.871c-2.794-1.871-4.973-4.532-6.259-7.644a17.06 17.06 0 0 1-.967-9.841c.655-3.304 2.274-6.339 4.651-8.721s5.405-4.004 8.702-4.661 6.714-.32 9.82.969 5.76 3.472 7.627 6.273 2.864 6.094 2.864 9.463a17.05 17.05 0 0 1-4.982 12.035c-3.187 3.191-7.508 4.984-12.013 4.984v.014z" fill="#7986cb"/></g><path d="M159.812 142.008c6.012 15.36 20.955 26.242 38.438 26.242 22.781 0 41.25-18.469 41.25-41.25m-2.812-15.007c-6.004-15.364-20.952-26.243-38.438-26.243-22.781 0-41.25 18.469-41.25 41.25m30 15h-30v30m82.5-90v30h-30" stroke="#fff" stroke-width="14"/><defs><linearGradient id="A" x1="225.595" y1="382.876" x2="225.595" y2="309.078" xlink:href="#T"><stop stop-color="#3949ab"/><stop offset="1" stop-color="#5c6bc0"/></linearGradient><linearGradient id="B" x1="280.262" y1="384.977" x2="170.934" y2="384.977" xlink:href="#T"><stop stop-color="#3949ab"/><stop offset="1" stop-color="#5c6bc0"/></linearGradient><linearGradient id="C" x1="225.595" y1="332.608" x2="225.595" y2="119.237" xlink:href="#T"><stop stop-color="#3949ab"/><stop offset="1" stop-color="#5c6bc0"/></linearGradient><linearGradient id="D" x1="109.714" y1="99.761" x2="341.982" y2="331.528" xlink:href="#T"><stop stop-color="#fff"/><stop offset="1" stop-color="#ccd1ec"/></linearGradient><linearGradient id="E" x1="114.919" y1="37.556" x2="282.385" y2="204.657" xlink:href="#T"><stop stop-color="#fff"/><stop offset="1" stop-color="#ccd1ec"/></linearGradient><linearGradient id="F" x1="123.058" y1="47.009" x2="274.21" y2="197.835" xlink:href="#T"><stop stop-color="#ff3eff"/><stop offset="1" stop-color="#c445c0"/></linearGradient><linearGradient id="G" x1="299.829" y1="253.929" x2="299.829" y2="247.254" xlink:href="#T"><stop stop-color="#ccd1ec"/><stop offset="1" stop-color="#fff"/></linearGradient><linearGradient id="H" x1="246.112" y1="254.643" x2="246.112" y2="247.968" xlink:href="#T"><stop stop-color="#c445c0"/><stop offset="1" stop-color="#ff3eff"/></linearGradient><linearGradient id="I" x1="343.821" y1="263.431" x2="343.844" y2="237.505" xlink:href="#T"><stop stop-color="#c445c0"/><stop offset="1" stop-color="#ff3eff"/></linearGradient><linearGradient id="J" x1="343.784" y1="263.532" x2="343.784" y2="237.625" xlink:href="#T"><stop stop-color="#c445c0"/><stop offset="1" stop-color="#ff3eff"/></linearGradient><linearGradient id="K" x1="330.054" y1="268.14" x2="330.085" y2="232.803" xlink:href="#T"><stop stop-color="#c445c0"/><stop offset="1" stop-color="#ff3eff"/></linearGradient><linearGradient id="L" x1="392.011" y1="272" x2="392.034" y2="228.734" xlink:href="#T"><stop stop-color="#c445c0"/><stop offset="1" stop-color="#ff3eff"/></linearGradient><linearGradient id="M" x1="392.003" y1="235.484" x2="392.003" y2="241.376" xlink:href="#T"><stop stop-color="#c445c0"/><stop offset="1" stop-color="#ff3eff"/></linearGradient><linearGradient id="N" x1="392.003" y1="235.479" x2="392.003" y2="241.371" xlink:href="#T"><stop stop-color="#c445c0"/><stop offset="1" stop-color="#ff3eff"/></linearGradient><linearGradient id="O" x1="392.004" y1="259.616" x2="392.004" y2="265.503" xlink:href="#T"><stop stop-color="#c445c0"/><stop offset="1" stop-color="#ff3eff"/></linearGradient><linearGradient id="P" x1="24.931" y1="281.092" x2="100.047" y2="380.163" xlink:href="#T"><stop stop-color="#9fa8da"/><stop offset="1" stop-color="#5c6bc0"/></linearGradient><linearGradient id="Q" x1="37.902" y1="299.011" x2="85.753" y2="362.122" xlink:href="#T"><stop stop-color="#5c6bc0"/><stop offset="1" stop-color="#9fa8da"/></linearGradient><path id="R" d="M333.798 237.625v25.912h19.977v-25.912h-19.977z"/><path id="S" d="M426.888 241.376c1.623 0 2.94-1.319 2.94-2.946s-1.317-2.946-2.94-2.946h-69.769c-1.623 0-2.94 1.319-2.94 2.946s1.317 2.946 2.94 2.946h69.769z"/><linearGradient id="T" gradientUnits="userSpaceOnUse"/></defs></svg>