<svg width="360" height="83" viewBox="0 0 360 83" fill="none" xmlns="http://www.w3.org/2000/svg">
<rect width="360" height="83" rx="41.5" fill="url(#paint0_linear_110_4930)"/>
<path d="M65.6632 42.0353C65.6632 43.0299 64.8569 43.8362 63.8623 43.8362C62.8677 43.8362 62.0614 43.0299 62.0614 42.0353C62.0614 41.0407 62.8677 40.2344 63.8623 40.2344C64.8569 40.2344 65.6632 41.0407 65.6632 42.0353Z" fill="white"/>
<path d="M71.9663 42.0353C71.9663 43.0299 71.16 43.8362 70.1654 43.8362C69.1708 43.8362 68.3645 43.0299 68.3645 42.0353C68.3645 41.0407 69.1708 40.2344 70.1654 40.2344C71.16 40.2344 71.9663 41.0407 71.9663 42.0353Z" fill="white"/>
<path d="M78.2697 42.0353C78.2697 43.0299 77.4634 43.8362 76.4688 43.8362C75.4741 43.8362 74.6678 43.0299 74.6678 42.0353C74.6678 41.0407 75.4741 40.2344 76.4688 40.2344C77.4634 40.2344 78.2697 41.0407 78.2697 42.0353Z" fill="white"/>
<path fill-rule="evenodd" clip-rule="evenodd" d="M60.0351 29.8824H80.2952C86.6359 29.8824 91.776 35.0225 91.776 41.3632C91.776 47.7038 86.6359 52.844 80.2952 52.844H63.1063C59.9848 54.2393 62.7455 57.3693 64.5369 58.9218C58.2164 56.883 53.4012 52.2714 50.8342 48.2311C49.4023 46.3159 48.5543 43.9386 48.5543 41.3632C48.5543 35.0225 53.6944 29.8824 60.0351 29.8824ZM40 41.3632C40 30.2981 48.97 21.3281 60.0351 21.3281H80.2952C91.3603 21.3281 100.33 30.2981 100.33 41.3632C100.33 52.4282 91.3603 61.3983 80.2952 61.3983H60.0351C48.97 61.3983 40 52.4282 40 41.3632Z" fill="white"/>
<path d="M59.8112 17.2726C59.8112 16.5266 60.4159 15.9219 61.1618 15.9219V15.9219C61.9078 15.9219 62.5125 16.5266 62.5125 17.2726V23.1255C62.5125 23.8715 61.9078 24.4762 61.1618 24.4762V24.4762C60.4159 24.4762 59.8112 23.8715 59.8112 23.1255V17.2726Z" fill="white"/>
<path d="M64.3127 15.0188C64.3127 16.7593 62.9017 18.1704 61.1611 18.1704C59.4205 18.1704 58.0095 16.7593 58.0095 15.0188C58.0095 13.2782 59.4205 11.8672 61.1611 11.8672C62.9017 11.8672 64.3127 13.2782 64.3127 15.0188Z" fill="white"/>
<path d="M77.37 17.2726C77.37 16.5266 77.9747 15.9219 78.7207 15.9219V15.9219C79.4666 15.9219 80.0714 16.5266 80.0714 17.2726V23.1255C80.0714 23.8715 79.4666 24.4762 78.7207 24.4762V24.4762C77.9747 24.4762 77.37 23.8715 77.37 23.1255V17.2726Z" fill="white"/>
<path d="M81.8718 15.0188C81.8718 16.7593 80.4608 18.1704 78.7202 18.1704C76.9796 18.1704 75.5686 16.7593 75.5686 15.0188C75.5686 13.2782 76.9796 11.8672 78.7202 11.8672C80.4608 11.8672 81.8718 13.2782 81.8718 15.0188Z" fill="white"/>
<path d="M121.346 53.9406C118.837 53.9406 116.619 53.4477 114.692 52.4619C112.765 51.4538 111.275 50.0311 110.222 48.194C109.169 46.3568 108.643 44.1948 108.643 41.708C108.643 39.2211 109.169 37.0591 110.222 35.222C111.275 33.3624 112.765 31.9398 114.692 30.954C116.619 29.9458 118.837 29.4417 121.346 29.4417C124.595 29.4417 127.305 30.1811 129.479 31.6597V36.499C128.493 35.6701 127.361 35.0763 126.084 34.7179C124.83 34.337 123.396 34.1466 121.783 34.1466C119.341 34.1466 117.403 34.8299 115.969 36.1966C114.558 37.5408 113.852 39.3779 113.852 41.708C113.852 44.0604 114.569 45.9199 116.003 47.2866C117.436 48.6308 119.363 49.303 121.783 49.303C123.441 49.303 124.908 49.1125 126.185 48.7317C127.462 48.3284 128.65 47.6899 129.747 46.8161V51.6554C127.686 53.1789 124.886 53.9406 121.346 53.9406Z" fill="white"/>
<path d="M132.616 28.6016H137.691V39.1539C138.452 38.3698 139.315 37.7872 140.278 37.4064C141.242 37.0031 142.272 36.8015 143.37 36.8015C145.566 36.8015 147.201 37.3952 148.277 38.5826C149.374 39.7476 149.923 41.3271 149.923 43.3211V53.4365H144.849V43.8924C144.849 41.8088 143.885 40.767 141.959 40.767C141.107 40.767 140.312 40.9798 139.573 41.4055C138.833 41.8088 138.206 42.4137 137.691 43.2202V53.4365H132.616V28.6016Z" fill="white"/>
<path d="M159.307 53.9406C157.336 53.9406 155.723 53.4477 154.468 52.4619C153.236 51.4538 152.62 50.0871 152.62 48.362C152.62 46.5697 153.213 45.1806 154.401 44.1948C155.588 43.1866 157.268 42.6825 159.442 42.6825C160.405 42.6825 161.324 42.7834 162.197 42.985C163.071 43.1866 163.844 43.4667 164.516 43.8252V43.4219C164.516 42.4137 164.158 41.6744 163.441 41.2039C162.724 40.7334 161.626 40.4981 160.147 40.4981C158.176 40.4981 156.361 40.8678 154.703 41.6071V37.9105C155.42 37.5968 156.35 37.3392 157.493 37.1375C158.635 36.9135 159.778 36.8015 160.92 36.8015C163.833 36.8015 166.006 37.4064 167.44 38.6162C168.874 39.8036 169.591 41.4727 169.591 43.6235V53.4365H164.819V51.9578C163.452 53.2797 161.615 53.9406 159.307 53.9406ZM160.685 50.58C161.514 50.58 162.265 50.4232 162.937 50.1095C163.609 49.7958 164.135 49.359 164.516 48.7989V47.1858C163.374 46.424 162.119 46.0432 160.752 46.0432C159.811 46.0432 159.083 46.2448 158.568 46.6481C158.075 47.0289 157.829 47.6002 157.829 48.362C157.829 49.0789 158.075 49.6278 158.568 50.0087C159.061 50.3896 159.767 50.58 160.685 50.58Z" fill="white"/>
<path d="M178.852 53.9406C176.97 53.9406 175.536 53.4253 174.55 52.3947C173.587 51.3417 173.105 49.8855 173.105 48.0259V40.9686H170.753V37.3056H173.105V32.4663H178.179V37.3056H181.977V40.9686H178.179V47.3538C178.179 48.2948 178.359 48.9781 178.717 49.4038C179.076 49.8071 179.714 50.0087 180.633 50.0087C181.372 50.0087 182.078 49.8295 182.75 49.471V53.2685C181.719 53.7166 180.42 53.9406 178.852 53.9406Z" fill="white"/>
<path d="M192.15 53.9406C190.716 53.9406 189.294 53.8062 187.882 53.5373C186.471 53.2685 185.317 52.91 184.421 52.4619V47.9587C185.608 48.5412 186.84 48.9781 188.117 49.2694C189.394 49.5606 190.616 49.7062 191.781 49.7062C193.08 49.7062 194.066 49.4822 194.738 49.0341C195.41 48.586 195.746 47.9587 195.746 47.1522C195.746 46.5697 195.578 46.0768 195.242 45.6735C194.906 45.2702 194.413 44.9118 193.763 44.5981C193.136 44.262 192.161 43.8252 190.84 43.2875C188.644 42.3913 187.053 41.3943 186.067 40.2965C185.082 39.1763 184.589 37.7984 184.589 36.1629C184.589 34.8411 184.947 33.6761 185.664 32.6679C186.381 31.6373 187.389 30.842 188.689 30.2819C189.988 29.7218 191.489 29.4417 193.192 29.4417C194.581 29.4417 195.813 29.5537 196.889 29.7778C197.964 30.0018 199.017 30.3491 200.048 30.8196V35.1884C198.076 34.2026 196.105 33.7097 194.133 33.7097C192.878 33.7097 191.893 33.9337 191.176 34.3818C190.459 34.8075 190.1 35.4236 190.1 36.2302C190.1 36.8127 190.268 37.2944 190.604 37.6752C190.94 38.0561 191.411 38.3922 192.016 38.6834C192.621 38.9747 193.606 39.4003 194.973 39.9604C196.564 40.6326 197.807 41.2823 198.703 41.9096C199.6 42.5145 200.26 43.2426 200.686 44.094C201.112 44.923 201.325 45.9535 201.325 47.1858C201.325 49.3142 200.552 50.9721 199.006 52.1595C197.482 53.3469 195.197 53.9406 192.15 53.9406Z" fill="white"/>
<path d="M209.767 53.9406C207.885 53.9406 206.451 53.4253 205.465 52.3947C204.502 51.3417 204.02 49.8855 204.02 48.0259V40.9686H201.668V37.3056H204.02V32.4663H209.095V37.3056H212.892V40.9686H209.095V47.3538C209.095 48.2948 209.274 48.9781 209.632 49.4038C209.991 49.8071 210.629 50.0087 211.548 50.0087C212.287 50.0087 212.993 49.8295 213.665 49.471V53.2685C212.634 53.7166 211.335 53.9406 209.767 53.9406Z" fill="white"/>
<path d="M224.884 53.9406C222.935 53.9406 221.221 53.5933 219.742 52.8988C218.286 52.1819 217.154 51.1849 216.348 49.9079C215.564 48.6084 215.172 47.0962 215.172 45.371C215.172 43.6907 215.564 42.2009 216.348 40.9014C217.154 39.602 218.286 38.5938 219.742 37.8769C221.221 37.1599 222.935 36.8015 224.884 36.8015C226.811 36.8015 228.502 37.1599 229.958 37.8769C231.437 38.5938 232.569 39.602 233.353 40.9014C234.159 42.2009 234.562 43.6907 234.562 45.371C234.562 47.0962 234.159 48.6084 233.353 49.9079C232.569 51.1849 231.448 52.1819 229.992 52.8988C228.536 53.5933 226.833 53.9406 224.884 53.9406ZM224.884 49.9751C226.251 49.9751 227.337 49.5606 228.144 48.7317C228.95 47.8803 229.354 46.7601 229.354 45.371C229.354 43.9372 228.95 42.817 228.144 42.0104C227.36 41.1815 226.273 40.767 224.884 40.767C223.495 40.767 222.397 41.1815 221.591 42.0104C220.784 42.817 220.381 43.9372 220.381 45.371C220.381 46.7601 220.784 47.8803 221.591 48.7317C222.419 49.5606 223.517 49.9751 224.884 49.9751Z" fill="white"/>
<path d="M237.406 37.3056H242.312V39.6244C242.962 38.8402 243.869 38.2465 245.034 37.8433C246.199 37.4176 247.521 37.2047 249 37.2047V41.0694C247.454 41.0694 246.087 41.3047 244.9 41.7752C243.735 42.2457 242.928 42.9626 242.48 43.926V53.4365H237.406V37.3056Z" fill="white"/>
<path d="M260.432 53.9406C257.34 53.9406 254.909 53.2013 253.139 51.7226C251.369 50.2215 250.484 48.1267 250.484 45.4382C250.484 42.7722 251.269 40.6662 252.837 39.1203C254.428 37.5744 256.69 36.8015 259.625 36.8015C261.552 36.8015 263.188 37.1599 264.532 37.8769C265.876 38.5938 266.895 39.5908 267.59 40.8678C268.285 42.1224 268.632 43.5451 268.632 45.1358V47.1858H255.324C255.682 49.2469 257.609 50.2775 261.104 50.2775C262.135 50.2775 263.199 50.1879 264.297 50.0087C265.394 49.8295 266.347 49.583 267.153 49.2694V52.8316C266.369 53.1677 265.361 53.4365 264.129 53.6382C262.896 53.8398 261.664 53.9406 260.432 53.9406ZM263.826 43.8924C263.759 42.817 263.356 41.988 262.616 41.4055C261.877 40.8006 260.858 40.4981 259.558 40.4981C258.281 40.4981 257.273 40.8006 256.534 41.4055C255.794 42.0104 255.391 42.8394 255.324 43.8924H263.826Z" fill="white"/>
<path d="M278.059 53.9406C276.849 53.9406 275.55 53.8062 274.161 53.5373C272.794 53.2909 271.718 52.9324 270.934 52.4619V48.4964C271.83 49.0341 272.906 49.471 274.161 49.8071C275.415 50.1431 276.58 50.3111 277.656 50.3111C278.574 50.3111 279.246 50.2327 279.672 50.0759C280.098 49.9191 280.31 49.6278 280.31 49.2021C280.31 48.8661 280.187 48.5972 279.941 48.3956C279.694 48.1716 279.313 47.9811 278.798 47.8243C278.305 47.6451 277.476 47.3874 276.311 47.0513C274.945 46.6481 273.869 46.2448 273.085 45.8415C272.323 45.4158 271.741 44.8893 271.338 44.262C270.957 43.6347 270.766 42.8282 270.766 41.8424C270.766 40.1621 271.427 38.9075 272.749 38.0785C274.093 37.2271 275.908 36.8015 278.193 36.8015C279.313 36.8015 280.467 36.9247 281.655 37.1711C282.865 37.3952 283.794 37.6976 284.444 38.0785V41.9432C283.794 41.5175 282.943 41.1703 281.89 40.9014C280.859 40.6326 279.851 40.4981 278.865 40.4981C277.947 40.4981 277.23 40.5878 276.715 40.767C276.222 40.9462 275.975 41.2823 275.975 41.7752C275.975 42.2009 276.21 42.5257 276.681 42.7498C277.174 42.9738 278.081 43.2538 279.403 43.5899L280.075 43.7579C281.487 44.1388 282.584 44.5645 283.369 45.035C284.153 45.4831 284.702 46.032 285.015 46.6817C285.351 47.309 285.519 48.1043 285.519 49.0677C285.519 50.5464 284.881 51.7338 283.604 52.63C282.327 53.5037 280.478 53.9406 278.059 53.9406Z" fill="white"/>
<path d="M298.655 34.2148H304.205L311.986 53.7098H306.074L304.624 50.0005H298.237L296.759 53.7098H290.846L298.655 34.2148ZM303.285 45.6218L301.416 40.1554L299.548 45.6218H303.285Z" fill="white"/>
<path d="M313.656 34.2148H319.429V53.7098H313.656V34.2148Z" fill="white"/>
<defs>
<linearGradient id="paint0_linear_110_4930" x1="-155.167" y1="-39.8531" x2="-77.8071" y2="313.468" gradientUnits="userSpaceOnUse">
<stop stop-color="#FFEBA3"/>
<stop offset="0.5" stop-color="#322EF4"/>
<stop offset="1" stop-color="#5768FF"/>
</linearGradient>
</defs>
</svg>
