<svg width="79" height="78" viewBox="0 0 79 78" fill="none" xmlns="http://www.w3.org/2000/svg">
<rect x="0.304688" width="78" height="78" rx="10" fill="#FC65AD"/>
<path d="M26.0309 32.456V55.64H18.3945V32.456H26.0309ZM33.6673 55.64C32.6546 55.64 31.6834 55.2329 30.9674 54.5083C30.2513 53.7836 29.8491 52.8008 29.8491 51.776V32.456C29.8491 31.3934 30.2691 30.4274 30.9754 29.7319L43.5373 17L45.5609 19.0479C46.0763 19.5696 46.4009 20.2844 46.4009 21.0765L46.3436 21.6948L44.53 30.524H56.5763C57.589 30.524 58.5602 30.9311 59.2762 31.6557C59.9923 32.3804 60.3945 33.3632 60.3945 34.388V38.252C60.3945 38.7543 60.2991 39.218 60.1273 39.6624L54.3618 53.283C53.7891 54.674 52.4336 55.64 50.8491 55.64H33.6673ZM33.6673 51.776H50.9063L56.5763 38.252V34.388H39.7954L41.9527 24.1098L33.6673 32.514V51.776Z" fill="white"/>
</svg>
