<svg width="79" height="78" viewBox="0 0 79 78" fill="none" xmlns="http://www.w3.org/2000/svg">
<rect x="0.304688" width="78" height="78" rx="10" fill="#9F62EC"/>
<path d="M28.3945 21C24.6815 21 21.1205 22.475 18.495 25.1005C15.8695 27.726 14.3945 31.287 14.3945 35C14.3945 38.713 15.8695 42.274 18.495 44.8995C21.1205 47.525 24.6815 49 28.3945 49H30.5345C30.3447 47.6734 30.3447 46.3266 30.5345 45H28.3945C25.7424 45 23.1988 43.9464 21.3235 42.0711C19.4481 40.1957 18.3945 37.6522 18.3945 35C18.3945 32.3478 19.4481 29.8043 21.3235 27.9289C23.1988 26.0536 25.7424 25 28.3945 25H44.3945C45.8776 24.9997 47.3421 25.3293 48.6821 25.9648C50.022 26.6004 51.2038 27.526 52.1419 28.6747C53.08 29.8233 53.7508 31.1662 54.1058 32.6062C54.4608 34.0461 54.4911 35.5469 54.1945 37C55.3729 38.1554 56.3383 39.5094 57.0465 41C58.0588 38.8659 58.5147 36.5103 58.3717 34.1526C58.2288 31.7949 57.4916 29.5116 56.2288 27.5155C54.966 25.5193 53.2187 23.8751 51.1495 22.7359C49.0804 21.5967 46.7566 20.9995 44.3945 21H28.3945ZM44.3945 41C42.8032 41 41.2771 41.6321 40.1519 42.7574C39.0267 43.8826 38.3945 45.4087 38.3945 47C38.3945 48.5913 39.0267 50.1174 40.1519 51.2426C41.2771 52.3679 42.8032 53 44.3945 53C45.9858 53 47.512 52.3679 48.6372 51.2426C49.7624 50.1174 50.3945 48.5913 50.3945 47C50.3945 45.4087 49.7624 43.8826 48.6372 42.7574C47.512 41.6321 45.9858 41 44.3945 41ZM34.3945 47C34.3949 45.4408 34.7599 43.9033 35.4603 42.5103C36.1607 41.1173 37.1771 39.9074 38.4284 38.9771C39.6796 38.0469 41.1311 37.4222 42.6668 37.1528C44.2026 36.8834 45.78 36.9769 47.2732 37.4257C48.7664 37.8745 50.1339 38.6663 51.2666 39.7378C52.3993 40.8092 53.2657 42.1307 53.7967 43.5967C54.3277 45.0627 54.5086 46.6325 54.3249 48.1808C54.1411 49.7291 53.5979 51.213 52.7385 52.514L57.8085 57.586L54.9805 60.414L49.9085 55.344C48.4012 56.3403 46.6522 56.9095 44.8473 56.9913C43.0424 57.0731 41.249 56.6644 39.6578 55.8086C38.0666 54.9528 36.7369 53.6818 35.8102 52.1309C34.8835 50.5799 34.3942 48.8068 34.3945 47Z" fill="white"/>
</svg>
