<svg width="79" height="78" viewBox="0 0 79 78" fill="none" xmlns="http://www.w3.org/2000/svg">
<rect x="0.304688" width="78" height="78" rx="10" fill="#4CB670"/>
<path d="M53.0045 24.1667C51.0398 23.7267 49.0328 23.5037 47.0195 23.5017C45.1181 23.381 43.2116 23.6373 41.4096 24.256C39.6076 24.8747 37.9457 25.8435 36.5195 27.1067C34.6412 28.985 32.7803 30.8575 30.937 32.7242C28.8195 32.4967 23.797 32.3742 20.437 35.7692C20.111 36.0971 19.9281 36.5406 19.9281 37.003C19.9281 37.4653 20.111 37.9088 20.437 38.2367L40.212 58.0467C40.5399 58.3726 40.9834 58.5556 41.4457 58.5556C41.9081 58.5556 42.3516 58.3726 42.6795 58.0467C46.092 54.5467 45.987 49.6117 45.777 47.5467L51.3945 41.9467C56.977 36.3642 54.4395 25.8817 54.3345 25.4442C54.2537 25.1286 54.0864 24.8418 53.8514 24.616C53.6164 24.3903 53.3231 24.2347 53.0045 24.1667ZM48.8745 39.4792L42.6445 45.6742C42.4427 45.8779 42.2941 46.1281 42.2117 46.4028C42.1293 46.6774 42.1157 46.9681 42.172 47.2492C42.55 49.5904 42.221 51.9911 41.227 54.1442L24.3045 37.1867C26.4917 36.18 28.9368 35.8744 31.3045 36.3117C31.5846 36.3482 31.8694 36.3163 32.1345 36.2188C32.3997 36.1213 32.6373 35.961 32.827 35.7517C32.827 35.7517 35.277 33.2142 38.9695 29.5217C41.24 27.6984 44.1146 26.7985 47.0195 27.0017C48.3859 27.0085 49.7495 27.1255 51.097 27.3517C51.517 29.8542 52.182 36.1717 48.8745 39.4792Z" fill="white"/>
<path d="M43.922 38.0234C45.855 38.0234 47.422 36.4564 47.422 34.5234C47.422 32.5904 45.855 31.0234 43.922 31.0234C41.989 31.0234 40.422 32.5904 40.422 34.5234C40.422 36.4564 41.989 38.0234 43.922 38.0234Z" fill="white"/>
<path d="M25.1445 48C21.6445 49.75 21.6445 56.75 21.6445 56.75C24.8839 56.6576 27.985 55.4171 30.3945 53.25L25.1445 48Z" fill="white"/>
</svg>
