<svg width="437" height="90" viewBox="0 0 437 90" fill="none" xmlns="http://www.w3.org/2000/svg">
<rect y="56" width="437" height="28" fill="#FFD25A"/>
<path d="M34.8974 24.12V66H26.4974V24.12H34.8974ZM84.4766 32.28C88.5566 32.28 91.8366 33.54 94.3166 36.06C96.8366 38.54 98.0966 42.02 98.0966 46.5V66H89.6966V47.64C89.6966 45.04 89.0366 43.06 87.7166 41.7C86.3966 40.3 84.5966 39.6 82.3166 39.6C80.0366 39.6 78.2166 40.3 76.8566 41.7C75.5366 43.06 74.8766 45.04 74.8766 47.64V66H66.4766V47.64C66.4766 45.04 65.8166 43.06 64.4966 41.7C63.1766 40.3 61.3766 39.6 59.0966 39.6C56.7766 39.6 54.9366 40.3 53.5766 41.7C52.2566 43.06 51.5966 45.04 51.5966 47.64V66H43.1966V32.76H51.5966V36.78C52.6766 35.38 54.0566 34.28 55.7366 33.48C57.4566 32.68 59.3366 32.28 61.3766 32.28C63.9766 32.28 66.2966 32.84 68.3366 33.96C70.3766 35.04 71.9566 36.6 73.0766 38.64C74.1566 36.72 75.7166 35.18 77.7566 34.02C79.8366 32.86 82.0766 32.28 84.4766 32.28ZM103.908 49.26C103.908 45.9 104.568 42.92 105.888 40.32C107.248 37.72 109.068 35.72 111.348 34.32C113.668 32.92 116.248 32.22 119.088 32.22C121.568 32.22 123.728 32.72 125.568 33.72C127.448 34.72 128.948 35.98 130.068 37.5V32.76H138.528V66H130.068V61.14C128.988 62.7 127.488 64 125.568 65.04C123.688 66.04 121.508 66.54 119.028 66.54C116.228 66.54 113.668 65.82 111.348 64.38C109.068 62.94 107.248 60.92 105.888 58.32C104.568 55.68 103.908 52.66 103.908 49.26ZM130.068 49.38C130.068 47.34 129.668 45.6 128.868 44.16C128.068 42.68 126.988 41.56 125.628 40.8C124.268 40 122.808 39.6 121.248 39.6C119.688 39.6 118.248 39.98 116.928 40.74C115.608 41.5 114.528 42.62 113.688 44.1C112.888 45.54 112.488 47.26 112.488 49.26C112.488 51.26 112.888 53.02 113.688 54.54C114.528 56.02 115.608 57.16 116.928 57.96C118.288 58.76 119.728 59.16 121.248 59.16C122.808 59.16 124.268 58.78 125.628 58.02C126.988 57.22 128.068 56.1 128.868 54.66C129.668 53.18 130.068 51.42 130.068 49.38ZM159.752 32.22C162.232 32.22 164.412 32.72 166.292 33.72C168.172 34.68 169.652 35.94 170.732 37.5V32.76H179.192V66.24C179.192 69.32 178.572 72.06 177.332 74.46C176.092 76.9 174.232 78.82 171.752 80.22C169.272 81.66 166.272 82.38 162.752 82.38C158.032 82.38 154.152 81.28 151.112 79.08C148.112 76.88 146.412 73.88 146.012 70.08H154.352C154.792 71.6 155.732 72.8 157.172 73.68C158.652 74.6 160.432 75.06 162.512 75.06C164.952 75.06 166.932 74.32 168.452 72.84C169.972 71.4 170.732 69.2 170.732 66.24V61.08C169.652 62.64 168.152 63.94 166.232 64.98C164.352 66.02 162.192 66.54 159.752 66.54C156.952 66.54 154.392 65.82 152.072 64.38C149.752 62.94 147.912 60.92 146.552 58.32C145.232 55.68 144.572 52.66 144.572 49.26C144.572 45.9 145.232 42.92 146.552 40.32C147.912 37.72 149.732 35.72 152.012 34.32C154.332 32.92 156.912 32.22 159.752 32.22ZM170.732 49.38C170.732 47.34 170.332 45.6 169.532 44.16C168.732 42.68 167.652 41.56 166.292 40.8C164.932 40 163.472 39.6 161.912 39.6C160.352 39.6 158.912 39.98 157.592 40.74C156.272 41.5 155.192 42.62 154.352 44.1C153.552 45.54 153.152 47.26 153.152 49.26C153.152 51.26 153.552 53.02 154.352 54.54C155.192 56.02 156.272 57.16 157.592 57.96C158.952 58.76 160.392 59.16 161.912 59.16C163.472 59.16 164.932 58.78 166.292 58.02C167.652 57.22 168.732 56.1 169.532 54.66C170.332 53.18 170.732 51.42 170.732 49.38ZM191.656 28.8C190.176 28.8 188.936 28.34 187.936 27.42C186.976 26.46 186.496 25.28 186.496 23.88C186.496 22.48 186.976 21.32 187.936 20.4C188.936 19.44 190.176 18.96 191.656 18.96C193.136 18.96 194.356 19.44 195.316 20.4C196.316 21.32 196.816 22.48 196.816 23.88C196.816 25.28 196.316 26.46 195.316 27.42C194.356 28.34 193.136 28.8 191.656 28.8ZM195.796 32.76V66H187.396V32.76H195.796ZM222.515 32.28C226.475 32.28 229.675 33.54 232.115 36.06C234.555 38.54 235.775 42.02 235.775 46.5V66H227.375V47.64C227.375 45 226.715 42.98 225.395 41.58C224.075 40.14 222.275 39.42 219.995 39.42C217.675 39.42 215.835 40.14 214.475 41.58C213.155 42.98 212.495 45 212.495 47.64V66H204.095V32.76H212.495V36.9C213.615 35.46 215.035 34.34 216.755 33.54C218.515 32.7 220.435 32.28 222.515 32.28ZM274.663 48.66C274.663 49.86 274.583 50.94 274.423 51.9H250.123C250.323 54.3 251.163 56.18 252.643 57.54C254.123 58.9 255.943 59.58 258.103 59.58C261.223 59.58 263.443 58.24 264.763 55.56H273.823C272.863 58.76 271.023 61.4 268.303 63.48C265.583 65.52 262.243 66.54 258.283 66.54C255.083 66.54 252.203 65.84 249.643 64.44C247.123 63 245.143 60.98 243.703 58.38C242.303 55.78 241.603 52.78 241.603 49.38C241.603 45.94 242.303 42.92 243.703 40.32C245.103 37.72 247.063 35.72 249.583 34.32C252.103 32.92 255.003 32.22 258.283 32.22C261.443 32.22 264.263 32.9 266.743 34.26C269.263 35.62 271.203 37.56 272.563 40.08C273.963 42.56 274.663 45.42 274.663 48.66ZM265.963 46.26C265.923 44.1 265.143 42.38 263.623 41.1C262.103 39.78 260.243 39.12 258.043 39.12C255.963 39.12 254.203 39.76 252.763 41.04C251.363 42.28 250.503 44.02 250.183 46.26H265.963ZM323.591 24.12V30.9H312.431V66H304.031V30.9H292.871V24.12H323.591ZM348.44 32.28C350.96 32.28 353.2 32.84 355.16 33.96C357.12 35.04 358.64 36.66 359.72 38.82C360.84 40.94 361.4 43.5 361.4 46.5V66H353V47.64C353 45 352.34 42.98 351.02 41.58C349.7 40.14 347.9 39.42 345.62 39.42C343.3 39.42 341.46 40.14 340.1 41.58C338.78 42.98 338.12 45 338.12 47.64V66H329.72V21.6H338.12V36.9C339.2 35.46 340.64 34.34 342.44 33.54C344.24 32.7 346.24 32.28 348.44 32.28ZM373.648 28.8C372.168 28.8 370.928 28.34 369.928 27.42C368.968 26.46 368.488 25.28 368.488 23.88C368.488 22.48 368.968 21.32 369.928 20.4C370.928 19.44 372.168 18.96 373.648 18.96C375.128 18.96 376.348 19.44 377.308 20.4C378.308 21.32 378.808 22.48 378.808 23.88C378.808 25.28 378.308 26.46 377.308 27.42C376.348 28.34 375.128 28.8 373.648 28.8ZM377.788 32.76V66H369.388V32.76H377.788ZM398.807 66.54C396.087 66.54 393.647 66.06 391.487 65.1C389.327 64.1 387.607 62.76 386.327 61.08C385.087 59.4 384.407 57.54 384.287 55.5H392.747C392.907 56.78 393.527 57.84 394.607 58.68C395.727 59.52 397.107 59.94 398.747 59.94C400.347 59.94 401.587 59.62 402.467 58.98C403.387 58.34 403.847 57.52 403.847 56.52C403.847 55.44 403.287 54.64 402.167 54.12C401.087 53.56 399.347 52.96 396.947 52.32C394.467 51.72 392.427 51.1 390.827 50.46C389.267 49.82 387.907 48.84 386.747 47.52C385.627 46.2 385.067 44.42 385.067 42.18C385.067 40.34 385.587 38.66 386.627 37.14C387.707 35.62 389.227 34.42 391.187 33.54C393.187 32.66 395.527 32.22 398.207 32.22C402.167 32.22 405.327 33.22 407.687 35.22C410.047 37.18 411.347 39.84 411.587 43.2H403.547C403.427 41.88 402.867 40.84 401.867 40.08C400.907 39.28 399.607 38.88 397.967 38.88C396.447 38.88 395.267 39.16 394.427 39.72C393.627 40.28 393.227 41.06 393.227 42.06C393.227 43.18 393.787 44.04 394.907 44.64C396.027 45.2 397.767 45.78 400.127 46.38C402.527 46.98 404.507 47.6 406.067 48.24C407.627 48.88 408.967 49.88 410.087 51.24C411.247 52.56 411.847 54.32 411.887 56.52C411.887 58.44 411.347 60.16 410.267 61.68C409.227 63.2 407.707 64.4 405.707 65.28C403.747 66.12 401.447 66.54 398.807 66.54Z" fill="url(#paint0_linear_5_4520)"/>
<defs>
<linearGradient id="paint0_linear_5_4520" x1="-147.391" y1="-43.2142" x2="-64.0186" y2="340.139" gradientUnits="userSpaceOnUse">
<stop stop-color="#FFEBA3"/>
<stop offset="0.5" stop-color="#322EF4"/>
<stop offset="1" stop-color="#5768FF"/>
</linearGradient>
</defs>
</svg>
