<svg width="315" height="192" viewBox="0 0 315 192" fill="none" xmlns="http://www.w3.org/2000/svg">
<g clip-path="url(#clip0_5_2335)">
<path d="M252.18 53.7833L251.799 53.6721L251.854 53.4802L252.237 53.5914L252.18 53.7833ZM252.868 51.5795L252.491 51.4472C252.722 50.7616 252.968 50.0892 253.218 49.4499L253.587 49.5942C253.333 50.2335 253.097 50.9005 252.868 51.5795ZM254.41 47.6617L254.049 47.4963C254.349 46.8345 254.668 46.1992 254.996 45.589L255.345 45.7783C255.021 46.3805 254.707 47.0132 254.41 47.6617ZM256.41 43.9663L256.076 43.7519C256.473 43.143 256.877 42.5606 257.301 42.0061L257.616 42.2483C257.199 42.7883 256.794 43.3667 256.41 43.9663ZM273.74 41.0544C273.279 41.0547 272.822 40.9712 272.391 40.8082L272.533 40.4376C273.161 40.672 273.844 40.718 274.498 40.57L274.588 40.9565C274.31 41.0226 274.025 41.0568 273.739 41.0584L273.74 41.0544ZM258.973 40.6467L258.683 40.3741C259.171 39.8548 259.685 39.3613 260.224 38.8956L260.489 39.1961C259.958 39.6536 259.451 40.1391 258.972 40.6507L258.973 40.6467ZM276.447 39.707L276.266 39.6223L276.108 39.4992C276.372 39.0962 276.51 38.624 276.505 38.1425C276.505 37.9695 276.49 37.7968 276.46 37.6263L276.851 37.5575C276.885 37.7506 276.902 37.9464 276.902 38.1425C276.907 38.6976 276.749 39.2419 276.446 39.707H276.447ZM270.663 39.4423C270.239 38.8399 269.948 38.1541 269.809 37.4304L270.206 37.3523C270.333 38.0188 270.601 38.6505 270.991 39.2053L270.663 39.4423ZM262.139 37.9241L261.915 37.5959C262.504 37.1948 263.114 36.8262 263.743 36.492L263.93 36.8427C263.314 37.1702 262.717 37.5317 262.141 37.9254L262.139 37.9241ZM265.828 35.9639L265.68 35.5946C266.328 35.3365 267.003 35.1022 267.699 34.8984L267.811 35.2796C267.134 35.4808 266.467 35.7111 265.831 35.9652L265.828 35.9639ZM275.583 35.8421C275.294 35.5061 274.946 35.2254 274.557 35.0136C274.355 34.9087 274.144 34.8202 273.928 34.7488L274.061 34.3729C274.297 34.4526 274.527 34.5513 274.748 34.6681C275.182 34.9044 275.569 35.2185 275.889 35.5946L275.583 35.8421ZM270.169 35.3127L269.772 35.2505C269.797 35.089 269.829 34.9275 269.866 34.7647H269.843L269.762 34.3756L269.974 34.3332C270.088 33.9387 270.227 33.5518 270.391 33.1751L270.756 33.3326C270.625 33.6323 270.511 33.9389 270.413 34.2512C270.901 34.1631 271.394 34.1078 271.89 34.0857L271.906 34.4828C271.364 34.5085 270.825 34.573 270.293 34.676C270.248 34.8984 270.204 35.1089 270.171 35.318L270.169 35.3127ZM271.747 31.5008L271.411 31.289L271.581 31.0243C271.91 30.5187 272.264 30.0197 272.64 29.5405L272.952 29.7841C272.588 30.2553 272.239 30.745 271.917 31.24L271.747 31.5008ZM274.312 28.1918L274.023 27.9271C274.506 27.4135 275.021 26.9132 275.555 26.4407L275.82 26.7385C275.293 27.1951 274.787 27.6875 274.312 28.1918ZM277.451 25.4123L277.217 25.092C277.786 24.6737 278.382 24.274 278.991 23.9007L279.196 24.2409C278.601 24.6089 278.011 25.002 277.451 25.4123ZM281.038 23.2376L280.863 22.8816C281.501 22.5692 282.158 22.2807 282.818 22.0265L282.961 22.3971C282.311 22.6486 281.665 22.9319 281.038 23.2389V23.2376ZM284.951 21.734L284.842 21.3515C285.526 21.1556 286.225 20.9915 286.919 20.8605L286.992 21.2509C286.308 21.3793 285.621 21.5408 284.951 21.734ZM289.069 20.9611L289.033 20.564C289.695 20.5031 290.371 20.4727 291.031 20.4727H291.163V20.8697H291.031C290.375 20.8711 289.721 20.9015 289.068 20.9611H289.069Z" fill="#708CD5"/>
<path d="M305.839 14.8086H293.991C290.98 14.8086 288.538 17.2512 288.538 20.2644C288.538 23.2776 290.98 25.7202 293.991 25.7202H305.839C308.851 25.7202 311.292 23.2776 311.292 20.2644C311.292 17.2512 308.851 14.8086 305.839 14.8086Z" fill="#D3DFFF"/>
<path d="M294.558 21.6545C295.325 21.6545 295.947 21.0323 295.947 20.2648C295.947 19.4972 295.325 18.875 294.558 18.875C293.79 18.875 293.169 19.4972 293.169 20.2648C293.169 21.0323 293.79 21.6545 294.558 21.6545Z" fill="white"/>
<path d="M299.915 21.6545C300.683 21.6545 301.304 21.0323 301.304 20.2648C301.304 19.4972 300.683 18.875 299.915 18.875C299.148 18.875 298.526 19.4972 298.526 20.2648C298.526 21.0323 299.148 21.6545 299.915 21.6545Z" fill="white"/>
<path d="M305.273 21.6545C306.04 21.6545 306.662 21.0323 306.662 20.2648C306.662 19.4972 306.04 18.875 305.273 18.875C304.506 18.875 303.884 19.4972 303.884 20.2648C303.884 21.0323 304.506 21.6545 305.273 21.6545Z" fill="white"/>
<path d="M45.02 105.576C44.4353 105.186 43.8492 104.792 43.2619 104.396L43.4841 104.067C44.0697 104.463 44.6553 104.856 45.2409 105.246L45.02 105.576ZM41.5103 103.206C40.9283 102.808 40.3471 102.407 39.7668 102.003L39.993 101.678C40.5724 102.081 41.1527 102.482 41.7339 102.879L41.5103 103.206ZM38.0364 100.78C37.4605 100.369 36.8872 99.953 36.3166 99.5321L36.5521 99.2132C37.1192 99.6323 37.6894 100.047 38.2626 100.457L38.0364 100.78ZM34.626 98.2655C34.0642 97.834 33.5068 97.3976 32.9538 96.9564L33.2025 96.6467C33.752 97.0879 34.3067 97.522 34.8667 97.9491L34.626 98.2655ZM31.3187 95.6183C30.7763 95.1612 30.2405 94.6984 29.7114 94.2298L29.976 93.9334C30.5051 94.4002 31.0382 94.8603 31.5753 95.3139L31.3187 95.6183ZM28.1437 92.7964C27.6265 92.3093 27.1158 91.809 26.6224 91.3127L26.9042 91.0334C27.3936 91.5271 27.9016 92.0234 28.4163 92.5079L28.1437 92.7964ZM25.1566 89.7747C24.6738 89.2452 24.2015 88.7158 23.753 88.1771L24.056 87.9216C24.5018 88.4511 24.9701 88.9805 25.449 89.5099L25.1566 89.7747ZM22.4209 86.5186C21.9856 85.9521 21.5649 85.3724 21.1694 84.798L21.4962 84.573C21.893 85.1421 22.3044 85.7152 22.7357 86.2778L22.4209 86.5186ZM20.0092 83.0164C19.6362 82.4076 19.279 81.7868 18.9509 81.1714L19.3001 80.9834C19.6269 81.5923 19.9788 82.2064 20.3492 82.8086L20.0092 83.0164ZM17.9891 79.2548C17.6915 78.6089 17.4124 77.9498 17.1584 77.2946L17.5274 77.1503C17.7788 77.7989 18.0566 78.4501 18.349 79.088L17.9891 79.2548ZM16.4559 75.2841C16.2456 74.6104 16.059 73.9181 15.891 73.2285L16.2773 73.1372C16.44 73.8175 16.6279 74.5005 16.8342 75.1649L16.4559 75.2841ZM15.4756 71.1412C15.3579 70.4437 15.2613 69.7343 15.1899 69.0235L15.5868 68.9838C15.6582 69.68 15.7534 70.3815 15.8685 71.0698L15.4756 71.1412ZM15.0417 66.9058C15.0272 66.4928 15.0192 66.0812 15.0192 65.6669C15.0192 65.3704 15.0192 65.0726 15.0311 64.7761L15.428 64.7867C15.4201 65.0805 15.4161 65.3739 15.4161 65.6669C15.4161 66.0763 15.4236 66.4844 15.4386 66.8912L15.0417 66.9058ZM15.5497 62.6849L15.1528 62.6491C15.2163 61.9463 15.3023 61.2355 15.4174 60.5314L15.8143 60.5923C15.6966 61.2805 15.6079 61.99 15.5471 62.6835L15.5497 62.6849ZM16.1926 58.5275L15.805 58.4414C15.9585 57.7505 16.1344 57.0557 16.3342 56.3767L16.7152 56.4878C16.5154 57.1562 16.3408 57.8392 16.19 58.5262L16.1926 58.5275ZM17.3594 54.4853L16.9864 54.3529C17.2258 53.6911 17.4904 53.02 17.7735 52.3741L18.1373 52.533C17.8568 53.167 17.5923 53.8248 17.3568 54.4839L17.3594 54.4853ZM19.0422 50.631L18.689 50.447C19.017 49.817 19.3676 49.1922 19.734 48.594L20.0727 48.8005C19.7089 49.3895 19.3623 50.0062 19.0395 50.6297L19.0422 50.631ZM21.2289 47.0401L20.8995 46.8085C21.307 46.234 21.7409 45.6636 22.1894 45.113L22.4963 45.3644C22.0557 45.9071 21.6284 46.471 21.2263 47.0388L21.2289 47.0401ZM23.8853 43.7814L23.5956 43.5167C24.0758 43.0032 24.5825 42.4949 25.0997 42.0091L25.3709 42.299C24.8576 42.7715 24.3576 43.2718 23.8827 43.7801L23.8853 43.7814ZM26.9478 40.8973L26.6965 40.5903C27.2402 40.1416 27.8077 39.7048 28.3819 39.2892L28.6134 39.6121C28.0432 40.0251 27.4863 40.4579 26.9478 40.8973ZM30.3583 38.4341L30.1466 38.098C30.7446 37.7221 31.3637 37.3594 31.9841 37.0219L32.1733 37.37C31.5608 37.7088 30.9536 38.0662 30.3583 38.4381V38.4341ZM34.0518 36.4236L33.8851 36.0636C34.5281 35.7645 35.1882 35.4839 35.843 35.2284L35.9872 35.599C35.339 35.8545 34.6881 36.1324 34.0518 36.4276V36.4236ZM71.5733 35.7208H71.4992V35.3237H71.5733C72.2705 35.3237 72.9531 35.3052 73.6026 35.2668L73.6264 35.6639C72.9689 35.7062 72.2771 35.7248 71.5733 35.7248V35.7208ZM69.3733 35.6639C68.6946 35.6295 68.0014 35.5818 67.2566 35.5156L67.291 35.1186C68.0345 35.1834 68.7237 35.2324 69.3971 35.2655L69.3733 35.6639ZM75.747 35.4706L75.6954 35.0736C76.4019 34.9809 77.0977 34.8591 77.7631 34.7135L77.8478 35.1014C77.1718 35.2496 76.4614 35.3727 75.747 35.4706ZM65.14 35.3065C64.4398 35.2253 63.7382 35.1371 63.0353 35.0418L63.0869 34.6447C63.7893 34.7374 64.4878 34.8261 65.185 34.9094L65.14 35.3065ZM37.9716 34.9094L37.8512 34.5322C38.5272 34.3178 39.2164 34.1246 39.9017 33.9565L39.9969 34.3416C39.3196 34.5018 38.6383 34.6924 37.9716 34.9028V34.9094ZM60.9358 34.7572L58.839 34.4581L58.8946 34.061L60.9914 34.3602L60.9358 34.7572ZM79.9089 34.5441L79.7885 34.1656C80.4537 33.9518 81.1076 33.7044 81.7477 33.4244L81.9065 33.787C81.2539 34.0732 80.5872 34.3258 79.9089 34.5441ZM56.7502 34.1603C56.0517 34.0663 55.3519 33.9763 54.6534 33.8956L54.6997 33.4985C55.4008 33.5806 56.1019 33.6706 56.8031 33.7632L56.7502 34.1603ZM42.066 33.8956L41.9972 33.5051C42.6983 33.382 43.4074 33.2828 44.1059 33.2086L44.1482 33.6057C43.4457 33.6825 42.7459 33.7817 42.054 33.9022L42.066 33.8956ZM52.5592 33.6653C51.8157 33.5978 51.1278 33.5448 50.4558 33.5064L50.4796 33.1094C51.1556 33.1491 51.8475 33.202 52.5963 33.2708L52.5592 33.6653ZM46.2463 33.4535L46.2304 33.0564C46.9369 33.0286 47.646 33.022 48.3563 33.0313V33.4284C47.6354 33.4257 46.9329 33.4323 46.2344 33.4601L46.2463 33.4535Z" fill="#708CD5"/>
<path d="M218.636 149.964V149.567C219.328 149.567 220.036 149.541 220.74 149.499L220.764 149.896C220.052 149.937 219.335 149.964 218.636 149.964ZM216.51 149.908C215.807 149.871 215.094 149.81 214.394 149.731L214.439 149.334C215.135 149.413 215.84 149.474 216.536 149.511L216.51 149.908ZM222.883 149.709L222.838 149.312C223.526 149.232 224.227 149.132 224.923 149.013L224.989 149.41C224.286 149.527 223.579 149.627 222.883 149.708V149.709ZM212.284 149.424C211.584 149.299 210.883 149.152 210.2 148.985L210.294 148.6C210.969 148.764 211.662 148.91 212.352 149.032L212.284 149.424ZM227.074 148.995L226.988 148.607C227.234 148.551 227.479 148.493 227.726 148.434C228.161 148.325 228.595 148.211 229.029 148.091L229.136 148.473C228.695 148.595 228.256 148.71 227.82 148.819C227.571 148.876 227.322 148.934 227.074 148.993V148.995ZM208.148 148.415C207.47 148.203 206.794 147.966 206.138 147.712L206.282 147.342C206.929 147.593 207.597 147.826 208.266 148.036L208.148 148.415ZM231.167 147.858L231.044 147.481C231.705 147.263 232.367 147.028 233.028 146.782L233.16 147.152C232.511 147.401 231.836 147.638 231.169 147.856L231.167 147.858ZM204.18 146.877C203.541 146.578 202.902 146.252 202.281 145.909L202.473 145.561C203.086 145.9 203.717 146.223 204.348 146.517L204.18 146.877ZM235.147 146.365L234.994 145.999C235.632 145.735 236.28 145.441 236.92 145.142L237.088 145.502C236.441 145.802 235.789 146.092 235.146 146.363L235.147 146.365ZM200.453 144.814C199.859 144.428 199.272 144.019 198.705 143.593L198.944 143.276C199.502 143.695 200.083 144.1 200.663 144.48L200.453 144.814ZM238.997 144.569L238.816 144.215C239.432 143.902 240.059 143.568 240.678 143.225L240.872 143.573C240.246 143.916 239.615 144.251 238.996 144.567L238.997 144.569ZM242.713 142.518L242.511 142.177C243.115 141.818 243.715 141.45 244.312 141.074L244.524 141.411C243.924 141.788 243.319 142.157 242.712 142.517L242.713 142.518ZM197.047 142.254C196.517 141.794 195.988 141.305 195.487 140.798L195.769 140.517C196.265 141.016 196.782 141.499 197.306 141.952L197.047 142.254ZM246.303 140.251L246.084 139.922C246.667 139.531 247.248 139.134 247.826 138.73L248.054 139.055C247.473 139.462 246.889 139.862 246.302 140.254L246.303 140.251ZM194.036 139.243C193.577 138.713 193.125 138.156 192.696 137.587L193.012 137.347C193.436 137.908 193.882 138.459 194.335 138.982L194.036 139.243ZM249.775 137.818L249.541 137.498C250.107 137.082 250.67 136.658 251.23 136.229L251.472 136.544C250.91 136.974 250.344 137.399 249.775 137.817V137.818ZM191.463 135.85C191.066 135.261 190.693 134.651 190.338 134.041L190.682 133.841C191.033 134.446 191.406 135.048 191.793 135.632L191.463 135.85ZM253.143 135.239L252.895 134.928C253.446 134.486 253.993 134.045 254.539 133.604L254.79 133.91C254.244 134.355 253.695 134.797 253.143 135.237V135.239ZM189.323 132.168C189.007 131.541 188.703 130.892 188.42 130.24L188.784 130.081C189.064 130.727 189.366 131.369 189.678 131.988L189.323 132.168ZM187.629 128.257C187.384 127.595 187.157 126.913 186.951 126.24L187.331 126.123C187.534 126.785 187.758 127.461 188.001 128.12L187.629 128.257ZM186.395 124.188C186.228 123.501 186.08 122.8 185.955 122.105L186.346 122.035C186.469 122.722 186.61 123.415 186.779 124.095L186.395 124.188ZM185.64 119.999C185.557 119.29 185.494 118.576 185.455 117.881L185.852 117.859C185.892 118.55 185.953 119.255 186.036 119.955L185.64 119.999ZM185.799 115.75H185.402C185.402 115.038 185.437 114.321 185.488 113.622L185.885 113.651C185.831 114.339 185.802 115.047 185.797 115.75H185.799ZM186.111 111.556L185.715 111.499C185.815 110.797 185.942 110.092 186.092 109.402L186.479 109.486C186.334 110.166 186.208 110.864 186.109 111.556H186.111Z" fill="#708CD5"/>
<path d="M90.9406 156.764C91.7077 156.764 92.3296 156.142 92.3296 155.374C92.3296 154.607 91.7077 153.984 90.9406 153.984C90.1734 153.984 89.5515 154.607 89.5515 155.374C89.5515 156.142 90.1734 156.764 90.9406 156.764Z" fill="#D3DFFF"/>
<path d="M96.2983 156.764C97.0654 156.764 97.6873 156.142 97.6873 155.374C97.6873 154.607 97.0654 153.984 96.2983 153.984C95.5311 153.984 94.9092 154.607 94.9092 155.374C94.9092 156.142 95.5311 156.764 96.2983 156.764Z" fill="#D3DFFF"/>
<path d="M101.656 156.764C102.423 156.764 103.045 156.142 103.045 155.374C103.045 154.607 102.423 153.984 101.656 153.984C100.889 153.984 100.267 154.607 100.267 155.374C100.267 156.142 100.889 156.764 101.656 156.764Z" fill="#D3DFFF"/>
<path d="M29.161 24.7324C29.1332 24.7814 29.1015 24.833 29.0724 24.878H28.9017C16.7218 24.8012 18.8106 14.4362 24.6486 16.955C25.564 10.6614 35.4818 14.3158 29.161 24.7324Z" fill="#D3DFFF"/>
<path d="M176.913 117.219H134.701V190.81H176.913V117.219Z" fill="#708CD5"/>
<path opacity="0.3" d="M176.913 117.219H134.701V152.466H176.913V117.219Z" fill="#1F3C88"/>
<path d="M164.783 135.821C165.575 130.594 161.981 125.715 156.757 124.923C151.532 124.131 146.655 127.726 145.864 132.953C145.072 138.181 148.666 143.06 153.89 143.852C159.115 144.644 163.992 141.049 164.783 135.821Z" fill="white"/>
<path d="M123.33 184.07H188.285C189.168 184.07 190.015 184.421 190.639 185.046C191.264 185.671 191.615 186.518 191.615 187.402V190.777H120.001V187.402C120.001 186.518 120.352 185.671 120.976 185.046C121.6 184.421 122.447 184.07 123.33 184.07Z" fill="#1F3C88"/>
<path d="M254.824 0H56.7899V134.46H254.824V0Z" fill="#D3DFFF"/>
<path d="M247.11 6.01562H64.5037V125.789H247.11V6.01562Z" fill="white"/>
<path d="M99.0949 36.7577L102.829 44.3286C102.878 44.4273 102.95 44.5127 103.039 44.5775C103.128 44.6422 103.231 44.6845 103.34 44.7005L111.692 45.9142C111.817 45.9324 111.934 45.9852 112.031 46.0667C112.127 46.1481 112.199 46.255 112.238 46.3752C112.277 46.4954 112.282 46.6241 112.252 46.7468C112.222 46.8696 112.158 46.9814 112.067 47.0697L106.023 52.9636C105.945 53.0405 105.886 53.1352 105.852 53.2396C105.818 53.344 105.81 53.455 105.828 53.5632L107.255 61.8859C107.276 62.0104 107.262 62.1384 107.214 62.2554C107.167 62.3724 107.088 62.4738 106.985 62.5481C106.883 62.6224 106.763 62.6667 106.637 62.676C106.511 62.6853 106.385 62.6592 106.273 62.6007L98.8025 58.6709C98.7052 58.62 98.5969 58.5934 98.487 58.5934C98.3771 58.5934 98.2689 58.62 98.1715 58.6709L90.7024 62.6059C90.5905 62.6649 90.4644 62.6913 90.3382 62.6822C90.2121 62.673 90.0911 62.6288 89.9888 62.5544C89.8865 62.48 89.8071 62.3785 89.7595 62.2613C89.7119 62.1441 89.698 62.0159 89.7195 61.8912L91.1456 53.5632C91.1644 53.455 91.1565 53.3438 91.1226 53.2393C91.0887 53.1348 91.0298 53.0402 90.9511 52.9636L84.9081 47.0697C84.8177 46.9815 84.7538 46.8698 84.7235 46.7471C84.6933 46.6245 84.6979 46.4959 84.7368 46.3757C84.7757 46.2555 84.8475 46.1487 84.9439 46.0671C85.0403 45.9856 85.1576 45.9326 85.2825 45.9142L93.6353 44.7005C93.744 44.6845 93.8471 44.6422 93.9358 44.5774C94.0246 44.5127 94.0962 44.4272 94.1446 44.3286L97.8792 36.7577C97.935 36.644 98.0215 36.5483 98.129 36.4813C98.2364 36.4144 98.3605 36.3789 98.487 36.3789C98.6136 36.3789 98.7376 36.4144 98.8451 36.4813C98.9525 36.5483 99.0391 36.644 99.0949 36.7577Z" fill="#FBC343"/>
<path d="M138.599 36.7576L142.334 44.3285C142.383 44.4272 142.455 44.5126 142.544 44.5774C142.632 44.6422 142.736 44.6844 142.845 44.7004L151.196 45.9142C151.321 45.9323 151.439 45.9852 151.535 46.0666C151.632 46.1481 151.704 46.2549 151.743 46.3751C151.782 46.4953 151.786 46.6241 151.756 46.7468C151.726 46.8695 151.662 46.9813 151.572 47.0696L145.527 52.9636C145.449 53.0405 145.391 53.1351 145.357 53.2395C145.323 53.3439 145.315 53.4549 145.333 53.5631L146.759 61.8858C146.781 62.0102 146.768 62.1382 146.721 62.2555C146.674 62.3727 146.595 62.4745 146.494 62.5494C146.392 62.6243 146.271 62.6692 146.146 62.6792C146.02 62.6892 145.894 62.6638 145.781 62.6059L138.311 58.6762C138.214 58.6252 138.105 58.5987 137.996 58.5987C137.886 58.5987 137.777 58.6252 137.68 58.6762L130.207 62.6059C130.095 62.6648 129.969 62.6912 129.843 62.6821C129.717 62.673 129.596 62.6287 129.493 62.5544C129.391 62.48 129.312 62.3784 129.264 62.2612C129.216 62.144 129.203 62.0158 129.224 61.8911L130.65 53.5684C130.669 53.4602 130.661 53.349 130.627 53.2445C130.593 53.1401 130.534 53.0454 130.456 52.9689L124.413 47.0749C124.322 46.9867 124.258 46.875 124.228 46.7524C124.198 46.6297 124.202 46.5011 124.241 46.3809C124.28 46.2608 124.352 46.1539 124.448 46.0723C124.545 45.9908 124.662 45.9378 124.787 45.9194L133.14 44.7057C133.248 44.6897 133.352 44.6475 133.44 44.5827C133.529 44.5179 133.601 44.4325 133.649 44.3338L137.385 36.7629C137.44 36.6493 137.527 36.5536 137.634 36.4864C137.741 36.4193 137.864 36.3834 137.991 36.3828C138.117 36.3823 138.241 36.4171 138.348 36.4833C138.456 36.5495 138.543 36.6445 138.599 36.7576Z" fill="#FBC343"/>
<path d="M178.104 36.7576L181.838 44.3285C181.887 44.4272 181.959 44.5126 182.048 44.5774C182.137 44.6422 182.24 44.6844 182.349 44.7004L190.701 45.9142C190.826 45.9323 190.943 45.9852 191.04 46.0666C191.136 46.1481 191.208 46.2549 191.247 46.3751C191.286 46.4953 191.291 46.6241 191.261 46.7468C191.231 46.8695 191.167 46.9813 191.076 47.0696L185.032 52.9636C184.954 53.0405 184.895 53.1351 184.861 53.2395C184.827 53.3439 184.819 53.4549 184.837 53.5631L186.262 61.8858C186.283 62.0104 186.269 62.1383 186.221 62.2553C186.173 62.3722 186.094 62.4735 185.992 62.5477C185.89 62.622 185.769 62.6663 185.643 62.6756C185.517 62.6849 185.391 62.659 185.279 62.6006L177.809 58.6709C177.711 58.6199 177.603 58.5934 177.493 58.5934C177.383 58.5934 177.275 58.6199 177.178 58.6709L169.711 62.6059C169.599 62.6648 169.473 62.6912 169.347 62.6821C169.221 62.673 169.1 62.6287 168.998 62.5544C168.895 62.48 168.816 62.3784 168.768 62.2612C168.721 62.144 168.707 62.0158 168.728 61.8911L170.155 53.5684C170.173 53.4602 170.165 53.349 170.132 53.2445C170.098 53.1401 170.039 53.0454 169.96 52.9689L163.917 47.0749C163.827 46.9866 163.763 46.8748 163.733 46.7521C163.702 46.6293 163.707 46.5006 163.746 46.3804C163.785 46.2602 163.857 46.1534 163.954 46.0719C164.05 45.9904 164.168 45.9376 164.293 45.9194L172.644 44.7057C172.753 44.6897 172.856 44.6475 172.945 44.5827C173.034 44.5179 173.105 44.4325 173.154 44.3338L176.889 36.7629C176.945 36.6493 177.031 36.5536 177.138 36.4864C177.245 36.4193 177.369 36.3834 177.495 36.3828C177.621 36.3823 177.745 36.4171 177.853 36.4833C177.96 36.5495 178.047 36.6445 178.104 36.7576Z" fill="#FBC343"/>
<path d="M183.497 18.0781H128.115V24.3016H183.497V18.0781Z" fill="#708CD5"/>
<path d="M183.497 79.1797H128.115V82.0175H183.497V79.1797Z" fill="#D3DFFF"/>
<path d="M221.031 91.8594H90.5834C89.4341 91.8594 88.5024 92.7915 88.5024 93.9414V112.878C88.5024 114.028 89.4341 114.96 90.5834 114.96H221.031C222.18 114.96 223.112 114.028 223.112 112.878V93.9414C223.112 92.7915 222.18 91.8594 221.031 91.8594Z" fill="white"/>
<path d="M221.029 115.226H90.5834C89.9608 115.226 89.3638 114.979 88.9235 114.539C88.4831 114.098 88.2356 113.501 88.2352 112.878V93.9431C88.2352 93.32 88.4826 92.7225 88.923 92.2819C89.3634 91.8413 89.9606 91.5938 90.5834 91.5938H221.029C221.651 91.5944 222.248 91.8419 222.688 92.2818C223.128 92.7217 223.375 93.3182 223.376 93.9405V112.878C223.376 113.501 223.128 114.098 222.688 114.538C222.248 114.978 221.652 115.226 221.029 115.226ZM90.5834 92.1232C90.101 92.1232 89.6383 92.3149 89.2972 92.6562C88.956 92.9975 88.7644 93.4604 88.7644 93.9431V112.878C88.7647 113.36 88.9562 113.822 89.2967 114.163C89.6372 114.504 90.099 114.696 90.5807 114.697H221.027C221.509 114.697 221.971 114.505 222.312 114.164C222.652 113.823 222.844 113.361 222.844 112.878V93.9431C222.844 93.4611 222.653 92.9988 222.313 92.6576C221.973 92.3164 221.511 92.1242 221.029 92.1232H90.5834Z" fill="#708CD5"/>
<path d="M216.131 98.2031H95.4821V98.7326H216.131V98.2031Z" fill="#708CD5"/>
<path d="M183.852 102.969H95.4821V103.498H183.852V102.969Z" fill="#708CD5"/>
<path d="M164.097 108.086H95.4821V108.615H164.097V108.086Z" fill="#708CD5"/>
<path d="M39.7429 180.567L39.1423 190.782H23.4963L29.9521 185.675L32.115 180.344L39.7429 180.567Z" fill="#D3DFFF"/>
<path d="M30.0595 185.425L29.8474 185.91L33.9957 187.727L34.2078 187.242L30.0595 185.425Z" fill="#102048"/>
<path d="M57.6471 114.695L56.9327 117.607L53.4826 131.722L41.1584 182.071H29.4481L39.6292 120.942L40.7087 114.473L52.8741 114.631L57.6471 114.695Z" fill="#1F3C88"/>
<path d="M57.2343 180.569L57.8349 190.783H73.4822L67.0264 185.677L65.6744 180.418L57.2343 180.569Z" fill="#D3DFFF"/>
<path d="M66.9363 185.424L62.7599 187.062L62.9531 187.555L67.1295 185.917L66.9363 185.424Z" fill="#102048"/>
<path d="M67.7329 182.177H55.2712L53.4826 131.722L53.0064 118.364L52.8741 114.631L52.8688 114.473L61.4518 114.563L66.8333 114.621L67.7329 182.177Z" fill="#1F3C88"/>
<path d="M50.5867 145.717L50.0668 145.617L53.6294 127.088L58.2133 126.172L58.3164 126.691L54.0818 127.538L50.5867 145.717Z" fill="white"/>
<path d="M52.2205 80.9727L68.6364 84.0778L67.7011 88.0896L69.2132 114.205C69.2162 114.554 69.1498 114.9 69.0181 115.223C68.8863 115.546 68.6916 115.84 68.4455 116.087C68.1993 116.334 67.9065 116.53 67.5841 116.663C67.2617 116.796 66.9161 116.863 66.5674 116.862L42.0818 116.739C41.7287 116.737 41.3797 116.664 41.0554 116.524C40.7311 116.384 40.4382 116.181 40.1941 115.926C39.9501 115.67 39.7599 115.369 39.6349 115.038C39.5099 114.708 39.4526 114.356 39.4664 114.003L39.0391 90.4283L52.2205 80.9727Z" fill="#EE6F57"/>
<path d="M71.1619 78.8381C69.7609 77.9368 70.1604 73.6298 69.0598 73.6762C67.9591 73.7225 67.8586 76.731 68.0094 77.3319C68.1602 77.9328 68.4592 79.7858 68.4592 79.7858L71.1619 78.8381Z" fill="#FFBC96"/>
<path d="M61.3512 93.1191L77.226 96.5604C81.4593 97.3546 84.4239 97.5386 87.2801 95.3599L64.7563 84.3438L61.3512 93.1191Z" fill="#EE6F57"/>
<path d="M33.0028 103.054L41.3106 94.6929L52.2206 80.9727L41.2854 83.6873C39.7371 84.0721 38.3404 84.9143 37.2771 86.1042L23.2808 101.782C22.1391 103.354 22.2052 105.643 23.8708 107.237L31.0634 111.982L36.4053 105.684L33.0028 103.054Z" fill="#EE6F57"/>
<path d="M71.1619 78.8383C67.0609 76.6346 66.2579 76.5353 64.8556 78.0362C63.9923 78.9811 63.3605 80.114 63.0101 81.3452C62.9082 81.7691 62.933 82.2136 63.0814 82.6235C63.2298 83.0334 63.4953 83.3907 63.8449 83.6509L64.7564 84.3484L69.499 87.3569L74.0802 80.6305C72.8896 79.8509 71.8736 79.2208 71.1619 78.8383Z" fill="#FFBC96"/>
<path d="M86.948 89.6756C83.7149 87.321 77.9616 83.1755 74.0775 80.6289L69.499 87.3554L82.7875 95.7892C83.5976 96.2645 84.5579 96.4141 85.4741 96.2078C86.3903 96.0016 87.194 95.4549 87.7226 94.6783C88.2512 93.9017 88.4652 92.9532 88.3214 92.0247C88.1777 91.0962 87.6868 90.257 86.948 89.6769V89.6756Z" fill="#EE6F57"/>
<path d="M44.5636 107.89C48.3669 105.787 44.213 105.662 39.1595 107.815L36.4052 105.688L31.0634 111.985L34.6101 114.325C35.1863 114.706 35.8494 114.934 36.5375 114.989C37.2257 115.044 37.9166 114.923 38.5457 114.639C40.0538 113.956 41.9455 113.127 42.562 112.973C43.963 112.622 47.0162 112.472 46.2661 111.571L44.9644 111.22C44.9644 111.22 47.4171 110.569 47.0665 110.018C46.7159 109.468 44.2381 109.595 44.2381 109.595C44.2381 109.595 47.4422 108.569 47.5163 107.842C47.5758 107.272 44.5636 107.89 44.5636 107.89Z" fill="#FFBC96"/>
<path d="M40.71 109.096C40.6749 109.1 40.6394 109.091 40.6114 109.069C40.5834 109.048 40.5651 109.016 40.5605 108.981C40.5559 108.946 40.5655 108.91 40.5871 108.882C40.6087 108.854 40.6405 108.836 40.6756 108.831L45.229 107.579C45.2458 107.574 45.2633 107.573 45.2806 107.575C45.2978 107.577 45.3145 107.583 45.3296 107.592C45.3447 107.6 45.358 107.612 45.3686 107.625C45.3793 107.639 45.3871 107.655 45.3917 107.672C45.4011 107.705 45.3968 107.741 45.3797 107.772C45.3626 107.802 45.3341 107.825 45.3005 107.834L40.7431 109.092L40.71 109.096Z" fill="#E8947D"/>
<path d="M41.0076 112.004C40.9725 112.006 40.9378 111.995 40.911 111.972C40.8842 111.949 40.8675 111.917 40.8647 111.882C40.8619 111.847 40.8732 111.812 40.896 111.785C40.9188 111.758 40.9514 111.742 40.9864 111.739L44.9406 111.088C44.958 111.085 44.9757 111.086 44.9928 111.09C45.01 111.094 45.0261 111.101 45.0403 111.111C45.0546 111.122 45.0667 111.135 45.0759 111.15C45.0851 111.165 45.0913 111.181 45.0941 111.199C45.0968 111.216 45.0962 111.234 45.0921 111.251C45.088 111.268 45.0806 111.284 45.0703 111.299C45.06 111.313 45.0469 111.325 45.0319 111.334C45.017 111.343 45.0003 111.35 44.9829 111.352L41.0301 112.002L41.0076 112.004Z" fill="#E8947D"/>
<path d="M41.1611 110.349C41.126 110.352 41.0912 110.341 41.0643 110.318C41.0373 110.296 41.0205 110.263 41.0176 110.228C41.0146 110.193 41.0257 110.158 41.0484 110.131C41.0711 110.104 41.1035 110.087 41.1386 110.084L44.7422 109.482C44.7594 109.479 44.777 109.48 44.794 109.484C44.8109 109.488 44.827 109.495 44.8411 109.506C44.8552 109.516 44.8672 109.529 44.8764 109.543C44.8855 109.558 44.8916 109.575 44.8943 109.592C44.9001 109.627 44.8919 109.662 44.8715 109.691C44.8512 109.719 44.8204 109.738 44.7859 109.744L41.1823 110.345L41.1611 110.349Z" fill="#E8947D"/>
<path d="M79.0781 94.071C79.0384 94.0712 78.9996 94.0592 78.967 94.0366L69.3879 87.5206C69.3475 87.4899 69.3204 87.4448 69.3122 87.3947C69.304 87.3446 69.3153 87.2933 69.3437 87.2512C69.3722 87.2092 69.4156 87.1797 69.4652 87.1687C69.5147 87.1578 69.5666 87.1662 69.6101 87.1924L79.1906 93.711C79.2257 93.7349 79.2522 93.7695 79.2662 93.8096C79.2802 93.8498 79.281 93.8934 79.2684 93.934C79.2558 93.9746 79.2305 94.0101 79.1963 94.0352C79.162 94.0604 79.1206 94.0738 79.0781 94.0737V94.071Z" fill="#6F3428"/>
<path d="M68.4949 104.395C68.4445 104.395 68.3961 104.376 68.3595 104.341C68.3229 104.306 68.3008 104.259 68.2978 104.209L67.4154 90.0899C67.4125 90.0375 67.4303 89.9861 67.4649 89.9467C67.4996 89.9074 67.5483 89.8832 67.6006 89.8795C67.6268 89.8775 67.653 89.8808 67.6779 89.8892C67.7027 89.8975 67.7256 89.9108 67.7453 89.9282C67.7649 89.9456 67.7808 89.9668 67.7921 89.9905C67.8034 90.0142 67.8098 90.0399 67.811 90.0661L68.6933 104.185C68.6962 104.237 68.6784 104.288 68.6437 104.327C68.609 104.367 68.5603 104.39 68.5081 104.394L68.4949 104.395Z" fill="#6F3428"/>
<path d="M39.3911 101.747C39.3391 101.747 39.2892 101.727 39.2521 101.69C39.215 101.654 39.1937 101.605 39.1926 101.553L39.0167 92.0228C39.016 91.9967 39.0205 91.9707 39.0299 91.9463C39.0393 91.922 39.0535 91.8997 39.0716 91.8809C39.0897 91.862 39.1113 91.847 39.1353 91.8366C39.1592 91.8262 39.185 91.8207 39.2111 91.8203C39.2634 91.8206 39.3135 91.841 39.3512 91.8772C39.3888 91.9134 39.4112 91.9627 39.4135 92.0149L39.5895 101.545C39.59 101.571 39.5854 101.597 39.5759 101.621C39.5664 101.645 39.5522 101.667 39.5342 101.686C39.5161 101.705 39.4945 101.72 39.4707 101.731C39.4468 101.741 39.4211 101.747 39.395 101.747H39.3911Z" fill="#6F3428"/>
<path d="M28.9851 103.774C28.959 103.776 28.9328 103.773 28.9081 103.764C28.8834 103.756 28.8605 103.743 28.8409 103.726C28.8212 103.708 28.8051 103.687 28.7936 103.664C28.782 103.641 28.7751 103.615 28.7734 103.589C28.7717 103.563 28.7751 103.537 28.7834 103.512C28.7918 103.487 28.805 103.464 28.8222 103.445C28.8394 103.425 28.8603 103.409 28.8837 103.397C28.9071 103.386 28.9325 103.379 28.9586 103.377L32.9776 102.857C33.0036 102.854 33.0301 102.856 33.0555 102.862C33.0808 102.869 33.1046 102.881 33.1254 102.897C33.1463 102.913 33.1637 102.933 33.1768 102.956C33.1899 102.979 33.1984 103.004 33.2018 103.03C33.2052 103.056 33.2034 103.082 33.1966 103.108C33.1897 103.133 33.178 103.157 33.1619 103.178C33.1459 103.199 33.1259 103.216 33.1031 103.229C33.0804 103.242 33.0552 103.251 33.0292 103.254L29.0102 103.768L28.9851 103.774Z" fill="#6F3428"/>
<path d="M53.9046 88.7805C52.5539 88.7805 51.1569 88.1081 49.7507 86.7793C49.7137 86.7428 49.6925 86.6933 49.6916 86.6414C49.6906 86.5895 49.7101 86.5392 49.7457 86.5015C49.7814 86.4638 49.8304 86.4415 49.8823 86.4395C49.9341 86.4375 49.9847 86.4558 50.0232 86.4907C51.3964 87.7878 52.7417 88.4311 54.025 88.3821C55.2804 88.3398 56.5385 87.6475 57.7661 86.3239C57.8029 86.293 57.8496 86.2765 57.8977 86.2774C57.9457 86.2783 57.9918 86.2966 58.0273 86.329C58.0629 86.3613 58.0855 86.4055 58.091 86.4532C58.0965 86.501 58.0845 86.5491 58.0572 86.5887C56.7554 87.993 55.4034 88.7276 54.0382 88.7739L53.9046 88.7805Z" fill="#6F3428"/>
<path d="M57.1113 75.7305V81.7965C57.0939 82.6718 56.7341 83.5055 56.1092 84.1184C55.4843 84.7313 54.6441 85.0746 53.769 85.0746C52.8939 85.0746 52.0537 84.7313 51.4288 84.1184C50.8039 83.5055 50.4441 82.6718 50.4267 81.7965V75.7344L57.1113 75.7305Z" fill="#FFBC96"/>
<path d="M57.1113 77.7724V81.7802C54.2287 81.44 52.4811 79.2879 51.3699 76.875L57.1113 77.7724Z" fill="#E8947D"/>
<path d="M58.9594 76.068C58.8377 77.5451 58.3561 78.7681 57.1073 79.1864C56.936 79.2488 56.7587 79.2932 56.5782 79.3187C54.4509 79.6205 52.9481 78.9005 51.9215 77.9581C51.4549 77.5242 51.049 77.0291 50.7151 76.4863C50.5986 76.301 50.4981 76.121 50.4134 75.9568C50.2599 75.6666 50.1273 75.3659 50.0166 75.0568C49.9901 74.988 49.9795 74.9509 49.9795 74.9509L49.9584 73.3626L49.9001 69.5242L55.287 67.793L58.5572 69.8313C58.5678 70.149 58.5943 70.5019 58.6366 70.8902C58.7371 71.912 58.9012 73.1403 58.9647 74.3474C59.0029 74.9203 59.0011 75.4953 58.9594 76.068Z" fill="#FFBC96"/>
<path d="M50.8209 74.8687C50.5563 73.3903 50.5272 71.9952 50.899 70.7378C53.7048 69.033 57.3402 71.0859 59.2227 70.898C59.3774 70.8817 59.5263 70.8296 59.6574 70.7457C59.7885 70.6618 59.8983 70.5486 59.978 70.4149C63.1887 65.0702 53.2008 62.2894 48.5019 68.6942C46.1471 69.5532 46.9289 72.706 48.9728 75.3029L50.8209 74.8687Z" fill="#102048"/>
<path d="M50.5832 76.0197C51.3668 75.7721 51.783 74.8772 51.5127 74.021C51.2425 73.1647 50.3881 72.6713 49.6045 72.9189C48.8209 73.1665 48.4047 74.0613 48.6749 74.9176C48.9452 75.7738 49.7995 76.2672 50.5832 76.0197Z" fill="#FFBC96"/>
<path d="M57.2357 73.6797C57.2605 73.7428 57.3028 73.7976 57.3577 73.8376C57.4125 73.8776 57.4776 73.9011 57.5453 73.9054C57.613 73.9097 57.6805 73.8947 57.74 73.862C57.7995 73.8293 57.8484 73.7804 57.8811 73.7209C57.9137 73.6614 57.9288 73.5938 57.9245 73.5261C57.9202 73.4583 57.8967 73.3932 57.8567 73.3383C57.8168 73.2835 57.762 73.2411 57.6989 73.2163C57.6358 73.1914 57.5669 73.185 57.5002 73.1979C57.4025 73.2285 57.3205 73.2958 57.2712 73.3856C57.2218 73.4754 57.2091 73.5807 57.2357 73.6797Z" fill="#102048"/>
<path d="M54.488 73.8008C54.5128 73.8639 54.5552 73.9187 54.61 73.9587C54.6648 73.9987 54.7299 74.0222 54.7976 74.0265C54.8653 74.0308 54.9329 74.0158 54.9923 73.9831C55.0518 73.9504 55.1007 73.9014 55.1334 73.842C55.1661 73.7825 55.1811 73.7149 55.1768 73.6471C55.1725 73.5794 55.149 73.5143 55.109 73.4594C55.0691 73.4046 55.0143 73.3622 54.9512 73.3374C54.8881 73.3125 54.8192 73.3061 54.7526 73.319C54.6549 73.3496 54.5728 73.4169 54.5235 73.5067C54.4742 73.5965 54.4614 73.7018 54.488 73.8008Z" fill="#102048"/>
<path d="M56.3665 75.868C56.3314 75.8696 56.2972 75.8572 56.2712 75.8335C56.2453 75.8098 56.2299 75.7767 56.2283 75.7416C56.2267 75.7065 56.2391 75.6722 56.2628 75.6463C56.2865 75.6204 56.3195 75.6049 56.3546 75.6033C56.3546 75.6033 56.8494 75.557 57.1087 75.2737C57.1169 75.2648 57.123 75.254 57.1265 75.2423C57.1299 75.2306 57.1306 75.2183 57.1285 75.2062C57.1087 74.9773 56.6681 74.5577 56.3943 74.3472C56.3664 74.3258 56.3482 74.2942 56.3436 74.2593C56.339 74.2244 56.3484 74.1892 56.3698 74.1613C56.3912 74.1334 56.4228 74.1151 56.4577 74.1105C56.4926 74.1059 56.5278 74.1154 56.5557 74.1368C56.6377 74.2003 57.3561 74.7655 57.3918 75.1837C57.3966 75.2315 57.3913 75.2798 57.3762 75.3254C57.3612 75.371 57.3367 75.4129 57.3045 75.4485C56.9737 75.8085 56.4022 75.8614 56.3784 75.8641L56.3665 75.868Z" fill="#E8947D"/>
<path d="M57.2039 76.5625C56.8388 77.8636 55.7686 77.53 55.1931 76.6035L57.2039 76.5625Z" fill="white"/>
<path d="M56.6813 72.3045C56.6589 72.6817 57.1986 72.5811 57.4103 72.5824C57.8468 72.5824 58.2635 72.4501 58.2635 72.3177C58.2635 72.1853 57.9116 72.0808 57.4698 72.0781C57.0279 72.0755 56.6985 72.0331 56.6813 72.3045Z" fill="#102048"/>
<path d="M55.2711 72.2676C55.377 72.6779 54.7843 72.7348 54.5607 72.797C54.099 72.9386 53.6347 72.9148 53.6016 72.7719C53.5686 72.6289 53.9231 72.3999 54.3848 72.2583C54.8465 72.1167 55.1957 71.9684 55.2711 72.2676Z" fill="#102048"/>
<path opacity="0.3" d="M54.5012 75.5272C54.5015 75.6998 54.4505 75.8686 54.3548 76.0123C54.2591 76.1559 54.123 76.2679 53.9637 76.3341C53.8043 76.4003 53.6289 76.4177 53.4597 76.384C53.2904 76.3504 53.135 76.2673 53.013 76.1453C52.891 76.0232 52.8079 75.8677 52.7743 75.6983C52.7407 75.529 52.7581 75.3535 52.8242 75.1941C52.8904 75.0347 53.0023 74.8984 53.1459 74.8027C53.2895 74.707 53.4582 74.656 53.6307 74.6563C53.8615 74.6566 54.0827 74.7485 54.2459 74.9117C54.409 75.075 54.5009 75.2963 54.5012 75.5272Z" fill="#EE6F57"/>
<path opacity="0.3" d="M58.9594 76.0683C58.7499 76.0398 58.5581 75.9356 58.42 75.7754C58.282 75.6153 58.2072 75.4101 58.2098 75.1986C58.2124 74.9871 58.2922 74.7839 58.4342 74.6272C58.5761 74.4704 58.7704 74.371 58.9805 74.3477C59.0134 74.921 59.0064 75.496 58.9594 76.0683Z" fill="#EE6F57"/>
<path d="M50.338 75.5513C50.303 75.5513 50.2693 75.5374 50.2445 75.5125C50.2197 75.4877 50.2058 75.4541 50.2058 75.4189C50.2058 75.0748 50.1251 74.826 49.9716 74.7029C49.8997 74.6532 49.8176 74.6202 49.7313 74.6063C49.6451 74.5923 49.5568 74.5977 49.4729 74.6222C49.4558 74.6258 49.4382 74.6261 49.4211 74.623C49.404 74.6199 49.3876 74.6134 49.373 74.6039C49.3584 74.5944 49.3457 74.5822 49.3359 74.5678C49.326 74.5535 49.319 74.5373 49.3154 74.5202C49.3117 74.5032 49.3115 74.4856 49.3146 74.4685C49.3177 74.4513 49.3242 74.4349 49.3337 74.4203C49.3431 74.4057 49.3554 74.393 49.3697 74.3832C49.3841 74.3733 49.4003 74.3663 49.4173 74.3627C49.5396 74.3287 49.6681 74.3229 49.793 74.3458C49.9179 74.3687 50.036 74.4198 50.1383 74.4951C50.3592 74.6738 50.4703 74.9848 50.4703 75.4216C50.4696 75.4562 50.4554 75.4892 50.4307 75.5135C50.4059 75.5377 50.3727 75.5513 50.338 75.5513Z" fill="#102048"/>
<path d="M24.179 70.0605C26.4269 67.6295 27.6946 64.4512 27.7372 61.1397C27.7797 57.8281 26.5941 54.6183 24.4094 52.1303C22.2246 49.6423 19.1958 48.0527 15.908 47.6685C12.6202 47.2844 9.30683 48.133 6.6079 50.0504C3.90897 51.9678 2.01606 54.818 1.29484 58.0502C0.573623 61.2825 1.07529 64.6675 2.70292 67.5513C4.33054 70.4351 6.96863 72.613 10.1075 73.6644C13.2464 74.7157 16.6634 74.5658 19.6983 73.2437L26.8526 76.8425L24.179 70.0605Z" fill="#C6EAE9"/>
<path d="M13.8259 65.8243L9.17328 59.3533C9.12993 59.297 9.09833 59.2327 9.08036 59.164C9.06239 59.0953 9.05841 59.0237 9.06866 58.9534C9.07892 58.8831 9.1032 58.8156 9.14005 58.755C9.17691 58.6943 9.22559 58.6416 9.2832 58.6002C9.34081 58.5587 9.40617 58.5292 9.47539 58.5135C9.54461 58.4979 9.61628 58.4963 9.68613 58.5089C9.75598 58.5215 9.82258 58.548 9.88197 58.5869C9.94137 58.6257 9.99233 58.6762 10.0318 58.7352L13.695 63.8283L18.8688 54.1794C18.9427 54.0715 19.0539 53.9948 19.1809 53.9641C19.3079 53.9333 19.4418 53.9507 19.5568 54.0128C19.6718 54.0749 19.7597 54.1774 19.8037 54.3006C19.8476 54.4237 19.8445 54.5587 19.7949 54.6797L13.8259 65.8243Z" fill="white"/>
<path d="M262.565 140.309L253.556 144.515L254.837 181.321L263.569 182.523L262.565 140.309Z" fill="#FFBC96"/>
<path d="M254.837 181.324L254.957 184.776L247.15 190.784H263.766L263.569 182.526L254.837 181.324Z" fill="#D3DFFF"/>
<path d="M255.1 184.569L254.835 185.027L257.769 186.72L258.034 186.261L255.1 184.569Z" fill="#102048"/>
<path d="M267.819 147.868L267.068 143.812L256.708 147.121L257.717 152.074C258.102 153.96 259.2 155.624 260.782 156.718C262.364 157.812 264.308 158.252 266.207 157.946L288.696 154.309L290.274 145.759L267.819 147.868Z" fill="#FFBC96"/>
<path d="M264.993 158.246C262.919 158.246 261.046 157.319 259.521 155.526C258.672 154.516 258.001 153.37 257.536 152.136C257.519 152.086 257.522 152.032 257.544 151.984C257.567 151.937 257.608 151.9 257.657 151.882C257.707 151.865 257.762 151.868 257.809 151.891C257.857 151.913 257.893 151.954 257.911 152.004C257.934 152.071 260.312 158.754 266.179 157.743C266.231 157.734 266.285 157.746 266.329 157.777C266.372 157.808 266.402 157.855 266.411 157.907C266.42 157.96 266.408 158.014 266.377 158.058C266.346 158.101 266.299 158.131 266.246 158.14C265.832 158.21 265.413 158.246 264.993 158.246Z" fill="#E8947D"/>
<path d="M299.499 160.487L298.147 145.016L290.275 145.756L288.697 154.305L293.192 153.578L299.499 160.487Z" fill="#D3DFFF"/>
<path d="M294.358 149.657L292.954 153.496L293.451 153.678L294.855 149.838L294.358 149.657Z" fill="#102048"/>
<path d="M265.942 114.227C270.222 119.786 268.269 125.042 266.918 131.352L270.987 147.615L250.252 152.532L248.902 116.852L257.309 112.27L265.942 114.227Z" fill="#EE6F57"/>
<path d="M251.734 78.293C251.734 78.293 249.329 79.7396 249.853 80.3194C250.377 80.8991 251.469 81.1029 251.469 81.1029L251.734 78.293Z" fill="#E8947D"/>
<path d="M253.147 79.9707L252.554 91.293L258.767 91.6188L259.36 80.2965L253.147 79.9707Z" fill="#FFBC96"/>
<path d="M258.133 83.3157C256.872 85.2953 254.965 86.7773 252.735 87.5101L253.036 81.7578L258.133 83.3157Z" fill="#E8947D"/>
<path d="M251.943 75.9449C251.943 75.9449 249.313 83.9605 252.89 84.5548C256.467 85.1491 258.135 83.3159 258.135 83.3159L259.338 78.1381L256.84 74.6875L251.943 75.9449Z" fill="#FFBC96"/>
<path d="M257.773 80.3541C257.367 81.0662 256.535 81.3547 255.921 81C255.307 80.6453 255.127 79.781 255.533 79.0702C255.939 78.3594 256.772 78.0709 257.392 78.4243C258.012 78.7777 258.179 79.6433 257.773 80.3541Z" fill="#FFBC96"/>
<path d="M256.197 79.7488C255.492 78.9308 255.102 77.7926 254.884 76.4769C246.33 79.2326 248.55 70.1767 252.992 72.5935C259.56 68.3077 266.012 77.9342 259.288 82.4145C258.36 80.5734 257.321 79.7581 256.197 79.7488Z" fill="#102048"/>
<path d="M259.896 73.0984C264.3 70.4168 271.289 73.8013 267.134 85.7228C260.252 80.9486 263.405 75.6927 259.896 73.0984Z" fill="#102048"/>
<path d="M224.061 52.5598L226.821 60.774C226.858 60.8822 226.92 60.9799 227.002 61.0587C227.085 61.1375 227.185 61.1952 227.295 61.2267L235.645 63.6171C235.771 63.6534 235.884 63.7242 235.971 63.8214C236.059 63.9185 236.118 64.0382 236.142 64.1671C236.165 64.2959 236.152 64.4288 236.105 64.5507C236.057 64.6726 235.976 64.7788 235.871 64.8573L228.891 70.006C228.799 70.0744 228.725 70.1641 228.676 70.2673C228.626 70.3706 228.602 70.4844 228.606 70.599L228.905 79.2512C228.909 79.3826 228.877 79.5127 228.811 79.6267C228.746 79.7407 228.65 79.8341 228.534 79.8965C228.419 79.9588 228.288 79.9876 228.157 79.9795C228.026 79.9714 227.899 79.9269 227.792 79.8508L220.712 74.8212C220.619 74.7553 220.512 74.7129 220.399 74.6974C220.286 74.682 220.171 74.694 220.064 74.7325L211.891 77.696C211.767 77.7408 211.634 77.7502 211.505 77.723C211.376 77.6958 211.258 77.6332 211.163 77.5422C211.068 77.4512 211 77.3355 210.968 77.208C210.935 77.0806 210.939 76.9466 210.978 76.8211L213.589 68.5633C213.624 68.454 213.631 68.3379 213.611 68.2251C213.59 68.1123 213.542 68.0062 213.472 67.9161L208.128 61.0943C208.048 60.9906 207.997 60.8663 207.983 60.7354C207.969 60.6046 207.992 60.4724 208.049 60.3538C208.106 60.2353 208.195 60.1351 208.306 60.0645C208.417 59.994 208.546 59.956 208.677 59.9547L217.368 59.8779C217.482 59.8768 217.594 59.848 217.694 59.7941C217.795 59.7402 217.88 59.6627 217.944 59.5682L222.81 52.3864C222.884 52.2778 222.987 52.1921 223.107 52.1388C223.227 52.0855 223.359 52.0668 223.49 52.0848C223.62 52.1028 223.742 52.1568 223.843 52.2408C223.944 52.3247 224.02 52.4352 224.061 52.5598Z" fill="#FBC343"/>
<path d="M235.126 60.3677C234.2 60.0487 235.884 66.0763 236.357 67.7189C236.397 67.8629 236.383 68.0168 236.317 68.1512C236.251 68.2855 236.138 68.3909 236 68.4469C235.861 68.503 235.707 68.5059 235.566 68.4551C235.425 68.4043 235.308 68.3033 235.237 68.1715C234.522 66.8122 232.811 63.723 232.217 64.0327C231.556 64.3795 233.182 68.836 235.404 74.1462L240.745 70.1066C237.916 64.799 235.527 60.5066 235.126 60.3677Z" fill="#FFBC96"/>
<path d="M251.358 90.5601C251.358 90.5601 245.446 78.9324 240.745 70.1094L235.404 74.149C238.488 82.7986 242.986 94.1814 242.986 94.1814L251.358 90.5601Z" fill="#102048"/>
<path d="M214.219 75.2759C213.919 75.7259 216.133 78.9555 216.133 78.9555C212.706 77.3844 209.627 76.074 208.351 75.5367C208.278 75.5063 208.199 75.4944 208.12 75.5021C208.042 75.5098 207.967 75.5368 207.901 75.5807C207.836 75.6246 207.782 75.684 207.745 75.7537C207.708 75.8234 207.689 75.9012 207.689 75.9801C207.835 80.1533 214.902 84.0261 214.902 84.0261L216.886 87.0307L221.274 80.6047C217.798 77.1514 214.727 74.5162 214.219 75.2759Z" fill="#FFBC96"/>
<path d="M262.231 88.6212C260.537 87.6629 258.359 87.1652 255.625 87.144C253.687 87.1423 251.756 87.3711 249.873 87.8257L232.086 92.3643C230.819 90.7257 225.715 85.0038 221.274 80.6016L216.875 87.0329L224.867 99.1582C225.828 100.617 227.219 101.74 228.847 102.373C230.474 103.006 232.258 103.117 233.951 102.691L245.748 99.726L248.902 116.851L265.942 114.226C268.265 101.072 266.253 90.8977 262.231 88.6212Z" fill="#1F3C88"/>
<path d="M289.744 89.1191C287.496 86.6881 286.228 83.5098 286.185 80.1982C286.143 76.8867 287.328 73.6769 289.513 71.1889C291.698 68.7009 294.727 67.1113 298.015 66.7271C301.302 66.343 304.616 67.1916 307.315 69.109C310.014 71.0264 311.906 73.8766 312.628 77.1088C313.349 80.3411 312.847 83.7261 311.22 86.6099C309.592 89.4937 306.954 91.6716 303.815 92.723C300.676 93.7743 297.259 93.6244 294.224 92.3023L287.067 95.9011L289.744 89.1191Z" fill="#C6EAE9"/>
<path d="M298.746 86.3092L294.093 79.8382C294.017 79.7241 293.988 79.5848 294.012 79.4496C294.036 79.3144 294.112 79.194 294.224 79.1137C294.335 79.0335 294.473 78.9998 294.609 79.0196C294.745 79.0395 294.868 79.1114 294.952 79.2201L298.615 84.3119L303.789 74.6643C303.817 74.5957 303.859 74.5337 303.913 74.4824C303.967 74.4312 304.03 74.3918 304.1 74.3668C304.17 74.3418 304.245 74.3318 304.319 74.3375C304.392 74.3431 304.464 74.3642 304.53 74.3995C304.595 74.4348 304.652 74.4834 304.697 74.5422C304.743 74.601 304.775 74.6687 304.793 74.7408C304.81 74.813 304.812 74.888 304.799 74.961C304.785 75.034 304.757 75.1034 304.715 75.1647L298.746 86.3092Z" fill="white"/>
<path d="M314.395 190.535H0.394531V191.065H314.395V190.535Z" fill="#102048"/>
</g>
<defs>
<clipPath id="clip0_5_2335">
<rect width="314" height="191.066" fill="white" transform="translate(0.394531)"/>
</clipPath>
</defs>
</svg>
