<svg width="317" height="236" viewBox="0 0 317 236" fill="none" xmlns="http://www.w3.org/2000/svg">
<g clip-path="url(#clip0_5_2426)">
<path d="M316.518 207.027H0.394531V207.185H316.518V207.027Z" fill="#EBEBEB"/>
<path d="M284.842 217.199H263.902V217.357H284.842V217.199Z" fill="#EBEBEB"/>
<path d="M209.807 218.922H204.313V219.08H209.807V218.922Z" fill="#EBEBEB"/>
<path d="M263.27 211.332H251.137V211.49H263.27V211.332Z" fill="#EBEBEB"/>
<path d="M60.8688 212.395H33.5621V212.553H60.8688V212.395Z" fill="#EBEBEB"/>
<path d="M70.5043 212.395H66.5022V212.553H70.5043V212.395Z" fill="#EBEBEB"/>
<path d="M142.745 215.062H83.5159V215.221H142.745V215.062Z" fill="#EBEBEB"/>
<path d="M278.494 70.0391V83.9801L273.771 102.233H270.047L278.494 70.0391Z" fill="white"/>
<path d="M90.8879 155.594H33.5621V207.002H90.8879V155.594Z" fill="#F5F5F5"/>
<path d="M53.5158 155.594H33.5621V207.002H53.5158V155.594Z" fill="#EBEBEB"/>
<path d="M153.272 155.641H95.9459V207.049H153.272V155.641Z" fill="#EBEBEB"/>
<path d="M115.9 155.641H95.9459V207.049H115.9V155.641Z" fill="#E0E0E0"/>
<path d="M159.619 124.496H102.294V156.696H159.619V124.496Z" fill="#F5F5F5"/>
<path d="M122.247 124.496H102.294V156.696H122.247V124.496Z" fill="#E6E6E6"/>
<path d="M134.88 73.6289H97.8427V125.037H134.88V73.6289Z" fill="#EBEBEB"/>
<path d="M110.734 73.6289H97.8427V125.037H110.734V73.6289Z" fill="#E0E0E0"/>
<path d="M219.474 207.09H276.8V155.682H219.474V207.09Z" fill="#F5F5F5"/>
<path d="M256.846 207.09H276.8V155.682H256.846V207.09Z" fill="#E6E6E6"/>
<path d="M208.062 156.738H265.388V114.89H208.062V156.738Z" fill="#EBEBEB"/>
<path d="M245.44 156.738H265.394V114.89H245.44V156.738Z" fill="#E0E0E0"/>
<path d="M221.516 114.891H276.8V94.4059H221.516V114.891Z" fill="#F5F5F5"/>
<path d="M257.567 114.891H276.806V94.4059H257.567V114.891Z" fill="#E6E6E6"/>
<path d="M158.456 235.58C226.159 235.58 281.042 232.375 281.042 228.423C281.042 224.47 226.159 221.266 158.456 221.266C90.7536 221.266 35.8699 224.47 35.8699 228.423C35.8699 232.375 90.7536 235.58 158.456 235.58Z" fill="#F5F5F5"/>
<path d="M226.65 34.7734H209.055C207.473 34.7734 206.191 36.0557 206.191 37.6375V53.5954C206.191 55.1772 207.473 56.4595 209.055 56.4595H226.65C228.232 56.4595 229.514 55.1772 229.514 53.5954V37.6375C229.514 36.0557 228.232 34.7734 226.65 34.7734Z" fill="#6B24D6"/>
<path d="M215.573 53.7031C215.573 53.7031 217.046 60.8285 227.086 64.7801C227.086 64.7801 220.947 60.8538 221.327 53.7031H215.573Z" fill="#6B24D6"/>
<path d="M212.804 45.0045L216.136 49.6326L222.901 41.6094" stroke="white" stroke-width="3" stroke-linecap="round" stroke-linejoin="round"/>
<path d="M248.57 59.7278C251.662 61.9469 254.456 65.7404 252.364 76.3622C250.271 86.9839 249.74 89.5129 249.74 89.5129L229.508 87.2368C229.508 87.2368 228.559 77.8353 230.14 68.9902C232.277 57.5655 239.516 53.2219 248.57 59.7278Z" fill="#263238"/>
<path d="M228.319 118.414C228.319 118.414 221.466 154.939 219.638 169.936C217.255 189.491 207.48 218.126 207.48 218.126L211.388 219.131C211.388 219.131 225.158 194.815 227.826 172.933C238.764 150.57 239.649 123.036 239.649 123.036L228.319 118.414Z" fill="#EEC1BB"/>
<path d="M200.184 226.975C200.816 226.685 201.495 226.512 202.188 226.463C202.188 226.463 204.591 225.053 206.968 219.559H209.649C210.101 219.564 210.541 219.708 210.908 219.972C211.276 220.235 211.553 220.605 211.704 221.032C211.748 221.149 211.773 221.273 211.78 221.398C211.752 222.045 211.682 222.689 211.571 223.327C211.18 225.464 210.658 227.576 210.009 229.649L209.554 229.535L210.376 225.54C210.654 224.187 209.225 225.495 208.568 226.861C207.91 228.227 206.892 229.611 203.933 228.935C200.513 228.075 199.128 227.607 200.184 226.975Z" fill="#263238"/>
<path d="M211.805 221.076C212.311 219.773 212.956 217.459 212.956 217.459L207.221 216.656C207.221 216.656 207.221 219.476 206.159 221.329C209.156 221.284 211.805 221.076 211.805 221.076Z" fill="#263238"/>
<path d="M235.432 117.832C235.432 117.832 236.286 154.983 237.594 170.03C239.308 189.662 235.666 219.681 235.666 219.681L239.7 219.864C239.7 219.864 248.14 193.221 246.243 171.257C252.319 147.118 247.508 119.994 247.508 119.994L235.432 117.832Z" fill="#EEC1BB"/>
<path d="M229.394 228.183C229.993 227.829 230.65 227.585 231.335 227.463C231.335 227.463 233.567 225.794 235.343 220.078L237.999 219.775C238.452 219.734 238.907 219.833 239.301 220.059C239.696 220.286 240.012 220.628 240.205 221.039C240.262 221.152 240.301 221.274 240.319 221.399C240.36 222.044 240.36 222.69 240.319 223.334C240.156 225.493 239.863 227.64 239.44 229.764L238.979 229.701L239.364 225.642C239.491 224.264 238.22 225.718 237.708 227.153C237.196 228.588 236.336 230.061 233.327 229.682C229.824 229.258 228.389 228.917 229.394 228.183Z" fill="#263238"/>
<path d="M240.288 221.078C240.648 219.732 241.04 217.361 241.04 217.361L235.255 217.184C235.255 217.184 235.59 220.022 234.705 221.919C237.676 221.597 240.288 221.078 240.288 221.078Z" fill="#263238"/>
<path d="M226.859 112.316L219.341 164.306C219.341 164.306 243.822 168.099 253.622 165.88C253.622 165.88 256.031 135.868 245.801 114.036L226.859 112.316Z" fill="#263238"/>
<path d="M204.231 93.946L197.687 87.4845C197.687 87.4845 197.466 85.7521 196.827 85.2716C196.188 84.7911 191.712 83.1599 191.137 83.5203C190.562 83.8807 189.822 87.5098 190.593 88.1736C191.364 88.8375 195.442 89.6847 195.86 89.6151L202.96 97.9987L204.231 93.946Z" fill="#EEC1BB"/>
<path d="M227.649 82.1914C224.829 83.6898 214.814 97.6814 213.341 98.3769C211.868 99.0724 200.595 89.9301 200.595 89.9301L198.698 93.1735C198.698 93.1735 207.942 106.217 213.171 105.585C218.399 104.952 228.408 93.888 228.408 93.888L227.649 82.1914Z" fill="#6B24D6"/>
<path opacity="0.1" d="M227.649 82.1914C224.829 83.6898 214.814 97.6814 213.341 98.3769C211.868 99.0724 200.595 89.9301 200.595 89.9301L198.698 93.1735C198.698 93.1735 207.942 106.217 213.171 105.585C218.399 104.952 228.408 93.888 228.408 93.888L227.649 82.1914Z" fill="white"/>
<path d="M201.215 90.2451L200.431 89.5117L198.376 92.9891L199.116 94.4116L201.215 90.2451Z" fill="#6B24D6"/>
<path opacity="0.2" d="M224.387 97.9974C226.726 95.7656 228.408 93.9131 228.408 93.9131L228.231 91.1312L227.371 88.4062C226.154 89.6576 225.25 91.1783 224.731 92.8448C224.213 94.5113 224.095 96.2767 224.387 97.9974Z" fill="black"/>
<path d="M226.701 111.793C225.91 97.8832 226.264 90.2204 226.625 86.3953C227.023 82.3173 227.649 82.1656 227.649 82.1656C227.649 82.1656 232.075 81.7357 235.913 81.7673C238.881 81.8689 241.839 82.1795 244.764 82.6967C247.548 83.1607 250.295 83.8242 252.983 84.6819C252.534 85.9464 252.13 87.1793 251.75 88.3237C251.251 89.8284 250.802 91.232 250.391 92.5344C249.632 94.9812 249.038 97.0929 248.57 98.9833C247.361 103.743 246.655 108.617 246.465 113.525C246.465 113.525 251.327 126.233 252.275 135.559L236.153 137.297L233.94 127.972L231.727 137.614L222.718 134.452L226.701 111.793Z" fill="#6B24D6"/>
<path opacity="0.1" d="M226.701 111.793C225.91 97.8832 226.264 90.2204 226.625 86.3953C227.023 82.3173 227.649 82.1656 227.649 82.1656C227.649 82.1656 232.075 81.7357 235.913 81.7673C238.881 81.8689 241.839 82.1795 244.764 82.6967C247.548 83.1607 250.295 83.8242 252.983 84.6819C252.534 85.9464 252.13 87.1793 251.75 88.3237C251.251 89.8284 250.802 91.232 250.391 92.5344C249.632 94.9812 249.038 97.0929 248.57 98.9833C247.361 103.743 246.655 108.617 246.465 113.525C246.465 113.525 251.327 126.233 252.275 135.559L236.153 137.297L233.94 127.972L231.727 137.614L222.718 134.452L226.701 111.793Z" fill="white"/>
<path opacity="0.2" d="M247.786 102.424C248.001 101.361 248.254 100.23 248.564 99.0158C248.76 98.2444 248.975 97.4351 249.196 96.5753C248.564 94.4193 247.931 96.1011 247.931 96.1011C247.54 98.1867 247.491 100.322 247.786 102.424Z" fill="black"/>
<path d="M236.134 82.6141C236.327 82.513 236.528 82.4263 236.734 82.3548C237.19 81.9945 237.746 81.1283 237.721 79.0229C237.702 78.1946 237.626 77.3687 237.493 76.5508L243.354 75.457C243.354 75.457 241.356 79.4022 243.019 82.3295C243.594 82.5888 243.936 82.9618 243.872 83.4233C243.436 86.8122 236.153 90.0872 236.153 90.0872C236.153 90.0872 232.599 84.5551 236.134 82.6141Z" fill="#EEC1BB"/>
<path opacity="0.2" d="M237.487 76.5508C237.619 77.3687 237.695 78.1946 237.714 79.0229C241.672 79.0229 243.348 75.457 243.348 75.457L237.487 76.5508Z" fill="black"/>
<path d="M240.73 60.1653C235.634 59.8808 233.845 62.5236 233.188 67.7523C232.359 74.2897 233.561 79.0315 240.009 77.982C248.766 76.5531 249.196 60.6268 240.73 60.1653Z" fill="#EEC1BB"/>
<path d="M236.494 67.6484C236.044 68.3868 235.507 69.0682 234.895 69.6779C235.035 69.8933 235.232 70.066 235.464 70.1774C235.696 70.2889 235.954 70.3348 236.21 70.3102L236.494 67.6484Z" fill="#D4827D"/>
<path d="M239.636 67.4017C239.636 67.819 239.801 68.173 240.079 68.1983C240.357 68.2236 240.61 67.8949 240.648 67.4776C240.686 67.0603 240.477 66.7062 240.199 66.6809C239.921 66.6557 239.668 67.016 239.636 67.4017Z" fill="#263238"/>
<path d="M240.313 66.7151L239.434 66.2852C239.434 66.2852 239.826 67.0881 240.313 66.7151Z" fill="#263238"/>
<path d="M234.446 66.9096C234.414 67.3269 234.61 67.681 234.888 67.7063C235.166 67.7315 235.426 67.4028 235.457 66.9855C235.489 66.5682 235.287 66.2142 235.008 66.1889C234.73 66.1636 234.477 66.4923 234.446 66.9096Z" fill="#263238"/>
<path d="M235.122 66.219L234.243 65.7891C234.243 65.7891 234.635 66.592 235.122 66.219Z" fill="#263238"/>
<path d="M239.883 63.8888C240.288 63.8615 240.693 63.9277 241.068 64.0823C241.443 64.2369 241.777 64.4757 242.045 64.7803" stroke="#263238" stroke-width="0.69" stroke-linecap="round" stroke-linejoin="round"/>
<path d="M236.222 63.4656C235.878 63.3597 235.515 63.3325 235.16 63.3862C234.804 63.4398 234.465 63.5728 234.167 63.7754" stroke="#263238" stroke-width="0.69" stroke-linecap="round" stroke-linejoin="round"/>
<path d="M245.832 69.055C245.832 69.055 243.676 64.7368 244.214 61.525C244.214 61.525 234.345 56.8463 233.282 67.0698C233.282 67.0698 232.796 57.9148 241.565 58.2183C250.334 58.5218 249.594 71.3058 244.865 74.878C244.865 74.8527 247.16 71.7547 245.832 69.055Z" fill="#263238"/>
<path d="M244.941 70.0837C244.982 69.7929 245.08 69.5131 245.229 69.2603C245.379 69.0075 245.577 68.7866 245.812 68.6104C246.047 68.4342 246.314 68.3061 246.599 68.2335C246.883 68.1608 247.179 68.145 247.47 68.187C249.038 68.4462 249.613 71.7276 245.643 72.2903C245.074 72.3598 244.777 71.7908 244.941 70.0837Z" fill="#EEC1BB"/>
<path d="M240.186 71.5195C239.801 71.9001 239.343 72.2006 238.841 72.4035C238.339 72.6064 237.801 72.7078 237.259 72.7018" stroke="#263238" stroke-width="0.69" stroke-linecap="round" stroke-linejoin="round"/>
<path d="M244.214 61.523C244.214 61.523 233.2 58.6653 232.277 68.9898" stroke="#263238" stroke-width="0.69" stroke-linecap="round" stroke-linejoin="round"/>
<path d="M234.389 85.125C234.389 85.125 233.548 93.4959 234.926 101.108C234.926 101.108 238.176 89.3421 242.741 85.34L237.493 86.0923L234.389 85.125Z" fill="#6B24D6"/>
<path opacity="0.5" d="M234.389 85.125C234.389 85.125 233.548 93.4959 234.926 101.108C234.926 101.108 238.176 89.3421 242.741 85.34L237.493 86.0923L234.389 85.125Z" fill="white"/>
<path d="M242.817 81.4019L237.487 85.3534V81.168C237.487 81.168 233.181 82.7296 233.485 87.4904L237.019 85.8656V87.4904L237.847 85.9288L240.642 89.09C240.642 89.09 244.062 85.1005 244.435 83.8993C244.808 82.698 242.817 81.4019 242.817 81.4019Z" fill="#6B24D6"/>
<path opacity="0.7" d="M242.817 81.4019L237.487 85.3534V81.168C237.487 81.168 233.181 82.7296 233.485 87.4904L237.019 85.8656V87.4904L237.847 85.9288L240.642 89.09C240.642 89.09 244.062 85.1005 244.435 83.8993C244.808 82.698 242.817 81.4019 242.817 81.4019Z" fill="white"/>
<path d="M248.38 118.336L243.487 94.9873C243.436 94.743 243.303 94.5235 243.109 94.3658C242.916 94.2081 242.674 94.1217 242.425 94.1211H227.371C227.26 94.1203 227.151 94.1439 227.051 94.1901C226.95 94.2363 226.861 94.3041 226.79 94.3886C226.719 94.4731 226.667 94.5722 226.639 94.679C226.61 94.7857 226.605 94.8975 226.625 95.0063L230.703 117.875C230.746 118.121 230.873 118.344 231.062 118.508C231.251 118.671 231.49 118.765 231.74 118.772L247.653 119.24C247.765 119.24 247.874 119.215 247.975 119.167C248.075 119.118 248.163 119.048 248.233 118.962C248.302 118.875 248.352 118.774 248.377 118.666C248.403 118.557 248.404 118.445 248.38 118.336Z" fill="#263238"/>
<path opacity="0.1" d="M248.38 118.336L243.487 94.9873C243.436 94.743 243.303 94.5235 243.109 94.3658C242.916 94.2081 242.674 94.1217 242.425 94.1211H227.371C227.26 94.1203 227.151 94.1439 227.051 94.1901C226.95 94.2363 226.861 94.3041 226.79 94.3886C226.719 94.4731 226.667 94.5722 226.639 94.679C226.61 94.7857 226.605 94.8975 226.625 95.0063L230.703 117.875C230.746 118.121 230.873 118.344 231.062 118.508C231.251 118.671 231.49 118.765 231.74 118.772L247.653 119.24C247.765 119.24 247.874 119.215 247.975 119.167C248.075 119.118 248.163 119.048 248.233 118.962C248.302 118.875 248.352 118.774 248.377 118.666C248.403 118.557 248.404 118.445 248.38 118.336Z" fill="white"/>
<path d="M254.886 110.775L247.103 105.869C247.103 105.869 246.509 104.231 245.788 103.896C245.067 103.561 240.338 102.935 239.877 103.41C239.415 103.884 239.453 107.582 240.351 108.063C241.249 108.543 245.409 108.499 245.801 108.341L254.519 115.018L254.886 110.775Z" fill="#EEC1BB"/>
<path d="M252.983 84.6836C252.983 84.6836 247.925 92.0682 248.64 98.3907L255.386 109.556L250.852 107.242L248.798 111.111C248.798 111.111 254.014 119.147 260.652 117.251C267.291 115.354 252.983 84.6836 252.983 84.6836Z" fill="#6B24D6"/>
<path opacity="0.1" d="M252.983 84.6836C252.983 84.6836 247.925 92.0682 248.64 98.3907L255.386 109.556L250.852 107.242L248.798 111.111C248.798 111.111 254.014 119.147 260.652 117.251C267.291 115.354 252.983 84.6836 252.983 84.6836Z" fill="white"/>
<path d="M251.327 107.025L248.747 111.824L248.165 110.452L250.22 106.551L251.327 107.025Z" fill="#6B24D6"/>
<path d="M241.913 94.122C241.318 94.122 241.318 109.675 241.318 109.675L227.725 109.283C227.725 109.283 226.195 96.1326 227.725 94.1094L241.913 94.122Z" fill="white"/>
<path opacity="0.1" d="M241.913 94.122C241.318 94.122 241.318 109.675 241.318 109.675L227.725 109.283C227.725 109.283 226.195 96.1326 227.725 94.1094L241.913 94.122Z" fill="black"/>
<path d="M185.769 81.7985L198.623 87.2042C198.693 87.2337 198.756 87.277 198.809 87.3313C198.862 87.3857 198.903 87.4502 198.931 87.5209C198.959 87.5916 198.972 87.6671 198.97 87.743C198.968 87.8189 198.951 87.8937 198.92 87.9629C198.859 88.0983 198.747 88.2045 198.609 88.2589C198.471 88.3132 198.317 88.3114 198.18 88.2537L185.244 82.7721C185.201 82.7552 185.16 82.7318 185.124 82.7026L183.619 81.5898L185.598 81.7542C185.657 81.76 185.715 81.775 185.769 81.7985Z" fill="#263238"/>
<path d="M143.124 108.441L130.637 109.554L125.63 106.728C125.63 106.728 109.571 97.7816 105.398 94.9555C104.134 94.0893 102.951 92.2052 101.933 89.9923C101.079 88.0948 100.344 86.1458 99.7331 84.1567C99.4486 83.2652 99.1957 82.4117 98.9807 81.6277C98.5002 79.9396 98.203 78.6751 98.1208 78.3337C98.1245 78.3064 98.1245 78.2788 98.1208 78.2515H98.1525L102.11 76.987L105.417 75.9375C105.417 75.9375 105.569 76.7215 105.828 77.9164L106.056 78.9723C106.125 79.2758 106.195 79.6045 106.271 79.9333C107.105 83.613 108.389 88.633 109.318 89.4549C110.816 90.7763 129.657 103.617 130.327 103.952C130.998 104.287 136.998 103.952 136.998 103.952L143.124 108.441Z" fill="#E4897B"/>
<path d="M98.0196 60.5238C103.773 60.4353 107.434 78.2646 107.434 78.2646L99.8468 82.0581C97.693 78.326 96.5693 74.0888 96.5908 69.7798C96.7678 62.9389 98.0196 60.5238 98.0196 60.5238Z" fill="#6B24D6"/>
<path opacity="0.5" d="M98.0196 60.5238C103.773 60.4353 107.434 78.2646 107.434 78.2646L99.8468 82.0581C97.693 78.326 96.5693 74.0888 96.5908 69.7798C96.7678 62.9389 98.0196 60.5238 98.0196 60.5238Z" fill="white"/>
<path d="M108.275 78.6104L106.226 79.9381L103.552 81.6704L99.7078 84.1552L99.0187 84.6041L98.1841 82.0688L98.9554 81.6515L99.4612 81.3733L102.977 79.4576L105.784 77.9212L107.187 77.1562L107.434 77.0234L108.275 78.6104Z" fill="#6B24D6"/>
<path opacity="0.2" d="M103.893 84.6047C103.905 86.5814 103.2 88.4952 101.908 89.9915C101.054 88.0939 100.319 86.1449 99.7078 84.1558L99.0187 84.6047L98.1841 82.0757L98.9554 81.6585C98.4749 79.9704 98.1778 78.7059 98.0956 78.3645V78.2633L99.006 71.3086C100.201 73.104 101.221 75.0094 102.053 76.9988C102.382 77.7765 102.686 78.6047 102.964 79.4646C103.061 79.7596 103.149 80.0631 103.229 80.375C103.35 80.8049 103.451 81.2412 103.539 81.6774C103.745 82.6406 103.863 83.6203 103.893 84.6047Z" fill="black"/>
<path d="M97.1598 224.072L102.452 224.629L103.444 213.223L98.1524 212.66L97.1598 224.072Z" fill="#E4897B"/>
<path d="M70.7635 223.686H75.8847L76.3083 211.812H71.1808L70.7635 223.686Z" fill="#E4897B"/>
<path d="M76.5992 223.094H70.3716C70.2694 223.094 70.1705 223.13 70.0912 223.194C70.0119 223.258 69.9569 223.348 69.9353 223.448L68.9238 228.013C68.8825 228.209 68.9204 228.413 69.0294 228.581C69.1384 228.75 69.3095 228.868 69.5054 228.91H69.6698C71.6867 228.879 73.1535 228.752 75.6825 228.752C77.2441 228.752 81.948 228.917 84.0977 228.917C86.2473 228.917 86.5318 226.792 85.6467 226.596C81.6951 225.737 78.692 224.542 77.4275 223.435C77.2023 223.224 76.9077 223.103 76.5992 223.094Z" fill="#263238"/>
<path d="M76.9533 223.813C76.929 223.808 76.9068 223.796 76.8898 223.778C76.8728 223.76 76.8619 223.737 76.8584 223.712C76.8558 223.689 76.8598 223.665 76.8698 223.644C76.8799 223.623 76.8956 223.605 76.9153 223.592C77.0987 223.478 78.7552 222.46 79.3242 222.751C79.3888 222.781 79.4431 222.83 79.4803 222.89C79.5174 222.951 79.5357 223.022 79.5328 223.093C79.5455 223.211 79.5291 223.33 79.485 223.44C79.4409 223.55 79.3705 223.648 79.2799 223.725C78.9907 223.922 78.6424 224.014 78.2936 223.984C77.8418 223.978 77.3922 223.921 76.9533 223.813ZM77.301 223.649C77.9006 223.847 78.5523 223.813 79.1282 223.554C79.1882 223.5 79.2343 223.432 79.2629 223.356C79.2915 223.28 79.3017 223.198 79.2926 223.118C79.2926 223.023 79.2483 222.973 79.2104 222.973C79.1606 222.96 79.1085 222.96 79.0587 222.973C78.4357 223.079 77.8391 223.305 77.301 223.636V223.649Z" fill="#6B24D6"/>
<path d="M76.8963 223.814C76.8781 223.801 76.8633 223.784 76.8534 223.764C76.8434 223.744 76.8386 223.722 76.8394 223.7C76.8394 223.63 76.9722 222.157 77.5665 221.67C77.6356 221.609 77.7173 221.564 77.8058 221.538C77.8942 221.512 77.9874 221.505 78.0786 221.519C78.1707 221.517 78.2604 221.548 78.3321 221.605C78.4038 221.663 78.4528 221.744 78.4706 221.835C78.5718 222.378 77.5476 223.504 77.0228 223.795H76.9659C76.945 223.808 76.9209 223.814 76.8963 223.814ZM77.7183 221.816C77.3495 222.275 77.129 222.835 77.086 223.422C77.6171 223.023 78.2683 222.157 78.2051 221.835C78.2051 221.835 78.2051 221.708 78.0281 221.708H77.9712C77.8822 221.726 77.8006 221.77 77.7372 221.835L77.7183 221.816Z" fill="#6B24D6"/>
<path d="M103.008 222.93H96.7805C96.6787 222.931 96.5804 222.967 96.5013 223.031C96.4222 223.096 96.3669 223.184 96.3443 223.284L95.3327 227.849C95.2914 228.045 95.3294 228.249 95.4384 228.417C95.5473 228.586 95.7185 228.704 95.9144 228.746C95.9711 228.753 96.0283 228.753 96.0851 228.746C98.0956 228.715 99.5624 228.595 102.098 228.595C103.653 228.595 108.357 228.753 110.507 228.753C112.656 228.753 112.941 226.628 112.062 226.432C108.11 225.572 105.107 224.378 103.843 223.271C103.616 223.059 103.319 222.937 103.008 222.93Z" fill="#263238"/>
<path d="M103.362 223.644C103.337 223.637 103.315 223.624 103.298 223.605C103.281 223.585 103.27 223.562 103.267 223.536C103.264 223.513 103.268 223.489 103.28 223.469C103.291 223.448 103.309 223.432 103.331 223.422C103.514 223.302 105.17 222.284 105.733 222.581C105.798 222.61 105.852 222.657 105.89 222.717C105.927 222.776 105.945 222.846 105.942 222.917C105.956 223.035 105.94 223.154 105.895 223.265C105.851 223.375 105.78 223.473 105.689 223.549C105.402 223.742 105.06 223.836 104.715 223.814C104.259 223.806 103.806 223.749 103.362 223.644ZM103.71 223.473C104.309 223.676 104.963 223.642 105.537 223.378C105.598 223.325 105.645 223.257 105.674 223.181C105.703 223.105 105.712 223.022 105.701 222.942C105.701 222.847 105.657 222.803 105.626 222.803C105.577 222.778 105.523 222.765 105.468 222.765C104.842 222.888 104.246 223.128 103.71 223.473Z" fill="#6B24D6"/>
<path d="M103.331 223.668C103.312 223.656 103.296 223.639 103.285 223.619C103.274 223.599 103.268 223.577 103.267 223.554C103.267 223.485 103.4 222.012 103.994 221.531C104.063 221.469 104.144 221.423 104.233 221.395C104.321 221.368 104.415 221.36 104.507 221.373C104.598 221.373 104.687 221.404 104.759 221.461C104.83 221.519 104.88 221.6 104.899 221.689C105.006 222.233 103.982 223.358 103.451 223.649H103.394C103.375 223.661 103.353 223.668 103.331 223.668ZM104.152 221.67C103.782 222.128 103.561 222.689 103.52 223.276C104.045 222.878 104.696 222.012 104.633 221.689C104.633 221.658 104.633 221.569 104.456 221.569H104.399C104.308 221.576 104.222 221.611 104.152 221.67Z" fill="#6B24D6"/>
<path opacity="0.2" d="M98.1525 212.66L103.444 213.223L102.926 219.103L97.634 218.546L98.1525 212.66Z" fill="black"/>
<path opacity="0.2" d="M71.1809 211.82H76.3084L76.0871 217.94H70.9596L71.1809 211.82Z" fill="black"/>
<path d="M73.2925 107.652H100.479C103.065 121.777 111.164 171.768 105.354 216.31L96.1419 215.172C96.1419 215.172 97.0207 156.038 88.909 134.175C87.9732 145.878 86.8605 158.327 85.8995 164.946C83.5096 181.252 78.4453 216.86 78.4453 216.86H69.0691C69.0691 216.86 70.9658 182.757 71.8699 166.736C72.8373 149.362 73.2609 111.225 73.2925 107.652Z" fill="#6B24D6"/>
<path opacity="0.2" d="M88.9091 134.178C90.2501 138.01 91.2674 141.948 91.9502 145.951C92.7089 135.538 89.6678 124.492 89.6678 124.492L88.9091 134.178Z" fill="black"/>
<path d="M106.435 218.457L95.0355 216.763L95.3833 213.602L107.238 215.157L106.435 218.457Z" fill="#6B24D6"/>
<path opacity="0.6" d="M106.435 218.457L95.0355 216.763L95.3833 213.602L107.238 215.157L106.435 218.457Z" fill="white"/>
<path d="M79.5707 216.955H68.5127V213.655L79.988 213.434L79.5707 216.955Z" fill="#6B24D6"/>
<path opacity="0.6" d="M79.5707 216.955H68.5127V213.655L79.988 213.434L79.5707 216.955Z" fill="white"/>
<path d="M73.242 112.379L73.2167 108.434L100.947 106.727L101.143 110.539L73.242 112.379Z" fill="#263238"/>
<path d="M80.2599 107.438H79.0081V113.21H80.2599V107.438Z" fill="#6B24D6"/>
<path d="M99.426 105.522L98.1775 105.613L98.5972 111.37L99.8458 111.279L99.426 105.522Z" fill="#6B24D6"/>
<path d="M100.922 106.726L73.1914 108.793C73.1914 106.365 73.1281 103.659 72.9448 100.802C72.6034 95.5223 71.9522 89.7435 71.2251 84.3252C69.6824 72.812 67.792 62.93 67.792 62.93C80.6898 59.6739 97.9944 60.5211 97.9944 60.5211C102.515 77.3452 100.922 106.726 100.922 106.726Z" fill="#6B24D6"/>
<path opacity="0.6" d="M100.922 106.726L73.1914 108.793C73.1914 106.365 73.1281 103.659 72.9448 100.802C72.6034 95.5223 71.9522 89.7435 71.2251 84.3252C69.6824 72.812 67.792 62.93 67.792 62.93C80.6898 59.6739 97.9944 60.5211 97.9944 60.5211C102.515 77.3452 100.922 106.726 100.922 106.726Z" fill="white"/>
<path d="M77.6614 61.1877C80.1904 63.4575 86.2789 62.6166 86.2789 62.6166C86.2789 62.6166 90.0724 61.5734 89.2947 60.3785C87.0439 60.0054 85.9564 58.9559 85.5012 57.6155C85.251 56.7822 85.1736 55.9066 85.2736 55.0423C85.3088 54.5627 85.3722 54.0856 85.4633 53.6134L77.8763 48.0117C78.8943 51.704 80.1082 58.507 77.6614 61.1877Z" fill="#E4897B"/>
<path opacity="0.2" d="M79.653 51.5703C79.9501 56.1098 83.6804 57.3617 85.5075 57.6146C85.2573 56.7813 85.1799 55.9056 85.2799 55.0413L79.653 51.5703Z" fill="black"/>
<path d="M92.7024 37.2263C94.5423 38.9713 93.7773 44.2885 90.028 47.0071C86.2788 49.7258 86.2788 36.5687 86.2788 36.5687C86.2788 36.5687 91.5328 36.1135 92.7024 37.2263Z" fill="#263238"/>
<path d="M79.1408 52.6213C79.9284 53.7834 81.0749 54.6555 82.4051 55.1043C83.7353 55.553 85.1759 55.5536 86.5065 55.106C88.2366 54.558 89.6927 53.3709 90.5781 51.7867C90.7045 51.5656 90.8185 51.3377 90.9195 51.1039C92.7657 46.7857 93.3347 39.2366 88.7889 36.4105C87.2319 35.4295 85.3496 35.1055 83.5542 35.5096C81.7588 35.9137 80.1968 37.0129 79.2103 38.5665C78.6248 39.4967 78.2654 40.5513 78.1608 41.6455C77.6108 46.6908 77.0417 49.6308 79.1408 52.6213Z" fill="#E4897B"/>
<path d="M85.5265 44.3363C85.4317 44.7409 85.615 45.1139 85.8869 45.1582C86.1588 45.2024 86.4243 44.9053 86.5191 44.5259C86.614 44.1466 86.4243 43.7483 86.1651 43.704C85.9059 43.6598 85.6024 43.9253 85.5265 44.3363Z" fill="#263238"/>
<path d="M90.1355 45.1289C90.0407 45.5272 90.2304 45.9002 90.4896 45.9445C90.7488 45.9887 91.0333 45.6979 91.1218 45.3122C91.2103 44.9266 91.027 44.5409 90.7614 44.4966C90.4959 44.4524 90.2051 44.7432 90.1355 45.1289Z" fill="#263238"/>
<path d="M88.6371 45.0781C88.911 46.399 89.3663 47.6756 89.9901 48.8716C89.6735 49.02 89.3282 49.0969 88.9785 49.0969C88.6289 49.0969 88.2835 49.02 87.9669 48.8716L88.6371 45.0781Z" fill="#DE5753"/>
<path d="M84.3505 42.6064C84.394 42.6193 84.4401 42.6209 84.4844 42.6109C84.5287 42.601 84.5697 42.5798 84.6034 42.5495C84.8205 42.3361 85.0845 42.1763 85.3743 42.083C85.6641 41.9897 85.9717 41.9654 86.2726 42.0121C86.3033 42.0196 86.3352 42.0209 86.3664 42.0161C86.3977 42.0112 86.4277 42.0003 86.4547 41.9838C86.4817 41.9674 86.5052 41.9458 86.5238 41.9203C86.5425 41.8947 86.5559 41.8658 86.5634 41.8351C86.5709 41.8044 86.5722 41.7725 86.5674 41.7412C86.5625 41.71 86.5516 41.68 86.5351 41.653C86.5187 41.626 86.4971 41.6025 86.4716 41.5838C86.446 41.5652 86.4171 41.5517 86.3864 41.5442C86.0085 41.4745 85.6195 41.4954 85.2512 41.6053C84.883 41.7153 84.5462 41.911 84.2684 42.1765C84.2243 42.2224 84.1997 42.2836 84.1997 42.3472C84.1997 42.4108 84.2243 42.472 84.2684 42.5179C84.292 42.5507 84.3196 42.5804 84.3505 42.6064Z" fill="#263238"/>
<path d="M86.9427 50.9251C86.3451 50.9128 85.7591 50.757 85.2343 50.471C84.7095 50.1849 84.2611 49.7769 83.9269 49.2813C83.9178 49.2668 83.9117 49.2507 83.909 49.2339C83.9064 49.2171 83.9071 49.1999 83.9112 49.1833C83.9154 49.1668 83.9228 49.1513 83.9331 49.1377C83.9434 49.1241 83.9563 49.1127 83.9711 49.1042C83.999 49.0874 84.0323 49.0819 84.0641 49.0889C84.0959 49.096 84.1237 49.1151 84.1418 49.1422C84.4597 49.5958 84.8789 49.969 85.3662 50.2324C85.8535 50.4958 86.3954 50.642 86.949 50.6596C86.9653 50.6587 86.9816 50.6612 86.9969 50.6668C87.0122 50.6725 87.0262 50.6812 87.0381 50.6924C87.0499 50.7037 87.0593 50.7172 87.0657 50.7322C87.0722 50.7472 87.0755 50.7634 87.0754 50.7797C87.0755 50.8122 87.063 50.8434 87.0407 50.8669C87.0183 50.8905 86.9877 50.9045 86.9553 50.9061L86.9427 50.9251Z" fill="#263238"/>
<path d="M92.3864 43.8748C92.4315 43.8902 92.4804 43.8902 92.5255 43.8748C92.58 43.8602 92.6276 43.8268 92.66 43.7806C92.6924 43.7343 92.7074 43.6782 92.7025 43.6219C92.6044 43.2481 92.4175 42.9035 92.1577 42.6173C91.898 42.3311 91.573 42.1119 91.2104 41.9781C91.1492 41.9605 91.0835 41.968 91.0278 41.9988C90.9721 42.0296 90.9309 42.0813 90.9133 42.1425C90.8952 42.2037 90.9016 42.2695 90.9311 42.3261C90.9606 42.3827 91.0108 42.4256 91.0713 42.4459C91.3549 42.5583 91.6081 42.7359 91.8102 42.9644C92.0123 43.1929 92.1577 43.4658 92.2347 43.761C92.269 43.8168 92.3233 43.8574 92.3864 43.8748Z" fill="#263238"/>
<path d="M82.909 36.0361V38.2932C82.5114 38.4269 82.1788 38.7055 81.9773 39.0733C81.7758 39.4412 81.7202 39.8714 81.8215 40.2785C82.3083 42.2321 80.8984 45.0013 79.3241 45.9687C79.3241 45.9687 79.3747 45.1531 78.6919 45.2669C78.0091 45.3807 77.6613 49.6104 78.7488 51.7853C78.7488 51.7853 76.9532 49.7179 76.3589 45.1531C75.8025 40.936 76.0934 37.5092 77.1239 36.0234L82.909 36.0361Z" fill="#263238"/>
<path d="M75.2841 45.3742C75.6454 46.6011 76.4772 47.6352 77.5982 48.251C79.0903 49.0476 80.2093 47.8021 80.1271 46.1962C80.026 44.7736 79.1408 42.5987 77.4844 42.4722C75.8279 42.3458 74.8542 43.8632 75.2841 45.3742Z" fill="#E4897B"/>
<path d="M76.1061 39.8296C76.1061 39.8296 74.5444 36.0868 78.6351 33.3365C82.7257 30.5862 92.4307 33.7854 93.1135 36.0172C93.7963 38.249 86.456 42.3586 76.1061 39.8296Z" fill="#263238"/>
<path d="M78.616 58.8525L84.8057 62.235L85.6529 57.6133L89.9901 60.4331V66.3383L85.4 63.6007L82.1756 68.4373L75.8088 61.4447L78.616 58.8525Z" fill="#6B24D6"/>
<path d="M92.6692 106.893L87.7958 107.163C87.3913 107.185 87.0816 107.531 87.104 107.935L87.2865 111.231C87.3089 111.635 87.6549 111.945 88.0594 111.922L92.9329 111.653C93.3373 111.63 93.647 111.284 93.6246 110.88L93.4421 107.584C93.4197 107.18 93.0737 106.87 92.6692 106.893Z" fill="white"/>
<path opacity="0.5" d="M78.616 58.8525L84.8057 62.235L85.6529 57.6133L89.9901 60.4331V66.3383L85.4 63.6007L82.1756 68.4373L75.8088 61.4447L78.616 58.8525Z" fill="white"/>
<path opacity="0.2" d="M82.909 99.5779C81.0691 102.347 75.1829 102.334 72.9701 100.804C72.6287 95.5252 71.9774 89.7465 71.2504 84.3281L82.909 99.5779Z" fill="black"/>
<path d="M73.2166 78.2656C73.2166 78.2656 74.5254 86.782 75.8088 88.4511C77.0923 90.1202 103.628 104.624 103.628 104.624L112.802 103.992L117.019 108.828C117.019 108.828 104.797 110.725 103.463 110.358C102.648 110.133 101.858 109.826 101.105 109.442C101.105 109.442 73.2862 98.4849 70.9469 95.9875C68.6076 93.4901 65.9458 80.6302 65.9458 80.6302L73.2166 78.2656Z" fill="#E4897B"/>
<path d="M67.8173 62.9314C72.6729 61.9198 75.183 82.0695 75.183 82.0695L65.2504 84.5985C65.2504 84.5985 61.8426 64.1769 67.8173 62.9314Z" fill="#6B24D6"/>
<path opacity="0.5" d="M67.8173 62.9314C72.6729 61.9198 75.183 82.0695 75.183 82.0695L65.2504 84.5985C65.2504 84.5985 61.8426 64.1769 67.8173 62.9314Z" fill="white"/>
<path d="M64.6687 84.1134L75.8089 81.4453V83.3673L65.1682 86.4527L64.6687 84.1134Z" fill="#6B24D6"/>
<path d="M102.818 209.955V123.287C102.819 119.536 101.669 115.875 99.5244 112.798L96.496 108.441H150.3L153.329 112.779C155.486 115.858 156.645 119.526 156.648 123.287V209.108" stroke="#263238" stroke-width="6" stroke-linecap="round" stroke-linejoin="round"/>
<path d="M217.16 228.929C220.236 228.929 222.73 226.435 222.73 223.359C222.73 220.283 220.236 217.789 217.16 217.789C214.084 217.789 211.59 220.283 211.59 223.359C211.59 226.435 214.084 228.929 217.16 228.929Z" fill="#263238"/>
<path opacity="0.4" d="M219.948 223.359C219.948 222.807 219.785 222.268 219.478 221.809C219.172 221.351 218.737 220.994 218.227 220.783C217.718 220.572 217.157 220.516 216.616 220.624C216.075 220.731 215.579 220.997 215.189 221.387C214.799 221.777 214.533 222.274 214.426 222.815C214.318 223.355 214.373 223.916 214.584 224.426C214.795 224.935 215.153 225.37 215.611 225.677C216.07 225.983 216.609 226.147 217.16 226.147C217.527 226.148 217.889 226.076 218.228 225.936C218.567 225.796 218.874 225.591 219.134 225.332C219.393 225.073 219.598 224.765 219.738 224.427C219.878 224.088 219.949 223.725 219.948 223.359Z" fill="white"/>
<path d="M216.49 224.604C216.056 224.604 215.632 224.47 215.276 224.221C214.92 223.973 214.648 223.621 214.498 223.213L211.217 214.223H218.608V222.486C218.608 223.048 218.385 223.587 217.988 223.984C217.59 224.381 217.052 224.604 216.49 224.604Z" fill="#263238"/>
<path opacity="0.2" d="M216.49 224.604C216.056 224.604 215.632 224.47 215.276 224.221C214.92 223.973 214.648 223.621 214.498 223.213L211.217 214.223H218.608V222.486C218.608 223.048 218.385 223.587 217.988 223.984C217.59 224.381 217.052 224.604 216.49 224.604Z" fill="white"/>
<path d="M155.2 228.929C158.276 228.929 160.77 226.435 160.77 223.359C160.77 220.283 158.276 217.789 155.2 217.789C152.124 217.789 149.63 220.283 149.63 223.359C149.63 226.435 152.124 228.929 155.2 228.929Z" fill="#263238"/>
<path opacity="0.4" d="M157.988 223.359C157.988 222.807 157.825 222.268 157.518 221.809C157.212 221.351 156.777 220.994 156.267 220.783C155.758 220.572 155.197 220.516 154.656 220.624C154.115 220.731 153.618 220.997 153.229 221.387C152.839 221.777 152.573 222.274 152.465 222.815C152.358 223.355 152.413 223.916 152.624 224.426C152.835 224.935 153.193 225.37 153.651 225.677C154.11 225.983 154.649 226.147 155.2 226.147C155.566 226.148 155.929 226.076 156.268 225.936C156.607 225.796 156.914 225.591 157.173 225.332C157.433 225.073 157.638 224.765 157.778 224.427C157.918 224.088 157.989 223.725 157.988 223.359Z" fill="white"/>
<path d="M154.53 224.604C154.096 224.604 153.672 224.47 153.316 224.221C152.96 223.973 152.688 223.621 152.538 223.213L149.257 214.223H156.648V222.486C156.648 223.048 156.425 223.587 156.028 223.984C155.63 224.381 155.092 224.604 154.53 224.604Z" fill="#263238"/>
<path opacity="0.2" d="M154.53 224.604C154.096 224.604 153.672 224.47 153.316 224.221C152.96 223.973 152.688 223.621 152.538 223.213L149.257 214.223H156.648V222.486C156.648 223.048 156.425 223.587 156.028 223.984C155.63 224.381 155.092 224.604 154.53 224.604Z" fill="white"/>
<path d="M226.739 207.734V212.995C226.739 213.466 226.552 213.918 226.218 214.251C225.885 214.584 225.433 214.771 224.962 214.771H100.454C99.9827 214.771 99.5308 214.584 99.1976 214.251C98.8644 213.918 98.6772 213.466 98.6772 212.995V207.734H226.739Z" fill="#263238"/>
<path opacity="0.4" d="M226.739 207.734V212.995C226.739 213.466 226.552 213.918 226.218 214.251C225.885 214.584 225.433 214.771 224.962 214.771H100.454C99.9827 214.771 99.5308 214.584 99.1976 214.251C98.8644 213.918 98.6772 213.466 98.6772 212.995V207.734H226.739Z" fill="white"/>
<path opacity="0.2" d="M182.481 207.734V212.995C182.481 213.466 182.294 213.918 181.961 214.251C181.628 214.584 181.176 214.771 180.705 214.771H100.454C99.9827 214.771 99.5308 214.584 99.1976 214.251C98.8644 213.918 98.6772 213.466 98.6772 212.995V207.734H182.481Z" fill="white"/>
<path d="M172.271 228.929C175.347 228.929 177.841 226.435 177.841 223.359C177.841 220.283 175.347 217.789 172.271 217.789C169.194 217.789 166.701 220.283 166.701 223.359C166.701 226.435 169.194 228.929 172.271 228.929Z" fill="#263238"/>
<path opacity="0.6" d="M175.059 223.359C175.059 222.807 174.895 222.268 174.589 221.809C174.283 221.351 173.847 220.994 173.338 220.783C172.828 220.572 172.268 220.516 171.727 220.624C171.186 220.731 170.689 220.997 170.299 221.387C169.909 221.777 169.644 222.274 169.536 222.815C169.428 223.355 169.484 223.916 169.695 224.426C169.906 224.935 170.263 225.37 170.722 225.677C171.18 225.983 171.719 226.147 172.271 226.147C172.637 226.148 173 226.076 173.339 225.936C173.677 225.796 173.985 225.591 174.244 225.332C174.503 225.073 174.708 224.765 174.848 224.427C174.988 224.088 175.06 223.725 175.059 223.359Z" fill="white"/>
<path d="M171.6 224.604C171.166 224.604 170.742 224.47 170.386 224.221C170.03 223.973 169.759 223.621 169.609 223.213L166.328 214.223H173.718V222.486C173.718 223.048 173.495 223.587 173.098 223.984C172.701 224.381 172.162 224.604 171.6 224.604Z" fill="#263238"/>
<path opacity="0.4" d="M171.6 224.604C171.166 224.604 170.742 224.47 170.386 224.221C170.03 223.973 169.759 223.621 169.609 223.213L166.328 214.223H173.718V222.486C173.718 223.048 173.495 223.587 173.098 223.984C172.701 224.381 172.162 224.604 171.6 224.604Z" fill="white"/>
<path d="M110.311 228.929C113.387 228.929 115.881 226.435 115.881 223.359C115.881 220.283 113.387 217.789 110.311 217.789C107.234 217.789 104.74 220.283 104.74 223.359C104.74 226.435 107.234 228.929 110.311 228.929Z" fill="#263238"/>
<path opacity="0.6" d="M113.099 223.359C113.099 222.807 112.935 222.268 112.629 221.809C112.322 221.351 111.887 220.994 111.378 220.783C110.868 220.572 110.307 220.516 109.767 220.624C109.226 220.731 108.729 220.997 108.339 221.387C107.949 221.777 107.683 222.274 107.576 222.815C107.468 223.355 107.524 223.916 107.735 224.426C107.946 224.935 108.303 225.37 108.762 225.677C109.22 225.983 109.759 226.147 110.311 226.147C110.677 226.148 111.04 226.076 111.379 225.936C111.717 225.796 112.025 225.591 112.284 225.332C112.543 225.073 112.748 224.765 112.888 224.427C113.028 224.088 113.1 223.725 113.099 223.359Z" fill="white"/>
<path d="M109.64 224.604C109.206 224.604 108.782 224.47 108.426 224.221C108.07 223.973 107.799 223.621 107.649 223.213L104.367 214.223H111.758V222.486C111.758 223.048 111.535 223.587 111.138 223.984C110.741 224.381 110.202 224.604 109.64 224.604Z" fill="#263238"/>
<path opacity="0.4" d="M109.64 224.604C109.206 224.604 108.782 224.47 108.426 224.221C108.07 223.973 107.799 223.621 107.649 223.213L104.367 214.223H111.758V222.486C111.758 223.048 111.535 223.587 111.138 223.984C110.741 224.381 110.202 224.604 109.64 224.604Z" fill="white"/>
<path d="M173.055 166.922H114.098V207.733H173.055V166.922Z" fill="#6B24D6"/>
<path opacity="0.4" d="M173.055 166.922H114.098V207.733H173.055V166.922Z" fill="white"/>
<path opacity="0.2" d="M141.455 166.922H114.098V207.733H141.455V166.922Z" fill="white"/>
<path opacity="0.2" d="M138.869 199.105H135.449C135.127 199.105 134.867 199.366 134.867 199.687V204.359C134.867 204.681 135.127 204.941 135.449 204.941H138.869C139.19 204.941 139.451 204.681 139.451 204.359V199.687C139.451 199.366 139.19 199.105 138.869 199.105Z" fill="black"/>
<path opacity="0.2" d="M132.698 199.105H129.278C128.957 199.105 128.696 199.366 128.696 199.687V204.359C128.696 204.681 128.957 204.941 129.278 204.941H132.698C133.02 204.941 133.28 204.681 133.28 204.359V199.687C133.28 199.366 133.02 199.105 132.698 199.105Z" fill="black"/>
<path opacity="0.4" d="M160.378 166.922H157.046V171.177H160.378V166.922Z" fill="black"/>
<path opacity="0.2" d="M169.489 184.348H146.538V189.684H169.489V184.348Z" fill="black"/>
<path opacity="0.2" d="M123.727 169.055H115.881V176.901H123.727V169.055Z" fill="black"/>
<path d="M179.074 126.113H120.117V166.925H179.074V126.113Z" fill="#6B24D6"/>
<path opacity="0.4" d="M179.074 126.113H120.117V166.925H179.074V126.113Z" fill="black"/>
<path opacity="0.2" d="M147.474 126.113H120.117V166.925H147.474V126.113Z" fill="white"/>
<path opacity="0.2" d="M144.894 158.293H141.474C141.153 158.293 140.892 158.553 140.892 158.875V163.547C140.892 163.868 141.153 164.129 141.474 164.129H144.894C145.216 164.129 145.476 163.868 145.476 163.547V158.875C145.476 158.553 145.216 158.293 144.894 158.293Z" fill="black"/>
<path opacity="0.2" d="M138.724 158.293H135.303C134.982 158.293 134.722 158.553 134.722 158.875V163.547C134.722 163.868 134.982 164.129 135.303 164.129H138.724C139.045 164.129 139.305 163.868 139.305 163.547V158.875C139.305 158.553 139.045 158.293 138.724 158.293Z" fill="black"/>
<path opacity="0.4" d="M166.397 126.113H163.065V130.368H166.397V126.113Z" fill="black"/>
<path opacity="0.2" d="M175.508 143.535H152.557V148.871H175.508V143.535Z" fill="black"/>
<path opacity="0.2" d="M129.752 128.242H121.906V136.088H129.752V128.242Z" fill="black"/>
<path d="M215.162 126.113H156.205V166.925H215.162V126.113Z" fill="#6B24D6"/>
<path opacity="0.4" d="M215.162 126.113H156.205V166.925H215.162V126.113Z" fill="white"/>
<path opacity="0.2" d="M183.563 126.113H156.205V166.925H183.563V126.113Z" fill="white"/>
<path opacity="0.2" d="M180.983 158.293H177.563C177.241 158.293 176.981 158.553 176.981 158.875V163.547C176.981 163.868 177.241 164.129 177.563 164.129H180.983C181.304 164.129 181.565 163.868 181.565 163.547V158.875C181.565 158.553 181.304 158.293 180.983 158.293Z" fill="black"/>
<path opacity="0.2" d="M174.812 158.293H171.392C171.071 158.293 170.81 158.553 170.81 158.875V163.547C170.81 163.868 171.071 164.129 171.392 164.129H174.812C175.134 164.129 175.394 163.868 175.394 163.547V158.875C175.394 158.553 175.134 158.293 174.812 158.293Z" fill="black"/>
<path opacity="0.4" d="M202.486 126.113H199.154V130.368H202.486V126.113Z" fill="black"/>
<path opacity="0.2" d="M211.596 143.535H188.646V148.871H211.596V143.535Z" fill="black"/>
<path opacity="0.2" d="M165.841 128.242H157.995V136.088H165.841V128.242Z" fill="black"/>
<path d="M194.772 85.3008H135.815V126.112H194.772V85.3008Z" fill="#6B24D6"/>
<path opacity="0.2" d="M163.173 85.3008H135.815V126.112H163.173V85.3008Z" fill="white"/>
<path opacity="0.2" d="M160.587 117.48H157.166C156.845 117.48 156.585 117.741 156.585 118.062V122.734C156.585 123.056 156.845 123.316 157.166 123.316H160.587C160.908 123.316 161.168 123.056 161.168 122.734V118.062C161.168 117.741 160.908 117.48 160.587 117.48Z" fill="black"/>
<path opacity="0.2" d="M154.422 117.48H151.002C150.681 117.48 150.42 117.741 150.42 118.062V122.734C150.42 123.056 150.681 123.316 151.002 123.316H154.422C154.744 123.316 155.004 123.056 155.004 122.734V118.062C155.004 117.741 154.744 117.48 154.422 117.48Z" fill="black"/>
<path opacity="0.4" d="M182.096 85.3008H178.764V89.5558H182.096V85.3008Z" fill="black"/>
<path opacity="0.2" d="M191.206 102.727H168.256V108.063H191.206V102.727Z" fill="black"/>
<path opacity="0.2" d="M145.444 87.4297H137.598V95.2759H145.444V87.4297Z" fill="black"/>
<path d="M210.572 166.922H151.615V207.733H210.572V166.922Z" fill="#263238"/>
<path opacity="0.2" d="M210.572 166.922H151.615V207.733H210.572V166.922Z" fill="white"/>
<path opacity="0.2" d="M178.973 166.922H151.615V207.733H178.973V166.922Z" fill="white"/>
<path opacity="0.2" d="M176.387 199.105H172.966C172.645 199.105 172.385 199.366 172.385 199.687V204.359C172.385 204.681 172.645 204.941 172.966 204.941H176.387C176.708 204.941 176.968 204.681 176.968 204.359V199.687C176.968 199.366 176.708 199.105 176.387 199.105Z" fill="black"/>
<path opacity="0.2" d="M170.216 199.105H166.795C166.474 199.105 166.214 199.366 166.214 199.687V204.359C166.214 204.681 166.474 204.941 166.795 204.941H170.216C170.537 204.941 170.798 204.681 170.798 204.359V199.687C170.798 199.366 170.537 199.105 170.216 199.105Z" fill="black"/>
<path opacity="0.4" d="M197.896 166.922H194.564V171.177H197.896V166.922Z" fill="black"/>
<path opacity="0.2" d="M207.006 184.348H184.056V189.684H207.006V184.348Z" fill="black"/>
<path opacity="0.2" d="M161.244 169.055H153.398V176.901H161.244V169.055Z" fill="black"/>
</g>
<defs>
<clipPath id="clip0_5_2426">
<rect width="316.123" height="235.581" fill="white" transform="translate(0.394531)"/>
</clipPath>
</defs>
</svg>
