<svg width="330" height="193" viewBox="0 0 330 193" fill="none" xmlns="http://www.w3.org/2000/svg">
<path d="M300.97 191.256H15.7676C15.7676 191.256 34.374 119.608 121.773 78.0792C209.172 36.5507 297.542 46.6781 296.629 91.5615C295.867 128.911 273.528 142.115 269.244 158.406C268.051 163.026 268.221 167.892 269.734 172.417C271.247 176.943 274.038 180.933 277.77 183.906C281.807 187.077 292.602 189.944 300.97 191.256Z" fill="#F4F1EA"/>
<path d="M73.881 58.2617H51.5364C51.0867 58.2617 50.6553 58.0831 50.3373 57.765C50.0193 57.447 49.8406 57.0157 49.8406 56.5659V46.9582C49.8406 46.5084 50.0193 46.0771 50.3373 45.7591C50.6553 45.4411 51.0867 45.2624 51.5364 45.2624H72.1852C72.6349 45.2624 73.0663 45.4411 73.3843 45.7591C73.7023 46.0771 73.881 46.5084 73.881 46.9582V58.2617Z" fill="#79A5FC"/>
<path d="M73.8755 55.5742L73.8965 61.3179L68.9877 55.59L73.8755 55.5742Z" fill="#79A5FC"/>
<path d="M58.6662 51.612C58.6672 51.8085 58.6099 52.0009 58.5015 52.1647C58.3931 52.3286 58.2385 52.4566 58.0573 52.5325C57.8761 52.6084 57.6764 52.6288 57.4836 52.5911C57.2907 52.5534 57.1134 52.4593 56.9741 52.3208C56.8348 52.1822 56.7398 52.0054 56.7011 51.8128C56.6624 51.6202 56.6817 51.4204 56.7567 51.2388C56.8316 51.0572 56.9588 50.9019 57.1221 50.7926C57.2854 50.6833 57.4774 50.625 57.6739 50.625C57.9362 50.625 58.1878 50.7288 58.3737 50.9138C58.5596 51.0987 58.6648 51.3498 58.6662 51.612Z" fill="white"/>
<path d="M62.9135 51.6003C62.9145 51.7968 62.8572 51.9891 62.7488 52.153C62.6404 52.3169 62.4858 52.4449 62.3046 52.5208C62.1234 52.5967 61.9237 52.6171 61.7309 52.5794C61.538 52.5417 61.3607 52.4476 61.2215 52.3091C61.0822 52.1705 60.9871 51.9937 60.9484 51.8011C60.9097 51.6085 60.929 51.4087 61.004 51.2271C61.0789 51.0454 61.2061 50.8901 61.3694 50.7809C61.5327 50.6716 61.7247 50.6133 61.9212 50.6133C62.1831 50.6146 62.4339 50.7189 62.6195 50.9036C62.8051 51.0882 62.9107 51.3385 62.9135 51.6003Z" fill="white"/>
<path d="M67.1607 51.5886C67.1617 51.7851 67.1044 51.9774 66.996 52.1413C66.8876 52.3052 66.733 52.4332 66.5518 52.5091C66.3706 52.585 66.1709 52.6054 65.9781 52.5677C65.7852 52.53 65.6079 52.4359 65.4686 52.2973C65.3293 52.1588 65.2343 51.982 65.1956 51.7894C65.1569 51.5967 65.1762 51.397 65.2512 51.2153C65.3261 51.0337 65.4533 50.8784 65.6166 50.7692C65.7799 50.6599 65.9719 50.6016 66.1684 50.6016C66.4307 50.6016 66.6823 50.7054 66.8682 50.8903C67.0541 51.0753 67.1593 51.3263 67.1607 51.5886Z" fill="white"/>
<path d="M260.928 30.3247C269.302 30.3247 276.09 23.5363 276.09 15.1624C276.09 6.78842 269.302 0 260.928 0C252.554 0 245.765 6.78842 245.765 15.1624C245.765 23.5363 252.554 30.3247 260.928 30.3247Z" fill="#F5D453"/>
<path d="M307.858 58.8633H326.638C327.401 58.8633 328.132 59.1664 328.672 59.706C329.211 60.2455 329.515 60.9773 329.515 61.7403V80.2943C329.515 80.6721 329.44 81.0462 329.296 81.3953C329.151 81.7444 328.939 82.0615 328.672 82.3287C328.405 82.5959 328.088 82.8078 327.739 82.9524C327.389 83.097 327.015 83.1714 326.638 83.1714H308.666C307.692 83.1714 306.757 82.7842 306.068 82.095C305.378 81.4058 304.991 80.471 304.991 79.4963V61.7509C304.99 61.373 305.063 60.9986 305.206 60.649C305.35 60.2995 305.56 59.9815 305.826 59.7134C306.093 59.4452 306.409 59.2322 306.758 59.0863C307.106 58.9404 307.48 58.8647 307.858 58.8633Z" fill="#79A5FC"/>
<path d="M310.115 71.0391H324.889" stroke="white" stroke-width="1.06" stroke-miterlimit="10"/>
<path d="M310.115 67.6289H324.889" stroke="white" stroke-width="1.06" stroke-miterlimit="10"/>
<path d="M310.115 74.0273H316.279" stroke="white" stroke-width="1.06" stroke-miterlimit="10"/>
<path d="M207.565 39.3911H104.621C103.157 39.3917 101.707 39.1039 100.354 38.5441C99.0008 37.9843 97.7715 37.1634 96.7359 36.1283C95.7004 35.0932 94.8789 33.8643 94.3184 32.5116C93.758 31.159 93.4695 29.7092 93.4695 28.245C93.4748 27.6877 93.5204 27.1315 93.606 26.5807C94.0043 23.9417 95.3359 21.5331 97.359 19.7923C99.382 18.0515 101.962 17.094 104.631 17.0938H207.565V39.3911Z" fill="white"/>
<path d="M102.205 37.7281C102.203 39.1931 102.49 40.6442 103.049 41.9983C103.608 43.3524 104.429 44.583 105.464 45.6197C106.499 46.6563 107.729 47.4788 109.082 48.0399C110.435 48.601 111.886 48.8898 113.351 48.8898H216.296V26.582H113.351C110.395 26.582 107.56 27.7563 105.47 29.8466C103.379 31.9369 102.205 34.7719 102.205 37.7281Z" fill="white"/>
<path d="M93.4695 26.582H93.606C93.5204 27.1328 93.4748 27.689 93.4695 28.2463V26.582Z" fill="#FFFEFC"/>
<path d="M102.205 37.7281C102.203 39.1931 102.49 40.6442 103.049 41.9983C103.608 43.3524 104.429 44.583 105.464 45.6197C106.499 46.6563 107.729 47.4788 109.082 48.0399C110.435 48.601 111.886 48.8898 113.351 48.8898H216.296V26.582H113.351C110.395 26.582 107.56 27.7563 105.47 29.8466C103.379 31.9369 102.205 34.7719 102.205 37.7281Z" stroke="#EAE6DA" stroke-width="4.28" stroke-miterlimit="10"/>
<path d="M104.621 39.3921H226.744V191.257H109.845C105.504 191.256 101.341 189.532 98.2709 186.463C95.2006 183.395 93.4737 179.233 93.4695 174.893V28.2461C93.4695 29.7103 93.758 31.1601 94.3184 32.5127C94.8789 33.8653 95.7004 35.0943 96.7359 36.1294C97.7715 37.1645 99.0008 37.9854 100.354 38.5452C101.707 39.105 103.157 39.3928 104.621 39.3921Z" fill="white"/>
<path d="M227.316 39.3927H105.917C104.04 39.4025 102.184 39.0001 100.48 38.2139C98.7757 37.4277 97.2648 36.2769 96.054 34.8428C94.8433 33.4087 93.9621 31.7262 93.4728 29.9142C92.9836 28.1022 92.8981 26.2049 93.2225 24.3563L93.4692 22.7812" stroke="#EAE6DA" stroke-width="4.28" stroke-miterlimit="10"/>
<path d="M209.255 75.9805H109.776C108.999 75.9805 108.369 76.6104 108.369 77.3875V97.4797C108.369 98.2568 108.999 98.8868 109.776 98.8868H209.255C210.032 98.8868 210.662 98.2568 210.662 97.4797V77.3875C210.662 76.6104 210.032 75.9805 209.255 75.9805Z" fill="#F5D453"/>
<path d="M208.489 108.918H174.715C173.512 108.918 172.536 109.893 172.536 111.097V144.871C172.536 146.074 173.512 147.05 174.715 147.05H208.489C209.692 147.05 210.668 146.074 210.668 144.871V111.097C210.668 109.893 209.692 108.918 208.489 108.918Z" fill="#EE707E"/>
<path d="M108.369 110.41H164.86" stroke="#C5BBBA" stroke-width="2.22" stroke-miterlimit="10"/>
<path d="M108.369 118.023H164.86" stroke="#C5BBBA" stroke-width="2.22" stroke-miterlimit="10"/>
<path d="M108.369 125.637H164.86" stroke="#C5BBBA" stroke-width="2.22" stroke-miterlimit="10"/>
<path d="M108.369 133.25H164.86" stroke="#C5BBBA" stroke-width="2.22" stroke-miterlimit="10"/>
<path d="M108.369 140.867H164.86" stroke="#C5BBBA" stroke-width="2.22" stroke-miterlimit="10"/>
<path d="M108.369 148.477H164.86" stroke="#C5BBBA" stroke-width="2.22" stroke-miterlimit="10"/>
<path d="M108.369 156.09H210.668" stroke="#C5BBBA" stroke-width="2.22" stroke-miterlimit="10"/>
<path d="M108.369 163.703H210.668" stroke="#C5BBBA" stroke-width="2.22" stroke-miterlimit="10"/>
<path d="M108.369 171.316H210.668" stroke="#C5BBBA" stroke-width="2.22" stroke-miterlimit="10"/>
<path d="M225.878 126.328L216.721 191.256" stroke="#122335" stroke-width="1.67" stroke-miterlimit="10"/>
<path d="M243.712 177.581H219.21L241.817 164.078" stroke="#122335" stroke-width="1.67" stroke-linejoin="round"/>
<path d="M237.338 124.281H217.529V127.741H237.338V124.281Z" fill="#122335"/>
<path d="M270.561 128.065L251.136 106.214L249.461 102.371L243.392 103.521L239.354 123.256L256.496 134.502L240.373 150.83C240.373 150.83 243.129 164.911 243.633 164.711C244.032 164.554 262.67 147.569 270.587 140.387C271.634 139.412 272.414 138.185 272.851 136.823C273.289 135.461 273.37 134.009 273.086 132.607C272.753 130.861 271.868 129.269 270.561 128.065Z" fill="#4DAF96"/>
<path d="M240.515 171.77L242.788 184.107L249.22 184.743L247.687 171.77H240.515Z" fill="#FFC0BB"/>
<path d="M241.943 182.48L251.146 181.918L251.099 185.336C251.099 185.336 257.877 185.604 257.698 191.053H242.688L241.943 182.48Z" fill="#79A5FC"/>
<path d="M257.998 189.477H242.279V191.046H257.998V189.477Z" fill="#122335"/>
<path d="M251.099 185.335C249.931 185.145 248.733 185.309 247.66 185.807" stroke="#122335" stroke-width="1.07" stroke-miterlimit="10"/>
<path d="M231.926 106.257C231.926 106.257 226.639 116.054 231.816 136.24L239.486 178.399L251.036 177.296L245.435 103.102L231.926 106.257Z" fill="#4DAF96"/>
<path d="M247.387 128.996C247.345 128.502 246.678 119.64 246.678 119.64L249.828 111.402" stroke="#2E896F" stroke-width="1.07" stroke-miterlimit="10"/>
<path d="M248.253 142.852L249.487 159.526" stroke="#2E896F" stroke-width="1.07" stroke-miterlimit="10"/>
<path d="M286.963 57.0573C286.963 57.0573 287.96 64.5703 282.311 64.6753C276.662 64.7803 278.237 56.7266 278.237 56.7266L286.963 57.0573Z" fill="#EE707E"/>
<path d="M277.444 62.8759C276.915 62.8769 276.397 62.7209 275.957 62.4277C275.517 62.1345 275.173 61.7172 274.971 61.2286C274.768 60.7401 274.714 60.2024 274.817 59.6835C274.92 59.1646 275.175 58.688 275.549 58.314C275.923 57.9399 276.4 57.6853 276.918 57.5823C277.437 57.4794 277.975 57.5328 278.464 57.7357C278.952 57.9386 279.369 58.2819 279.663 58.7222C279.956 59.1624 280.112 59.6798 280.111 60.2088C280.109 60.9157 279.828 61.5933 279.328 62.0932C278.828 62.5931 278.151 62.8745 277.444 62.8759ZM277.444 58.3923C277.084 58.3912 276.732 58.4969 276.433 58.6959C276.134 58.8948 275.9 59.1782 275.762 59.51C275.623 59.8418 275.587 60.2073 275.656 60.56C275.726 60.9127 275.898 61.2369 276.152 61.4914C276.406 61.746 276.73 61.9195 277.082 61.9901C277.435 62.0606 277.8 62.0249 278.132 61.8876C278.465 61.7502 278.749 61.5174 278.948 61.2186C279.148 60.9197 279.255 60.5683 279.255 60.2088C279.255 59.7279 279.064 59.2667 278.725 58.9262C278.385 58.5857 277.925 58.3937 277.444 58.3923Z" fill="#EE707E"/>
<path d="M276.636 66.02C276.06 66.6704 275.305 67.1355 274.465 67.3565C273.625 67.5774 272.738 67.5442 271.917 67.2611C271.096 66.978 270.378 66.4577 269.853 65.766C269.327 65.0744 269.019 64.2425 268.967 63.3756C268.915 62.5087 269.121 61.6458 269.559 60.8962C269.998 60.1465 270.649 59.5437 271.43 59.1641C272.211 58.7845 273.087 58.6452 273.947 58.7637C274.808 58.8823 275.613 59.2534 276.263 59.8301C277.131 60.6028 277.657 61.688 277.727 62.8481C277.797 64.0081 277.405 65.1486 276.636 66.02Z" fill="#FFC0BB"/>
<path d="M272.982 58.7437C272.982 58.7437 271.932 57.0321 270.288 58.6334C268.645 60.2347 267.38 63.2115 270.441 66.3878L272.982 58.7437Z" fill="#FFC0BB"/>
<path d="M269.06 61.5195L266.44 72.8178L271.28 74.5766L274.047 66.1344L269.06 61.5195Z" fill="#FFC0BB"/>
<path d="M247.308 72.4856L260.67 81.5368L263.51 71.2518C263.599 70.8687 263.77 70.5096 264.012 70.1997C264.254 69.8898 264.561 69.6367 264.911 69.4581C265.261 69.2795 265.646 69.1797 266.039 69.1658C266.432 69.1518 266.823 69.2241 267.185 69.3775L272.378 71.761C272.99 72.01 273.489 72.4758 273.78 73.0695C274.07 73.6632 274.132 74.3431 273.953 74.9794L269.847 89.5065C269.53 90.6258 268.955 91.6554 268.169 92.513C267.383 93.3706 266.407 94.0325 265.319 94.4457C264.232 94.8589 263.062 95.012 261.905 94.8928C260.748 94.7736 259.634 94.3853 258.654 93.7591L246.836 88.1834L247.308 72.4856Z" fill="#79A5FC"/>
<path d="M273.359 69.1661L272.267 73.8965L265.625 70.5312L266.975 66.2891L273.359 69.1661Z" fill="#79A5FC"/>
<path d="M272.718 71.9414L266.061 69.1641" stroke="#5287DD" stroke-width="1.07" stroke-miterlimit="10"/>
<path d="M243.948 71.581L227.289 71.3867C224.596 71.5547 224.139 73.7073 224.349 76.3008L231.925 106.258L249.46 102.373L249.487 76.0593C249.295 74.7532 248.619 73.5671 247.593 72.7372C246.566 71.9073 245.265 71.4944 243.948 71.581Z" fill="#79A5FC"/>
<path d="M249.487 89.4299C249.487 89.4299 249.692 79.1082 248.101 77.2969" stroke="#5287DD" stroke-width="1.07" stroke-miterlimit="10"/>
<path d="M225.105 109.988L220.585 111.779L219.43 118.646C219.43 118.646 218.438 121.943 216.857 123.649C215.854 124.731 212.258 128.789 212.862 130.259C213.97 132.984 218.784 125.424 221.451 125.754C221.451 125.754 222.748 125.581 223.278 127.634C223.388 128.054 223.667 128.406 224.097 128.385C224.303 128.374 224.496 128.282 224.635 128.13C224.773 127.978 224.846 127.777 224.837 127.571L224.538 120.499L225.105 109.988Z" fill="#FFC0BB"/>
<path d="M217.861 114.121L218.197 119.523L224.98 120.332L225.657 116.94L217.861 114.121Z" fill="#79A5FC"/>
<path d="M231.111 71.3855L227.436 115.534C227.365 116.009 227.112 116.438 226.732 116.732C226.351 117.025 225.872 117.16 225.394 117.109L217.561 116.405C217.314 116.378 217.076 116.301 216.859 116.18C216.643 116.058 216.453 115.895 216.3 115.7C216.148 115.504 216.036 115.28 215.971 115.041C215.906 114.801 215.89 114.551 215.923 114.305L220.585 78.8827C221.556 73.0236 223.766 70.808 229.305 71.3855H231.111Z" fill="#79A5FC"/>
<path d="M229.032 96.2234L230.041 84.1953" stroke="#5287DD" stroke-width="1.07" stroke-miterlimit="10"/>
<path d="M218.007 116.465L225.378 117.126" stroke="#5287DD" stroke-width="1.07" stroke-miterlimit="10"/>
<path d="M230.609 54.3617C232.036 51.4897 230.864 48.0047 227.992 46.5778C225.12 45.1509 221.635 46.3224 220.208 49.1944C218.781 52.0663 219.953 55.5513 222.825 56.9782C225.697 58.4051 229.182 57.2336 230.609 54.3617Z" fill="#131200"/>
<path d="M240.704 59.6767C240.738 60.1952 240.924 60.6922 241.24 61.1046C241.556 61.517 241.988 61.8264 242.48 61.9935C242.972 62.1606 243.502 62.1779 244.004 62.0433C244.506 61.9087 244.956 61.6282 245.299 61.2373C245.641 60.8464 245.86 60.3627 245.927 59.8475C245.994 59.3322 245.907 58.8086 245.676 58.343C245.446 57.8774 245.082 57.4906 244.632 57.2318C244.181 56.9729 243.664 56.8536 243.145 56.8889C242.453 56.9361 241.807 57.2559 241.349 57.7785C240.891 58.301 240.66 58.9836 240.704 59.6767Z" fill="#F2A9A5"/>
<path d="M239.202 62.9678L239.88 71.4625C240.058 73.8566 238.614 74.1296 236.525 74.2713C234.745 74.3921 233.181 73.9038 232.824 71.9245L231.816 62.7578L239.202 62.9678Z" fill="#FFC0BB"/>
<path d="M239.749 69.8655L232.992 65.1194L239.36 65.0039L239.749 69.8655Z" fill="#131200"/>
<path d="M236.751 66.5567L239.203 66.3939C241.948 66.2102 244.757 64.4356 244.6 60.855L244.243 54.4709C244.06 52.8387 243.25 51.3414 241.985 50.2944C240.719 49.2474 239.097 48.7326 237.459 48.8585C233.937 49.0948 230.634 52.1241 230.881 55.5682L231.742 62.4826C231.896 63.6741 232.501 64.761 233.433 65.5191C234.365 66.2772 235.553 66.6486 236.751 66.5567Z" fill="#FFC0BB"/>
<path d="M238.636 57.6582C238.647 57.7444 238.641 57.8319 238.618 57.9158C238.595 57.9996 238.556 58.0782 238.503 58.1469C238.45 58.2156 238.383 58.2732 238.308 58.3164C238.233 58.3596 238.149 58.3875 238.063 58.3985C237.889 58.4179 237.714 58.3684 237.576 58.2604C237.437 58.1525 237.347 57.9948 237.323 57.821C237.312 57.7336 237.319 57.6449 237.342 57.5601C237.366 57.4754 237.407 57.3962 237.461 57.3272C237.516 57.2583 237.584 57.201 237.661 57.1586C237.739 57.1163 237.823 57.0898 237.911 57.0807C238.083 57.0656 238.254 57.1171 238.389 57.2246C238.524 57.3321 238.612 57.4874 238.636 57.6582Z" fill="#131200"/>
<path d="M243.239 57.1144C243.25 57.1922 243.244 57.2713 243.223 57.3469C243.202 57.4225 243.166 57.4931 243.117 57.5543C243.068 57.6156 243.007 57.6664 242.938 57.7035C242.869 57.7407 242.793 57.7635 242.714 57.7707C242.564 57.7826 242.414 57.736 242.297 57.6405C242.18 57.5451 242.104 57.4081 242.085 57.2581C242.066 57.108 242.105 56.9565 242.195 56.8349C242.285 56.7133 242.418 56.631 242.567 56.6051C242.645 56.5925 242.725 56.5959 242.801 56.6149C242.878 56.634 242.95 56.6684 243.012 56.716C243.075 56.7636 243.128 56.8234 243.167 56.8919C243.206 56.9604 243.23 57.0361 243.239 57.1144Z" fill="#131200"/>
<path d="M240.888 58.2109L241.512 59.702L240.531 60.164" stroke="#E08D8C" stroke-width="0.84" stroke-linecap="round" stroke-linejoin="round"/>
<path d="M237.27 55.5296C237.27 55.5296 235.826 55.8288 235.994 56.2751C236.162 56.7214 237.879 56.2751 237.879 56.2751C237.879 56.2751 239.039 55.9706 238.929 55.4613C238.85 55.1883 237.27 55.5296 237.27 55.5296Z" fill="#131200"/>
<path d="M242.536 54.9375C242.536 54.9375 243.843 54.9375 243.79 55.3995C243.738 55.8615 242.168 55.7985 242.168 55.7985C242.168 55.7985 241.118 55.7408 241.118 55.2158C241.108 54.9427 242.536 54.9375 242.536 54.9375Z" fill="#131200"/>
<path d="M238.205 61.0234C238.205 61.0234 239.229 62.105 241.197 61.517" stroke="#131200" stroke-width="0.84" stroke-linecap="round" stroke-linejoin="round"/>
<path d="M231.773 60.2142C231.773 60.2142 235.637 57.2269 233.417 53.0478C233.417 53.0478 240.284 54.7278 243.78 52.675C243.78 52.675 243.124 47.0154 234.582 48.4749C225.331 50.0499 229.384 58.7547 229.384 58.7547L231.773 60.2142Z" fill="#131200"/>
<path d="M227.768 60.8694C227.802 61.3876 227.99 61.884 228.306 62.2957C228.623 62.7074 229.054 63.0159 229.546 63.1822C230.038 63.3485 230.569 63.3652 231.07 63.23C231.572 63.0948 232.022 62.814 232.364 62.4229C232.705 62.0319 232.923 61.5483 232.99 61.0332C233.057 60.5182 232.97 59.9949 232.739 59.5296C232.508 59.0642 232.145 58.6778 231.695 58.4191C231.244 58.1604 230.727 58.0411 230.209 58.0764C229.515 58.1235 228.868 58.4441 228.411 58.9678C227.953 59.4915 227.722 60.1754 227.768 60.8694Z" fill="#FFC0BB"/>
<path d="M231.348 61.411C231.348 61.411 231.222 59.5157 229.426 59.9358" stroke="#E08D8C" stroke-width="0.84" stroke-linecap="round" stroke-linejoin="round"/>
<path d="M55.1276 152.527L45.8348 191.258" stroke="#122335" stroke-width="1.67" stroke-miterlimit="10"/>
<path d="M70.1167 152.527L79.4147 191.258" stroke="#122335" stroke-width="1.67" stroke-miterlimit="10"/>
<path d="M62.2251 152.527V190.995" stroke="#122335" stroke-width="1.67" stroke-miterlimit="10"/>
<path d="M76.086 150.465H48.3706V153.688H76.086V150.465Z" fill="#122335"/>
<path d="M92.3353 167.1L93.5534 184.473L99.99 185.103L100.967 166.449L92.3353 167.1Z" fill="#FFC0BB"/>
<path d="M92.7133 182.843L101.933 182.281L101.885 185.699C101.885 185.699 109.787 185.967 109.603 191.416H92.3353L92.7133 182.843Z" fill="#4DAF96"/>
<path d="M109.891 189.844H91.9303V191.414H109.891V189.844Z" fill="#122335"/>
<path d="M101.869 185.698C100.702 185.508 99.5036 185.672 98.4304 186.17" stroke="#122335" stroke-width="1.07" stroke-miterlimit="10"/>
<path d="M89.7051 147.513V177.843H104.295V144.305C104.295 141.767 103.287 139.333 101.492 137.538C99.697 135.743 97.2626 134.734 94.7242 134.734H78.5958L89.7051 147.513Z" fill="#79A5FC"/>
<path d="M69.5547 161.91L58.3982 175.277L62.593 180.191L76.2276 167.418L69.5547 161.91Z" fill="#FFC0BB"/>
<path d="M58.9177 173.516L65.9424 179.49L63.5378 181.921C63.5378 181.921 69.0452 187.591 65.1128 191.371L52.6805 179.412L58.9177 173.516Z" fill="#4DAF96"/>
<path d="M66.4396 190.465L53.5542 178.074L52.4661 179.206L65.3515 191.597L66.4396 190.465Z" fill="#122335"/>
<path d="M63.5377 181.921C62.8291 180.975 61.8523 180.263 60.7341 179.879" stroke="#122335" stroke-width="1.07" stroke-miterlimit="10"/>
<path d="M52.8431 134.734C52.1448 136.468 51.7591 138.311 51.7038 140.179C51.6807 141.507 51.9232 142.827 52.4171 144.06C52.9111 145.294 53.6464 146.416 54.58 147.361C55.5136 148.307 56.6267 149.056 57.8539 149.565C59.0811 150.075 60.3976 150.334 61.7263 150.327H73.6336L57.8832 168.424L69.7695 176.924L92.5025 151.199C93.5844 149.625 94.2165 147.786 94.3311 145.88C94.4456 143.974 94.0381 142.073 93.1525 140.381C92.2669 138.689 90.9367 137.27 89.305 136.278C87.6733 135.286 85.8019 134.758 83.8923 134.75L52.8431 134.734Z" fill="#79A5FC"/>
<path d="M93.354 139.953C93.354 139.953 97.9794 147.156 89.7052 154.354" stroke="#4E85DD" stroke-width="1.07" stroke-miterlimit="10"/>
<path d="M91.3484 102.027C96.9818 104.652 99.5281 123.159 99.5281 123.159C99.9922 124.196 100.14 125.347 99.9533 126.468C99.7665 127.588 99.2534 128.629 98.4781 129.459C97.8881 130.092 97.1635 130.585 96.3577 130.9C95.5519 131.215 94.6855 131.345 93.8226 131.281C92.9598 131.216 92.1224 130.959 91.3724 130.527C90.6225 130.096 89.9791 129.501 89.4899 128.787C88.1721 126.813 84.7175 121.038 83.7147 117.893L91.3484 102.027Z" fill="#F8CF63"/>
<path d="M129.758 105.542C129.758 105.542 130.75 113.055 125.101 113.16C119.452 113.265 121.032 105.211 121.032 105.211L129.758 105.542Z" fill="#EE707E"/>
<path d="M120.213 111.368C119.685 111.368 119.168 111.211 118.728 110.917C118.289 110.623 117.946 110.206 117.744 109.717C117.542 109.229 117.489 108.691 117.593 108.172C117.696 107.654 117.951 107.178 118.326 106.804C118.7 106.431 119.177 106.177 119.695 106.074C120.214 105.972 120.752 106.025 121.24 106.228C121.728 106.431 122.145 106.775 122.438 107.215C122.731 107.655 122.887 108.172 122.886 108.701C122.884 109.409 122.602 110.087 122.101 110.587C121.6 111.087 120.921 111.368 120.213 111.368ZM120.213 106.884C119.854 106.884 119.503 106.991 119.204 107.191C118.905 107.39 118.673 107.674 118.535 108.006C118.398 108.338 118.362 108.703 118.432 109.055C118.502 109.408 118.675 109.731 118.929 109.986C119.183 110.24 119.507 110.413 119.859 110.483C120.211 110.553 120.577 110.517 120.909 110.379C121.241 110.242 121.524 110.009 121.724 109.71C121.923 109.411 122.03 109.06 122.03 108.701C122.031 108.462 121.984 108.225 121.893 108.004C121.802 107.783 121.669 107.582 121.5 107.413C121.331 107.244 121.131 107.11 120.91 107.018C120.689 106.926 120.452 106.879 120.213 106.879V106.884Z" fill="#EE707E"/>
<path d="M120.266 118.796C119.323 119.361 118.234 119.633 117.137 119.579C116.04 119.525 114.983 119.147 114.101 118.492C113.218 117.837 112.55 116.935 112.18 115.901C111.811 114.866 111.756 113.745 112.023 112.68C112.29 111.614 112.868 110.652 113.682 109.914C114.497 109.176 115.511 108.697 116.598 108.536C117.685 108.376 118.795 108.541 119.788 109.011C120.781 109.481 121.612 110.235 122.177 111.178C122.933 112.442 123.157 113.954 122.799 115.383C122.44 116.811 121.529 118.039 120.266 118.796Z" fill="#FFC0BB"/>
<path d="M118.623 108.614C118.623 108.614 118.024 106.157 115.415 107.459C112.806 108.761 110.165 111.879 112.648 116.883L118.623 108.614Z" fill="#FFC0BB"/>
<path d="M91.9043 121.142L111.582 112.027L116.47 120.086L97.5692 130.398C96.822 130.898 95.9621 131.205 95.0668 131.291C94.1716 131.376 93.2691 131.238 92.4406 130.888C91.6121 130.538 90.8837 129.987 90.3208 129.286C89.758 128.584 89.3784 127.754 89.2163 126.869C89.0101 125.754 89.1585 124.601 89.6406 123.574C90.1227 122.547 90.9143 121.696 91.9043 121.142Z" fill="#F8CF63"/>
<path d="M79.4517 98.7188L70.1485 99.1283C70.1485 99.1283 60.2467 106.841 54.3981 136.499L85.1638 133.443C85.1638 133.443 97.6224 109.209 88.1774 100.588L79.4517 98.7188Z" fill="#F8CF63"/>
<path d="M88.1138 126.628C90.1308 121.684 91.1994 116.405 91.2638 111.066" stroke="#E0B044" stroke-width="1.07" stroke-miterlimit="10"/>
<path d="M91.3483 102.025L84.7699 98.8906L86.3344 105.774H91.1593L91.3483 102.025Z" fill="#F8CF63"/>
<path d="M84.969 131.809C84.969 131.809 95.9208 131.903 93.3693 139.952H78.9209L84.969 131.809Z" fill="#FFC0BB"/>
<path d="M68.1317 130.06L77.3141 108.356C77.8549 107.084 77.9883 105.676 77.6959 104.325C77.4035 102.974 76.6997 101.747 75.6813 100.812C74.9482 100.136 74.0732 99.6321 73.1204 99.3376C72.1676 99.0431 71.161 98.9652 70.1742 99.1096C69.1874 99.254 68.2454 99.6171 67.4169 100.172C66.5884 100.728 65.8945 101.461 65.3858 102.319C61.2697 109.28 55.3739 120.694 52.7383 132.691C52.597 133.615 52.6579 134.559 52.9168 135.457C53.1757 136.355 53.6264 137.187 54.2378 137.894C54.8492 138.601 55.6068 139.168 56.4583 139.554C57.3097 139.94 58.2348 140.136 59.1697 140.13L81.7715 139.973L86.3391 130.06H68.1317Z" fill="#F8CF63"/>
<path d="M76.0854 111.266L68.1315 130.061H86.3337" stroke="#E0B044" stroke-width="1.07" stroke-miterlimit="10"/>
<path d="M91.149 76.9456C91.149 76.9456 80.9533 72.7455 81.6988 84.6475L91.6425 79.1244L91.149 76.9456Z" fill="#131200"/>
<path d="M96.1555 92.9249C97.4807 92.2953 98.0447 90.7106 97.4151 89.3854C96.7856 88.0601 95.2009 87.4962 93.8756 88.1257C92.5504 88.7553 91.9864 90.3399 92.616 91.6652C93.2455 92.9904 94.8302 93.5544 96.1555 92.9249Z" fill="#F2A9A5"/>
<path d="M90.5974 93.2972L87.8148 101.655C86.9591 104.181 85.1635 103.755 82.6907 102.9C80.5907 102.159 78.9841 100.91 79.4514 98.6996L82.1499 89.4961L90.5974 93.2972Z" fill="#FFC0BB"/>
<path d="M88.1664 100.586L83.2051 93.1992L89.8885 95.4463L88.1664 100.586Z" fill="#131200"/>
<path d="M85.1682 95.3994L88.6753 96.628C89.3007 96.847 89.9638 96.9379 90.6251 96.8953C91.2864 96.8528 91.9324 96.6776 92.5246 96.3803C93.1169 96.083 93.6432 95.6695 94.0724 95.1646C94.5015 94.6597 94.8247 94.0735 95.0227 93.4411L97.0545 86.8627C97.5544 85.2581 97.4118 83.5221 96.6567 82.0207C95.9015 80.5192 94.5929 79.3696 93.0066 78.8143C89.6256 77.6277 85.3362 79.2028 84.1549 82.5839L82.1546 89.5245C81.8082 90.7034 81.9278 91.9703 82.4886 93.0636C83.0494 94.1569 84.0086 94.993 85.1682 95.3994Z" fill="#FFC0BB"/>
<path d="M90.5078 88.858C90.4854 88.937 90.4476 89.0107 90.3967 89.0751C90.3458 89.1394 90.2827 89.1931 90.211 89.2331C90.1394 89.2731 90.0605 89.2986 89.979 89.3081C89.8975 89.3176 89.8149 89.3109 89.736 89.2885C89.6571 89.2661 89.5833 89.2284 89.5189 89.1775C89.4546 89.1266 89.4009 89.0635 89.3609 88.9918C89.3209 88.9201 89.2955 88.8413 89.2859 88.7598C89.2764 88.6783 89.2831 88.5957 89.3055 88.5168C89.3507 88.3573 89.4575 88.2224 89.6022 88.1417C89.7469 88.0609 89.9178 88.041 90.0773 88.0862C90.2367 88.1315 90.3716 88.2382 90.4523 88.383C90.5331 88.5277 90.553 88.6986 90.5078 88.858Z" fill="#131200"/>
<path d="M95.238 90.3066C95.2079 90.4124 95.147 90.5069 95.0632 90.5782C94.9793 90.6495 94.8762 90.6943 94.7669 90.707C94.6576 90.7197 94.5469 90.6996 94.449 90.6495C94.3511 90.5993 94.2702 90.5212 94.2166 90.4251C94.1631 90.3289 94.1392 90.2191 94.148 90.1094C94.1569 89.9997 94.1981 89.8951 94.2664 89.8088C94.3347 89.7225 94.427 89.6584 94.5317 89.6246C94.6365 89.5908 94.7489 89.5888 94.8547 89.6188C94.9255 89.6382 94.9916 89.6714 95.0493 89.7166C95.107 89.7619 95.1551 89.8182 95.1908 89.8822C95.2265 89.9462 95.2491 90.0168 95.2572 90.0896C95.2653 90.1625 95.2587 90.2363 95.238 90.3066Z" fill="#131200"/>
<path d="M92.6863 90.3672L92.6128 92.1365L91.4525 92.0892" stroke="#E08D8C" stroke-width="0.83" stroke-linecap="round" stroke-linejoin="round"/>
<path d="M91.3271 86.9239C91.2688 86.9166 91.2127 86.8975 91.1622 86.8677C91.1116 86.8379 91.0677 86.7981 91.0331 86.7507C91.0068 86.7192 90.5921 86.2257 89.5473 86.4619C89.4338 86.4817 89.317 86.4569 89.2214 86.3926C89.1259 86.3282 89.0588 86.2295 89.0344 86.1169C89.01 86.0043 89.0301 85.8866 89.0904 85.7885C89.1508 85.6904 89.2468 85.6194 89.3583 85.5904C91.0068 85.2386 91.7156 86.1784 91.7471 86.2152C91.782 86.2624 91.8072 86.316 91.8213 86.3729C91.8355 86.4299 91.8382 86.4891 91.8295 86.5471C91.8207 86.6052 91.8005 86.6609 91.7702 86.7111C91.7398 86.7614 91.6999 86.8051 91.6526 86.8399C91.5594 86.9098 91.4424 86.94 91.3271 86.9239Z" fill="#131200"/>
<path d="M95.9051 88.266C95.7933 88.2501 95.6918 88.1918 95.6216 88.1032C95.3801 87.7987 94.7921 87.8617 94.7868 87.8617C94.7286 87.869 94.6695 87.8647 94.6129 87.8491C94.5563 87.8334 94.5033 87.8068 94.457 87.7708C94.4107 87.7347 94.3719 87.6899 94.3429 87.6388C94.314 87.5877 94.2953 87.5315 94.2881 87.4732C94.2808 87.415 94.2851 87.3559 94.3008 87.2993C94.3164 87.2427 94.343 87.1897 94.379 87.1434C94.4151 87.0971 94.46 87.0583 94.511 87.0293C94.5621 87.0003 94.6183 86.9817 94.6766 86.9745C94.9762 86.9338 95.2812 86.9645 95.5667 87.0639C95.8523 87.1634 96.1103 87.3288 96.3199 87.5467C96.3756 87.6168 96.409 87.702 96.4157 87.7914C96.4224 87.8807 96.402 87.9699 96.3573 88.0475C96.3125 88.1251 96.2455 88.1874 96.1648 88.2264C96.0842 88.2653 95.9937 88.2791 95.9051 88.266Z" fill="#131200"/>
<path d="M88.5967 91.4648C88.836 92.001 89.2204 92.4597 89.7065 92.789C90.1926 93.1183 90.761 93.3052 91.3477 93.3286" stroke="#131200" stroke-width="0.68" stroke-linecap="round" stroke-linejoin="round"/>
<path d="M84.3018 86.8528L85.6301 86.6376C86.0868 85.4091 87.1054 82.4375 88.3444 82.007C90.476 81.272 93.8623 81.482 97.6529 84.8316C97.6529 84.8316 98.2461 79.3242 93.0065 77.3974C87.7669 75.4706 82.5588 80.0224 82.1282 82.3587C81.6977 84.695 84.3018 86.8528 84.3018 86.8528Z" fill="#131200"/>
<path d="M79.6038 85.9229C79.4299 86.4187 79.407 86.9549 79.5378 87.4638C79.6687 87.9726 79.9475 88.4313 80.339 88.7817C80.7305 89.1321 81.2171 89.3585 81.7373 89.4323C82.2575 89.5062 82.7879 89.4241 83.2614 89.1965C83.735 88.9689 84.1304 88.606 84.3977 88.1537C84.665 87.7014 84.7922 87.1799 84.7632 86.6553C84.7341 86.1307 84.5502 85.6265 84.2346 85.2064C83.919 84.7864 83.4859 84.4693 82.9901 84.2954C82.3252 84.065 81.5961 84.1068 80.9618 84.4117C80.3274 84.7165 79.8393 85.2597 79.6038 85.9229Z" fill="#FFC0BB"/>
<path d="M82.7277 87.8569C82.7277 87.8569 83.3629 86.0404 81.5254 85.7148" stroke="#E08D8C" stroke-width="0.83" stroke-linecap="round" stroke-linejoin="round"/>
<path d="M88.3448 82.007C90.0128 82.0498 91.6135 82.6738 92.8704 83.7711C95.9365 86.2701 103.743 86.6954 101.124 80.096C98.7716 74.1791 87.6675 76.5154 87.2685 77.1191C86.8695 77.7229 88.3448 82.007 88.3448 82.007Z" fill="#131200"/>
<path d="M0.394531 191.258H316.2" stroke="#122335" stroke-width="1.67" stroke-miterlimit="10"/>
<path d="M145.701 64.0451C145.943 64.1342 146.064 64.2996 146.064 64.5414V65.5149H141.406V64.5414C141.406 64.325 141.533 64.1596 141.788 64.0451L142.17 63.8924L141.406 61.8117H135.909L135.145 63.8924L135.527 64.0451C135.781 64.1596 135.909 64.325 135.909 64.5414V65.5149H131.251V64.5414C131.251 64.325 131.378 64.1596 131.633 64.0451L132.683 63.606L137.34 51.7138H139.974L144.651 63.606L145.701 64.0451ZM140.757 59.9983L139.173 55.7033C139.02 55.2834 138.848 54.7425 138.657 54.0808L138.486 54.6725C138.384 55.0161 138.269 55.3661 138.142 55.7224L136.577 59.9983H140.757Z" fill="#EE707E"/>
<path d="M153.27 55.5506C153.766 55.5506 154.167 55.6588 154.473 55.8751L154.167 57.6504C154.155 57.7649 154.116 57.8413 154.053 57.8794C153.976 57.9303 153.887 57.9558 153.786 57.9558C153.697 57.9558 153.569 57.9367 153.404 57.8985C153.175 57.8476 152.952 57.8222 152.736 57.8222C152.239 57.8222 151.819 57.9558 151.476 58.223C151.158 58.4648 150.865 58.8657 150.598 59.4256V63.6251L151.552 63.7969C151.87 63.8733 152.029 64.0705 152.029 64.3887V65.5149H146.799V64.3887C146.799 64.0705 146.958 63.8733 147.276 63.7969L148.231 63.6251V57.6122L147.276 57.4404C146.958 57.364 146.799 57.1668 146.799 56.8487V55.7224H149.624C149.866 55.7224 150.031 55.767 150.121 55.856C150.21 55.9451 150.273 56.0978 150.311 56.3142L150.464 57.4977C150.808 56.8741 151.215 56.3969 151.686 56.066C152.169 55.7224 152.698 55.5506 153.27 55.5506Z" fill="#EE707E"/>
<path d="M159.084 65.6676C158.231 65.6676 157.576 65.4258 157.117 64.9422C156.659 64.4587 156.43 63.7969 156.43 62.957V57.4977H155.438C155.336 57.4977 155.228 57.4531 155.113 57.364C155.011 57.2877 154.96 57.1668 154.96 57.0014V56.0469L156.545 55.7988L157.041 53.1264C157.054 53.0118 157.111 52.9164 157.213 52.84C157.315 52.7637 157.436 52.7255 157.576 52.7255H158.797V55.8179H161.374V57.4977H158.797V62.8043C158.797 63.097 158.874 63.3324 159.026 63.5106C159.179 63.676 159.383 63.7587 159.637 63.7587C159.815 63.7587 159.936 63.746 160 63.7206L160.248 63.606L160.458 63.4915C160.496 63.4661 160.547 63.4533 160.611 63.4533C160.712 63.4533 160.776 63.4661 160.802 63.4915L160.935 63.6442L161.641 64.7895C161.311 65.0568 160.916 65.2731 160.458 65.4385C160.025 65.5913 159.567 65.6676 159.084 65.6676Z" fill="#EE707E"/>
<path d="M166.376 52.8591C166.376 53.0373 166.331 53.2282 166.242 53.4318C166.166 53.6099 166.058 53.769 165.918 53.909C165.765 54.0617 165.606 54.1699 165.441 54.2335C165.25 54.3099 165.052 54.348 164.849 54.348C164.645 54.348 164.448 54.3099 164.257 54.2335C164.104 54.1699 163.952 54.0617 163.799 53.909C163.659 53.769 163.551 53.6099 163.474 53.4318C163.398 53.2536 163.36 53.0627 163.36 52.8591C163.36 52.6555 163.398 52.4583 163.474 52.2674C163.538 52.1019 163.646 51.9429 163.799 51.7902C163.939 51.6502 164.092 51.5484 164.257 51.4847C164.486 51.3957 164.683 51.3511 164.849 51.3511C165.014 51.3511 165.211 51.3957 165.441 51.4847C165.631 51.5611 165.791 51.6629 165.918 51.7902C166.07 51.9429 166.179 52.1019 166.242 52.2674C166.331 52.4837 166.376 52.681 166.376 52.8591ZM166.987 63.7969C167.305 63.8733 167.464 64.0705 167.464 64.3887V65.5149H162.215V64.3887C162.215 64.0705 162.374 63.8733 162.692 63.7969L162.806 63.7778L163.093 63.7206L163.665 63.6251V57.6122L163.093 57.5168C163.029 57.504 162.972 57.4913 162.921 57.4786C162.883 57.4659 162.844 57.4595 162.806 57.4595L162.692 57.4404C162.374 57.364 162.215 57.1668 162.215 56.8487V55.7224H166.013V63.6251L166.586 63.7206C166.649 63.7333 166.7 63.746 166.739 63.7587C166.789 63.7715 166.834 63.7778 166.872 63.7778L166.987 63.7969Z" fill="#EE707E"/>
<path d="M176.313 64.0451C176.007 64.3887 175.727 64.6496 175.473 64.8277C175.218 64.9931 174.9 65.1586 174.519 65.324C174.239 65.4258 173.901 65.5085 173.507 65.5722C173.201 65.6231 172.851 65.6485 172.457 65.6485C171.833 65.6485 171.267 65.5404 170.758 65.324C170.224 65.095 169.759 64.7641 169.365 64.3314C168.945 63.8733 168.627 63.3452 168.41 62.747C168.181 62.1108 168.067 61.3918 168.067 60.59C168.067 59.8647 168.168 59.2029 168.372 58.6048C168.588 57.994 168.894 57.4595 169.288 57.0014C169.683 56.556 170.179 56.206 170.777 55.9515C171.388 55.697 172.069 55.5697 172.82 55.5697C173.634 55.5697 174.665 55.8051 175.912 56.276L175.893 59.292H174.805C174.576 59.292 174.429 59.1711 174.366 58.9293L174.213 57.5549C173.742 57.4277 173.322 57.364 172.953 57.364C172.533 57.364 172.171 57.4404 171.865 57.5931C171.547 57.7458 171.293 57.9558 171.102 58.223C170.873 58.5412 170.714 58.8848 170.624 59.2538C170.523 59.6865 170.472 60.1319 170.472 60.59C170.472 61.1118 170.529 61.5763 170.644 61.9835C170.758 62.4035 170.917 62.747 171.121 63.0143C171.337 63.2815 171.592 63.4915 171.884 63.6442C172.202 63.7842 172.54 63.8542 172.896 63.8542C173.291 63.8542 173.596 63.8097 173.812 63.7206C174.092 63.606 174.289 63.5042 174.404 63.4152C174.468 63.3642 174.531 63.3197 174.595 63.2815C174.671 63.2306 174.748 63.1734 174.824 63.1097C174.926 63.0207 175.053 62.9761 175.206 62.9761C175.409 62.9761 175.556 63.0461 175.645 63.1861L176.313 64.0451Z" fill="#EE707E"/>
<path d="M181.676 63.7969C181.995 63.8733 182.154 64.0705 182.154 64.3887V65.5149H176.904V64.3887C176.904 64.0705 177.063 63.8733 177.382 63.7969L177.496 63.7778L177.782 63.7206L178.355 63.6251V53.2218L177.782 53.1264C177.719 53.1136 177.662 53.1009 177.611 53.0882C177.572 53.0755 177.534 53.0691 177.496 53.0691L177.382 53.05C177.063 52.9737 176.904 52.7764 176.904 52.4583V51.332H180.703V63.6251L181.276 63.7206L181.562 63.7778L181.676 63.7969Z" fill="#EE707E"/>
<path d="M187.471 55.5697C188.094 55.5697 188.661 55.6652 189.17 55.856C189.653 56.0342 190.099 56.3269 190.506 56.7341C190.875 57.1032 191.168 57.5677 191.384 58.1276C191.6 58.7003 191.708 59.3238 191.708 59.9983C191.708 60.151 191.696 60.3037 191.67 60.4564C191.645 60.5964 191.619 60.6855 191.594 60.7236C191.568 60.7873 191.511 60.8382 191.422 60.8764C191.371 60.9018 191.282 60.9145 191.155 60.9145H185.104C185.18 61.9199 185.454 62.658 185.925 63.1288C186.395 63.5997 187.019 63.8351 187.795 63.8351C188.19 63.8351 188.514 63.7906 188.769 63.7015C189.049 63.6124 189.291 63.5106 189.494 63.3961C189.583 63.3452 189.672 63.3006 189.761 63.2624C189.863 63.2115 189.959 63.1606 190.048 63.1097C190.188 63.0207 190.334 62.9761 190.487 62.9761C190.589 62.9761 190.678 62.9952 190.754 63.0334C190.818 63.0588 190.875 63.1097 190.926 63.1861L191.613 64.0451C191.32 64.3759 191.028 64.6368 190.735 64.8277C190.391 65.044 190.054 65.2095 189.723 65.324C189.405 65.4258 189.042 65.5085 188.635 65.5722C188.317 65.6231 187.961 65.6485 187.566 65.6485C186.866 65.6485 186.236 65.5404 185.676 65.324C185.117 65.1077 184.607 64.7704 184.149 64.3123C183.717 63.8796 183.373 63.3324 183.119 62.6707C182.877 62.0344 182.756 61.2772 182.756 60.3991C182.756 59.7629 182.864 59.1393 183.08 58.5285C183.284 57.9558 183.596 57.4404 184.016 56.9823C184.41 56.5496 184.9 56.206 185.486 55.9515C186.071 55.697 186.733 55.5697 187.471 55.5697ZM187.509 57.2495C186.835 57.2495 186.3 57.4468 185.906 57.8413C185.524 58.223 185.276 58.7702 185.161 59.4829H189.59C189.59 59.2156 189.545 58.9293 189.456 58.6239C189.38 58.3821 189.252 58.1467 189.074 57.9176C188.909 57.714 188.692 57.5549 188.425 57.4404C188.133 57.3131 187.827 57.2495 187.509 57.2495Z" fill="#EE707E"/>
</svg>
