<svg width="205" height="226" viewBox="0 0 205 226" fill="none" xmlns="http://www.w3.org/2000/svg">
<path opacity="0.6" d="M100.508 209.53C78.9484 213.324 55.1339 213.805 36.9249 201.682C20.9089 191.007 11.7367 170.919 14.2253 151.872C16.714 132.825 30.7218 115.738 48.9616 109.504C66.6716 103.455 86.131 107.28 104.254 111.998C122.376 116.717 140.961 122.329 159.497 119.649C169.679 118.177 179.899 113.859 186.169 105.734C192.163 97.9783 193.888 87.5864 192.754 77.8659C190.143 55.4066 172.654 35.9163 151.101 28.82C129.547 21.7237 104.95 26.356 86.1803 39.1072" stroke="#5205DB" stroke-width="0.5" stroke-miterlimit="10" stroke-dasharray="2 1"/>
<path d="M139.875 32.698L168.07 197.743C168.233 198.672 168.299 199.615 168.267 200.558C168.267 201.02 168.211 201.476 168.156 201.926L168.045 202.609C167.804 203.935 167.368 205.218 166.752 206.416C166.444 207.01 166.096 207.582 165.711 208.129C165.322 208.671 164.898 209.188 164.442 209.675C164.134 209.995 163.826 210.291 163.474 210.599C163.141 210.895 162.791 211.172 162.427 211.43C161.876 211.827 161.295 212.181 160.69 212.49C160.284 212.693 159.871 212.884 159.458 213.05C158.577 213.387 157.665 213.639 156.735 213.802L89 225.364C88.0178 225.532 87.0203 225.594 86.0248 225.549C85.8646 225.549 85.7106 225.549 85.5443 225.518L85.0084 225.469C84.2693 225.38 83.5382 225.234 82.8216 225.032C82.4643 224.921 82.1193 224.81 81.7805 224.681C81.6204 224.619 81.4602 224.564 81.3062 224.496C80.9736 224.36 80.6471 224.206 80.3268 224.04C79.3363 223.536 78.4098 222.916 77.5671 222.192C77.2344 221.902 76.908 221.576 76.6 221.274C76.1361 220.786 75.706 220.268 75.3125 219.722C74.7847 218.983 74.3327 218.192 73.9635 217.362C73.4811 216.294 73.1375 215.168 72.9409 214.011L44.7466 48.9481C44.1289 45.3109 44.9803 41.5772 47.1136 38.5673C49.2469 35.5573 52.4877 33.5172 56.1241 32.8951L123.804 21.3266C125.606 21.0164 127.452 21.0646 129.235 21.4683C131.019 21.8721 132.705 22.6236 134.198 23.6798C135.69 24.736 136.96 26.0761 137.935 27.6236C138.909 29.171 139.568 30.8954 139.875 32.698Z" fill="#282629"/>
<path d="M136.861 33.2344L165.074 198.261C165.199 198.989 165.25 199.728 165.228 200.466C165.228 200.799 165.191 201.131 165.147 201.501L165.043 202.117C164.859 203.131 164.523 204.111 164.045 205.025C163.807 205.493 163.533 205.942 163.226 206.367C162.924 206.802 162.59 207.214 162.228 207.599C162.049 207.784 161.827 207.994 161.575 208.215L161.476 208.308C161.267 208.493 161.045 208.677 160.817 208.844L160.657 208.955C160.263 209.23 159.851 209.479 159.425 209.7L159.283 209.774C158.944 209.94 158.624 210.082 158.316 210.211C157.621 210.472 156.904 210.666 156.172 210.79L88.4802 222.346C87.7156 222.479 86.9391 222.528 86.164 222.494C85.9053 222.494 85.6404 222.463 85.3878 222.433C84.8006 222.363 84.2198 222.248 83.6507 222.088C83.3797 222.001 83.1025 221.915 82.8622 221.817C82.7267 221.767 82.6158 221.73 82.5234 221.687L82.4495 221.656C82.2462 221.576 82.006 221.466 81.7165 221.318C80.9427 220.915 80.2173 220.425 79.5543 219.858C79.2833 219.618 79.0369 219.39 78.809 219.156C78.4478 218.769 78.1143 218.357 77.811 217.924C77.4279 217.394 77.0958 216.828 76.8193 216.236L76.7515 216.082C76.3768 215.246 76.1098 214.367 75.9569 213.464L47.7626 48.4311C47.2844 45.5913 47.9524 42.6777 49.62 40.3298C51.2877 37.982 53.8187 36.3916 56.6576 35.9079L124.362 24.3394C126.504 23.9775 128.705 24.2658 130.682 25.1673C132.658 26.0688 134.319 27.542 135.45 29.3967C136.164 30.573 136.643 31.8762 136.861 33.2344Z" fill="#F7F7F7"/>
<g style="mix-blend-mode:multiply" opacity="0.2">
<path d="M159.961 152.042C159.93 151.426 159.899 150.668 159.887 149.824L162.111 162.834C161.382 161.571 160.726 160.267 160.146 158.929C159.702 157.604 159.776 154.641 159.961 152.042Z" fill="#282629"/>
</g>
<path d="M147.02 74.5069L143.688 55.0166C144.049 54.9548 144.419 54.9646 144.776 55.0457C145.133 55.1267 145.471 55.2774 145.77 55.489C146.07 55.7006 146.324 55.9691 146.519 56.2792C146.715 56.5892 146.847 56.9346 146.909 57.2958L149.299 71.2852C149.423 72.0145 149.252 72.7628 148.825 73.3666C148.398 73.9704 147.749 74.3804 147.02 74.5069Z" fill="#282629"/>
<path d="M51.6055 80.7539L50.2878 80.9789C49.9078 81.0438 49.5175 80.9551 49.2029 80.7322C48.8882 80.5094 48.675 80.1706 48.6101 79.7906L47.4354 72.9109C47.3705 72.5308 47.4592 72.1405 47.6821 71.8259C47.9049 71.5113 48.2436 71.2981 48.6237 71.2332L49.9413 71.0082L51.6003 80.7235L51.6055 80.7539Z" fill="#282629"/>
<path d="M53.6165 92.5L52.2988 92.725C52.1106 92.7571 51.9179 92.7519 51.7318 92.7096C51.5456 92.6672 51.3696 92.5886 51.2138 92.4783C51.058 92.368 50.9255 92.228 50.8238 92.0664C50.7221 91.9049 50.6532 91.7249 50.6211 91.5367L49.4464 84.657C49.4142 84.4688 49.4195 84.2761 49.4618 84.0899C49.5041 83.9038 49.5827 83.7278 49.6931 83.572C49.8034 83.4162 49.9434 83.2837 50.1049 83.182C50.2665 83.0803 50.4465 83.0114 50.6347 82.9792L51.9523 82.7543L53.6113 92.4696L53.6165 92.5Z" fill="#282629"/>
<path d="M101.269 32.5286L81.1386 35.972C79.5122 36.2486 77.8426 35.868 76.4968 34.9138C75.1511 33.9597 74.2393 32.5101 73.9622 30.8838L106.358 25.3398C106.497 26.1461 106.476 26.972 106.296 27.7702C106.115 28.5683 105.779 29.323 105.306 29.9909C104.834 30.6588 104.234 31.2268 103.541 31.6623C102.848 32.0978 102.076 32.3921 101.269 32.5286Z" fill="#282629"/>
<path d="M177.397 192.111C177.461 192.428 177.545 192.74 177.649 193.047H179.362L180.206 194.513L179.325 195.979C179.76 196.474 180.25 196.919 180.785 197.303L182.158 196.275L183.704 196.965L183.858 198.671C184.48 198.815 185.117 198.886 185.756 198.88L186.273 197.248L187.936 196.909L189.051 198.209C189.658 197.95 190.233 197.621 190.764 197.23L190.222 195.609L191.367 194.377L193.031 194.766C193.37 194.201 193.643 193.6 193.844 192.973L192.452 191.981L192.636 190.293L194.213 189.628C194.182 189.287 194.132 188.948 194.066 188.612C193.998 188.303 193.914 187.999 193.813 187.7H192.107L191.263 186.228L192.119 184.768C191.684 184.273 191.194 183.829 190.659 183.443L189.285 184.466L187.739 183.77L187.591 182.064C186.949 181.914 186.292 181.842 185.633 181.848L185.127 183.48L183.464 183.825L182.343 182.532C181.74 182.795 181.168 183.123 180.637 183.511L181.185 185.137L180.045 186.369L178.382 185.981C178.044 186.548 177.771 187.152 177.569 187.78L178.967 188.766L178.789 190.454L177.212 191.119C177.252 191.453 177.313 191.784 177.397 192.111ZM182.743 187.965C183.214 187.376 183.847 186.94 184.565 186.711C185.283 186.483 186.052 186.472 186.776 186.68C187.5 186.888 188.146 187.306 188.633 187.88C189.12 188.455 189.425 189.162 189.511 189.91C189.597 190.658 189.459 191.415 189.115 192.085C188.771 192.756 188.237 193.309 187.578 193.675C186.92 194.042 186.168 194.205 185.418 194.145C184.667 194.085 183.951 193.803 183.359 193.336C182.964 193.027 182.633 192.642 182.386 192.204C182.139 191.766 181.981 191.284 181.921 190.785C181.861 190.286 181.9 189.78 182.036 189.296C182.172 188.812 182.402 188.36 182.713 187.965H182.743Z" fill="#7DBDDB"/>
<path d="M134.56 9.82594C134.556 10.1861 134.575 10.5461 134.615 10.9039L136.463 11.292L137.03 13.0907L135.718 14.4767C136.072 15.1199 136.5 15.7194 136.993 16.2631L138.724 15.4808L140.245 16.6019L139.999 18.4931C140.643 18.8005 141.321 19.03 142.019 19.1768L142.968 17.5259H144.859L145.765 19.2076C146.486 19.0733 147.189 18.8542 147.859 18.5547L147.656 16.6635L149.202 15.5732L150.921 16.3987C151.425 15.8667 151.865 15.2775 152.233 14.6431L150.958 13.2263L151.574 11.4399L153.422 11.0949C153.526 10.3682 153.536 9.63123 153.452 8.90194L151.604 8.51386L151.069 6.74594L152.381 5.3661C152.03 4.71887 151.604 4.11515 151.112 3.56738L149.375 4.3497L147.859 3.22242L148.112 1.3313C147.446 1.01931 146.748 0.781742 146.03 0.622896L145.087 2.2861H143.196L142.284 0.585938C141.561 0.725129 140.857 0.946263 140.184 1.24506L140.393 3.14234L138.853 4.23266L137.135 3.41338C136.63 3.94748 136.19 4.53875 135.823 5.17514L137.104 6.58578L136.488 8.37834L134.609 8.7233C134.571 9.08958 134.555 9.45775 134.56 9.82594ZM141.373 6.5981C142.025 6.06882 142.82 5.74478 143.656 5.66692C144.493 5.58905 145.334 5.76085 146.073 6.16062C146.812 6.56038 147.416 7.17018 147.808 7.91298C148.201 8.65578 148.364 9.49826 148.278 10.334C148.192 11.1698 147.861 11.9613 147.325 12.6086C146.789 13.2559 146.074 13.73 145.269 13.9709C144.464 14.2118 143.606 14.2088 142.803 13.9623C142 13.7157 141.288 13.2367 140.757 12.5856C140.052 11.7104 139.721 10.5922 139.836 9.47434C139.952 8.3565 140.504 7.32943 141.373 6.61658V6.5981Z" fill="#3B4AE4"/>
<path d="M156.789 21.4559C156.78 21.6386 156.78 21.8215 156.789 22.0042L157.732 22.2013L158.021 23.1068L157.356 23.8091C157.533 24.1346 157.751 24.4368 158.003 24.7084L158.877 24.3142L159.641 24.8809L159.53 25.8419C159.856 25.9916 160.197 26.1072 160.547 26.1868L161.027 25.3491H161.982L162.438 26.1991C162.803 26.1304 163.159 26.0187 163.497 25.8665L163.399 24.9117L164.175 24.3635L165.044 24.7823C165.296 24.5112 165.519 24.2138 165.709 23.8953L165.074 23.1931L165.382 22.2875L166.306 22.1459C166.333 21.956 166.348 21.7647 166.35 21.573C166.359 21.3965 166.359 21.2197 166.35 21.0432L165.407 20.8461L165.124 19.9344L165.789 19.2383C165.618 18.9124 165.412 18.6066 165.173 18.3267L164.298 18.7209L163.528 18.1542L163.658 17.1994C163.323 17.0428 162.971 16.9231 162.61 16.8421L162.13 17.6799H161.175L160.719 16.8359C160.355 16.9035 159.999 17.0131 159.66 17.1624L159.765 18.1234L158.988 18.6716L158.12 18.2589C157.866 18.5296 157.644 18.8294 157.461 19.1521L158.107 19.8605L157.806 20.766L156.857 20.9385C156.824 21.1095 156.801 21.2822 156.789 21.4559ZM160.227 19.8297C160.557 19.5618 160.959 19.3978 161.382 19.3584C161.806 19.319 162.231 19.4061 162.605 19.6085C162.979 19.811 163.284 20.1197 163.483 20.4958C163.681 20.8718 163.763 21.2982 163.72 21.7211C163.676 22.144 163.507 22.5444 163.236 22.8716C162.964 23.1988 162.602 23.4382 162.195 23.5595C161.787 23.6808 161.353 23.6785 160.946 23.553C160.54 23.4275 160.18 23.1843 159.912 22.8543C159.734 22.6351 159.601 22.3829 159.521 22.1123C159.44 21.8416 159.414 21.5578 159.443 21.2769C159.472 20.996 159.556 20.7237 159.691 20.4753C159.825 20.227 160.007 20.0076 160.227 19.8297Z" fill="#7DBDDB"/>
<path d="M0.363128 50.143C0.371594 50.7611 0.416849 51.3782 0.498649 51.991L3.74497 52.607L4.79217 55.687L2.57457 58.151C3.2121 59.2611 3.97475 60.2945 4.84761 61.231L7.82905 59.8018L10.5025 61.693L10.1514 64.9824C11.2798 65.4864 12.4619 65.8604 13.6749 66.0974L15.2642 63.1898H18.5474L20.1737 66.0727C21.4208 65.8113 22.634 65.4083 23.7896 64.8715L23.3954 61.5698L26.038 59.6232L29.0441 60.9907C29.8991 60.0526 30.6432 59.0191 31.2617 57.9107L28.9948 55.5022L29.9866 52.379L33.2206 51.7138C33.296 51.0554 33.331 50.3929 33.3253 49.7302C33.3146 49.1124 33.2714 48.4955 33.1959 47.8822L29.9435 47.2662L28.9086 44.1862L31.1385 41.7222C30.5062 40.6103 29.7453 39.5765 28.8716 38.6422L25.884 40.059L23.2106 38.1618L23.5802 34.8723C22.4183 34.348 21.1983 33.9634 19.9458 33.7266L18.3688 36.6341L15.0855 36.6649L13.4531 33.782C12.2048 34.0536 10.9917 34.467 9.83721 35.014L10.2684 38.2911L7.63809 40.25L4.62585 38.8886C3.77285 39.827 3.03082 40.8604 2.41441 41.9686L4.69361 44.3649L3.68337 47.5373L0.443206 48.2087C0.379516 48.8514 0.35278 49.4972 0.363128 50.143ZM12.0671 44.2971C13.183 43.3518 14.5541 42.7587 16.0071 42.5929C17.4601 42.4271 18.9297 42.696 20.2298 43.3655C21.53 44.0351 22.6023 45.0754 23.3111 46.3545C24.0199 47.6337 24.3333 49.0944 24.2117 50.5518C24.0901 52.0092 23.539 53.3977 22.628 54.5418C21.717 55.6858 20.4872 56.534 19.094 56.9789C17.7009 57.4237 16.2071 57.4454 14.8017 57.0411C13.3963 56.6368 12.1423 55.8247 11.1986 54.7075C9.94222 53.2127 9.3284 51.2814 9.49113 49.3355C9.65387 47.3896 10.5799 45.5872 12.0671 44.3218V44.2971Z" fill="#A6A1FF"/>
<path d="M162.611 71.7273C162.8 71.7715 162.998 71.7497 163.173 71.6657C163.348 71.5816 163.489 71.4404 163.572 71.2653C164.52 71.4822 165.416 71.8842 166.208 72.448C165.999 73.3782 166.418 73.5568 164.404 73.4829C164.36 73.181 164.182 72.9531 163.954 72.9408C163.726 72.9285 163.424 73.2303 163.4 73.6369C163.375 74.0434 163.578 74.3822 163.855 74.4007C164.133 74.4192 164.293 74.2098 164.379 73.9141C166.406 74.0126 165.95 74.0681 166.085 75.1091C165.218 75.598 164.275 75.9375 163.295 76.1132C163.245 75.9501 163.143 75.8076 163.006 75.7066C162.868 75.6057 162.702 75.5517 162.531 75.5526C162.124 75.6081 161.853 76.1255 161.915 76.7107C161.977 77.2959 162.383 77.7333 162.796 77.684C162.989 77.6263 163.156 77.5032 163.269 77.3357C163.381 77.1683 163.432 76.9669 163.412 76.7662C166.707 76.0762 166.319 76.4397 166.683 77.2466C166.304 77.5607 165.89 77.8314 165.451 78.0536C165.376 77.9446 165.266 77.8649 165.139 77.8278C165.012 77.7908 164.876 77.7987 164.755 77.8503C164.514 77.992 164.49 78.3924 164.699 78.7374C164.909 79.0823 165.272 79.2486 165.512 79.1008C165.609 79.0221 165.678 78.9137 165.707 78.7923C165.735 78.6709 165.724 78.5433 165.673 78.4294C166.092 78.1876 166.542 78.0013 167.009 77.875C167.428 78.6142 168.093 78.5772 165.636 80.8934C165.486 80.7739 165.3 80.7088 165.109 80.7088C164.918 80.7088 164.732 80.7739 164.582 80.8934C164.299 81.1952 164.428 81.7681 164.859 82.1746C165.291 82.5812 165.876 82.6613 166.153 82.3594C166.257 82.2119 166.309 82.0345 166.303 81.8543C166.296 81.6741 166.23 81.501 166.116 81.3615C168.58 79.1378 168.328 79.7106 169.264 80.3698C169.079 80.8661 168.837 81.3394 168.543 81.7804C168.419 81.7196 168.278 81.7023 168.143 81.7313C168.007 81.7604 167.886 81.8341 167.798 81.9406C167.662 82.187 167.841 82.5566 168.198 82.7414C168.555 82.9262 168.95 82.8954 169.085 82.649C169.124 82.5405 169.127 82.4227 169.095 82.3121C169.063 82.2016 168.997 82.1039 168.907 82.033C169.96 80.3944 169.763 80.801 170.681 81.1829C170.658 82.1564 170.477 83.1198 170.145 84.035C169.978 84.0161 169.809 84.0507 169.663 84.1337C169.517 84.2167 169.401 84.3439 169.332 84.497C169.208 84.8912 169.566 85.3532 170.132 85.5257C170.699 85.6982 171.26 85.5257 171.364 85.1314C171.389 84.927 171.341 84.7203 171.228 84.5479C171.116 84.3755 170.946 84.2484 170.748 84.189C171.771 81.0658 171.82 81.6387 172.849 81.725C172.957 82.2952 172.99 82.8771 172.948 83.4559C172.646 83.5175 172.43 83.7085 172.43 83.9364C172.43 84.1643 172.757 84.4477 173.157 84.4477C173.557 84.4477 173.896 84.2259 173.896 83.9426C173.896 83.6592 173.674 83.5175 173.379 83.4559C173.365 82.8807 173.442 82.307 173.607 81.7558C174.494 81.7558 174.802 81.1398 175.609 84.6325C175.43 84.6916 175.276 84.8098 175.173 84.9676C175.07 85.1254 175.024 85.3135 175.042 85.501C175.134 85.9014 175.658 86.117 176.274 85.9754C176.89 85.8337 177.241 85.3963 177.149 84.9959C177.08 84.8256 176.957 84.6829 176.799 84.5903C176.641 84.4977 176.456 84.4605 176.274 84.4846C175.929 82.9262 175.818 82.2917 175.972 81.4046C176.229 81.3189 176.482 81.2202 176.73 81.109C177.084 81.5365 177.384 82.0062 177.623 82.5073C177.524 82.5843 177.453 82.692 177.422 82.8136C177.391 82.9351 177.401 83.0635 177.45 83.1787C177.604 83.419 177.999 83.4374 178.344 83.2218C178.689 83.0062 178.843 82.6428 178.695 82.4026C178.609 82.3032 178.492 82.2362 178.363 82.2127C178.235 82.1891 178.101 82.2105 177.986 82.2732C177.717 81.8074 177.51 81.3083 177.37 80.7886C178.116 80.3698 178.073 79.6922 180.45 82.2424C180.327 82.3829 180.255 82.5612 180.246 82.7481C180.237 82.9351 180.292 83.1195 180.401 83.2711C180.684 83.573 181.264 83.4806 181.689 83.074C182.114 82.6674 182.243 82.0946 181.96 81.7927C181.814 81.6803 181.635 81.6194 181.451 81.6194C181.267 81.6194 181.089 81.6803 180.943 81.7927C178.338 78.7743 179.163 78.0967 181.264 79.2794C181.209 79.4123 181.202 79.5602 181.245 79.6975C181.288 79.8347 181.377 79.9527 181.498 80.031C181.756 80.1357 182.114 79.9201 182.249 79.5505C182.385 79.1809 182.317 78.7866 182.058 78.6758C181.946 78.6367 181.824 78.6367 181.712 78.6758C181.601 78.715 181.505 78.791 181.442 78.8914C180.992 78.6306 180.577 78.3116 180.21 77.9427C180.623 77.2282 180.247 76.6799 183.555 77.6902C183.531 77.8642 183.563 78.0414 183.648 78.1956C183.732 78.3498 183.864 78.4728 184.023 78.5464C184.417 78.6634 184.879 78.3 185.052 77.7333C185.224 77.1666 185.052 76.606 184.645 76.5013C184.451 76.4754 184.253 76.5169 184.085 76.6189C183.917 76.7208 183.788 76.8771 183.721 77.0618C182.298 76.606 181.689 76.3904 181.023 75.8606C181.094 75.552 181.145 75.2393 181.177 74.9243C181.745 74.8159 182.325 74.7827 182.902 74.8258C182.951 75.1399 183.142 75.3802 183.376 75.3863C183.61 75.3925 183.894 75.066 183.906 74.6656C183.918 74.2652 183.697 73.9264 183.413 73.9202C183.13 73.9141 183.001 74.1174 182.921 74.4007C182.343 74.411 181.768 74.332 181.214 74.1666C181.214 73.2734 180.598 72.9716 184.091 72.1585C184.165 72.3338 184.295 72.479 184.462 72.5707C184.629 72.6624 184.821 72.6951 185.009 72.6636C185.403 72.5342 185.569 71.9737 185.385 71.4316C185.2 70.8895 184.725 70.5199 184.337 70.6493C184.173 70.7292 184.04 70.8617 183.96 71.0257C183.879 71.1898 183.856 71.376 183.894 71.5548C180.512 72.2632 180.912 71.8998 180.543 71.0866C180.963 70.7385 181.425 70.4427 181.916 70.2058C182.011 70.3027 182.134 70.3661 182.267 70.3861C182.401 70.4062 182.537 70.3817 182.656 70.3166C182.871 70.1318 182.834 69.7376 182.569 69.4234C182.481 69.2832 182.343 69.1816 182.183 69.1393C182.023 69.097 181.853 69.1171 181.707 69.1955C181.628 69.2858 181.579 69.3992 181.57 69.519C181.56 69.6388 181.588 69.7586 181.652 69.8608C181.204 70.1271 180.723 70.3341 180.222 70.4768C179.804 69.7253 179.126 69.7684 181.701 67.366C181.865 67.4636 182.057 67.5026 182.246 67.4769C182.435 67.4512 182.61 67.3621 182.742 67.2243C182.982 66.8855 182.779 66.3373 182.298 65.9923C182.12 65.826 181.886 65.7335 181.642 65.7335C181.399 65.7335 181.164 65.826 180.986 65.9923C180.905 66.1512 180.878 66.3322 180.909 66.5079C180.94 66.6836 181.028 66.8443 181.159 66.9656C178.652 69.2202 178.917 68.6596 177.968 67.9943C178.161 67.482 178.413 66.994 178.719 66.5406C178.831 66.5895 178.956 66.5997 179.075 66.5696C179.193 66.5394 179.298 66.4707 179.372 66.3742C179.514 66.1278 179.372 65.7582 178.997 65.5611C178.867 65.4575 178.703 65.4075 178.538 65.4212C178.373 65.435 178.22 65.5115 178.11 65.635C178.06 65.7603 178.056 65.899 178.097 66.0272C178.139 66.1554 178.224 66.265 178.338 66.3373C178.072 66.8028 177.747 67.2315 177.37 67.6124C176.668 67.212 176.138 67.5631 177.075 64.403C177.274 64.456 177.486 64.4361 177.673 64.3469C177.859 64.2577 178.007 64.1051 178.091 63.9164C178.202 63.5222 177.82 63.0725 177.247 62.9185C176.674 62.7645 176.126 62.9616 176.015 63.362C175.994 63.5271 176.025 63.6947 176.103 63.8415C176.181 63.9883 176.304 64.1071 176.453 64.1813C176.235 65.1224 175.835 66.0119 175.276 66.7993C174.346 66.5898 174.167 67.0087 174.241 64.9513C174.568 64.8712 174.802 64.6433 174.777 64.3969C174.752 64.1505 174.401 63.9226 173.995 63.9657C173.588 64.0088 173.292 64.2614 173.317 64.5447C173.342 64.6587 173.404 64.7613 173.493 64.8369C173.582 64.9125 173.693 64.957 173.81 64.9636C173.711 66.9779 173.656 66.5221 172.615 66.6576C172.14 65.8193 171.809 64.9073 171.635 63.9595C171.814 63.9116 171.971 63.8057 172.083 63.6585C172.194 63.5113 172.254 63.3311 172.251 63.1464C172.19 62.7398 171.635 62.4811 171.075 62.5674C170.514 62.6536 170.065 63.0663 170.132 63.4729C170.185 63.6498 170.296 63.8039 170.446 63.9101C170.597 64.0163 170.78 64.0685 170.964 64.0581C171.272 65.481 171.377 66.097 171.229 66.9656C170.453 67.2182 170.502 67.6186 169.633 65.98C169.746 65.9035 169.83 65.7918 169.872 65.6626C169.915 65.5333 169.913 65.3937 169.868 65.2654C169.755 65.1433 169.599 65.0689 169.433 65.0575C169.267 65.046 169.103 65.0984 168.974 65.2038C168.629 65.4133 168.463 65.7767 168.611 66.017C168.683 66.1063 168.781 66.1705 168.892 66.2004C169.003 66.2302 169.12 66.2243 169.227 66.1833C170.089 67.8465 169.843 67.483 169.011 68.099C168.153 67.58 167.387 66.9222 166.744 66.1525C166.871 66.0162 166.948 65.8415 166.964 65.6561C166.98 65.4707 166.933 65.2855 166.831 65.1299C166.56 64.8219 165.981 64.8897 165.531 65.2778C165.328 65.4117 165.183 65.6179 165.125 65.8546C165.068 66.0913 165.103 66.3409 165.223 66.5529C165.381 66.6738 165.577 66.7347 165.775 66.7245C165.974 66.7144 166.162 66.6339 166.307 66.4974C168.617 69.0662 168.056 68.789 167.385 69.7438C166.904 69.5643 166.446 69.3307 166.018 69.0477C166.078 68.9432 166.101 68.8216 166.084 68.7023C166.068 68.5829 166.012 68.4725 165.925 68.3886C165.697 68.2222 165.309 68.3454 165.075 68.6658C164.841 68.9861 164.816 69.3926 165.038 69.559C165.161 69.619 165.3 69.6364 165.434 69.6085C165.568 69.5806 165.689 69.509 165.777 69.405C166.229 69.6597 166.643 69.9747 167.009 70.3413C166.609 71.0497 166.966 71.5733 163.794 70.6308C163.838 70.4589 163.824 70.2773 163.755 70.1138C163.686 69.9503 163.566 69.8139 163.412 69.7253C163.03 69.5713 162.537 69.8854 162.309 70.4398C162.185 70.6523 162.147 70.9042 162.203 71.1437C162.26 71.3832 162.406 71.5921 162.611 71.7273Z" fill="#7DBDDB"/>
<path d="M24.1049 73.2728C24.2152 73.2979 24.3308 73.2847 24.4326 73.2355C24.5345 73.1862 24.6166 73.1038 24.6655 73.0018C25.2164 73.1308 25.7372 73.3651 26.1993 73.6917C26.0761 74.2338 26.3163 74.3385 25.1459 74.3077C25.1447 74.2322 25.1178 74.1593 25.0697 74.1011C25.0215 74.0429 24.955 74.0028 24.8811 73.9874C24.7209 73.9874 24.5731 74.1599 24.5607 74.3939C24.5484 74.628 24.6655 74.8313 24.8256 74.8374C24.9004 74.8338 24.9715 74.8041 25.0267 74.7534C25.0818 74.7028 25.1175 74.6344 25.1275 74.5603C26.3102 74.6157 26.0453 74.6465 26.1254 75.2502C25.6236 75.5494 25.0732 75.7579 24.4991 75.8662C24.4684 75.7724 24.4091 75.6905 24.3296 75.632C24.2501 75.5734 24.1543 75.5412 24.0556 75.5397C23.8154 75.5397 23.6614 75.8723 23.7045 76.2173C23.7476 76.5623 23.9817 76.8333 24.2158 76.784C24.3278 76.7492 24.4244 76.677 24.4894 76.5794C24.5545 76.4818 24.584 76.3648 24.5731 76.2481C26.4888 75.8477 26.2609 76.0571 26.4765 76.5253C26.2556 76.711 26.0137 76.8702 25.7558 76.9996C25.7115 76.9367 25.6474 76.8903 25.5737 76.868C25.5 76.8457 25.421 76.8486 25.3492 76.8764C25.2829 76.9462 25.246 77.0389 25.246 77.1351C25.246 77.2314 25.2829 77.324 25.3492 77.3939C25.4724 77.5971 25.6819 77.6895 25.8235 77.6094C25.8793 77.5624 25.9185 77.4987 25.9351 77.4277C25.9518 77.3566 25.945 77.2821 25.9159 77.2152C26.1594 77.0746 26.4204 76.9669 26.6921 76.8949C26.9323 77.3261 27.3081 77.3014 25.8913 78.6505C25.8044 78.5794 25.6956 78.5406 25.5833 78.5406C25.471 78.5406 25.3622 78.5794 25.2753 78.6505C25.109 78.8291 25.1829 79.1618 25.4355 79.3959C25.525 79.506 25.653 79.5781 25.7937 79.5975C25.9343 79.617 26.077 79.5823 26.1931 79.5006C26.2508 79.4135 26.2789 79.3102 26.2734 79.206C26.2678 79.1017 26.2289 79.002 26.1623 78.9215C27.6099 77.6279 27.4559 77.9667 28.0103 78.3487C27.9045 78.6377 27.7638 78.9128 27.5915 79.1679C27.5201 79.1306 27.4379 79.1194 27.3592 79.1362C27.2804 79.1531 27.21 79.197 27.1603 79.2603C27.0802 79.402 27.1602 79.6114 27.3882 79.7285C27.6161 79.8455 27.8255 79.8147 27.9056 79.6731C27.9315 79.6085 27.9353 79.5373 27.9163 79.4704C27.8974 79.4035 27.8568 79.3448 27.8009 79.3034C28.4169 78.3486 28.2999 78.5827 28.8358 78.8045C28.8213 79.3722 28.7152 79.9338 28.5216 80.4677C28.4248 80.457 28.3271 80.4768 28.2421 80.5243C28.1571 80.5718 28.089 80.6446 28.0473 80.7326C27.9795 80.9667 28.189 81.2315 28.5155 81.3486C28.8419 81.4656 29.1746 81.3486 29.2423 81.1145C29.3101 80.8804 29.1561 80.6895 28.8974 80.5662C29.5134 78.7491 29.5134 79.0879 30.1294 79.1433C30.1928 79.4761 30.2114 79.8158 30.1848 80.1535C30.0123 80.1905 29.883 80.3014 29.883 80.4307C29.883 80.5601 30.0739 80.7264 30.308 80.7326C30.5421 80.7387 30.7331 80.5971 30.7392 80.4369C30.7454 80.2767 30.6098 80.1905 30.4374 80.1535C30.4301 79.8183 30.4737 79.4839 30.5667 79.1618C31.0842 79.1618 31.2628 78.7922 31.7371 80.8373C31.503 80.9482 31.3552 81.1515 31.4045 81.3424C31.4538 81.5334 31.7741 81.6997 32.1129 81.6196C32.4517 81.5395 32.6735 81.2808 32.618 81.0467C32.577 80.9482 32.5047 80.8659 32.4124 80.8125C32.32 80.759 32.2126 80.7375 32.1067 80.7511C31.9207 80.1687 31.8618 79.5532 31.9343 78.9462C32.0851 78.8968 32.2332 78.8392 32.3778 78.7737C32.5804 79.0244 32.7539 79.2971 32.8952 79.5868C32.8375 79.6324 32.7966 79.6958 32.7787 79.7671C32.7609 79.8385 32.7672 79.9137 32.7966 79.9811C32.8829 80.1227 33.117 80.1289 33.3141 79.9811C33.5112 79.8332 33.6036 79.6422 33.5174 79.5067C33.4693 79.4484 33.4026 79.4085 33.3284 79.3939C33.2543 79.3793 33.1774 79.3909 33.1108 79.4267C32.9511 79.1563 32.8268 78.8664 32.7412 78.5642C33.1786 78.3179 33.1539 77.9483 34.5399 79.4143C34.4655 79.4982 34.4219 79.6049 34.4163 79.7169C34.4107 79.8289 34.4434 79.9395 34.5091 80.0303C34.6257 80.1103 34.7684 80.1428 34.9081 80.121C35.0478 80.0992 35.1739 80.0249 35.2606 79.9133C35.3764 79.8321 35.4572 79.7102 35.4869 79.572C35.5166 79.4338 35.493 79.2895 35.4208 79.1679C35.3325 79.1 35.2242 79.0632 35.1128 79.0632C35.0014 79.0632 34.8931 79.1 34.8048 79.1679C33.2956 77.4123 33.7699 77.0058 34.9958 77.708C34.9623 77.7851 34.9576 77.8716 34.9824 77.9518C35.0073 78.0321 35.0601 78.1007 35.1313 78.1454C35.2853 78.207 35.4762 78.0838 35.5686 77.862C35.661 77.6403 35.6118 77.4185 35.4578 77.3569C35.3955 77.3392 35.3293 77.3416 35.2685 77.3637C35.2076 77.3859 35.1553 77.4266 35.119 77.4801C34.8525 77.3318 34.6079 77.1473 34.3921 76.9319C34.6323 76.513 34.3921 76.1927 36.3386 76.784C36.3238 76.8853 36.3429 76.9886 36.3931 77.0778C36.4432 77.167 36.5216 77.237 36.6159 77.2768C36.8438 77.3507 37.1087 77.1351 37.2319 76.8087C37.3551 76.4822 37.2319 76.1495 36.9978 76.0818C36.8847 76.0678 36.7703 76.0924 36.673 76.1517C36.5757 76.211 36.5013 76.3014 36.4619 76.4082C35.8976 76.2816 35.3639 76.0451 34.8911 75.7122C34.9293 75.5331 34.9581 75.3522 34.9773 75.1701C35.3077 75.1044 35.6454 75.0836 35.9814 75.1085C36.0122 75.2933 36.1231 75.4288 36.2586 75.435C36.3941 75.4411 36.5604 75.2502 36.5666 75.0161C36.5727 74.782 36.4434 74.5849 36.2832 74.5787C36.1231 74.5726 36.043 74.6958 35.9937 74.8621C35.6581 74.8681 35.3236 74.8224 35.0019 74.7266C35.0019 74.2091 34.6323 74.0305 36.6775 73.5562C36.7204 73.6587 36.7967 73.7436 36.8939 73.7973C36.9912 73.851 37.1038 73.8702 37.2134 73.8519C37.4413 73.7718 37.5337 73.4453 37.429 73.1188C37.3243 72.7923 37.0471 72.589 36.813 72.663C36.719 72.7105 36.643 72.7872 36.5963 72.8816C36.5497 72.9761 36.5349 73.0831 36.5543 73.1866C34.5892 73.6055 34.8171 73.3898 34.6077 72.9217C34.8506 72.7177 35.1175 72.5439 35.4023 72.4042C35.456 72.4625 35.5278 72.501 35.6061 72.5133C35.6844 72.5256 35.7646 72.511 35.8335 72.472C35.9629 72.3611 35.9383 72.1332 35.7843 71.9546C35.6303 71.7759 35.4085 71.7143 35.2853 71.8191C35.2378 71.8697 35.2084 71.9346 35.2017 72.0037C35.195 72.0728 35.2114 72.1422 35.2483 72.201C34.9896 72.3534 34.7121 72.4714 34.4229 72.5521C34.1765 72.1147 33.7761 72.1394 35.2791 70.7411C35.3757 70.7993 35.4892 70.8231 35.6011 70.8086C35.713 70.794 35.8166 70.742 35.8951 70.661C36.0306 70.4638 35.8951 70.1435 35.6303 69.9464C35.3654 69.7493 35.0143 69.7431 34.8726 69.9464C34.8236 70.0384 34.8067 70.144 34.8245 70.2467C34.8424 70.3493 34.894 70.4431 34.9711 70.5131C33.5112 71.8252 33.6652 71.4987 33.1231 71.1291C33.2374 70.8326 33.3841 70.5495 33.5605 70.2852C33.6262 70.3127 33.6991 70.3179 33.768 70.3001C33.837 70.2823 33.8982 70.2425 33.9424 70.1867C34.0286 70.045 33.9424 69.8355 33.7268 69.7123C33.5112 69.5891 33.2894 69.6138 33.2094 69.7554C33.1794 69.8285 33.176 69.9098 33.1996 69.9851C33.2232 70.0605 33.2724 70.1252 33.3387 70.1682C33.1865 70.439 32.9979 70.6877 32.7782 70.9074C32.3654 70.6733 32.0513 70.9074 32.6057 69.0594C32.7253 69.0942 32.8534 69.0847 32.9666 69.0327C33.0797 68.9806 33.1703 68.8895 33.2217 68.776C33.2833 68.5419 33.0677 68.2832 32.7289 68.197C32.3901 68.1107 32.0759 68.197 32.0143 68.4495C32.0013 68.5459 32.0186 68.644 32.0639 68.7301C32.1091 68.8162 32.1801 68.8861 32.2669 68.93C32.1426 69.4777 31.9102 69.995 31.5831 70.4515C31.041 70.3283 30.9363 70.5747 30.9671 69.392C31.1581 69.3427 31.2936 69.2072 31.2813 69.0655C31.269 68.9239 31.0595 68.7883 30.8255 68.813C30.5914 68.8376 30.4127 68.9855 30.4312 69.1518C30.4497 69.3181 30.5606 69.3674 30.7207 69.3982C30.6591 70.5686 30.6283 70.3037 30.0246 70.3776C29.7448 69.893 29.551 69.3637 29.4518 68.813C29.692 68.7144 29.846 68.5296 29.8214 68.3387C29.7967 68.1477 29.4764 67.9506 29.1376 67.9999C28.7988 68.0491 28.5216 68.2894 28.5832 68.5296C28.6147 68.6324 28.6798 68.7216 28.768 68.783C28.8563 68.8445 28.9625 68.8745 29.0699 68.8684C29.2404 69.4158 29.2929 69.9932 29.2239 70.5624C28.7742 70.7041 28.7988 70.9443 28.2937 69.9895C28.3615 69.9464 28.4122 69.881 28.437 69.8045C28.4617 69.728 28.459 69.6453 28.4292 69.5707C28.3491 69.429 28.1151 69.4166 27.9118 69.5337C27.7085 69.6507 27.6161 69.8663 27.6962 70.008C27.74 70.0625 27.8001 70.1015 27.8678 70.1193C27.9354 70.137 28.007 70.1326 28.0719 70.1066C28.5709 71.0737 28.4292 70.8581 27.9487 71.2215C27.4507 70.9178 27.0054 70.535 26.6305 70.0881C26.7088 70.007 26.7565 69.9013 26.7655 69.7889C26.7744 69.6766 26.7442 69.5646 26.6798 69.4721C26.5659 69.3882 26.4245 69.3505 26.284 69.3665C26.1435 69.3825 26.0142 69.451 25.9221 69.5583C25.6634 69.7924 25.5833 70.1189 25.7435 70.2975C25.8299 70.3697 25.9389 70.4092 26.0515 70.4092C26.164 70.4092 26.273 70.3697 26.3595 70.2975C27.7023 71.7944 27.3759 71.6343 26.9755 72.1887C26.6963 72.083 26.4298 71.9466 26.1808 71.7821C26.2154 71.7213 26.2287 71.6508 26.2186 71.5816C26.2086 71.5124 26.1758 71.4486 26.1254 71.4002C25.996 71.3016 25.7743 71.4002 25.6326 71.5603C25.4909 71.7205 25.4847 71.9792 25.6326 72.0778C25.7023 72.1154 25.783 72.1273 25.8607 72.1116C25.9384 72.0958 26.008 72.0533 26.0576 71.9915C26.3211 72.139 26.5636 72.3213 26.7783 72.5336C26.5381 72.9463 26.7783 73.2605 24.9303 72.7061C24.9575 72.6057 24.9504 72.4991 24.9102 72.4032C24.8701 72.3073 24.7991 72.2275 24.7086 72.1763C24.4868 72.0839 24.2035 72.2687 24.0926 72.5891C24.0179 72.688 23.9785 72.8091 23.9807 72.9331C23.983 73.057 24.0267 73.1766 24.1049 73.2728Z" fill="#3B4AE4"/>
<path d="M194.476 126.295C194.557 126.313 194.641 126.303 194.716 126.268C194.791 126.232 194.852 126.172 194.888 126.098C195.291 126.192 195.672 126.363 196.009 126.603C195.923 126.997 196.096 127.077 195.239 127.046C195.239 126.917 195.147 126.818 195.048 126.812C194.95 126.806 194.821 126.935 194.808 127.108C194.796 127.28 194.888 127.428 195.005 127.434C195.122 127.44 195.19 127.354 195.227 127.231C196.096 127.268 195.899 127.293 195.954 127.736C195.588 127.948 195.188 128.093 194.771 128.167C194.697 128.007 194.574 127.909 194.445 127.927C194.315 127.946 194.155 128.173 194.186 128.42C194.217 128.666 194.383 128.857 194.562 128.833C194.74 128.808 194.814 128.648 194.821 128.444C196.225 128.149 196.053 128.303 196.213 128.648C196.053 128.783 195.877 128.899 195.689 128.993C195.656 128.946 195.608 128.913 195.553 128.897C195.498 128.881 195.44 128.885 195.387 128.906C195.289 128.968 195.276 129.134 195.387 129.282C195.498 129.43 195.628 129.498 195.732 129.436C195.773 129.403 195.802 129.357 195.814 129.306C195.826 129.255 195.821 129.201 195.8 129.153C195.977 129.049 196.168 128.97 196.367 128.919C196.545 129.233 196.829 129.214 195.782 130.2C195.717 130.15 195.638 130.122 195.557 130.122C195.475 130.122 195.396 130.15 195.332 130.2C195.215 130.329 195.27 130.57 195.455 130.742C195.64 130.915 195.886 130.952 196.003 130.822C196.05 130.761 196.075 130.687 196.075 130.61C196.075 130.533 196.05 130.458 196.003 130.397C197.063 129.449 196.946 129.695 197.346 129.978C197.27 130.196 197.166 130.403 197.038 130.594C196.986 130.569 196.926 130.561 196.869 130.574C196.812 130.586 196.761 130.617 196.724 130.662C196.669 130.767 196.724 130.921 196.89 131.007C196.948 131.048 197.019 131.066 197.089 131.058C197.16 131.05 197.225 131.017 197.272 130.964C197.289 130.917 197.291 130.865 197.278 130.817C197.264 130.768 197.237 130.725 197.198 130.693C197.642 129.997 197.562 130.163 197.95 130.329C197.942 130.75 197.865 131.166 197.722 131.561C197.651 131.554 197.579 131.569 197.518 131.604C197.456 131.64 197.406 131.694 197.377 131.759C197.322 131.931 197.476 132.128 197.716 132.202C197.956 132.276 198.196 132.202 198.252 132.03C198.307 131.857 198.184 131.722 197.999 131.629C198.43 130.299 198.455 130.545 198.892 130.588C198.941 130.831 198.955 131.08 198.935 131.327C198.806 131.327 198.714 131.432 198.714 131.531C198.714 131.629 198.855 131.746 199.028 131.746C199.2 131.746 199.336 131.654 199.342 131.531C199.348 131.407 199.243 131.352 199.12 131.327C199.113 131.081 199.146 130.836 199.219 130.6C199.595 130.6 199.724 130.329 200.069 131.832C199.992 131.856 199.926 131.906 199.882 131.974C199.838 132.041 199.819 132.122 199.829 132.202C199.866 132.375 200.1 132.461 200.346 132.405C200.593 132.35 200.759 132.159 200.716 131.986C200.673 131.814 200.531 131.771 200.346 131.771C200.208 131.346 200.164 130.896 200.217 130.453C200.326 130.416 200.433 130.373 200.537 130.323C200.692 130.51 200.821 130.717 200.919 130.939C200.877 130.972 200.847 131.017 200.834 131.068C200.82 131.12 200.824 131.174 200.845 131.223C200.913 131.327 201.079 131.334 201.227 131.223C201.375 131.112 201.443 130.976 201.375 130.878C201.307 130.779 201.202 130.773 201.073 130.816C200.958 130.623 200.869 130.416 200.808 130.2C201.128 130.021 201.11 129.732 202.126 130.816C202.078 130.879 202.052 130.956 202.052 131.035C202.052 131.114 202.078 131.191 202.126 131.253C202.213 131.31 202.318 131.333 202.42 131.317C202.522 131.301 202.615 131.248 202.681 131.167C202.859 130.995 202.915 130.748 202.792 130.625C202.73 130.576 202.654 130.549 202.576 130.549C202.498 130.549 202.422 130.576 202.36 130.625C201.252 129.338 201.603 129.042 202.496 129.553C202.473 129.61 202.47 129.673 202.488 129.731C202.506 129.789 202.544 129.84 202.594 129.874C202.705 129.917 202.847 129.83 202.915 129.67C202.951 129.609 202.963 129.536 202.948 129.467C202.933 129.397 202.893 129.336 202.835 129.295C202.788 129.282 202.739 129.284 202.694 129.301C202.649 129.317 202.61 129.347 202.582 129.387C202.39 129.275 202.213 129.14 202.052 128.987C202.231 128.679 202.052 128.445 203.482 128.876C203.47 128.95 203.483 129.025 203.518 129.091C203.554 129.157 203.61 129.209 203.679 129.239C203.851 129.295 204.042 129.134 204.116 128.894C204.19 128.654 204.116 128.414 203.944 128.364C203.771 128.315 203.642 128.426 203.549 128.605C203.139 128.508 202.75 128.334 202.404 128.093C202.404 127.964 202.453 127.828 202.465 127.693C202.706 127.645 202.953 127.63 203.198 127.65C203.198 127.785 203.303 127.884 203.401 127.89C203.5 127.896 203.623 127.755 203.629 127.582C203.636 127.41 203.537 127.268 203.42 127.268C203.303 127.268 203.241 127.348 203.21 127.471C202.965 127.476 202.719 127.443 202.484 127.373C202.484 126.991 202.213 126.861 203.716 126.516C203.747 126.59 203.803 126.651 203.873 126.69C203.943 126.729 204.024 126.744 204.104 126.732C204.27 126.677 204.344 126.436 204.264 126.196C204.184 125.956 203.987 125.808 203.82 125.863C203.75 125.896 203.693 125.952 203.659 126.021C203.624 126.091 203.614 126.17 203.629 126.245C202.188 126.547 202.36 126.393 202.206 126.048C202.383 125.9 202.578 125.774 202.785 125.672C202.825 125.716 202.879 125.744 202.938 125.752C202.996 125.76 203.056 125.747 203.106 125.716C203.147 125.659 203.166 125.59 203.159 125.521C203.152 125.451 203.12 125.387 203.069 125.34C203.03 125.281 202.971 125.239 202.903 125.221C202.835 125.203 202.762 125.21 202.699 125.241C202.67 125.283 202.654 125.332 202.654 125.383C202.654 125.434 202.67 125.483 202.699 125.525C202.506 125.636 202.299 125.721 202.083 125.777C201.905 125.457 201.615 125.482 202.699 124.453C202.77 124.496 202.853 124.514 202.935 124.503C203.017 124.491 203.093 124.452 203.149 124.391C203.247 124.25 203.149 124.015 202.958 123.874C202.882 123.803 202.782 123.764 202.678 123.764C202.574 123.764 202.474 123.803 202.397 123.874C202.362 123.941 202.349 124.018 202.363 124.093C202.376 124.168 202.414 124.236 202.471 124.286C201.399 125.247 201.516 125.007 201.11 124.724C201.194 124.507 201.301 124.301 201.43 124.108C201.478 124.127 201.531 124.13 201.581 124.117C201.631 124.103 201.675 124.074 201.707 124.034C201.769 123.929 201.707 123.775 201.553 123.689C201.497 123.645 201.427 123.624 201.357 123.63C201.286 123.636 201.22 123.668 201.172 123.72C201.152 123.774 201.151 123.833 201.169 123.888C201.187 123.942 201.222 123.989 201.27 124.022C201.157 124.22 201.018 124.402 200.857 124.564C200.556 124.391 200.328 124.564 200.734 123.196C200.819 123.216 200.908 123.206 200.987 123.168C201.065 123.129 201.128 123.066 201.165 122.987C201.208 122.82 201.048 122.629 200.808 122.562C200.568 122.494 200.328 122.562 200.278 122.753C200.271 122.824 200.285 122.895 200.319 122.958C200.353 123.021 200.406 123.072 200.469 123.104C200.374 123.504 200.202 123.883 199.964 124.219C199.57 124.126 199.49 124.305 199.527 123.436C199.662 123.406 199.761 123.307 199.749 123.202C199.736 123.098 199.588 122.999 199.422 123.018C199.256 123.036 199.12 123.141 199.133 123.264C199.143 123.312 199.169 123.356 199.207 123.388C199.245 123.421 199.292 123.44 199.342 123.443C199.299 124.299 199.274 124.108 198.831 124.163C198.627 123.808 198.486 123.42 198.412 123.018C198.59 122.944 198.701 122.808 198.683 122.666C198.664 122.525 198.43 122.383 198.184 122.42C197.938 122.457 197.753 122.636 197.777 122.808C197.802 122.883 197.85 122.947 197.914 122.992C197.979 123.036 198.056 123.058 198.135 123.054C198.256 123.453 198.294 123.873 198.246 124.286C197.913 124.397 197.938 124.57 197.568 123.868C197.616 123.836 197.653 123.789 197.671 123.734C197.689 123.679 197.687 123.62 197.666 123.566C197.615 123.517 197.547 123.49 197.476 123.49C197.404 123.49 197.336 123.517 197.285 123.566C197.137 123.652 197.069 123.806 197.131 123.911C197.161 123.951 197.205 123.98 197.254 123.993C197.303 124.005 197.356 124 197.402 123.978C197.771 124.687 197.666 124.533 197.309 124.798C196.946 124.572 196.62 124.292 196.342 123.966C196.397 123.909 196.431 123.834 196.439 123.755C196.447 123.676 196.428 123.596 196.385 123.529C196.268 123.399 196.022 123.43 195.831 123.597C195.64 123.763 195.578 124.003 195.695 124.139C195.758 124.187 195.835 124.213 195.914 124.213C195.993 124.213 196.07 124.187 196.133 124.139C197.118 125.235 196.878 125.118 196.595 125.525C196.389 125.448 196.193 125.348 196.009 125.229C196.034 125.183 196.043 125.131 196.035 125.08C196.027 125.029 196.003 124.982 195.966 124.946C195.874 124.878 195.714 124.946 195.609 125.069C195.504 125.192 195.498 125.377 195.609 125.445C195.661 125.471 195.72 125.479 195.777 125.468C195.834 125.457 195.885 125.427 195.923 125.383C196.115 125.489 196.291 125.622 196.447 125.777C196.274 126.079 196.447 126.313 195.079 125.907C195.097 125.833 195.091 125.755 195.061 125.685C195.031 125.615 194.979 125.556 194.913 125.518C194.753 125.451 194.543 125.586 194.445 125.82C194.346 126.054 194.315 126.252 194.476 126.295Z" fill="#A6A1FF"/>
<path d="M47.2289 179.287C47.3385 179.315 47.4545 179.304 47.5568 179.256C47.6591 179.207 47.7414 179.125 47.7894 179.022C48.3418 179.147 48.8634 179.382 49.3233 179.712C49.2062 180.248 49.4465 180.328 48.2761 180.328C48.2761 180.156 48.1467 180.02 48.0112 180.014C47.8757 180.008 47.7032 180.186 47.6909 180.421C47.6785 180.655 47.7956 180.852 47.9557 180.864C48.1159 180.876 48.2083 180.753 48.2576 180.581C49.4403 180.642 49.1754 180.673 49.2555 181.277C48.7492 181.56 48.1998 181.758 47.6293 181.862C47.601 181.767 47.5425 181.683 47.4624 181.624C47.3823 181.565 47.2852 181.534 47.1857 181.536C46.9455 181.536 46.7915 181.868 46.8346 182.213C46.8777 182.558 47.1057 182.829 47.3459 182.774C47.5861 182.718 47.697 182.521 47.7032 182.238C49.6189 181.837 49.391 182.047 49.6066 182.521C49.3841 182.703 49.1425 182.86 48.8859 182.989C48.8422 182.926 48.7778 182.879 48.7036 182.858C48.6294 182.836 48.5502 182.842 48.4793 182.872C48.3377 182.959 48.3253 183.186 48.4485 183.39C48.5717 183.593 48.7812 183.685 48.9229 183.599C48.9788 183.554 49.0178 183.491 49.0335 183.42C49.0491 183.35 49.0405 183.276 49.0091 183.211C49.2551 183.07 49.518 182.96 49.7914 182.885C50.0317 183.316 50.4074 183.297 48.9906 184.64C48.9037 184.569 48.7949 184.53 48.6826 184.53C48.5704 184.53 48.4615 184.569 48.3746 184.64C48.2083 184.813 48.2822 185.151 48.5348 185.386C48.7873 185.62 49.1508 185.669 49.2863 185.49C49.3502 185.407 49.3849 185.305 49.3849 185.201C49.3849 185.096 49.3502 184.994 49.2863 184.911C50.7339 183.618 50.5737 183.95 51.1343 184.332C51.0274 184.623 50.8868 184.9 50.7154 185.158C50.6441 185.12 50.5619 185.109 50.4831 185.126C50.4044 185.143 50.334 185.187 50.2842 185.25C50.2041 185.392 50.2842 185.601 50.5121 185.712C50.5887 185.771 50.6846 185.798 50.7805 185.789C50.8765 185.78 50.9655 185.735 51.0296 185.663C51.0549 185.597 51.0584 185.525 51.0395 185.457C51.0206 185.39 50.9804 185.33 50.9249 185.287C51.5409 184.338 51.4238 184.566 51.9597 184.794C51.9451 185.36 51.839 185.919 51.6456 186.451C51.548 186.44 51.4494 186.46 51.3641 186.509C51.2788 186.558 51.2112 186.633 51.1713 186.722C51.0973 186.95 51.3129 187.221 51.6394 187.338C51.9659 187.455 52.2924 187.338 52.3663 187.11C52.4402 186.882 52.2801 186.685 52.0213 186.562C52.6373 184.714 52.6373 185.078 53.2533 185.139C53.3137 185.47 53.3323 185.808 53.3088 186.143C53.1363 186.18 53.0069 186.291 53.0069 186.427C53.0069 186.562 53.1979 186.722 53.432 186.722C53.6661 186.722 53.857 186.593 53.857 186.427C53.857 186.26 53.7338 186.18 53.5552 186.143C53.5496 185.81 53.5953 185.477 53.6907 185.158C54.2081 185.158 54.3868 184.788 54.8611 186.827C54.6209 186.944 54.4792 187.141 54.5223 187.332C54.5654 187.523 54.8981 187.689 55.2369 187.609C55.5757 187.529 55.7974 187.277 55.742 187.043C55.702 186.943 55.6302 186.859 55.5377 186.805C55.4452 186.75 55.3373 186.728 55.2307 186.741C55.0448 186.161 54.9859 185.547 55.0582 184.942C55.2061 184.893 55.3539 184.831 55.4956 184.77C55.7041 185.017 55.8801 185.29 56.0192 185.583C55.9606 185.628 55.919 185.691 55.9011 185.763C55.8832 185.834 55.8901 185.91 55.9206 185.977C55.9911 186.042 56.0835 186.078 56.1793 186.078C56.2752 186.078 56.3675 186.042 56.4381 185.977C56.6352 185.848 56.7276 185.638 56.6413 185.496C56.5908 185.44 56.5226 185.401 56.4478 185.388C56.3729 185.375 56.2957 185.387 56.2286 185.422C56.0729 185.151 55.9508 184.861 55.8652 184.56C56.3025 184.314 56.2779 183.944 57.6639 185.404C57.5928 185.491 57.554 185.6 57.554 185.712C57.554 185.824 57.5928 185.933 57.6639 186.02C57.8302 186.192 58.1629 186.143 58.4154 185.909C58.668 185.675 58.7357 185.336 58.5694 185.164C58.4835 185.09 58.3743 185.05 58.2614 185.05C58.1485 185.05 58.0393 185.09 57.9534 185.164C56.4381 183.408 56.9185 183.002 58.1444 183.698C58.1109 183.775 58.1062 183.861 58.131 183.942C58.1559 184.022 58.2087 184.09 58.2799 184.135C58.4277 184.203 58.6249 184.073 58.7173 183.858C58.8097 183.642 58.7542 183.414 58.6064 183.353C58.5442 183.333 58.4773 183.334 58.416 183.357C58.3548 183.379 58.3026 183.421 58.2676 183.476C58.002 183.324 57.7576 183.137 57.5407 182.922C57.7809 182.503 57.5407 182.189 59.4873 182.774C59.4736 182.875 59.4925 182.978 59.5412 183.067C59.5899 183.157 59.666 183.229 59.7583 183.273C59.9924 183.34 60.2573 183.131 60.3743 182.798C60.4913 182.466 60.3743 182.145 60.1402 182.078C59.9061 182.01 59.7275 182.158 59.6043 182.404C59.0395 182.276 58.5057 182.037 58.0335 181.702C58.0722 181.523 58.101 181.342 58.1197 181.16C58.4505 181.097 58.7881 181.078 59.1238 181.104C59.1238 181.283 59.2655 181.425 59.401 181.425C59.5365 181.425 59.7029 181.246 59.709 181.006C59.7152 180.766 59.5858 180.581 59.4257 180.575C59.2655 180.568 59.1793 180.685 59.1361 180.852C58.8006 180.858 58.4661 180.812 58.1444 180.716C58.1444 180.199 57.7748 180.026 59.8199 179.552C59.8618 179.654 59.9372 179.738 60.0336 179.79C60.13 179.843 60.2416 179.861 60.3497 179.842C60.5776 179.768 60.6761 179.441 60.5714 179.115C60.4667 178.788 60.1895 178.579 59.9554 178.659C59.8601 178.705 59.7828 178.781 59.7359 178.876C59.689 178.971 59.6752 179.079 59.6967 179.182C57.7255 179.595 57.9596 179.386 57.7501 178.911C57.9926 178.708 58.2595 178.537 58.5448 178.4C58.5979 178.459 58.6703 178.498 58.7492 178.509C58.828 178.521 58.9083 178.504 58.976 178.462C59.0346 178.385 59.0621 178.289 59.0529 178.193C59.0438 178.097 58.9987 178.008 58.9267 177.944C58.7727 177.766 58.5509 177.704 58.4277 177.815C58.3802 177.866 58.3509 177.93 58.3442 178C58.3375 178.069 58.3539 178.138 58.3908 178.197C58.1306 178.349 57.8508 178.465 57.5592 178.542C57.3128 178.111 56.9432 178.135 58.4216 176.737C58.5178 176.798 58.6326 176.823 58.7454 176.807C58.8582 176.791 58.9618 176.736 59.0376 176.651C59.1793 176.46 59.0376 176.139 58.7789 175.936C58.6751 175.84 58.5387 175.786 58.3969 175.786C58.2552 175.786 58.1188 175.84 58.015 175.936C57.9688 176.029 57.9541 176.135 57.973 176.237C57.9919 176.339 58.0433 176.432 58.1197 176.503C56.6598 177.809 56.8138 177.482 56.2717 177.119C56.3856 176.82 56.5323 176.535 56.7091 176.269C56.7746 176.297 56.8478 176.303 56.917 176.285C56.9862 176.267 57.0475 176.227 57.091 176.17C57.1711 176.035 57.091 175.819 56.8754 175.702C56.6598 175.585 56.4381 175.603 56.358 175.739C56.3281 175.812 56.3246 175.893 56.3482 175.969C56.3718 176.044 56.4211 176.109 56.4873 176.152C56.3327 176.423 56.1444 176.673 55.9268 176.897C55.5141 176.663 55.1999 176.866 55.7543 175.049C55.8731 175.086 56.0012 175.078 56.1146 175.027C56.228 174.976 56.3189 174.885 56.3703 174.772C56.4319 174.538 56.2101 174.279 55.8775 174.187C55.5449 174.094 55.2245 174.187 55.1629 174.445C55.1494 174.541 55.1665 174.638 55.2119 174.724C55.2573 174.809 55.3286 174.878 55.4155 174.92C55.2911 175.469 55.0587 175.988 54.7317 176.447C54.1897 176.324 54.1157 176.564 54.1157 175.382C54.3067 175.339 54.4422 175.203 54.4299 175.061C54.4176 174.92 54.2081 174.784 53.9741 174.809C53.74 174.833 53.5613 174.981 53.5798 175.141C53.5933 175.208 53.6284 175.268 53.6796 175.313C53.7308 175.357 53.7954 175.384 53.8632 175.388C53.8077 176.558 53.7769 176.293 53.1733 176.373C52.8925 175.887 52.6987 175.356 52.6004 174.803C52.7056 174.776 52.7988 174.715 52.8648 174.629C52.9308 174.543 52.9657 174.437 52.9638 174.328C52.9638 174.094 52.625 173.94 52.2801 173.996C51.9351 174.051 51.6641 174.285 51.7318 174.519C51.7641 174.622 51.8291 174.711 51.917 174.774C52.0049 174.836 52.1108 174.868 52.2185 174.864C52.3874 175.41 52.4378 175.985 52.3663 176.552C51.9228 176.7 51.9474 176.934 51.4423 175.979C51.5097 175.937 51.5601 175.873 51.5849 175.797C51.6097 175.722 51.6072 175.64 51.5778 175.566C51.5129 175.495 51.4228 175.451 51.3265 175.444C51.2301 175.438 51.1348 175.468 51.0604 175.53C50.9711 175.567 50.8992 175.636 50.8591 175.724C50.8191 175.812 50.814 175.912 50.8448 176.004C50.8888 176.058 50.9493 176.097 51.0171 176.113C51.085 176.13 51.1564 176.124 51.2205 176.096C51.7195 177.063 51.5778 176.854 51.0973 177.211C50.5954 176.91 50.1477 176.527 49.7729 176.078C49.8543 175.999 49.9047 175.893 49.9149 175.78C49.925 175.667 49.8944 175.554 49.8284 175.462C49.7145 175.378 49.5731 175.34 49.4326 175.356C49.2921 175.372 49.1628 175.441 49.0707 175.548C48.812 175.776 48.7319 176.109 48.8921 176.287C48.9795 176.357 49.0881 176.395 49.2001 176.395C49.312 176.395 49.4207 176.357 49.5081 176.287C50.8509 177.778 50.5245 177.618 50.1241 178.172C49.8449 178.069 49.5783 177.935 49.3294 177.772C49.3625 177.71 49.3749 177.638 49.3649 177.569C49.355 177.499 49.3231 177.434 49.274 177.384C49.1446 177.285 48.9229 177.384 48.7812 177.55C48.7162 177.621 48.6802 177.713 48.6802 177.809C48.6802 177.905 48.7162 177.997 48.7812 178.067C48.8513 178.106 48.9329 178.117 49.0109 178.1C49.0889 178.083 49.1583 178.039 49.2062 177.975C49.4682 178.124 49.7086 178.309 49.9208 178.523C49.6867 178.93 49.9208 179.25 48.0728 178.69C48.0984 178.59 48.0906 178.485 48.0505 178.39C48.0104 178.296 47.9403 178.217 47.851 178.166C47.6293 178.074 47.3459 178.258 47.235 178.579C47.1241 178.899 47.0071 179.226 47.2289 179.287Z" fill="#A6A1FF"/>
<mask id="mask0_5_2158" style="mask-type:luminance" maskUnits="userSpaceOnUse" x="47" y="24" width="119" height="199">
<path d="M136.865 33.2364L165.078 198.263C165.203 198.991 165.254 199.73 165.232 200.468C165.223 200.814 165.194 201.16 165.146 201.503L165.047 202.119C164.863 203.133 164.527 204.113 164.049 205.027C163.812 205.495 163.538 205.944 163.23 206.369C162.928 206.804 162.594 207.216 162.232 207.601C162.053 207.786 161.831 207.996 161.579 208.217L161.48 208.31C161.271 208.495 161.049 208.679 160.821 208.846L160.655 208.957C160.262 209.233 159.85 209.482 159.423 209.702L159.281 209.776C158.942 209.942 158.622 210.084 158.314 210.213C157.619 210.474 156.902 210.668 156.17 210.792L88.4843 222.348C87.7198 222.481 86.9433 222.53 86.1682 222.496C85.9094 222.496 85.6446 222.465 85.392 222.435C84.8048 222.366 84.224 222.25 83.6549 222.09C83.3838 222.003 83.1066 221.917 82.8664 221.819C82.7247 221.769 82.62 221.732 82.5276 221.689L82.4537 221.659C82.2504 221.578 82.0102 221.468 81.7206 221.32C80.9468 220.917 80.2215 220.427 79.5585 219.86C79.2813 219.62 79.041 219.392 78.8131 219.158C78.4518 218.769 78.1164 218.358 77.809 217.926C77.4278 217.395 77.0978 216.83 76.8234 216.238L76.7495 216.084C76.3803 215.246 76.1135 214.367 75.9549 213.466L47.7606 48.4331C47.2825 45.5924 47.9513 42.678 49.6202 40.3299C51.2892 37.9819 53.8217 36.3922 56.6618 35.9099L124.366 24.3414C127.202 23.872 130.109 24.5441 132.45 26.2108C134.792 27.8775 136.379 30.4033 136.865 33.2364Z" fill="white"/>
</mask>
<g mask="url(#mask0_5_2158)">
<path d="M51.4003 203.533C51.391 203.715 51.391 203.898 51.4003 204.081L52.3428 204.272L52.6262 205.183L51.9671 205.88C52.1381 206.203 52.3447 206.507 52.5831 206.785L53.4578 206.385L54.2216 206.951L54.0984 207.906C54.4244 208.061 54.7676 208.177 55.121 208.251L55.6014 207.42H56.5501L57.0121 208.27C57.3747 208.202 57.7282 208.092 58.0654 207.943L57.9669 206.988L58.7431 206.44L59.6116 206.853C59.869 206.586 60.0925 206.288 60.2769 205.966L59.6301 205.251L59.9381 204.352L60.8867 204.179C60.9115 203.987 60.9238 203.794 60.9237 203.6C60.9361 203.424 60.9361 203.247 60.9237 203.071L59.9812 202.873L59.704 201.962L60.3631 201.266C60.1921 200.942 59.9855 200.638 59.7471 200.36L58.8724 200.754L58.1086 200.188L58.2318 199.233C57.8985 199.072 57.5468 198.952 57.1846 198.876L56.7041 199.713H55.7554L55.2934 198.863C54.9311 198.935 54.5778 199.046 54.2401 199.196L54.3448 200.151L53.5625 200.705L52.7001 200.292C52.4437 200.56 52.2203 200.858 52.0348 201.179L52.6816 201.894L52.3798 202.793L51.4311 202.972C51.4115 203.158 51.4012 203.345 51.4003 203.533ZM54.8438 201.906C55.1737 201.64 55.575 201.478 55.9971 201.44C56.4191 201.402 56.843 201.49 57.215 201.693C57.5871 201.896 57.8907 202.204 58.0875 202.58C58.2844 202.955 58.3655 203.38 58.3208 203.802C58.2761 204.223 58.1075 204.622 57.8363 204.947C57.5651 205.273 57.2035 205.511 56.7971 205.631C56.3908 205.751 55.9579 205.748 55.5532 205.622C55.1486 205.497 54.7902 205.254 54.5234 204.925C54.346 204.706 54.2134 204.454 54.1335 204.183C54.0535 203.913 54.0276 203.629 54.0574 203.349C54.0871 203.069 54.1719 202.797 54.3069 202.549C54.4418 202.302 54.6243 202.083 54.8438 201.906Z" fill="#B099FF"/>
<path d="M127.347 70.5359L66.1724 80.8828L73.461 123.976L134.636 113.629L127.347 70.5359Z" fill="white"/>
<path d="M127.347 70.5359L66.1724 80.8828L67.7678 90.3153L128.942 79.9684L127.347 70.5359Z" fill="#A6A1FF"/>
<path d="M123.418 89.4029L93.7905 94.4141L94.1162 96.3394L123.744 91.3283L123.418 89.4029Z" fill="#7DBDDB"/>
<path d="M124.091 93.3482L94.463 98.3594L94.7887 100.285L124.416 95.2736L124.091 93.3482Z" fill="#7DBDDB"/>
<path d="M118.418 98.3611L95.1248 102.301L95.4473 104.208L118.74 100.268L118.418 98.3611Z" fill="#7DBDDB"/>
<path d="M112.768 103.634L96.8757 106.363L97.2077 108.296L113.1 105.567L112.768 103.634Z" fill="#7DBDDB"/>
<path d="M90.3365 94.9233L74.0164 97.6836L76.4017 111.787L92.7219 109.026L90.3365 94.9233Z" fill="#3B4AE4"/>
<path d="M73.3294 84.727C73.361 84.9097 73.3376 85.0976 73.2623 85.2669C73.187 85.4363 73.0631 85.5795 72.9063 85.6784C72.7495 85.7773 72.5669 85.8275 72.3816 85.8225C72.1963 85.8175 72.0167 85.7576 71.8654 85.6505C71.7142 85.5433 71.5982 85.3937 71.532 85.2205C71.4659 85.0473 71.4527 84.8584 71.494 84.6777C71.5354 84.497 71.6294 84.3326 71.7642 84.2054C71.8991 84.0782 72.0686 83.9939 72.2514 83.9632C72.3724 83.942 72.4964 83.945 72.6162 83.972C72.7361 83.999 72.8494 84.0494 72.9496 84.1204C73.0498 84.1914 73.135 84.2816 73.2002 84.3857C73.2654 84.4898 73.3093 84.6058 73.3294 84.727Z" fill="white"/>
<path d="M76.8356 84.1362C76.8672 84.3188 76.8439 84.5068 76.7685 84.6761C76.6932 84.8455 76.5693 84.9887 76.4126 85.0876C76.2558 85.1865 76.0732 85.2367 75.8879 85.2317C75.7026 85.2267 75.5229 85.1668 75.3717 85.0597C75.2204 84.9525 75.1044 84.8029 75.0383 84.6297C74.9722 84.4565 74.9589 84.2676 75.0003 84.0869C75.0416 83.9062 75.1356 83.7418 75.2705 83.6146C75.4053 83.4874 75.5748 83.4031 75.7576 83.3724C76.0018 83.3313 76.2523 83.3886 76.4543 83.5317C76.6564 83.6749 76.7935 83.8922 76.8356 84.1362Z" fill="white"/>
<path d="M80.3386 83.5445C80.369 83.7272 80.3445 83.9147 80.2683 84.0835C80.1921 84.2522 80.0675 84.3945 79.9104 84.4925C79.7533 84.5905 79.5707 84.6397 79.3856 84.6339C79.2006 84.6281 79.0214 84.5676 78.8707 84.4599C78.7201 84.3523 78.6047 84.2025 78.5392 84.0293C78.4737 83.8561 78.461 83.6674 78.5027 83.487C78.5445 83.3066 78.6387 83.1427 78.7736 83.0158C78.9085 82.889 79.078 82.805 79.2606 82.7745C79.382 82.7542 79.5061 82.7581 79.626 82.7858C79.7458 82.8135 79.8591 82.8646 79.9592 82.9361C80.0593 83.0076 80.1443 83.0982 80.2094 83.2026C80.2745 83.307 80.3184 83.4232 80.3386 83.5445Z" fill="white"/>
<path d="M136.377 121.403L75.2023 131.75L82.4909 174.843L143.666 164.496L136.377 121.403Z" fill="white"/>
<path d="M136.377 121.407L75.2023 131.754L76.7977 141.186L137.972 130.839L136.377 121.407Z" fill="#3B4AE4"/>
<path opacity="0.23" d="M132.452 140.274L102.825 145.285L103.15 147.211L132.778 142.199L132.452 140.274Z" fill="#B099FF"/>
<path opacity="0.23" d="M133.121 144.223L103.493 149.234L103.819 151.16L133.446 146.149L133.121 144.223Z" fill="#B099FF"/>
<path opacity="0.23" d="M127.447 149.24L104.155 153.18L104.477 155.087L127.77 151.147L127.447 149.24Z" fill="#B099FF"/>
<path opacity="0.23" d="M120.651 154.44L104.823 157.117L105.148 159.043L120.977 156.365L120.651 154.44Z" fill="#B099FF"/>
<path d="M99.3664 145.794L83.0463 148.555L85.4316 162.658L101.752 159.898L99.3664 145.794Z" fill="#7DBDDB"/>
<path d="M82.3581 135.603C82.3885 135.786 82.364 135.973 82.2878 136.142C82.2116 136.311 82.0871 136.453 81.93 136.551C81.7729 136.649 81.5902 136.698 81.4052 136.692C81.2201 136.687 81.0409 136.626 80.8903 136.519C80.7396 136.411 80.6242 136.261 80.5587 136.088C80.4932 135.915 80.4805 135.726 80.5223 135.546C80.564 135.365 80.6583 135.201 80.7932 135.074C80.9281 134.948 81.0975 134.864 81.2801 134.833C81.4015 134.813 81.5256 134.817 81.6455 134.844C81.7654 134.872 81.8786 134.923 81.9787 134.995C82.0788 135.066 82.1639 135.157 82.229 135.261C82.2941 135.366 82.338 135.482 82.3581 135.603Z" fill="white"/>
<path d="M85.8609 135.013C85.9017 135.258 85.8435 135.51 85.6991 135.712C85.5547 135.914 85.3359 136.05 85.0909 136.091C84.8458 136.132 84.5946 136.074 84.3924 135.929C84.1902 135.785 84.0537 135.566 84.0129 135.321C83.9926 135.2 83.9965 135.076 84.0243 134.956C84.052 134.836 84.1031 134.723 84.1746 134.623C84.2461 134.523 84.3366 134.438 84.441 134.372C84.5454 134.307 84.6615 134.263 84.7829 134.243C84.9042 134.223 85.0284 134.227 85.1482 134.255C85.268 134.282 85.3812 134.333 85.4813 134.405C85.5814 134.476 85.6665 134.567 85.7316 134.671C85.7967 134.776 85.8406 134.892 85.8609 135.013Z" fill="white"/>
<path d="M89.3632 134.414C89.3948 134.597 89.3715 134.785 89.2961 134.954C89.2208 135.124 89.0969 135.267 88.9401 135.366C88.7834 135.465 88.6008 135.515 88.4155 135.51C88.2302 135.505 88.0505 135.445 87.8993 135.338C87.748 135.231 87.632 135.081 87.5659 134.908C87.4997 134.735 87.4865 134.546 87.5278 134.365C87.5692 134.185 87.6632 134.02 87.7981 133.893C87.9329 133.766 88.1024 133.681 88.2852 133.651C88.4062 133.629 88.5302 133.632 88.65 133.659C88.7699 133.686 88.8832 133.737 88.9834 133.808C89.0836 133.879 89.1688 133.969 89.234 134.073C89.2992 134.177 89.3431 134.293 89.3632 134.414Z" fill="white"/>
<path d="M146.259 172.363L84.8359 182.91L92.2658 226.178L153.689 215.631L146.259 172.363Z" fill="white"/>
<path d="M144.73 172.126L83.5554 182.473L85.1508 191.905L146.325 181.558L144.73 172.126Z" fill="#7DBDDB"/>
<path d="M140.797 191.001L111.169 196.012L111.495 197.937L141.123 192.926L140.797 191.001Z" fill="#7DBDDB"/>
<path d="M141.469 194.938L111.842 199.949L112.167 201.875L141.795 196.863L141.469 194.938Z" fill="#7DBDDB"/>
<path d="M135.796 199.959L112.503 203.898L112.826 205.806L136.119 201.866L135.796 199.959Z" fill="#7DBDDB"/>
<path d="M128.998 205.167L113.169 207.844L113.495 209.769L129.323 207.092L128.998 205.167Z" fill="#7DBDDB"/>
<path d="M107.72 196.521L91.3994 199.281L93.7848 213.384L110.105 210.624L107.72 196.521Z" fill="#A6A1FF"/>
<path d="M90.7017 186.325C90.7333 186.507 90.71 186.695 90.6346 186.865C90.5593 187.034 90.4354 187.177 90.2786 187.276C90.1219 187.375 89.9393 187.425 89.754 187.42C89.5687 187.415 89.389 187.355 89.2378 187.248C89.0865 187.141 88.9705 186.991 88.9044 186.818C88.8382 186.645 88.825 186.456 88.8663 186.275C88.9077 186.095 89.0017 185.93 89.1366 185.803C89.2714 185.676 89.4409 185.592 89.6237 185.561C89.7447 185.54 89.8687 185.543 89.9885 185.57C90.1084 185.597 90.2217 185.647 90.3219 185.718C90.4221 185.789 90.5073 185.879 90.5725 185.983C90.6377 186.087 90.6816 186.203 90.7017 186.325Z" fill="white"/>
<path d="M94.2359 185.731C94.2675 185.914 94.2441 186.101 94.1688 186.271C94.0935 186.44 93.9696 186.583 93.8128 186.682C93.656 186.781 93.4734 186.831 93.2881 186.826C93.1028 186.821 92.9232 186.762 92.7719 186.654C92.6207 186.547 92.5047 186.398 92.4385 186.224C92.3724 186.051 92.3592 185.862 92.4005 185.682C92.4419 185.501 92.5359 185.337 92.6707 185.209C92.8056 185.082 92.9751 184.998 93.1579 184.967C93.2789 184.946 93.4029 184.949 93.5227 184.976C93.6426 185.003 93.7559 185.053 93.8561 185.124C93.9563 185.195 94.0415 185.286 94.1067 185.39C94.1719 185.494 94.2158 185.61 94.2359 185.731Z" fill="white"/>
<path d="M97.7109 185.142C97.7413 185.325 97.7168 185.512 97.6406 185.681C97.5644 185.85 97.4398 185.992 97.2827 186.09C97.1256 186.188 96.943 186.237 96.758 186.232C96.5729 186.226 96.3937 186.165 96.243 186.058C96.0924 185.95 95.977 185.8 95.9115 185.627C95.846 185.454 95.8333 185.265 95.875 185.085C95.9168 184.904 96.011 184.74 96.1459 184.614C96.2808 184.487 96.4503 184.403 96.6329 184.372C96.7543 184.352 96.8784 184.356 96.9983 184.383C97.1182 184.411 97.2314 184.462 97.3315 184.534C97.4316 184.605 97.5167 184.696 97.5818 184.8C97.6469 184.905 97.6908 185.021 97.7109 185.142Z" fill="white"/>
<path d="M95.3404 153.647L89.0941 151.324L90.2091 157.891L95.3404 153.647Z" fill="white"/>
<path d="M78.6329 102.467C78.7065 102.483 78.7834 102.474 78.8515 102.442C78.9195 102.409 78.9748 102.355 79.0087 102.288C79.3772 102.368 79.7252 102.523 80.0312 102.744C79.9512 103.107 80.1113 103.175 79.329 103.15C79.329 103.033 79.2428 102.941 79.1565 102.935C79.0703 102.929 78.9471 103.052 78.9409 103.206C78.9348 103.36 79.0087 103.495 79.1196 103.508C79.2304 103.52 79.2859 103.428 79.3167 103.317C80.1113 103.354 79.9327 103.378 79.982 103.779C79.6462 103.972 79.2794 104.106 78.8978 104.173C78.8775 104.11 78.8381 104.055 78.7852 104.015C78.7322 103.975 78.6683 103.953 78.6021 103.951C78.442 103.951 78.3372 104.179 78.368 104.407C78.3988 104.635 78.5467 104.801 78.7068 104.783C78.867 104.764 78.9409 104.61 78.9471 104.426C80.2284 104.155 80.0805 104.296 80.2222 104.61C80.0763 104.735 79.9148 104.841 79.7417 104.925C79.7098 104.884 79.6658 104.854 79.6161 104.84C79.5663 104.825 79.5133 104.827 79.4645 104.844C79.4217 104.893 79.398 104.955 79.398 105.02C79.398 105.085 79.4217 105.147 79.4645 105.196C79.5446 105.331 79.6863 105.393 79.7787 105.337C79.8169 105.306 79.8437 105.263 79.8549 105.215C79.866 105.167 79.8609 105.117 79.8403 105.072C80.005 104.979 80.1809 104.906 80.3639 104.857C80.524 105.146 80.7828 105.134 79.828 106.033C79.7697 105.988 79.6982 105.964 79.6247 105.964C79.5511 105.964 79.4796 105.988 79.4214 106.033C79.3729 106.114 79.3568 106.211 79.3762 106.303C79.3956 106.396 79.4491 106.477 79.5261 106.532C79.6986 106.692 79.9204 106.723 80.0312 106.606C80.0747 106.551 80.0983 106.483 80.0983 106.412C80.0983 106.342 80.0747 106.273 80.0312 106.218C80.9984 105.35 80.8936 105.602 81.2632 105.83C81.1949 106.024 81.1018 106.208 80.986 106.378C80.9377 106.353 80.8818 106.346 80.8287 106.358C80.7756 106.371 80.7287 106.402 80.6965 106.446C80.6411 106.538 80.6965 106.68 80.8505 106.754C81.0045 106.828 81.14 106.816 81.1955 106.717C81.211 106.674 81.2128 106.627 81.2007 106.583C81.1885 106.539 81.1631 106.5 81.1277 106.471C81.5343 105.855 81.4604 105.99 81.8176 106.138C81.8096 106.517 81.7388 106.891 81.6082 107.247C81.5421 107.24 81.4755 107.254 81.418 107.287C81.3604 107.32 81.3149 107.371 81.2879 107.432C81.2448 107.579 81.3803 107.764 81.602 107.832C81.8238 107.9 82.0394 107.832 82.0887 107.678C82.1 107.599 82.0834 107.519 82.0417 107.452C82.0001 107.384 81.936 107.334 81.8608 107.308C82.255 106.076 82.2735 106.317 82.6739 106.354C82.7187 106.577 82.7332 106.804 82.717 107.031C82.6 107.031 82.5137 107.13 82.5137 107.216C82.5137 107.302 82.6431 107.419 82.7971 107.419C82.9511 107.419 83.0804 107.327 83.0866 107.222C83.0928 107.117 83.0004 107.056 82.8833 107.031C82.8763 106.808 82.9054 106.586 82.9696 106.372C83.3145 106.372 83.4377 106.126 83.7519 107.487C83.6816 107.509 83.6211 107.555 83.5807 107.617C83.5403 107.679 83.5224 107.752 83.5301 107.826C83.5671 107.98 83.7765 108.066 84.0044 108.011C84.2324 107.955 84.3802 107.789 84.3432 107.629C84.3166 107.563 84.2688 107.508 84.2075 107.472C84.1462 107.437 84.0748 107.422 84.0044 107.432C83.8743 107.035 83.8343 106.614 83.8874 106.2C83.9879 106.168 84.0866 106.131 84.1831 106.089C84.3179 106.256 84.4336 106.438 84.528 106.631C84.4901 106.661 84.463 106.702 84.4508 106.749C84.4385 106.796 84.4419 106.845 84.4603 106.89C84.5081 106.934 84.5708 106.958 84.6358 106.958C84.7009 106.958 84.7636 106.934 84.8114 106.89C84.9408 106.809 85.0024 106.662 84.9469 106.569C84.9123 106.532 84.8666 106.507 84.8166 106.498C84.7666 106.489 84.715 106.497 84.6697 106.52C84.5655 106.337 84.4828 106.143 84.4233 105.941C84.719 105.781 84.7005 105.516 85.6553 106.508C85.6109 106.565 85.5867 106.635 85.5867 106.708C85.5867 106.78 85.6109 106.851 85.6553 106.908C85.7662 107.025 85.9941 106.988 86.1604 106.834C86.3268 106.68 86.376 106.452 86.2652 106.335C86.2089 106.291 86.1395 106.267 86.068 106.267C85.9966 106.267 85.9272 106.291 85.8709 106.335C84.8545 105.165 85.1748 104.894 85.9941 105.356C85.9572 105.491 85.9941 105.614 86.0865 105.651C86.1789 105.688 86.3144 105.608 86.376 105.467C86.4376 105.325 86.376 105.165 86.3021 105.122C86.2599 105.109 86.2149 105.111 86.1738 105.127C86.1327 105.142 86.0978 105.171 86.0742 105.208C85.8994 105.105 85.7381 104.981 85.5937 104.838C85.7477 104.561 85.5937 104.345 86.8935 104.74C86.8826 104.808 86.8949 104.878 86.9284 104.938C86.9619 104.998 87.0147 105.046 87.0783 105.072C87.2323 105.122 87.4109 104.98 87.4725 104.758C87.5341 104.536 87.4725 104.321 87.3185 104.272C87.2417 104.261 87.1638 104.278 87.0976 104.318C87.0315 104.359 86.9812 104.42 86.9551 104.493C86.5792 104.406 86.2237 104.247 85.9079 104.025C85.9079 103.902 85.9572 103.785 85.9695 103.662C86.1906 103.619 86.4165 103.607 86.6409 103.625C86.6438 103.676 86.6635 103.725 86.6969 103.764C86.7303 103.803 86.7755 103.83 86.8257 103.84C86.9304 103.84 87.0228 103.717 87.029 103.557C87.0352 103.397 86.9489 103.274 86.838 103.267C86.7272 103.261 86.6779 103.341 86.6471 103.452C86.4221 103.46 86.1974 103.431 85.9818 103.366C85.9818 103.015 85.7354 102.898 87.1029 102.584C87.1321 102.652 87.1831 102.708 87.2478 102.743C87.3125 102.779 87.3872 102.792 87.4602 102.781C87.6142 102.725 87.6758 102.51 87.6019 102.288C87.528 102.066 87.3493 101.937 87.1953 101.986C87.1325 102.018 87.0818 102.07 87.0507 102.133C87.0196 102.196 87.0098 102.268 87.0228 102.337C85.7108 102.615 85.8648 102.473 85.7231 102.159C85.8824 102.019 86.0608 101.903 86.2528 101.814C86.289 101.853 86.3374 101.878 86.39 101.886C86.4427 101.894 86.4964 101.884 86.5424 101.857C86.5822 101.806 86.6011 101.742 86.5954 101.678C86.5897 101.614 86.5597 101.555 86.5116 101.512C86.4068 101.389 86.259 101.352 86.1728 101.419C86.1465 101.458 86.1325 101.503 86.1325 101.549C86.1325 101.595 86.1465 101.64 86.1728 101.678C86 101.778 85.8159 101.856 85.6245 101.912C85.4582 101.617 85.1933 101.635 86.1974 100.68C86.2613 100.719 86.3365 100.734 86.4105 100.724C86.4845 100.714 86.5528 100.679 86.604 100.625C86.6964 100.495 86.604 100.28 86.4253 100.151C86.3568 100.086 86.2666 100.051 86.1728 100.051C86.079 100.051 85.9887 100.086 85.9202 100.151C85.8874 100.212 85.8757 100.283 85.8868 100.352C85.898 100.421 85.9313 100.484 85.9818 100.532C85.0085 101.407 85.1132 101.192 84.7498 100.933C84.8225 100.733 84.9198 100.542 85.0393 100.366C85.0839 100.385 85.1334 100.388 85.18 100.376C85.2267 100.363 85.2682 100.336 85.298 100.298C85.3535 100.206 85.298 100.064 85.1502 99.9842C85.1034 99.9405 85.0418 99.9161 84.9777 99.9161C84.9137 99.9161 84.852 99.9405 84.8052 99.9842C84.7863 100.033 84.7845 100.087 84.8002 100.138C84.8158 100.188 84.848 100.232 84.8915 100.261C84.7897 100.444 84.6632 100.612 84.5157 100.76C84.2447 100.6 84.0291 100.76 84.4048 99.5283C84.4825 99.5471 84.5643 99.5383 84.6362 99.5035C84.7081 99.4686 84.7656 99.4099 84.7991 99.3374C84.8422 99.1834 84.6944 99.0109 84.4726 98.9493C84.2508 98.8877 84.0291 98.9493 83.9921 99.1218C83.9826 99.1859 83.9936 99.2514 84.0234 99.3089C84.0533 99.3664 84.1005 99.413 84.1584 99.4421C84.077 99.8083 83.9219 100.154 83.7026 100.459C83.3392 100.378 83.2714 100.539 83.3022 99.7501C83.4254 99.7193 83.5178 99.6269 83.5055 99.5345C83.4932 99.4421 83.3576 99.3497 83.2036 99.362C83.0496 99.3743 82.9264 99.4791 82.9388 99.59C82.9511 99.7008 83.025 99.7316 83.1297 99.7563C83.0928 100.539 83.0681 100.372 82.6677 100.409C82.4809 100.085 82.3517 99.7305 82.2858 99.362C82.3569 99.344 82.4198 99.3027 82.4645 99.2446C82.5092 99.1865 82.5331 99.115 82.5322 99.0417C82.5322 98.8877 82.2981 98.783 82.0702 98.82C81.8423 98.8569 81.6821 99.0109 81.7068 99.1711C81.7263 99.2398 81.7686 99.2999 81.8269 99.3413C81.8851 99.3828 81.9557 99.4031 82.0271 99.399C82.1422 99.7651 82.1779 100.151 82.1318 100.532C81.83 100.631 81.8484 100.785 81.5158 100.151C81.6144 100.064 81.6575 99.9534 81.6082 99.8671C81.5614 99.8234 81.4998 99.7991 81.4357 99.7991C81.3717 99.7991 81.31 99.8234 81.2632 99.8671C81.1277 99.9534 81.06 100.095 81.1154 100.187C81.1451 100.224 81.1858 100.25 81.2314 100.261C81.2769 100.272 81.3249 100.268 81.368 100.249C81.7006 100.902 81.6082 100.754 81.2817 100.994C80.9478 100.793 80.65 100.537 80.4008 100.237C80.4503 100.185 80.4808 100.118 80.4875 100.046C80.4942 99.9745 80.4767 99.9028 80.4378 99.8425C80.3331 99.7193 80.1052 99.7501 79.9327 99.898C79.8537 99.9509 79.7974 100.031 79.7746 100.124C79.7518 100.216 79.7643 100.313 79.8095 100.397C79.8676 100.439 79.9377 100.462 80.0097 100.462C80.0817 100.462 80.1518 100.439 80.2099 100.397C81.1092 101.395 80.8875 101.29 80.6288 101.629C80.4421 101.56 80.2643 101.469 80.099 101.358C80.1198 101.317 80.1268 101.27 80.119 101.224C80.1113 101.179 80.0891 101.137 80.0559 101.105C79.9696 101.038 79.8218 101.105 79.7294 101.21C79.637 101.315 79.6247 101.493 79.7294 101.561C79.7767 101.584 79.8304 101.591 79.8818 101.58C79.9332 101.568 79.9793 101.54 80.0128 101.5C80.1872 101.601 80.3486 101.723 80.4932 101.863C80.3331 102.14 80.4932 102.35 79.2612 101.974C79.2796 101.907 79.2749 101.836 79.2481 101.773C79.2213 101.709 79.1739 101.656 79.1134 101.623C78.9656 101.561 78.7746 101.684 78.6884 101.9C78.6021 102.116 78.4851 102.405 78.6329 102.467Z" fill="white"/>
<path d="M96.6387 203.99C96.768 204.045 96.9159 203.99 97.0144 203.811C97.3839 203.897 97.7332 204.054 98.0432 204.273C97.9631 204.636 98.1232 204.704 97.3409 204.673C97.3409 204.556 97.2547 204.47 97.1623 204.464C97.0699 204.458 96.959 204.575 96.9467 204.735C96.9344 204.895 97.0206 205.025 97.1253 205.031C97.1751 205.027 97.2221 205.007 97.259 204.974C97.2959 204.94 97.3204 204.895 97.3286 204.846C98.1171 204.883 97.9446 204.901 97.9939 205.308C97.6578 205.499 97.2909 205.631 96.9097 205.696C96.8888 205.633 96.8483 205.578 96.794 205.539C96.7398 205.5 96.6746 205.48 96.6079 205.48C96.4539 205.48 96.343 205.702 96.3738 205.93C96.4046 206.158 96.5586 206.33 96.7188 206.312C96.7934 206.288 96.8578 206.24 96.9015 206.175C96.9451 206.111 96.9654 206.033 96.959 205.955C98.2403 205.684 98.0863 205.825 98.228 206.14C98.08 206.262 97.9188 206.367 97.7475 206.454C97.7187 206.411 97.6758 206.379 97.6264 206.365C97.5769 206.35 97.5239 206.353 97.4764 206.374C97.4327 206.42 97.4084 206.482 97.4084 206.546C97.4084 206.61 97.4327 206.672 97.4764 206.719C97.5627 206.854 97.7044 206.916 97.7968 206.86C97.8336 206.83 97.8595 206.788 97.8707 206.741C97.8818 206.694 97.8775 206.645 97.8584 206.602C98.021 206.508 98.1949 206.436 98.3758 206.386C98.5421 206.675 98.8008 206.657 97.846 207.556C97.7873 207.51 97.7146 207.485 97.6397 207.485C97.5648 207.485 97.4921 207.51 97.4333 207.556C97.3224 207.673 97.3717 207.895 97.5442 208.055C97.7167 208.215 97.9384 208.246 98.0432 208.129C98.0847 208.073 98.1071 208.005 98.1071 207.935C98.1071 207.865 98.0847 207.797 98.0432 207.741C99.0103 206.873 98.9056 207.125 99.2752 207.353C99.2016 207.546 99.1066 207.73 98.9918 207.901C98.9436 207.878 98.8889 207.871 98.8364 207.882C98.784 207.893 98.7367 207.922 98.7023 207.963C98.653 208.061 98.7023 208.197 98.8563 208.277C99.0103 208.357 99.152 208.339 99.2012 208.24C99.2198 208.197 99.2233 208.15 99.2109 208.105C99.1986 208.06 99.1713 208.021 99.1335 207.994C99.5462 207.378 99.4661 207.507 99.8234 207.661C99.8144 208.04 99.7436 208.414 99.614 208.77C99.5495 208.763 99.4843 208.776 99.4279 208.808C99.3715 208.84 99.3267 208.889 99.2998 208.948C99.2505 209.102 99.3922 209.281 99.614 209.349C99.6993 209.391 99.7975 209.398 99.8881 209.369C99.9788 209.341 100.055 209.278 100.101 209.195C100.11 209.117 100.092 209.037 100.049 208.971C100.006 208.905 99.9418 208.855 99.8665 208.831C100.267 207.599 100.285 207.84 100.686 207.877C100.728 208.1 100.741 208.328 100.723 208.554C100.673 208.559 100.627 208.579 100.59 208.613C100.553 208.646 100.529 208.69 100.519 208.739C100.519 208.85 100.649 208.936 100.809 208.936C100.969 208.936 101.092 208.85 101.092 208.739C101.092 208.628 101.006 208.579 100.889 208.554C100.887 208.329 100.918 208.105 100.981 207.889C101.326 207.889 101.443 207.643 101.764 209.01C101.604 209.084 101.505 209.22 101.536 209.349C101.567 209.478 101.788 209.589 102.01 209.534C102.232 209.478 102.386 209.306 102.349 209.152C102.323 209.085 102.276 209.03 102.214 208.994C102.153 208.958 102.081 208.944 102.01 208.955C101.884 208.557 101.844 208.137 101.893 207.723C101.994 207.689 102.092 207.65 102.189 207.606C102.328 207.771 102.446 207.953 102.54 208.148C102.5 208.177 102.471 208.22 102.459 208.268C102.446 208.316 102.451 208.367 102.472 208.413C102.528 208.505 102.682 208.511 102.817 208.413C102.953 208.314 103.014 208.185 102.953 208.092C102.92 208.055 102.875 208.029 102.826 208.02C102.777 208.011 102.726 208.019 102.682 208.043C102.575 207.861 102.492 207.667 102.435 207.464C102.725 207.298 102.706 207.039 103.636 208.031C103.592 208.088 103.568 208.158 103.568 208.231C103.568 208.303 103.592 208.374 103.636 208.431C103.747 208.548 103.969 208.511 104.135 208.351C104.302 208.191 104.351 207.969 104.24 207.858C104.184 207.813 104.115 207.789 104.043 207.789C103.971 207.789 103.902 207.813 103.846 207.858C102.836 206.682 103.156 206.411 103.975 206.879C103.954 206.93 103.951 206.988 103.966 207.042C103.982 207.095 104.016 207.142 104.061 207.174C104.166 207.211 104.296 207.131 104.357 206.983C104.389 206.928 104.399 206.862 104.385 206.8C104.372 206.737 104.335 206.682 104.283 206.645C104.241 206.632 104.196 206.634 104.155 206.65C104.114 206.665 104.079 206.694 104.055 206.731C103.879 206.628 103.715 206.504 103.569 206.361C103.729 206.078 103.569 205.868 104.875 206.263C104.864 206.33 104.876 206.399 104.908 206.459C104.941 206.519 104.991 206.567 105.053 206.595C105.207 206.638 105.386 206.497 105.454 206.275C105.521 206.053 105.454 205.838 105.293 205.795C105.218 205.784 105.142 205.8 105.077 205.839C105.012 205.879 104.962 205.939 104.936 206.01C104.559 205.926 104.201 205.769 103.883 205.548C103.913 205.427 103.933 205.303 103.944 205.179C104.166 205.136 104.391 205.124 104.616 205.142C104.616 205.265 104.708 205.357 104.801 205.357C104.893 205.357 105.004 205.234 105.01 205.08C105.016 204.926 104.924 204.79 104.819 204.79C104.714 204.79 104.653 204.864 104.622 204.975C104.397 204.979 104.173 204.949 103.957 204.889C103.957 204.538 103.71 204.421 105.078 204.107C105.17 204.255 105.312 204.341 105.435 204.298C105.558 204.255 105.657 204.033 105.583 203.811C105.509 203.589 105.324 203.454 105.176 203.509C105.112 203.54 105.06 203.591 105.029 203.655C104.998 203.718 104.989 203.791 105.004 203.86C103.686 204.138 103.84 203.996 103.698 203.676C103.863 203.542 104.043 203.428 104.234 203.337C104.27 203.376 104.319 203.401 104.372 203.408C104.425 203.414 104.479 203.402 104.523 203.374C104.604 203.306 104.591 203.152 104.487 203.029C104.382 202.906 104.234 202.869 104.154 202.942C104.125 202.979 104.109 203.025 104.109 203.072C104.109 203.119 104.125 203.164 104.154 203.201C103.98 203.302 103.794 203.379 103.599 203.429C103.433 203.14 103.168 203.158 104.172 202.197C104.236 202.236 104.311 202.251 104.385 202.241C104.459 202.231 104.528 202.196 104.579 202.142C104.671 202.012 104.579 201.797 104.406 201.661C104.336 201.598 104.245 201.563 104.151 201.563C104.056 201.563 103.965 201.598 103.895 201.661C103.865 201.724 103.855 201.795 103.868 201.863C103.88 201.932 103.913 201.995 103.963 202.043C102.99 202.918 103.088 202.696 102.731 202.437C102.801 202.238 102.899 202.05 103.02 201.877C103.064 201.895 103.113 201.898 103.158 201.886C103.204 201.873 103.244 201.846 103.273 201.809C103.328 201.717 103.273 201.575 103.131 201.495C102.99 201.415 102.836 201.427 102.78 201.495C102.762 201.545 102.761 201.599 102.778 201.65C102.795 201.7 102.828 201.743 102.873 201.772C102.767 201.95 102.641 202.116 102.497 202.265C102.22 202.111 102.01 202.265 102.38 201.033C102.457 201.053 102.538 201.046 102.611 201.012C102.683 200.978 102.741 200.92 102.774 200.848C102.817 200.694 102.669 200.515 102.448 200.46C102.226 200.405 102.01 200.46 101.967 200.632C101.959 200.696 101.971 200.761 102.002 200.818C102.033 200.874 102.081 200.92 102.14 200.947C102.055 201.315 101.898 201.662 101.678 201.969C101.32 201.889 101.246 202.049 101.277 201.255C101.407 201.224 101.493 201.138 101.487 201.039C101.48 200.94 101.339 200.854 101.185 200.873C101.031 200.891 100.908 200.99 100.92 201.094C100.932 201.199 101.006 201.242 101.111 201.261C101.068 202.043 101.049 201.877 100.643 201.92C100.459 201.594 100.329 201.24 100.261 200.873C100.421 200.805 100.526 200.682 100.507 200.552C100.489 200.423 100.279 200.294 100.051 200.331C99.8234 200.368 99.6571 200.522 99.6817 200.682C99.7034 200.75 99.7472 200.81 99.8062 200.851C99.8653 200.892 99.9363 200.913 100.008 200.91C100.122 201.276 100.155 201.663 100.107 202.043C99.8111 202.136 99.8234 202.296 99.4908 201.655C99.5361 201.627 99.5697 201.583 99.5856 201.532C99.6014 201.482 99.5984 201.427 99.577 201.378C99.5287 201.338 99.4692 201.315 99.4069 201.31C99.3446 201.306 99.2824 201.321 99.229 201.353C99.1756 201.386 99.1336 201.434 99.1087 201.491C99.0839 201.549 99.0775 201.612 99.0904 201.674C99.1206 201.709 99.1613 201.734 99.2067 201.745C99.252 201.756 99.2997 201.753 99.3429 201.735C99.6756 202.382 99.577 202.24 99.2567 202.48C98.9215 202.281 98.6235 202.024 98.3758 201.723C98.4243 201.67 98.4537 201.602 98.4593 201.531C98.4649 201.46 98.4463 201.388 98.4066 201.329C98.3019 201.205 98.074 201.23 97.9015 201.384C97.729 201.538 97.6736 201.76 97.7844 201.877C97.8403 201.922 97.9099 201.946 97.9816 201.946C98.0533 201.946 98.1228 201.922 98.1787 201.877C99.078 202.875 98.8624 202.77 98.5976 203.14C98.4109 203.07 98.2331 202.979 98.0678 202.869C98.0908 202.827 98.0997 202.78 98.093 202.733C98.0863 202.686 98.0645 202.643 98.0309 202.61C97.9446 202.548 97.7968 202.61 97.6982 202.721C97.5996 202.832 97.5996 203.004 97.6982 203.066C97.7455 203.091 97.8001 203.099 97.8528 203.089C97.9055 203.079 97.9531 203.051 97.9877 203.01C98.163 203.107 98.3229 203.23 98.462 203.374C98.308 203.645 98.462 203.854 97.23 203.485C97.2462 203.418 97.2406 203.348 97.214 203.285C97.1874 203.221 97.1412 203.168 97.0822 203.133C96.9344 203.072 96.7372 203.195 96.651 203.411C96.5648 203.626 96.4908 203.934 96.6387 203.99Z" fill="white"/>
</g>
<path d="M178.682 150.44C183.669 150.44 187.712 146.397 187.712 141.409C187.712 136.422 183.669 132.379 178.682 132.379C173.694 132.379 169.651 136.422 169.651 141.409C169.651 146.397 173.694 150.44 178.682 150.44Z" fill="#5205DB"/>
<path d="M182.013 139.622C180.289 137.595 178.681 139.721 178.681 139.721C178.681 139.721 177.073 137.595 175.355 139.622C173.636 141.649 177.769 144.661 178.681 144.957C179.593 144.661 183.695 141.605 182.013 139.622Z" fill="white"/>
<path d="M36.5116 169.48C40.9309 169.48 44.5134 165.898 44.5134 161.478C44.5134 157.059 40.9309 153.477 36.5116 153.477C32.0923 153.477 28.5098 157.059 28.5098 161.478C28.5098 165.898 32.0923 169.48 36.5116 169.48Z" fill="#3B4AE4"/>
<path d="M40.0254 161.519C40.0239 161.407 39.9915 161.296 39.9318 161.201C39.872 161.105 39.7872 161.028 39.6866 160.977C39.8058 160.913 39.9005 160.811 39.9562 160.688C40.0118 160.565 40.0253 160.426 39.9944 160.294C39.9636 160.163 39.8902 160.045 39.7855 159.959C39.6809 159.873 39.5508 159.824 39.4155 159.819H39.317L37.8386 159.856C37.9992 159.193 38.0656 158.511 38.0357 157.829C37.9186 157.121 36.9638 156.807 36.9454 157.595C36.9659 157.923 36.911 158.251 36.785 158.555C36.659 158.858 36.4652 159.128 36.2185 159.345C35.9446 159.65 35.705 159.985 35.5039 160.343C35.4544 160.438 35.429 160.544 35.43 160.651V163.645C35.4292 163.684 35.4362 163.722 35.4508 163.759C35.4654 163.795 35.4871 163.828 35.5147 163.855C35.5424 163.883 35.5753 163.905 35.6115 163.919C35.6478 163.934 35.6866 163.941 35.7257 163.94H39.4217C39.5008 163.945 39.5801 163.934 39.6546 163.907C39.7292 163.88 39.7975 163.839 39.8552 163.784C39.913 163.73 39.959 163.664 39.9903 163.592C40.0217 163.519 40.0378 163.44 40.0377 163.361C40.0377 163.084 39.6742 162.979 39.6742 162.979C39.7854 162.969 39.8889 162.918 39.9649 162.836C40.041 162.754 40.0844 162.647 40.087 162.536C40.0957 162.478 40.0921 162.419 40.0765 162.363C40.0609 162.307 40.0335 162.255 39.9963 162.21C39.9591 162.165 39.9128 162.129 39.8604 162.103C39.8081 162.078 39.751 162.063 39.6927 162.061C39.7922 162.01 39.8758 161.932 39.9344 161.837C39.993 161.741 40.0245 161.631 40.0254 161.519Z" fill="white"/>
<path d="M34.6044 160.43H33.3046C33.0937 160.43 32.9227 160.601 32.9227 160.812V164.206C32.9227 164.417 33.0937 164.588 33.3046 164.588H34.6044C34.8153 164.588 34.9863 164.417 34.9863 164.206V160.812C34.9863 160.601 34.8153 160.43 34.6044 160.43Z" fill="white"/>
<path d="M22.1626 99.226L8.34569 105.509C8.05418 105.637 7.7909 105.822 7.57102 106.052C7.35113 106.283 7.17897 106.554 7.06446 106.851C6.94996 107.149 6.89536 107.465 6.9038 107.784C6.91225 108.102 6.98358 108.416 7.11369 108.706L10.4031 115.932C10.5342 116.221 10.7208 116.481 10.9524 116.698C11.184 116.914 11.456 117.083 11.7528 117.195C12.0497 117.306 12.3657 117.358 12.6826 117.348C12.9996 117.337 13.3114 117.264 13.6002 117.133L13.7603 117.059L16.2675 118.993C16.35 119.056 16.4482 119.095 16.5513 119.105C16.6544 119.115 16.7583 119.096 16.8515 119.051C16.9446 119.006 17.0234 118.935 17.0791 118.848C17.1348 118.761 17.1651 118.66 17.1668 118.556L17.2038 115.476L27.4171 110.85C27.7059 110.719 27.966 110.532 28.1825 110.301C28.399 110.069 28.5676 109.797 28.6786 109.5C28.7896 109.203 28.8409 108.887 28.8295 108.57C28.8181 108.253 28.7442 107.941 28.6121 107.653L25.3288 100.427C25.0629 99.8528 24.5825 99.4054 23.9907 99.1808C23.3988 98.9563 22.7426 98.9725 22.1626 99.226Z" fill="#7DBDDB"/>
<path d="M15.8806 109.134C15.9706 109.331 16 109.55 15.9653 109.764C15.9305 109.978 15.8331 110.177 15.6853 110.336C15.5376 110.495 15.3461 110.606 15.1351 110.656C14.9241 110.706 14.703 110.692 14.4999 110.616C14.2967 110.54 14.1206 110.406 13.9938 110.23C13.8669 110.054 13.795 109.845 13.7872 109.628C13.7794 109.412 13.836 109.197 13.9498 109.013C14.0637 108.828 14.2297 108.682 14.4268 108.592C14.5579 108.532 14.6994 108.498 14.8434 108.493C14.9874 108.488 15.1311 108.511 15.2661 108.561C15.4011 108.612 15.5249 108.688 15.6303 108.786C15.7357 108.885 15.8208 109.003 15.8806 109.134Z" fill="white"/>
<path d="M19.0168 107.709C19.0774 107.839 19.1115 107.98 19.1171 108.124C19.1226 108.268 19.0995 108.411 19.049 108.546C18.9986 108.681 18.9218 108.804 18.8232 108.909C18.7246 109.014 18.6061 109.098 18.4747 109.156C18.3428 109.222 18.1992 109.26 18.0523 109.269C17.9053 109.277 17.7582 109.256 17.6195 109.207C17.4809 109.158 17.3536 109.081 17.2453 108.981C17.1369 108.882 17.0498 108.761 16.989 108.627C16.9281 108.493 16.8949 108.348 16.8913 108.201C16.8877 108.054 16.9137 107.908 16.9679 107.771C17.022 107.634 17.1032 107.509 17.2065 107.404C17.3098 107.3 17.4331 107.217 17.5692 107.161C17.7001 107.101 17.8416 107.068 17.9854 107.063C18.1292 107.058 18.2726 107.082 18.4071 107.133C18.5417 107.184 18.6649 107.261 18.7695 107.36C18.8741 107.459 18.9582 107.577 19.0168 107.709Z" fill="white"/>
<path d="M22.1648 106.276C22.2547 106.473 22.2842 106.693 22.2495 106.907C22.2147 107.121 22.1173 107.32 21.9695 107.479C21.8218 107.637 21.6303 107.748 21.4193 107.798C21.2083 107.848 20.9872 107.834 20.7841 107.759C20.5809 107.683 20.4048 107.549 20.2779 107.373C20.1511 107.197 20.0792 106.987 20.0714 106.771C20.0636 106.554 20.1202 106.34 20.234 106.155C20.3479 105.971 20.5139 105.824 20.711 105.734C20.9759 105.615 21.2771 105.605 21.5494 105.706C21.8216 105.808 22.0427 106.013 22.1648 106.276Z" fill="white"/>
</svg>
