<svg width="181" height="181" viewBox="0 0 181 181" fill="none" xmlns="http://www.w3.org/2000/svg">
<path d="M90.38 5.26025C73.5425 5.26025 57.0831 10.2533 43.0833 19.6079C29.0835 28.9626 18.1722 42.2587 11.7292 57.8147C5.28622 73.3708 3.60095 90.4881 6.88652 107.002C10.1721 123.516 18.2809 138.685 30.1876 150.59C42.0942 162.495 57.2639 170.602 73.7781 173.886C90.2924 177.169 107.41 175.482 122.965 169.037C138.52 162.592 151.815 151.68 161.168 137.679C170.521 123.678 175.512 107.218 175.51 90.3803C175.484 67.8114 166.506 46.1747 150.546 30.217C134.587 14.2594 112.949 5.28407 90.38 5.26025ZM90.38 167.54C75.1192 167.54 60.2011 163.015 47.5122 154.536C34.8233 146.058 24.9336 134.007 19.0935 119.908C13.2534 105.809 11.7254 90.2947 14.7026 75.3271C17.6799 60.3595 25.0287 46.6109 35.8197 35.8199C46.6107 25.0289 60.3593 17.6801 75.3269 14.7029C90.2944 11.7256 105.809 13.2537 119.908 19.0937C134.007 24.9338 146.058 34.8236 154.536 47.5125C163.015 60.2014 167.54 75.1195 167.54 90.3803C167.519 110.838 159.383 130.452 144.917 144.917C130.451 159.383 110.838 167.519 90.38 167.54Z" fill="white"/>
<path d="M90.3801 18.1602C76.0939 18.1602 62.1286 22.3966 50.2502 30.3338C38.3718 38.271 29.1139 49.5524 23.6473 62.7512C18.1807 75.9501 16.7508 90.4737 19.5387 104.485C22.3265 118.497 29.2067 131.367 39.3093 141.468C49.4118 151.569 62.2829 158.448 76.2948 161.234C90.3067 164.019 104.83 162.588 118.028 157.119C131.226 151.651 142.506 142.391 150.442 130.512C158.378 118.632 162.612 104.666 162.61 90.3802C162.589 71.231 154.972 52.8723 141.43 39.3328C127.889 25.7932 109.529 18.1787 90.3801 18.1602ZM90.3801 20.8602C104.088 20.8751 117.487 24.9359 128.897 32.5336C140.307 40.1313 149.22 50.928 154.52 63.5702H26.2501C31.5492 50.9295 40.4611 40.134 51.8691 32.5364C63.2771 24.9388 76.6736 20.877 90.3801 20.8602ZM90.3801 159.91C76.6734 159.895 63.2762 155.833 51.868 148.236C40.4597 140.638 31.5481 129.842 26.2501 117.2H154.52C149.22 129.842 140.307 140.639 128.897 148.237C117.487 155.834 104.088 159.895 90.3801 159.91Z" fill="#FFEB81"/>
<path d="M90.38 47.9902L91.86 52.0002L95.82 51.9302L92.9 54.5802L94.15 58.7302L90.38 56.1402L86.61 58.7302L87.87 54.5802L84.95 51.9302L88.91 52.0002L90.38 47.9902Z" fill="white"/>
<path d="M105.38 49.4502L106.46 52.3702L109.34 52.3202L107.21 54.2502L108.13 57.2702L105.38 55.3902L102.64 57.2702L103.56 54.2502L101.43 52.3202L104.31 52.3702L105.38 49.4502Z" fill="white"/>
<path d="M75.3801 49.4502L76.4601 52.3702L79.3401 52.3202L77.2101 54.2502L78.1301 57.2702L75.3801 55.3902L72.6401 57.2702L73.5601 54.2502L71.4301 52.3202L74.3101 52.3702L75.3801 49.4502Z" fill="white"/>
<path d="M90.38 122.04L91.86 126.06L95.82 125.98L92.9 128.63L94.15 132.78L90.38 130.2L86.61 132.78L87.87 128.63L84.95 125.98L88.91 126.06L90.38 122.04Z" fill="white"/>
<path d="M105.38 123.5L106.46 126.42L109.34 126.37L107.21 128.3L108.13 131.32L105.38 129.44L102.64 131.32L103.56 128.3L101.43 126.37L104.31 126.42L105.38 123.5Z" fill="white"/>
<path d="M75.3801 123.5L76.4601 126.42L79.3401 126.37L77.2101 128.3L78.1301 131.32L75.3801 129.44L72.6401 131.32L73.5601 128.3L71.4301 126.37L74.3101 126.42L75.3801 123.5Z" fill="white"/>
<path d="M90.38 180.76C72.5046 180.76 55.0305 175.459 40.1676 165.528C25.3047 155.597 13.7205 141.482 6.87981 124.967C0.0391603 108.452 -1.75067 90.2798 1.73667 72.7478C5.224 55.2158 13.8319 39.1116 26.4717 26.4717C39.1116 13.8319 55.2158 5.224 72.7478 1.73667C90.2798 -1.75067 108.452 0.0391603 124.967 6.87981C141.482 13.7205 155.597 25.3047 165.528 40.1676C175.459 55.0305 180.76 72.5046 180.76 90.38C180.736 114.343 171.206 137.318 154.262 154.262C137.318 171.206 114.343 180.736 90.38 180.76ZM90.38 0.500041C72.6011 0.500041 55.2213 5.77225 40.4388 15.6499C25.6562 25.5276 14.1348 39.5671 7.33155 55.9929C0.528286 72.4188 -1.25125 90.4932 2.21798 107.93C5.68722 125.368 14.2494 141.384 26.8217 153.955C39.3941 166.526 55.4119 175.087 72.8495 178.554C90.2871 182.021 108.361 180.24 124.786 173.435C141.211 166.63 155.25 155.107 165.126 140.323C175.002 125.539 180.272 108.159 180.27 90.38C180.238 66.5504 170.757 43.706 153.906 26.8568C137.055 10.0076 114.21 0.529145 90.38 0.500041Z" fill="white"/>
<path d="M39.9125 106.46C38.0594 106.46 36.4407 106.013 35.0565 105.12C33.6722 104.205 32.7568 102.865 32.3103 101.101L35.8937 99.5272C36.2733 100.599 36.7756 101.369 37.4008 101.838C38.0483 102.284 38.8074 102.508 39.6781 102.508C40.5265 102.508 41.2298 102.195 41.788 101.57C42.3461 100.945 42.6252 100.018 42.6252 98.7904C42.6252 97.2052 42.1564 96.1447 41.2186 95.6088C40.3033 95.0507 38.9971 94.7716 37.3003 94.7716V91.4896C38.7292 91.4896 39.9014 91.1323 40.8168 90.4179C41.7545 89.7034 42.2345 88.6429 42.2568 87.2363V87.2028C42.2568 86.3098 41.9778 85.6065 41.4196 85.093C40.8614 84.5794 40.2028 84.3227 39.4437 84.3227C38.7739 84.3227 38.1487 84.5348 37.5682 84.959C36.9877 85.3609 36.5524 85.9525 36.2621 86.734L32.9131 84.825C33.6499 83.2845 34.6211 82.1682 35.8268 81.476C37.0324 80.7616 38.4613 80.4044 40.1135 80.4044C41.2968 80.4044 42.4131 80.6611 43.4625 81.1746C44.5118 81.6658 45.3602 82.4026 46.0077 83.385C46.6775 84.345 47.0124 85.4948 47.0124 86.8344C47.0124 88.2857 46.6552 89.5248 45.9407 90.5518C45.2263 91.5565 44.1769 92.2933 42.7927 92.7622C44.1993 93.2087 45.3044 94.0013 46.1082 95.14C46.9343 96.2563 47.3473 97.6294 47.3473 99.2592C47.3473 100.755 47.0013 102.05 46.3091 103.144C45.617 104.216 44.7016 105.042 43.563 105.622C42.4466 106.18 41.2298 106.46 39.9125 106.46ZM58.2813 106.46C55.3788 106.46 53.3694 105.187 52.2531 102.642C51.1367 100.074 50.5786 96.9819 50.5786 93.365C50.5786 89.7704 51.1256 86.7116 52.2196 84.1887C53.3359 81.6658 55.3565 80.4044 58.2813 80.4044C61.2061 80.4044 63.2266 81.6658 64.343 84.1887C65.4816 86.7116 66.051 89.7592 66.051 93.3315C66.051 96.9484 65.4816 100.041 64.343 102.608C63.2266 105.176 61.2061 106.46 58.2813 106.46ZM58.2813 102.508C58.9957 102.508 59.5651 102.251 59.9893 101.737C60.4358 101.224 60.7707 100.242 60.994 98.7904C61.2172 97.3391 61.3289 95.2404 61.3289 92.4943C61.3289 89.8597 61.1279 87.8503 60.7261 86.4661C60.3465 85.0595 59.5316 84.3562 58.2813 84.3562C57.031 84.3562 56.2161 85.0371 55.8365 86.3991C55.4793 87.7387 55.3007 89.6364 55.3007 92.0924C55.3007 94.9502 55.4011 97.127 55.6021 98.6229C55.803 100.119 56.1156 101.146 56.5398 101.704C56.964 102.24 57.5445 102.508 58.2813 102.508ZM78.1343 80.8732H83.2918C86.5961 80.8732 89.0632 81.9226 90.6931 84.0213C92.3229 86.12 93.1378 89.2904 93.1378 93.5324C93.1378 95.7874 92.8253 97.8527 92.2001 99.7281C91.5973 101.604 90.6261 103.122 89.2865 104.283C87.9469 105.421 86.2389 105.991 84.1625 105.991H78.1343V80.8732ZM83.7271 102.072C85.424 102.072 86.5961 101.347 87.2436 99.8955C87.9134 98.422 88.2483 96.6135 88.2483 94.4702V93.3315C88.2483 91.791 88.1478 90.429 87.9469 89.2457C87.7683 88.0401 87.3329 87.0019 86.6408 86.1311C85.971 85.2381 84.9551 84.7916 83.5932 84.7916H83.0238V102.072H83.7271ZM94.7357 105.991L100.027 81.1746L107.027 80.8732L112.452 105.79L107.093 105.991L106.189 100.599H100.195L99.1229 105.991H94.7357ZM101.099 96.58H105.285L102.974 84.5571L101.099 96.58ZM118.807 106.192V96.0442L112.779 80.8732H118.171L121.62 91.3221L125.337 80.8732H129.557L123.763 95.4749V105.79L118.807 106.192ZM138.565 106.46C136.533 106.46 134.814 105.901 133.408 104.785C132.023 103.646 131.008 102.128 130.36 100.23L134.513 98.288L134.915 98.9578C135.562 100.074 136.176 100.945 136.757 101.57C137.36 102.195 138.107 102.508 139.001 102.508C139.581 102.508 140.095 102.229 140.541 101.671C141.01 101.112 141.244 100.498 141.244 99.8286C141.244 99.2034 141.088 98.6341 140.776 98.1206C140.463 97.6071 140.061 97.194 139.57 96.8814L135.183 94.2692C133.91 93.5548 132.894 92.6505 132.135 91.5565C131.376 90.4625 130.996 89.2346 130.996 87.8726C130.996 86.4214 131.331 85.1265 132.001 83.9878C132.693 82.8491 133.62 81.9672 134.781 81.3421C135.964 80.7169 137.293 80.4044 138.766 80.4044C140.485 80.4044 141.948 80.8286 143.153 81.677C144.359 82.5254 145.252 83.7869 145.833 85.4614L141.68 87.3368C141.59 87.1582 141.401 86.7563 141.11 86.1311C140.82 85.506 140.463 85.0595 140.039 84.7916C139.637 84.5013 139.135 84.3562 138.532 84.3562C137.795 84.3562 137.226 84.5906 136.824 85.0595C136.444 85.5283 136.254 86.1312 136.254 86.8679C136.254 87.4038 136.4 87.895 136.69 88.3415C137.002 88.7657 137.371 89.1006 137.795 89.3462L141.847 91.724C144.839 93.4208 146.413 95.6535 146.569 98.422C146.569 100.007 146.212 101.414 145.498 102.642C144.805 103.847 143.845 104.785 142.617 105.455C141.412 106.125 140.061 106.46 138.565 106.46Z" fill="#0A0000"/>
<path d="M57.9482 52.3745L51.0901 46.6742L56.4576 54.0191L55.5464 55.1154L47.2081 51.2951L53.9445 56.8941L52.7924 58.4288L43.7417 50.906L45.8454 48.2263L52.7531 51.4137L48.5128 45.4383L50.3511 42.9293L59.341 50.4014L57.9482 52.3745Z" fill="white"/>
<path d="M63.7687 48.4698C62.7135 49.2948 61.6159 49.4234 60.4757 48.8556C59.3374 48.2729 58.2031 47.2587 57.0728 45.813C55.871 44.276 55.1738 42.9133 54.9812 41.7252C54.7886 40.537 55.1991 39.5467 56.2127 38.7542C58.1486 37.2406 60.3541 38.0666 62.8291 41.2322C63.9399 42.653 64.6422 44.0049 64.9359 45.2881C65.2379 46.5648 64.8488 47.6253 63.7687 48.4698ZM62.6438 46.9797C63.0842 46.6354 63.1509 46.1214 62.8439 45.4377C62.5304 44.7457 61.9157 43.8139 60.9998 42.6424C60.2657 41.7035 59.5877 40.9818 58.9657 40.4774C58.3456 39.9582 57.8112 39.874 57.3625 40.2248C56.9139 40.5756 56.8634 41.1104 57.2112 41.8292C57.5589 42.5479 58.0999 43.3768 58.8339 44.3156C59.7564 45.4955 60.5114 46.3242 61.0991 46.8019C61.6886 47.2647 62.2035 47.324 62.6438 46.9797Z" fill="white"/>
<path d="M72.9398 42.748L66.6891 37.4582L69.7136 44.0249L67.8709 44.9781L62.947 34.2875L65.1058 33.1887L70.8451 38.3134L67.9728 32.0772L69.6752 31.0841L74.5991 41.7748L72.9398 42.748Z" fill="white"/>
<path d="M85.6032 40.1047V35.3112L82.7556 28.1448H85.3027L86.9321 33.0806L88.6881 28.1448H90.6815L87.9446 35.0423V39.9148L85.6032 40.1047Z" fill="white"/>
<path d="M76.475 41.0877L73.9473 29.4951L79.8364 28.2111L80.0452 30.06L76.6138 30.8081L77.2171 33.5749L79.6592 33.0424L80.0684 34.9934L77.6417 35.5225L78.3528 38.7839L82.0934 37.9683L82.3022 39.8172L76.475 41.0877Z" fill="white"/>
<path d="M98.2765 29.4115L100.923 29.6939C102.351 29.8462 103.36 30.2354 103.952 30.8614C104.544 31.4873 104.791 32.2571 104.693 33.1706C104.632 33.7481 104.462 34.245 104.184 34.6614C103.916 35.0789 103.572 35.3661 103.152 35.523C103.628 35.8393 103.99 36.2336 104.237 36.706C104.485 37.1679 104.563 37.8241 104.473 38.6746C104.237 40.8797 102.382 41.7968 98.9062 41.426L97.0162 41.2243L98.2765 29.4115ZM100.552 34.5128C101.161 34.5778 101.623 34.5262 101.938 34.3581C102.264 34.1911 102.46 33.7978 102.526 33.1783C102.584 32.6323 102.451 32.2411 102.126 32.0046C101.812 31.7587 101.361 31.6044 100.773 31.5417L100.316 31.493L100.001 34.454L100.552 34.5128ZM99.9534 39.6739C100.709 39.7546 101.275 39.6291 101.65 39.2974C102.027 38.9553 102.238 38.5637 102.285 38.1227C102.358 37.4402 102.223 36.969 101.879 36.7093C101.546 36.4402 101.055 36.271 100.404 36.2015L99.8995 36.1477L99.5281 39.6286L99.9534 39.6739Z" fill="white"/>
<path d="M106.42 42.1579L112.481 31.8169L115.664 32.722L114.394 44.7007L111.961 43.9945L112.357 41.4424L109.669 40.5515L108.387 42.8099L106.42 42.1579ZM110.672 38.8839L112.549 39.506L113.3 33.7716L110.672 38.8839Z" fill="white"/>
<path d="M119.199 48.2063C118.041 47.4928 117.547 46.4642 117.718 45.1204C117.898 43.7821 118.461 42.3452 119.407 40.8095C119.916 39.9834 120.513 39.255 121.199 38.6244C121.884 37.9938 122.617 37.5781 123.397 37.3773C124.192 37.1731 124.958 37.2977 125.694 37.7512C126.26 38.0997 126.646 38.579 126.852 39.1891C127.068 39.8048 127.113 40.4647 126.989 41.1687C126.88 41.8693 126.637 42.5249 126.261 43.1356L124.29 42.0518C124.539 41.6477 124.754 41.1482 124.934 40.5534C125.12 39.9496 125.011 39.5233 124.607 39.2744C124.185 39.0144 123.686 39.1714 123.11 39.7454C122.533 40.3194 121.954 41.0778 121.374 42.0207C120.655 43.1882 120.167 44.1819 119.909 45.002C119.658 45.813 119.788 46.3762 120.299 46.6914C120.659 46.9127 121.045 46.8592 121.457 46.5312C121.875 46.1942 122.295 45.7342 122.716 45.1512L124.3 46.3498C123.902 46.9964 123.424 47.5317 122.865 47.9557C122.312 48.3708 121.718 48.6117 121.082 48.6785C120.447 48.7453 119.819 48.5879 119.199 48.2063Z" fill="white"/>
<path d="M128.227 55.1553L130.589 49.7574L128.851 50.2559L126.244 52.9503L124.573 51.3332L132.692 42.9429L134.495 44.4236L130.887 48.1526L136.519 46.3818L138.292 48.0979L133.051 49.8511L130.295 56.4079L128.227 55.1553Z" fill="white"/>
<path d="M46.5629 133.496C45.7712 132.635 45.6204 131.607 46.1104 130.412C46.6076 129.225 47.5154 128.025 48.8339 126.812C49.5707 126.135 50.3659 125.575 51.2196 125.134C52.0804 124.7 52.9245 124.489 53.7517 124.502C54.5938 124.515 55.318 124.851 55.9242 125.51C56.4448 126.076 56.7367 126.674 56.7999 127.303C56.8779 127.932 56.7701 128.547 56.4766 129.146C56.1979 129.746 55.7832 130.299 55.2326 130.805L53.6408 129.284L53.853 129.025C54.2678 128.558 54.5575 128.141 54.7219 127.775C54.8864 127.409 54.8224 127.067 54.53 126.749C54.1591 126.346 53.5695 126.358 52.7611 126.787C51.9676 127.216 51.1481 127.819 50.3028 128.596C49.7056 129.146 49.2154 129.632 48.8322 130.056C48.4491 130.48 48.1734 130.92 48.0052 131.375C47.8447 131.823 47.9214 132.218 48.2352 132.559C48.4991 132.846 48.8843 132.907 49.3909 132.742C49.9045 132.584 50.4212 132.267 50.9408 131.789L50.1492 130.928L51.5805 129.869L53.7523 132.231L49.4594 136.179L48.7905 135.591L50.0439 133.709C49.6772 133.917 49.3237 134.077 48.9834 134.19C48.6503 134.31 48.2652 134.335 47.8282 134.265C47.3912 134.194 46.9694 133.938 46.5629 133.496Z" fill="white"/>
<path d="M55.7468 141.676C54.7923 140.98 54.3002 140.151 54.2703 139.19C54.2405 138.228 54.589 137.249 55.316 136.252L59.9482 129.899L61.8832 131.192L57.0833 137.775C56.841 138.108 56.6529 138.401 56.5193 138.656C56.3941 138.917 56.3492 139.185 56.3845 139.459C56.4199 139.732 56.5952 139.984 56.9105 140.214C57.2088 140.432 57.4851 140.509 57.7395 140.446C58.0087 140.382 58.2411 140.251 58.4367 140.054C58.6386 139.849 58.8669 139.572 59.1216 139.222L63.7911 132.818L65.6159 133.913L61.0862 140.126C60.4276 141.029 59.6521 141.717 58.7598 142.189C57.876 142.667 56.8717 142.496 55.7468 141.676Z" fill="white"/>
<path d="M63.0474 146.022L69.9538 136.226L73.0499 137.394L70.7799 149.224L68.4151 148.317L69.0235 145.807L66.4197 144.694L64.953 146.837L63.0474 146.022ZM67.5587 143.116L69.377 143.893L70.6058 138.242L67.5587 143.116Z" fill="white"/>
<path d="M74.2831 150.233L78.9534 139.165L82.2349 139.648L82.5388 151.717L80.0293 151.333L80.089 148.746L77.3015 148.212L76.3231 150.624L74.2831 150.233ZM78.0799 146.424L80.0264 146.796L80.0226 141L78.0799 146.424Z" fill="white"/>
<path d="M94.1644 151.821L90.1712 144.66L90.6908 151.88L88.628 152.124L87.7821 140.37L90.1925 140.101L93.7646 146.927L93.2712 140.07L95.2166 139.739L96.0624 151.494L94.1644 151.821Z" fill="white"/>
<path d="M104.465 150.292L101.723 140.544L99.3894 141.2L99.0553 139.368L105.768 137.481L106.086 139.317L103.951 139.918L106.64 149.483L104.465 150.292Z" fill="white"/>
<path d="M114.706 146.594L109.485 135.939L114.898 133.287L115.542 135.033L112.388 136.578L113.634 139.121L115.879 138.021L116.742 139.818L114.511 140.911L115.98 143.909L119.418 142.224L120.062 143.97L114.706 146.594Z" fill="white"/>
<path d="M125.338 140.974L118.146 131.538L122.94 127.884L123.911 129.471L121.118 131.6L122.834 133.852L124.822 132.337L126.018 133.932L124.043 135.438L126.066 138.093L129.111 135.772L130.082 137.359L125.338 140.974Z" fill="white"/>
</svg>
