<svg width="160" height="172" viewBox="0 0 160 172" fill="none" xmlns="http://www.w3.org/2000/svg">
<path d="M26.1774 63.6087C31.5601 127.568 77.5567 149.752 122.651 150.794" stroke="white" stroke-width="2.7411" stroke-miterlimit="10" stroke-linecap="round" stroke-linejoin="round"/>
<path d="M121.356 141.282L132.277 149.665L120.015 160.845" stroke="white" stroke-width="2.7411" stroke-miterlimit="10" stroke-linecap="round" stroke-linejoin="round"/>
<path d="M13.7877 24.6995C13.5502 24.7178 13.3309 24.6629 13.1299 24.535C12.9471 24.4254 12.8192 24.2792 12.7461 24.0964C12.673 24.0051 12.5542 23.8041 12.3898 23.4934C12.2253 23.201 12.1248 22.9452 12.0882 22.7259C12.0334 22.1411 11.9969 21.5746 11.9786 21.0264C11.9786 20.4782 12.006 19.7107 12.0608 18.7239C12.1156 17.9198 12.2253 17.2071 12.3898 16.5858C12.5542 15.9462 12.7187 15.4072 12.8832 14.9686C13.0476 14.5117 13.1755 14.1737 13.2669 13.9544C13.3583 13.7168 13.3766 13.598 13.3217 13.598C13.2486 13.598 13.1664 13.6711 13.075 13.8173C13.0019 13.9452 12.9106 14.1188 12.8009 14.3381C12.7096 14.5574 12.5999 14.795 12.472 15.0508C12.3623 15.3067 12.2436 15.5534 12.1156 15.7909C11.8598 16.3574 11.5583 16.9605 11.2111 17.6C10.8822 18.2214 10.5441 18.8244 10.1969 19.4092C9.84967 19.9939 9.54815 20.5056 9.29232 20.9442C9.12785 21.1269 8.93597 21.3919 8.71669 21.7391C8.4974 22.068 8.25984 22.4152 8.004 22.7807C7.74817 23.1462 7.48319 23.4477 7.20908 23.6853C6.80706 24.069 6.39589 24.2975 5.97559 24.3705C5.55529 24.4619 5.1624 24.4162 4.79692 24.2335C4.61418 24.2152 4.4223 24.1147 4.22129 23.932C4.02028 23.7675 3.85581 23.5574 3.72789 23.3015C3.61825 23.0457 3.59084 22.8081 3.64566 22.5888C3.62738 22.333 3.62738 21.9401 3.64566 21.4102C3.68221 20.8619 3.73703 20.268 3.81012 19.6285C3.88322 18.9706 3.95632 18.3401 4.02941 17.7371C4.12078 17.1341 4.20301 16.6315 4.27611 16.2295C4.44058 15.06 4.65986 13.863 4.93397 12.6387C5.22636 11.4143 5.49133 10.1808 5.72889 8.93817C5.87508 8.57269 6.003 8.16153 6.11265 7.70468C6.24056 7.22956 6.36848 6.79098 6.4964 6.38896C6.51467 5.98693 6.66086 5.74023 6.93497 5.64886C7.20908 5.53921 7.50147 5.52094 7.81213 5.59404C8.14106 5.66713 8.36948 5.79505 8.4974 5.97779C8.68014 6.16053 8.85374 6.44378 9.01821 6.82753C9.18267 7.21128 9.13699 7.69554 8.88115 8.28031C8.51567 9.17574 8.15933 10.2722 7.81213 11.5696C7.48319 12.8488 7.18167 14.4021 6.90756 16.2295C6.83447 16.6681 6.75223 17.1615 6.66086 17.7097C6.58777 18.2396 6.51467 18.7513 6.44158 19.2447C6.38676 19.7381 6.34107 20.1493 6.30452 20.4782C6.28625 20.7888 6.29539 20.9533 6.33193 20.9716C6.47812 21.0081 6.63345 20.9259 6.79792 20.7249C6.98066 20.5239 7.17254 20.2041 7.37355 19.7655C8.12278 18.5229 8.82633 17.2894 9.48419 16.065C10.1603 14.8407 10.8365 13.5615 11.5126 12.2275C11.8233 11.6975 12.1339 11.1219 12.4446 10.5006C12.7735 9.86101 13.0842 9.27624 13.3766 8.7463C13.6872 8.19808 13.9887 7.66813 14.2811 7.15646C14.5735 6.64479 14.8293 6.21535 15.0486 5.86815C15.2679 5.50267 15.4324 5.30165 15.542 5.26511C16.0354 5.26511 16.4009 5.39302 16.6385 5.64886C16.8943 5.90469 17.0953 6.21535 17.2415 6.58083C17.278 6.6722 17.2963 6.82753 17.2963 7.04682C17.3146 7.2661 17.2872 7.45798 17.2141 7.62245C17.1958 7.75037 17.1136 8.01534 16.9674 8.41737C16.8395 8.81939 16.7207 9.26711 16.611 9.7605C16.4283 10.2539 16.2638 10.7473 16.1176 11.2407C15.9897 11.7158 15.8984 12.1087 15.8435 12.4194C15.6973 13.2051 15.5146 14.064 15.2953 14.996C15.076 15.928 14.8842 16.8599 14.7197 17.7919C14.5735 18.7056 14.4913 19.5188 14.473 20.2315C14.4547 20.7432 14.4547 21.0812 14.473 21.2457C14.5095 21.3919 14.5644 21.5472 14.6375 21.7117C14.674 21.8579 14.7562 21.8944 14.8842 21.8213C15.0121 21.7482 15.14 21.6203 15.2679 21.4376C15.5237 21.0538 15.7156 20.7249 15.8435 20.4508C15.9897 20.1767 16.1359 19.8843 16.2821 19.5736C16.4283 19.2447 16.6293 18.8335 16.8852 18.3401C17.342 17.4995 17.808 16.5767 18.2831 15.5716C18.7765 14.5666 19.2425 13.5706 19.6811 12.5838C20.1379 11.597 20.5308 10.7199 20.8597 9.95238C21.207 8.96559 21.4993 8.17067 21.7369 7.56763C21.9745 6.94631 22.1937 6.47119 22.3948 6.14226C22.5958 5.81332 22.7877 5.59404 22.9704 5.48439C23.0618 5.4113 23.2536 5.37475 23.546 5.37475C23.8567 5.37475 24.0942 5.44784 24.2587 5.59404C24.3318 5.66713 24.4597 5.78591 24.6425 5.95038C24.8252 6.11484 24.9074 6.30672 24.8892 6.52601C24.7978 6.81839 24.6242 7.29352 24.3683 7.95138C24.1308 8.60924 23.8475 9.3402 23.5186 10.1443C23.208 10.93 22.8973 11.6884 22.5866 12.4194C22.2943 13.1321 22.0476 13.6985 21.8465 14.1188C21.6455 14.5026 21.4536 14.8315 21.2709 15.1056C21.0882 15.3798 20.9968 15.5899 20.9968 15.7361C20.9968 15.8092 20.9054 16.0376 20.7227 16.4214C20.54 16.7868 20.3024 17.2346 20.01 17.7645C19.7359 18.2945 19.4344 18.8427 19.1054 19.4092C18.7765 19.9757 18.4659 20.4965 18.1735 20.9716C17.8811 21.4467 17.6344 21.8122 17.4334 22.068C16.9765 22.6345 16.4831 23.1096 15.9532 23.4934C15.4415 23.8954 14.9847 24.1969 14.5826 24.398C14.1806 24.599 13.9156 24.6995 13.7877 24.6995ZM23.1274 22.4244C23.0543 22.2782 22.8898 22.132 22.634 21.9858C22.3964 21.8396 22.2776 21.73 22.2776 21.6569C22.2776 21.5838 22.2319 21.4741 22.1406 21.3279C22.0675 21.1635 21.9944 21.0447 21.9213 20.9716C21.8299 20.8619 21.8573 20.597 22.0035 20.1767C22.1497 19.7381 22.369 19.2081 22.6614 18.5868C22.9538 17.9655 23.2736 17.3351 23.6208 16.6955C23.7669 16.5493 23.9131 16.3574 24.0593 16.1198C24.2055 15.8823 24.3152 15.727 24.3883 15.6539C24.3883 15.5808 24.4157 15.5168 24.4705 15.462C24.5253 15.3889 24.5893 15.3523 24.6624 15.3523L24.8817 14.9138C24.9182 14.8407 25.0279 14.6945 25.2106 14.4752C25.4116 14.2559 25.6492 14.0183 25.9233 13.7625C26.1974 13.4884 26.4715 13.2326 26.7456 12.995C27.038 12.7574 27.2756 12.5838 27.4583 12.4742C27.842 12.2184 28.2349 12.0996 28.637 12.1178C29.0573 12.1361 29.4136 12.264 29.706 12.5016C29.7608 12.5564 29.8796 12.6661 30.0623 12.8305C30.2633 12.995 30.4826 13.1777 30.7202 13.3788C30.976 13.5798 31.1953 13.7625 31.3781 13.927L32.3923 14.8315L31.9263 16.2021C31.6887 16.933 31.6248 17.5726 31.7344 18.1208C31.844 18.6691 32.0176 19.1442 32.2552 19.5462C32.3466 19.7472 32.4654 19.9026 32.6116 20.0122C32.776 20.1218 32.9862 20.1949 33.242 20.2315C33.3882 20.2498 33.5253 20.3046 33.6532 20.396C33.7811 20.4873 33.845 20.6335 33.845 20.8345C33.845 21.2731 33.7628 21.5929 33.5983 21.7939C33.4522 21.9767 33.2877 22.0863 33.105 22.1228C32.5019 22.1959 31.9263 22.132 31.3781 21.931C30.8298 21.73 30.3364 21.2092 29.8979 20.3685C29.8248 20.2589 29.7243 20.0579 29.5963 19.7655C29.4867 19.4548 29.4227 19.2538 29.4045 19.1625C29.3314 19.2538 29.2309 19.3726 29.1029 19.5188C28.9933 19.6467 28.8837 19.7655 28.774 19.8751C27.4766 21.1909 26.3619 22.0498 25.4299 22.4518C24.5162 22.8355 23.7487 22.8264 23.1274 22.4244ZM24.635 20.1493C24.7629 20.1675 24.9639 20.1036 25.238 19.9574C25.5121 19.7929 25.8776 19.5279 26.3344 19.1625C26.9558 18.6325 27.4674 18.1939 27.8695 17.8467C28.2715 17.4995 28.6644 17.0518 29.0481 16.5036L29.6512 15.5168C29.4684 15.0965 29.304 14.8224 29.1578 14.6945C29.0116 14.5666 28.8654 14.5026 28.7192 14.5026C28.4816 14.5026 28.1984 14.6579 27.8695 14.9686C27.5405 15.261 27.1659 15.6995 26.7456 16.2843C26.3436 16.8508 25.8867 17.5635 25.3751 18.4224C25.1375 18.8244 24.9548 19.2173 24.8268 19.601C24.6989 19.9665 24.635 20.1493 24.635 20.1493ZM36.6489 23.0274C36.4479 22.9909 36.2286 22.8721 35.991 22.6711C35.7535 22.4518 35.5342 22.2142 35.3332 21.9584C35.1504 21.6843 35.0316 21.4558 34.9768 21.2731C34.9768 21.2366 34.9494 21.1909 34.8946 21.1361C34.858 21.0812 34.8398 21.0538 34.8398 21.0538C34.7667 20.999 34.721 20.7614 34.7027 20.3411C34.7027 19.9026 34.7301 19.4183 34.7849 18.8884C34.8398 18.3584 34.9037 17.9381 34.9768 17.6275C35.0682 17.3351 35.2052 16.9422 35.388 16.4488C35.5707 15.9371 35.7261 15.4803 35.854 15.0782L36.5941 13.4884L35.4976 13.1869C35.3697 13.1503 35.2601 13.0772 35.1687 12.9676C35.0956 12.8579 35.0591 12.7666 35.0591 12.6935C35.0591 12.5473 35.1413 12.3371 35.3058 12.063C35.4702 11.7889 35.589 11.6519 35.6621 11.6519C35.7535 11.6701 35.9179 11.6793 36.1555 11.6793C36.4113 11.6793 36.658 11.6701 36.8956 11.6519C37.1331 11.6336 37.2793 11.6153 37.3342 11.597C37.4073 11.5605 37.4804 11.5148 37.5534 11.46C37.6265 11.3869 37.6814 11.2864 37.7179 11.1585C37.8093 10.9574 37.8915 10.8021 37.9646 10.6925C38.0377 10.5828 38.1382 10.4184 38.2661 10.1991C38.3941 9.96152 38.4946 9.7605 38.5677 9.59604C38.659 9.43157 38.7961 9.20315 38.9788 8.91076C39.0702 8.78285 39.1707 8.62752 39.2803 8.44478C39.39 8.26204 39.527 8.10671 39.6915 7.97879C39.856 7.8326 40.1209 7.73209 40.4864 7.67727C40.8702 7.60417 41.1991 7.68641 41.4732 7.92397C41.6194 8.10671 41.7016 8.28031 41.7199 8.44478C41.7382 8.60924 41.6651 8.81939 41.5006 9.07523C41.3544 9.38589 41.1808 9.66913 40.9798 9.92497C40.7971 10.1625 40.6235 10.4366 40.459 10.7473C40.1666 11.1493 40.1118 11.3778 40.2945 11.4326C40.4773 11.4874 40.989 11.4508 41.8296 11.3229C42.3595 11.2316 42.7433 11.2864 42.9808 11.4874C43.2184 11.6884 43.3554 11.9442 43.392 12.2549C43.4468 12.6935 43.4011 12.9584 43.2549 13.0498C43.1087 13.1412 42.6884 13.1869 41.994 13.1869C41.5555 13.26 41.1808 13.3057 40.8702 13.3239C40.5595 13.3239 40.3311 13.3239 40.1849 13.3239C39.9473 13.3422 39.792 13.3513 39.7189 13.3513C39.6458 13.3513 39.5362 13.3696 39.39 13.4062C39.2438 13.4427 39.1341 13.5067 39.0611 13.598C39.0062 13.6711 38.9423 13.7808 38.8692 13.927C38.7961 14.0001 38.6864 14.1919 38.5402 14.5026C38.3941 14.8133 38.2113 15.1513 37.992 15.5168C37.7362 16.2843 37.5169 17.0244 37.3342 17.7371C37.1697 18.4315 37.0235 19.1259 36.8956 19.8203C36.8408 20.1675 36.8499 20.4234 36.923 20.5878C37.0144 20.734 37.2519 20.8254 37.6357 20.8619C37.8367 20.8802 38.1291 20.8802 38.5128 20.8619C38.8966 20.8254 39.2164 20.7706 39.4722 20.6975C39.6732 20.6061 39.8834 20.5147 40.1027 20.4234C40.322 20.3137 40.523 20.2041 40.7057 20.0944C40.8702 20.0031 41.0346 19.9117 41.1991 19.8203C41.3636 19.7107 41.4458 19.6559 41.4458 19.6559C41.5372 19.5097 41.6651 19.5371 41.8296 19.7381C42.0123 19.9208 42.1402 20.1218 42.2133 20.3411C42.2133 20.5604 42.1676 20.8254 42.0763 21.1361C41.9849 21.4284 41.6468 21.7391 41.0621 22.068C40.2397 22.5797 39.4174 22.8904 38.5951 23C37.7727 23.1096 37.124 23.1188 36.6489 23.0274ZM46.1894 22.7807C45.7874 22.7807 45.4859 22.7624 45.2848 22.7259C45.1021 22.6893 44.965 22.6345 44.8737 22.5614C44.7823 22.4883 44.6635 22.3878 44.5173 22.2599C44.4442 22.1137 44.3163 21.931 44.1336 21.7117C43.9508 21.4741 43.8229 21.3188 43.7498 21.2457C43.6767 20.9716 43.6493 20.597 43.6676 20.1218C43.7041 19.6467 43.7864 19.1351 43.9143 18.5868C44.0422 18.0386 44.1975 17.5452 44.3803 17.1066C44.4534 16.9605 44.5173 16.8143 44.5722 16.6681C44.627 16.5219 44.6544 16.4488 44.6544 16.4488C44.6544 16.3574 44.764 16.1381 44.9833 15.7909C45.2209 15.4437 45.4767 15.0782 45.7508 14.6945C46.0432 14.3107 46.2808 14.0366 46.4635 13.8721C46.5914 13.726 46.7833 13.5706 47.0391 13.4062C47.3133 13.2417 47.5508 13.1229 47.7518 13.0498C47.9528 12.9767 48.227 12.8854 48.5742 12.7757C48.9214 12.6478 49.232 12.5838 49.5061 12.5838C49.762 12.5838 50.0361 12.6387 50.3285 12.7483C50.6208 12.8579 50.8675 13.0498 51.0686 13.3239C51.3975 13.6529 51.6076 14.0458 51.699 14.5026C51.7904 14.9594 51.7995 15.3523 51.7264 15.6813C51.635 16.0468 51.4523 16.3483 51.1782 16.5858C50.9041 16.8051 50.6117 16.9239 50.301 16.9422C49.9904 16.9422 49.7163 16.8143 49.4787 16.5584C49.4056 16.4122 49.3691 16.2935 49.3691 16.2021C49.3691 16.0924 49.4056 15.9371 49.4787 15.7361C49.5518 15.4803 49.5884 15.2518 49.5884 15.0508C49.5884 14.8498 49.5061 14.7493 49.3417 14.7493C49.1041 14.7493 48.9122 14.8224 48.766 14.9686C48.6198 15.0965 48.4006 15.3158 48.1082 15.6264C47.9803 15.7726 47.8158 15.9828 47.6148 16.2569C47.4138 16.531 47.2127 16.8325 47.0117 17.1615C46.829 17.4721 46.6645 17.7919 46.5183 18.1208C46.3173 18.7239 46.1894 19.1168 46.1346 19.2995C46.098 19.464 46.0798 19.5462 46.0798 19.5462C46.0798 19.6193 46.0706 19.6924 46.0523 19.7655C46.0341 19.8203 46.0249 19.8843 46.0249 19.9574C46.0249 20.1767 46.1529 20.3503 46.4087 20.4782C46.6097 20.6061 46.7742 20.6701 46.9021 20.6701C47.0483 20.6518 47.3224 20.5513 47.7244 20.3685C48.0168 20.2224 48.2909 20.0305 48.5467 19.7929C48.8209 19.5554 49.1041 19.3452 49.3965 19.1625C49.5975 19.0345 49.7528 18.9249 49.8625 18.8335C49.9904 18.7422 50.0543 18.733 50.0543 18.8061C50.0543 18.8792 50.0818 18.9158 50.1366 18.9158C50.1914 18.9158 50.2554 18.8792 50.3285 18.8061C50.4381 18.6599 50.5752 18.6051 50.7396 18.6417C50.9041 18.6599 51.0503 18.7056 51.1782 18.7787C51.3244 18.8518 51.3975 18.9158 51.3975 18.9706C51.3609 19.1351 51.3975 19.2721 51.5071 19.3818C51.5071 19.4548 51.4797 19.5554 51.4249 19.6833C51.3883 19.7929 51.3335 19.8843 51.2604 19.9574C51.1691 20.0853 51.032 20.268 50.8493 20.5056C50.6848 20.7432 50.5295 20.9533 50.3833 21.1361C50.2371 21.3188 50.164 21.4102 50.164 21.4102C50.0909 21.3919 50.0178 21.4102 49.9447 21.465C49.8899 21.5198 49.8259 21.5838 49.7528 21.6569C49.6066 21.7848 49.4696 21.8853 49.3417 21.9584C49.2137 22.0132 49.1132 22.0406 49.0401 22.0406C48.9122 22.1137 48.8117 22.1594 48.7386 22.1777C48.6838 22.1959 48.6564 22.2416 48.6564 22.3147C48.4736 22.4975 48.1447 22.6254 47.6696 22.6985C47.1945 22.7533 46.7011 22.7807 46.1894 22.7807ZM63.5228 22.8081C63.1756 22.8995 62.8101 22.9635 62.4263 23C62.0609 23.0548 61.7411 22.9452 61.4669 22.6711C61.3025 22.4152 61.1563 22.1868 61.0284 21.9858C60.9005 21.7848 60.8182 21.4284 60.7817 20.9168C60.7634 20.5696 60.7817 20.1949 60.8365 19.7929C60.9096 19.3726 60.937 19.0711 60.9187 18.8884C61.0649 18.2122 61.1015 17.728 61.0284 17.4356C60.9736 17.1432 60.9005 16.997 60.8091 16.997C60.6081 16.9605 60.2883 17.1066 59.8497 17.4356C59.4294 17.7645 58.9269 18.2305 58.3421 18.8335C57.7756 19.4183 57.1634 20.0853 56.5056 20.8345C56.1584 21.3097 55.9025 21.666 55.7381 21.9036C55.5919 22.1228 55.4822 22.2325 55.4091 22.2325C55.0802 22.2325 54.7787 22.1777 54.5046 22.068C54.2305 21.9584 54.0112 21.8031 53.8467 21.602C53.6822 21.401 53.5817 21.1909 53.5452 20.9716C53.5452 20.8985 53.5909 20.7066 53.6822 20.396C53.7736 20.067 53.8832 19.6924 54.0112 19.2721C54.1391 18.8518 54.2579 18.4589 54.3675 18.0934C54.4954 17.728 54.5868 17.4721 54.6416 17.3259C54.8061 16.8508 54.998 16.2752 55.2172 15.599C55.4548 14.9046 55.665 14.2924 55.8477 13.7625C55.9208 13.5249 56.0487 13.1869 56.2315 12.7483C56.4142 12.2914 56.5969 11.8346 56.7797 11.3778C56.9624 10.9209 57.0903 10.5828 57.1634 10.3635C57.2182 10.2174 57.3188 9.96152 57.4649 9.59604C57.6111 9.21228 57.7665 8.79198 57.9309 8.33513C58.1137 7.87828 58.2781 7.45798 58.4243 7.07423C58.5888 6.6722 58.6984 6.37982 58.7533 6.19708C58.735 6.03261 58.7441 5.88642 58.7807 5.7585C58.8355 5.61231 58.8903 5.50267 58.9451 5.42957C59.0182 5.42957 59.1005 5.42957 59.1918 5.42957C59.2832 5.4113 59.3289 5.40216 59.3289 5.40216C59.3289 5.36561 59.4477 5.40216 59.6852 5.5118C59.9411 5.62145 60.1878 5.7585 60.4253 5.92297C60.6812 6.06916 60.8091 6.19708 60.8091 6.30672C60.9005 6.54428 60.9096 6.85494 60.8365 7.23869C60.7634 7.60417 60.5715 8.16153 60.2609 8.91076C60.0599 9.20315 59.8588 9.64172 59.6578 10.2265C59.4751 10.8113 59.2923 11.3047 59.1096 11.7067C59.0365 11.8346 58.9269 12.063 58.7807 12.392C58.6528 12.7026 58.4974 13.0772 58.3147 13.5158C58.1502 13.9361 57.9858 14.3838 57.8213 14.8589C57.6568 15.3341 57.5106 15.8001 57.3827 16.2569C57.2 16.6955 57.136 16.9879 57.1908 17.1341C57.2457 17.2802 57.4649 17.1158 57.8487 16.6407C58.3604 16.0924 58.8355 15.599 59.2741 15.1605C59.7309 14.7219 60.1512 14.3747 60.535 14.1188C60.937 13.8447 61.2933 13.726 61.604 13.7625C61.7685 13.7991 61.9786 13.9178 62.2345 14.1188C62.5086 14.3016 62.7644 14.5209 63.002 14.7767C63.2578 15.0143 63.4223 15.2427 63.4954 15.462C63.5685 15.7178 63.6141 15.9645 63.6324 16.2021C63.669 16.4396 63.6781 16.7777 63.6598 17.2163C63.6416 17.6366 63.5959 18.267 63.5228 19.1076C63.4131 19.729 63.34 20.1767 63.3035 20.4508C63.2669 20.7066 63.2761 20.8894 63.3309 20.999C63.404 21.1086 63.5136 21.2274 63.6598 21.3553C63.9339 21.5746 64.0436 21.8396 63.9888 22.1503C63.9339 22.4426 63.7786 22.6619 63.5228 22.8081ZM74.0507 21.9584C73.9228 21.9767 73.7766 21.931 73.6121 21.8213C73.466 21.6934 73.3289 21.5838 73.201 21.4924C73.0182 21.2731 72.8903 21.0812 72.8172 20.9168C72.7441 20.7523 72.7076 20.5696 72.7076 20.3685C72.7076 20.1675 72.7259 19.93 72.7624 19.6559C72.8538 19.3635 72.9634 18.9706 73.0913 18.4772C73.2193 17.9838 73.3746 17.4538 73.5573 16.8874C73.5939 16.6681 73.6578 16.4122 73.7492 16.1198C73.8588 15.8092 73.9685 15.5168 74.0781 15.2427C74.1878 14.9503 74.27 14.731 74.3248 14.5848C74.4528 14.128 74.5807 13.6894 74.7086 13.2691C74.8548 12.8488 75.0284 12.3645 75.2294 11.8163C75.4304 11.2681 75.6771 10.5737 75.9695 9.73309C76.3715 8.63665 76.673 7.81432 76.8741 7.26611C77.0751 6.71789 77.2213 6.325 77.3126 6.08743C77.404 5.84987 77.468 5.658 77.5045 5.5118C77.5045 5.36561 77.605 5.22856 77.806 5.10064C78.0253 4.95445 78.2172 4.88135 78.3817 4.88135C78.6375 4.89963 78.8842 5.05495 79.1218 5.34734C79.3593 5.62145 79.5238 5.95952 79.6152 6.36154C79.7065 6.7453 79.6426 7.11991 79.4233 7.48539C79.1309 8.14326 78.8385 8.88335 78.5461 9.70568C78.272 10.5097 77.9979 11.3138 77.7238 12.1178C77.4497 12.9219 77.1756 13.662 76.9015 14.3381C76.8832 14.4295 76.8192 14.5848 76.7096 14.8041C76.6182 15.0234 76.536 15.2061 76.4629 15.3523C76.3898 15.4985 76.3167 15.6356 76.2436 15.7635C76.1888 15.8914 76.1614 15.9554 76.1614 15.9554C76.1431 16.065 76.1065 16.2204 76.0517 16.4214C75.9969 16.6224 75.9421 16.796 75.8873 16.9422C75.869 17.0335 75.8416 17.1523 75.805 17.2985C75.7685 17.4447 75.7411 17.5909 75.7228 17.7371C75.8142 17.6275 75.9421 17.4995 76.1065 17.3533C76.271 17.1889 76.4812 16.9879 76.737 16.7503C77.0294 16.4945 77.2852 16.2752 77.5045 16.0924C77.7238 15.9097 77.9431 15.7452 78.1624 15.599C78.3634 15.4528 78.5461 15.3158 78.7106 15.1879C78.8933 15.06 78.9847 14.996 78.9847 14.996C79.0212 14.9412 79.0578 14.8772 79.0943 14.8041C79.1492 14.731 79.204 14.6853 79.2588 14.6671C79.2954 14.6305 79.3593 14.5848 79.4507 14.53C79.5421 14.4569 79.6334 14.3838 79.7248 14.3107C79.8893 14.2011 80.0629 14.1097 80.2456 14.0366C80.4283 13.9635 80.6202 13.9087 80.8212 13.8721C81.0222 13.8356 81.2141 13.8173 81.3969 13.8173C81.6162 13.8173 81.8446 13.9087 82.0821 14.0914C82.3197 14.2559 82.539 14.4935 82.74 14.8041C82.9227 15.0417 83.0324 15.3249 83.0689 15.6539C83.1238 15.9645 83.1329 16.3848 83.0963 16.9148C83.0963 17.061 83.0507 17.3351 82.9593 17.7371C82.8862 18.1391 82.8314 18.4406 82.7948 18.6417L82.5481 19.5736H82.7674C82.9684 19.5005 83.1603 19.4914 83.343 19.5462C83.5441 19.601 83.6446 19.6285 83.6446 19.6285C83.7359 19.6833 83.8182 19.7472 83.8913 19.8203C83.9826 19.8934 84.0649 19.9482 84.138 19.9848C84.2476 20.131 84.2293 20.3411 84.0831 20.6152C83.9369 20.8894 83.7725 21.0812 83.5897 21.1909C83.1512 21.4833 82.7583 21.666 82.4111 21.7391C82.0821 21.8122 81.7349 21.7482 81.3695 21.5472C81.0222 21.3097 80.7847 21.0264 80.6568 20.6975C80.5471 20.3685 80.5014 19.9208 80.5197 19.3543C80.5928 18.5503 80.6385 17.9747 80.6568 17.6275C80.675 17.262 80.5837 17.0792 80.3827 17.0792C80.1634 17.0792 79.8618 17.1889 79.4781 17.4082C79.1126 17.6092 78.7015 17.8924 78.2446 18.2579C77.7878 18.6051 77.3309 18.998 76.8741 19.4366C76.4355 19.8569 76.0426 20.2863 75.6954 20.7249C75.4761 20.999 75.2385 21.2731 74.9827 21.5472C74.7269 21.8031 74.4162 21.9401 74.0507 21.9584ZM88.5417 22.7807C88.1579 22.8538 87.8656 22.8355 87.6646 22.7259C87.4818 22.598 87.2899 22.4426 87.0889 22.2599C86.7965 22.1137 86.5316 21.9127 86.294 21.6569C86.0564 21.3828 85.8737 21.0995 85.7458 20.8071C85.6179 20.5147 85.563 20.2863 85.5813 20.1218C85.6361 19.4823 85.7823 18.7878 86.0199 18.0386C86.2757 17.2894 86.5955 16.5584 86.9793 15.8457C87.3813 15.1331 87.829 14.5026 88.3224 13.9544C88.8341 13.3879 89.3823 12.9767 89.9671 12.7209C90.3326 12.5747 90.7254 12.5199 91.1457 12.5564C91.566 12.593 91.8493 12.7666 91.9955 13.0772C92.2696 13.6072 92.2056 13.9452 91.8036 14.0914C91.7488 14.0914 91.6848 14.1188 91.6117 14.1737C91.5386 14.2102 91.5021 14.265 91.5021 14.3381C91.5752 14.3747 91.7762 14.3838 92.1051 14.3655C92.4341 14.329 92.763 14.2742 93.0919 14.2011C93.4391 14.1097 93.6676 14.0183 93.7772 13.927C93.8868 13.8721 93.9691 13.8447 94.0239 13.8447C94.0787 13.8447 94.2158 13.863 94.4351 13.8996C94.7457 13.9909 94.901 14.1006 94.901 14.2285C94.901 14.3016 94.9285 14.4204 94.9833 14.5848C95.0381 14.731 95.1021 14.8041 95.1752 14.8041C95.3031 14.8224 95.3305 14.9503 95.2574 15.1879C95.2026 15.4254 94.9924 15.6721 94.6269 15.928C94.2797 16.1473 94.0604 16.2935 93.9691 16.3665C93.896 16.4214 93.8868 16.5493 93.9417 16.7503C94.0879 17.0975 94.0787 17.5178 93.9143 18.0112C93.7498 18.5046 93.4757 19.0163 93.0919 19.5462C92.7082 20.0762 92.2513 20.5787 91.7214 21.0538C91.2097 21.5107 90.6706 21.9036 90.1041 22.2325C89.5559 22.5432 89.0351 22.7259 88.5417 22.7807ZM88.6239 20.4782C88.697 20.4782 88.8249 20.4416 89.0077 20.3685C89.1904 20.2772 89.3366 20.2041 89.4463 20.1493C89.5194 20.0762 89.6107 19.9939 89.7204 19.9026C89.8483 19.7929 89.9488 19.729 90.0219 19.7107C90.095 19.7107 90.1407 19.6833 90.1589 19.6285C90.1772 19.5554 90.2412 19.4183 90.3508 19.2173C90.4605 18.998 90.6798 18.6782 91.0087 18.2579C91.3742 17.8559 91.6117 17.5361 91.7214 17.2985C91.831 17.0427 91.8402 16.7686 91.7488 16.4762C91.7305 16.4031 91.6757 16.3574 91.5843 16.3391C91.5112 16.3209 91.4107 16.2752 91.2828 16.2021C91.1001 16.2021 90.9721 16.2478 90.899 16.3391C90.8442 16.4122 90.7163 16.3665 90.5153 16.2021L90.0767 15.6539L89.6107 16.1198C89.3183 16.4122 89.0534 16.7777 88.8158 17.2163C88.5965 17.6549 88.4229 18.1026 88.295 18.5594C88.1671 19.0163 88.0849 19.4183 88.0483 19.7655C88.03 20.0396 88.0757 20.2224 88.1854 20.3137C88.295 20.4051 88.4412 20.4599 88.6239 20.4782ZM102.502 23.2467C102.246 23.1005 102.027 22.9726 101.844 22.8629C101.662 22.735 101.525 22.5249 101.433 22.2325C101.36 21.9401 101.324 21.4833 101.324 20.8619C101.324 20.533 101.314 20.268 101.296 20.067C101.278 19.866 101.269 19.7655 101.269 19.7655C101.269 19.7655 101.187 19.8477 101.022 20.0122C100.858 20.1767 100.647 20.4599 100.392 20.8619C99.9896 21.6112 99.6241 22.1046 99.2952 22.3421C98.9845 22.5797 98.7287 22.735 98.5276 22.8081C98.4363 22.8447 98.2627 22.8355 98.0068 22.7807C97.751 22.7076 97.4678 22.6071 97.1571 22.4792C96.8647 22.3513 96.6089 22.2234 96.3896 22.0954C96.1703 21.9675 96.0424 21.8487 96.0058 21.7391C95.9693 21.6477 95.951 21.4467 95.951 21.1361C95.951 20.8071 95.9602 20.4508 95.9784 20.067C96.015 19.665 96.0607 19.2995 96.1155 18.9706C96.1703 18.6234 96.2343 18.3767 96.3074 18.2305C96.3074 18.1757 96.3165 18.1208 96.3348 18.066C96.3713 17.9929 96.3622 17.9198 96.3074 17.8467C96.3074 17.8467 96.3622 17.6457 96.4718 17.2437C96.5997 16.8417 96.7459 16.3665 96.9104 15.8183C97.0931 15.2701 97.2576 14.7584 97.4038 14.2833C97.5683 13.7899 97.687 13.461 97.7601 13.2965C97.7601 13.1503 97.7784 12.995 97.815 12.8305C97.8698 12.6661 97.8972 12.5473 97.8972 12.4742C97.8972 12.3097 97.9886 12.1361 98.1713 11.9534C98.4271 11.6427 98.6921 11.5057 98.9662 11.5422C99.2586 11.5605 99.4962 11.6427 99.6789 11.7889C99.8616 11.9717 100.008 12.1544 100.117 12.3371C100.245 12.5199 100.309 12.7483 100.309 13.0224C100.309 13.2782 100.218 13.6346 100.035 14.0914C99.8525 14.4935 99.6698 14.9229 99.487 15.3798C99.3043 15.8183 99.1398 16.2295 98.9936 16.6132C98.8657 16.9787 98.7743 17.262 98.7195 17.463C98.7195 17.5909 98.6921 17.7188 98.6373 17.8467C98.6007 17.9564 98.5825 18.0478 98.5825 18.1208C98.5276 18.1757 98.4911 18.2396 98.4728 18.3127C98.4728 18.3858 98.4728 18.4589 98.4728 18.532C98.4728 18.6051 98.4454 18.733 98.3906 18.9158C98.3358 19.0802 98.3084 19.263 98.3084 19.464C98.2353 19.8112 98.2444 20.0122 98.3358 20.067C98.4454 20.1036 98.5733 20.0853 98.7195 20.0122C98.7743 19.9391 98.8566 19.8112 98.9662 19.6285C99.0759 19.4457 99.1946 19.2538 99.3226 19.0528C99.3957 18.8335 99.4688 18.6873 99.5419 18.6142C99.6332 18.5411 99.7063 18.4772 99.7611 18.4224C99.816 18.3675 99.8434 18.267 99.8434 18.1208C99.8434 18.0478 99.9256 17.9016 100.09 17.6823C100.273 17.4447 100.465 17.1797 100.666 16.8874C101.049 16.2295 101.287 15.8092 101.378 15.6264C101.525 15.3706 101.671 15.1513 101.817 14.9686C101.981 14.7676 102.128 14.5209 102.256 14.2285C102.329 14.0823 102.429 13.9087 102.557 13.7077C102.685 13.5067 102.849 13.4062 103.05 13.4062C103.251 13.4062 103.379 13.4244 103.434 13.461C103.507 13.4975 103.571 13.6163 103.626 13.8173C103.772 13.9452 103.918 14.1463 104.065 14.4204C104.229 14.6945 104.311 14.8955 104.311 15.0234C104.238 15.0965 104.193 15.1879 104.174 15.2975C104.174 15.3889 104.174 15.4346 104.174 15.4346C104.174 15.4894 104.138 15.6539 104.065 15.928C104.01 16.2021 103.918 16.4671 103.791 16.7229C103.644 17.3442 103.516 17.9564 103.407 18.5594C103.315 19.1625 103.261 19.665 103.242 20.067C103.242 20.4691 103.288 20.7066 103.379 20.7797C103.489 20.8528 103.599 20.7797 103.708 20.5604C103.818 20.3411 104.074 19.93 104.476 19.3269C104.567 19.1807 104.741 18.9432 104.997 18.6142C105.252 18.2853 105.435 17.9929 105.545 17.7371C105.545 17.6457 105.6 17.4995 105.709 17.2985C105.819 17.0792 105.929 16.8508 106.038 16.6132C106.148 16.3574 106.203 16.1473 106.203 15.9828C106.184 15.9462 106.276 15.7818 106.477 15.4894C106.678 15.197 106.87 14.8224 107.052 14.3655C107.253 13.8539 107.537 13.5158 107.902 13.3513C108.268 13.1869 108.597 13.1686 108.889 13.2965C109.2 13.4062 109.328 13.6163 109.273 13.927C109.181 14.5483 108.971 15.2701 108.642 16.0924C108.332 16.8965 107.966 17.7097 107.546 18.532C107.144 19.3361 106.742 20.0488 106.34 20.6701C106.194 20.798 106.066 20.9533 105.956 21.1361C105.846 21.3005 105.792 21.4193 105.792 21.4924C105.792 21.5289 105.709 21.6477 105.545 21.8487C105.399 22.0498 105.216 22.2782 104.997 22.534C104.777 22.7716 104.549 22.9635 104.311 23.1096C104.074 23.2924 103.781 23.3929 103.434 23.4112C103.105 23.4294 102.795 23.3746 102.502 23.2467ZM117.518 22.0954C117.445 22.0954 117.289 22.0406 117.052 21.931C116.814 21.8213 116.695 21.7665 116.695 21.7665C116.695 21.6934 116.668 21.602 116.613 21.4924C116.577 21.3828 116.558 21.2914 116.558 21.2183C116.43 21.1452 116.302 21.0264 116.175 20.8619C116.047 20.6975 116.019 20.5147 116.092 20.3137C116.202 20.1127 116.348 19.8112 116.531 19.4092C116.732 18.9889 116.942 18.5229 117.161 18.0112C117.399 17.4813 117.618 16.9696 117.819 16.4762C118.02 15.9828 118.194 15.5625 118.34 15.2153C118.486 14.8498 118.568 14.6305 118.587 14.5574C118.587 14.4843 118.596 14.3564 118.614 14.1737C118.651 13.9909 118.769 13.8356 118.97 13.7077C119.208 13.5432 119.455 13.5341 119.711 13.6803C119.966 13.8265 120.186 14.0823 120.368 14.4478C120.551 14.795 120.643 15.2061 120.643 15.6813C120.643 15.8092 120.551 16.1381 120.368 16.6681C120.186 17.1797 119.939 17.7919 119.628 18.5046C119.336 19.2173 119.007 19.9391 118.642 20.6701C118.367 21.2 118.157 21.5746 118.011 21.7939C117.883 21.9949 117.719 22.0954 117.518 22.0954ZM121.246 11.597C121.026 11.597 120.761 11.4965 120.451 11.2955C120.158 11.0945 119.893 10.8387 119.656 10.528C119.418 10.2174 119.299 9.88842 119.299 9.54122C119.299 9.44985 119.382 9.28538 119.546 9.04782C119.711 8.79198 119.866 8.54528 120.012 8.30772C120.177 8.07016 120.259 7.93311 120.259 7.89656C120.405 7.89656 120.579 7.92397 120.78 7.97879C120.981 8.03361 121.145 8.09757 121.273 8.17067C121.474 8.62752 121.739 9.02041 122.068 9.34934C122.397 9.66 122.561 10.0163 122.561 10.4184C122.561 10.8204 122.461 11.1219 122.26 11.3229C122.059 11.5057 121.721 11.597 121.246 11.597ZM124.598 24.6447C123.702 24.6264 123.127 24.3705 122.871 23.8772C122.633 23.402 122.569 22.799 122.679 22.068C122.788 21.7208 122.852 21.4102 122.871 21.1361C122.907 20.8437 122.99 20.6609 123.117 20.5878C123.117 20.5878 123.127 20.5604 123.145 20.5056C123.181 20.4508 123.172 20.396 123.117 20.3411C123.117 20.1036 123.2 19.7746 123.364 19.3543C123.401 19.2447 123.446 19.1168 123.501 18.9706C123.574 18.8061 123.611 18.7239 123.611 18.7239C123.519 18.5777 123.519 18.4589 123.611 18.3675C123.702 18.2762 123.794 18.1939 123.885 18.1208C123.995 18.0295 124.004 17.929 123.912 17.8193C123.876 17.7462 123.921 17.5818 124.049 17.3259C124.177 17.0518 124.324 16.7686 124.488 16.4762C124.652 16.1838 124.762 15.9554 124.817 15.7909C124.817 15.7544 124.863 15.6265 124.954 15.4072C125.045 15.1879 125.155 14.932 125.283 14.6397C125.411 14.3473 125.53 14.0823 125.639 13.8447C125.767 13.6072 125.849 13.4518 125.886 13.3788C126.069 13.2874 125.996 13.2234 125.667 13.1869C125.338 13.1503 124.991 13.1412 124.625 13.1595C124.059 13.1412 123.602 13.1138 123.254 13.0772C122.926 13.0407 122.651 12.9584 122.432 12.8305C122.213 12.5747 122.185 12.2732 122.35 11.926C122.514 11.5605 122.779 11.3686 123.145 11.3503C123.382 11.3321 123.565 11.3229 123.693 11.3229C123.839 11.3229 124.022 11.3138 124.241 11.2955C124.479 11.259 124.844 11.2133 125.338 11.1585L126.736 11.0488L126.818 10.5828C126.964 10.3453 127.065 10.1899 127.119 10.1168C127.174 10.0437 127.211 9.97065 127.229 9.89756C127.247 9.80619 127.275 9.65086 127.311 9.43157C127.311 9.43157 127.394 9.28538 127.558 8.993C127.722 8.68234 127.823 8.36254 127.86 8.03361C128.079 7.66813 128.271 7.3392 128.435 7.04682C128.6 6.73616 128.7 6.54428 128.737 6.47119C129.047 6.01434 129.349 5.76764 129.641 5.73109C129.952 5.69454 130.244 5.76764 130.518 5.95038C130.683 6.04175 130.838 6.16053 130.984 6.30672C131.131 6.43464 131.222 6.60824 131.258 6.82753C131.295 7.02854 131.213 7.29352 131.012 7.62245C130.975 7.69554 130.92 7.8326 130.847 8.03361C130.774 8.21635 130.719 8.37168 130.683 8.4996C130.573 8.62752 130.436 8.83767 130.272 9.13005C130.125 9.40416 130.025 9.68741 129.97 9.97979C129.824 10.2904 129.733 10.4823 129.696 10.5554C129.66 10.6285 129.605 10.6651 129.532 10.6651C129.568 10.8478 129.678 10.9392 129.861 10.9392C130.043 10.9209 130.345 10.9026 130.765 10.8844C131.112 10.8478 131.35 10.8113 131.478 10.7747C131.624 10.7199 131.788 10.7382 131.971 10.8295C132.063 10.9574 132.108 11.1493 132.108 11.4052C132.126 11.6427 132.099 11.8803 132.026 12.1178C131.953 12.3371 131.852 12.4742 131.724 12.529C131.633 12.529 131.441 12.5838 131.149 12.6935C130.875 12.7848 130.528 12.8397 130.107 12.8579L128.654 12.995L128.188 13.927C128.061 14.1645 127.951 14.3838 127.86 14.5848C127.768 14.7676 127.704 14.8772 127.668 14.9138C127.668 15.0234 127.604 15.1879 127.476 15.4072C127.366 15.6265 127.247 15.864 127.119 16.1198C127.01 16.4305 126.882 16.7138 126.736 16.9696C126.608 17.2254 126.544 17.3533 126.544 17.3533C126.471 17.3533 126.434 17.4082 126.434 17.5178C126.526 17.7371 126.498 17.9016 126.352 18.0112C126.261 18.066 126.178 18.1483 126.105 18.2579C126.05 18.3493 126.023 18.395 126.023 18.395C126.096 18.4681 126.105 18.5594 126.05 18.6691C126.014 18.7787 125.959 18.8975 125.886 19.0254C125.886 19.1716 125.84 19.3818 125.749 19.6559C125.676 19.93 125.594 20.1858 125.502 20.4234C125.52 20.7523 125.539 20.9625 125.557 21.0538C125.575 21.1452 125.621 21.1817 125.694 21.1635C125.785 21.1817 125.913 21.1817 126.078 21.1635C126.242 21.1452 126.361 21.1361 126.434 21.1361C126.708 21.0081 126.58 21.6477 126.05 23.0548C125.758 23.5117 125.466 23.8863 125.173 24.1787C124.881 24.4893 124.689 24.6447 124.598 24.6447ZM4.65986 51.1777C4.38575 51.1777 4.11164 50.9767 3.83754 50.5746C3.56343 50.1543 3.34414 49.6427 3.17967 49.0396C3.03348 48.4366 2.97866 47.8427 3.01521 47.2579C3.01521 46.6731 3.04262 46.2071 3.09744 45.8599C3.17054 45.4945 3.24363 45.1381 3.31673 44.7909C3.37155 44.6813 3.39896 44.5899 3.39896 44.5168C3.41723 44.4437 3.43551 44.3249 3.45378 44.1605C3.49033 43.996 3.55429 43.7219 3.64566 43.3381C3.71875 43.0275 3.79185 42.7716 3.86495 42.5706C3.95632 42.3696 4.02941 42.2326 4.08423 42.1595C4.30352 41.8671 4.55022 41.6935 4.82433 41.6387C5.09844 41.5656 5.34514 41.593 5.56443 41.7209C5.80199 41.8488 5.93904 42.0407 5.97559 42.2965C6.08523 42.3879 6.14006 42.598 6.14006 42.927C6.15833 43.2376 6.14006 43.5666 6.08523 43.9138C6.03041 44.2427 5.94818 44.4803 5.83854 44.6264C5.80199 44.7178 5.7563 44.9554 5.70148 45.3391C5.66493 45.7229 5.61925 46.1249 5.56443 46.5452C5.52788 46.9655 5.48219 47.3036 5.42737 47.5594C5.37255 47.8884 5.39082 48.0985 5.48219 48.1899C5.59184 48.263 5.77458 48.1807 6.03041 47.9432C6.30452 47.6873 6.66086 47.2396 7.09944 46.6C7.46492 46.0518 7.72989 45.6224 7.89436 45.3117C8.0771 45.0011 8.21415 44.7178 8.30552 44.462C8.41517 44.2061 8.53395 43.9046 8.66187 43.5574C8.75324 43.265 8.83547 43.0275 8.90856 42.8447C8.99993 42.662 9.08217 42.5341 9.15526 42.461C9.35628 42.1686 9.62125 42.0498 9.95018 42.1046C10.2974 42.1412 10.5806 42.2326 10.7999 42.3788C11.0192 42.598 11.1471 42.8996 11.1837 43.2833C11.2385 43.6488 11.1563 44.0508 10.937 44.4894C10.7908 44.7818 10.6446 45.129 10.4984 45.531C10.3705 45.933 10.2608 46.3351 10.1695 46.7371C10.0964 47.1391 10.0598 47.4863 10.0598 47.7787C10.0598 48.1442 10.1055 48.3635 10.1969 48.4366C10.3065 48.4914 10.4344 48.5188 10.5806 48.5188C10.7999 48.5188 11.0101 48.4457 11.2111 48.2995C11.4121 48.1351 11.7045 47.8518 12.0882 47.4498C12.2527 47.2853 12.4537 47.0386 12.6913 46.7097C12.9288 46.3808 13.1573 46.0335 13.3766 45.6681C13.6141 45.3026 13.806 44.9828 13.9522 44.7087C14.1166 44.4163 14.1989 44.2336 14.1989 44.1605C14.1989 44.0508 14.2811 43.8955 14.4456 43.6945C14.5552 43.5483 14.6375 43.4386 14.6923 43.3655C14.7654 43.2742 14.8933 43.1828 15.076 43.0914C15.2222 43.0183 15.3867 43.0092 15.5694 43.064C15.7522 43.1006 15.9075 43.1919 16.0354 43.3381C16.1268 43.4112 16.1907 43.594 16.2273 43.8864C16.2821 44.1605 16.3095 44.4072 16.3095 44.6264C16.2547 44.8275 16.1725 45.1107 16.0628 45.4762C15.9532 45.8234 15.8344 46.1615 15.7065 46.4904C15.5968 46.8011 15.4963 47.0112 15.405 47.1208C15.3319 47.1939 15.2039 47.331 15.0212 47.532C14.8385 47.7148 14.674 47.9158 14.5278 48.1351C14.071 48.6833 13.742 49.0396 13.541 49.2041C13.34 49.3685 13.1664 49.5239 13.0202 49.6701C12.6365 50.0538 12.1979 50.3645 11.7045 50.602C11.2111 50.8213 10.7451 50.9492 10.3065 50.9858C9.86795 51.0041 9.52074 50.9218 9.26491 50.7391C8.69841 50.4467 8.41517 49.9533 8.41517 49.2589C8.41517 49.1127 8.38776 48.9848 8.33293 48.8751C8.29639 48.7472 8.27811 48.6833 8.27811 48.6833C8.20502 48.6833 8.10451 48.7015 7.97659 48.7381C7.86695 48.7746 7.74817 48.9026 7.62025 49.1218C7.45578 49.4325 7.17254 49.7523 6.77051 50.0812C6.38676 50.3919 5.99386 50.6569 5.59184 50.8762C5.18981 51.0772 4.87915 51.1777 4.65986 51.1777ZM18.7656 51.8081C18.528 51.8081 18.3362 51.7624 18.19 51.6711C18.062 51.5797 17.8976 51.4518 17.6966 51.2873C17.3494 50.9218 17.0661 50.5289 16.8468 50.1086C16.6458 49.6883 16.5727 49.3229 16.6275 49.0122C16.6824 48.866 16.7006 48.729 16.6824 48.601C16.6824 48.4548 16.6824 48.3818 16.6824 48.3818C16.591 48.2904 16.5636 48.2356 16.6001 48.2173C16.6367 48.1807 16.6732 48.1259 16.7098 48.0528C16.8194 48.0528 16.856 47.9523 16.8194 47.7513C16.7829 47.6051 16.8377 47.2945 16.9839 46.8193C17.1483 46.3259 17.3676 45.8599 17.6417 45.4214C17.7514 45.2386 17.9158 45.0011 18.1351 44.7087C18.3544 44.398 18.592 44.0965 18.8478 43.8041C19.1219 43.4935 19.3686 43.2468 19.5879 43.064C20.0448 42.6803 20.4651 42.3696 20.8488 42.1321C21.2509 41.8945 21.6529 41.73 22.0549 41.6387C22.4569 41.5473 22.8681 41.5016 23.2884 41.5016C23.727 41.5016 24.0833 41.6478 24.3574 41.9402C24.7777 42.1229 25.0701 42.3696 25.2346 42.6803C25.4173 42.9909 25.5361 43.393 25.5909 43.8864C25.6457 44.4346 25.5909 45.1107 25.4265 45.9148C25.262 46.7005 24.8143 47.6142 24.0833 48.6559C23.6265 49.3137 23.1788 49.8254 22.7402 50.1909C22.3016 50.5564 21.8173 50.8944 21.2874 51.2051C20.9036 51.4609 20.4925 51.6162 20.0539 51.6711C19.6153 51.7259 19.1859 51.7716 18.7656 51.8081ZM21.5615 48.464C21.9635 48.1168 22.2468 47.733 22.4112 47.3127C22.594 46.8924 22.7859 46.399 22.9869 45.8325C23.06 45.7229 23.1057 45.5401 23.1239 45.2843C23.1605 45.0285 23.1696 44.7818 23.1513 44.5442C23.1331 44.2884 23.0691 44.1422 22.9595 44.1056C22.795 43.9777 22.6305 43.9503 22.4661 44.0234C22.3016 44.0782 22.0915 44.197 21.8356 44.3798C21.2874 44.8366 20.7757 45.3665 20.3006 45.9696C19.8438 46.5544 19.524 47.2762 19.3412 48.1351C19.2864 48.5919 19.3321 48.9391 19.4783 49.1767C19.6427 49.396 19.8986 49.4599 20.2458 49.3685C20.6113 49.2589 21.0498 48.9574 21.5615 48.464ZM29.0256 51.4244C28.9708 51.4426 28.852 51.4335 28.6693 51.397C28.5048 51.3604 28.3312 51.3147 28.1485 51.2599C27.984 51.2051 27.8835 51.1594 27.847 51.1228C27.7739 51.0498 27.6734 50.9218 27.5454 50.7391C27.4175 50.5381 27.3444 50.2731 27.3262 49.9442C27.3262 49.6152 27.4815 49.2224 27.7921 48.7655C27.8835 48.5828 27.9932 48.3087 28.1211 47.9432C28.249 47.5777 28.3769 47.1939 28.5048 46.7919C28.651 46.3716 28.7789 45.997 28.8886 45.6681C29.0165 45.3391 29.1079 45.1107 29.1627 44.9828C29.1992 44.6721 29.181 44.4528 29.1079 44.3249C29.0531 44.1787 28.8977 44.0965 28.6419 44.0782C28.4591 44.0782 28.313 44.0143 28.2033 43.8864C28.1119 43.7584 28.0663 43.53 28.0663 43.2011C28.1028 42.9452 28.1668 42.726 28.2581 42.5432C28.3678 42.3422 28.514 42.1777 28.6967 42.0498C28.8794 41.9584 29.1079 41.8945 29.382 41.8579C29.6744 41.8214 29.9576 41.8123 30.2317 41.8305C30.5058 41.8488 30.6977 41.9128 30.8074 42.0224C30.9353 42.0955 31.0358 42.26 31.1089 42.5158C31.2002 42.7534 31.2733 43.0001 31.3282 43.2559C31.383 43.5117 31.4195 43.7036 31.4378 43.8315C31.6205 43.6853 31.8216 43.4843 32.0408 43.2285C32.2784 42.9544 32.516 42.6985 32.7535 42.461C33.0459 42.26 33.3931 42.059 33.7951 41.8579C34.1972 41.6387 34.4896 41.529 34.6723 41.529C34.8733 41.529 35.12 41.6295 35.4124 41.8305C35.7048 42.0133 35.8875 42.1777 35.9606 42.3239C36.1434 42.6346 36.2713 42.9635 36.3444 43.3107C36.4357 43.6397 36.3809 43.932 36.1799 44.1879C35.9972 44.4254 35.7413 44.663 35.4124 44.9006C35.0835 45.1198 34.6723 45.1838 34.1789 45.0924C34.0693 45.0559 33.9505 44.9188 33.8226 44.6813C33.7129 44.4437 33.649 44.2701 33.6307 44.1605C33.6307 44.1056 33.5485 44.1605 33.384 44.3249C33.2378 44.4711 33.0551 44.6539 32.8358 44.8731C32.6348 45.0924 32.4429 45.2935 32.2601 45.4762C31.9495 45.8599 31.6205 46.3808 31.2733 47.0386C30.9261 47.6965 30.515 48.4914 30.0398 49.4234C29.8206 49.8802 29.6378 50.3188 29.4916 50.7391C29.3454 51.1411 29.1901 51.3695 29.0256 51.4244ZM42.3296 52.2193C42.2565 52.1462 42.1469 52.0548 42.0007 51.9452C41.8545 51.8173 41.7448 51.6893 41.6717 51.5614C41.6352 51.5066 41.5438 51.4061 41.3976 51.2599C41.2514 51.0954 41.1052 50.9401 40.9591 50.7939C40.8129 50.6295 40.7124 50.5289 40.6575 50.4924C40.621 50.401 40.557 50.3005 40.4657 50.1909C40.3743 50.063 40.2738 49.935 40.1641 49.8071C40.0545 49.6609 39.9266 49.5239 39.7804 49.396C39.5794 49.1218 39.4149 48.9117 39.287 48.7655C39.1773 48.6193 39.086 48.5462 39.0129 48.5462C39.0129 48.5462 38.958 48.7198 38.8484 49.067C38.7388 49.396 38.62 49.7797 38.4921 50.2183C38.3641 50.6386 38.2545 50.9858 38.1631 51.2599C38.09 51.3878 38.0169 51.4883 37.9438 51.5614C37.8707 51.6345 37.7977 51.6893 37.7246 51.7259C37.6697 51.7624 37.6058 51.7898 37.5327 51.8081C37.4596 51.8081 37.3865 51.8081 37.3134 51.8081C37.1124 51.8081 36.8565 51.7168 36.5459 51.534C36.2352 51.3513 36.0799 51.0863 36.0799 50.7391C36.0068 50.4833 36.0982 49.9259 36.354 49.067C36.6098 48.2081 37.0027 47.1117 37.5327 45.7777C37.6058 45.5036 37.6971 45.2204 37.8068 44.928C37.9164 44.6173 38.0078 44.3615 38.0809 44.1605C38.355 43.265 38.6565 42.4427 38.9855 41.6935C39.3144 40.926 39.6799 40.0762 40.0819 39.1443C40.2464 38.8153 40.3651 38.5778 40.4382 38.4316C40.5113 38.2671 40.5936 38.1026 40.6849 37.9382C40.7763 37.7554 40.9134 37.4905 41.0961 37.1433C41.4981 36.394 41.8179 35.8093 42.0555 35.389C42.2931 34.9687 42.4758 34.658 42.6037 34.457C42.7316 34.256 42.8413 34.1098 42.9326 34.0184C43.024 33.927 43.1702 33.8631 43.3712 33.8265C43.5722 33.79 43.7732 33.79 43.9743 33.8265C44.1935 33.8448 44.3489 33.9088 44.4402 34.0184C44.5864 34.1646 44.6961 34.3108 44.7692 34.457C44.8423 34.5849 44.8423 34.7676 44.7692 35.0052C44.7144 35.2245 44.5499 35.5626 44.2758 36.0194C44.1296 36.3483 44.0108 36.5859 43.9194 36.7321C43.8281 36.8783 43.7367 37.0245 43.6453 37.1707C43.554 37.3169 43.4078 37.5727 43.2067 37.9382C43.1885 38.0113 43.1519 38.0935 43.0971 38.1849C43.0606 38.258 43.0149 38.3311 42.9601 38.4042C42.9052 38.459 42.8504 38.4864 42.7956 38.4864C42.7956 38.5412 42.7682 38.6509 42.7134 38.8153C42.6585 38.9798 42.5946 39.1351 42.5215 39.2813C42.4667 39.4823 42.3753 39.7016 42.2474 39.9392C42.1377 40.1585 42.0555 40.3412 42.0007 40.4874C41.8545 40.8346 41.6535 41.2549 41.3976 41.7483C41.1601 42.2234 41.0139 42.6072 40.9591 42.8996C40.9591 42.9361 40.9865 42.9452 41.0413 42.927C41.0961 42.8904 41.1601 42.8447 41.2332 42.7899C41.3245 42.7168 41.4068 42.662 41.4799 42.6254C41.9002 42.2965 42.3479 41.9859 42.823 41.6935C43.3164 41.4011 43.7276 41.2275 44.0565 41.1727C44.2392 41.1178 44.4037 41.0904 44.5499 41.0904C44.6961 41.0722 44.8331 41.0722 44.9611 41.0904C45.089 41.1087 45.2169 41.1453 45.3448 41.2001C45.5458 41.328 45.7286 41.5656 45.893 41.9128C46.0575 42.26 46.1763 42.6072 46.2494 42.9544C46.2494 43.1188 46.1671 43.4204 46.0027 43.8589C45.8565 44.2792 45.6737 44.6995 45.4544 45.1198C45.2534 45.5219 45.0616 45.796 44.8788 45.9422C44.7874 45.9787 44.7052 46.0153 44.6321 46.0518C44.5773 46.0884 44.5316 46.1249 44.4951 46.1615C44.4768 46.1797 44.4677 46.1889 44.4677 46.1889C44.4677 46.262 44.4311 46.3533 44.358 46.463C44.3032 46.5726 44.2027 46.664 44.0565 46.7371C43.9834 46.8102 43.9012 46.9016 43.8098 47.0112C43.7184 47.1208 43.6727 47.2031 43.6727 47.2579C43.6727 47.2579 43.6727 47.2853 43.6727 47.3401C43.6727 47.3767 43.6727 47.395 43.6727 47.395C43.5996 47.395 43.5357 47.4041 43.4809 47.4224C43.4443 47.4224 43.3255 47.4955 43.1245 47.6417C42.9235 47.8427 42.7773 47.9523 42.6859 47.9706C42.6128 47.9889 42.5032 48.0254 42.357 48.0802C42.2839 48.1533 42.1925 48.199 42.0829 48.2173C41.9915 48.2356 41.9458 48.2812 41.9458 48.3543C41.9458 48.4274 42.0189 48.5645 42.1651 48.7655C42.3113 48.9665 42.4849 49.1858 42.6859 49.4234C42.9052 49.6609 43.1154 49.8802 43.3164 50.0812C43.5174 50.2822 43.6727 50.4193 43.7824 50.4924C43.9103 50.5472 44.0017 50.6477 44.0565 50.7939C44.1113 50.9401 44.1387 51.0954 44.1387 51.2599C44.157 51.4244 44.1479 51.5797 44.1113 51.7259C44.093 51.8721 44.0656 51.9817 44.0291 52.0548C43.9925 52.0914 43.8646 52.1371 43.6453 52.1919C43.4443 52.265 43.2159 52.3107 42.9601 52.3289C42.7225 52.3472 42.5123 52.3107 42.3296 52.2193ZM40.7398 46.9838C40.8311 46.9107 40.9956 46.7736 41.2332 46.5726C41.489 46.3716 41.7631 46.1523 42.0555 45.9148C42.3479 45.6589 42.6128 45.4122 42.8504 45.1747C43.1062 44.9371 43.289 44.7544 43.3986 44.6264C43.5265 44.4985 43.6636 44.2884 43.8098 43.996C43.956 43.7036 43.9834 43.4661 43.892 43.2833C43.8737 43.2102 43.7367 43.2559 43.4809 43.4204C43.225 43.5848 42.8961 43.7676 42.4941 43.9686C42.1834 44.1513 41.8362 44.3615 41.4524 44.599C41.087 44.8183 40.7398 45.065 40.4108 45.3391C40.0819 45.595 39.8261 45.8782 39.6433 46.1889C39.6068 46.3168 39.6433 46.463 39.753 46.6275C39.8626 46.7919 40.0088 46.9198 40.1915 47.0112C40.3743 47.0843 40.557 47.0752 40.7398 46.9838ZM48.4155 52.1645C47.7942 51.9086 47.3373 51.6437 47.0449 51.3695C46.7708 51.0772 46.6612 50.8213 46.716 50.602C46.7525 50.4924 46.8165 50.3919 46.9079 50.3005C46.9992 50.2092 47.2003 50.1726 47.5109 50.1909C47.8398 50.1909 48.3424 50.2731 49.0185 50.4376C49.2195 50.4376 49.4205 50.4284 49.6216 50.4102C49.8226 50.3919 50.0053 50.3645 50.1698 50.3279C50.3525 50.2914 50.4987 50.2457 50.6084 50.1909C50.6997 50.1543 50.7271 50.1086 50.6906 50.0538C50.654 49.9807 50.5901 49.9076 50.4987 49.8345C50.4256 49.7432 50.3434 49.6883 50.252 49.6701C50.1606 49.6335 50.0784 49.6152 50.0053 49.6152C49.9688 49.5239 49.8865 49.4325 49.7586 49.3411C49.649 49.2498 49.5119 49.1493 49.3474 49.0396C48.9454 48.7107 48.5799 48.4183 48.251 48.1625C47.9221 47.9066 47.7942 47.7148 47.8673 47.5868C47.8673 47.5137 47.8673 47.4772 47.8673 47.4772C47.8673 47.4589 47.8673 47.4498 47.8673 47.4498C47.7393 47.4498 47.6206 47.2762 47.5109 46.929C47.4013 46.5635 47.3464 46.2346 47.3464 45.9422C47.3464 45.5767 47.4195 45.2112 47.5657 44.8457C47.7302 44.4803 47.9312 44.1331 48.1688 43.8041C48.4246 43.4752 48.6804 43.1828 48.9363 42.927C49.2835 42.598 49.649 42.2782 50.0327 41.9676C50.4347 41.6387 50.8642 41.3463 51.321 41.0904C51.7962 40.8346 52.317 40.6336 52.8835 40.4874C53.1393 40.4326 53.4317 40.4052 53.7606 40.4052C54.0895 40.4052 54.3271 40.4508 54.4733 40.5422C54.6195 40.4508 54.8022 40.4783 55.0215 40.6244C55.2408 40.7524 55.4601 40.9351 55.6794 41.1727C55.8987 41.4102 56.0631 41.6478 56.1728 41.8854C56.1728 42.1046 56.1636 42.3788 56.1454 42.7077C56.1454 43.0183 56.1271 43.2924 56.0905 43.53C56.054 43.7676 55.9718 43.8864 55.8438 43.8864C55.8438 43.8864 55.8164 43.8955 55.7616 43.9138C55.7251 43.9138 55.7068 43.9594 55.7068 44.0508C55.7068 44.2336 55.5697 44.4437 55.2956 44.6813C54.9484 44.9188 54.6195 45.1107 54.3088 45.2569C53.9982 45.4031 53.7606 45.4122 53.5961 45.2843C53.4865 45.2112 53.386 45.1381 53.2946 45.065C53.2033 44.9919 53.121 44.9006 53.0479 44.7909C53.0479 44.7909 53.0205 44.7544 52.9657 44.6813C52.9291 44.5899 52.9109 44.5077 52.9109 44.4346C52.9109 44.3615 52.9383 44.2975 52.9931 44.2427C53.0479 44.1696 53.0753 44.1331 53.0753 44.1331C53.3312 43.8955 53.5231 43.6762 53.651 43.4752C53.7972 43.2742 53.8977 43.1006 53.9525 42.9544C54.0073 42.7899 54.0347 42.662 54.0347 42.5706C54.0347 42.461 54.0073 42.397 53.9525 42.3788C53.9159 42.3422 53.8246 42.3239 53.6784 42.3239C53.587 42.3239 53.386 42.397 53.0753 42.5432C52.783 42.6894 52.4723 42.8721 52.1434 43.0914C51.8144 43.2924 51.5586 43.4752 51.3759 43.6397C51.3028 43.7676 51.2479 43.8498 51.2114 43.8864C51.1931 43.9229 51.1474 43.9412 51.0743 43.9412C51.0743 43.8681 51.0287 43.8772 50.9373 43.9686C50.8459 44.06 50.7363 44.1879 50.6084 44.3523C50.4804 44.5168 50.3525 44.6904 50.2246 44.8731C50.0967 45.0559 49.9962 45.2021 49.9231 45.3117C49.9048 45.4762 49.8591 45.6315 49.786 45.7777C49.7312 45.9056 49.7129 46.0427 49.7312 46.1889C49.7495 46.3716 49.8408 46.5452 50.0053 46.7097C50.1698 46.8741 50.4073 47.0843 50.718 47.3401C51.3576 47.8153 51.8327 48.1899 52.1434 48.464C52.4723 48.7381 52.7007 48.9574 52.8286 49.1218C52.9566 49.2863 53.0388 49.4508 53.0753 49.6152C53.386 50.1817 53.4225 50.6751 53.185 51.0954C52.9474 51.4975 52.5819 51.8081 52.0885 52.0274C51.9058 52.1188 51.586 52.201 51.1292 52.2741C50.6723 52.3655 50.188 52.402 49.6764 52.3838C49.183 52.3838 48.7627 52.3107 48.4155 52.1645Z" fill="white"/>
</svg>
