<svg width="137" height="59" viewBox="0 0 137 59" fill="none" xmlns="http://www.w3.org/2000/svg">
<path fill-rule="evenodd" clip-rule="evenodd" d="M21 51.2295C21 55.521 24.479 59 28.7705 59L129 59C133.418 59 137 55.4183 137 51L137 8C137 3.58172 133.418 -3.13124e-07 129 -6.99382e-07L29 -9.44166e-06C24.5817 -9.82792e-06 21 3.58171 21 7.99999L21 8.63803C21 11.4962 19.4752 14.1372 17 15.5662L4 23.0718C-1.33333 26.151 -1.33334 33.849 4 36.9282L17.1147 44.5C19.5189 45.8881 21 48.4533 21 51.2295Z" fill="#00B1DE"/>
<path d="M56.7796 25.95C56.7796 26.8833 56.5546 27.7583 56.1046 28.575C55.6713 29.3917 54.9796 30.05 54.0296 30.55C53.0963 31.05 51.9129 31.3 50.4796 31.3H47.5546V38H44.0546V20.55H50.4796C51.8296 20.55 52.9796 20.7833 53.9296 21.25C54.8796 21.7167 55.5879 22.3583 56.0546 23.175C56.5379 23.9917 56.7796 24.9167 56.7796 25.95ZM50.3296 28.475C51.2963 28.475 52.0129 28.2583 52.4796 27.825C52.9463 27.375 53.1796 26.75 53.1796 25.95C53.1796 24.25 52.2296 23.4 50.3296 23.4H47.5546V28.475H50.3296ZM62.7646 26.3C63.2146 25.5667 63.7979 24.9917 64.5146 24.575C65.2479 24.1583 66.0812 23.95 67.0146 23.95V27.625H66.0896C64.9896 27.625 64.1562 27.8833 63.5896 28.4C63.0396 28.9167 62.7646 29.8167 62.7646 31.1V38H59.2646V24.15H62.7646V26.3ZM68.472 31.025C68.472 29.625 68.747 28.3833 69.297 27.3C69.8636 26.2167 70.622 25.3833 71.572 24.8C72.5386 24.2167 73.6136 23.925 74.797 23.925C75.8303 23.925 76.7303 24.1333 77.497 24.55C78.2803 24.9667 78.9053 25.4917 79.372 26.125V24.15H82.897V38H79.372V35.975C78.922 36.625 78.297 37.1667 77.497 37.6C76.7136 38.0167 75.8053 38.225 74.772 38.225C73.6053 38.225 72.5386 37.925 71.572 37.325C70.622 36.725 69.8636 35.8833 69.297 34.8C68.747 33.7 68.472 32.4417 68.472 31.025ZM79.372 31.075C79.372 30.225 79.2053 29.5 78.872 28.9C78.5386 28.2833 78.0886 27.8167 77.522 27.5C76.9553 27.1667 76.347 27 75.697 27C75.047 27 74.447 27.1583 73.897 27.475C73.347 27.7917 72.897 28.2583 72.547 28.875C72.2136 29.475 72.047 30.1917 72.047 31.025C72.047 31.8583 72.2136 32.5917 72.547 33.225C72.897 33.8417 73.347 34.3167 73.897 34.65C74.4636 34.9833 75.0636 35.15 75.697 35.15C76.347 35.15 76.9553 34.9917 77.522 34.675C78.0886 34.3417 78.5386 33.875 78.872 33.275C79.2053 32.6583 79.372 31.925 79.372 31.075ZM85.4153 31.025C85.4153 29.625 85.6903 28.3833 86.2403 27.3C86.807 26.2167 87.5737 25.3833 88.5403 24.8C89.507 24.2167 90.582 23.925 91.7653 23.925C92.6653 23.925 93.5237 24.125 94.3403 24.525C95.157 24.9083 95.807 25.425 96.2903 26.075V19.5H99.8403V38H96.2903V35.95C95.857 36.6333 95.2487 37.1833 94.4653 37.6C93.682 38.0167 92.7737 38.225 91.7403 38.225C90.5737 38.225 89.507 37.925 88.5403 37.325C87.5737 36.725 86.807 35.8833 86.2403 34.8C85.6903 33.7 85.4153 32.4417 85.4153 31.025ZM96.3153 31.075C96.3153 30.225 96.1487 29.5 95.8153 28.9C95.482 28.2833 95.032 27.8167 94.4653 27.5C93.8987 27.1667 93.2903 27 92.6403 27C91.9903 27 91.3903 27.1583 90.8403 27.475C90.2903 27.7917 89.8403 28.2583 89.4903 28.875C89.157 29.475 88.9903 30.1917 88.9903 31.025C88.9903 31.8583 89.157 32.5917 89.4903 33.225C89.8403 33.8417 90.2903 34.3167 90.8403 34.65C91.407 34.9833 92.007 35.15 92.6403 35.15C93.2903 35.15 93.8987 34.9917 94.4653 34.675C95.032 34.3417 95.482 33.875 95.8153 33.275C96.1487 32.6583 96.3153 31.925 96.3153 31.075ZM116.509 24.15L107.934 44.55H104.209L107.209 37.65L101.659 24.15H105.584L109.159 33.825L112.784 24.15H116.509Z" fill="black"/>
</svg>
