<svg width="57" height="56" viewBox="0 0 57 56" fill="none" xmlns="http://www.w3.org/2000/svg">
<g id="Group 1171275426">
<rect id="Rectangle 1958" x="0.394531" width="56" height="56" rx="12" fill="#FAA11B"/>
<g id="Group 1171275423">
<path id="Vector" d="M28.2348 31.3087H28.3048C29.8048 31.3487 31.0048 32.5687 31.0048 34.0687C31.0048 35.3487 30.1348 36.4187 28.9548 36.7387V37.8588C28.9548 38.2587 28.6348 38.5787 28.2348 38.5787C27.8348 38.5787 27.5148 38.2587 27.5148 37.8588V36.7387C26.9273 36.5808 26.4081 36.2336 26.0375 35.751C25.667 35.2684 25.4657 34.6772 25.4648 34.0687C25.4648 33.6687 25.7848 33.3488 26.1848 33.3488C26.5848 33.3488 26.9048 33.6687 26.9048 34.0687C26.9048 34.8087 27.4948 35.3987 28.2248 35.3987C28.9548 35.3987 29.5548 34.7987 29.5548 34.0687C29.5548 33.3387 28.9548 32.7387 28.2248 32.7387H28.1548C27.4355 32.7192 26.752 32.42 26.2497 31.9046C25.7475 31.3893 25.4659 30.6984 25.4648 29.9787C25.4648 28.6987 26.3348 27.6288 27.5148 27.3088V26.1888C27.5148 25.7888 27.8348 25.4688 28.2348 25.4688C28.6348 25.4688 28.9548 25.7888 28.9548 26.1888V27.3088C30.1348 27.6288 31.0048 28.6987 31.0048 29.9787C31.0048 30.3787 30.6848 30.6988 30.2848 30.6988C29.8848 30.6988 29.5648 30.3787 29.5648 29.9787C29.5648 29.2487 28.9648 28.6487 28.2348 28.6487C27.5048 28.6487 26.9048 29.2487 26.9048 29.9787C26.9048 30.7087 27.5048 31.3087 28.2348 31.3087Z" fill="white"/>
<path id="Vector_2" d="M22.9265 17.065L25.7125 20.325L25.4115 20.661C19.6775 21.947 15.3945 27.068 15.3945 33.19C15.3945 38.572 19.7625 42.94 25.1445 42.94H31.3145C36.6965 42.94 41.0645 38.573 41.0645 33.191C41.0745 27.068 36.7915 21.947 31.0575 20.661C31.0808 20.4497 31.0426 20.2362 30.9475 20.046L33.3175 17.333L33.4705 17.097C33.6492 16.7074 33.6949 16.2698 33.6006 15.8516C33.5063 15.4334 33.2773 15.0578 32.9487 14.7825C32.6201 14.5072 32.2102 14.3475 31.7819 14.3279C31.3537 14.3083 30.9309 14.4299 30.5785 14.674L29.7355 13.674C29.5464 13.4624 29.3149 13.293 29.0559 13.1769C28.797 13.0607 28.5164 13.0005 28.2326 13C27.9488 12.9995 27.6681 13.0589 27.4088 13.1741C27.1495 13.2894 26.9173 13.458 26.7275 13.669L25.8445 14.655C25.4931 14.4058 25.0693 14.2793 24.6388 14.2952C24.2082 14.311 23.7949 14.4683 23.4627 14.7426C23.1305 15.017 22.8979 15.3932 22.801 15.813C22.7041 16.2328 22.7482 16.6728 22.9265 17.065ZM26.7255 18.45L25.0295 16.49C25.4235 16.6799 25.8694 16.7338 26.2973 16.6433C26.7252 16.5529 27.1111 16.3231 27.3945 15.99L28.1945 14.952L29.0825 16.004C29.3594 16.326 29.7329 16.5499 30.1474 16.6423C30.5618 16.7348 30.9951 16.6908 31.3825 16.517L29.6945 18.45H26.7255ZM17.3945 33.19C17.3945 27.202 22.2465 22.35 28.2345 22.35C34.2225 22.35 39.0745 27.202 39.0645 33.188V33.19C39.0637 35.2452 38.247 37.216 36.7937 38.6692C35.3405 40.1225 33.3697 40.9392 31.3145 40.94H25.1445C23.0893 40.9392 21.1186 40.1225 19.6653 38.6692C18.2121 37.216 17.3953 35.2452 17.3945 33.19Z" fill="white"/>
</g>
</g>
</svg>
