<svg width="57" height="56" viewBox="0 0 57 56" fill="none" xmlns="http://www.w3.org/2000/svg">
<g id="Group 1171275428">
<rect id="Rectangle 1960" x="0.394531" width="56" height="56" rx="12" fill="#347BE5"/>
<g id="Group 1171275425">
<path id="Vector" d="M24.1946 29.3996C24.9678 29.3996 25.5946 28.7728 25.5946 27.9996C25.5946 27.2264 24.9678 26.5996 24.1946 26.5996C23.4214 26.5996 22.7946 27.2264 22.7946 27.9996C22.7946 28.7728 23.4214 29.3996 24.1946 29.3996Z" fill="white"/>
<path id="Vector_2" d="M32.5946 29.3996C33.3678 29.3996 33.9946 28.7728 33.9946 27.9996C33.9946 27.2264 33.3678 26.5996 32.5946 26.5996C31.8214 26.5996 31.1946 27.2264 31.1946 27.9996C31.1946 28.7728 31.8214 29.3996 32.5946 29.3996Z" fill="white"/>
<path id="Vector_3" d="M36.7951 25.2412C36.4613 23.273 35.4419 21.4864 33.9174 20.1976C32.3928 18.9087 30.4614 18.2009 28.4651 18.1992C24.2231 18.1992 19.6591 21.7132 20.0231 27.2292C21.7495 26.5228 23.2743 25.4001 24.4614 23.9613C25.6486 22.5225 26.4613 20.8123 26.8271 18.9832C28.6611 22.6652 32.4271 25.1992 36.7951 25.2412Z" fill="white"/>
<path id="Vector_4" d="M40.9805 26.6C40.8265 19.082 34.9465 14 28.3945 14C21.9405 14 16.0045 18.942 15.8085 26.6H14.3945V35H18.5945V26.866C18.5945 21.504 22.7245 16.814 28.0865 16.66C29.3988 16.6201 30.7058 16.844 31.9299 17.3185C33.1541 17.793 34.2706 18.5083 35.2132 19.4222C36.1558 20.3361 36.9054 21.4299 37.4175 22.6388C37.9296 23.8477 38.1938 25.1471 38.1945 26.46V36.4H26.9945V39.2H40.9945V35H42.3945V26.6H40.9805Z" fill="white"/>
</g>
</g>
</svg>
