<svg width="57" height="56" viewBox="0 0 57 56" fill="none" xmlns="http://www.w3.org/2000/svg">
<g id="Group 1171275427">
<rect id="Rectangle 1957" x="0.394531" width="56" height="56" rx="12" fill="#632DFC"/>
<path id="Vector" d="M28.3945 13C32.2332 13 36.0726 14.4637 39.0013 17.3926C44.8589 23.2503 44.8589 32.749 39.0013 38.6067C33.1438 44.4644 23.6453 44.4644 17.7878 38.6067C11.9301 32.7489 11.9301 23.2503 17.7878 17.3926C20.7165 14.4637 24.5559 13 28.3945 13ZM28.3945 16.9183C25.5586 16.9183 22.7218 17.999 20.558 20.1629C16.2304 24.4906 16.2304 31.5086 20.558 35.8363C24.8856 40.164 31.9034 40.164 36.2311 35.8363C40.5587 31.5086 40.5587 24.4906 36.2311 20.1629C34.0673 17.999 31.2305 16.9183 28.3945 16.9183ZM29.9289 19.436V26.4433H33.8124V30.2792H26.093V19.436H29.9289Z" fill="white"/>
</g>
</svg>
