<svg width="24" height="23" viewBox="0 0 24 23" fill="none" xmlns="http://www.w3.org/2000/svg">
<path id="Vector" fill-rule="evenodd" clip-rule="evenodd" d="M0.394531 11.5C0.394531 8.45001 1.60613 5.52494 3.7628 3.36827C5.91947 1.2116 8.84454 0 11.8945 0C14.9445 0 17.8696 1.2116 20.0263 3.36827C22.1829 5.52494 23.3945 8.45001 23.3945 11.5C23.3945 14.55 22.1829 17.4751 20.0263 19.6317C17.8696 21.7884 14.9445 23 11.8945 23C8.84454 23 5.91947 21.7884 3.7628 19.6317C1.60613 17.4751 0.394531 14.55 0.394531 11.5ZM11.2383 16.422L17.8592 8.14507L16.6632 7.18827L11.0175 14.2431L7.01853 10.9112L6.0372 12.0888L11.2383 16.4235V16.422Z" fill="#357AFF"/>
</svg>
