<svg width="199" height="172" viewBox="0 0 199 172" fill="none" xmlns="http://www.w3.org/2000/svg">
<path d="M91.1774 63.6097C96.5601 127.569 142.557 149.753 187.651 150.795" stroke="white" stroke-width="2.7411" stroke-miterlimit="10" stroke-linecap="round" stroke-linejoin="round"/>
<path d="M186.356 141.283L197.277 149.666L185.015 160.846" stroke="white" stroke-width="2.7411" stroke-miterlimit="10" stroke-linecap="round" stroke-linejoin="round"/>
<path d="M1.67207 23.9046C1.34314 23.7218 1.1604 23.5208 1.12385 23.3015C1.10558 23.0822 1.23349 22.6985 1.5076 22.1503C1.78171 21.602 2.21115 20.7523 2.79592 19.601C3.23449 18.7787 3.52688 18.1391 3.67307 17.6823C3.83754 17.2071 3.92891 16.8691 3.94718 16.6681C3.96545 16.4671 3.97459 16.3391 3.97459 16.2843C3.93804 16.1198 3.95632 15.9919 4.02941 15.9006C4.10251 15.7909 4.22129 15.6995 4.38575 15.6264C4.47712 15.5351 4.68728 15.3706 5.01621 15.1331C5.34514 14.8955 5.60097 14.6122 5.78371 14.2833C5.94818 13.8996 6.13092 13.5067 6.33193 13.1046C6.55122 12.7026 6.83447 12.2001 7.18167 11.597C7.52888 10.9757 7.99487 10.1717 8.57963 9.18487C8.94511 8.54528 9.37455 7.82346 9.86795 7.01941C10.3796 6.21535 10.8822 5.48439 11.3756 4.82653C11.5766 4.57069 11.7867 4.36968 12.006 4.22349C12.2253 4.0773 12.4172 4.0042 12.5816 4.0042C12.9837 4.0042 13.3857 4.11384 13.7877 4.33313C14.1897 4.53415 14.5461 4.78998 14.8567 5.10064C15.1674 5.4113 15.3776 5.70368 15.4872 5.97779C15.5786 6.12398 15.6151 6.43464 15.5968 6.90976C15.5786 7.38489 15.542 7.96052 15.4872 8.63665C15.4324 9.31279 15.3684 10.0346 15.2953 10.8021C15.2405 11.5514 15.1583 12.4376 15.0486 13.461C14.939 14.4843 14.8293 15.5534 14.7197 16.6681C14.6283 17.7828 14.5552 18.8609 14.5004 19.9026C14.4456 20.9259 14.4456 21.8213 14.5004 22.5888C14.5187 22.7533 14.5187 22.9086 14.5004 23.0548C14.4821 23.201 14.473 23.3198 14.473 23.4112C14.3633 23.5208 14.1258 23.5665 13.7603 23.5482C13.3948 23.5482 13.0385 23.4934 12.6913 23.3838C12.3441 23.2741 12.1522 23.1371 12.1156 22.9726C12.0608 22.9178 12.0243 22.8721 12.006 22.8355C11.9877 22.799 11.9877 22.6254 12.006 22.3147C12.0243 21.9858 12.0517 21.3919 12.0882 20.533L12.2253 16.3391L11.8689 16.3665C11.7045 16.3665 11.403 16.3848 10.9644 16.4214C10.5441 16.4579 10.0781 16.5127 9.56643 16.5858C9.07303 16.6407 8.61618 16.7046 8.19588 16.7777C7.77558 16.8325 7.48319 16.8874 7.31873 16.9422C7.15426 16.9422 6.95325 17.0518 6.71569 17.2711C6.4964 17.4904 6.28625 17.7736 6.08523 18.1208C6.01214 18.3767 5.87508 18.6508 5.67407 18.9432C5.49133 19.2173 5.39996 19.4 5.39996 19.4914C5.27204 19.5828 5.1624 19.6924 5.07103 19.8203C4.99793 19.9482 4.96138 20.0122 4.96138 20.0122C4.96138 20.1218 4.87915 20.396 4.71469 20.8345C4.55022 21.2548 4.34921 21.73 4.11164 22.2599C3.87408 22.7716 3.62738 23.2193 3.37155 23.603L2.63145 24.6447L1.67207 23.9046ZM8.22329 14.4752C8.22329 14.4752 8.3238 14.4569 8.52481 14.4204C8.72582 14.3838 8.96339 14.3473 9.2375 14.3107C9.52988 14.2559 9.78571 14.2285 10.005 14.2285C10.4253 14.1188 10.7725 14.0366 11.0466 13.9818C11.339 13.927 11.5766 13.8996 11.7593 13.8996C11.942 13.8813 12.0882 13.8996 12.1979 13.9544C12.271 14.0458 12.3349 14.1006 12.3898 14.1188C12.4629 14.1371 12.4994 14.1463 12.4994 14.1463C12.5177 14.1097 12.5542 13.9178 12.609 13.5706C12.6639 13.2234 12.7278 12.794 12.8009 12.2823C12.874 11.7706 12.9471 11.2407 13.0202 10.6925C13.0933 10.126 13.1573 9.60517 13.2121 9.13005C13.2669 8.63665 13.3035 8.2529 13.3217 7.97879C13.34 7.63158 13.3309 7.32093 13.2943 7.04682C13.2578 6.75443 13.2395 6.60824 13.2395 6.60824C13.1299 6.60824 12.9197 6.80926 12.609 7.21128C12.3167 7.59504 11.9695 8.11585 11.5674 8.77371C11.1837 9.4133 10.7999 10.1077 10.4162 10.8569C10.2334 11.2041 10.0598 11.4783 9.89536 11.6793C9.74917 11.8803 9.63039 11.9808 9.53902 11.9808C9.50247 12.0173 9.40196 12.1635 9.2375 12.4194C9.0913 12.6569 8.92684 12.931 8.7441 13.2417C8.57963 13.5341 8.43344 13.8082 8.30552 14.064C8.19588 14.3016 8.16847 14.4386 8.22329 14.4752ZM18.6598 22.1777C18.3857 22.1777 18.1116 21.9767 17.8375 21.5746C17.5634 21.1543 17.3441 20.6427 17.1796 20.0396C17.0334 19.4366 16.9786 18.8427 17.0151 18.2579C17.0151 17.6731 17.0426 17.2071 17.0974 16.8599C17.1705 16.4945 17.2436 16.1381 17.3167 15.7909C17.3715 15.6813 17.3989 15.5899 17.3989 15.5168C17.4172 15.4437 17.4354 15.3249 17.4537 15.1605C17.4903 14.996 17.5542 14.7219 17.6456 14.3381C17.7187 14.0275 17.7918 13.7716 17.8649 13.5706C17.9563 13.3696 18.0293 13.2326 18.0842 13.1595C18.3035 12.8671 18.5502 12.6935 18.8243 12.6387C19.0984 12.5656 19.3451 12.593 19.5644 12.7209C19.8019 12.8488 19.939 13.0407 19.9755 13.2965C20.0852 13.3879 20.14 13.598 20.14 13.927C20.1583 14.2376 20.14 14.5666 20.0852 14.9138C20.0303 15.2427 19.9481 15.4803 19.8385 15.6264C19.8019 15.7178 19.7562 15.9554 19.7014 16.3391C19.6649 16.7229 19.6192 17.1249 19.5644 17.5452C19.5278 17.9655 19.4821 18.3036 19.4273 18.5594C19.3725 18.8884 19.3908 19.0985 19.4821 19.1899C19.5918 19.263 19.7745 19.1807 20.0303 18.9432C20.3045 18.6873 20.6608 18.2396 21.0994 17.6C21.4649 17.0518 21.7298 16.6224 21.8943 16.3117C22.077 16.0011 22.2141 15.7178 22.3055 15.462C22.4151 15.2061 22.5339 14.9046 22.6618 14.5574C22.7532 14.265 22.8354 14.0275 22.9085 13.8447C22.9999 13.662 23.0821 13.5341 23.1552 13.461C23.3562 13.1686 23.6212 13.0498 23.9501 13.1046C24.2973 13.1412 24.5806 13.2326 24.7999 13.3788C25.0191 13.598 25.1471 13.8996 25.1836 14.2833C25.2384 14.6488 25.1562 15.0508 24.9369 15.4894C24.7907 15.7818 24.6445 16.129 24.4983 16.531C24.3704 16.933 24.2608 17.3351 24.1694 17.7371C24.0963 18.1391 24.0598 18.4863 24.0598 18.7787C24.0598 19.1442 24.1054 19.3635 24.1968 19.4366C24.3065 19.4914 24.4344 19.5188 24.5806 19.5188C24.7999 19.5188 25.01 19.4457 25.211 19.2995C25.412 19.1351 25.7044 18.8518 26.0882 18.4498C26.2526 18.2853 26.4537 18.0386 26.6912 17.7097C26.9288 17.3808 27.1572 17.0335 27.3765 16.6681C27.614 16.3026 27.8059 15.9828 27.9521 15.7087C28.1166 15.4163 28.1988 15.2336 28.1988 15.1605C28.1988 15.0508 28.281 14.8955 28.4455 14.6945C28.5552 14.5483 28.6374 14.4386 28.6922 14.3655C28.7653 14.2742 28.8932 14.1828 29.076 14.0914C29.2222 14.0183 29.3866 14.0092 29.5694 14.064C29.7521 14.1006 29.9074 14.1919 30.0354 14.3381C30.1267 14.4112 30.1907 14.594 30.2272 14.8864C30.282 15.1605 30.3095 15.4072 30.3095 15.6264C30.2546 15.8275 30.1724 16.1107 30.0628 16.4762C29.9531 16.8234 29.8343 17.1615 29.7064 17.4904C29.5968 17.8011 29.4963 18.0112 29.4049 18.1208C29.3318 18.1939 29.2039 18.331 29.0211 18.532C28.8384 18.7148 28.6739 18.9158 28.5277 19.1351C28.0709 19.6833 27.742 20.0396 27.541 20.2041C27.3399 20.3685 27.1663 20.5239 27.0201 20.6701C26.6364 21.0538 26.1978 21.3645 25.7044 21.602C25.211 21.8213 24.745 21.9492 24.3065 21.9858C23.8679 22.0041 23.5207 21.9218 23.2648 21.7391C22.6983 21.4467 22.4151 20.9533 22.4151 20.2589C22.4151 20.1127 22.3877 19.9848 22.3329 19.8751C22.2963 19.7472 22.278 19.6833 22.278 19.6833C22.205 19.6833 22.1044 19.7015 21.9765 19.7381C21.8669 19.7746 21.7481 19.9026 21.6202 20.1218C21.4557 20.4325 21.1725 20.7523 20.7704 21.0812C20.3867 21.3919 19.9938 21.6569 19.5918 21.8762C19.1897 22.0772 18.8791 22.1777 18.6598 22.1777ZM33.4782 23.1645C32.8934 23.1645 32.3544 23.0365 31.861 22.7807C31.3858 22.5066 31.0021 22.1777 30.7097 21.7939C30.4173 21.3919 30.2711 21.0081 30.2711 20.6427C30.2711 20.4782 30.2985 20.3594 30.3534 20.2863C30.4265 20.2132 30.527 20.1767 30.6549 20.1767C30.7463 20.1949 30.8559 20.2406 30.9838 20.3137C31.1117 20.3868 31.2396 20.4691 31.3676 20.5604C31.66 20.7614 31.9797 20.8894 32.327 20.9442C32.6742 20.999 32.9848 20.9807 33.2589 20.8894C33.533 20.7797 33.6884 20.6152 33.7249 20.396C33.7249 20.3229 33.6884 20.1675 33.6153 19.93C33.5422 19.6924 33.4508 19.464 33.3412 19.2447C32.8843 18.5686 32.6011 17.929 32.4914 17.3259C32.3818 16.7046 32.3087 16.0833 32.2721 15.462C32.2721 15.2061 32.3909 14.9229 32.6285 14.6122C32.866 14.2833 33.1584 13.9635 33.5056 13.6529C33.8894 13.3239 34.3097 13.0133 34.7665 12.7209C35.2417 12.4285 35.7076 12.1818 36.1645 11.9808C36.6213 11.7798 37.0051 11.661 37.3157 11.6244C37.6447 11.6244 37.9919 11.6427 38.3574 11.6793C38.7411 11.6975 38.997 11.7615 39.1249 11.8711C39.3807 12.0722 39.6183 12.4011 39.8376 12.8579C40.0568 13.3148 40.1665 13.6985 40.1665 14.0092C40.1665 14.1554 40.0843 14.3381 39.9198 14.5574C39.7736 14.7584 39.6365 14.9869 39.5086 15.2427C39.4355 15.3706 39.3716 15.5077 39.3167 15.6539C39.2619 15.8001 39.198 15.9462 39.1249 16.0924C39.0152 16.3483 38.8142 16.4579 38.5218 16.4214C38.2477 16.3665 37.9919 16.2204 37.7543 15.9828C37.5168 15.727 37.398 15.4346 37.398 15.1056C37.398 14.8315 37.4802 14.594 37.6447 14.393C37.8091 14.1919 37.8914 14.0549 37.8914 13.9818C37.8914 13.9452 37.8731 13.9178 37.8366 13.8996C37.8 13.8813 37.736 13.8721 37.6447 13.8721C37.5168 13.8721 37.3066 13.927 37.0142 14.0366C36.7401 14.128 36.4477 14.265 36.1371 14.4478C35.8264 14.6305 35.5432 14.8498 35.2873 15.1056C35.1046 15.3067 34.9493 15.5259 34.8213 15.7635C34.7117 15.9828 34.6569 16.2204 34.6569 16.4762C34.6569 16.732 34.7026 17.0335 34.7939 17.3808C34.9036 17.7097 35.0224 17.9838 35.1503 18.2031C35.1868 18.2396 35.2417 18.3401 35.3147 18.5046C35.4061 18.6508 35.5066 18.8335 35.6163 19.0528C36.2924 20.4416 36.402 21.4741 35.9452 22.1503C35.5066 22.8264 34.6843 23.1645 33.4782 23.1645ZM42.3487 22.8081C42.1111 22.8081 41.9192 22.7624 41.773 22.6711C41.6451 22.5797 41.4806 22.4518 41.2796 22.2873C40.9324 21.9218 40.6492 21.5289 40.4299 21.1086C40.2289 20.6883 40.1558 20.3229 40.2106 20.0122C40.2654 19.866 40.2837 19.729 40.2654 19.601C40.2654 19.4548 40.2654 19.3818 40.2654 19.3818C40.1741 19.2904 40.1466 19.2356 40.1832 19.2173C40.2197 19.1807 40.2563 19.1259 40.2928 19.0528C40.4025 19.0528 40.439 18.9523 40.4025 18.7513C40.3659 18.6051 40.4208 18.2945 40.5669 17.8193C40.7314 17.3259 40.9507 16.8599 41.2248 16.4214C41.3345 16.2386 41.4989 16.0011 41.7182 15.7087C41.9375 15.398 42.1751 15.0965 42.4309 14.8041C42.705 14.4935 42.9517 14.2468 43.171 14.064C43.6278 13.6803 44.0481 13.3696 44.4319 13.1321C44.8339 12.8945 45.2359 12.73 45.638 12.6387C46.04 12.5473 46.4512 12.5016 46.8715 12.5016C47.31 12.5016 47.6664 12.6478 47.9405 12.9402C48.3608 13.1229 48.6532 13.3696 48.8176 13.6803C49.0004 13.9909 49.1192 14.393 49.174 14.8864C49.2288 15.4346 49.174 16.1107 49.0095 16.9148C48.8451 17.7005 48.3973 18.6142 47.6664 19.6559C47.2095 20.3137 46.7618 20.8254 46.3232 21.1909C45.8847 21.5564 45.4004 21.8944 44.8705 22.2051C44.4867 22.4609 44.0755 22.6162 43.637 22.6711C43.1984 22.7259 42.769 22.7716 42.3487 22.8081ZM45.1446 19.464C45.5466 19.1168 45.8298 18.733 45.9943 18.3127C46.1771 17.8924 46.3689 17.399 46.5699 16.8325C46.643 16.7229 46.6887 16.5401 46.707 16.2843C46.7435 16.0285 46.7527 15.7818 46.7344 15.5442C46.7161 15.2884 46.6522 15.1422 46.5425 15.1056C46.3781 14.9777 46.2136 14.9503 46.0491 15.0234C45.8847 15.0782 45.6745 15.197 45.4187 15.3798C44.8705 15.8366 44.3588 16.3665 43.8837 16.9696C43.4268 17.5544 43.107 18.2762 42.9243 19.1351C42.8695 19.5919 42.9151 19.9391 43.0613 20.1767C43.2258 20.396 43.4816 20.4599 43.8288 20.3685C44.1943 20.2589 44.6329 19.9574 45.1446 19.464ZM51.8412 22.0954C51.494 21.9492 51.2108 21.73 50.9915 21.4376C50.7904 21.1269 50.6899 20.7523 50.6899 20.3137C50.6899 20.131 50.7265 19.8203 50.7996 19.3818C50.8727 18.9432 50.9732 18.4498 51.1011 17.9016C51.229 17.3533 51.3569 16.8417 51.4849 16.3665C51.6676 16.0376 51.7864 15.7087 51.8412 15.3798C51.9143 15.0508 51.9508 14.8498 51.9508 14.7767C51.9874 14.5574 52.0514 14.265 52.1427 13.8996C52.2341 13.5341 52.3255 13.2051 52.4168 12.9128C52.5265 12.6021 52.5996 12.4285 52.6361 12.392C52.7275 12.3006 52.8828 12.2458 53.1021 12.2275C53.3214 12.2092 53.5407 12.2366 53.76 12.3097C53.9793 12.3645 54.1255 12.4833 54.1985 12.6661C54.3996 12.8854 54.5092 13.2143 54.5275 13.6529C54.564 14.0914 54.4818 14.6031 54.2808 15.1879C54.1163 15.5534 53.9518 15.9828 53.7874 16.4762C53.6229 16.9696 53.4767 17.4264 53.3488 17.8467C53.2392 18.2488 53.1752 18.5229 53.1569 18.6691L52.1701 18.6417C52.4808 18.3493 52.7732 18.0478 53.0473 17.7371C53.3214 17.4082 53.5224 17.1523 53.6503 16.9696C53.961 16.5493 54.226 16.2021 54.4452 15.928C54.6828 15.6356 54.9843 15.2884 55.3498 14.8864C55.7153 14.4661 56.1082 14.1737 56.5285 14.0092C56.9488 13.8265 57.2594 13.7351 57.4605 13.7351C57.8625 13.8082 58.2188 14.0183 58.5295 14.3655C58.8584 14.6945 59.0594 15.1879 59.1325 15.8457C59.1325 16.1016 59.1051 16.4031 59.0503 16.7503C59.0137 17.0975 58.9955 17.2711 58.9955 17.2711C58.9955 17.2711 59.1417 17.0884 59.434 16.7229C59.7447 16.3574 60.1559 15.9462 60.6675 15.4894C61.0147 15.2336 61.3528 15.0874 61.6817 15.0508C62.0107 14.996 62.3031 15.1056 62.5589 15.3798C63.034 15.6356 63.3812 16.0833 63.6005 16.7229C63.8198 17.3625 63.8929 18.0843 63.8198 18.8884C63.765 19.3635 63.765 19.7472 63.8198 20.0396C63.8929 20.3137 63.966 20.5604 64.0391 20.7797C64.2766 21.1086 64.3132 21.401 64.1487 21.6569C63.9843 21.8944 63.8381 22.0132 63.7102 22.0132C63.5274 22.0132 63.2533 21.9767 62.8878 21.9036C62.5223 21.8305 62.1843 21.7025 61.8736 21.5198C61.5812 21.3371 61.435 21.0904 61.435 20.7797V19.0802C61.435 18.6782 61.4168 18.3858 61.3802 18.2031C61.3619 18.0021 61.3163 17.8741 61.2432 17.8193C61.0422 17.7097 60.7955 17.7919 60.5031 18.066C60.2107 18.3401 59.8909 18.733 59.5437 19.2447C59.2148 19.7381 58.8584 20.2955 58.4747 20.9168C58.1275 21.4833 57.8442 21.8305 57.6249 21.9584C57.4056 22.068 57.1955 22.0589 56.9945 21.931C56.5924 21.8031 56.3366 21.6295 56.227 21.4102C56.1356 21.1726 56.1265 20.9076 56.1995 20.6152C56.2909 20.3046 56.4006 19.9026 56.5285 19.4092C56.6747 18.9158 56.8117 18.4406 56.9396 17.9838C57.0676 17.5087 57.1498 17.1615 57.1863 16.9422C57.1132 16.796 56.9853 16.7503 56.8026 16.8051C56.6381 16.8417 56.4645 16.9239 56.2818 17.0518C56.0625 17.198 55.8249 17.3533 55.5691 17.5178C55.3315 17.6823 55.0483 18.0295 54.7194 18.5594C54.5001 18.9066 54.2534 19.2904 53.9793 19.7107C53.7051 20.1127 53.4493 20.4782 53.2118 20.8071C52.9925 21.1361 52.8097 21.3645 52.6635 21.4924C52.5356 21.8213 52.4168 22.0315 52.3072 22.1228C52.1975 22.1959 52.0422 22.1868 51.8412 22.0954ZM68.7904 23.4934C67.7853 23.4934 67.0087 23.201 66.4605 22.6162C65.9305 22.0315 65.6655 21.1361 65.6655 19.93C65.6655 19.2721 65.7843 18.5503 66.0219 17.7645C66.2777 16.9787 66.6066 16.2112 67.0087 15.462C67.429 14.7128 67.8858 14.064 68.3792 13.5158C68.8726 12.9493 69.366 12.5564 69.8594 12.3371C70.0422 12.2458 70.234 12.1818 70.435 12.1453C70.6543 12.0904 70.8645 12.063 71.0655 12.063C71.2848 12.063 71.5223 12.0813 71.7782 12.1178C72.0523 12.1361 72.3081 12.1909 72.5457 12.2823C72.966 12.4102 73.3315 12.6569 73.6421 13.0224C73.9711 13.3879 74.1355 13.9178 74.1355 14.6122C74.1355 14.795 74.1172 14.996 74.0807 15.2153C74.0442 15.4163 73.9802 15.6173 73.8888 15.8183C73.6513 16.4214 73.2858 16.997 72.7924 17.5452C72.3173 18.0934 71.8147 18.4772 71.2848 18.6965C71.1386 18.7696 70.9924 18.8244 70.8462 18.8609C70.7183 18.8792 70.5812 18.8884 70.435 18.8884C70.0513 18.8884 69.7041 18.8335 69.3934 18.7239C69.101 18.6142 68.8269 18.4681 68.5711 18.2853L68.3518 18.0934L68.2148 18.3675C68.0868 18.7148 67.9955 19.0071 67.9406 19.2447C67.9041 19.4823 67.8858 19.6559 67.8858 19.7655C67.8858 19.9848 67.895 20.2132 67.9132 20.4508C67.9315 20.6701 67.9863 20.8528 68.0777 20.999C68.1508 21.0904 68.2422 21.1635 68.3518 21.2183C68.4797 21.2731 68.6351 21.3005 68.8178 21.3005C68.9274 21.3005 69.0279 21.3005 69.1193 21.3005C69.229 21.2822 69.3203 21.264 69.3934 21.2457C69.7224 21.1726 69.9873 21.0538 70.1883 20.8894C70.4076 20.7066 70.6361 20.5513 70.8736 20.4234L70.9833 20.3685L70.9559 20.2863C71.2665 20.1218 71.4767 20.0213 71.5863 19.9848C71.6959 19.93 71.7782 19.8843 71.833 19.8477C71.9061 19.7746 71.9883 19.7381 72.0797 19.7381C72.3355 19.7015 72.5822 19.7746 72.8198 19.9574C73.0756 20.1218 73.2036 20.332 73.2036 20.5878C73.2036 20.6975 73.1213 20.8711 72.9569 21.1086C72.8107 21.3462 72.6188 21.5838 72.3812 21.8213C72.1619 22.0406 71.9335 22.2142 71.6959 22.3421C71.6411 22.3604 71.5863 22.3878 71.5315 22.4244C71.4767 22.4426 71.4218 22.4701 71.367 22.5066H71.3944C71.23 22.7259 71.0655 22.8355 70.901 22.8355H70.6817C70.6086 22.9635 70.3711 23.1005 69.9691 23.2467C69.567 23.4112 69.1741 23.4934 68.7904 23.4934ZM70.2158 16.8874C70.3802 16.8874 70.5264 16.8599 70.6543 16.8051C70.8005 16.7503 70.9376 16.6863 71.0655 16.6132C71.5041 16.3026 71.7873 15.9006 71.9152 15.4072C72.0432 14.9138 71.9975 14.5391 71.7782 14.2833C71.7416 14.2285 71.6959 14.1919 71.6411 14.1737C71.5863 14.1371 71.5223 14.1188 71.4492 14.1188C71.2482 14.1188 71.0198 14.1828 70.764 14.3107C70.5264 14.4386 70.2889 14.6214 70.0513 14.8589C69.8137 15.0965 69.5944 15.3798 69.3934 15.7087L69.0371 16.2843C69.0736 16.266 69.101 16.2569 69.1193 16.2569C69.1559 16.2386 69.1833 16.2295 69.2015 16.2295C69.366 16.2295 69.4757 16.2843 69.5305 16.394C69.5853 16.5036 69.6493 16.6132 69.7224 16.7229C69.8137 16.8325 69.9782 16.8874 70.2158 16.8874ZM82.2265 24.5624C82.0072 24.5624 81.8244 24.4436 81.6783 24.2061C81.5686 24.0964 81.4498 23.9228 81.3219 23.6853C81.194 23.4477 81.1483 23.064 81.1849 22.534C81.2397 21.9858 81.4407 21.1909 81.7879 20.1493C81.9706 19.4548 82.1168 18.9523 82.2265 18.6417C82.3361 18.3127 82.3909 18.0752 82.3909 17.929C82.3909 17.728 82.4092 17.5635 82.4458 17.4356C82.5006 17.2894 82.528 17.1523 82.528 17.0244C82.6376 17.0244 82.7473 16.9239 82.8569 16.7229C82.9666 16.5219 83.0579 16.2478 83.131 15.9006C83.2041 15.5899 83.2681 15.3432 83.3229 15.1605C83.396 14.9594 83.4326 14.8224 83.4326 14.7493C83.5239 14.6031 83.6153 14.3747 83.7067 14.064C83.8163 13.7534 83.9808 13.3788 84.2001 12.9402C84.3463 12.392 84.5107 11.8255 84.6935 11.2407C84.8762 10.6377 85.0589 10.0803 85.2417 9.56863C85.4427 9.03868 85.6072 8.62752 85.7351 8.33513C85.9361 7.76864 86.0914 7.37575 86.2011 7.15646C86.3107 6.9189 86.3107 6.76357 86.2011 6.69048C86.0731 6.59911 86.0092 6.37068 86.0092 6.0052C86.0275 5.62145 86.2011 5.29252 86.53 5.01841C86.731 4.78084 86.9868 4.61638 87.2975 4.52501C87.6082 4.41537 87.9645 4.36054 88.3665 4.36054C88.7686 4.36054 89.1889 4.37882 89.6274 4.41536C89.9564 4.43364 90.3036 4.44278 90.669 4.44278C91.0528 4.44278 91.2904 4.44278 91.3817 4.44278C91.5462 4.51587 91.7472 4.5981 91.9848 4.68947C92.2223 4.78084 92.4325 4.87221 92.6152 4.96358C92.8162 5.03668 92.9167 5.10064 92.9167 5.15546C92.9167 5.2651 92.9533 5.3382 93.0264 5.37475C93.1178 5.39302 93.2091 5.4113 93.3005 5.42957C93.4284 5.42957 93.6386 5.54835 93.931 5.78591C94.2233 6.0052 94.5157 6.27931 94.8081 6.60824C95.1188 6.9189 95.3381 7.22956 95.466 7.54022C95.6122 7.85087 95.7309 8.14326 95.8223 8.41737C95.932 8.69148 95.9411 9.08437 95.8497 9.59604C95.8314 9.87015 95.7858 10.1443 95.7127 10.4184C95.6578 10.6925 95.5939 10.8752 95.5208 10.9666C95.4111 11.0397 95.3106 11.1311 95.2193 11.2407C95.1279 11.3503 95.0822 11.4508 95.0822 11.5422C95.0822 11.6153 95.0091 11.7981 94.8629 12.0904C94.7167 12.3645 94.534 12.6843 94.3147 13.0498C94.0954 13.397 93.8579 13.7442 93.602 14.0914C93.3462 14.4386 93.1086 14.7128 92.8893 14.9138C92.6518 15.2061 92.3685 15.4803 92.0396 15.7361C91.7289 15.9919 91.4457 16.2021 91.1899 16.3665C90.7147 16.5858 90.1665 16.796 89.5452 16.997C88.9422 17.198 88.3574 17.3625 87.7909 17.4904C87.2244 17.6 86.7676 17.6457 86.4203 17.6275C85.8904 17.7005 85.5432 17.7736 85.3787 17.8467C85.2143 17.9016 85.0955 18.0569 85.0224 18.3127C84.931 18.5503 84.8397 18.797 84.7483 19.0528C84.6752 19.3087 84.6386 19.4914 84.6386 19.601C84.6021 19.6741 84.5199 19.8751 84.3919 20.2041C84.2823 20.533 84.1452 20.9168 83.9808 21.3553C83.8346 21.7939 83.6975 22.2325 83.5696 22.6711C83.4417 23.1096 83.3412 23.4843 83.2681 23.7949C83.195 24.0508 83.0397 24.2426 82.8021 24.3705C82.5828 24.4985 82.3909 24.5624 82.2265 24.5624ZM86.1188 15.4072C86.1919 15.4803 86.4295 15.4894 86.8315 15.4346C87.2335 15.3798 87.7178 15.2427 88.2843 15.0234C88.6498 14.8955 89.0153 14.7402 89.3807 14.5574C89.7645 14.3747 90.13 14.1737 90.4772 13.9544C90.6599 13.8265 90.8518 13.6711 91.0528 13.4884C91.2538 13.2874 91.5371 12.9584 91.9025 12.5016C91.9574 12.4102 92.0487 12.2366 92.1767 11.9808C92.3228 11.7067 92.4508 11.4508 92.5604 11.2133C92.7249 10.9574 92.8893 10.5828 93.0538 10.0894C93.2183 9.57776 93.2548 9.15746 93.1634 8.82853C93.0721 8.35341 92.8893 7.96052 92.6152 7.64986C92.3411 7.32093 91.9939 7.08337 91.5736 6.93717C91.1716 6.86408 90.8335 6.81839 90.5594 6.80012C90.3036 6.78185 90.0203 6.80012 89.7097 6.85494C89.4173 6.94631 89.2071 7.07423 89.0792 7.23869C88.9696 7.40316 88.8051 7.75037 88.5858 8.28031C88.4579 8.53615 88.2752 8.89249 88.0376 9.34934C87.8 9.78791 87.599 10.2356 87.4346 10.6925C87.1056 11.8986 86.8132 12.8214 86.5574 13.461C86.3198 14.1006 86.1645 14.5209 86.0914 14.7219C86.1097 14.9229 86.1006 15.0691 86.064 15.1605C86.0275 15.2336 86.0457 15.3158 86.1188 15.4072ZM95.1582 22.2599C94.9938 22.132 94.811 21.9675 94.61 21.7665C94.4273 21.5655 94.3633 21.2822 94.4181 20.9168C94.473 20.4051 94.5461 19.9574 94.6374 19.5736C94.7288 19.1716 94.8384 18.7148 94.9664 18.2031C95.0029 17.9838 95.0943 17.6092 95.2405 17.0792C95.4049 16.5493 95.5968 15.9737 95.8161 15.3523C96.0354 14.731 96.2638 14.1463 96.5014 13.598C96.7389 13.0315 96.9491 12.6112 97.1318 12.3371C97.3328 12.1544 97.6252 12.063 98.009 12.063C98.411 12.063 98.6851 12.1361 98.8313 12.2823C99.0323 12.4468 99.0963 12.7392 99.0232 13.1595C98.9501 13.5615 98.6943 14.1919 98.2557 15.0508C98.1643 15.2701 98.0455 15.5077 97.8993 15.7635C97.7714 16.0011 97.68 16.2021 97.6252 16.3665C97.5704 16.5127 97.5887 16.5767 97.68 16.5584C97.7897 16.3574 97.9907 16.129 98.2831 15.8731C98.5755 15.599 98.8861 15.3341 99.2151 15.0782C99.544 14.8224 99.8546 14.594 100.147 14.393C100.439 14.1919 100.64 14.064 100.75 14.0092C100.896 13.9178 101.061 13.8447 101.243 13.7899C101.444 13.7168 101.582 13.662 101.655 13.6254C102.075 13.4244 102.532 13.3513 103.025 13.4062C103.537 13.4427 103.848 13.598 103.957 13.8721C103.975 14.0183 104.03 14.128 104.122 14.2011C104.231 14.2742 104.286 14.3107 104.286 14.3107C104.359 14.3107 104.396 14.3381 104.396 14.393C104.414 14.4478 104.423 14.4752 104.423 14.4752C104.423 14.6031 104.295 14.7858 104.039 15.0234C103.802 15.261 103.537 15.3889 103.244 15.4072C103.007 15.4254 102.797 15.4711 102.614 15.5442C102.431 15.6173 102.212 15.7087 101.956 15.8183C101.262 16.2204 100.631 16.5767 100.065 16.8874C99.5166 17.198 98.9501 17.6731 98.3653 18.3127C98.2374 18.4589 98.1003 18.596 97.9542 18.7239C97.808 18.8518 97.6618 19.0345 97.5156 19.2721C97.4242 19.3635 97.3328 19.5645 97.2415 19.8751C97.1501 20.1858 97.0679 20.4873 96.9948 20.7797C96.9399 21.0538 96.9125 21.2183 96.9125 21.2731C96.9125 21.2731 96.8851 21.3645 96.8303 21.5472C96.7755 21.7117 96.6841 21.8762 96.5562 22.0406C96.3369 22.333 96.1176 22.5157 95.8983 22.5888C95.6973 22.6619 95.4506 22.5523 95.1582 22.2599ZM107.201 23.2467C106.964 23.265 106.772 23.2376 106.626 23.1645C106.479 23.1096 106.297 23.0183 106.077 22.8904C105.675 22.5797 105.337 22.1959 105.063 21.7391C104.807 21.2822 104.689 20.8985 104.707 20.5878C104.743 20.4234 104.743 20.2772 104.707 20.1493C104.689 20.0213 104.679 19.9574 104.679 19.9574C104.57 19.866 104.533 19.8112 104.57 19.7929C104.606 19.7564 104.634 19.7015 104.652 19.6285C104.798 19.5919 104.817 19.4914 104.707 19.3269C104.652 19.1807 104.679 18.8518 104.789 18.3401C104.917 17.8102 105.082 17.3168 105.283 16.8599C105.374 16.6589 105.502 16.394 105.666 16.065C105.849 15.7361 106.05 15.4072 106.269 15.0782C106.489 14.731 106.69 14.4569 106.872 14.2559C107.274 13.7991 107.631 13.4244 107.941 13.1321C108.27 12.8397 108.636 12.6204 109.038 12.4742C109.403 12.328 109.769 12.264 110.134 12.2823C110.518 12.3006 110.856 12.4285 111.148 12.6661C111.587 12.794 111.98 12.995 112.327 13.2691C112.674 13.5249 112.912 13.8904 113.04 14.3655C113.186 14.8955 113.232 15.5259 113.177 16.2569C113.14 16.9696 112.83 17.8924 112.245 19.0254C111.898 19.7381 111.55 20.3137 111.203 20.7523C110.874 21.1909 110.472 21.6112 109.997 22.0132C109.65 22.3056 109.202 22.5614 108.654 22.7807C108.106 23 107.622 23.1553 107.201 23.2467ZM109.586 19.1076C109.824 18.7787 110.006 18.4589 110.134 18.1483C110.28 17.8376 110.418 17.4082 110.545 16.8599C110.6 16.6589 110.628 16.4122 110.628 16.1198C110.646 15.8275 110.637 15.5625 110.6 15.3249C110.582 15.0691 110.518 14.932 110.408 14.9138C110.171 14.8224 109.924 14.8224 109.668 14.9138C109.431 14.9869 109.147 15.2061 108.819 15.5716C108.526 15.9006 108.289 16.2112 108.106 16.5036C107.941 16.7777 107.786 17.1158 107.64 17.5178C107.512 17.9016 107.366 18.4041 107.201 19.0254C107.055 19.6285 107.046 20.1127 107.174 20.4782C107.32 20.8437 107.594 20.9442 107.996 20.7797C108.398 20.6152 108.928 20.0579 109.586 19.1076ZM122.313 22.9726C122.039 22.9909 121.783 23 121.546 23C121.326 23 121.153 22.9635 121.025 22.8904C120.696 22.6162 120.477 22.397 120.367 22.2325C120.276 22.068 120.23 21.8853 120.23 21.6843C120.248 21.4284 120.257 21.1726 120.257 20.9168C120.257 20.6427 120.257 20.4325 120.257 20.2863C120.184 20.2132 120.038 20.2955 119.819 20.533C119.599 20.7706 119.344 20.999 119.051 21.2183C118.485 21.8579 117.982 22.3239 117.544 22.6162C117.105 22.8904 116.703 23.0457 116.337 23.0822C115.972 23.1371 115.607 23.1462 115.241 23.1096C114.912 23.0731 114.62 22.9086 114.364 22.6162C114.126 22.3239 113.944 21.9675 113.816 21.5472C113.706 21.1269 113.669 20.7158 113.706 20.3137C113.797 19.5645 113.962 18.8884 114.199 18.2853C114.437 17.664 114.793 17.0153 115.268 16.3391C115.488 16.0468 115.78 15.727 116.146 15.3798C116.529 15.0325 116.941 14.7128 117.379 14.4204C117.818 14.1097 118.211 13.8904 118.558 13.7625C119.088 13.5249 119.526 13.4153 119.874 13.4336C120.239 13.4518 120.595 13.5067 120.943 13.598C121.198 13.726 121.399 13.7899 121.546 13.7899C121.71 13.7899 121.829 13.6985 121.902 13.5158C122.012 13.3696 122.094 13.1869 122.149 12.9676C122.203 12.7483 122.295 12.5381 122.423 12.3371L123.026 10.5554C123.227 10.062 123.464 9.49553 123.738 8.85594C124.013 8.21635 124.323 7.50367 124.67 6.71789C125.091 6.0052 125.447 5.63058 125.739 5.59404C126.05 5.55749 126.37 5.72195 126.699 6.08743C126.918 6.30672 127.037 6.58083 127.055 6.90976C127.092 7.22042 127.009 7.5859 126.808 8.0062C126.681 8.20722 126.544 8.46305 126.397 8.77371C126.251 9.06609 126.078 9.4133 125.877 9.81532C125.675 10.2904 125.465 10.7656 125.246 11.2407C125.045 11.7158 124.835 12.2366 124.616 12.8031C124.543 13.0955 124.442 13.4336 124.314 13.8173C124.204 14.2011 124.113 14.5483 124.04 14.8589C123.985 15.1513 123.921 15.4254 123.848 15.6813C123.793 15.9188 123.729 16.0376 123.656 16.0376C123.51 16.1655 123.373 16.4396 123.245 16.8599C123.117 17.262 123.007 17.6914 122.916 18.1483C122.843 18.6051 122.779 18.9797 122.724 19.2721C122.688 19.4914 122.66 19.8021 122.642 20.2041C122.624 20.5878 122.615 20.9625 122.615 21.3279C122.615 21.6751 122.615 21.9127 122.615 22.0406C122.615 22.3878 122.587 22.6345 122.532 22.7807C122.496 22.9086 122.423 22.9726 122.313 22.9726ZM116.118 20.8071C116.538 20.8071 116.931 20.6335 117.297 20.2863C117.681 19.9208 118.101 19.5371 118.558 19.1351C118.832 18.8609 119.115 18.5594 119.408 18.2305C119.7 17.8833 119.965 17.5452 120.202 17.2163C120.458 16.8874 120.659 16.6041 120.805 16.3665C120.952 16.129 121.025 15.9737 121.025 15.9006C121.025 15.8092 120.952 15.727 120.805 15.6539C120.678 15.5808 120.522 15.5259 120.339 15.4894C120.157 15.4346 119.992 15.4254 119.846 15.462C119.408 15.5899 119.051 15.7818 118.777 16.0376C118.521 16.2935 118.147 16.6955 117.653 17.2437C117.16 17.8467 116.767 18.4224 116.475 18.9706C116.182 19.5188 115.999 19.9665 115.926 20.3137C115.871 20.6427 115.935 20.8071 116.118 20.8071ZM131.944 22.9452C131.761 22.7624 131.615 22.5157 131.505 22.2051C131.396 21.8762 131.286 21.5015 131.176 21.0812C131.14 20.935 131.121 20.7706 131.121 20.5878C131.14 20.4051 131.14 20.2589 131.121 20.1493C131.067 20.2772 130.975 20.4416 130.847 20.6427C130.738 20.8437 130.628 20.9899 130.518 21.0812C130.445 21.1543 130.281 21.3005 130.025 21.5198C129.769 21.7208 129.513 21.8853 129.257 22.0132C128.654 22.397 128.115 22.5797 127.64 22.5614C127.183 22.5249 126.781 22.2873 126.434 21.8487C126.142 21.6112 125.904 21.3097 125.721 20.9442C125.539 20.5787 125.502 20.1401 125.612 19.6285C125.648 18.9889 125.74 18.3675 125.886 17.7645C126.032 17.1432 126.334 16.3209 126.79 15.2975C127.174 14.5483 127.467 13.9635 127.668 13.5432C127.869 13.1229 127.997 12.8762 128.051 12.8031C128.326 12.7118 128.664 12.7209 129.066 12.8305C129.468 12.9219 129.687 13.0955 129.723 13.3513C129.833 13.5341 129.833 13.8813 129.723 14.393C129.614 14.8864 129.395 15.4528 129.066 16.0924C128.81 16.7138 128.563 17.3168 128.326 17.9016C128.106 18.4863 127.969 18.9797 127.914 19.3818C127.878 19.7838 127.987 20.0305 128.243 20.1218C128.408 20.2132 128.645 20.2041 128.956 20.0944C129.285 19.9848 129.669 19.6559 130.107 19.1076C130.546 18.5594 131.012 17.6914 131.505 16.5036C131.651 16.1381 131.761 15.8183 131.834 15.5442C131.907 15.2518 131.953 14.932 131.971 14.5848C131.935 14.3655 131.989 14.1371 132.136 13.8996C132.3 13.662 132.492 13.4793 132.711 13.3513C132.784 13.26 132.885 13.1777 133.013 13.1046C133.141 13.0133 133.223 13.0133 133.259 13.1046L133.698 13.0772C133.771 13.059 133.853 13.1321 133.945 13.2965C134.036 13.461 134.127 13.5798 134.219 13.6529C134.42 13.8173 134.511 14.1737 134.493 14.7219C134.475 15.2701 134.255 16.0376 133.835 17.0244C133.488 17.7736 133.25 18.3401 133.122 18.7239C133.013 19.1076 132.949 19.4823 132.931 19.8477C132.931 20.1767 132.958 20.4599 133.013 20.6975C133.068 20.9168 133.232 21.1452 133.506 21.3828C133.707 21.5107 133.817 21.73 133.835 22.0406C133.872 22.333 133.881 22.5888 133.863 22.8081C133.826 22.9726 133.68 23.0822 133.424 23.1371C133.186 23.2102 132.921 23.2284 132.629 23.1919C132.355 23.1553 132.126 23.0731 131.944 22.9452ZM139.677 22.7533C139.439 22.8629 139.165 22.9086 138.855 22.8904C138.544 22.8721 138.124 22.7716 137.594 22.5888C137.557 22.5888 137.429 22.5066 137.21 22.3421C136.991 22.1777 136.771 21.9858 136.552 21.7665C136.333 21.5472 136.187 21.3645 136.113 21.2183C135.821 20.798 135.73 20.1767 135.839 19.3543C135.967 18.532 136.26 17.5452 136.716 16.394C136.844 16.1198 137.036 15.7726 137.292 15.3523C137.566 14.932 137.831 14.5483 138.087 14.2011C138.361 13.8356 138.553 13.6254 138.663 13.5706C138.663 13.5706 138.763 13.5341 138.964 13.461C139.165 13.3879 139.421 13.2691 139.732 13.1046C139.823 13.0681 139.978 13.0224 140.198 12.9676C140.435 12.9128 140.673 12.8671 140.91 12.8305C141.166 12.7757 141.34 12.7574 141.431 12.7757C141.797 12.794 142.171 12.931 142.555 13.1869C142.957 13.4244 143.286 13.7077 143.542 14.0366C143.798 14.3473 143.88 14.6214 143.789 14.8589C143.789 14.8955 143.734 15.0143 143.624 15.2153C143.533 15.398 143.432 15.5899 143.323 15.7909C143.213 15.9737 143.122 16.1107 143.048 16.2021C142.957 16.3117 142.793 16.3574 142.555 16.3391C142.336 16.3209 142.135 16.2478 141.952 16.1198C141.769 15.9919 141.669 15.8183 141.65 15.599C141.614 15.4528 141.477 15.3158 141.239 15.1879C141.02 15.06 140.91 14.996 140.91 14.996C140.764 14.996 140.572 15.1422 140.335 15.4346C140.097 15.727 139.85 16.0559 139.595 16.4214C139.266 16.7503 139.028 17.1066 138.882 17.4904C138.754 17.8559 138.663 18.2031 138.608 18.532C138.571 18.8427 138.526 19.0802 138.471 19.2447C138.398 19.4274 138.398 19.6559 138.471 19.93C138.544 20.2041 138.635 20.3594 138.745 20.396C138.909 20.4142 139.129 20.4051 139.403 20.3685C139.695 20.3137 139.997 20.2498 140.307 20.1767C140.636 20.0853 140.965 19.9939 141.294 19.9026C141.623 19.7929 141.915 19.6833 142.171 19.5736C142.518 19.3543 142.82 19.2721 143.076 19.3269C143.332 19.3635 143.524 19.4 143.651 19.4366C143.852 19.5097 143.953 19.665 143.953 19.9026C143.953 20.1401 143.871 20.396 143.706 20.6701C143.542 20.9259 143.304 21.1361 142.994 21.3005C142.701 21.4467 142.436 21.6112 142.199 21.7939C141.979 21.9584 141.87 22.0863 141.87 22.1777C141.797 22.1777 141.714 22.2051 141.623 22.2599C141.55 22.2965 141.486 22.3056 141.431 22.2873C141.395 22.2873 141.248 22.3147 140.993 22.3695C140.737 22.4244 140.472 22.4883 140.198 22.5614C139.942 22.6345 139.768 22.6985 139.677 22.7533ZM148.033 23.0274C147.832 22.9909 147.612 22.8721 147.375 22.6711C147.137 22.4518 146.918 22.2142 146.717 21.9584C146.534 21.6843 146.415 21.4558 146.361 21.2731C146.361 21.2366 146.333 21.1909 146.278 21.1361C146.242 21.0812 146.224 21.0538 146.224 21.0538C146.15 20.999 146.105 20.7614 146.087 20.3411C146.087 19.9026 146.114 19.4183 146.169 18.8884C146.224 18.3584 146.288 17.9381 146.361 17.6275C146.452 17.3351 146.589 16.9422 146.772 16.4488C146.955 15.9371 147.11 15.4803 147.238 15.0782L147.978 13.4884L146.881 13.1869C146.754 13.1503 146.644 13.0772 146.553 12.9676C146.479 12.8579 146.443 12.7666 146.443 12.6935C146.443 12.5473 146.525 12.3371 146.69 12.063C146.854 11.7889 146.973 11.6519 147.046 11.6519C147.137 11.6701 147.302 11.6793 147.539 11.6793C147.795 11.6793 148.042 11.6701 148.279 11.6519C148.517 11.6336 148.663 11.6153 148.718 11.597C148.791 11.5605 148.864 11.5148 148.937 11.46C149.01 11.3869 149.065 11.2864 149.102 11.1585C149.193 10.9574 149.275 10.8021 149.348 10.6925C149.422 10.5828 149.522 10.4184 149.65 10.1991C149.778 9.96152 149.878 9.7605 149.951 9.59604C150.043 9.43157 150.18 9.20315 150.363 8.91076C150.454 8.78285 150.555 8.62752 150.664 8.44478C150.774 8.26204 150.911 8.10671 151.075 7.97879C151.24 7.8326 151.505 7.73209 151.87 7.67727C152.254 7.60417 152.583 7.68641 152.857 7.92397C153.003 8.10671 153.085 8.28031 153.104 8.44478C153.122 8.60924 153.049 8.81939 152.884 9.07523C152.738 9.38589 152.565 9.66913 152.364 9.92497C152.181 10.1625 152.007 10.4366 151.843 10.7473C151.55 11.1493 151.496 11.3778 151.678 11.4326C151.861 11.4874 152.373 11.4508 153.213 11.3229C153.743 11.2316 154.127 11.2864 154.365 11.4874C154.602 11.6884 154.739 11.9442 154.776 12.2549C154.831 12.6935 154.785 12.9584 154.639 13.0498C154.493 13.1412 154.072 13.1869 153.378 13.1869C152.939 13.26 152.565 13.3057 152.254 13.3239C151.943 13.3239 151.715 13.3239 151.569 13.3239C151.331 13.3422 151.176 13.3513 151.103 13.3513C151.03 13.3513 150.92 13.3696 150.774 13.4062C150.628 13.4427 150.518 13.5067 150.445 13.598C150.39 13.6711 150.326 13.7808 150.253 13.927C150.18 14.0001 150.07 14.1919 149.924 14.5026C149.778 14.8133 149.595 15.1513 149.376 15.5168C149.12 16.2843 148.901 17.0244 148.718 17.7371C148.554 18.4315 148.407 19.1259 148.279 19.8203C148.225 20.1675 148.234 20.4234 148.307 20.5878C148.398 20.734 148.636 20.8254 149.019 20.8619C149.221 20.8802 149.513 20.8802 149.897 20.8619C150.28 20.8254 150.6 20.7706 150.856 20.6975C151.057 20.6061 151.267 20.5147 151.486 20.4234C151.706 20.3137 151.907 20.2041 152.09 20.0944C152.254 20.0031 152.418 19.9117 152.583 19.8203C152.747 19.7107 152.83 19.6559 152.83 19.6559C152.921 19.5097 153.049 19.5371 153.213 19.7381C153.396 19.9208 153.524 20.1218 153.597 20.3411C153.597 20.5604 153.551 20.8254 153.46 21.1361C153.369 21.4284 153.031 21.7391 152.446 22.068C151.624 22.5797 150.801 22.8904 149.979 23C149.157 23.1096 148.508 23.1188 148.033 23.0274ZM14.2537 43.7493C14.1441 43.8224 13.9156 43.9138 13.5684 44.0234C13.2395 44.1148 12.673 44.2061 11.8689 44.2975C11.6314 44.3158 11.2933 44.3341 10.8547 44.3523C10.4162 44.3706 9.94104 44.3889 9.42937 44.4072C8.93597 44.4254 8.47913 44.4346 8.05882 44.4346C7.6568 44.4163 7.37355 44.3889 7.20908 44.3523C7.20908 44.3523 7.1634 44.398 7.07203 44.4894C6.99893 44.5808 6.96239 44.6995 6.96239 44.8457C6.83447 45.065 6.67914 45.394 6.4964 45.8325C6.31366 46.2528 6.11265 46.7188 5.89336 47.2305C5.69234 47.7422 5.50047 48.2538 5.31773 48.7655C5.13499 49.2589 4.97966 49.6975 4.85174 50.0812C4.7421 50.4467 4.68728 50.7025 4.68728 50.8487C4.52281 51.2873 4.4223 51.6619 4.38575 51.9726C4.34921 52.2832 4.28525 52.466 4.19388 52.5208C4.13906 52.7949 3.96545 52.932 3.67307 52.932C3.39896 52.932 3.18881 52.8497 3.04262 52.6853C2.64059 52.4843 2.36648 52.2284 2.22029 51.9178C2.0741 51.5888 2.06496 51.2234 2.19288 50.8213C2.2477 50.5838 2.33907 50.2366 2.46699 49.7797C2.61318 49.3046 2.76851 48.7838 2.93297 48.2173C3.11571 47.6508 3.29845 47.1026 3.48119 46.5726C3.68221 46.0244 3.87408 45.5767 4.05682 45.2295C4.25784 44.8823 4.38575 44.5716 4.44058 44.2975C4.4954 44.0051 4.56849 43.7402 4.65986 43.5026C4.64159 43.3016 4.64159 43.1737 4.65986 43.1188C4.67814 43.0458 4.75123 42.927 4.87915 42.7625C4.97052 42.6894 5.08017 42.5615 5.20808 42.3788C5.35428 42.1777 5.51874 41.8762 5.70148 41.4742C5.7563 41.2914 5.83854 41.0448 5.94818 40.7341C6.0761 40.4052 6.19488 40.0762 6.30452 39.7473C6.41417 39.4001 6.51467 39.1077 6.60604 38.8701C6.69741 38.6326 6.7431 38.5047 6.7431 38.4864C6.77965 38.4133 6.83447 38.2762 6.90756 38.0752C6.98066 37.8559 7.03548 37.6823 7.07203 37.5544C7.14513 37.2986 7.19995 37.0884 7.23649 36.924C7.29132 36.7595 7.28218 36.6773 7.20908 36.6773C7.06289 36.7138 6.77051 36.7412 6.33193 36.7595C6.11265 36.7961 5.94818 36.8235 5.83854 36.8417C5.74717 36.8417 5.66493 36.8509 5.59184 36.8691C5.4091 36.8874 5.24463 36.8691 5.09844 36.8143C4.95225 36.7595 4.87915 36.6499 4.87915 36.4854C4.9157 36.193 5.01621 35.8915 5.18067 35.5808C5.36341 35.2702 5.59184 35.1057 5.86595 35.0874C5.99386 35.0509 6.13092 35.0235 6.27711 35.0052C6.44158 34.9687 6.66086 34.9138 6.93497 34.8407C7.28218 34.7676 7.5837 34.7494 7.83954 34.7859C8.11365 34.8042 8.30552 34.8316 8.41517 34.8681C8.50654 34.8133 8.57963 34.7585 8.63445 34.7037C8.70755 34.6306 8.75324 34.5575 8.77151 34.4844C8.86288 34.1555 9.02735 33.9088 9.26491 33.7443C9.50247 33.5616 9.74917 33.4702 10.005 33.4702C10.2791 33.4519 10.4984 33.525 10.6629 33.6895C10.8273 33.8357 10.873 34.0824 10.7999 34.4296C10.8182 34.4844 10.8365 34.5301 10.8547 34.5666C10.8913 34.6032 11.0283 34.6032 11.2659 34.5666C11.5217 34.5118 11.9603 34.4204 12.5816 34.2925C12.9106 34.256 13.3217 34.2194 13.8151 34.1829C14.3268 34.1463 14.7288 34.1737 15.0212 34.2651C15.3319 34.2103 15.606 34.192 15.8435 34.2103C16.0994 34.2103 16.273 34.1737 16.3643 34.1006C16.7481 34.1737 17.0222 34.2286 17.1867 34.2651C17.3694 34.2834 17.5156 34.3382 17.6253 34.4296C17.6983 34.5027 17.7258 34.5758 17.7075 34.6489C17.6892 34.7037 17.6801 34.7311 17.6801 34.7311C17.607 34.6945 17.5978 34.6945 17.6527 34.7311C17.7075 34.7494 17.7806 34.7951 17.8719 34.8681C17.9999 34.923 18.0638 35.0417 18.0638 35.2245C18.0821 35.389 18.073 35.5626 18.0364 35.7453C18.0181 35.9098 17.9999 36.0194 17.9816 36.0742C17.9633 36.2387 17.8719 36.3392 17.7075 36.3757C17.543 36.394 17.1319 36.394 16.474 36.3757C15.6882 36.2661 14.9573 36.2296 14.2811 36.2661C13.6233 36.2844 12.7918 36.3666 11.7867 36.5128C11.3847 36.5311 11.0375 36.5859 10.7451 36.6773C10.471 36.7504 10.3339 36.7869 10.3339 36.7869C10.2608 36.7869 10.1329 36.9148 9.95018 37.1707C9.76744 37.4082 9.59384 37.7646 9.42937 38.2397C9.35628 38.3676 9.22836 38.6326 9.04562 39.0346C8.88115 39.4366 8.70755 39.8752 8.52481 40.3503C8.34207 40.8072 8.17761 41.2184 8.03141 41.5838C7.88522 41.931 7.79385 42.1229 7.7573 42.1595C8.01314 42.2326 8.40603 42.2691 8.93597 42.2691C9.48419 42.2691 10.0872 42.2508 10.7451 42.2143C11.403 42.1595 12.0243 42.1046 12.609 42.0498C12.8832 41.995 13.1664 41.9493 13.4588 41.9128C13.7512 41.8762 13.9522 41.8671 14.0618 41.8854C14.2811 41.9036 14.4456 42.0498 14.5552 42.3239C14.6649 42.5798 14.7014 42.8539 14.6649 43.1463C14.6283 43.4204 14.4913 43.6214 14.2537 43.7493ZM20.3985 51.4518C19.8503 51.7624 19.2655 51.9452 18.6442 52C18.0411 52.0365 17.4746 51.9543 16.9447 51.7533C16.4147 51.534 15.9853 51.2142 15.6564 50.7939C15.4736 50.5564 15.3 50.1817 15.1356 49.6701C14.9711 49.1401 14.9437 48.4274 15.0533 47.532C15.163 46.6914 15.4188 45.8417 15.8208 44.9828C16.2411 44.1239 16.7528 43.3655 17.3559 42.7077C17.9589 42.0498 18.6168 41.6021 19.3294 41.3645C19.5853 41.2732 19.8411 41.2092 20.0969 41.1727C20.3711 41.1178 20.7274 41.1087 21.166 41.1453C21.5863 41.2001 21.9609 41.3097 22.2898 41.4742C22.6188 41.6204 22.8563 41.7848 23.0025 41.9676C23.2949 42.26 23.4868 42.5432 23.5781 42.8173C23.6695 43.0914 23.7061 43.3564 23.6878 43.6122C23.5964 44.197 23.3314 44.8275 22.8929 45.5036C22.4726 46.1797 21.8787 46.6823 21.1112 47.0112C20.8005 47.1391 20.435 47.2214 20.0147 47.2579C19.5944 47.2945 19.0188 47.2396 18.2878 47.0934C17.8492 47.0021 17.5569 47.0478 17.4107 47.2305C17.2828 47.4132 17.2279 47.7696 17.2462 48.2995C17.2828 48.6285 17.3559 48.9208 17.4655 49.1767C17.5934 49.4142 17.8218 49.5787 18.1508 49.6701C18.5711 49.7432 18.8726 49.7523 19.0553 49.6975C19.2381 49.6244 19.4665 49.5239 19.7406 49.396C19.8868 49.3046 20.0239 49.2041 20.1518 49.0944C20.298 48.9848 20.435 48.8751 20.5629 48.7655C20.7091 48.6559 20.8279 48.5736 20.9193 48.5188C21.0106 48.4457 21.102 48.4 21.1934 48.3818C21.2848 48.3635 21.3761 48.3543 21.4675 48.3543C21.6685 48.3726 21.8604 48.4823 22.0431 48.6833C22.2259 48.8843 22.3446 49.0762 22.3995 49.2589C22.3995 49.4051 22.3081 49.6152 22.1254 49.8894C21.9426 50.1452 21.6959 50.4193 21.3853 50.7117C21.0929 50.9858 20.7639 51.2325 20.3985 51.4518ZM20.0421 45.3391C20.17 45.2843 20.3528 45.1564 20.5903 44.9554C20.8462 44.7544 21.0746 44.5442 21.2756 44.3249C21.4766 44.0874 21.5771 43.9046 21.5771 43.7767C21.5771 43.5757 21.4401 43.4021 21.166 43.2559C20.9101 43.1097 20.5721 43.0823 20.1518 43.1737C20.0056 43.2102 19.832 43.3107 19.631 43.4752C19.4299 43.6397 19.2289 43.8315 19.0279 44.0508C18.8269 44.2518 18.6533 44.4528 18.5071 44.6539C18.3609 44.8366 18.2604 44.9828 18.2056 45.0924C18.2787 45.1838 18.4249 45.2569 18.6442 45.3117C18.8635 45.3665 19.101 45.394 19.3569 45.394C19.631 45.394 19.8594 45.3757 20.0421 45.3391ZM26.7026 51.6162C26.5564 51.6528 26.3645 51.6711 26.1269 51.6711C25.8894 51.6528 25.6792 51.6254 25.4965 51.5888C25.332 51.534 25.2498 51.4792 25.2498 51.4244C25.2498 51.333 25.2041 51.2873 25.1127 51.2873C25.1127 51.2873 25.0122 51.2142 24.8112 51.068C24.6102 50.9036 24.4275 50.7848 24.263 50.7117C24.0985 50.4558 23.9889 50.1635 23.9341 49.8345C23.8975 49.4873 24.0072 48.8843 24.263 48.0254C24.2813 47.4406 24.4457 46.8285 24.7564 46.1889C25.067 45.531 25.4599 44.8914 25.9351 44.2701C26.4102 43.6488 26.9036 43.1006 27.4152 42.6254C27.9269 42.1321 28.3838 41.7666 28.7858 41.529C29.0416 41.2732 29.3797 41.1361 29.8 41.1178C30.2386 41.0996 30.6223 41.1818 30.9513 41.3645C31.134 41.4559 31.335 41.6387 31.5543 41.9128C31.7736 42.1869 31.9837 42.4793 32.1848 42.7899C32.3858 43.0823 32.5411 43.3473 32.6507 43.5848C32.7056 43.7858 32.7512 43.9686 32.7878 44.1331C32.8426 44.2792 32.8792 44.462 32.8974 44.6813C32.9157 44.9006 32.8974 45.2295 32.8426 45.6681C32.7512 45.997 32.669 46.3351 32.5959 46.6823C32.5411 47.0112 32.5137 47.3493 32.5137 47.6965C32.4771 48.0437 32.5137 48.2904 32.6233 48.4366C32.7513 48.5828 32.934 48.5919 33.1716 48.464C33.3908 48.3543 33.6193 48.3452 33.8568 48.4366C34.0944 48.5097 34.2589 48.6559 34.3502 48.8751C34.4599 49.0762 34.4325 49.3411 34.268 49.6701C34.1583 49.9076 33.9847 50.1361 33.7472 50.3553C33.5096 50.5746 33.2446 50.7574 32.9523 50.9036C32.6599 51.0315 32.3766 51.0954 32.1025 51.0954C31.9015 51.0954 31.7005 51.0223 31.4995 50.8762C31.2985 50.7117 31.1157 50.4924 30.9513 50.2183C30.7868 49.9442 30.6497 49.6427 30.5401 49.3137L30.3756 48.6833L29.3888 49.5878C29.1513 49.8437 28.9137 50.0812 28.6762 50.3005C28.4569 50.5015 28.3198 50.6477 28.265 50.7391C28.1736 50.9036 27.9909 51.0498 27.7168 51.1777C27.4609 51.3056 27.1229 51.4518 26.7026 51.6162ZM27.4427 48.9848C27.7533 48.8021 28.0183 48.5828 28.2376 48.3269C28.4751 48.0711 28.7036 47.7878 28.9229 47.4772C29.1421 47.1483 29.3797 46.8011 29.6355 46.4356C29.9462 46.0153 30.1655 45.6772 30.2934 45.4214C30.4396 45.1655 30.5492 44.8914 30.6223 44.599C30.5492 44.398 30.4487 44.1879 30.3208 43.9686C30.1929 43.731 30.065 43.6031 29.9371 43.5848C29.6812 43.5848 29.3706 43.7402 29.0051 44.0508C28.6579 44.3615 28.2741 44.8092 27.8538 45.394C27.7807 45.4853 27.6894 45.6315 27.5797 45.8325C27.4701 46.0335 27.3604 46.2254 27.2508 46.4082C27.1594 46.5726 27.0955 46.6823 27.0589 46.7371C27.0041 46.8102 26.9219 46.9838 26.8122 47.2579C26.7208 47.5137 26.6386 47.7787 26.5655 48.0528C26.4924 48.3087 26.4559 48.4914 26.4559 48.601C26.4559 48.7107 26.465 48.8295 26.4833 48.9574C26.5198 49.0853 26.6112 49.1675 26.7574 49.2041C26.9036 49.2406 27.132 49.1675 27.4427 48.9848ZM37.4519 52.0274C37.2509 51.9909 37.0316 51.8721 36.7941 51.6711C36.5565 51.4518 36.3372 51.2142 36.1362 50.9584C35.9535 50.6843 35.8347 50.4558 35.7799 50.2731C35.7799 50.2366 35.7525 50.1909 35.6976 50.1361C35.6611 50.0812 35.6428 50.0538 35.6428 50.0538C35.5697 49.999 35.524 49.7614 35.5058 49.3411C35.5058 48.9026 35.5332 48.4183 35.588 47.8884C35.6428 47.3584 35.7068 46.9381 35.7799 46.6275C35.8712 46.3351 36.0083 45.9422 36.191 45.4488C36.3738 44.9371 36.5291 44.4803 36.657 44.0782L37.3971 42.4884L36.3007 42.1869C36.1728 42.1503 36.0631 42.0772 35.9718 41.9676C35.8987 41.8579 35.8621 41.7666 35.8621 41.6935C35.8621 41.5473 35.9443 41.3371 36.1088 41.063C36.2733 40.7889 36.3921 40.6519 36.4652 40.6519C36.5565 40.6701 36.721 40.6793 36.9585 40.6793C37.2144 40.6793 37.4611 40.6701 37.6986 40.6519C37.9362 40.6336 38.0824 40.6153 38.1372 40.597C38.2103 40.5605 38.2834 40.5148 38.3565 40.46C38.4296 40.3869 38.4844 40.2864 38.521 40.1585C38.6123 39.9574 38.6946 39.8021 38.7677 39.6925C38.8408 39.5828 38.9413 39.4184 39.0692 39.1991C39.1971 38.9615 39.2976 38.7605 39.3707 38.596C39.4621 38.4316 39.5991 38.2031 39.7819 37.9108C39.8732 37.7828 39.9738 37.6275 40.0834 37.4448C40.193 37.262 40.3301 37.1067 40.4946 36.9788C40.659 36.8326 40.924 36.7321 41.2895 36.6773C41.6732 36.6042 42.0022 36.6864 42.2763 36.924C42.4225 37.1067 42.5047 37.2803 42.523 37.4448C42.5412 37.6092 42.4682 37.8194 42.3037 38.0752C42.1575 38.3859 41.9839 38.6691 41.7829 38.925C41.6001 39.1625 41.4265 39.4366 41.2621 39.7473C40.9697 40.1493 40.9149 40.3778 41.0976 40.4326C41.2803 40.4874 41.792 40.4508 42.6326 40.3229C43.1626 40.2316 43.5463 40.2864 43.7839 40.4874C44.0214 40.6884 44.1585 40.9442 44.195 41.2549C44.2499 41.6935 44.2042 41.9584 44.058 42.0498C43.9118 42.1412 43.4915 42.1869 42.7971 42.1869C42.3585 42.26 41.9839 42.3057 41.6732 42.3239C41.3626 42.3239 41.1342 42.3239 40.988 42.3239C40.7504 42.3422 40.5951 42.3513 40.522 42.3513C40.4489 42.3513 40.3392 42.3696 40.193 42.4062C40.0469 42.4427 39.9372 42.5067 39.8641 42.598C39.8093 42.6711 39.7453 42.7808 39.6722 42.927C39.5991 43.0001 39.4895 43.1919 39.3433 43.5026C39.1971 43.8133 39.0144 44.1513 38.7951 44.5168C38.5392 45.2843 38.32 46.0244 38.1372 46.7371C37.9728 47.4315 37.8266 48.1259 37.6986 48.8203C37.6438 49.1675 37.653 49.4234 37.7261 49.5878C37.8174 49.734 38.055 49.8254 38.4387 49.8619C38.6398 49.8802 38.9321 49.8802 39.3159 49.8619C39.6996 49.8254 40.0194 49.7706 40.2753 49.6975C40.4763 49.6061 40.6864 49.5147 40.9057 49.4234C41.125 49.3137 41.326 49.2041 41.5088 49.0944C41.6732 49.0031 41.8377 48.9117 42.0022 48.8203C42.1666 48.7107 42.2489 48.6559 42.2489 48.6559C42.3402 48.5097 42.4682 48.5371 42.6326 48.7381C42.8154 48.9208 42.9433 49.1218 43.0164 49.3411C43.0164 49.5604 42.9707 49.8254 42.8793 50.1361C42.7879 50.4284 42.4499 50.7391 41.8651 51.068C41.0428 51.5797 40.2205 51.8904 39.3981 52C38.5758 52.1096 37.9271 52.1188 37.4519 52.0274ZM46.4991 51.0406C46.1519 50.73 45.8503 50.4102 45.5945 50.0812C45.3387 49.734 45.1651 49.2041 45.0737 48.4914C45.0371 48.1625 45.0737 47.7056 45.1833 47.1208C45.293 46.5361 45.4574 45.9239 45.6767 45.2843C45.896 44.6265 46.1336 44.0234 46.3894 43.4752C46.6453 42.927 46.9011 42.5249 47.1569 42.2691C47.3762 41.995 47.6503 41.7757 47.9793 41.6112C48.3265 41.4468 48.6828 41.4468 49.0483 41.6112C49.2493 41.8488 49.3498 42.1777 49.3498 42.598C49.3681 43.0001 49.2676 43.3747 49.0483 43.7219C48.6828 44.2153 48.363 44.8366 48.0889 45.5858C47.8331 46.3168 47.6595 46.9747 47.5681 47.5594C47.4402 47.9797 47.3854 48.3087 47.4036 48.5462C47.4219 48.7655 47.5498 48.9026 47.7874 48.9574C48.1346 49.0488 48.4909 48.9482 48.8564 48.6559C49.2402 48.3635 49.6056 47.934 49.9528 47.3675C50.3183 46.8011 50.6381 46.1523 50.9122 45.4214C51.0219 45.1655 51.1041 44.864 51.1589 44.5168C51.232 44.1696 51.3051 43.9138 51.3782 43.7493C51.4696 43.3838 51.6249 43.1006 51.8442 42.8996C52.0818 42.6803 52.3285 42.5432 52.5843 42.4884C52.8401 42.4336 53.032 42.461 53.1599 42.5706C53.3244 42.6437 53.498 42.7625 53.6807 42.927C53.8635 43.0914 53.9366 43.3838 53.9 43.8041C53.9 44.4803 53.7538 45.0559 53.4614 45.531C53.1691 46.0061 52.9224 46.5087 52.7214 47.0386C52.5569 47.4224 52.2919 47.8701 51.9264 48.3818C51.561 48.8934 51.1681 49.3594 50.7478 49.7797C50.3457 50.2 49.9711 50.4833 49.6239 50.6295C49.1122 50.9584 48.5914 51.1594 48.0615 51.2325C47.5315 51.2873 47.0107 51.2234 46.4991 51.0406ZM56.9184 51.4244C56.8636 51.4426 56.7448 51.4335 56.5621 51.397C56.3976 51.3604 56.224 51.3147 56.0413 51.2599C55.8768 51.2051 55.7763 51.1594 55.7398 51.1228C55.6667 51.0498 55.5662 50.9218 55.4382 50.7391C55.3103 50.5381 55.2372 50.2731 55.219 49.9442C55.219 49.6152 55.3743 49.2224 55.6849 48.7655C55.7763 48.5828 55.886 48.3087 56.0139 47.9432C56.1418 47.5777 56.2697 47.1939 56.3976 46.7919C56.5438 46.3716 56.6717 45.997 56.7814 45.6681C56.9093 45.3391 57.0007 45.1107 57.0555 44.9828C57.092 44.6721 57.0738 44.4528 57.0007 44.3249C56.9459 44.1787 56.7905 44.0965 56.5347 44.0782C56.3519 44.0782 56.2058 44.0143 56.0961 43.8864C56.0047 43.7584 55.9591 43.53 55.9591 43.2011C55.9956 42.9452 56.0596 42.726 56.1509 42.5432C56.2606 42.3422 56.4068 42.1777 56.5895 42.0498C56.7722 41.9584 57.0007 41.8945 57.2748 41.8579C57.5672 41.8214 57.8504 41.8123 58.1245 41.8305C58.3986 41.8488 58.5905 41.9128 58.7002 42.0224C58.8281 42.0955 58.9286 42.26 59.0017 42.5158C59.093 42.7534 59.1661 43.0001 59.221 43.2559C59.2758 43.5117 59.3123 43.7036 59.3306 43.8315C59.5133 43.6853 59.7144 43.4843 59.9336 43.2285C60.1712 42.9544 60.4088 42.6985 60.6463 42.461C60.9387 42.26 61.2859 42.059 61.6879 41.8579C62.09 41.6387 62.3824 41.529 62.5651 41.529C62.7661 41.529 63.0128 41.6295 63.3052 41.8305C63.5976 42.0133 63.7803 42.1777 63.8534 42.3239C64.0362 42.6346 64.1641 42.9635 64.2372 43.3107C64.3285 43.6397 64.2737 43.932 64.0727 44.1879C63.89 44.4254 63.6341 44.663 63.3052 44.9006C62.9763 45.1198 62.5651 45.1838 62.0717 45.0924C61.9621 45.0559 61.8433 44.9188 61.7154 44.6813C61.6057 44.4437 61.5418 44.2701 61.5235 44.1605C61.5235 44.1056 61.4412 44.1605 61.2768 44.3249C61.1306 44.4711 60.9479 44.6539 60.7286 44.8731C60.5276 45.0924 60.3357 45.2935 60.1529 45.4762C59.8423 45.8599 59.5133 46.3808 59.1661 47.0386C58.8189 47.6965 58.4078 48.4914 57.9326 49.4234C57.7134 49.8802 57.5306 50.3188 57.3844 50.7391C57.2382 51.1411 57.0829 51.3695 56.9184 51.4244ZM69.8935 51.4518C69.3452 51.7624 68.7605 51.9452 68.1392 52C67.5361 52.0365 66.9696 51.9543 66.4397 51.7533C65.9097 51.534 65.4803 51.2142 65.1514 50.7939C64.9686 50.5564 64.795 50.1817 64.6306 49.6701C64.4661 49.1401 64.4387 48.4274 64.5483 47.532C64.658 46.6914 64.9138 45.8417 65.3158 44.9828C65.7361 44.1239 66.2478 43.3655 66.8508 42.7077C67.4539 42.0498 68.1118 41.6021 68.8244 41.3645C69.0803 41.2732 69.3361 41.2092 69.5919 41.1727C69.8661 41.1178 70.2224 41.1087 70.661 41.1453C71.0813 41.2001 71.4559 41.3097 71.7848 41.4742C72.1138 41.6204 72.3513 41.7848 72.4975 41.9676C72.7899 42.26 72.9818 42.5432 73.0731 42.8173C73.1645 43.0914 73.2011 43.3564 73.1828 43.6122C73.0914 44.197 72.8264 44.8275 72.3879 45.5036C71.9676 46.1797 71.3737 46.6823 70.6062 47.0112C70.2955 47.1391 69.93 47.2214 69.5097 47.2579C69.0894 47.2945 68.5138 47.2396 67.7828 47.0934C67.3442 47.0021 67.0519 47.0478 66.9057 47.2305C66.7778 47.4132 66.7229 47.7696 66.7412 48.2995C66.7778 48.6285 66.8508 48.9208 66.9605 49.1767C67.0884 49.4142 67.3168 49.5787 67.6458 49.6701C68.0661 49.7432 68.3676 49.7523 68.5503 49.6975C68.7331 49.6244 68.9615 49.5239 69.2356 49.396C69.3818 49.3046 69.5188 49.2041 69.6468 49.0944C69.793 48.9848 69.93 48.8751 70.0579 48.7655C70.2041 48.6559 70.3229 48.5736 70.4143 48.5188C70.5056 48.4457 70.597 48.4 70.6884 48.3818C70.7798 48.3635 70.8711 48.3543 70.9625 48.3543C71.1635 48.3726 71.3554 48.4823 71.5381 48.6833C71.7209 48.8843 71.8396 49.0762 71.8945 49.2589C71.8945 49.4051 71.8031 49.6152 71.6204 49.8894C71.4376 50.1452 71.1909 50.4193 70.8803 50.7117C70.5879 50.9858 70.2589 51.2325 69.8935 51.4518ZM69.5371 45.3391C69.665 45.2843 69.8478 45.1564 70.0853 44.9554C70.3412 44.7544 70.5696 44.5442 70.7706 44.3249C70.9716 44.0874 71.0721 43.9046 71.0721 43.7767C71.0721 43.5757 70.9351 43.4021 70.661 43.2559C70.4051 43.1097 70.0671 43.0823 69.6468 43.1737C69.5006 43.2102 69.327 43.3107 69.126 43.4752C68.9249 43.6397 68.7239 43.8315 68.5229 44.0508C68.3219 44.2518 68.1483 44.4528 68.0021 44.6539C67.8559 44.8366 67.7554 44.9828 67.7006 45.0924C67.7737 45.1838 67.9199 45.2569 68.1392 45.3117C68.3585 45.3665 68.596 45.394 68.8518 45.394C69.126 45.394 69.3544 45.3757 69.5371 45.3391Z" fill="white"/>
</svg>
