<svg width="79" height="78" viewBox="0 0 79 78" fill="none" xmlns="http://www.w3.org/2000/svg">
<rect x="0.304688" width="78" height="78" rx="10" fill="#FA7F66"/>
<path fill-rule="evenodd" clip-rule="evenodd" d="M23.5374 19H54.2517C55.8809 19 57.4433 19.6472 58.5953 20.7992C59.7473 21.9512 60.3945 23.5137 60.3945 25.1429V55.8571C60.3945 57.4863 59.7473 59.0488 58.5953 60.2008C57.4433 61.3528 55.8809 62 54.2517 62H23.5374C21.9082 62 20.3457 61.3528 19.1937 60.2008C18.0417 59.0488 17.3945 57.4863 17.3945 55.8571V25.1429C17.3945 23.5137 18.0417 21.9512 19.1937 20.7992C20.3457 19.6472 21.9082 19 23.5374 19Z" fill="white" stroke="#FF9580" stroke-width="2" stroke-linecap="round" stroke-linejoin="round"/>
<path fill-rule="evenodd" clip-rule="evenodd" d="M23.5374 25.1429H54.2517C55.8809 25.1429 57.4433 25.79 58.5953 26.9421C59.7473 28.0941 60.3945 29.6565 60.3945 31.2857V25.1429C60.3945 22.0714 57.6456 19 54.2517 19H23.5374C20.1435 19 17.3945 22.0714 17.3945 25.1429V31.2857C17.3945 29.6565 18.0417 28.0941 19.1937 26.9421C20.3457 25.79 21.9082 25.1429 23.5374 25.1429Z" fill="white" stroke="#FF9580" stroke-width="2" stroke-linecap="round" stroke-linejoin="round"/>
<path fill-rule="evenodd" clip-rule="evenodd" d="M29.6744 40.4983H32.7458H29.6744ZM29.6744 34.3555H41.9509H29.6744ZM29.6744 46.6412H48.0938H29.6744ZM29.6744 52.784H41.9509H29.6744Z" fill="white"/>
<path d="M29.6744 40.4983H32.7458M29.6744 34.3555H41.9509M29.6744 46.6412H48.0938M29.6744 52.784H41.9509" stroke="#FF9580" stroke-width="2" stroke-linecap="round" stroke-linejoin="round"/>
</svg>
