<svg width="1032" height="412" viewBox="0 0 1032 412" fill="none" xmlns="http://www.w3.org/2000/svg">
<path d="M787.349 345.425C787.349 349.467 785.746 353.343 782.894 356.2C780.042 359.058 776.173 360.664 772.139 360.664H265.969C263.97 360.667 261.99 360.275 260.141 359.511C258.293 358.746 256.614 357.624 255.199 356.209C253.784 354.794 252.661 353.113 251.895 351.262C251.129 349.412 250.735 347.428 250.735 345.425V25.9612C250.732 23.956 251.124 21.9698 251.888 20.1165C252.653 18.2633 253.775 16.5794 255.19 15.1615C256.605 13.7435 258.286 12.6194 260.136 11.8535C261.986 11.0876 263.968 10.695 265.969 10.6983H772.139C774.139 10.6983 776.118 11.0932 777.965 11.8606C779.812 12.6279 781.49 13.7526 782.903 15.1702C784.315 16.5878 785.435 18.2706 786.198 20.1222C786.961 21.9739 787.352 23.958 787.349 25.9612V345.425Z" fill="url(#paint0_linear_110_23)"/>
<path d="M261.058 4.55861H767.227C771.261 4.55861 775.13 6.16408 777.982 9.02183C780.835 11.8796 782.437 15.7555 782.437 19.797V339.286C782.437 343.327 780.835 347.203 777.982 350.061C775.13 352.919 771.261 354.524 767.227 354.524H261.058C257.017 354.524 253.143 352.916 250.286 350.054C247.429 347.191 245.824 343.309 245.824 339.261V19.8216C245.82 17.8163 246.212 15.8301 246.977 13.9769C247.741 12.1236 248.863 10.4398 250.278 9.02181C251.694 7.60387 253.374 6.47972 255.224 5.71384C257.074 4.94795 259.056 4.55537 261.058 4.55861Z" fill="white"/>
<path d="M277.913 333.648C275.308 333.687 272.793 332.693 270.921 330.884C269.049 329.074 267.972 326.597 267.926 323.996V35.0863C267.972 32.4852 269.049 30.0082 270.921 28.1988C272.793 26.3894 275.308 25.3953 277.913 25.4347H751.723C754.303 25.4343 756.78 26.4457 758.62 28.2509C760.46 30.0562 761.517 32.5109 761.562 35.0863V323.996C761.517 326.571 760.46 329.026 758.62 330.831C756.78 332.637 754.303 333.648 751.723 333.648H277.913Z" fill="url(#paint1_linear_110_23)"/>
<path opacity="0.4" d="M582.281 108.934H447.207V269.795H582.281V108.934Z" fill="white"/>
<path d="M527.024 150.685H503.693V156.824H527.024V150.685Z" fill="white"/>
<path d="M529.48 156.824H540.531V150.685H529.48V156.824Z" fill="white"/>
<path d="M540.792 236.958V159.28H489.656V236.561C488.735 236.709 487.903 237.194 487.321 237.922C486.74 238.65 486.45 239.569 486.509 240.499C486.568 241.429 486.971 242.303 487.64 242.952C488.309 243.601 489.196 243.977 490.128 244.008H509.127C509.967 244.01 510.784 243.73 511.447 243.213C512.109 242.695 512.578 241.97 512.778 241.154C512.979 240.338 512.899 239.478 512.552 238.713C512.205 237.947 511.611 237.32 510.865 236.933V168.912C512.43 169.061 514.069 169.16 515.832 169.16C517.595 169.16 518.49 169.16 519.756 169.011V236.561C518.835 236.71 518.002 237.197 517.421 237.928C516.84 238.658 516.552 239.579 516.614 240.51C516.676 241.442 517.083 242.316 517.756 242.963C518.429 243.61 519.32 243.983 520.253 244.008H539.227C540.068 244.01 540.885 243.73 541.547 243.213C542.209 242.695 542.678 241.97 542.879 241.154C543.079 240.338 543 239.478 542.653 238.713C542.306 237.947 541.712 237.32 540.966 236.933L540.792 236.958Z" fill="white"/>
<path d="M501.237 156.824V150.685H490.185V156.824H501.237Z" fill="white"/>
<path opacity="0.4" d="M428.788 108.934H293.714V269.795H428.788V108.934Z" fill="white"/>
<path d="M397.297 164.907C395.584 162.057 392.865 159.946 389.671 158.988C386.478 158.029 383.041 158.291 380.032 159.724C378.121 157.667 375.929 155.889 373.521 154.442C373.545 154.859 373.545 155.277 373.521 155.695C373.521 158.952 372.222 162.077 369.909 164.38C367.596 166.684 364.46 167.978 361.189 167.978C357.918 167.978 354.782 166.684 352.469 164.38C350.156 162.077 348.857 158.952 348.857 155.695C348.833 155.253 348.833 154.81 348.857 154.368C346.489 155.84 344.339 157.635 342.469 159.699C339.461 158.246 336.014 157.975 332.814 158.94C329.615 159.905 326.898 162.036 325.204 164.907L312.133 187.016L330.976 198.071V240.325H390.638L391.229 198.243L410.369 187.016L397.297 164.907Z" fill="white"/>
<path opacity="0.4" d="M735.775 108.934H600.701V269.795H735.775V108.934Z" fill="white"/>
<path d="M700.165 166.647L699.555 159.28H688.028H683.031H671.528H664.948H653.444H648.424H636.921L636.311 166.647H700.165Z" fill="white"/>
<path d="M635.252 171.56L630.171 229.273H638.016H655.101H662.921H673.58H681.4H698.484H706.304L701.224 171.56H635.252Z" fill="white"/>
<path d="M729.454 102.794H228.633C228.594 112.027 231.991 120.935 238.147 127.74C244.303 134.545 252.764 138.747 261.843 139.508C270.921 140.269 279.948 137.532 287.123 131.844C294.298 126.156 299.093 117.935 300.551 108.821C301.958 117.388 306.318 125.17 312.855 130.784C319.393 136.398 327.683 139.479 336.252 139.479C344.82 139.479 353.11 136.398 359.648 130.784C366.185 125.17 370.545 117.388 371.953 108.821C373.36 117.388 377.72 125.17 384.257 130.784C390.795 136.398 399.085 139.479 407.654 139.479C416.222 139.479 424.513 136.398 431.05 130.784C437.587 125.17 441.948 117.388 443.355 108.821C444.746 117.397 449.098 125.193 455.635 130.818C462.172 136.444 470.468 139.532 479.043 139.532C487.619 139.532 495.915 136.444 502.452 130.818C508.989 125.193 513.341 117.397 514.732 108.821C516.139 117.388 520.5 125.17 527.037 130.784C533.574 136.398 541.865 139.479 550.433 139.479C559.002 139.479 567.292 136.398 573.829 130.784C580.367 125.17 584.727 117.388 586.134 108.821C587.541 117.388 591.902 125.17 598.439 130.784C604.976 136.398 613.267 139.479 621.835 139.479C630.404 139.479 638.694 136.398 645.231 130.784C651.769 125.17 656.129 117.388 657.536 108.821C658.927 117.397 663.28 125.193 669.817 130.818C676.354 136.444 684.65 139.532 693.225 139.532C701.8 139.532 710.096 136.444 716.633 130.818C723.17 125.193 727.523 117.397 728.914 108.821C730.406 117.908 735.215 126.094 742.385 131.755C749.556 137.415 758.564 140.136 767.623 139.377C776.681 138.619 785.126 134.436 791.283 127.659C797.439 120.882 800.856 112.006 800.856 102.794H729.454Z" fill="url(#paint2_linear_110_23)"/>
<path d="M755.548 18.0659H714.859H709.134H273.94L228.632 102.794H709.134H714.859H800.856L755.548 18.0659Z" fill="url(#paint3_linear_110_23)"/>
<mask id="mask0_110_23" style="mask-type:luminance" maskUnits="userSpaceOnUse" x="228" y="18" width="573" height="122">
<path d="M755.527 18.6616H273.645L228.358 102.956C228.319 112.081 231.719 120.884 237.878 127.609C244.038 134.335 252.505 138.488 261.588 139.24C270.672 139.992 279.705 137.287 286.885 131.665C294.064 126.044 298.862 117.919 300.321 108.912C301.729 117.378 306.092 125.07 312.633 130.618C319.174 136.166 327.47 139.211 336.044 139.211C344.618 139.211 352.913 136.166 359.455 130.618C365.996 125.07 370.359 117.378 371.767 108.912C373.175 117.378 377.538 125.07 384.079 130.618C390.621 136.166 398.916 139.211 407.49 139.211C416.064 139.211 424.36 136.166 430.901 130.618C437.442 125.07 441.805 117.378 443.213 108.912C444.605 117.388 448.961 125.093 455.501 130.652C462.042 136.211 470.344 139.263 478.924 139.263C487.505 139.263 495.806 136.211 502.347 130.652C508.888 125.093 513.243 117.388 514.635 108.912C516.043 117.378 520.406 125.07 526.948 130.618C533.489 136.166 541.785 139.211 550.358 139.211C558.932 139.211 567.228 136.166 573.769 130.618C580.311 125.07 584.674 117.378 586.082 108.912C587.49 117.378 591.853 125.07 598.394 130.618C604.936 136.166 613.231 139.211 621.805 139.211C630.379 139.211 638.674 136.166 645.216 130.618C651.757 125.07 656.12 117.378 657.528 108.912C658.92 117.388 663.275 125.093 669.816 130.652C676.357 136.211 684.659 139.263 693.239 139.263C701.819 139.263 710.121 136.211 716.662 130.652C723.203 125.093 727.558 117.388 728.95 108.912C730.443 117.893 735.255 125.983 742.43 131.577C749.605 137.172 758.619 139.861 767.683 139.111C776.746 138.361 785.197 134.227 791.357 127.529C797.518 120.832 800.937 112.06 800.937 102.956L755.527 18.6616Z" fill="white"/>
</mask>
<g mask="url(#mask0_110_23)">
<path style="mix-blend-mode:screen" opacity="0.3" d="M371.57 -8.50977H299.804V189.318H371.57V-8.50977Z" fill="url(#paint4_linear_110_23)"/>
<path style="mix-blend-mode:screen" opacity="0.3" d="M514.66 -8.50977H442.894V189.318H514.66V-8.50977Z" fill="url(#paint5_linear_110_23)"/>
<path style="mix-blend-mode:screen" opacity="0.3" d="M656.594 -8.50977H584.828V189.318H656.594V-8.50977Z" fill="url(#paint6_linear_110_23)"/>
<path style="mix-blend-mode:screen" opacity="0.3" d="M800.937 -8.50977H729.171V189.318H800.937V-8.50977Z" fill="url(#paint7_linear_110_23)"/>
</g>
<path opacity="0.4" d="M723.496 299.266C723.496 303.169 721.969 306.914 719.25 309.676C716.531 312.439 712.843 313.994 708.995 314.001H627.505C623.653 314.001 619.959 312.449 617.235 309.685C614.51 306.922 612.98 303.174 612.98 299.266C612.98 295.358 614.51 291.61 617.235 288.846C619.959 286.083 623.653 284.53 627.505 284.53H708.995C712.843 284.537 716.531 286.092 719.25 288.855C721.969 291.618 723.496 295.362 723.496 299.266Z" fill="white"/>
<path d="M643.679 306.385V291.898H650.708C652.516 291.898 653.873 292.243 654.777 292.933C655.695 293.623 656.154 294.534 656.154 295.665C656.154 296.424 655.969 297.086 655.599 297.652C655.229 298.204 654.722 298.631 654.078 298.935C653.434 299.239 652.694 299.39 651.859 299.39L652.249 298.542C653.153 298.542 653.955 298.694 654.654 298.997C655.352 299.287 655.894 299.721 656.277 300.301C656.674 300.88 656.873 301.591 656.873 302.433C656.873 303.674 656.387 304.647 655.414 305.351C654.441 306.041 653.009 306.385 651.119 306.385H643.679ZM646.988 303.861H650.872C651.735 303.861 652.386 303.723 652.824 303.447C653.277 303.157 653.503 302.702 653.503 302.081C653.503 301.474 653.277 301.025 652.824 300.736C652.386 300.432 651.735 300.28 650.872 300.28H646.741V297.838H650.297C651.105 297.838 651.722 297.7 652.146 297.424C652.585 297.134 652.804 296.7 652.804 296.12C652.804 295.555 652.585 295.134 652.146 294.858C651.722 294.568 651.105 294.423 650.297 294.423H646.988V303.861Z" fill="white"/>
<path d="M665.785 306.634C663.744 306.634 662.148 306.061 660.997 304.916C659.846 303.771 659.27 302.136 659.27 300.011V291.898H662.6V299.887C662.6 301.267 662.881 302.26 663.442 302.867C664.004 303.474 664.792 303.778 665.806 303.778C666.82 303.778 667.608 303.474 668.169 302.867C668.731 302.26 669.012 301.267 669.012 299.887V291.898H672.3V300.011C672.3 302.136 671.725 303.771 670.574 304.916C669.423 306.061 667.827 306.634 665.785 306.634Z" fill="white"/>
<path d="M678.966 306.385V300.466L679.726 302.495L673.396 291.898H676.931L681.781 300.032H679.747L684.617 291.898H687.885L681.555 302.495L682.295 300.466V306.385H678.966Z" fill="white"/>
<path opacity="0.4" d="M570.002 299.266C570.002 303.174 568.472 306.922 565.747 309.685C563.023 312.449 559.329 314.001 555.477 314.001H473.987C470.139 313.994 466.451 312.439 463.732 309.676C461.013 306.914 459.486 303.169 459.486 299.266C459.486 295.362 461.013 291.618 463.732 288.855C466.451 286.092 470.139 284.537 473.987 284.53H555.477C559.329 284.53 563.023 286.083 565.747 288.846C568.472 291.61 570.002 295.358 570.002 299.266Z" fill="white"/>
<path d="M490.185 306.385V291.898H497.214C499.022 291.898 500.379 292.243 501.283 292.933C502.201 293.623 502.66 294.534 502.66 295.665C502.66 296.424 502.475 297.086 502.105 297.652C501.735 298.204 501.228 298.631 500.584 298.935C499.94 299.239 499.201 299.39 498.365 299.39L498.755 298.542C499.66 298.542 500.461 298.694 501.16 298.997C501.859 299.287 502.4 299.721 502.783 300.301C503.181 300.88 503.379 301.591 503.379 302.433C503.379 303.674 502.893 304.647 501.92 305.351C500.947 306.041 499.516 306.385 497.625 306.385H490.185ZM493.494 303.861H497.378C498.241 303.861 498.892 303.723 499.331 303.447C499.783 303.157 500.009 302.702 500.009 302.081C500.009 301.474 499.783 301.025 499.331 300.736C498.892 300.432 498.241 300.28 497.378 300.28H493.247V297.838H496.803C497.611 297.838 498.228 297.7 498.653 297.424C499.091 297.134 499.31 296.7 499.31 296.12C499.31 295.555 499.091 295.134 498.653 294.858C498.228 294.568 497.611 294.423 496.803 294.423H493.494V303.861Z" fill="white"/>
<path d="M512.292 306.634C510.25 306.634 508.654 306.061 507.503 304.916C506.352 303.771 505.777 302.136 505.777 300.011V291.898H509.106V299.887C509.106 301.267 509.387 302.26 509.949 302.867C510.511 303.474 511.298 303.778 512.312 303.778C513.326 303.778 514.114 303.474 514.676 302.867C515.237 302.26 515.518 301.267 515.518 299.887V291.898H518.807V300.011C518.807 302.136 518.231 303.771 517.08 304.916C515.929 306.061 514.333 306.634 512.292 306.634Z" fill="white"/>
<path d="M525.472 306.385V300.466L526.232 302.495L519.902 291.898H523.437L528.287 300.032H526.253L531.124 291.898H534.391L528.061 302.495L528.801 300.466V306.385H525.472Z" fill="white"/>
<path opacity="0.4" d="M416.41 299.266C416.41 303.169 414.883 306.914 412.164 309.676C409.446 312.439 405.757 313.994 401.909 314.001H320.518C316.666 314.001 312.971 312.449 310.247 309.685C307.523 306.922 305.993 303.174 305.993 299.266C305.993 295.358 307.523 291.61 310.247 288.846C312.971 286.083 316.666 284.53 320.518 284.53H402.008C405.856 284.537 409.544 286.092 412.263 288.855C414.981 291.618 416.508 295.362 416.508 299.266H416.41Z" fill="white"/>
<path d="M336.692 306.385V291.898H343.72C345.529 291.898 346.885 292.243 347.79 292.933C348.708 293.623 349.166 294.534 349.166 295.665C349.166 296.424 348.982 297.086 348.612 297.652C348.242 298.204 347.735 298.631 347.091 298.935C346.447 299.239 345.707 299.39 344.871 299.39L345.262 298.542C346.166 298.542 346.967 298.694 347.666 298.997C348.365 299.287 348.906 299.721 349.29 300.301C349.687 300.88 349.886 301.591 349.886 302.433C349.886 303.674 349.399 304.647 348.427 305.351C347.454 306.041 346.022 306.385 344.131 306.385H336.692ZM340 303.861H343.885C344.748 303.861 345.399 303.723 345.837 303.447C346.289 303.157 346.515 302.702 346.515 302.081C346.515 301.474 346.289 301.025 345.837 300.736C345.399 300.432 344.748 300.28 343.885 300.28H339.754V297.838H343.309C344.118 297.838 344.734 297.7 345.159 297.424C345.597 297.134 345.817 296.7 345.817 296.12C345.817 295.555 345.597 295.134 345.159 294.858C344.734 294.568 344.118 294.423 343.309 294.423H340V303.861Z" fill="white"/>
<path d="M358.798 306.634C356.757 306.634 355.16 306.061 354.009 304.916C352.859 303.771 352.283 302.136 352.283 300.011V291.898H355.613V299.887C355.613 301.267 355.893 302.26 356.455 302.867C357.017 303.474 357.805 303.778 358.819 303.778C359.832 303.778 360.62 303.474 361.182 302.867C361.744 302.26 362.025 301.267 362.025 299.887V291.898H365.313V300.011C365.313 302.136 364.737 303.771 363.587 304.916C362.436 306.061 360.84 306.634 358.798 306.634Z" fill="white"/>
<path d="M371.978 306.385V300.466L372.739 302.495L366.409 291.898H369.944L374.794 300.032H372.759L377.63 291.898H380.898L374.568 302.495L375.308 300.466V306.385H371.978Z" fill="white"/>
<path d="M284.07 99.2735C284.07 110.665 280.696 121.8 274.374 131.272C268.052 140.743 259.066 148.125 248.553 152.484C238.04 156.844 226.471 157.984 215.31 155.762C204.15 153.54 193.898 148.054 185.852 139.999C177.805 131.945 172.326 121.682 170.106 110.51C167.886 99.3373 169.025 87.7569 173.38 77.2327C177.734 66.7086 185.109 57.7134 194.57 51.3848C204.032 45.0561 215.156 41.6782 226.535 41.6782C234.091 41.675 241.575 43.1626 248.556 46.0559C255.538 48.9492 261.882 53.1915 267.225 58.5403C272.569 63.8892 276.807 70.2397 279.697 77.2289C282.587 84.2181 284.073 91.709 284.07 99.2735Z" fill="#DC8208"/>
<mask id="mask1_110_23" style="mask-type:luminance" maskUnits="userSpaceOnUse" x="169" y="37" width="116" height="116">
<path d="M284.07 94.5952C284.07 105.986 280.696 117.122 274.374 126.593C268.052 136.065 259.066 143.447 248.553 147.806C238.04 152.165 226.471 153.306 215.31 151.084C204.15 148.861 193.898 143.376 185.852 135.321C177.805 127.266 172.326 117.004 170.106 105.831C167.886 94.6591 169.025 83.0786 173.38 72.5545C177.734 62.0303 185.109 53.0352 194.57 46.7065C204.032 40.3779 215.156 37 226.535 37C241.794 37 256.428 43.0681 267.218 53.8692C278.008 64.6704 284.07 79.32 284.07 94.5952Z" fill="white"/>
</mask>
<g mask="url(#mask1_110_23)">
<path d="M284.07 94.5952C284.07 105.986 280.696 117.122 274.374 126.593C268.052 136.065 259.066 143.447 248.553 147.806C238.04 152.165 226.471 153.306 215.31 151.084C204.15 148.861 193.898 143.376 185.852 135.321C177.805 127.266 172.326 117.004 170.106 105.831C167.886 94.6591 169.025 83.0786 173.38 72.5545C177.734 62.0303 185.109 53.0352 194.57 46.7065C204.032 40.3779 215.156 37 226.535 37C241.794 37 256.428 43.0681 267.218 53.8692C278.008 64.6704 284.07 79.32 284.07 94.5952Z" fill="url(#paint8_linear_110_23)"/>
<path style="mix-blend-mode:multiply" d="M271.341 94.5948C271.346 103.473 268.72 112.153 263.796 119.537C258.872 126.92 251.871 132.676 243.678 136.076C235.485 139.476 226.469 140.366 217.771 138.636C209.072 136.905 201.082 132.63 194.811 126.352C188.54 120.075 184.269 112.076 182.54 103.368C180.811 94.6607 181.701 85.6354 185.097 77.4341C188.494 69.2328 194.243 62.2241 201.619 57.2948C208.995 52.3654 217.666 49.7369 226.535 49.7417C238.418 49.7417 249.815 54.4673 258.218 62.8789C266.621 71.2905 271.341 82.699 271.341 94.5948Z" fill="url(#paint9_linear_110_23)"/>
<path d="M229.739 116.764V79.042H233.752V116.764H229.739ZM231.183 112.43C228.936 112.43 226.783 112.135 224.723 111.547C222.663 110.931 221.004 110.142 219.747 109.179L221.954 104.283C223.158 105.139 224.575 105.848 226.207 106.41C227.866 106.945 229.538 107.213 231.223 107.213C232.508 107.213 233.538 107.092 234.313 106.852C235.116 106.584 235.705 106.223 236.079 105.768C236.454 105.313 236.641 104.792 236.641 104.203C236.641 103.454 236.347 102.865 235.758 102.437C235.17 101.983 234.394 101.621 233.431 101.354C232.467 101.06 231.397 100.792 230.22 100.551C229.07 100.284 227.906 99.9627 226.729 99.5882C225.579 99.2136 224.522 98.7321 223.559 98.1435C222.596 97.555 221.806 96.7791 221.191 95.816C220.603 94.8529 220.308 93.6223 220.308 92.1241C220.308 90.519 220.736 89.0609 221.592 87.75C222.475 86.4124 223.786 85.3557 225.525 84.5798C227.291 83.7772 229.498 83.376 232.146 83.376C233.912 83.376 235.651 83.59 237.363 84.018C239.075 84.4193 240.587 85.0346 241.898 85.864L239.891 90.7999C238.581 90.0508 237.27 89.5024 235.959 89.1546C234.648 88.78 233.364 88.5928 232.106 88.5928C230.849 88.5928 229.819 88.7399 229.016 89.0342C228.214 89.3285 227.639 89.7164 227.291 90.1979C226.943 90.6527 226.769 91.1878 226.769 91.8031C226.769 92.5254 227.063 93.114 227.652 93.5688C228.241 93.9968 229.016 94.3446 229.979 94.6122C230.943 94.8797 231.999 95.1472 233.15 95.4147C234.327 95.6823 235.491 95.9899 236.641 96.3377C237.818 96.6855 238.888 97.1537 239.851 97.7422C240.814 98.3308 241.59 99.1066 242.179 100.07C242.794 101.033 243.102 102.25 243.102 103.721C243.102 105.3 242.66 106.745 241.777 108.055C240.895 109.366 239.57 110.423 237.805 111.226C236.066 112.028 233.859 112.43 231.183 112.43Z" fill="#FFA126"/>
</g>
<path d="M514.384 2.27148V14.3078" stroke="white" stroke-width="3" stroke-linecap="round" stroke-linejoin="round"/>
<path style="mix-blend-mode:multiply" opacity="0.4" d="M272.289 397.671C327.125 397.671 371.579 391.115 371.579 383.029C371.579 374.942 327.125 368.386 272.289 368.386C217.453 368.386 173 374.942 173 383.029C173 391.115 217.453 397.671 272.289 397.671Z" fill="url(#paint10_linear_110_23)"/>
<path d="M238.917 308.069C238.886 308.322 238.95 308.576 239.097 308.784C239.244 308.991 239.463 309.136 239.711 309.19C239.971 309.172 240.213 309.056 240.388 308.864C240.564 308.671 240.658 308.419 240.652 308.159C241.031 303.98 242.062 299.886 243.707 296.026C247.064 288.375 252.402 284.397 259.498 284.173C266.593 284.397 271.741 288.375 274.796 296.026C276.285 299.91 277.153 304.005 277.37 308.159C277.36 308.285 277.374 308.412 277.413 308.532C277.452 308.653 277.514 308.764 277.596 308.86C277.679 308.956 277.779 309.035 277.892 309.091C278.005 309.148 278.128 309.181 278.254 309.19C278.508 309.141 278.735 308.999 278.89 308.792C279.045 308.585 279.118 308.327 279.094 308.069C279.094 307.823 278.321 283.423 260.46 282.067C260.375 282.029 260.284 282.006 260.192 282H259.542H258.905C258.808 282.005 258.713 282.028 258.625 282.067C240.707 283.412 238.939 307.823 238.917 308.069Z" fill="#3E4992"/>
<path d="M290.162 301.045H264.142H235.626H215.471L200.251 384.183H238.671H267.175H305.595L290.162 301.045Z" fill="url(#paint11_linear_110_23)"/>
<path d="M300.514 301.045H274.483H245.979H219.948L210.603 384.183H249.023H277.527H315.947L300.514 301.045Z" fill="url(#paint12_linear_110_23)"/>
<path d="M245.273 308.069C245.268 308.332 245.355 308.587 245.518 308.792C245.682 308.997 245.912 309.137 246.169 309.19C246.65 309.19 247.019 308.753 246.997 308.159C246.994 304.037 247.651 299.94 248.944 296.026C251.608 288.375 256.554 284.397 263.627 284.173C270.734 284.397 276.262 288.375 280.034 296.026C281.863 299.863 283.108 303.953 283.727 308.159C283.746 308.419 283.855 308.663 284.034 308.852C284.214 309.04 284.453 309.159 284.712 309.19C284.833 309.164 284.948 309.115 285.051 309.045C285.153 308.975 285.241 308.885 285.308 308.781C285.376 308.677 285.422 308.561 285.445 308.438C285.467 308.316 285.465 308.191 285.439 308.069C285.439 307.823 282.384 283.423 264.388 282.067C264.3 282.028 264.205 282.005 264.108 282H263.471H262.821C262.729 282.006 262.638 282.029 262.553 282.067C244.759 283.412 245.262 307.823 245.273 308.069Z" fill="#3E4992"/>
<mask id="mask2_110_23" style="mask-type:luminance" maskUnits="userSpaceOnUse" x="210" y="301" width="106" height="84">
<path d="M300.514 301.045H274.483H245.979H219.948L210.603 384.183H249.023H277.527H315.947L300.514 301.045Z" fill="white"/>
</mask>
<g mask="url(#mask2_110_23)">
<g style="mix-blend-mode:screen" opacity="0.3">
<path d="M211.822 393.358C212.561 382.939 213.781 373.193 224.01 368.364C235.425 363.715 248.709 365.631 260.012 361.575C272.748 356.556 279.205 345.375 285.674 334.195C293.295 320.135 302.125 306.299 315.544 297.684C359.19 270.013 369.195 338.306 365.636 366.796C357.992 429.869 296.541 485.805 231.34 460.352C213.434 453.238 193.614 437.05 197.117 415.372C198.93 405.793 205.197 398.915 213.4 394.893C213.512 394.288 212.774 391.666 213.143 392.977" fill="url(#paint13_linear_110_23)"/>
</g>
</g>
<path d="M317.256 330.352C317.223 330.533 317.264 330.72 317.369 330.872C317.474 331.023 317.634 331.126 317.815 331.159C317.998 331.147 318.17 331.065 318.293 330.929C318.416 330.793 318.482 330.614 318.476 330.431C318.744 327.475 319.473 324.579 320.636 321.849C323.031 316.438 326.791 313.626 331.827 313.469C336.841 313.626 340.489 316.438 342.649 321.849C343.699 324.597 344.314 327.493 344.473 330.431C344.466 330.52 344.476 330.61 344.503 330.695C344.531 330.78 344.575 330.859 344.633 330.927C344.692 330.995 344.763 331.05 344.843 331.09C344.923 331.13 345.011 331.153 345.1 331.159C345.282 331.123 345.444 331.021 345.554 330.871C345.664 330.722 345.713 330.537 345.693 330.352C345.693 330.173 345.145 312.909 332.51 311.957C332.447 311.947 332.382 311.947 332.319 311.957H331.413C331.346 311.945 331.278 311.945 331.211 311.957C318.487 312.909 317.267 330.173 317.256 330.352Z" fill="#3E4992"/>
<path d="M353.493 325.378H335.084H314.928H300.67L289.904 384.183H317.077H337.244H364.416L353.493 325.378Z" fill="url(#paint14_linear_110_23)"/>
<path d="M360.813 325.378H342.403H322.247H303.838L297.223 384.183H324.396H344.563H371.735L360.813 325.378Z" fill="url(#paint15_linear_110_23)"/>
<path d="M321.744 330.352C321.735 330.541 321.795 330.727 321.912 330.875C322.029 331.023 322.196 331.124 322.381 331.159C322.717 331.159 322.986 330.856 322.963 330.431C322.963 327.515 323.428 324.618 324.34 321.849C326.22 316.438 329.723 313.626 334.725 313.469C339.762 313.626 343.679 316.438 346.331 321.849C347.628 324.562 348.507 327.455 348.938 330.431C348.946 330.616 349.02 330.792 349.148 330.926C349.276 331.06 349.448 331.143 349.632 331.159C349.72 331.142 349.804 331.107 349.878 331.057C349.953 331.007 350.016 330.942 350.065 330.867C350.114 330.792 350.148 330.707 350.164 330.619C350.18 330.531 350.178 330.44 350.158 330.352C350.158 330.173 347.987 312.909 335.263 311.957C335.2 311.945 335.135 311.945 335.072 311.957H334.155C334.096 311.945 334.035 311.945 333.976 311.957C321.385 312.909 321.732 330.173 321.744 330.352Z" fill="#3E4992"/>
<mask id="mask3_110_23" style="mask-type:luminance" maskUnits="userSpaceOnUse" x="297" y="325" width="75" height="60">
<path d="M360.813 325.378H342.403H322.247H303.838L297.223 384.183H324.396H344.563H371.735L360.813 325.378Z" fill="white"/>
</mask>
<g mask="url(#mask3_110_23)">
<g style="mix-blend-mode:screen" opacity="0.3">
<path d="M298.085 390.669C298.611 383.309 299.473 376.453 306.703 373.002C314.783 369.709 324.172 371.053 332.174 368.196C341.127 364.634 345.749 356.724 350.315 348.826C355.709 338.878 361.954 329.098 371.444 323.003C402.344 303.431 409.394 351.728 406.876 371.882C401.471 416.492 358.004 456.061 311.884 438.058C299.249 433.017 285.204 421.567 287.677 406.242C288.964 399.464 293.396 394.602 299.193 391.756C299.272 391.33 298.757 389.515 299.014 390.401" fill="url(#paint16_linear_110_23)"/>
</g>
</g>
<path d="M245.632 343.202H252.402" stroke="white" stroke-width="3" stroke-linecap="round" stroke-linejoin="round"/>
<path d="M249.023 339.819V346.585" stroke="white" stroke-width="3" stroke-linecap="round" stroke-linejoin="round"/>
<path d="M813.774 358.208C813.166 358.203 812.57 358.379 812.062 358.713C811.554 359.047 811.157 359.525 810.921 360.086C810.684 360.646 810.62 361.264 810.736 361.861C810.851 362.458 811.142 363.008 811.57 363.439C811.999 363.871 812.545 364.166 813.142 364.286C813.738 364.407 814.356 364.348 814.919 364.116C815.481 363.884 815.962 363.491 816.3 362.986C816.639 362.48 816.819 361.886 816.819 361.277C816.82 360.468 816.499 359.69 815.929 359.115C815.359 358.54 814.584 358.214 813.774 358.208Z" fill="white"/>
<path d="M327.021 13.0327C325.733 13.0366 324.472 12.6578 323.399 11.9442C322.326 11.2306 321.488 10.2142 320.993 9.02387C320.497 7.83351 320.365 6.52267 320.614 5.25731C320.863 3.99195 321.481 2.82898 322.391 1.91566C323.301 1.00234 324.46 0.379732 325.724 0.126678C326.987 -0.126376 328.297 0.00150266 329.488 0.494119C330.678 0.986736 331.696 1.82194 332.412 2.89397C333.128 3.96601 333.511 5.22667 333.511 6.51633C333.505 8.23952 332.821 9.89094 331.605 11.1113C330.39 12.3316 328.742 13.0222 327.021 13.0327ZM327.021 3.62681C326.449 3.62287 325.889 3.78897 325.412 4.10407C324.935 4.41916 324.562 4.86905 324.34 5.39668C324.119 5.92431 324.058 6.50591 324.168 7.06773C324.277 7.62955 324.55 8.14627 324.953 8.55237C325.356 8.95847 325.87 9.23566 326.431 9.34878C326.991 9.46189 327.572 9.40585 328.101 9.18775C328.63 8.96964 329.082 8.59931 329.4 8.12371C329.718 7.64811 329.888 7.08866 329.888 6.51633C329.901 6.13119 329.837 5.7473 329.699 5.38756C329.561 5.02783 329.351 4.69961 329.084 4.4225C328.816 4.14539 328.496 3.92506 328.141 3.77466C327.787 3.62426 327.406 3.54687 327.021 3.5471V3.62681Z" fill="white"/>
<path d="M668.28 364.764C668.283 368.036 667.641 371.276 666.392 374.3C665.143 377.323 663.311 380.071 661.001 382.385C658.691 384.7 655.948 386.536 652.928 387.789C649.909 389.041 646.673 389.686 643.404 389.686H503.958C500.692 389.686 497.458 389.042 494.441 387.79C491.424 386.539 488.683 384.704 486.375 382.391C484.067 380.079 482.236 377.333 480.988 374.312C479.741 371.291 479.1 368.054 479.102 364.784C479.102 358.186 481.721 351.857 486.382 347.191C491.044 342.525 497.366 339.903 503.958 339.903H643.404C649.998 339.903 656.322 342.524 660.987 347.19C665.651 351.855 668.274 358.184 668.28 364.784V364.764Z" fill="url(#paint17_linear_110_23)"/>
<path d="M664.553 360.993C664.553 367.594 661.935 373.925 657.275 378.594C652.614 383.263 646.292 385.889 639.698 385.895H500.252C496.985 385.895 493.75 385.251 490.732 383.999C487.714 382.748 484.972 380.913 482.662 378.601C480.352 376.289 478.52 373.544 477.269 370.522C476.019 367.501 475.376 364.263 475.376 360.993C475.381 354.392 478.005 348.064 482.669 343.398C487.334 338.733 493.658 336.112 500.252 336.112H639.698C646.289 336.117 652.607 338.74 657.268 343.405C661.928 348.07 664.548 354.396 664.553 360.993Z" fill="white"/>
<path d="M502.565 349.7L506.25 357.18L514.501 358.39L508.523 364.19L509.936 372.408L502.565 368.535L495.195 372.408L496.607 364.19L490.649 358.39L498.88 357.18L502.565 349.7Z" fill="url(#paint18_linear_110_23)"/>
<path d="M536.265 349.7L539.95 357.18L548.181 358.39L542.243 364.19L543.636 372.408L536.265 368.535L528.894 372.408L530.307 364.19L524.349 358.39L532.58 357.18L536.265 349.7Z" fill="url(#paint19_linear_110_23)"/>
<path d="M569.965 349.7L573.65 357.18L581.901 358.39L575.943 364.19L577.335 372.408L569.965 368.535L562.594 372.408L564.007 364.19L558.049 358.39L566.28 357.18L569.965 349.7Z" fill="url(#paint20_linear_110_23)"/>
<path opacity="0.3" d="M603.665 349.7L607.35 357.18L615.601 358.39L609.643 364.19L611.035 372.408L603.665 368.535L596.294 372.408L597.707 364.19L591.749 358.39L600 357.18L603.665 349.7Z" fill="#5566D8"/>
<path opacity="0.3" d="M637.364 349.7L641.05 357.18L649.301 358.39L643.343 364.19L644.735 372.408L637.364 368.535L630.014 372.408L631.406 364.19L625.449 358.39L633.7 357.18L637.364 349.7Z" fill="#5566D8"/>
<path style="mix-blend-mode:multiply" opacity="0.4" d="M625.92 391.522C625.92 395.621 603.071 399.064 574.878 399.064C546.686 399.064 523.837 395.682 523.837 391.522C523.837 387.361 546.686 384 574.878 384C603.071 384 625.92 387.382 625.92 391.522Z" fill="url(#paint21_linear_110_23)"/>
<path d="M490.67 411.903C489.345 411.907 488.049 411.517 486.945 410.783C485.841 410.049 484.98 409.004 484.47 407.78C483.96 406.556 483.825 405.207 484.081 403.906C484.337 402.605 484.973 401.409 485.908 400.469C486.844 399.53 488.037 398.89 489.336 398.629C490.635 398.369 491.982 398.501 493.207 399.007C494.431 399.514 495.478 400.373 496.215 401.475C496.951 402.578 497.345 403.875 497.345 405.201C497.339 406.973 496.635 408.672 495.385 409.927C494.135 411.182 492.44 411.892 490.67 411.903ZM490.67 402.229C490.083 402.229 489.509 402.403 489.021 402.73C488.533 403.056 488.152 403.521 487.927 404.064C487.703 404.607 487.644 405.204 487.758 405.781C487.873 406.357 488.156 406.887 488.571 407.302C488.986 407.718 489.515 408.001 490.091 408.116C490.667 408.23 491.264 408.171 491.806 407.947C492.349 407.722 492.812 407.341 493.138 406.852C493.465 406.363 493.639 405.789 493.639 405.201C493.639 404.413 493.326 403.657 492.769 403.1C492.213 402.542 491.457 402.229 490.67 402.229Z" fill="white"/>
<path d="M806.769 232.019L798.348 211.713C798.275 211.526 798.145 211.367 797.978 211.256C797.811 211.146 797.613 211.089 797.413 211.095C797.212 211.102 797.018 211.168 796.855 211.285C796.692 211.402 796.568 211.565 796.497 211.753L788.753 232.597C788.698 232.748 788.679 232.911 788.7 233.07C788.721 233.23 788.78 233.382 788.873 233.514C788.966 233.649 789.091 233.76 789.237 233.836C789.382 233.913 789.544 233.952 789.709 233.952L805.973 233.633C806.102 233.631 806.23 233.602 806.349 233.55C806.468 233.497 806.575 233.421 806.664 233.326C806.753 233.232 806.822 233.12 806.867 232.998C806.913 232.877 806.933 232.747 806.928 232.617C806.949 232.405 806.893 232.192 806.769 232.019Z" fill="url(#paint22_linear_110_23)"/>
<path d="M837.545 232.697H789.35C780.368 232.697 773.086 239.986 773.086 248.978V292.34C773.086 301.332 780.368 308.621 789.35 308.621H837.545C846.527 308.621 853.809 301.332 853.809 292.34V248.978C853.809 239.986 846.527 232.697 837.545 232.697Z" fill="#DC8208"/>
<path d="M837.545 228.094H789.35C780.368 228.094 773.086 235.383 773.086 244.375V287.737C773.086 296.729 780.368 304.018 789.35 304.018H837.545C846.527 304.018 853.809 296.729 853.809 287.737V244.375C853.809 235.383 846.527 228.094 837.545 228.094Z" fill="url(#paint23_linear_110_23)"/>
<path d="M795.89 284.788L825.084 241.991H832.352L803.158 284.788H795.89ZM799.616 265.101C797.539 265.101 795.707 264.633 794.119 263.695C792.531 262.717 791.269 261.351 790.332 259.599C789.437 257.805 788.989 255.706 788.989 253.302C788.989 250.897 789.437 248.818 790.332 247.066C791.269 245.313 792.531 243.947 794.119 242.969C795.707 241.991 797.539 241.502 799.616 241.502C801.692 241.502 803.525 241.991 805.112 242.969C806.7 243.947 807.942 245.313 808.838 247.066C809.734 248.818 810.182 250.897 810.182 253.302C810.182 255.706 809.734 257.805 808.838 259.599C807.942 261.351 806.7 262.717 805.112 263.695C803.525 264.633 801.692 265.101 799.616 265.101ZM799.616 260.088C800.959 260.088 802.038 259.538 802.853 258.437C803.667 257.296 804.074 255.584 804.074 253.302C804.074 251.019 803.667 249.328 802.853 248.227C802.038 247.086 800.959 246.515 799.616 246.515C798.313 246.515 797.234 247.086 796.379 248.227C795.565 249.328 795.157 251.019 795.157 253.302C795.157 255.543 795.565 257.235 796.379 258.376C797.234 259.517 798.313 260.088 799.616 260.088ZM828.626 285.277C826.59 285.277 824.758 284.808 823.129 283.871C821.541 282.892 820.3 281.527 819.404 279.774C818.508 277.981 818.06 275.882 818.06 273.477C818.06 271.072 818.508 268.994 819.404 267.241C820.3 265.488 821.541 264.123 823.129 263.145C824.758 262.167 826.59 261.678 828.626 261.678C830.743 261.678 832.596 262.167 834.184 263.145C835.772 264.123 837.014 265.488 837.909 267.241C838.805 268.994 839.253 271.072 839.253 273.477C839.253 275.882 838.805 277.981 837.909 279.774C837.014 281.527 835.772 282.892 834.184 283.871C832.596 284.808 830.743 285.277 828.626 285.277ZM828.626 280.264C829.97 280.264 831.049 279.713 831.863 278.613C832.677 277.472 833.084 275.76 833.084 273.477C833.084 271.235 832.677 269.544 831.863 268.403C831.049 267.261 829.97 266.691 828.626 266.691C827.323 266.691 826.244 267.261 825.389 268.403C824.575 269.503 824.168 271.195 824.168 273.477C824.168 275.76 824.575 277.472 825.389 278.613C826.244 279.713 827.323 280.264 828.626 280.264Z" fill="white"/>
<path d="M26.676 293.436C26.676 296.077 25.8938 298.659 24.4282 300.854C22.9626 303.05 20.8795 304.762 18.4423 305.772C16.0051 306.783 13.3232 307.047 10.7359 306.532C8.14859 306.017 5.77198 304.745 3.90662 302.878C2.04126 301.01 0.770943 298.631 0.256292 296.041C-0.258358 293.451 0.00577961 290.767 1.0153 288.327C2.02483 285.887 3.73439 283.802 5.92782 282.335C8.12125 280.868 10.7 280.084 13.338 280.084C15.0898 280.084 16.8246 280.429 18.4431 281.099C20.0617 281.77 21.5324 282.754 22.7711 283.994C24.0098 285.234 24.9922 286.706 25.6623 288.326C26.3323 289.946 26.6768 291.683 26.676 293.436Z" fill="#DC8208"/>
<mask id="mask4_110_23" style="mask-type:luminance" maskUnits="userSpaceOnUse" x="0" y="279" width="27" height="27">
<path d="M26.676 292.352C26.676 294.993 25.8938 297.574 24.4282 299.77C22.9626 301.966 20.8795 303.677 18.4423 304.688C16.0051 305.698 13.3232 305.963 10.7359 305.447C8.14859 304.932 5.77198 303.661 3.90662 301.793C2.04126 299.926 0.770943 297.547 0.256292 294.957C-0.258358 292.367 0.00577961 289.682 1.0153 287.242C2.02483 284.803 3.73439 282.717 5.92782 281.25C8.12125 279.783 10.7 279 13.338 279C16.8755 279 20.2681 280.407 22.7694 282.911C25.2708 285.415 26.676 288.811 26.676 292.352Z" fill="white"/>
</mask>
<g mask="url(#mask4_110_23)">
<path d="M26.676 292.352C26.676 294.993 25.8938 297.574 24.4282 299.77C22.9626 301.966 20.8795 303.677 18.4423 304.688C16.0051 305.698 13.3232 305.963 10.7359 305.447C8.14859 304.932 5.77198 303.661 3.90662 301.793C2.04126 299.926 0.770943 297.547 0.256292 294.957C-0.258358 292.367 0.00577961 289.682 1.0153 287.242C2.02483 284.803 3.73439 282.717 5.92782 281.25C8.12125 279.783 10.7 279 13.338 279C16.8755 279 20.2681 280.407 22.7694 282.911C25.2708 285.415 26.676 288.811 26.676 292.352Z" fill="url(#paint24_linear_110_23)"/>
<path style="mix-blend-mode:multiply" d="M23.7252 292.352C23.7263 294.41 23.1176 296.423 21.976 298.134C20.8345 299.846 19.2114 301.18 17.3121 301.969C15.4128 302.757 13.3227 302.963 11.3062 302.562C9.28965 302.161 7.43731 301.17 5.98351 299.714C4.52971 298.259 3.53977 296.405 3.13894 294.386C2.73811 292.367 2.9444 290.275 3.73171 288.374C4.51901 286.473 5.85196 284.848 7.56191 283.705C9.27187 282.562 11.282 281.953 13.338 281.954C16.0928 281.954 18.7349 283.05 20.6828 285C22.6308 286.95 23.7252 289.594 23.7252 292.352Z" fill="url(#paint25_linear_110_23)"/>
<path d="M14.0807 297.491V288.747H15.011V297.491H14.0807ZM14.4156 296.487C13.8946 296.487 13.3954 296.418 12.9178 296.282C12.4403 296.139 12.0557 295.956 11.7643 295.733L12.2759 294.598C12.555 294.797 12.8837 294.961 13.262 295.091C13.6465 295.215 14.0342 295.277 14.4249 295.277C14.7226 295.277 14.9614 295.249 15.1412 295.194C15.3273 295.132 15.4637 295.048 15.5506 294.942C15.6374 294.837 15.6808 294.716 15.6808 294.58C15.6808 294.406 15.6126 294.269 15.4761 294.17C15.3397 294.065 15.1598 293.981 14.9366 293.919C14.7133 293.851 14.4652 293.789 14.1923 293.733C13.9256 293.671 13.6559 293.597 13.383 293.51C13.1163 293.423 12.8713 293.311 12.648 293.175C12.4248 293.038 12.2418 292.858 12.0992 292.635C11.9627 292.412 11.8945 292.127 11.8945 291.779C11.8945 291.407 11.9937 291.069 12.1922 290.765C12.3969 290.455 12.7007 290.21 13.1039 290.03C13.5132 289.844 14.0249 289.751 14.6389 289.751C15.0482 289.751 15.4513 289.801 15.8482 289.9C16.2452 289.993 16.5956 290.136 16.8995 290.328L16.4343 291.472C16.1304 291.299 15.8265 291.172 15.5226 291.091C15.2187 291.004 14.9211 290.961 14.6296 290.961C14.3381 290.961 14.0993 290.995 13.9132 291.063C13.7272 291.131 13.5938 291.221 13.5132 291.333C13.4326 291.438 13.3923 291.562 13.3923 291.705C13.3923 291.872 13.4605 292.009 13.5969 292.114C13.7334 292.213 13.9132 292.294 14.1365 292.356C14.3598 292.418 14.6048 292.48 14.8714 292.542C15.1443 292.604 15.4141 292.676 15.6808 292.756C15.9537 292.837 16.2018 292.945 16.425 293.082C16.6483 293.218 16.8282 293.398 16.9646 293.621C17.1072 293.845 17.1786 294.127 17.1786 294.468C17.1786 294.834 17.0762 295.169 16.8716 295.473C16.6669 295.777 16.3599 296.021 15.9506 296.208C15.5475 296.394 15.0358 296.487 14.4156 296.487Z" fill="#FFA126"/>
</g>
<path d="M1031.68 123.436C1031.68 126.077 1030.89 128.659 1029.43 130.854C1027.96 133.05 1025.88 134.762 1023.44 135.772C1021.01 136.783 1018.32 137.047 1015.74 136.532C1013.15 136.017 1010.77 134.745 1008.91 132.878C1007.04 131.01 1005.77 128.631 1005.26 126.041C1004.74 123.451 1005.01 120.767 1006.02 118.327C1007.02 115.887 1008.73 113.802 1010.93 112.335C1013.12 110.868 1015.7 110.084 1018.34 110.084C1020.09 110.084 1021.82 110.429 1023.44 111.099C1025.06 111.77 1026.53 112.754 1027.77 113.994C1029.01 115.234 1029.99 116.706 1030.66 118.326C1031.33 119.946 1031.68 121.683 1031.68 123.436Z" fill="#DC8208"/>
<mask id="mask5_110_23" style="mask-type:luminance" maskUnits="userSpaceOnUse" x="1005" y="109" width="27" height="27">
<path d="M1031.68 122.352C1031.68 124.993 1030.89 127.574 1029.43 129.77C1027.96 131.966 1025.88 133.677 1023.44 134.688C1021.01 135.698 1018.32 135.963 1015.74 135.447C1013.15 134.932 1010.77 133.661 1008.91 131.793C1007.04 129.926 1005.77 127.547 1005.26 124.957C1004.74 122.367 1005.01 119.682 1006.02 117.242C1007.02 114.803 1008.73 112.717 1010.93 111.25C1013.12 109.783 1015.7 109 1018.34 109C1021.88 109 1025.27 110.407 1027.77 112.911C1030.27 115.415 1031.68 118.811 1031.68 122.352Z" fill="white"/>
</mask>
<g mask="url(#mask5_110_23)">
<path d="M1031.68 122.352C1031.68 124.993 1030.89 127.574 1029.43 129.77C1027.96 131.966 1025.88 133.677 1023.44 134.688C1021.01 135.698 1018.32 135.963 1015.74 135.447C1013.15 134.932 1010.77 133.661 1008.91 131.793C1007.04 129.926 1005.77 127.547 1005.26 124.957C1004.74 122.367 1005.01 119.682 1006.02 117.242C1007.02 114.803 1008.73 112.717 1010.93 111.25C1013.12 109.783 1015.7 109 1018.34 109C1021.88 109 1025.27 110.407 1027.77 112.911C1030.27 115.415 1031.68 118.811 1031.68 122.352Z" fill="url(#paint26_linear_110_23)"/>
<path style="mix-blend-mode:multiply" d="M1028.73 122.352C1028.73 124.41 1028.12 126.423 1026.98 128.134C1025.83 129.846 1024.21 131.18 1022.31 131.969C1020.41 132.757 1018.32 132.963 1016.31 132.562C1014.29 132.161 1012.44 131.17 1010.98 129.714C1009.53 128.259 1008.54 126.405 1008.14 124.386C1007.74 122.367 1007.94 120.275 1008.73 118.374C1009.52 116.473 1010.85 114.848 1012.56 113.705C1014.27 112.562 1016.28 111.953 1018.34 111.954C1021.09 111.954 1023.73 113.05 1025.68 115C1027.63 116.95 1028.73 119.594 1028.73 122.352Z" fill="url(#paint27_linear_110_23)"/>
<path d="M1019.08 127.491V118.747H1020.01V127.491H1019.08ZM1019.42 126.487C1018.89 126.487 1018.4 126.418 1017.92 126.282C1017.44 126.139 1017.06 125.956 1016.76 125.733L1017.28 124.598C1017.55 124.797 1017.88 124.961 1018.26 125.091C1018.65 125.215 1019.03 125.277 1019.42 125.277C1019.72 125.277 1019.96 125.249 1020.14 125.194C1020.33 125.132 1020.46 125.048 1020.55 124.942C1020.64 124.837 1020.68 124.716 1020.68 124.58C1020.68 124.406 1020.61 124.269 1020.48 124.17C1020.34 124.065 1020.16 123.981 1019.94 123.919C1019.71 123.851 1019.47 123.789 1019.19 123.733C1018.93 123.671 1018.66 123.597 1018.38 123.51C1018.12 123.423 1017.87 123.311 1017.65 123.175C1017.42 123.038 1017.24 122.858 1017.1 122.635C1016.96 122.412 1016.89 122.127 1016.89 121.779C1016.89 121.407 1016.99 121.069 1017.19 120.765C1017.4 120.455 1017.7 120.21 1018.1 120.03C1018.51 119.844 1019.02 119.751 1019.64 119.751C1020.05 119.751 1020.45 119.801 1020.85 119.9C1021.25 119.993 1021.6 120.136 1021.9 120.328L1021.43 121.472C1021.13 121.299 1020.83 121.172 1020.52 121.091C1020.22 121.004 1019.92 120.961 1019.63 120.961C1019.34 120.961 1019.1 120.995 1018.91 121.063C1018.73 121.131 1018.59 121.221 1018.51 121.333C1018.43 121.438 1018.39 121.562 1018.39 121.705C1018.39 121.872 1018.46 122.009 1018.6 122.114C1018.73 122.213 1018.91 122.294 1019.14 122.356C1019.36 122.418 1019.6 122.48 1019.87 122.542C1020.14 122.604 1020.41 122.676 1020.68 122.756C1020.95 122.837 1021.2 122.945 1021.43 123.082C1021.65 123.218 1021.83 123.398 1021.96 123.621C1022.11 123.845 1022.18 124.127 1022.18 124.468C1022.18 124.834 1022.08 125.169 1021.87 125.473C1021.67 125.777 1021.36 126.021 1020.95 126.208C1020.55 126.394 1020.04 126.487 1019.42 126.487Z" fill="#FFA126"/>
</g>
<defs>
<linearGradient id="paint0_linear_110_23" x1="250.858" y1="185.681" x2="787.373" y2="185.681" gradientUnits="userSpaceOnUse">
<stop stop-color="#F185DE"/>
<stop offset="0.31" stop-color="#D97AE3"/>
<stop offset="0.96" stop-color="#9A5EF0"/>
<stop offset="1" stop-color="#965CF1"/>
</linearGradient>
<linearGradient id="paint1_linear_110_23" x1="514.806" y1="293.911" x2="514.806" y2="78.0888" gradientUnits="userSpaceOnUse">
<stop stop-color="#FFB9BF"/>
<stop offset="0.19" stop-color="#FCA1B9"/>
<stop offset="0.74" stop-color="#F562A8"/>
<stop offset="0.99" stop-color="#F24AA1"/>
</linearGradient>
<linearGradient id="paint2_linear_110_23" x1="228.633" y1="121.148" x2="800.856" y2="121.148" gradientUnits="userSpaceOnUse">
<stop stop-color="#595AD3"/>
<stop offset="0.36" stop-color="#5172DE"/>
<stop offset="1" stop-color="#3FA6F5"/>
</linearGradient>
<linearGradient id="paint3_linear_110_23" x1="228.632" y1="60.4178" x2="800.856" y2="60.4178" gradientUnits="userSpaceOnUse">
<stop stop-color="#3FA6F5"/>
<stop offset="0.64" stop-color="#5172DE"/>
<stop offset="1" stop-color="#595AD3"/>
</linearGradient>
<linearGradient id="paint4_linear_110_23" x1="381.011" y1="155.797" x2="282.824" y2="14.4261" gradientUnits="userSpaceOnUse">
<stop stop-color="#FDDFDF"/>
<stop offset="0.47" stop-color="#FDC5DB"/>
<stop offset="0.99" stop-color="#FDADD8"/>
</linearGradient>
<linearGradient id="paint5_linear_110_23" x1="524.076" y1="155.797" x2="425.914" y2="14.4261" gradientUnits="userSpaceOnUse">
<stop stop-color="#FDDFDF"/>
<stop offset="0.47" stop-color="#FDC5DB"/>
<stop offset="0.99" stop-color="#FDADD8"/>
</linearGradient>
<linearGradient id="paint6_linear_110_23" x1="666.035" y1="155.797" x2="567.848" y2="14.4261" gradientUnits="userSpaceOnUse">
<stop stop-color="#FDDFDF"/>
<stop offset="0.47" stop-color="#FDC5DB"/>
<stop offset="0.99" stop-color="#FDADD8"/>
</linearGradient>
<linearGradient id="paint7_linear_110_23" x1="810.378" y1="155.797" x2="712.191" y2="14.4261" gradientUnits="userSpaceOnUse">
<stop stop-color="#FDDFDF"/>
<stop offset="0.47" stop-color="#FDC5DB"/>
<stop offset="0.99" stop-color="#FDADD8"/>
</linearGradient>
<linearGradient id="paint8_linear_110_23" x1="169" y1="94.5952" x2="284.07" y2="94.5952" gradientUnits="userSpaceOnUse">
<stop offset="0.01" stop-color="#FFEC95"/>
<stop offset="1" stop-color="#FFC255"/>
</linearGradient>
<linearGradient id="paint9_linear_110_23" x1="181.705" y1="94.5948" x2="271.341" y2="94.5948" gradientUnits="userSpaceOnUse">
<stop offset="0.01" stop-color="#FFEC95"/>
<stop offset="1" stop-color="#FFC255"/>
</linearGradient>
<linearGradient id="paint10_linear_110_23" x1="173" y1="383.029" x2="371.59" y2="383.029" gradientUnits="userSpaceOnUse">
<stop stop-color="#FDDFDF"/>
<stop offset="0.47" stop-color="#FDC5DB"/>
<stop offset="0.99" stop-color="#FDADD8"/>
</linearGradient>
<linearGradient id="paint11_linear_110_23" x1="253.847" y1="384.172" x2="253.847" y2="301.045" gradientUnits="userSpaceOnUse">
<stop stop-color="#F185DE"/>
<stop offset="0.31" stop-color="#D97AE3"/>
<stop offset="0.96" stop-color="#9A5EF0"/>
<stop offset="1" stop-color="#965CF1"/>
</linearGradient>
<linearGradient id="paint12_linear_110_23" x1="209.861" y1="342.609" x2="315.048" y2="338.406" gradientUnits="userSpaceOnUse">
<stop stop-color="#965CF1"/>
<stop offset="0.04" stop-color="#9A5EF0"/>
<stop offset="0.69" stop-color="#D97AE3"/>
<stop offset="1" stop-color="#F185DE"/>
</linearGradient>
<linearGradient id="paint13_linear_110_23" x1="285.226" y1="379.354" x2="259.622" y2="348.292" gradientUnits="userSpaceOnUse">
<stop stop-opacity="0"/>
<stop offset="0.04" stop-color="#0C0C0C" stop-opacity="0.05"/>
<stop offset="0.31" stop-color="#616161" stop-opacity="0.38"/>
<stop offset="0.56" stop-color="#A5A5A5" stop-opacity="0.65"/>
<stop offset="0.76" stop-color="#D6D6D6" stop-opacity="0.84"/>
<stop offset="0.91" stop-color="#F4F4F4" stop-opacity="0.96"/>
<stop offset="1" stop-color="white"/>
</linearGradient>
<linearGradient id="paint14_linear_110_23" x1="328.079" y1="384.171" x2="328.079" y2="325.378" gradientUnits="userSpaceOnUse">
<stop stop-color="#1E8DF3"/>
<stop offset="0.59" stop-color="#0BB7E6"/>
<stop offset="1" stop-color="#00CFDE"/>
</linearGradient>
<linearGradient id="paint15_linear_110_23" x1="296.967" y1="354.775" x2="371.36" y2="351.802" gradientUnits="userSpaceOnUse">
<stop stop-color="#1E8DF3"/>
<stop offset="0.59" stop-color="#0BB7E6"/>
<stop offset="1" stop-color="#00CFDE"/>
</linearGradient>
<linearGradient id="paint16_linear_110_23" x1="350.002" y1="380.766" x2="331.894" y2="358.793" gradientUnits="userSpaceOnUse">
<stop stop-opacity="0"/>
<stop offset="0.04" stop-color="#0C0C0C" stop-opacity="0.05"/>
<stop offset="0.31" stop-color="#616161" stop-opacity="0.38"/>
<stop offset="0.56" stop-color="#A5A5A5" stop-opacity="0.65"/>
<stop offset="0.76" stop-color="#D6D6D6" stop-opacity="0.84"/>
<stop offset="0.91" stop-color="#F4F4F4" stop-opacity="0.96"/>
<stop offset="1" stop-color="white"/>
</linearGradient>
<linearGradient id="paint17_linear_110_23" x1="479.102" y1="364.784" x2="668.28" y2="364.784" gradientUnits="userSpaceOnUse">
<stop stop-color="#F185DE"/>
<stop offset="0.31" stop-color="#D97AE3"/>
<stop offset="0.96" stop-color="#9A5EF0"/>
<stop offset="1" stop-color="#965CF1"/>
</linearGradient>
<linearGradient id="paint18_linear_110_23" x1="490.649" y1="361.054" x2="514.501" y2="361.054" gradientUnits="userSpaceOnUse">
<stop offset="0.01" stop-color="#FFEC95"/>
<stop offset="1" stop-color="#FFC255"/>
</linearGradient>
<linearGradient id="paint19_linear_110_23" x1="524.349" y1="361.054" x2="548.181" y2="361.054" gradientUnits="userSpaceOnUse">
<stop offset="0.01" stop-color="#FFEC95"/>
<stop offset="1" stop-color="#FFC255"/>
</linearGradient>
<linearGradient id="paint20_linear_110_23" x1="558.049" y1="361.054" x2="581.901" y2="361.054" gradientUnits="userSpaceOnUse">
<stop offset="0.01" stop-color="#FFEC95"/>
<stop offset="1" stop-color="#FFC255"/>
</linearGradient>
<linearGradient id="paint21_linear_110_23" x1="523.837" y1="391.522" x2="625.92" y2="391.522" gradientUnits="userSpaceOnUse">
<stop stop-color="#FDDFDF"/>
<stop offset="0.47" stop-color="#FDC5DB"/>
<stop offset="0.99" stop-color="#FDADD8"/>
</linearGradient>
<linearGradient id="paint22_linear_110_23" x1="788.377" y1="222.773" x2="806.682" y2="222.189" gradientUnits="userSpaceOnUse">
<stop offset="0.01" stop-color="#FFEC95"/>
<stop offset="1" stop-color="#FFC255"/>
</linearGradient>
<linearGradient id="paint23_linear_110_23" x1="773.086" y1="266.056" x2="853.809" y2="266.056" gradientUnits="userSpaceOnUse">
<stop offset="0.01" stop-color="#FFEC95"/>
<stop offset="1" stop-color="#FFC255"/>
</linearGradient>
<linearGradient id="paint24_linear_110_23" x1="6.0003e-06" y1="292.352" x2="26.676" y2="292.352" gradientUnits="userSpaceOnUse">
<stop offset="0.01" stop-color="#FFEC95"/>
<stop offset="1" stop-color="#FFC255"/>
</linearGradient>
<linearGradient id="paint25_linear_110_23" x1="2.94516" y1="292.352" x2="23.7252" y2="292.352" gradientUnits="userSpaceOnUse">
<stop offset="0.01" stop-color="#FFEC95"/>
<stop offset="1" stop-color="#FFC255"/>
</linearGradient>
<linearGradient id="paint26_linear_110_23" x1="1005" y1="122.352" x2="1031.68" y2="122.352" gradientUnits="userSpaceOnUse">
<stop offset="0.01" stop-color="#FFEC95"/>
<stop offset="1" stop-color="#FFC255"/>
</linearGradient>
<linearGradient id="paint27_linear_110_23" x1="1007.95" y1="122.352" x2="1028.73" y2="122.352" gradientUnits="userSpaceOnUse">
<stop offset="0.01" stop-color="#FFEC95"/>
<stop offset="1" stop-color="#FFC255"/>
</linearGradient>
</defs>
</svg>
