<svg width="79" height="78" viewBox="0 0 79 78" fill="none" xmlns="http://www.w3.org/2000/svg">
<rect x="0.304688" width="78" height="78" rx="10" fill="#807EE1"/>
<path d="M40.3945 16.8398C35.0477 16.8398 29.92 18.9638 26.1392 22.7446C22.3585 26.5253 20.2345 31.6531 20.2345 36.9998C20.2346 39.6473 20.7562 42.2688 21.7695 44.7147C22.7827 47.1605 24.2678 49.3829 26.14 51.2548C28.0121 53.1267 30.2346 54.6116 32.6806 55.6246C35.1265 56.6376 37.7481 57.1589 40.3955 57.1588C43.043 57.1587 45.6645 56.6371 48.1104 55.6238C50.5562 54.6105 52.7786 53.1255 54.6505 51.2533C56.5224 49.3812 58.0073 47.1587 59.0203 44.7127C60.0333 42.2667 60.5546 39.6452 60.5545 36.9977C60.5545 25.8656 51.5266 16.8398 40.3945 16.8398ZM40.3945 52.9577C38.2833 52.982 36.1883 52.5871 34.2309 51.7959C32.2734 51.0048 30.4924 49.8331 28.9909 48.3488C27.4895 46.8644 26.2974 45.0969 25.4839 43.1487C24.6703 41.2004 24.2514 39.1101 24.2514 36.9988C24.2514 34.8875 24.6703 32.7972 25.4839 30.8489C26.2974 28.9006 27.4895 27.1332 28.9909 25.6488C30.4924 24.1645 32.2734 22.9928 34.2309 22.2017C36.1883 21.4105 38.2833 21.0156 40.3945 21.0398C42.5057 21.0156 44.6006 21.4105 46.5581 22.2017C48.5156 22.9928 50.2966 24.1645 51.7981 25.6488C53.2995 27.1332 54.4916 28.9006 55.3051 30.8489C56.1187 32.7972 56.5376 34.8875 56.5376 36.9988C56.5376 39.1101 56.1187 41.2004 55.3051 43.1487C54.4916 45.0969 53.2995 46.8644 51.7981 48.3488C50.2966 49.8331 48.5156 51.0048 46.5581 51.7959C44.6006 52.5871 42.5057 52.982 40.3945 52.9577ZM35.1466 36.4748C36.8854 36.4748 38.2945 34.8305 38.2945 32.7998C38.2945 30.7691 36.8833 29.1248 35.1445 29.1248C33.4057 29.1248 31.9945 30.7691 31.9945 32.7998C31.9945 34.8305 33.4057 36.4748 35.1466 36.4748ZM45.6445 36.4748C47.3854 36.4748 48.7945 34.8305 48.7945 32.7998C48.7945 30.7691 47.3833 29.1248 45.6445 29.1248C43.9057 29.1248 42.4945 30.7712 42.4945 32.7998C42.4945 34.8284 43.9057 36.4748 45.6445 36.4748ZM49.5106 39.8054C49.14 39.6185 48.7108 39.5841 48.3151 39.7097C47.9195 39.8353 47.5887 40.1109 47.3938 40.4774C47.3224 40.616 45.5689 43.8227 40.3966 43.8227C35.2495 43.8227 33.4855 40.6454 33.3973 40.4795C33.2085 40.1067 32.8793 39.8241 32.4821 39.6939C32.0849 39.5637 31.6523 39.5967 31.2794 39.7855C30.9066 39.9743 30.624 40.3035 30.4938 40.7007C30.3636 41.0979 30.3966 41.5305 30.5854 41.9033C30.6904 42.1112 33.2062 46.9727 40.3966 46.9727C47.5891 46.9727 50.1007 42.1091 50.2036 41.9012C50.3886 41.5313 50.4196 41.1031 50.2897 40.7103C50.1599 40.3175 49.8797 39.9922 49.5106 39.8054Z" fill="white"/>
</svg>
