<svg width="187" height="206" viewBox="0 0 187 206" fill="none" xmlns="http://www.w3.org/2000/svg">
<g clip-path="url(#clip0_5_1610)">
<path d="M92.2007 185.569C92.2007 185.569 18.6206 180.141 9.77351 144.063C0.926376 107.985 20.5348 103.077 27.2311 82.8693C33.9273 62.6619 3.5598 50.7442 23.8829 23.2491C44.2061 -4.24611 74.1844 -4.72542 86.8166 8.22389C99.4489 21.1732 114.016 0.310744 137.459 12.0618C160.903 23.8128 166.648 47.5534 159.235 66.1015C151.822 84.6496 182.223 102.383 186.032 123.41C189.841 144.436 155.438 194.84 92.2007 185.569Z" fill="#C9EDF9"/>
<path d="M17.6476 205.701H61.7387L65.3941 195.833C66.0391 194.104 67.0197 192.519 68.279 191.172C69.5384 189.825 71.0516 188.742 72.7311 187.985C75.9255 186.536 80.2228 183.905 84.388 179.216C92.4954 170.086 96.7927 160.301 96.7927 160.301L69.4683 160.168C69.4683 160.168 71.9276 144.84 58.3462 124.483C56.8952 122.302 56.2293 119.69 56.4582 117.078L57.7453 102.232C57.7453 102.232 66.9748 91.8894 61.3119 79.0587C61.3119 79.0587 55.8983 71.5416 53.7497 74.2931C53.7497 74.2931 37.3949 113.348 35.9063 119.155C34.4178 124.963 32.4319 128.612 34.4166 146.863C34.9424 151.694 35.1313 155.723 35.1245 159.037C35.1105 165.397 33.6964 171.675 30.9832 177.424L17.6476 205.701Z" fill="#FFC0BB"/>
<g style="mix-blend-mode:multiply" opacity="0.2">
<path d="M58.7707 180.365C54.6738 175.809 48.9927 176.528 43.0145 174.45C37.0364 172.372 35.1222 157.387 35.1222 157.387C35.1313 157.953 35.1355 158.501 35.1347 159.031C35.1207 165.391 33.7066 171.67 30.9934 177.418L17.6476 205.699H61.7387L65.3941 195.831C66.0391 194.101 67.0197 192.517 68.279 191.17C69.5384 189.823 71.0516 188.74 72.7311 187.983C75.4498 186.749 78.9664 184.659 82.5182 181.174C70.3799 186.287 62.8631 184.922 58.7707 180.365Z" fill="#FFC0BB"/>
</g>
<path d="M94.842 30.1147C94.7961 29.916 94.711 29.7286 94.5917 29.5634C94.4724 29.3983 94.3213 29.2588 94.1473 29.1532C93.9733 29.0475 93.78 28.9779 93.5788 28.9484C93.3776 28.919 93.1725 28.9302 92.9757 28.9815C92.7956 28.5944 92.5092 28.2669 92.1499 28.0375C91.7907 27.808 91.3736 27.6862 90.9477 27.6862C90.7216 27.6865 90.4968 27.7207 90.2808 27.7878C90.0118 27.3403 89.6219 26.9784 89.1564 26.7438C88.6908 26.5092 88.1685 26.4116 87.65 26.4622C87.1314 26.5129 86.6377 26.7096 86.226 27.0298C85.8143 27.35 85.5014 27.7806 85.3235 28.2717C85.0352 28.1108 84.7101 28.0283 84.3803 28.0322C84.0504 28.0362 83.7273 28.1264 83.443 28.2941C83.1587 28.4617 82.9229 28.701 82.7591 28.9881C82.5953 29.2752 82.5091 29.6002 82.5091 29.931C82.5091 29.9926 82.5091 30.0542 82.5182 30.1147H94.842Z" fill="white"/>
<path d="M137.463 23.2038C137.343 22.685 137.121 22.1955 136.81 21.7642C136.498 21.3329 136.104 20.9686 135.65 20.6926C135.196 20.4167 134.691 20.2348 134.166 20.1577C133.64 20.0805 133.105 20.1097 132.591 20.2435C131.991 18.96 130.949 17.9375 129.656 17.3648C128.363 16.7922 126.907 16.7081 125.557 17.128C124.854 15.9598 123.836 15.0147 122.621 14.4022C121.405 13.7897 120.041 13.5347 118.687 13.6667C117.333 13.7988 116.044 14.3124 114.969 15.1483C113.894 15.9841 113.076 17.1081 112.611 18.3902C111.859 17.9702 111.009 17.7547 110.148 17.7652C109.286 17.7757 108.443 18.0117 107.7 18.45C106.958 18.8882 106.342 19.5134 105.915 20.2636C105.488 21.0137 105.263 21.8629 105.264 22.7268C105.264 22.8876 105.272 23.0484 105.288 23.2084L137.463 23.2038Z" fill="white"/>
<path d="M50.1751 53.6067C50.0751 53.1722 49.8894 52.7622 49.6288 52.4009C49.3682 52.0397 49.038 51.7344 48.6578 51.5032C48.2776 51.2721 47.855 51.1197 47.4151 51.055C46.9751 50.9904 46.5267 51.0148 46.0963 51.1268C45.5953 50.0519 44.7228 49.1954 43.6404 48.716C42.558 48.2366 41.3391 48.1666 40.2093 48.5192C39.6213 47.5413 38.7694 46.7503 37.752 46.2377C36.7346 45.725 35.5932 45.5116 34.4599 45.6222C33.3266 45.7327 32.2477 46.1627 31.3479 46.8623C30.448 47.562 29.7641 48.5028 29.3751 49.5759C28.7454 49.2252 28.0354 49.0455 27.3152 49.0544C26.595 49.0634 25.8896 49.2607 25.2688 49.627C24.648 49.9932 24.1333 50.5157 23.7757 51.1426C23.418 51.7696 23.2298 52.4793 23.2297 53.2015C23.2297 53.3373 23.2365 53.472 23.249 53.6044L50.1751 53.6067Z" fill="white"/>
<path d="M39.2738 28.7695C49.4103 44.8081 74.3938 59.1006 74.3938 59.1006C74.3938 59.1006 54.5338 57.4835 44.6818 44.613L48.2564 41.6458C48.2564 41.6458 45.4113 41.9208 43.0362 42.197C40.8397 38.5497 39.4195 34.1275 39.2738 28.7695Z" fill="#E6A748"/>
<path d="M65.8698 35.4032C64.3289 36.105 62.0483 37.1732 62.0483 37.1732L64.2458 34.0075C61.6864 32.0115 58.8709 30.6809 56.0804 29.8101C54.9492 31.4614 53.62 33.3068 53.62 33.3068L53.3559 29.0934C45.8767 27.4786 39.2738 28.7705 39.2738 28.7705C49.4103 44.809 74.3938 59.1015 74.3938 59.1015C74.28 47.3174 70.7019 39.9589 65.8698 35.4032Z" fill="#FFCB83"/>
<path d="M35.5524 51.4018C38.2952 49.7754 41.3387 48.7244 44.4986 48.3125C45.384 49.3259 46.4708 50.5185 46.4708 50.5185L46.5311 48.1311C57.8284 47.5879 67.3573 54.7238 67.3573 54.7238C60.8909 58.6679 55.327 59.7737 50.7419 59.4462C50.4528 58.6131 50.042 57.3692 50.042 57.3692L49.2749 59.2898C47.2521 59.0013 45.2826 58.4157 43.43 57.5518C43.8362 56.5555 44.263 55.4166 44.263 55.4166L41.8538 56.7404C37.7227 54.394 35.5524 51.4018 35.5524 51.4018Z" fill="#FF6E53"/>
<path d="M50.7407 59.445C50.4516 58.6119 50.0408 57.368 50.0408 57.368L49.2738 59.2886C47.2513 59 45.2822 58.4144 43.4299 57.5506C43.8362 56.5543 44.263 55.4153 44.263 55.4153L41.8537 56.7392C37.7181 54.3928 35.5479 51.4006 35.5479 51.4006C48.6922 49.8942 67.3504 54.7226 67.3504 54.7226C60.8886 58.6667 55.3247 59.7725 50.7407 59.445Z" fill="#E74A60"/>
<path d="M146.803 49.7562L145.854 56.955L150.957 53.2186L166.566 45.2188L154.489 46.3326C154.489 46.3326 148.336 47.831 148.002 48.1334C147.669 48.4358 146.803 49.7562 146.803 49.7562Z" fill="#E74A60"/>
<path d="M141.454 45.4025L166.568 45.2188L146.803 49.7528L141.454 45.4025Z" fill="#FF6E53"/>
<path d="M154.876 56.9983L148.296 51.6985L166.568 45.2188L154.876 56.9983Z" fill="#FF6E53"/>
<path d="M144.214 53.5062C144.754 53.295 145.316 53.1468 145.89 53.0645L145.843 52.6172C145.231 52.7032 144.631 52.8603 144.056 53.0851L144.214 53.5062Z" fill="#65CEFE"/>
<path d="M128.388 93.6229C129.39 93.1171 130.361 92.552 131.296 91.9305L131.544 92.3048C130.593 92.9366 129.605 93.5108 128.585 94.0246L128.388 93.6229ZM133.942 89.8661C134.768 89.1124 135.523 88.2842 136.199 87.3919L136.557 87.6624C135.865 88.5767 135.092 89.4255 134.246 90.1982L133.942 89.8661ZM137.932 84.5298C138.151 84.0664 138.354 83.5849 138.534 83.0964C138.736 82.5429 138.916 81.9643 139.066 81.3778L139.501 81.4919C139.346 82.0933 139.16 82.6867 138.954 83.2539C138.77 83.7549 138.562 84.2502 138.337 84.7249L137.932 84.5298ZM139.744 74.6948L140.192 74.6846C140.221 75.827 140.183 76.9702 140.078 78.1082L139.632 78.066C139.735 76.9454 139.772 75.8198 139.744 74.6948ZM139.105 67.9537L139.549 67.8898C139.737 69.2056 139.871 70.2863 139.971 71.2735L139.525 71.3191C139.425 70.3331 139.292 69.2638 139.105 67.9537ZM138.603 64.5677C138.43 63.4388 138.373 62.295 138.434 61.1544L138.881 61.1818C138.822 62.2908 138.878 63.4029 139.047 64.5004V64.5266L138.602 64.5883L138.603 64.5677ZM139.172 57.7753C139.609 56.6901 140.273 55.7116 141.119 54.9062L141.427 55.2338C140.627 55.995 140 56.9197 139.588 57.9453L139.172 57.7753Z" fill="#65CEFE"/>
<path d="M123.776 96.0493C124.353 95.8484 124.922 95.6373 125.466 95.4227L125.302 95.0039C124.762 95.2173 124.2 95.4262 123.628 95.6247L123.776 96.0493Z" fill="#65CEFE"/>
<path d="M121.451 48.2457C121.451 48.2457 130.789 41.9781 132.922 46.107C135.055 50.2359 120.789 64.8491 120.789 64.8491L121.451 48.2457Z" fill="#EAA0A0"/>
<path d="M121.451 75.5586C121.451 75.5586 130.789 69.29 132.922 73.42C135.055 77.55 120.789 92.161 120.789 92.161L121.451 75.5586Z" fill="#EAA0A0"/>
<path d="M121.451 94.1636C121.451 94.1636 130.789 87.8961 132.922 92.025C135.055 96.1539 120.789 110.767 120.789 110.767L121.451 94.1636Z" fill="#EAA0A0"/>
<path d="M115 41.2227H63.7315C62.8233 41.2227 61.924 41.4021 61.085 41.7507C60.2459 42.0993 59.4836 42.6103 58.8416 43.2545C58.1996 43.8986 57.6904 44.6633 57.3432 45.5048C56.9959 46.3463 56.8174 47.2482 56.8179 48.1589V153.231C56.8182 155.07 57.5467 156.833 58.8431 158.133C60.1396 159.433 61.898 160.164 63.7315 160.164H115C116.834 160.164 118.592 159.434 119.889 158.134C121.185 156.833 121.914 155.07 121.914 153.231V48.1589C121.914 47.2482 121.736 46.3464 121.388 45.505C121.041 44.6635 120.532 43.8989 119.89 43.2548C119.248 42.6107 118.486 42.0997 117.647 41.751C116.808 41.4023 115.908 41.2228 115 41.2227Z" fill="#063E70"/>
<g style="mix-blend-mode:multiply" opacity="0.2">
<path d="M61.4884 129.569C61.4884 129.569 52.2156 152.333 53.1147 156.636C54.0137 160.94 59.6425 166.696 73.4492 164.777C87.2559 162.859 96.8041 160.294 96.8041 160.294C96.8041 160.294 97.3811 129.572 96.8041 128.015C96.2271 126.457 71.3973 115.398 70.4209 115.398C69.4444 115.398 61.4884 129.569 61.4884 129.569Z" fill="#FFC0BB"/>
</g>
<path d="M118.562 50.6719H60.1694V150.711H118.562V50.6719Z" fill="white"/>
<path d="M75.278 73.4961H103.454C104.488 73.4961 105.481 73.9083 106.212 74.6419C106.944 75.3756 107.355 76.3706 107.355 77.4082V115.006C107.355 115.52 107.254 116.029 107.058 116.503C106.861 116.977 106.574 117.409 106.212 117.772C105.849 118.135 105.419 118.423 104.946 118.619C104.473 118.815 103.966 118.916 103.454 118.916H75.278C74.2436 118.916 73.2516 118.504 72.5202 117.771C71.7888 117.037 71.3779 116.043 71.3779 115.005V77.4059C71.3785 76.3689 71.7897 75.3746 72.521 74.6415C73.2523 73.9084 74.2439 73.4964 75.278 73.4961Z" fill="#C9EDF9"/>
<path d="M76.8576 91.8867L79.7095 105.605C79.7644 105.892 79.9164 106.151 80.1397 106.338C80.3631 106.525 80.6441 106.629 80.9352 106.632H97.7976C98.0886 106.629 98.3695 106.525 98.5928 106.338C98.8162 106.151 98.9682 105.892 99.0232 105.605L101.868 91.8867H76.8576ZM81.8866 105.299C81.7959 105.299 81.7061 105.281 81.6223 105.247C81.5384 105.212 81.4623 105.161 81.3981 105.096C81.334 105.032 81.2831 104.956 81.2484 104.872C81.2137 104.788 81.1958 104.698 81.1958 104.607L80.2387 94.8835C80.2387 94.6998 80.3115 94.5236 80.4411 94.3937C80.5706 94.2638 80.7463 94.1908 80.9295 94.1908C81.1127 94.1908 81.2884 94.2638 81.418 94.3937C81.5475 94.5236 81.6203 94.6998 81.6203 94.8835L82.5774 104.607C82.5774 104.79 82.5046 104.967 82.3751 105.096C82.2455 105.226 82.0698 105.299 81.8866 105.299ZM85.3599 105.299C85.2692 105.299 85.1794 105.281 85.0956 105.247C85.0117 105.212 84.9356 105.161 84.8715 105.096C84.8073 105.032 84.7564 104.956 84.7217 104.872C84.687 104.788 84.6691 104.698 84.6691 104.607L84.2856 94.8835C84.2856 94.7926 84.3035 94.7025 84.3382 94.6184C84.3729 94.5344 84.4238 94.458 84.4879 94.3937C84.5521 94.3294 84.6282 94.2784 84.712 94.2435C84.7959 94.2087 84.8857 94.1908 84.9764 94.1908C85.0671 94.1908 85.1569 94.2087 85.2407 94.2435C85.3246 94.2784 85.4007 94.3294 85.4649 94.3937C85.529 94.458 85.5799 94.5344 85.6146 94.6184C85.6493 94.7025 85.6672 94.7926 85.6672 94.8835L86.0496 104.607C86.0497 104.698 86.032 104.788 85.9974 104.872C85.9628 104.956 85.912 105.032 85.848 105.096C85.7839 105.161 85.7078 105.212 85.6241 105.247C85.5403 105.281 85.4506 105.299 85.3599 105.299ZM90.0566 104.607C90.0566 104.79 89.9838 104.967 89.8543 105.096C89.7247 105.226 89.549 105.299 89.3658 105.299C89.1826 105.299 89.0069 105.226 88.8774 105.096C88.7478 104.967 88.675 104.79 88.675 104.607V94.8835C88.675 94.6998 88.7478 94.5236 88.8774 94.3937C89.0069 94.2638 89.1826 94.1908 89.3658 94.1908C89.549 94.1908 89.7247 94.2638 89.8543 94.3937C89.9838 94.5236 90.0566 94.6998 90.0566 94.8835V104.607ZM94.0637 104.607C94.0637 104.79 93.9909 104.967 93.8613 105.096C93.7318 105.226 93.5561 105.299 93.3729 105.299C93.1896 105.299 93.0139 105.226 92.8844 105.096C92.7548 104.967 92.6821 104.79 92.6821 104.607L93.0656 94.8835C93.0618 94.7903 93.0769 94.6972 93.1099 94.6099C93.1428 94.5227 93.1931 94.443 93.2575 94.3756C93.322 94.3083 93.3994 94.2548 93.485 94.2182C93.5706 94.1816 93.6627 94.1627 93.7558 94.1627C93.8489 94.1627 93.941 94.1816 94.0266 94.2182C94.1123 94.2548 94.1896 94.3083 94.2541 94.3756C94.3186 94.443 94.3688 94.5227 94.4018 94.6099C94.4348 94.6972 94.4498 94.7903 94.446 94.8835L94.0637 104.607ZM97.5358 104.607C97.5396 104.7 97.5245 104.793 97.4916 104.88C97.4586 104.968 97.4083 105.047 97.3439 105.115C97.2794 105.182 97.202 105.235 97.1164 105.272C97.0308 105.309 96.9387 105.327 96.8456 105.327C96.7525 105.327 96.6604 105.309 96.5748 105.272C96.4892 105.235 96.4118 105.182 96.3473 105.115C96.2829 105.047 96.2326 104.968 96.1996 104.88C96.1667 104.793 96.1516 104.7 96.1554 104.607L97.1125 94.8835C97.1087 94.7903 97.1237 94.6972 97.1567 94.6099C97.1897 94.5227 97.2399 94.443 97.3044 94.3756C97.3689 94.3083 97.4462 94.2548 97.5319 94.2182C97.6175 94.1816 97.7096 94.1627 97.8027 94.1627C97.8958 94.1627 97.9879 94.1816 98.0735 94.2182C98.1591 94.2548 98.2365 94.3083 98.301 94.3756C98.3654 94.443 98.4157 94.5227 98.4486 94.6099C98.4816 94.6972 98.4967 94.7903 98.4929 94.8835L97.5358 104.607Z" fill="#6577FF"/>
<path d="M102.052 92.9936H76.6801C76.387 92.9936 76.106 92.8768 75.8987 92.669C75.6915 92.4612 75.5751 92.1793 75.5751 91.8855C75.5751 91.5916 75.6915 91.3097 75.8987 91.1019C76.106 90.8941 76.387 90.7773 76.6801 90.7773H102.052C102.197 90.7773 102.34 90.806 102.474 90.8617C102.609 90.9174 102.73 90.999 102.833 91.1019C102.936 91.2048 103.017 91.327 103.073 91.4614C103.128 91.5958 103.157 91.7399 103.157 91.8855C103.157 92.031 103.128 92.1751 103.073 92.3095C103.017 92.444 102.936 92.5661 102.833 92.669C102.73 92.7719 102.609 92.8535 102.474 92.9092C102.34 92.9649 102.197 92.9936 102.052 92.9936Z" fill="#4054E7"/>
<path d="M82.0096 90.8626V89.9051C82.0096 89.1393 82.3129 88.405 82.8529 87.8635C83.3928 87.322 84.1252 87.0178 84.8888 87.0178H93.8452C94.6088 87.0178 95.3412 87.322 95.8811 87.8635C96.4211 88.405 96.7244 89.1393 96.7244 89.9051V90.8626C96.7244 91.027 96.7895 91.1848 96.9053 91.3012C97.0212 91.4176 97.1784 91.4831 97.3424 91.4834C97.5065 91.4831 97.6638 91.4176 97.7798 91.3012C97.8958 91.1849 97.9612 91.0271 97.9615 90.8626V89.9051C97.9612 88.8104 97.5274 87.7607 96.7555 86.9867C95.9836 86.2126 94.9368 85.7776 93.8452 85.7773H84.8877C83.7959 85.7773 82.749 86.2122 81.977 86.9863C81.205 87.7604 80.7714 88.8103 80.7714 89.9051V90.8626C80.7714 91.027 80.8364 91.1848 80.9523 91.3012C81.0681 91.4176 81.2253 91.4831 81.3893 91.4834C81.5536 91.4834 81.7112 91.418 81.8275 91.3016C81.9438 91.1852 82.0092 91.0273 82.0096 90.8626Z" fill="#6577FF"/>
<path d="M101.366 46.2734H77.4608C77.1622 46.2734 76.9202 46.5161 76.9202 46.8155V46.9844C76.9202 47.2838 77.1622 47.5265 77.4608 47.5265H101.366C101.665 47.5265 101.907 47.2838 101.907 46.9844V46.8155C101.907 46.5161 101.665 46.2734 101.366 46.2734Z" fill="white"/>
<path d="M55.6559 111.183C55.6559 111.183 56.0076 112.496 56.8042 113.142L57.751 102.224C57.751 102.224 64.5406 94.6159 62.9007 84.3553C62.3476 80.8373 60.5909 77.622 57.932 75.261C56.4104 73.9201 54.7398 73.0242 53.7554 74.2852C53.7554 74.2852 46.0645 92.6519 40.751 106.067L55.6559 111.183Z" fill="#FFC0BB"/>
<path d="M118.562 144.793H60.1694V150.71H118.562V144.793Z" fill="#65CEFE"/>
<path d="M118.562 50.6719H60.1694V55.9808H118.562V50.6719Z" fill="#C0EFFF"/>
<path d="M55.1381 85.0746C57.264 84.0943 58.3735 78.5492 58.7707 76.059C57.0637 74.3381 54.9253 72.7906 53.7554 74.289C53.7554 74.289 52.062 78.3335 49.7153 84.0121C51.32 84.9068 53.5494 85.8073 55.1381 85.0746Z" fill="#EAA0A0"/>
<path d="M30.3516 179.61C35.0175 182.485 50.0397 191.079 65.566 192.912C66.4764 193.02 67.116 193.855 66.8474 194.578L64.1343 201.865C63.9545 202.348 63.4139 202.628 62.8074 202.55C58.2302 201.993 39.3455 199.142 26.0577 188.835C25.6025 188.484 25.4147 187.953 25.5843 187.497L28.3532 180.061C28.6138 179.365 29.5914 179.142 30.3516 179.61Z" fill="#064C91"/>
<path d="M28.9882 186.581L28.937 186.562C28.8715 186.538 28.8116 186.501 28.7605 186.453C28.7094 186.406 28.6683 186.348 28.6395 186.284C28.6107 186.221 28.5948 186.152 28.5928 186.082C28.5907 186.012 28.6025 185.943 28.6274 185.877L29.4627 183.635C29.4868 183.569 29.5236 183.509 29.5711 183.458C29.6185 183.406 29.6757 183.365 29.7393 183.336C29.8028 183.307 29.8715 183.291 29.9412 183.289C30.011 183.287 30.0804 183.299 30.1456 183.324L30.1968 183.344C30.2623 183.368 30.3224 183.405 30.3735 183.452C30.4246 183.5 30.4658 183.557 30.4946 183.621C30.5234 183.685 30.5393 183.754 30.5413 183.824C30.5433 183.894 30.5314 183.963 30.5063 184.029L29.671 186.272C29.6467 186.338 29.6097 186.398 29.5622 186.449C29.5146 186.5 29.4575 186.541 29.3939 186.57C29.3304 186.598 29.2619 186.614 29.1922 186.616C29.1226 186.618 29.0532 186.606 28.9882 186.581Z" fill="#063E70"/>
<path d="M31.7821 188.305L31.7297 188.286C31.6644 188.262 31.6045 188.225 31.5536 188.177C31.5027 188.13 31.4617 188.072 31.433 188.009C31.4043 187.945 31.3885 187.876 31.3865 187.806C31.3845 187.737 31.3963 187.667 31.4213 187.602L32.2566 185.358C32.3057 185.227 32.4045 185.121 32.5315 185.063C32.6584 185.005 32.8031 185 32.9338 185.049L32.985 185.068C33.0504 185.092 33.1104 185.129 33.1614 185.177C33.2125 185.225 33.2536 185.282 33.2824 185.346C33.3112 185.409 33.3271 185.478 33.3292 185.548C33.3313 185.618 33.3195 185.688 33.2945 185.753L32.4592 187.997C32.4349 188.061 32.3981 188.121 32.351 188.171C32.3038 188.222 32.2472 188.263 32.1843 188.291C32.1214 188.32 32.0535 188.336 31.9845 188.338C31.9155 188.34 31.8467 188.329 31.7821 188.305Z" fill="#063E70"/>
<path d="M34.5532 190.013C34.4159 189.961 34.3046 189.857 34.2438 189.723C34.183 189.589 34.1776 189.436 34.2289 189.299L35.0449 187.106C35.0965 186.969 35.2005 186.857 35.334 186.796C35.4676 186.735 35.6198 186.73 35.7573 186.781C35.8255 186.807 35.888 186.845 35.9413 186.895C35.9946 186.944 36.0376 187.004 36.0678 187.071C36.0981 187.137 36.115 187.209 36.1175 187.282C36.1201 187.354 36.1083 187.427 36.0828 187.495L35.2668 189.688C35.2414 189.756 35.2027 189.819 35.153 189.872C35.1034 189.926 35.0437 189.969 34.9774 189.999C34.9111 190.029 34.8395 190.046 34.7667 190.048C34.6939 190.051 34.6214 190.039 34.5532 190.013Z" fill="#063E70"/>
<path d="M37.4586 191.414L37.4074 191.395C37.342 191.371 37.2821 191.334 37.231 191.286C37.18 191.238 37.139 191.181 37.1103 191.117C37.0816 191.053 37.0658 190.985 37.0639 190.915C37.0619 190.845 37.0739 190.775 37.099 190.71L37.9343 188.466C37.9585 188.401 37.9954 188.341 38.0429 188.29C38.0904 188.238 38.1476 188.197 38.2111 188.168C38.2746 188.139 38.3432 188.123 38.4129 188.121C38.4826 188.119 38.552 188.131 38.6172 188.156L38.6684 188.175C38.7337 188.2 38.7936 188.237 38.8446 188.285C38.8955 188.332 38.9366 188.39 38.9654 188.453C38.9941 188.517 39.0101 188.586 39.0122 188.655C39.0144 188.725 39.0027 188.795 38.9779 188.86L38.1426 191.104C38.1185 191.17 38.0815 191.23 38.0339 191.281C37.9863 191.332 37.9291 191.374 37.8654 191.403C37.8018 191.431 37.733 191.447 37.6632 191.449C37.5934 191.451 37.5238 191.439 37.4586 191.414Z" fill="#063E70"/>
<path d="M40.2924 193.035L40.2412 193.017C40.1757 192.993 40.1158 192.956 40.0647 192.908C40.0136 192.861 39.9725 192.803 39.9437 192.74C39.9149 192.676 39.899 192.607 39.897 192.537C39.8949 192.467 39.9067 192.398 39.9316 192.332L40.7669 190.09C40.791 190.025 40.8276 189.965 40.8747 189.914C40.9218 189.864 40.9784 189.823 41.0413 189.794C41.1042 189.765 41.1721 189.749 41.2412 189.746C41.3104 189.744 41.3793 189.755 41.4441 189.78L41.4953 189.799C41.5608 189.823 41.6209 189.86 41.672 189.908C41.7231 189.955 41.7643 190.013 41.7931 190.076C41.8219 190.14 41.8378 190.209 41.8398 190.279C41.8418 190.349 41.8299 190.418 41.8048 190.484L40.9695 192.727C40.9452 192.792 40.9084 192.851 40.8613 192.902C40.8141 192.953 40.7575 192.993 40.6946 193.022C40.6317 193.051 40.5638 193.066 40.4948 193.069C40.4258 193.071 40.357 193.06 40.2924 193.035Z" fill="#063E70"/>
<path d="M43.2501 194.323L43.1989 194.303C43.0682 194.254 42.9621 194.155 42.9041 194.028C42.846 193.901 42.8408 193.755 42.8894 193.624L43.7247 191.381C43.7489 191.315 43.7858 191.255 43.8333 191.204C43.8808 191.152 43.9379 191.111 44.0015 191.082C44.065 191.053 44.1336 191.037 44.2033 191.035C44.273 191.033 44.3424 191.045 44.4075 191.07L44.4587 191.09C44.5243 191.114 44.5843 191.151 44.6355 191.198C44.6866 191.246 44.7278 191.303 44.7566 191.367C44.7854 191.431 44.8013 191.499 44.8033 191.569C44.8053 191.639 44.7934 191.709 44.7683 191.774L43.933 194.018C43.9081 194.083 43.8708 194.142 43.823 194.193C43.7752 194.243 43.718 194.284 43.6546 194.312C43.5911 194.341 43.5228 194.356 43.4534 194.358C43.384 194.36 43.3149 194.348 43.2501 194.323Z" fill="#063E70"/>
<path d="M46.2659 195.453L46.2147 195.433C46.1492 195.409 46.0891 195.372 46.038 195.325C45.9868 195.277 45.9457 195.22 45.9168 195.156C45.888 195.092 45.8722 195.023 45.8702 194.953C45.8681 194.883 45.88 194.814 45.9052 194.749L46.7405 192.505C46.7646 192.439 46.8015 192.379 46.849 192.328C46.8966 192.277 46.9538 192.236 47.0173 192.207C47.0809 192.178 47.1495 192.162 47.2192 192.16C47.2889 192.158 47.3583 192.17 47.4233 192.196L47.4745 192.214C47.5399 192.238 47.5999 192.275 47.651 192.323C47.702 192.37 47.7431 192.428 47.7719 192.491C47.8007 192.555 47.8166 192.624 47.8187 192.694C47.8208 192.764 47.809 192.833 47.7841 192.899L46.9487 195.141C46.9248 195.207 46.8881 195.267 46.8407 195.319C46.7932 195.37 46.7361 195.411 46.6725 195.44C46.6089 195.469 46.5402 195.485 46.4704 195.488C46.4006 195.49 46.3311 195.478 46.2659 195.453Z" fill="#063E70"/>
<path d="M49.3147 196.416C49.2465 196.39 49.184 196.352 49.1307 196.302C49.0774 196.252 49.0344 196.193 49.0042 196.126C48.9739 196.06 48.9571 195.988 48.9545 195.915C48.9519 195.842 48.9638 195.77 48.9893 195.701L49.8052 193.509C49.8307 193.441 49.8693 193.378 49.9189 193.325C49.9685 193.271 50.028 193.228 50.0942 193.198C50.1604 193.168 50.2318 193.151 50.3045 193.149C50.3772 193.146 50.4496 193.158 50.5177 193.184C50.5859 193.209 50.6484 193.248 50.7017 193.297C50.755 193.347 50.798 193.407 50.8282 193.473C50.8585 193.54 50.8753 193.611 50.8779 193.684C50.8805 193.757 50.8686 193.83 50.8431 193.898L50.0306 196.09C50.005 196.159 49.9662 196.222 49.9164 196.275C49.8665 196.329 49.8066 196.372 49.7401 196.402C49.6736 196.433 49.6017 196.449 49.5288 196.452C49.4558 196.454 49.383 196.442 49.3147 196.416Z" fill="#063E70"/>
<path d="M52.5138 197.053C52.3762 197.002 52.2646 196.898 52.2036 196.764C52.1426 196.63 52.1371 196.477 52.1883 196.339L53.0043 194.147C53.0296 194.078 53.0681 194.016 53.1177 193.962C53.1672 193.909 53.2267 193.866 53.2929 193.835C53.3591 193.805 53.4306 193.788 53.5033 193.785C53.576 193.783 53.6485 193.795 53.7167 193.82C53.7849 193.846 53.8474 193.884 53.9007 193.934C53.954 193.984 53.997 194.043 54.0272 194.11C54.0575 194.176 54.0744 194.248 54.0769 194.321C54.0795 194.394 54.0677 194.466 54.0422 194.535L53.2262 196.727C53.1748 196.865 53.0709 196.977 52.9373 197.038C52.8037 197.099 52.6514 197.105 52.5138 197.053Z" fill="#063E70"/>
<path d="M55.6536 197.926L55.6024 197.906C55.537 197.882 55.4771 197.845 55.426 197.797C55.375 197.75 55.334 197.692 55.3053 197.629C55.2766 197.565 55.2608 197.496 55.2589 197.426C55.2569 197.356 55.2689 197.287 55.294 197.221L56.1282 194.978C56.1525 194.912 56.1895 194.852 56.237 194.801C56.2845 194.75 56.3417 194.709 56.4052 194.68C56.4686 194.651 56.5372 194.635 56.6068 194.633C56.6765 194.631 56.7459 194.643 56.811 194.667L56.8622 194.687C56.9277 194.711 56.9876 194.748 57.0386 194.796C57.0897 194.843 57.1307 194.901 57.1594 194.964C57.1881 195.028 57.2039 195.097 57.2058 195.167C57.2077 195.237 57.1958 195.306 57.1707 195.372L56.3353 197.615C56.3113 197.681 56.2745 197.741 56.2271 197.792C56.1797 197.843 56.1227 197.884 56.0592 197.913C55.9958 197.942 55.9273 197.958 55.8577 197.96C55.788 197.962 55.7187 197.951 55.6536 197.926Z" fill="#063E70"/>
<path d="M58.8879 198.468L58.8367 198.449C58.7712 198.425 58.7111 198.388 58.66 198.34C58.6088 198.293 58.5677 198.235 58.5389 198.172C58.51 198.108 58.4942 198.039 58.4922 197.969C58.4902 197.899 58.5021 197.829 58.5272 197.764L59.3625 195.521C59.3866 195.455 59.4235 195.395 59.4711 195.344C59.5186 195.292 59.5758 195.251 59.6393 195.223C59.7029 195.194 59.7715 195.178 59.8412 195.176C59.9109 195.174 59.9803 195.186 60.0453 195.211L60.0965 195.229C60.1619 195.254 60.2219 195.291 60.273 195.338C60.324 195.386 60.3651 195.443 60.3939 195.507C60.4227 195.571 60.4386 195.639 60.4407 195.709C60.4428 195.779 60.431 195.849 60.4061 195.914L59.5707 198.158C59.5466 198.223 59.5097 198.284 59.4622 198.335C59.4147 198.386 59.3575 198.427 59.294 198.456C59.2305 198.485 59.1619 198.501 59.0922 198.503C59.0225 198.505 58.953 198.493 58.8879 198.468Z" fill="#063E70"/>
<path d="M62.1007 198.991C61.963 198.939 61.8515 198.834 61.7904 198.7C61.7294 198.566 61.7239 198.413 61.7752 198.275L62.5912 196.084C62.6426 195.946 62.7464 195.834 62.88 195.773C63.0136 195.712 63.1659 195.706 63.3036 195.758C63.4409 195.809 63.5522 195.914 63.613 196.048C63.6738 196.181 63.6792 196.334 63.6279 196.472L62.8119 198.664C62.7866 198.732 62.7481 198.795 62.6987 198.848C62.6492 198.902 62.5898 198.945 62.5237 198.975C62.4577 199.005 62.3863 199.022 62.3137 199.025C62.2411 199.028 62.1687 199.016 62.1007 198.991Z" fill="#063E70"/>
<path d="M39.5697 196.485L39.5822 196.451C39.5321 196.444 39.4829 196.432 39.4354 196.415L35.7607 195.038C35.582 194.963 35.4404 194.82 35.3668 194.64C35.2932 194.461 35.2936 194.259 35.3681 194.08L38.682 185.178C38.7429 184.994 38.8742 184.841 39.0473 184.753C39.2203 184.666 39.4209 184.651 39.605 184.711L43.2809 186.088C43.3848 186.128 43.4774 186.193 43.5506 186.277C43.6238 186.361 43.6754 186.462 43.7008 186.57C43.9887 186.697 44.2789 186.824 44.5737 186.949C44.6715 186.201 44.288 185.474 43.6041 185.218L39.9293 183.842C39.1236 183.541 38.2041 184.005 37.8809 184.878L34.5657 193.779C34.2414 194.653 34.6329 195.605 35.4375 195.909L39.1134 197.285C39.3835 197.381 39.6748 197.4 39.9549 197.339C40.235 197.279 40.4929 197.142 40.6998 196.943C40.3197 196.793 39.943 196.641 39.5697 196.485Z" fill="#FFCB83"/>
<path d="M38.7639 189.423L37.1707 188.823C37.0255 188.782 36.8703 188.798 36.7358 188.866C36.6012 188.934 36.4973 189.051 36.4445 189.193C36.3918 189.334 36.3941 189.491 36.4511 189.631C36.508 189.771 36.6154 189.884 36.7519 189.949L38.3508 190.547L38.7639 189.423Z" fill="#EEFBFF"/>
<path d="M108.685 116.559C108.685 116.559 100.799 117.223 100.523 119.325C100.248 121.427 100.854 125.131 108.299 125.85H116.012C116.012 125.85 113.704 119.434 113.814 119.214C113.925 118.994 108.685 116.559 108.685 116.559Z" fill="#EFADAB"/>
<path d="M96.0313 147.912C95.7791 148.049 95.5568 148.235 95.3777 148.459C95.1985 148.684 95.0662 148.942 94.9885 149.219C94.9108 149.495 94.8893 149.785 94.9254 150.07C94.9614 150.355 95.0542 150.631 95.1983 150.879C98.8275 157.156 113.259 182.099 114.56 184.128C116.048 186.452 119.688 191.927 131.767 194.742C143.846 197.556 148.808 205.697 148.808 205.697H186.036C186.036 205.697 177.266 191.761 169.989 155.591C169.989 155.591 164.364 125.56 153.776 126.556C153.776 126.556 147.323 119.754 141.035 121.079C141.035 121.079 129.122 113.944 122.339 113.944L106.042 94.6403C104.429 92.7299 101.586 92.3579 99.6036 93.8768C98.9652 94.3664 98.4792 95.0123 98.3449 95.8659C97.8488 99.0191 101.987 106.982 108.603 116.606C115.22 126.23 131.601 156.757 124.487 170.196C124.487 170.196 117.203 164.719 110.919 155.931C105.655 148.564 99.4614 146.087 96.0313 147.912Z" fill="#FFC0BB"/>
<path d="M122.396 113.957C124.554 115.821 126.592 117.82 128.499 119.942C131.083 122.761 134.347 126.943 136.262 130.172C138.679 134.167 140.274 137.668 141.027 142.065L140.979 142.075C140.111 137.944 137.843 133.495 135.867 130.421C134.388 128.018 131.657 124.201 128.203 120.198C126.471 118.194 124.273 115.827 122.362 113.994L122.396 113.957Z" fill="#EAA0A0"/>
<path d="M140.926 121.031C142.685 121.934 144.254 123.193 145.64 124.616C147.034 126.045 148.235 127.652 149.212 129.395C150.191 131.136 150.943 132.997 151.448 134.93C151.876 136.734 152.153 137.959 152.197 140.814H152.148C151.986 138.857 151.627 136.922 151.075 135.037C150.516 133.211 149.731 131.259 148.781 129.636C147.824 127.923 146.673 126.327 145.352 124.878C144.106 123.509 142.477 122.034 140.901 121.071L140.926 121.031Z" fill="#EAA0A0"/>
<path d="M153.634 126.422C155.191 127.601 156.766 129.69 157.53 131.101C158.542 132.879 159.292 134.795 159.754 136.79C160.121 138.136 160.209 139.445 160.273 140.816L160.224 140.823C159.996 139.494 159.85 138.504 159.378 136.896C158.655 134.458 158.088 133.204 157.119 131.326C156.54 130.167 155.038 127.872 153.613 126.458L153.634 126.422Z" fill="#EAA0A0"/>
<path d="M103.546 155.636C103.876 153.956 101.924 151.292 100.152 149.283C99.6192 148.673 98.919 148.234 98.1387 148.02C97.3585 147.807 96.5329 147.829 95.765 148.083C95.3443 148.399 95.0538 148.859 94.9489 149.375C94.844 149.891 94.9319 150.428 95.196 150.884C96.1713 152.571 97.9273 155.605 99.9974 159.18C101.55 158.388 103.241 157.19 103.546 155.636Z" fill="#EAA0A0"/>
<path d="M105.112 102.215C106.053 102.027 110.323 100.603 110.061 99.8188L105.85 94.8271C105.041 93.867 103.888 93.2632 102.64 93.145H102.621C102.548 93.1385 102.474 93.1358 102.401 93.137C101.832 93.137 100.446 93.2979 100.14 94.8317C99.8369 96.3461 102.337 100.026 103.44 101.557C103.626 101.816 103.883 102.016 104.179 102.133C104.476 102.25 104.799 102.278 105.112 102.215Z" fill="#EAA0A0"/>
<g style="mix-blend-mode:multiply" opacity="0.2">
<path d="M148.813 205.7H186.04C186.04 205.7 180.291 196.562 174.238 173.883C171.581 190.582 156.927 189.619 151.111 190.544C144.415 191.612 118.421 186.177 114.779 184.464C116.4 186.943 120.242 192.055 131.772 194.749C143.845 197.57 148.813 205.7 148.813 205.7Z" fill="#FFC0BB"/>
</g>
<g style="mix-blend-mode:multiply" opacity="0.2">
<path d="M110.574 119.633C117.874 131.394 130.969 158.41 124.49 170.196L128.79 174.453C128.79 174.453 139.656 162.383 122.366 135.766C118.74 130.171 114.804 124.784 110.574 119.633Z" fill="#FFC0BB"/>
</g>
<path d="M9.80422 75.1441C8.28949 67.4604 19.72 64.8732 21.5602 72.4897C21.7386 73.2494 21.8411 74.0251 21.8663 74.8052C22.2225 83.9543 16.703 93.9136 10.8273 92.2372C4.95161 90.5607 8.33387 84.3115 10.1149 80.5626C10.9468 78.812 10.1991 77.1264 9.80422 75.1441Z" fill="#C9EDF9"/>
<path d="M176.082 58.3834C172.734 57.2113 169.066 58.9996 167.806 62.3251C166.827 64.9099 165.704 68.5162 165.603 71.683C165.419 77.4051 167.688 89.6845 176.365 92.7167C185.041 95.7489 190.218 87.7501 184.445 78.4949C181.974 74.5463 183.206 60.8769 176.082 58.3834Z" fill="#C9EDF9"/>
<path d="M22.1747 113.207C21.74 112.822 21.2632 112.488 20.7533 112.211L20.9513 111.809C21.4961 112.1 22.0048 112.454 22.4672 112.864L22.1747 113.207Z" fill="#65CEFE"/>
<path d="M22.886 156.645C22.1076 155.81 21.3795 154.93 20.7055 154.009L21.0674 153.744C21.7311 154.652 22.4478 155.521 23.2138 156.345L22.886 156.645ZM18.9029 151.097C18.3746 150.079 17.9403 149.014 17.6055 147.917L18.0345 147.787C18.3613 148.858 18.7853 149.896 19.3012 150.89L18.9029 151.097ZM16.9477 144.541C16.8988 144.017 16.8749 143.481 16.8749 142.943C16.8751 142.328 16.9062 141.713 16.9682 141.1L17.4143 141.145C17.354 141.748 17.3233 142.353 17.3233 142.943C17.3233 143.464 17.3472 143.986 17.3938 144.497L16.9477 144.541ZM18.022 137.843L17.5884 137.729C17.8825 136.625 18.2412 135.539 18.6627 134.478L19.0804 134.643C18.6628 135.688 18.3075 136.756 18.0163 137.843H18.022ZM20.4415 131.551L20.0386 131.353C20.4745 130.456 20.9707 129.494 21.6 128.324L21.9949 128.538C21.3679 129.702 20.8751 130.659 20.4415 131.551ZM23.6212 125.551L23.2263 125.34L23.2388 125.317C23.775 124.345 24.2097 123.32 24.5362 122.259L24.9664 122.388C24.6295 123.479 24.181 124.533 23.628 125.532L23.6212 125.551ZM24.9937 118.979C24.9583 117.874 24.6867 116.789 24.197 115.797L24.5988 115.598C25.1159 116.646 25.4019 117.794 25.4375 118.963L24.9937 118.979Z" fill="#65CEFE"/>
<path d="M26.7064 160.213C26.2341 159.824 25.7732 159.429 25.3351 159.039L25.6344 158.703C26.0668 159.089 26.5232 159.48 26.9909 159.865L26.7064 160.213Z" fill="#65CEFE"/>
<path d="M19.2215 105.603L18.6286 112.844L14.4338 108.106L0.867188 96.9648L12.4365 100.617C12.4365 100.617 18.1324 103.392 18.393 103.761C18.6536 104.129 19.2215 105.603 19.2215 105.603Z" fill="#E6A748"/>
<path d="M25.3692 102.491L0.867188 96.9648L19.2215 105.603L25.3692 102.491Z" fill="#FFCB83"/>
<path d="M9.79854 110.965L17.3517 107.186L0.867188 96.9648L9.79854 110.965Z" fill="#FFCB83"/>
<path d="M147.522 114.556C147.617 114.145 147.793 113.758 148.039 113.416C148.286 113.075 148.598 112.786 148.958 112.567C149.318 112.349 149.718 112.205 150.134 112.144C150.55 112.083 150.974 112.106 151.381 112.212C151.856 111.194 152.682 110.383 153.708 109.929C154.733 109.475 155.887 109.41 156.957 109.744C157.514 108.819 158.32 108.07 159.283 107.586C160.246 107.101 161.326 106.899 162.398 107.003C163.471 107.108 164.492 107.515 165.343 108.177C166.195 108.839 166.842 109.729 167.21 110.745C167.806 110.412 168.478 110.241 169.16 110.249C169.842 110.258 170.51 110.444 171.098 110.791C171.686 111.137 172.173 111.632 172.512 112.226C172.851 112.819 173.029 113.491 173.029 114.175C173.029 114.304 173.022 114.431 173.01 114.556H147.522Z" fill="white"/>
<path d="M49.2453 13.7557C49.36 13.2582 49.6393 12.8144 50.0378 12.4965C50.4362 12.1786 50.9303 12.0054 51.4394 12.0051C51.6314 12.0054 51.8226 12.0299 52.0085 12.0781C52.348 11.3512 52.9382 10.7719 53.6703 10.4472C54.4024 10.1225 55.2269 10.0743 55.9916 10.3115C56.3901 9.64969 56.9671 9.11441 57.6561 8.76754C58.3452 8.42067 59.118 8.27638 59.8853 8.35133C60.6526 8.42629 61.3832 8.71743 61.9925 9.19112C62.6018 9.6648 63.065 10.3017 63.3286 11.0282C63.755 10.7899 64.2361 10.6675 64.7242 10.6732C65.2123 10.6788 65.6905 10.8123 66.1113 11.0604C66.5321 11.3084 66.881 11.6625 67.1233 12.0874C67.3656 12.5124 67.4929 12.9935 67.4927 13.483C67.4927 13.5741 67.4881 13.6651 67.479 13.7557H49.2453Z" fill="white"/>
<path d="M145.718 96.75C145.718 96.75 145.335 100.542 142.35 100.805C145.335 101.067 145.718 104.859 145.718 104.859C145.718 104.859 146.102 101.067 149.086 100.805C146.102 100.541 145.718 96.75 145.718 96.75Z" fill="white"/>
<path d="M36.7007 68.7227C36.7007 68.7227 36.3172 72.5149 33.3321 72.7774C36.3172 73.0387 36.7007 76.831 36.7007 76.831C36.7007 76.831 37.0842 73.0387 40.0682 72.7774C37.0842 72.5149 36.7007 68.7227 36.7007 68.7227Z" fill="white"/>
<path d="M153.613 86.2578C153.613 86.2578 153.359 88.7685 151.386 88.9397C153.359 89.1131 153.613 91.6226 153.613 91.6226C153.613 91.6226 153.867 89.112 155.841 88.9397C153.867 88.7662 153.613 86.2578 153.613 86.2578Z" fill="white"/>
<path d="M42.9747 59.8516C42.9747 59.8516 42.7209 62.3622 40.7476 62.5345C42.7209 62.708 42.9747 65.2164 42.9747 65.2164C42.9747 65.2164 43.2285 62.7057 45.203 62.5345C43.2319 62.3611 42.9747 59.8516 42.9747 59.8516Z" fill="white"/>
<path d="M142.078 78.7266C142.078 78.7266 141.964 79.8484 141.081 79.926C141.964 80.0036 142.078 81.1265 142.078 81.1265C142.078 81.1265 142.191 80.0036 143.075 79.926C142.191 79.8484 142.078 78.7266 142.078 78.7266Z" fill="white"/>
<path d="M39.35 83.5352C39.35 83.5352 39.2362 84.657 38.3542 84.7346C39.2374 84.8122 39.35 85.9351 39.35 85.9351C39.35 85.9351 39.4638 84.8122 40.347 84.7346C39.4638 84.6524 39.35 83.5352 39.35 83.5352Z" fill="white"/>
<path d="M98.6921 70.6194C98.0803 70.6196 97.4746 70.4988 96.9093 70.2642C96.3441 70.0295 95.8306 69.6854 95.398 69.2516C94.9655 68.8179 94.6224 68.3029 94.3883 67.7361C94.1543 67.1693 94.0339 66.5619 94.0341 65.9484V62.4883H103.349V65.9484C103.349 66.5618 103.229 67.1691 102.995 67.7358C102.761 68.3025 102.418 68.8175 101.985 69.2512C101.553 69.685 101.04 70.0291 100.474 70.2638C99.9094 70.4986 99.3037 70.6194 98.6921 70.6194Z" fill="#E74A60"/>
<path d="M89.3772 70.6194C88.7655 70.6196 88.1597 70.4988 87.5945 70.2642C87.0293 70.0295 86.5158 69.6854 86.0832 69.2516C85.6506 68.8179 85.3075 68.3029 85.0735 67.7361C84.8395 67.1693 84.7191 66.5619 84.7192 65.9484V62.4883H94.0341V65.9484C94.0343 66.5618 93.9139 67.1691 93.68 67.7358C93.446 68.3025 93.103 68.8175 92.6705 69.2512C92.2381 69.685 91.7247 70.0291 91.1596 70.2638C90.5945 70.4986 89.9889 70.6194 89.3772 70.6194Z" fill="#65CEFE"/>
<path d="M80.0623 70.6194C78.8276 70.6185 77.6439 70.1259 76.7712 69.25C75.8986 68.3741 75.4086 67.1866 75.4089 65.9484V62.4883H84.7237V65.9484C84.7239 66.5622 84.6034 67.1699 84.3692 67.7369C84.1349 68.3039 83.7915 68.819 83.3586 69.2529C82.9256 69.6867 82.4117 70.0307 81.8461 70.2651C81.2805 70.4996 80.6744 70.62 80.0623 70.6194Z" fill="#E74A60"/>
<path d="M70.7429 70.6194C70.1312 70.6196 69.5254 70.4988 68.9602 70.2642C68.395 70.0295 67.8814 69.6854 67.4489 69.2516C67.0163 68.8179 66.6732 68.3029 66.4392 67.7361C66.2051 67.1693 66.0848 66.5619 66.0849 65.9484V62.4883H75.4089V65.9484C75.409 66.5625 75.2884 67.1707 75.0538 67.738C74.8193 68.3053 74.4755 68.8206 74.0421 69.2545C73.6087 69.6883 73.0942 70.0322 72.5281 70.2665C71.9619 70.5007 71.3553 70.6206 70.7429 70.6194Z" fill="#65CEFE"/>
<path d="M56.7746 62.4883H66.0895V65.9496C66.0895 67.1881 65.5988 68.3759 64.7255 69.2516C63.8522 70.1274 62.6677 70.6194 61.4326 70.6194C60.1975 70.6194 59.013 70.1274 58.1397 69.2516C57.2664 68.3759 56.7757 67.1881 56.7757 65.9496V62.4883H56.7746Z" fill="#E74A60"/>
<path d="M126.621 70.6194C126.008 70.6205 125.402 70.5004 124.836 70.2661C124.27 70.0319 123.755 69.688 123.322 69.2541C122.889 68.8203 122.545 68.305 122.31 67.7378C122.076 67.1706 121.955 66.5625 121.955 65.9484V62.4883H131.271V65.9484C131.271 67.1859 130.781 68.3727 129.909 69.2485C129.037 70.1242 127.855 70.6173 126.621 70.6194Z" fill="#65CEFE"/>
<path d="M117.3 70.6194C116.065 70.6194 114.88 70.1273 114.007 69.2513C113.133 68.3753 112.642 67.1872 112.642 65.9484V62.4883H121.955V65.9484C121.955 67.1867 121.465 68.3742 120.592 69.2501C119.719 70.126 118.535 70.6185 117.3 70.6194Z" fill="#E74A60"/>
<path d="M108.007 70.6194C106.772 70.6194 105.587 70.1273 104.713 69.2513C103.84 68.3753 103.349 67.1872 103.349 65.9484V62.4883H112.664V65.9484C112.664 66.5618 112.544 67.1691 112.31 67.7358C112.076 68.3025 111.733 68.8175 111.3 69.2512C110.868 69.685 110.354 70.0291 109.789 70.2638C109.224 70.4986 108.619 70.6194 108.007 70.6194Z" fill="#65CEFE"/>
<path d="M47.4597 62.4883H56.7746V65.9496C56.7746 67.1881 56.2839 68.3759 55.4106 69.2516C54.5373 70.1274 53.3528 70.6194 52.1177 70.6194C50.8826 70.6194 49.6981 70.1274 48.8248 69.2516C47.9515 68.3759 47.4609 67.1881 47.4609 65.9496V62.4883H47.4597Z" fill="#65CEFE"/>
<path d="M92.6878 50.6719H86.0655L84.7192 62.4868H94.0341L92.6878 50.6719Z" fill="#EEFBFF"/>
<path d="M86.0655 50.6719H79.4432L75.4043 62.4868H84.7192L86.0655 50.6719Z" fill="#FF6E53"/>
<path d="M79.4433 50.6719H72.8199L66.0895 62.4868H75.4043L79.4433 50.6719Z" fill="#EEFBFF"/>
<path d="M72.8198 50.6719H66.1964L56.7746 62.4868H66.0895L72.8198 50.6719Z" fill="#FF6E53"/>
<path d="M66.1964 50.6719H59.5742L47.4597 62.4868H56.7746L66.1964 50.6719Z" fill="#EEFBFF"/>
<path d="M119.136 50.6719H112.512L121.958 62.4868H131.273L119.136 50.6719Z" fill="#EEFBFF"/>
<path d="M112.545 50.6719H105.923L112.642 62.4868H121.958L112.545 50.6719Z" fill="#FF6E53"/>
<path d="M105.923 50.6719H99.2998L103.349 62.4868H112.664L105.923 50.6719Z" fill="#EEFBFF"/>
<path d="M99.2998 50.6719H92.6776L94.0341 62.4868H103.349L99.2998 50.6719Z" fill="#FF6E53"/>
<path d="M71.6124 125H107.119C108.133 125 109.105 125.404 109.822 126.123C110.539 126.842 110.942 127.817 110.942 128.833V129.346C110.942 130.362 110.539 131.337 109.822 132.055C109.106 132.774 108.134 133.178 107.12 133.178H71.6135C71.111 133.179 70.6133 133.08 70.1488 132.888C69.6843 132.696 69.2621 132.414 68.9065 132.058C68.5508 131.702 68.2686 131.279 68.076 130.814C67.8834 130.349 67.7841 129.85 67.784 129.346V128.834C67.784 128.331 67.8831 127.832 68.0755 127.366C68.268 126.901 68.55 126.478 68.9056 126.121C69.2611 125.765 69.6832 125.483 70.1477 125.291C70.6121 125.098 71.1098 124.999 71.6124 125Z" fill="#FF6E53"/>
<path d="M80.6507 129.729C80.6519 129.832 80.6377 129.935 80.6086 130.035C80.5839 130.124 80.5455 130.209 80.4948 130.286C80.4441 130.36 80.3823 130.426 80.3116 130.482C80.2375 130.539 80.1564 130.587 80.0703 130.624C79.9776 130.662 79.8811 130.691 79.7824 130.709C79.6666 130.729 79.5493 130.739 79.4318 130.738H78.5157C78.4743 130.736 78.4345 130.721 78.4019 130.696C78.3816 130.677 78.366 130.654 78.3563 130.628C78.3466 130.602 78.3431 130.575 78.3462 130.547V127.41C78.3429 127.383 78.3463 127.355 78.356 127.329C78.3657 127.303 78.3815 127.28 78.4019 127.262C78.4343 127.236 78.4742 127.221 78.5157 127.219H79.3124C79.4861 127.215 79.6597 127.235 79.8279 127.279C79.9503 127.313 80.0643 127.372 80.1625 127.453C80.2519 127.528 80.3211 127.624 80.3639 127.733C80.4111 127.852 80.4343 127.98 80.4322 128.108C80.4324 128.189 80.4224 128.269 80.4026 128.347C80.3831 128.421 80.3532 128.492 80.3138 128.558C80.2749 128.623 80.2257 128.681 80.1682 128.73C80.1078 128.783 80.0394 128.825 79.9656 128.856C80.06 128.874 80.1508 128.907 80.2342 128.955C80.3171 129.003 80.3911 129.065 80.4527 129.139C80.5169 129.216 80.567 129.304 80.6006 129.399C80.6364 129.505 80.6534 129.617 80.6507 129.729ZM79.9485 128.154C79.9495 128.077 79.9376 127.999 79.9132 127.926C79.8907 127.858 79.8516 127.798 79.7994 127.75C79.7434 127.697 79.6755 127.658 79.6014 127.636C79.497 127.607 79.3888 127.594 79.2805 127.597H78.7991V128.738H79.3283C79.4279 128.742 79.5274 128.726 79.6208 128.692C79.6906 128.663 79.7535 128.619 79.8051 128.564C79.8535 128.51 79.8899 128.446 79.9121 128.377C79.9349 128.305 79.9472 128.231 79.9485 128.156V128.154ZM80.1602 129.752C80.162 129.657 80.145 129.563 80.1101 129.474C80.0783 129.396 80.0283 129.327 79.9645 129.272C79.8935 129.215 79.8113 129.173 79.7232 129.149C79.6044 129.118 79.4818 129.104 79.359 129.107H78.8025V130.346H79.4785C79.5728 130.348 79.6668 130.335 79.7573 130.309C79.8339 130.285 79.9051 130.246 79.9667 130.195C80.0275 130.144 80.0762 130.08 80.109 130.008C80.144 129.928 80.1615 129.842 80.1602 129.754V129.752Z" fill="white"/>
<path d="M83.9966 129.438C83.9998 129.632 83.9681 129.826 83.9032 130.009C83.8461 130.168 83.7553 130.313 83.6369 130.434C83.5173 130.553 83.3726 130.643 83.2136 130.698C83.0306 130.761 82.838 130.792 82.6446 130.788C82.4647 130.79 82.2858 130.762 82.1154 130.704C81.9629 130.651 81.8236 130.566 81.7068 130.455C81.5884 130.34 81.498 130.199 81.4428 130.043C81.3782 129.86 81.347 129.667 81.3506 129.472V127.289C81.3508 127.276 81.3547 127.262 81.362 127.25C81.3713 127.238 81.3846 127.229 81.3996 127.225C81.4225 127.217 81.4461 127.212 81.4701 127.208C81.508 127.206 81.546 127.206 81.5839 127.208C81.6218 127.206 81.6598 127.206 81.6977 127.208C81.7222 127.211 81.7462 127.217 81.7694 127.225C81.784 127.23 81.7967 127.238 81.8058 127.25C81.8136 127.262 81.8176 127.275 81.8172 127.289V129.412C81.8144 129.556 81.8343 129.7 81.8764 129.839C81.9111 129.951 81.9702 130.054 82.0494 130.141C82.1242 130.222 82.217 130.285 82.3202 130.324C82.4341 130.366 82.5549 130.387 82.6764 130.385C82.7982 130.387 82.9192 130.366 83.0338 130.325C83.1363 130.288 83.2284 130.226 83.3024 130.146C83.3792 130.06 83.4366 129.959 83.4708 129.849C83.5118 129.715 83.5314 129.576 83.5288 129.436V127.286C83.5284 127.272 83.5324 127.258 83.5402 127.247C83.5495 127.235 83.5628 127.226 83.5778 127.222C83.601 127.214 83.6251 127.208 83.6495 127.205C83.6874 127.203 83.7254 127.203 83.7633 127.205C83.8012 127.203 83.8392 127.203 83.8771 127.205C83.9012 127.208 83.9248 127.214 83.9476 127.222C83.9627 127.226 83.9761 127.235 83.9863 127.247C83.9941 127.258 83.9981 127.272 83.9977 127.286L83.9966 129.438Z" fill="white"/>
<path d="M86.8735 130.547C86.876 130.576 86.876 130.605 86.8735 130.634C86.8712 130.655 86.865 130.675 86.8553 130.694C86.8481 130.709 86.8371 130.721 86.8234 130.73C86.812 130.737 86.7985 130.741 86.7847 130.741H85.1004C85.059 130.739 85.0191 130.725 84.9866 130.699C84.9663 130.68 84.9507 130.657 84.941 130.631C84.9313 130.606 84.9278 130.578 84.9309 130.55V127.413C84.9276 127.386 84.931 127.358 84.9407 127.332C84.9504 127.306 84.9662 127.283 84.9866 127.265C85.0189 127.239 85.0589 127.224 85.1004 127.223H86.7654C86.7793 127.223 86.7931 127.226 86.8052 127.233C86.8176 127.242 86.8274 127.254 86.8337 127.268C86.8415 127.288 86.8472 127.309 86.8507 127.33C86.8558 127.36 86.8581 127.391 86.8576 127.421C86.8578 127.45 86.8556 127.479 86.8507 127.507C86.8474 127.527 86.8416 127.547 86.8337 127.566C86.8273 127.58 86.8175 127.592 86.8052 127.6C86.7931 127.607 86.7793 127.611 86.7654 127.611H85.3997V128.715H86.5617C86.576 128.715 86.5901 128.719 86.6015 128.728C86.6136 128.737 86.6237 128.748 86.6311 128.761C86.6408 128.78 86.647 128.8 86.6493 128.821C86.6532 128.851 86.6551 128.881 86.655 128.91C86.6552 128.939 86.6533 128.967 86.6493 128.995C86.6469 129.015 86.6407 129.034 86.6311 129.052C86.6243 129.065 86.6141 129.076 86.6015 129.084C86.5891 129.09 86.5755 129.093 86.5617 129.093H85.3884V130.348H86.7791C86.7926 130.348 86.806 130.352 86.8177 130.359C86.8309 130.368 86.8418 130.379 86.8496 130.393C86.8595 130.412 86.8657 130.432 86.8678 130.453C86.8726 130.484 86.8745 130.516 86.8735 130.547Z" fill="white"/>
<path d="M91.5395 130.544C91.5405 130.576 91.5342 130.608 91.5212 130.638C91.5106 130.662 91.4942 130.683 91.4734 130.699C91.4548 130.716 91.4326 130.728 91.4086 130.735C91.385 130.742 91.3605 130.746 91.3357 130.746H91.181C91.138 130.747 91.0951 130.742 91.0535 130.731C91.0156 130.72 90.9803 130.702 90.9499 130.677C90.9122 130.645 90.8789 130.609 90.8509 130.569C90.8126 130.513 90.778 130.455 90.7474 130.395L89.6765 128.394C89.6207 128.29 89.5627 128.183 89.5081 128.069C89.4534 127.955 89.3942 127.841 89.3487 127.739C89.3487 127.869 89.3487 128.003 89.3567 128.139C89.3647 128.274 89.3567 128.409 89.3567 128.544V130.667C89.3568 130.681 89.3528 130.693 89.3453 130.704C89.3355 130.717 89.322 130.726 89.3066 130.731C89.2831 130.738 89.2592 130.744 89.2349 130.747C89.1593 130.757 89.0829 130.757 89.0073 130.747C88.9834 130.744 88.9598 130.739 88.9368 130.731C88.9218 130.726 88.9088 130.717 88.8992 130.704C88.8922 130.693 88.8883 130.68 88.8878 130.667V127.421C88.885 127.392 88.8891 127.363 88.8998 127.336C88.9105 127.309 88.9275 127.285 88.9493 127.265C88.988 127.236 89.0351 127.22 89.0836 127.22H89.3112C89.3567 127.219 89.4022 127.224 89.4466 127.234C89.4817 127.242 89.515 127.257 89.5445 127.278C89.5769 127.302 89.6054 127.332 89.6287 127.365C89.6603 127.41 89.6889 127.456 89.714 127.505L90.5368 129.049C90.5881 129.144 90.6358 129.235 90.6836 129.325L90.8202 129.59C90.8635 129.677 90.9067 129.764 90.9499 129.847C90.9932 129.93 91.0353 130.016 91.0763 130.101C91.0763 129.959 91.0706 129.809 91.0694 129.654C91.0683 129.499 91.0694 129.35 91.0694 129.207V127.299C91.0694 127.286 91.0734 127.273 91.0808 127.263C91.0904 127.25 91.1034 127.24 91.1184 127.235C91.1413 127.225 91.1655 127.219 91.1901 127.216C91.228 127.214 91.266 127.214 91.3039 127.216C91.3418 127.214 91.3798 127.214 91.4177 127.216C91.4424 127.219 91.4666 127.225 91.4894 127.235C91.5041 127.24 91.5167 127.25 91.5258 127.263C91.5333 127.273 91.5373 127.286 91.5372 127.299L91.5395 130.544Z" fill="white"/>
<path d="M95.4122 128.937C95.4154 129.197 95.3813 129.456 95.3109 129.707C95.2525 129.92 95.1505 130.119 95.0116 130.29C94.8767 130.451 94.7055 130.578 94.512 130.66C94.289 130.75 94.0502 130.794 93.8099 130.789C93.5771 130.795 93.3452 130.757 93.127 130.675C92.9422 130.602 92.7784 130.484 92.6502 130.332C92.517 130.168 92.4211 129.977 92.3691 129.772C92.3041 129.521 92.2731 129.262 92.2769 129.003C92.2738 128.747 92.3075 128.492 92.3771 128.246C92.4363 128.035 92.539 127.838 92.6787 127.669C92.8142 127.509 92.9858 127.383 93.1794 127.303C93.4022 127.212 93.6411 127.167 93.8816 127.172C94.1121 127.167 94.3416 127.205 94.5576 127.287C94.7423 127.36 94.9064 127.477 95.0355 127.629C95.1697 127.791 95.2669 127.98 95.32 128.184C95.3851 128.429 95.4162 128.683 95.4122 128.937ZM94.9183 128.97C94.9192 128.783 94.9016 128.597 94.866 128.414C94.8355 128.256 94.7756 128.104 94.6896 127.968C94.6075 127.843 94.4941 127.741 94.3607 127.673C94.2015 127.598 94.0268 127.562 93.8508 127.567C93.6743 127.561 93.4993 127.601 93.3421 127.681C93.2079 127.755 93.0932 127.859 93.0075 127.986C92.9188 128.121 92.8562 128.272 92.8232 128.43C92.7862 128.606 92.7679 128.785 92.7686 128.964C92.7673 129.156 92.7844 129.347 92.8198 129.535C92.8485 129.694 92.9072 129.847 92.9928 129.984C93.0737 130.11 93.1864 130.211 93.3194 130.278C93.4798 130.353 93.6557 130.389 93.8326 130.383C94.0109 130.389 94.1879 130.349 94.347 130.269C94.4845 130.196 94.6019 130.09 94.6884 129.96C94.7771 129.821 94.8385 129.666 94.8694 129.504C94.9042 129.328 94.9206 129.149 94.9183 128.97Z" fill="white"/>
<path d="M99.4488 130.637C99.4433 130.66 99.4319 130.681 99.4158 130.699C99.3991 130.715 99.3789 130.727 99.3567 130.734C99.3262 130.743 99.295 130.749 99.2633 130.751C99.2258 130.751 99.1803 130.751 99.1268 130.751C99.0733 130.751 99.0232 130.751 98.9834 130.751C98.951 130.749 98.919 130.743 98.8878 130.734C98.8661 130.727 98.8465 130.715 98.8309 130.699C98.8168 130.68 98.8067 130.659 98.8013 130.637L98.0661 127.981H98.0559L97.3787 130.637C97.3746 130.659 97.3652 130.68 97.3514 130.699C97.3365 130.715 97.3177 130.727 97.2968 130.734C97.2672 130.743 97.2367 130.749 97.2058 130.751C97.1694 130.751 97.1216 130.751 97.0635 130.751C97.0055 130.751 96.9497 130.751 96.9144 130.751C96.8813 130.749 96.8485 130.743 96.8166 130.734C96.7947 130.727 96.7748 130.715 96.7585 130.699C96.7439 130.681 96.7341 130.66 96.7301 130.637L95.8026 127.388C95.7939 127.356 95.7881 127.323 95.7855 127.29C95.7843 127.28 95.7857 127.27 95.7895 127.26C95.7933 127.251 95.7993 127.243 95.8071 127.236C95.8286 127.22 95.8544 127.211 95.8811 127.211C95.9164 127.211 95.9619 127.211 96.0199 127.211C96.078 127.211 96.1201 127.211 96.1531 127.211C96.1783 127.212 96.2033 127.217 96.2271 127.226C96.2421 127.231 96.2548 127.241 96.2623 127.256C96.2696 127.271 96.2746 127.288 96.2771 127.305L97.0669 130.252L97.8158 127.31C97.8197 127.293 97.8262 127.276 97.8351 127.26C97.8447 127.246 97.8586 127.235 97.8749 127.229C97.8998 127.22 97.9258 127.214 97.9523 127.212C97.9853 127.212 98.0297 127.212 98.0832 127.212C98.1234 127.21 98.1636 127.21 98.2038 127.212C98.2288 127.214 98.2534 127.22 98.2767 127.229C98.2928 127.235 98.3065 127.246 98.3154 127.26C98.3242 127.276 98.331 127.293 98.3358 127.31L99.1416 130.252L99.9143 127.308C99.9204 127.29 99.9261 127.274 99.9314 127.26C99.9345 127.253 99.9392 127.246 99.9451 127.241C99.951 127.236 99.9579 127.232 99.9655 127.229C99.9887 127.22 100.013 127.214 100.038 127.212C100.123 127.205 100.208 127.205 100.293 127.212C100.318 127.214 100.342 127.223 100.362 127.238C100.369 127.245 100.375 127.254 100.378 127.263C100.382 127.273 100.383 127.283 100.382 127.293C100.38 127.326 100.375 127.358 100.367 127.39L99.4488 130.637Z" fill="white"/>
</g>
<defs>
<clipPath id="clip0_5_1610">
<rect width="186.019" height="205.7" fill="white" transform="translate(0.867188)"/>
</clipPath>
</defs>
</svg>
