<svg width="201" height="216" viewBox="0 0 201 216" fill="none" xmlns="http://www.w3.org/2000/svg">
<g clip-path="url(#clip0_5_1875)">
<path d="M163.943 35.465H157.997C157.178 32.5492 156.006 29.7485 154.507 27.1274L158.815 22.7449C159.471 22.036 159.83 21.0952 159.816 20.1218C159.802 19.1484 159.416 18.2188 158.74 17.5298L150.446 9.00594C150.104 8.65744 149.697 8.38097 149.25 8.19233C148.803 8.0037 148.323 7.90661 147.839 7.90661C147.355 7.90661 146.875 8.0037 146.428 8.19233C145.981 8.38097 145.574 8.65744 145.232 9.00594L140.859 13.4541C138.306 12.0018 135.59 10.8687 132.769 10.0796V2.09262C132.766 1.54226 132.552 1.01492 132.171 0.623716C131.79 0.232508 131.274 0.0085923 130.733 1.93772e-10L115.653 1.93772e-10C115.106 -7.54122e-06 114.582 0.220114 114.194 0.612245C113.807 1.00438 113.587 1.53662 113.585 2.09262V10.0796C110.765 10.8727 108.05 12.0055 105.495 13.4541L99.9906 7.83363C99.8003 7.63819 99.5738 7.48304 99.3242 7.37717C99.0746 7.27129 98.8068 7.21677 98.5364 7.21677C98.2659 7.21677 97.9982 7.27129 97.7486 7.37717C97.499 7.48304 97.2725 7.63819 97.0822 7.83363L86.4504 18.6254C86.2582 18.819 86.1057 19.0493 86.0016 19.3032C85.8975 19.5571 85.8439 19.8294 85.8439 20.1045C85.8439 20.3796 85.8975 20.6519 86.0016 20.9058C86.1057 21.1596 86.2582 21.39 86.4504 21.5836L91.8363 27.0616C90.3417 29.685 89.1695 32.4852 88.3462 35.3992H80.806C80.5354 35.3978 80.2672 35.4509 80.017 35.5556C79.7667 35.6602 79.5393 35.8143 79.348 36.0089C79.1567 36.2035 79.0052 36.4348 78.9023 36.6893C78.7994 36.9439 78.7471 37.2166 78.7486 37.4919V52.8304C78.7471 53.1057 78.7994 53.3784 78.9023 53.633C79.0052 53.8875 79.1567 54.1188 79.348 54.3134C79.5393 54.508 79.7667 54.6621 80.017 54.7667C80.2672 54.8714 80.5354 54.9245 80.806 54.9231H88.1631C88.9423 57.9328 90.0933 60.8301 91.5886 63.5455L86.4504 68.7716C86.2579 68.9661 86.1052 69.1974 86.0009 69.4522C85.8967 69.707 85.843 69.9802 85.843 70.2562C85.843 70.5321 85.8967 70.8054 86.0009 71.0601C86.1052 71.3149 86.2579 71.5462 86.4504 71.7407L97.0822 82.5544C97.2725 82.7498 97.499 82.905 97.7486 83.0109C97.9982 83.1168 98.2659 83.1713 98.5364 83.1713C98.8068 83.1713 99.0746 83.1168 99.3242 83.0109C99.5738 82.905 99.8003 82.7498 99.9906 82.5544L105.032 77.4269C107.734 79.0255 110.631 80.2558 113.649 81.0863V86.6629C113.652 87.6577 114.043 88.6108 114.735 89.3131C115.428 90.0155 116.366 90.4099 117.344 90.4099H129.128C130.105 90.4099 131.042 90.0152 131.733 89.3125C132.424 88.6098 132.812 87.6567 132.812 86.6629V81.0753C135.83 80.2448 138.727 79.0145 141.43 77.416L145.318 81.3711C145.66 81.7196 146.067 81.9961 146.514 82.1847C146.961 82.3734 147.441 82.4705 147.925 82.4705C148.409 82.4705 148.889 82.3734 149.336 82.1847C149.783 81.9961 150.19 81.7196 150.532 81.3711L158.74 72.9349C159.083 72.5869 159.354 72.1736 159.54 71.7187C159.725 71.2637 159.821 70.776 159.821 70.2835C159.821 69.791 159.725 69.3034 159.54 68.8484C159.354 68.3935 159.083 67.9802 158.74 67.6322L154.787 63.5455C156.282 60.8301 157.433 57.9328 158.212 54.9231H163.943C164.921 54.9231 165.859 54.5286 166.551 53.8263C167.244 53.1239 167.635 52.1708 167.637 51.1761V39.212C167.635 38.2172 167.244 37.2642 166.551 36.5618C165.859 35.8594 164.921 35.465 163.943 35.465ZM123.193 65.4628C119.328 65.4628 115.55 64.2972 112.337 62.1134C109.124 59.9296 106.619 56.8256 105.14 53.194C103.661 49.5625 103.274 45.5664 104.028 41.7111C104.782 37.8559 106.643 34.3146 109.376 31.5351C112.109 28.7556 115.591 26.8628 119.381 26.0959C123.171 25.3291 127.1 25.7226 130.671 27.2269C134.241 28.7311 137.293 31.2785 139.44 34.5468C141.587 37.8151 142.733 41.6576 142.733 45.5884C142.733 50.8595 140.674 55.9146 137.01 59.6418C133.345 63.3689 128.375 65.4628 123.193 65.4628Z" fill="#DBF0FD"/>
<path d="M90.1021 35.8929H86.7952C86.3434 34.2712 85.6919 32.714 84.8562 31.2585L87.2368 28.8372C87.619 28.4452 87.8334 27.9156 87.8334 27.3636C87.8334 26.8115 87.619 26.2819 87.2368 25.89L82.6049 21.1788C82.2178 20.7894 81.6952 20.571 81.1507 20.571C80.6062 20.571 80.0837 20.7894 79.6965 21.1788L77.2729 23.6549C75.8522 22.8471 74.3403 22.218 72.7703 21.7814V17.3332C72.7675 17.0261 72.6463 16.7324 72.4327 16.5152C72.2192 16.298 71.9304 16.1747 71.6285 16.1719H63.2588C62.9568 16.1747 62.668 16.298 62.4545 16.5152C62.241 16.7324 62.1198 17.0261 62.117 17.3332V21.7814C60.547 22.218 59.035 22.8471 57.6143 23.6549L54.5444 20.5324C54.4391 20.4231 54.3134 20.3362 54.1747 20.277C54.0359 20.2177 53.887 20.1871 53.7365 20.1871C53.586 20.1871 53.4371 20.2177 53.2983 20.277C53.1596 20.3362 53.0339 20.4231 52.9286 20.5324L47.0149 26.5364C46.9071 26.6444 46.8215 26.7732 46.7631 26.9152C46.7046 27.0572 46.6745 27.2096 46.6745 27.3636C46.6745 27.5175 46.7046 27.6699 46.7631 27.8119C46.8215 27.9539 46.9071 28.0827 47.0149 28.1907L50.031 31.2585C49.1909 32.7118 48.5392 34.2695 48.0921 35.8929H43.8803C43.7295 35.8915 43.5798 35.9204 43.44 35.9781C43.3003 36.0359 43.1731 36.1212 43.066 36.2292C42.9588 36.3371 42.8737 36.4657 42.8157 36.6073C42.7576 36.7489 42.7277 36.9008 42.7277 37.0542V45.5562C42.7277 45.8671 42.8492 46.1653 43.0653 46.3851C43.2815 46.605 43.5746 46.7285 43.8803 46.7285H47.9628C48.4021 48.3912 49.0426 49.9921 49.8694 51.4944L47.0149 54.4088C46.9074 54.5159 46.822 54.6437 46.7637 54.7848C46.7054 54.9259 46.6754 55.0774 46.6754 55.2305C46.6754 55.3835 46.7054 55.535 46.7637 55.6761C46.822 55.8172 46.9074 55.9451 47.0149 56.0522L52.9286 62.0671C53.1442 62.2825 53.4343 62.4033 53.7365 62.4033C54.0387 62.4033 54.3288 62.2825 54.5444 62.0671L57.3451 59.2185C58.843 60.1008 60.447 60.7821 62.117 61.2454V64.335C62.117 64.8871 62.3326 65.4166 62.7164 65.807C63.1002 66.1973 63.6208 66.4167 64.1636 66.4167H70.7236C71.2664 66.4167 71.787 66.1973 72.1708 65.807C72.5546 65.4166 72.7703 64.8871 72.7703 64.335V61.2673C74.4403 60.804 76.0443 60.1227 77.5422 59.2404L79.6965 61.4316C79.8868 61.6271 80.1133 61.7822 80.3629 61.8881C80.6125 61.994 80.8803 62.0485 81.1507 62.0485C81.4212 62.0485 81.6889 61.994 81.9385 61.8881C82.1881 61.7822 82.4146 61.6271 82.6049 61.4316L87.2368 56.7205C87.619 56.3286 87.8334 55.7989 87.8334 55.2469C87.8334 54.6949 87.619 54.1652 87.2368 53.7733L85.0178 51.4944C85.8476 49.9871 86.4847 48.3781 86.9136 46.7066H90.1452C90.69 46.7037 91.2116 46.4823 91.5969 46.0905C91.9821 45.6987 92.1998 45.1681 92.2026 44.614V37.9746C92.2012 37.697 92.1456 37.4224 92.0388 37.1669C91.9321 36.9114 91.7765 36.68 91.581 36.4863C91.3855 36.2925 91.1541 36.1403 90.9002 36.0384C90.6463 35.9366 90.375 35.8871 90.1021 35.8929ZM67.4382 52.59C65.2891 52.59 63.1881 51.942 61.401 50.7277C59.6139 49.5135 58.2208 47.7876 57.3979 45.7683C56.5749 43.7489 56.359 41.5268 56.7775 39.3827C57.196 37.2386 58.2301 35.2688 59.7491 33.7223C61.268 32.1758 63.2036 31.1221 65.3112 30.6943C67.4189 30.2665 69.6039 30.4839 71.5901 31.3189C73.5763 32.154 75.2745 33.5692 76.47 35.3857C77.6656 37.2022 78.3048 39.3384 78.307 41.5244C78.3098 42.9774 78.0307 44.4167 77.4856 45.7599C76.9406 47.103 76.1403 48.3235 75.1306 49.3515C74.1209 50.3795 72.9217 51.1947 71.6017 51.7504C70.2817 52.3062 68.8668 52.5915 67.4382 52.59Z" fill="#73CBFD"/>
<path d="M98.6657 203.422C144.373 203.422 181.425 165.735 181.425 119.246C181.425 72.7572 144.373 35.0703 98.6657 35.0703C52.9587 35.0703 15.9059 72.7572 15.9059 119.246C15.9059 165.735 52.9587 203.422 98.6657 203.422Z" fill="url(#paint0_linear_5_1875)"/>
<path d="M200.394 120.112C200.393 117.25 199.569 114.451 198.023 112.06C196.477 109.669 194.277 107.789 191.694 106.654C189.112 105.518 186.259 105.176 183.487 105.668C180.715 106.161 178.145 107.468 176.095 109.428C174.044 111.388 172.602 113.915 171.945 116.698C171.289 119.481 171.448 122.398 172.401 125.091C173.355 127.784 175.062 130.134 177.312 131.852C179.563 133.57 182.258 134.581 185.066 134.761V138.902C185.066 138.902 188.459 137.062 189.375 134.377C192.519 133.603 195.316 131.774 197.315 129.187C199.314 126.599 200.398 123.403 200.394 120.112Z" fill="#EEC84A"/>
<path d="M140.105 91.4727H57.2373C53.293 91.4727 50.0956 94.7248 50.0956 98.7366V149.113C50.0956 153.125 53.293 156.377 57.2373 156.377H140.105C144.049 156.377 147.246 153.125 147.246 149.113V98.7366C147.246 94.7248 144.049 91.4727 140.105 91.4727Z" fill="#EBEDED"/>
<path d="M98.7734 123.804H98.558C98.2796 123.801 98.0061 123.729 97.7609 123.595L55.8478 99.8644C55.4664 99.6436 55.1869 99.2777 55.0707 98.8473C54.9546 98.4168 55.0113 97.9571 55.2284 97.5691C55.4455 97.1812 55.8053 96.8969 56.2285 96.7788C56.6517 96.6606 57.1037 96.7183 57.4851 96.9392L98.698 120.221L139.889 96.9392C140.078 96.8313 140.286 96.7622 140.501 96.736C140.716 96.7099 140.934 96.727 141.143 96.7865C141.351 96.846 141.546 96.9468 141.717 97.0829C141.887 97.2191 142.029 97.388 142.135 97.5801C142.241 97.7722 142.309 97.9836 142.335 98.2024C142.361 98.4211 142.344 98.6429 142.285 98.855C142.227 99.0671 142.128 99.2655 141.994 99.4387C141.86 99.6119 141.694 99.7565 141.505 99.8644L99.5705 123.552C99.3297 123.702 99.0557 123.789 98.7734 123.804Z" fill="#E06D79"/>
<path d="M153.279 196.126C169.228 196.126 182.158 182.975 182.158 166.752C182.158 150.53 169.228 137.379 153.279 137.379C137.329 137.379 124.4 150.53 124.4 166.752C124.4 182.975 137.329 196.126 153.279 196.126Z" fill="#E06D79"/>
<path d="M149.293 177.326L141.397 169.174C141.324 169.104 141.266 169.019 141.226 168.925C141.187 168.83 141.166 168.729 141.166 168.626C141.166 168.524 141.187 168.423 141.226 168.328C141.266 168.234 141.324 168.149 141.397 168.079L145.544 163.926C145.688 163.782 145.881 163.701 146.083 163.701C146.285 163.701 146.478 163.782 146.622 163.926L149.325 166.731C149.395 166.805 149.478 166.864 149.571 166.905C149.663 166.945 149.763 166.966 149.864 166.966C149.965 166.966 150.064 166.945 150.157 166.905C150.25 166.864 150.333 166.805 150.403 166.731L162.133 154.8C162.276 154.655 162.47 154.574 162.672 154.574C162.873 154.574 163.067 154.655 163.21 154.8L167.325 158.985C167.467 159.131 167.547 159.328 167.547 159.533C167.547 159.738 167.467 159.935 167.325 160.081L150.381 177.315C150.312 177.391 150.229 177.453 150.135 177.495C150.042 177.538 149.941 177.56 149.839 177.561C149.737 177.562 149.636 177.542 149.542 177.501C149.448 177.461 149.363 177.401 149.293 177.326Z" fill="white"/>
<path d="M60.084 169.211C70.0728 165.057 74.8592 153.453 70.7747 143.293C66.6902 133.133 55.2815 128.265 45.2927 132.419C35.3039 136.574 30.5174 148.178 34.6019 158.337C38.6865 168.497 50.0952 173.365 60.084 169.211Z" fill="#EEC84A"/>
<path d="M61.7938 144.535C61.2768 144.535 60.792 144.535 60.3181 144.436C59.8726 144.384 59.4303 144.307 58.9931 144.206C58.4054 144.074 57.8291 143.895 57.2697 143.669C56.0357 143.184 54.9028 142.467 53.9304 141.554C53.8695 141.494 53.8006 141.442 53.7257 141.401C53.5893 141.308 53.4352 141.244 53.2733 141.215H53.0363C52.7072 141.216 52.3909 141.345 52.1531 141.576C49.9927 143.546 47.1795 144.61 44.2789 144.556C44.1077 144.558 43.9385 144.594 43.7809 144.662C43.6233 144.73 43.4804 144.828 43.3604 144.952C43.2403 145.077 43.1455 145.224 43.0813 145.385C43.0171 145.546 42.9848 145.719 42.9863 145.893C42.9863 149.333 43.9665 158.328 52.5624 161.67C52.7143 161.726 52.8746 161.756 53.0363 161.758H53.2841L53.5103 161.692C54.5237 161.301 55.4918 160.797 56.3971 160.191C57.4 159.514 58.3092 158.703 59.1009 157.781L59.5425 157.244C60.3375 156.197 60.9998 155.052 61.5137 153.836C61.6753 153.453 61.8261 153.058 61.9554 152.675C62.2701 151.763 62.5185 150.83 62.6986 149.881C62.9426 148.573 63.0724 147.246 63.0864 145.915C63.0937 145.737 63.0657 145.56 63.0041 145.393C62.9425 145.227 62.8486 145.075 62.728 144.946C62.6074 144.817 62.4625 144.714 62.302 144.644C62.1415 144.573 61.9687 144.536 61.7938 144.535Z" fill="#F9FBFC"/>
<path d="M175.469 37.7891H95.9081C92.8056 37.7891 89.8301 39.0426 87.6363 41.274C85.4424 43.5054 84.21 46.5318 84.21 49.6874C84.21 52.8431 85.4424 55.8694 87.6363 58.1008C89.8301 60.3322 92.8056 61.5858 95.9081 61.5858H101.757L107.412 67.3377L113.068 61.5858H175.469C177.005 61.5858 178.526 61.278 179.945 60.6801C181.365 60.0821 182.654 59.2057 183.741 58.1008C184.827 56.996 185.688 55.6843 186.276 54.2407C186.864 52.7971 187.167 51.2499 187.167 49.6874C187.167 48.1249 186.864 46.5777 186.276 45.1341C185.688 43.6905 184.827 42.3789 183.741 41.274C182.654 40.1691 181.365 39.2927 179.945 38.6948C178.526 38.0968 177.005 37.7891 175.469 37.7891Z" fill="#EEC84A"/>
<path d="M95.908 73.482H175.469C177.035 73.4337 178.596 73.7058 180.057 74.2823C181.519 74.8588 182.852 75.7278 183.977 76.838C185.102 77.9481 185.996 79.2767 186.607 80.7451C187.218 82.2134 187.533 83.7915 187.533 85.3859C187.533 86.9802 187.218 88.5583 186.607 90.0267C185.996 91.495 185.102 92.8236 183.977 93.9338C182.852 95.0439 181.519 95.913 180.057 96.4895C178.596 97.0659 177.035 97.3381 175.469 97.2897H169.619L163.964 103.042L158.309 97.2897H95.908C92.8655 97.1958 89.9785 95.9005 87.8591 93.6783C85.7396 91.4562 84.5542 88.4819 84.5542 85.3859C84.5542 82.2899 85.7396 79.3155 87.8591 77.0934C89.9785 74.8712 92.8655 73.5759 95.908 73.482Z" fill="#73CBFD"/>
<path d="M171.462 87.2014H100.368C100.196 87.2028 100.025 87.1696 99.8655 87.1036C99.7062 87.0377 99.5612 86.9402 99.439 86.817C99.3169 86.6938 99.2199 86.5471 99.1537 86.3856C99.0875 86.224 99.0535 86.0507 99.0535 85.8757C99.0535 85.5212 99.1919 85.1812 99.4384 84.9305C99.6848 84.6799 100.019 84.5391 100.368 84.5391H171.462C171.804 84.5476 172.13 84.6922 172.37 84.942C172.609 85.1917 172.743 85.5268 172.743 85.8757C172.743 86.2235 172.609 86.5575 172.369 86.8055C172.129 87.0534 171.803 87.1956 171.462 87.2014Z" fill="white"/>
<path d="M152.708 53.4787H100.357C100.185 53.4802 100.014 53.447 99.8548 53.381C99.6954 53.315 99.5504 53.2176 99.4283 53.0944C99.3061 52.9711 99.2091 52.8245 99.143 52.6629C99.0768 52.5014 99.0427 52.3281 99.0427 52.1531C99.0427 51.7985 99.1812 51.4586 99.4276 51.2079C99.6741 50.9572 100.008 50.8164 100.357 50.8164H152.708C153.054 50.8193 153.386 50.9614 153.63 51.2118C153.874 51.4621 154.011 51.8004 154.011 52.1531C154.011 52.3271 153.978 52.4995 153.912 52.6604C153.847 52.8212 153.75 52.9674 153.629 53.0905C153.508 53.2136 153.365 53.3112 153.207 53.3778C153.048 53.4445 152.879 53.4787 152.708 53.4787Z" fill="white"/>
<path d="M136.345 46.1585H100.357C100.184 46.1599 100.012 46.1264 99.8522 46.0597C99.6921 45.993 99.5467 45.8946 99.4244 45.7702C99.302 45.6458 99.2053 45.4979 99.1398 45.3351C99.0742 45.1722 99.0412 44.9978 99.0426 44.8218C99.0426 44.6468 99.0767 44.4735 99.1429 44.312C99.2091 44.1504 99.306 44.0038 99.4282 43.8805C99.5504 43.7573 99.6953 43.6599 99.8547 43.5939C100.014 43.5279 100.185 43.4947 100.357 43.4961H136.345C136.692 43.4961 137.025 43.6354 137.271 43.8838C137.517 44.1321 137.657 44.4692 137.66 44.8218C137.66 45.1763 137.521 45.5163 137.275 45.767C137.028 46.0177 136.694 46.1585 136.345 46.1585Z" fill="white"/>
<path d="M114.434 202.787C118.655 192.488 113.869 180.658 103.743 176.365C93.6178 172.072 81.9875 176.94 77.7665 187.239C73.5454 197.538 78.3319 209.367 88.4574 213.66C98.583 217.954 110.213 213.085 114.434 202.787Z" fill="#73CBFD"/>
<path d="M103.912 189.302C103.912 190.786 103.479 192.237 102.668 193.471C101.857 194.706 100.705 195.667 99.3566 196.236C98.0083 196.804 96.5247 196.952 95.0933 196.663C93.662 196.373 92.3473 195.658 91.3153 194.609C90.2834 193.559 89.5807 192.222 89.296 190.766C89.0113 189.31 89.1574 187.801 89.7158 186.43C90.2743 185.058 91.2201 183.886 92.4335 183.062C93.6469 182.237 95.0735 181.797 96.5329 181.797C98.4898 181.797 100.367 182.588 101.75 183.995C103.134 185.402 103.912 187.311 103.912 189.302Z" fill="#F9FBFC"/>
<path d="M84.1668 211.093C84.1185 209.447 84.3955 207.808 84.9814 206.273C85.5673 204.738 86.4502 203.338 87.5778 202.156C88.7053 200.975 90.0546 200.035 91.5456 199.394C93.0367 198.752 94.6392 198.422 96.2581 198.422C97.8771 198.422 99.4795 198.752 100.971 199.394C102.462 200.035 103.811 200.975 104.938 202.156C106.066 203.338 106.949 204.738 107.535 206.273C108.121 207.808 108.398 209.447 108.349 211.093C108.349 211.093 102.802 215.891 96.0911 216.001C89.3803 216.111 84.1668 211.093 84.1668 211.093Z" fill="#F9FBFC"/>
<path d="M63.9481 42.8398H34.5303C33.1323 42.8398 31.999 43.9926 31.999 45.4145V63.3059C31.999 64.7278 33.1323 65.8806 34.5303 65.8806H63.9481C65.3462 65.8806 66.4795 64.7278 66.4795 63.3059V45.4145C66.4795 43.9926 65.3462 42.8398 63.9481 42.8398Z" fill="#EBEDED"/>
<path d="M49.277 54.3089H49.2016C49.1036 54.3056 49.0078 54.2794 48.9215 54.2322L34.0456 45.8289C33.978 45.7911 33.9185 45.7401 33.8704 45.6788C33.8224 45.6175 33.7868 45.5471 33.7657 45.4716C33.7447 45.3962 33.7386 45.3172 33.7478 45.2394C33.757 45.1615 33.7814 45.0863 33.8194 45.0181C33.8565 44.9493 33.9067 44.8888 33.9669 44.8399C34.0272 44.791 34.0965 44.7548 34.1707 44.7334C34.2448 44.712 34.3224 44.7058 34.399 44.7152C34.4755 44.7246 34.5495 44.7493 34.6165 44.788L49.2447 53.0489L63.8728 44.788C63.9398 44.7493 64.0138 44.7246 64.0903 44.7152C64.1669 44.7058 64.2445 44.712 64.3186 44.7334C64.3928 44.7548 64.4621 44.791 64.5224 44.8399C64.5827 44.8888 64.6328 44.9493 64.6699 45.0181C64.7438 45.1565 64.7616 45.3188 64.7193 45.4704C64.677 45.6219 64.5781 45.7506 64.4437 45.8289L49.5678 54.2322C49.4781 54.2806 49.3785 54.3069 49.277 54.3089Z" fill="#E06D79"/>
<path d="M72.3843 49.045C77.0326 44.3171 77.0326 36.6517 72.3843 31.9238C67.7359 27.1959 60.1994 27.1959 55.5511 31.9238C50.9028 36.6517 50.9028 44.3171 55.5511 49.045C60.1994 53.7729 67.7359 53.7729 72.3843 49.045Z" fill="#E06D79"/>
<path d="M70.2497 39.7911C70.2582 40.4978 70.1377 41.1999 69.8942 41.8618C69.6923 42.4319 69.3469 42.9382 68.8924 43.3299C68.4652 43.667 67.9355 43.8414 67.3951 43.823C67.039 43.8302 66.6881 43.7353 66.3826 43.5491C66.1041 43.3767 65.8857 43.12 65.7578 42.815H65.6286C65.3734 43.1443 65.0451 43.4074 64.6706 43.5826C64.2961 43.7578 63.8861 43.8402 63.4742 43.823C63.0778 43.8455 62.6811 43.783 62.31 43.6395C61.9389 43.4961 61.6015 43.2749 61.3198 42.9903C60.773 42.3656 60.4905 41.5467 60.5335 40.7114C60.5175 40.2154 60.6053 39.7216 60.791 39.2626C60.9767 38.8037 61.2561 38.39 61.6107 38.0491C61.9708 37.7069 62.3945 37.4415 62.857 37.2683C63.3195 37.0952 63.8113 37.018 64.3036 37.0411C64.7941 37.047 65.2836 37.0873 65.7686 37.1616C66.2145 37.2306 66.654 37.3368 67.0827 37.4794L66.8996 41.3031C66.8996 42.0262 67.0935 42.3987 67.4921 42.3987C67.8906 42.3987 68.0738 42.1467 68.2676 41.6646C68.4908 41.0518 68.5932 40.4003 68.5693 39.7473C68.5809 38.9843 68.403 38.2306 68.0522 37.5561C67.724 36.9261 67.2174 36.4108 66.598 36.077C65.9338 35.724 65.1929 35.5469 64.4437 35.5621C63.5014 35.5368 62.5691 35.7634 61.7399 36.2194C60.9756 36.6442 60.3587 37.2985 59.9734 38.0929C59.5549 38.9732 59.3481 39.9421 59.3701 40.9196C59.3268 41.5127 59.3997 42.1087 59.5846 42.6729C59.7695 43.2371 60.0628 43.7584 60.4473 44.2064C60.8922 44.6148 61.4132 44.9281 61.9794 45.1276C62.5457 45.3271 63.1456 45.4088 63.7435 45.3678C64.3438 45.36 64.9422 45.2977 65.5316 45.1815C66.1877 45.0567 66.8326 44.8771 67.4598 44.6447V46.1457C66.2985 46.6313 65.0528 46.8736 63.7973 46.8578C62.1358 46.9593 60.501 46.3972 59.2409 45.2911C58.6756 44.7222 58.237 44.0367 57.9545 43.2806C57.6721 42.5246 57.5524 41.7157 57.6036 40.9086C57.6395 39.6956 57.9687 38.5103 58.5623 37.4575C59.1114 36.4211 59.9364 35.5629 60.9428 34.9814C62.0306 34.3722 63.2559 34.0625 64.4975 34.083C65.5484 34.0665 66.5874 34.311 67.5244 34.7951C68.3899 35.242 69.1058 35.9397 69.5818 36.8001C70.0581 37.7204 70.2884 38.7518 70.2497 39.7911ZM62.3647 40.7772C62.3647 41.8728 62.8063 42.4315 63.6896 42.4315C63.8963 42.4458 64.1032 42.4072 64.2914 42.3192C64.4795 42.2311 64.643 42.0965 64.7668 41.9276C65.0528 41.4404 65.2052 40.8843 65.2085 40.317L65.3054 38.5859C65.0155 38.5211 64.7189 38.4916 64.4221 38.4983C64.1444 38.4808 63.8662 38.5257 63.6074 38.6299C63.3487 38.734 63.1156 38.8948 62.9248 39.1009C62.5396 39.5693 62.3398 40.167 62.3647 40.7772Z" fill="white"/>
<path d="M65.3377 73.0664H0.394531V116.321H65.3377V73.0664Z" fill="#F3F8FD"/>
<path d="M65.3377 73.0664H0.394531V79.4976H65.3377V73.0664Z" fill="#E06D79"/>
<path d="M18.4481 88.9963H8.68884C8.44888 88.9977 8.211 88.9509 7.98889 88.8585C7.76678 88.7661 7.56482 88.6299 7.39463 88.4578C7.22445 88.2858 7.08939 88.0812 6.99723 87.8558C6.90507 87.6304 6.85763 87.3888 6.85764 87.1447C6.85619 86.9002 6.90265 86.6579 6.9943 86.4318C7.08594 86.2058 7.22095 86.0006 7.39142 85.8282C7.5619 85.6559 7.76443 85.5198 7.98719 85.4279C8.20995 85.336 8.44848 85.2902 8.68884 85.2931H18.4481C18.9309 85.2931 19.3939 85.4882 19.7353 85.8354C20.0767 86.1827 20.2685 86.6536 20.2685 87.1447C20.2685 87.3878 20.2214 87.6286 20.13 87.8533C20.0385 88.0779 19.9044 88.282 19.7353 88.454C19.5663 88.6259 19.3656 88.7623 19.1447 88.8553C18.9239 88.9484 18.6872 88.9963 18.4481 88.9963Z" fill="#7CB5F1"/>
<path d="M18.4481 95.0439H8.68884C8.44939 95.0468 8.21175 95.0013 7.9897 94.9101C7.76765 94.8189 7.5656 94.6838 7.39527 94.5126C7.22494 94.3414 7.08971 94.1375 6.99742 93.9128C6.90513 93.688 6.85762 93.4469 6.85764 93.2033C6.85619 92.9588 6.90265 92.7165 6.9943 92.4904C7.08594 92.2644 7.22095 92.0592 7.39142 91.8868C7.5619 91.7145 7.76443 91.5784 7.98719 91.4865C8.20995 91.3946 8.44848 91.3488 8.68884 91.3517H18.4481C18.9309 91.3517 19.3939 91.5468 19.7353 91.894C20.0767 92.2413 20.2685 92.7122 20.2685 93.2033C20.2657 93.6925 20.0726 94.1606 19.7315 94.5055C19.3905 94.8503 18.929 95.0439 18.4481 95.0439Z" fill="#D9DFDD"/>
<path d="M18.4481 101.102H8.68884C8.44848 101.105 8.20995 101.059 7.98719 100.967C7.76443 100.875 7.5619 100.739 7.39142 100.566C7.22095 100.394 7.08594 100.189 6.9943 99.9629C6.90265 99.7369 6.85619 99.4945 6.85764 99.25C6.85763 99.006 6.90507 98.7643 6.99723 98.5389C7.08939 98.3136 7.22445 98.109 7.39463 97.9369C7.56482 97.7648 7.76678 97.6287 7.98889 97.5363C8.211 97.4439 8.44888 97.397 8.68884 97.3985H18.4481C18.9309 97.3985 19.3939 97.5935 19.7353 97.9408C20.0767 98.288 20.2685 98.759 20.2685 99.25C20.2685 99.7411 20.0767 100.212 19.7353 100.559C19.3939 100.907 18.9309 101.102 18.4481 101.102Z" fill="#D9DFDD"/>
<path d="M18.4481 107.16H8.68884C8.44848 107.163 8.20995 107.117 7.98719 107.025C7.76443 106.934 7.5619 106.797 7.39142 106.625C7.22095 106.453 7.08594 106.248 6.9943 106.022C6.90265 105.795 6.85619 105.553 6.85764 105.309C6.85763 105.065 6.90507 104.823 6.99723 104.598C7.08939 104.372 7.22445 104.168 7.39463 103.995C7.56482 103.823 7.76678 103.687 7.98889 103.595C8.211 103.502 8.44888 103.456 8.68884 103.457H18.4481C18.9309 103.457 19.3939 103.652 19.7353 103.999C20.0767 104.347 20.2685 104.818 20.2685 105.309C20.2685 105.8 20.0767 106.271 19.7353 106.618C19.3939 106.965 18.9309 107.16 18.4481 107.16Z" fill="#D9DFDD"/>
<path d="M24.3079 87.7579H58.2929C58.5084 87.7579 58.6915 87.4402 58.6915 87.0348C58.6915 86.6295 58.5084 86.3008 58.2929 86.3008H24.3079C24.0925 86.3008 23.9094 86.6295 23.9094 87.0348C23.9094 87.4402 24.0925 87.7579 24.3079 87.7579Z" fill="#D9DFDD"/>
<path d="M37.2664 94.8705H58.293C58.5084 94.8705 58.6915 94.5418 58.6915 94.1364C58.6915 93.731 58.5084 93.4023 58.293 93.4023H37.2664C37.0402 93.4023 36.8679 93.731 36.8679 94.1364C36.8679 94.5418 37.0187 94.8705 37.2664 94.8705Z" fill="#D9DFDD"/>
<path d="M50.1172 91.2767H58.293C58.5084 91.2767 58.6915 90.948 58.6915 90.5427C58.6915 90.1373 58.5084 89.8086 58.293 89.8086H50.1172C49.9017 89.8086 49.7186 90.1373 49.7186 90.5427C49.7186 90.9371 49.9448 91.2767 50.1172 91.2767Z" fill="#D9DFDD"/>
<path d="M33.3563 91.2767H48.0921C48.3075 91.2767 48.4906 90.948 48.4906 90.5427C48.4906 90.1373 48.3075 89.8086 48.0921 89.8086H33.3563C33.1408 89.8086 32.9577 90.1373 32.9577 90.5427C32.9577 90.9371 33.1408 91.2767 33.3563 91.2767Z" fill="#D9DFDD"/>
<path d="M24.2433 91.2767H31.3958C31.6112 91.2767 31.7943 90.948 31.7943 90.5427C31.7943 90.1373 31.6112 89.8086 31.3958 89.8086H24.2433C24.0278 89.8086 23.8447 90.1373 23.8447 90.5427C23.8447 90.9371 24.0278 91.2767 24.2433 91.2767Z" fill="#D9DFDD"/>
<path d="M42.1568 107.665L40.3795 108.618C40.2089 108.692 40.0223 108.721 39.8379 108.7C39.6535 108.679 39.4774 108.611 39.3268 108.5C39.1762 108.39 39.0561 108.242 38.9782 108.071C38.9003 107.9 38.8672 107.711 38.8822 107.523L39.173 105.496C39.1987 105.328 39.1858 105.157 39.1353 104.995C39.0849 104.834 38.9982 104.686 38.8822 104.564L37.4495 103.14C37.3272 102.992 37.2456 102.814 37.2128 102.624C37.18 102.434 37.1973 102.238 37.263 102.056C37.3286 101.875 37.4402 101.715 37.5865 101.591C37.7327 101.468 37.9085 101.386 38.0958 101.354L40.0779 101.059C40.2426 101.03 40.3984 100.962 40.533 100.861C40.6676 100.76 40.7773 100.629 40.8534 100.478L41.7367 98.6591C41.8314 98.4931 41.9673 98.3553 42.1308 98.2595C42.2944 98.1637 42.4798 98.1133 42.6685 98.1133C42.8572 98.1133 43.0426 98.1637 43.2061 98.2595C43.3696 98.3553 43.5055 98.4931 43.6002 98.6591L44.4835 100.478C44.5596 100.629 44.6693 100.76 44.804 100.861C44.9386 100.962 45.0944 101.03 45.2591 101.059L47.2411 101.354C47.4204 101.4 47.5852 101.491 47.7197 101.62C47.8541 101.749 47.9537 101.911 48.0089 102.09C48.0641 102.27 48.073 102.46 48.0347 102.644C47.9964 102.828 47.9123 102.999 47.7905 103.14L46.3578 104.564C46.2399 104.685 46.1512 104.832 46.0989 104.994C46.0465 105.156 46.0319 105.327 46.0562 105.496L46.4009 107.501C46.4158 107.689 46.3828 107.878 46.3049 108.049C46.227 108.22 46.1069 108.368 45.9563 108.478C45.8057 108.589 45.6296 108.657 45.4452 108.678C45.2608 108.699 45.0742 108.671 44.9036 108.596L43.1263 107.643C42.9758 107.564 42.8082 107.525 42.6388 107.528C42.4694 107.532 42.3037 107.579 42.1568 107.665Z" fill="#EEC84A"/>
<path d="M187.738 70.3267C189.374 70.3267 190.7 68.9777 190.7 67.3137C190.7 65.6497 189.374 64.3008 187.738 64.3008C186.102 64.3008 184.775 65.6497 184.775 67.3137C184.775 68.9777 186.102 70.3267 187.738 70.3267Z" fill="#73CBFD"/>
<path d="M64.6699 207.827C66.3059 207.827 67.6321 206.478 67.6321 204.814C67.6321 203.15 66.3059 201.801 64.6699 201.801C63.0339 201.801 61.7076 203.15 61.7076 204.814C61.7076 206.478 63.0339 207.827 64.6699 207.827Z" fill="#73CBFD"/>
<path d="M142.938 203.544C142.936 203.994 142.802 204.433 142.555 204.807C142.307 205.18 141.957 205.471 141.547 205.641C141.138 205.812 140.687 205.856 140.254 205.767C139.82 205.677 139.421 205.459 139.109 205.14C138.797 204.821 138.585 204.415 138.499 203.973C138.413 203.532 138.458 203.074 138.628 202.658C138.798 202.242 139.085 201.887 139.454 201.637C139.822 201.387 140.255 201.254 140.697 201.254C140.992 201.254 141.285 201.313 141.557 201.428C141.83 201.544 142.077 201.712 142.285 201.925C142.493 202.138 142.658 202.391 142.77 202.668C142.882 202.946 142.939 203.244 142.938 203.544Z" fill="#E06D79"/>
<path d="M23.3708 66.3157C25.7504 66.3157 27.6795 64.3536 27.6795 61.9332C27.6795 59.5129 25.7504 57.5508 23.3708 57.5508C20.9912 57.5508 19.0621 59.5129 19.0621 61.9332C19.0621 64.3536 20.9912 66.3157 23.3708 66.3157Z" fill="#EEC84A"/>
<path d="M79.0287 14.4524C81.4083 14.4524 83.3374 12.4903 83.3374 10.0699C83.3374 7.64959 81.4083 5.6875 79.0287 5.6875C76.6491 5.6875 74.72 7.64959 74.72 10.0699C74.72 12.4903 76.6491 14.4524 79.0287 14.4524Z" fill="#E06D79"/>
<path d="M12.9652 70.3259C13.8576 70.3259 14.581 69.5901 14.581 68.6825C14.581 67.7748 13.8576 67.0391 12.9652 67.0391C12.0728 67.0391 11.3494 67.7748 11.3494 68.6825C11.3494 69.5901 12.0728 70.3259 12.9652 70.3259Z" fill="#EBEDED"/>
<path d="M186.025 149.213C186.917 149.213 187.641 148.477 187.641 147.569C187.641 146.662 186.917 145.926 186.025 145.926C185.133 145.926 184.409 146.662 184.409 147.569C184.409 148.477 185.133 149.213 186.025 149.213Z" fill="#EBEDED"/>
</g>
<defs>
<linearGradient id="paint0_linear_5_1875" x1="125.595" y1="-4.60182" x2="51.2198" y2="326.092" gradientUnits="userSpaceOnUse">
<stop stop-color="#73CBFD"/>
<stop offset="1" stop-color="#6142E5"/>
</linearGradient>
<clipPath id="clip0_5_1875">
<rect width="200" height="216" fill="white" transform="translate(0.394531)"/>
</clipPath>
</defs>
</svg>
