<svg width="215" height="215" viewBox="0 0 215 215" fill="none" xmlns="http://www.w3.org/2000/svg">
<path d="M60.8437 149.244C59.1393 152.065 56.1683 155.896 52.951 160.338L106.688 168.061C100.668 151.752 92.1838 134.626 104.821 106.294C110.751 92.9978 126.521 69.6176 120.013 54.0381C112.602 36.2866 97.9629 43.9627 94.2361 30.2188C88.4153 8.73774 70.0603 -6.1974 50.3592 4.49765C30.9148 15.0485 31.595 53.5535 57.2486 95.6595C72.2247 127.941 69.7463 134.513 60.8437 149.244Z" fill="url(#paint0_linear_5_2034)"/>
<mask id="mask0_5_2034" style="mask-type:luminance" maskUnits="userSpaceOnUse" x="36" y="0" width="86" height="154">
<path d="M104.821 106.294C110.751 92.9978 126.521 69.6176 120.013 54.0381C112.602 36.2866 97.9629 43.9627 94.2361 30.2188C88.4153 8.73774 70.0603 -6.1974 50.3592 4.49765C30.9148 15.0485 31.595 53.5535 57.2486 95.6595C72.2221 127.946 69.7437 134.518 60.8411 149.249C54.6085 159.562 82.5242 156.29 104.821 106.294Z" fill="white"/>
</mask>
<g mask="url(#mask0_5_2034)">
<g style="mix-blend-mode:soft-light">
<path d="M81.182 161.227C81.5651 154.192 81.5729 147.537 81.5729 140.491V138.143C81.3657 134.75 81.2524 131.398 81.1442 128.158C80.8993 120.841 80.6673 113.929 79.4203 106.594C79.3955 106.165 79.3929 105.75 79.3903 105.308C79.3812 103.735 79.3721 102.106 78.4547 100.551L78.4338 100.486C74.7188 61.6757 62.9091 22.9836 43.3357 -14.5199L43.6145 -14.6641C63.201 22.8628 75.0185 61.59 78.7466 100.418C79.69 102.04 79.6991 103.773 79.7082 105.304C79.7082 105.741 79.7082 106.154 79.7356 106.558C80.9839 113.897 81.2159 120.819 81.4622 128.148C81.5703 131.386 81.6824 134.734 81.8909 138.132V140.491C81.8909 147.541 81.8831 154.2 81.5 161.244L81.182 161.227Z" fill="#FCFDFE"/>
<path d="M80.7976 126.812C80.4419 108.459 90.138 86.6506 98.3356 71.5921C107.213 55.276 116.292 43.1429 116.388 43.0195L116.641 43.2079C116.55 43.3287 107.482 55.4488 98.6157 71.7414C90.4312 86.7701 80.7572 108.523 81.1129 126.802L80.7976 126.812Z" fill="#FCFDFE"/>
<path d="M68.382 47.0551C66.9147 27.6006 69.8948 6.84446 70.8734 0.0296628C71.0611 -1.26938 71.1849 -2.13585 71.1797 -2.30862L71.4937 -2.32031C71.4937 -2.13195 71.4038 -1.45255 71.1862 0.0699329C70.2076 6.88213 67.2314 27.6097 68.696 47.0331L68.382 47.0551Z" fill="#FCFDFE"/>
<path d="M75.4224 78.1634C68.8263 61.4057 34.3862 46.5654 34.0344 46.4173L34.1647 46.1289C34.5139 46.277 69.0739 61.1693 75.7182 78.0478L75.4224 78.1634Z" fill="#FCFDFE"/>
</g>
</g>
<path d="M45.8076 89.0672C42.5395 113.722 55.6197 107.323 66.2488 111.329C76.2825 131.429 75.0198 148.56 53.9805 160.486L33.3529 154.312C25.5827 152.826 16.7492 149.123 18.7689 138.814C21.0519 127.154 24.9168 120.095 12.4543 112.418C-0.00828636 104.74 -4.19896 93.3944 2.9171 82.1979C10.4045 70.4142 -0.43048 51.5248 10.5023 44.4801C29.5531 32.2054 49.2125 63.3955 45.8076 89.0672Z" fill="url(#paint1_linear_5_2034)"/>
<mask id="mask1_5_2034" style="mask-type:luminance" maskUnits="userSpaceOnUse" x="-1" y="41" width="73" height="115">
<path d="M40.7517 155.258C33.3138 154.631 16.0247 152.819 18.7689 138.814C21.0519 127.154 24.9168 120.095 12.4543 112.416C-0.00828642 104.738 -4.19895 93.3944 2.9171 82.1979C10.4045 70.4142 -0.43048 51.5248 10.5023 44.4801C29.5531 32.2054 49.2125 63.3955 45.8076 89.0673C42.4027 114.739 56.7286 106.734 67.5519 111.88C82.3287 118.9 46.7614 155.771 40.7517 155.258Z" fill="white"/>
</mask>
<g mask="url(#mask1_5_2034)">
<g style="mix-blend-mode:soft-light">
<path d="M44.6739 133.866C37.2501 122.983 31.1782 111.242 26.5912 98.9017C21.9977 86.5861 18.9663 73.7464 17.5675 60.6812C16.7859 53.3121 16.5585 45.8951 16.8873 38.4922L17.2078 38.5065C16.8804 45.8938 17.1078 53.2952 17.888 60.6487C19.2835 73.687 22.3089 86.5001 26.8935 98.79C31.4713 111.107 37.531 122.825 44.9397 133.688L44.6739 133.866Z" fill="#FCFDFE"/>
<path d="M16.8117 144.842L16.7087 144.538C20.9111 143.109 25.7546 142.224 31.1037 141.901C33.586 141.747 36.076 141.764 38.556 141.952L38.5299 142.271C36.0651 142.085 33.5904 142.068 31.1233 142.222C25.8029 142.544 20.988 143.431 16.8117 144.842Z" fill="#FCFDFE"/>
<path d="M29.6808 106.512C20.3117 94.4546 -3.00145 92.0786 -3.2334 92.0578L-3.20213 91.7383C-2.97279 91.7617 20.4824 94.1428 29.9349 106.315L29.6808 106.512Z" fill="#FCFDFE"/>
<path d="M20.2218 77.1866C19.3852 59.9703 34.7745 42.4241 34.9308 42.25L35.1719 42.4617C35.0169 42.6371 19.7136 60.0859 20.5437 77.171L20.2218 77.1866Z" fill="#FCFDFE"/>
</g>
</g>
<path d="M114.195 206.882L50.4752 214.061C38.8414 214.905 28.9355 205.724 28.9355 194.094V58.5L114.197 62.2594L114.195 206.882Z" fill="url(#paint2_linear_5_2034)"/>
<g style="mix-blend-mode:soft-light">
<path d="M87.7938 74.5556L42.1994 73.0227V68.8242L87.7938 70.5013V74.5556Z" fill="white"/>
<path d="M87.7938 81.3986L42.1994 80.1074V75.9102L87.7938 77.3443V81.3986Z" fill="white"/>
<path d="M87.7938 88.2469L42.1994 87.1985V83L87.7938 84.1912V88.2469Z" fill="white"/>
<path d="M87.7938 95.0899L42.1994 94.2844V90.0859L87.7938 91.0355V95.0899Z" fill="white"/>
<path d="M87.7938 101.934L42.1994 101.37V97.1719L87.7938 97.8786V101.934Z" fill="white"/>
<path d="M87.7938 111.206L42.1994 110.971V106.773L87.7938 107.151V111.206Z" fill="white"/>
<path d="M87.7938 118.05L42.1994 118.058V113.859L87.7938 113.996V118.05Z" fill="white"/>
<path d="M87.7938 124.894L42.1994 125.145V120.946L87.7938 120.84V124.894Z" fill="white"/>
<path d="M87.7938 131.738L42.1994 132.23V128.032L87.7938 127.684V131.738Z" fill="white"/>
<path d="M87.7938 138.582L42.1994 139.317V135.118L87.7938 134.527V138.582Z" fill="white"/>
<path d="M87.7938 149.734L42.1994 150.864V146.666L87.7938 145.68V149.734Z" fill="white"/>
<path d="M87.7938 156.578L42.1994 157.951V153.752L87.7938 152.523V156.578Z" fill="white"/>
<path d="M87.7938 163.422L42.1994 165.036V160.838L87.7938 159.367V163.422Z" fill="white"/>
<path d="M87.7938 170.267L42.1994 172.123V167.926L87.7938 166.211V170.267Z" fill="white"/>
<path d="M87.7938 177.109L42.1994 179.208V175.011L87.7938 173.055V177.109Z" fill="white"/>
<path d="M87.7938 188.261L42.1994 190.757V186.558L87.7938 184.207V188.261Z" fill="url(#paint3_linear_5_2034)"/>
<path d="M87.7938 195.105L42.1994 197.842V193.644L87.7938 191.051V195.105Z" fill="url(#paint4_linear_5_2034)"/>
<path d="M87.7938 201.949L42.1994 204.929V200.732L87.7938 197.895V201.949Z" fill="url(#paint5_linear_5_2034)"/>
</g>
<path d="M121.991 184.435L7.1299 194.772C5.41506 194.911 2.96008 192.65 2.96008 190.935V104.238C2.96035 103.467 3.26504 102.727 3.8083 102.178C4.35156 101.629 5.08975 101.315 5.86332 101.304L121.717 99.7074C123.358 99.684 126.461 100.891 126.461 102.528L124.702 181.51C124.702 182.248 124.423 182.959 123.921 183.501C123.418 184.043 122.729 184.377 121.991 184.435Z" fill="url(#paint6_linear_5_2034)"/>
<path d="M124.329 185.24L8.476 194.666C8.07057 194.698 7.66271 194.647 7.27813 194.515C6.89356 194.383 6.5406 194.173 6.24152 193.898C5.94244 193.623 5.70371 193.29 5.5404 192.918C5.37708 192.547 5.29271 192.146 5.2926 191.74V105.044C5.29253 104.273 5.59711 103.533 6.14044 102.983C6.68377 102.434 7.42216 102.12 8.19584 102.11L124.049 100.512C124.439 100.507 124.826 100.579 125.188 100.724C125.55 100.869 125.879 101.084 126.157 101.357C126.434 101.63 126.655 101.955 126.805 102.314C126.956 102.673 127.033 103.058 127.033 103.447V182.314C127.033 183.051 126.755 183.761 126.254 184.303C125.753 184.845 125.066 185.18 124.329 185.24Z" fill="url(#paint7_linear_5_2034)"/>
<path d="M18.7129 191.147L116.843 183.353C117.598 183.293 118.303 182.951 118.817 182.396C119.332 181.841 119.617 181.113 119.617 180.357V105.532C119.617 105.134 119.538 104.74 119.383 104.372C119.229 104.005 119.003 103.671 118.718 103.392C118.433 103.112 118.096 102.892 117.725 102.744C117.354 102.595 116.957 102.522 116.558 102.528L18.4262 104.033C17.6351 104.045 16.8805 104.367 16.3253 104.929C15.7702 105.491 15.459 106.248 15.4591 107.037V188.152C15.459 188.566 15.5451 188.977 15.7119 189.357C15.8787 189.737 16.1226 190.078 16.4283 190.36C16.7339 190.641 17.0947 190.856 17.4879 190.992C17.8811 191.127 18.2981 191.18 18.7129 191.147Z" fill="#F9EFE4"/>
<path d="M123.717 145.448C123.444 145.448 123.183 145.34 122.991 145.148C122.798 144.956 122.69 144.695 122.69 144.424V136.84C122.69 136.569 122.798 136.308 122.991 136.116C123.183 135.924 123.444 135.816 123.717 135.816C123.852 135.816 123.985 135.843 124.11 135.894C124.234 135.946 124.347 136.021 124.442 136.116C124.538 136.211 124.613 136.324 124.665 136.448C124.716 136.573 124.742 136.706 124.742 136.84V144.424C124.742 144.558 124.716 144.691 124.665 144.816C124.613 144.94 124.538 145.053 124.442 145.148C124.347 145.243 124.234 145.318 124.11 145.37C123.985 145.421 123.852 145.448 123.717 145.448Z" fill="url(#paint8_linear_5_2034)"/>
<path style="mix-blend-mode:multiply" opacity="0.5" d="M102.293 166.683C93.3565 158.911 86.1923 161.952 76.7372 154.055C65.0031 144.254 70.846 135.219 60.5153 126.584C47.5967 115.792 31.9872 124.546 22.2924 113.735C19.7553 110.906 18.3428 107.538 17.6014 104.16C16.9822 104.347 16.4397 104.727 16.0539 105.245C15.6682 105.762 15.4596 106.39 15.4591 107.035V188.15C15.459 188.565 15.5452 188.976 15.7122 189.356C15.8792 189.736 16.1235 190.078 16.4296 190.359C16.7357 190.641 17.0969 190.856 17.4906 190.991C17.8842 191.127 18.3017 191.179 18.7168 191.146L112.684 183.685C110.962 177.875 107.903 171.561 102.293 166.683Z" fill="url(#paint9_linear_5_2034)"/>
<path d="M214.185 186.32C214.185 193.653 208.648 200.09 201.748 200.703L51.059 214.115C59.753 213.335 66.7192 206.061 66.7192 197.832V38.6719L214.185 44.3877V186.32Z" fill="url(#paint10_linear_5_2034)"/>
<path d="M203.222 99.6166L148.444 99.979V94.458L203.222 94.332V99.6166Z" fill="url(#paint11_linear_5_2034)"/>
<path d="M142.477 146.829L82.0003 149.43V94.613L142.477 94.4727V146.829Z" fill="url(#paint12_linear_5_2034)"/>
<path d="M203.222 108.533L148.444 109.296V103.775L203.222 103.25V108.533Z" fill="url(#paint13_linear_5_2034)"/>
<path d="M203.222 117.456L148.444 118.616V113.095L203.222 112.172V117.456Z" fill="url(#paint14_linear_5_2034)"/>
<path d="M203.222 126.374L148.444 127.932V122.412L203.222 121.09V126.374Z" fill="url(#paint15_linear_5_2034)"/>
<path d="M203.222 135.296L148.444 137.254V131.733L203.222 130.012V135.296Z" fill="url(#paint16_linear_5_2034)"/>
<path d="M203.222 144.214L148.444 146.569V141.05L203.222 138.93V144.214Z" fill="url(#paint17_linear_5_2034)"/>
<path d="M203.222 156.304L148.444 159.2V153.68L203.222 151.02V156.304Z" fill="url(#paint18_linear_5_2034)"/>
<path d="M203.222 165.222L148.444 168.518V162.997L203.222 159.938V165.222Z" fill="url(#paint19_linear_5_2034)"/>
<path d="M203.222 174.144L148.444 177.837V172.317L203.222 168.859V174.144Z" fill="url(#paint20_linear_5_2034)"/>
<path d="M203.222 183.062L148.444 187.155V181.634L203.222 177.777V183.062Z" fill="url(#paint21_linear_5_2034)"/>
<path d="M203.222 191.984L148.444 196.475V190.954L203.222 186.699V191.984Z" fill="url(#paint22_linear_5_2034)"/>
<path d="M142.477 159.514L82.0003 162.713V156.906L142.477 153.969V159.514Z" fill="url(#paint23_linear_5_2034)"/>
<path d="M142.477 168.875L82.0003 172.514V166.706L142.477 163.328V168.875Z" fill="url(#paint24_linear_5_2034)"/>
<path d="M142.477 178.238L82.0003 182.316V176.509L142.477 172.691V178.238Z" fill="url(#paint25_linear_5_2034)"/>
<path d="M142.477 187.602L82.0003 192.12V186.313L142.477 182.055V187.602Z" fill="url(#paint26_linear_5_2034)"/>
<path d="M142.477 196.965L82.0003 201.923V196.115L142.477 191.418V196.965Z" fill="url(#paint27_linear_5_2034)"/>
<path d="M101.696 139.507C101.451 146.652 96.9804 152.299 91.7108 152.12C86.4412 151.94 82.459 143.268 82.704 136.123C82.9489 128.978 87.3259 126.066 92.5969 126.25C97.8678 126.435 101.941 132.362 101.696 139.507Z" fill="url(#paint28_linear_5_2034)"/>
<path d="M46.2024 182.316C45.0706 182.414 43.9349 182.177 42.938 181.634C41.941 181.09 41.1274 180.266 40.5992 179.263L24.6418 148.956C23.9503 147.61 23.8197 146.046 24.2784 144.604C24.7372 143.162 25.7482 141.958 27.0918 141.255C28.4355 140.552 30.0031 140.406 31.4541 140.849C32.9051 141.292 34.1222 142.287 34.8409 143.62L50.797 173.927C51.2371 174.764 51.463 175.697 51.4549 176.642C51.4467 177.588 51.2047 178.516 50.7502 179.346C50.2958 180.176 49.6429 180.881 48.8496 181.399C48.0563 181.917 47.147 182.232 46.2024 182.316Z" fill="url(#paint29_linear_5_2034)"/>
<path d="M22.6429 132.783L33.2355 131.859L35.1064 153.178L24.5138 154.102C23.6641 154.176 22.8197 153.911 22.1664 153.364C21.513 152.818 21.1041 152.035 21.0298 151.188L19.7196 136.258C19.6827 135.838 19.7292 135.416 19.8562 135.014C19.9832 134.613 20.1882 134.24 20.4597 133.917C20.7312 133.595 21.0637 133.329 21.4383 133.134C21.8129 132.94 22.2223 132.821 22.643 132.784L22.6429 132.783Z" fill="url(#paint30_linear_5_2034)"/>
<path d="M33.4767 131.84C30.7211 139.242 31.3448 146.349 35.3479 153.16L94.3013 166.703L92.3141 112.559L33.4767 131.84Z" fill="url(#paint31_linear_5_2034)"/>
<path d="M96.5934 111.316H92.92C92.3875 111.316 91.9557 111.747 91.9557 112.278V167.451C91.9557 167.982 92.3875 168.412 92.92 168.412H96.5934C97.1259 168.412 97.5576 167.982 97.5576 167.451V112.278C97.5576 111.747 97.1259 111.316 96.5934 111.316Z" fill="url(#paint32_linear_5_2034)"/>
<path style="mix-blend-mode:multiply" opacity="0.3" d="M80.7051 150.125C74.9572 148.671 72.5101 140.884 65.8683 141.256C60.5688 141.553 59.3973 146.666 54.0756 146.674C48.5453 146.682 47.1237 141.163 40.6891 139.756C37.726 139.107 34.695 139.553 31.7905 140.598C31.7636 144.89 32.9493 149.077 35.3479 153.159L94.3013 166.701L92.7467 148.991C87.4602 152.855 83.4585 150.823 80.7051 150.125Z" fill="url(#paint33_linear_5_2034)"/>
<defs>
<linearGradient id="paint0_linear_5_2034" x1="80.3229" y1="66.4954" x2="85.3913" y2="162.081" gradientUnits="userSpaceOnUse">
<stop stop-color="#46736E"/>
<stop offset="1" stop-color="#2F4F4F"/>
</linearGradient>
<linearGradient id="paint1_linear_5_2034" x1="23.1162" y1="128.632" x2="76.2511" y2="17.7324" gradientUnits="userSpaceOnUse">
<stop stop-color="#799B91"/>
<stop offset="1" stop-color="#3E6764"/>
</linearGradient>
<linearGradient id="paint2_linear_5_2034" x1="-52.4985" y1="2.919" x2="236.578" y2="306.009" gradientUnits="userSpaceOnUse">
<stop stop-color="#E4D6CA"/>
<stop offset="1" stop-color="#D4BDAC"/>
</linearGradient>
<linearGradient id="paint3_linear_5_2034" x1="42.1994" y1="187.482" x2="87.7938" y2="187.482" gradientUnits="userSpaceOnUse">
<stop stop-color="#D3C5CB"/>
<stop offset="1" stop-color="#ADA0A6"/>
</linearGradient>
<linearGradient id="paint4_linear_5_2034" x1="42.1994" y1="194.446" x2="87.7938" y2="194.446" gradientUnits="userSpaceOnUse">
<stop stop-color="#D3C5CB"/>
<stop offset="1" stop-color="#ADA0A6"/>
</linearGradient>
<linearGradient id="paint5_linear_5_2034" x1="42.1994" y1="201.412" x2="87.7938" y2="201.412" gradientUnits="userSpaceOnUse">
<stop stop-color="#D3C5CB"/>
<stop offset="1" stop-color="#ADA0A6"/>
</linearGradient>
<linearGradient id="paint6_linear_5_2034" x1="20.6792" y1="71.9857" x2="48.8816" y2="120.246" gradientUnits="userSpaceOnUse">
<stop stop-color="#3B3138"/>
<stop offset="1" stop-color="#241F21"/>
</linearGradient>
<linearGradient id="paint7_linear_5_2034" x1="52.9276" y1="106.61" x2="112.262" y2="291.48" gradientUnits="userSpaceOnUse">
<stop stop-color="#5D535A"/>
<stop offset="1" stop-color="#464143"/>
</linearGradient>
<linearGradient id="paint8_linear_5_2034" x1="132.098" y1="125.059" x2="120.468" y2="146.801" gradientUnits="userSpaceOnUse">
<stop stop-color="#5D535A"/>
<stop offset="1" stop-color="#464143"/>
</linearGradient>
<linearGradient id="paint9_linear_5_2034" x1="15.4591" y1="147.659" x2="112.68" y2="147.659" gradientUnits="userSpaceOnUse">
<stop stop-color="#F3E9E1"/>
<stop offset="1" stop-color="#E1D1C5"/>
</linearGradient>
<linearGradient id="paint10_linear_5_2034" x1="265.101" y1="-57.9707" x2="161.929" y2="85.988" gradientUnits="userSpaceOnUse">
<stop stop-color="#F3E9E1"/>
<stop offset="1" stop-color="white"/>
</linearGradient>
<linearGradient id="paint11_linear_5_2034" x1="122.607" y1="-10.1166" x2="275.243" y2="299.416" gradientUnits="userSpaceOnUse">
<stop stop-color="#E4D6CA"/>
<stop offset="1" stop-color="#D4BDAC"/>
</linearGradient>
<linearGradient id="paint12_linear_5_2034" x1="61.6294" y1="19.9528" x2="214.266" y2="329.487" gradientUnits="userSpaceOnUse">
<stop stop-color="#E4D6CA"/>
<stop offset="1" stop-color="#D4BDAC"/>
</linearGradient>
<linearGradient id="paint13_linear_5_2034" x1="118.971" y1="-8.32633" x2="271.608" y2="301.206" gradientUnits="userSpaceOnUse">
<stop stop-color="#E4D6CA"/>
<stop offset="1" stop-color="#D4BDAC"/>
</linearGradient>
<linearGradient id="paint14_linear_5_2034" x1="115.337" y1="-6.53104" x2="267.973" y2="303.003" gradientUnits="userSpaceOnUse">
<stop stop-color="#E4D6CA"/>
<stop offset="1" stop-color="#D4BDAC"/>
</linearGradient>
<linearGradient id="paint15_linear_5_2034" x1="111.701" y1="-4.74079" x2="264.337" y2="304.791" gradientUnits="userSpaceOnUse">
<stop stop-color="#E4D6CA"/>
<stop offset="1" stop-color="#D4BDAC"/>
</linearGradient>
<linearGradient id="paint16_linear_5_2034" x1="108.066" y1="-2.94568" x2="260.702" y2="306.587" gradientUnits="userSpaceOnUse">
<stop stop-color="#E4D6CA"/>
<stop offset="1" stop-color="#D4BDAC"/>
</linearGradient>
<linearGradient id="paint17_linear_5_2034" x1="104.43" y1="-1.15572" x2="257.067" y2="308.377" gradientUnits="userSpaceOnUse">
<stop stop-color="#E4D6CA"/>
<stop offset="1" stop-color="#D4BDAC"/>
</linearGradient>
<linearGradient id="paint18_linear_5_2034" x1="99.5044" y1="1.27592" x2="252.141" y2="310.81" gradientUnits="userSpaceOnUse">
<stop stop-color="#E4D6CA"/>
<stop offset="1" stop-color="#D4BDAC"/>
</linearGradient>
<linearGradient id="paint19_linear_5_2034" x1="95.8689" y1="3.06714" x2="248.506" y2="312.6" gradientUnits="userSpaceOnUse">
<stop stop-color="#E4D6CA"/>
<stop offset="1" stop-color="#D4BDAC"/>
</linearGradient>
<linearGradient id="paint20_linear_5_2034" x1="92.2333" y1="4.86132" x2="244.87" y2="314.395" gradientUnits="userSpaceOnUse">
<stop stop-color="#E4D6CA"/>
<stop offset="1" stop-color="#D4BDAC"/>
</linearGradient>
<linearGradient id="paint21_linear_5_2034" x1="88.5978" y1="6.65282" x2="241.234" y2="316.185" gradientUnits="userSpaceOnUse">
<stop stop-color="#E4D6CA"/>
<stop offset="1" stop-color="#D4BDAC"/>
</linearGradient>
<linearGradient id="paint22_linear_5_2034" x1="84.9635" y1="8.44667" x2="237.599" y2="317.979" gradientUnits="userSpaceOnUse">
<stop stop-color="#E4D6CA"/>
<stop offset="1" stop-color="#D4BDAC"/>
</linearGradient>
<linearGradient id="paint23_linear_5_2034" x1="47.1224" y1="27.1053" x2="199.759" y2="336.638" gradientUnits="userSpaceOnUse">
<stop stop-color="#E4D6CA"/>
<stop offset="1" stop-color="#D4BDAC"/>
</linearGradient>
<linearGradient id="paint24_linear_5_2034" x1="43.3031" y1="28.9871" x2="195.94" y2="338.521" gradientUnits="userSpaceOnUse">
<stop stop-color="#E4D6CA"/>
<stop offset="1" stop-color="#D4BDAC"/>
</linearGradient>
<linearGradient id="paint25_linear_5_2034" x1="39.4825" y1="30.872" x2="192.119" y2="340.404" gradientUnits="userSpaceOnUse">
<stop stop-color="#E4D6CA"/>
<stop offset="1" stop-color="#D4BDAC"/>
</linearGradient>
<linearGradient id="paint26_linear_5_2034" x1="35.6632" y1="32.7564" x2="188.301" y2="342.29" gradientUnits="userSpaceOnUse">
<stop stop-color="#E4D6CA"/>
<stop offset="1" stop-color="#D4BDAC"/>
</linearGradient>
<linearGradient id="paint27_linear_5_2034" x1="31.8439" y1="34.6413" x2="184.481" y2="344.175" gradientUnits="userSpaceOnUse">
<stop stop-color="#E4D6CA"/>
<stop offset="1" stop-color="#D4BDAC"/>
</linearGradient>
<linearGradient id="paint28_linear_5_2034" x1="82.6935" y1="139.181" x2="101.707" y2="139.181" gradientUnits="userSpaceOnUse">
<stop stop-color="#5D535A"/>
<stop offset="1" stop-color="#464143"/>
</linearGradient>
<linearGradient id="paint29_linear_5_2034" x1="51.8421" y1="219.594" x2="41.7192" y2="177.653" gradientUnits="userSpaceOnUse">
<stop stop-color="#96888E"/>
<stop offset="1" stop-color="#706369"/>
</linearGradient>
<linearGradient id="paint30_linear_5_2034" x1="1.34906" y1="94.6228" x2="40.779" y2="167.213" gradientUnits="userSpaceOnUse">
<stop stop-color="#96888E"/>
<stop offset="1" stop-color="#706369"/>
</linearGradient>
<linearGradient id="paint31_linear_5_2034" x1="46.1633" y1="115.246" x2="53.8316" y2="122.938" gradientUnits="userSpaceOnUse">
<stop stop-color="#F6AF9A"/>
<stop offset="1" stop-color="#F89F8A"/>
</linearGradient>
<linearGradient id="paint32_linear_5_2034" x1="115.322" y1="157.436" x2="111.612" y2="154.246" gradientUnits="userSpaceOnUse">
<stop stop-color="#96888E"/>
<stop offset="1" stop-color="#706369"/>
</linearGradient>
<linearGradient id="paint33_linear_5_2034" x1="31.7905" y1="153.077" x2="94.3013" y2="153.077" gradientUnits="userSpaceOnUse">
<stop stop-color="#F6AF9A"/>
<stop offset="1" stop-color="#F89F8A"/>
</linearGradient>
</defs>
</svg>
