<svg width="231" height="200" viewBox="0 0 231 200" fill="none" xmlns="http://www.w3.org/2000/svg">
<g clip-path="url(#clip0_5_2106)">
<path d="M7.05096 154.489C7.05096 160.892 8.94822 167.151 12.5028 172.475C16.0573 177.799 21.1095 181.948 27.0203 184.398C32.9311 186.848 39.435 187.488 45.7094 186.238C51.9839 184.988 57.7469 181.903 62.2697 177.375C66.7925 172.846 69.8719 167.077 71.1184 160.796C72.3649 154.516 71.7225 148.007 69.2724 142.092C66.8224 136.177 62.6747 131.122 57.3541 127.566C52.0335 124.011 45.7788 122.115 39.3813 122.117C30.8061 122.122 22.5838 125.535 16.5214 131.605C10.4591 137.675 7.05273 145.906 7.05096 154.489Z" stroke="#C6C6C6" stroke-width="1.81" stroke-linecap="round" stroke-linejoin="round" stroke-dasharray="4.49 4.49"/>
<path d="M45.3655 131.539C46.1098 132.925 46.9459 134.261 47.8683 135.536C55.0173 134.87 57.7531 137.535 57.5201 144.683C58.8951 145.566 60.3297 146.352 61.8135 147.035C67.5248 143.297 71.2257 144.27 74.6871 150.233C75.3527 150.266 75.9784 150.286 76.6374 150.286C77.7823 150.286 78.9206 150.226 80.0455 150.12C83.234 144.29 86.8417 143.251 92.4798 146.542C94.0191 145.761 95.5006 144.87 96.9129 143.877C96.7199 137.448 99.2959 134.876 105.713 135.063C106.709 133.654 107.599 132.173 108.375 130.633C105.08 124.99 106.125 121.372 111.95 118.181C112.056 117.055 112.116 115.922 112.116 114.77C112.116 114.104 112.116 113.437 112.063 112.824C106.072 109.36 105.127 105.656 108.868 99.933C108.187 98.4493 107.401 97.0156 106.518 95.6425C99.3758 95.869 96.7332 93.1375 97.3789 85.9756C96.1049 85.0525 94.7706 84.2156 93.385 83.4706C86.9815 87.468 83.1607 86.3421 79.8325 79.4267C78.7875 79.3334 77.7291 79.2734 76.6574 79.2734C76.0983 79.2734 75.5458 79.2734 74.9933 79.3201C71.3322 86.3754 67.4382 87.4347 60.9748 82.931C59.6334 83.5948 58.335 84.3424 57.0875 85.1695C57.7531 93.0909 54.9907 95.889 47.1028 95.1628C46.2789 96.413 45.532 97.7123 44.8662 99.0536C49.366 105.516 48.3076 109.42 41.2584 113.078C41.2584 113.631 41.2185 114.183 41.2185 114.743C41.2185 115.816 41.2784 116.875 41.3716 117.928C48.2344 121.312 49.3593 125.136 45.3655 131.539ZM51.8089 114.796C51.8076 109.881 53.2626 105.076 55.99 100.989C58.7174 96.9012 62.5946 93.715 67.1313 91.8332C71.6681 89.9513 76.6604 89.4582 81.4771 90.4163C86.2938 91.3744 90.7185 93.7407 94.1915 97.2157C97.6645 100.691 100.03 105.119 100.988 109.939C101.947 114.76 101.456 119.757 99.5766 124.298C97.6976 128.839 94.5153 132.721 90.4321 135.451C86.3489 138.182 81.5483 139.64 76.6374 139.64C73.3772 139.641 70.1488 138.999 67.1365 137.751C64.1242 136.503 61.387 134.673 59.0814 132.366C56.7758 130.059 54.9468 127.32 53.699 124.305C52.4512 121.291 51.8089 118.059 51.8089 114.796Z" fill="#95C11F"/>
<path d="M2.75088 141.494C3.16995 142.273 3.64143 143.023 4.16205 143.739C8.15591 143.379 9.71352 144.865 9.58705 148.882C10.3581 149.382 11.1633 149.827 11.9967 150.215C15.2117 148.109 17.3218 148.656 19.2322 152.007C19.5983 152.007 19.9644 152.007 20.3305 152.007C20.9962 152.007 21.6152 152.007 22.2476 151.913C24.0382 148.636 26.0684 148.049 29.2369 149.915C30.1024 149.482 30.9345 148.985 31.7264 148.429C31.6199 144.818 33.0577 143.372 36.6788 143.479C37.2311 142.685 37.7249 141.853 38.1565 140.987C36.306 137.816 36.8918 135.784 40.1534 133.985C40.218 133.348 40.2491 132.707 40.2466 132.067C40.2466 131.7 40.2466 131.334 40.2466 130.974C36.9184 129.029 36.3459 126.943 38.4494 123.726C38.0597 122.893 37.615 122.087 37.1181 121.314C33.1242 121.447 31.6199 119.908 31.9793 115.884C31.2631 115.362 30.5113 114.89 29.7294 114.472C26.135 116.724 23.9916 116.091 22.1145 112.2C21.5287 112.147 20.9296 112.113 20.3305 112.113C20.0177 112.113 19.7048 112.113 19.392 112.113C17.3418 116.077 15.1452 116.677 11.5174 114.112C10.7635 114.482 10.0342 114.9 9.3341 115.364C9.72018 119.821 8.14926 121.36 3.70275 121.001C3.23742 121.725 2.81726 122.477 2.44469 123.253C4.97413 126.89 4.38171 129.082 0.447754 131.141C0.447754 131.447 0.447754 131.76 0.447754 132.073C0.447754 132.68 0.481036 133.273 0.534288 133.865C4.38837 135.744 5.00076 137.909 2.75088 141.494ZM6.67818 132.08C6.67819 129.379 7.47805 126.738 8.97673 124.492C10.4754 122.246 12.6056 120.494 15.0984 119.459C17.5911 118.424 20.3344 118.151 22.9818 118.676C25.6292 119.2 28.0618 120.499 29.9725 122.406C31.8831 124.314 33.186 126.745 33.7165 129.394C34.247 132.042 33.9814 134.789 32.9532 137.286C31.925 139.783 30.1803 141.92 27.9396 143.425C25.6988 144.931 23.0626 145.738 20.3638 145.744C18.5682 145.749 16.7893 145.398 15.1291 144.714C13.4688 144.029 11.9599 143.023 10.6886 141.754C9.41736 140.485 8.40876 138.977 7.72058 137.317C7.03241 135.657 6.67818 133.877 6.67818 132.08Z" fill="#00608E"/>
<path d="M27.3797 189.46C27.7988 190.24 28.2703 190.99 28.7909 191.706C32.7848 191.346 34.3424 192.831 34.2159 196.849C34.9869 197.349 35.7921 197.794 36.6255 198.181C39.8406 196.076 41.9507 196.622 43.8611 199.973C44.2272 199.973 44.5933 200.007 44.9594 200.007C45.625 200.007 46.2441 199.973 46.8764 199.913C48.667 196.636 50.6972 196.049 53.8657 197.915C54.7312 197.482 55.5634 196.985 56.3552 196.429C56.2487 192.818 57.6865 191.372 61.3076 191.479C61.8599 190.685 62.3538 189.853 62.7853 188.987C60.9348 185.816 61.5206 183.784 64.7823 181.985C64.8468 181.348 64.8779 180.707 64.8755 180.067C64.8755 179.7 64.8755 179.334 64.8755 178.974C61.5472 177.029 60.9748 174.943 63.0782 171.726C62.6886 170.893 62.2438 170.087 61.7469 169.314C57.7531 169.447 56.2487 167.908 56.6082 163.884C55.8919 163.362 55.1401 162.89 54.3583 162.472C50.7638 164.724 48.6204 164.091 46.7433 160.2C46.1575 160.147 45.5585 160.113 44.9594 160.113C44.6465 160.113 44.3337 160.113 44.0208 160.113C41.9706 164.077 39.774 164.677 36.1463 162.112C35.3923 162.482 34.6631 162.9 33.9629 163.364C34.349 167.821 32.7781 169.36 28.3316 169.001C27.8675 169.714 27.4473 170.455 27.0735 171.219C29.603 174.857 29.0106 177.049 25.0766 179.107C25.0766 179.414 25.0766 179.727 25.0766 180.04C25.0766 180.646 25.0766 181.239 25.1631 181.832C29.0172 183.711 29.6296 185.876 27.3797 189.46ZM31.307 180.047C31.307 177.346 32.1069 174.705 33.6056 172.459C35.1042 170.212 37.2345 168.461 39.7272 167.426C42.2199 166.391 44.9632 166.118 47.6106 166.643C50.258 167.167 52.6907 168.465 54.6013 170.373C56.5119 172.281 57.8148 174.712 58.3453 177.361C58.8759 180.009 58.6103 182.755 57.5821 185.253C56.5538 187.75 54.8092 189.886 52.5684 191.392C50.3277 192.897 47.6914 193.704 44.9927 193.711C43.197 193.715 41.4181 193.365 39.7579 192.68C38.0977 191.996 36.5887 190.99 35.3175 189.721C34.0462 188.451 33.0376 186.943 32.3494 185.283C31.6612 183.623 31.307 181.844 31.307 180.047Z" fill="#E73E20"/>
<path d="M188.186 89.6487C188.195 91.2477 187.889 92.8327 187.285 94.3133C186.682 95.7938 185.793 97.1409 184.669 98.2774C183.545 99.4139 182.208 100.318 180.736 100.937C179.263 101.556 177.682 101.879 176.085 101.887H72.7766C71.179 101.879 69.5986 101.556 68.1257 100.937C66.6528 100.318 65.3162 99.4139 64.1924 98.2774C63.0686 97.1409 62.1796 95.7938 61.5761 94.3133C60.9726 92.8327 60.6665 91.2477 60.6752 89.6487C60.6665 88.0497 60.9726 86.4646 61.5761 84.9841C62.1796 83.5035 63.0686 82.1565 64.1924 81.0199C65.3162 79.8834 66.6528 78.9796 68.1257 78.3602C69.5986 77.7408 71.179 77.418 72.7766 77.4102H176.085C177.682 77.418 179.263 77.7408 180.736 78.3602C182.208 78.9796 183.545 79.8834 184.669 81.0199C185.793 82.1565 186.682 83.5035 187.285 84.9841C187.889 86.4646 188.195 88.0497 188.186 89.6487Z" fill="#004060"/>
<path d="M185.863 89.645C185.864 90.975 185.603 92.2923 185.095 93.5213C184.586 94.7503 183.841 95.867 182.902 96.8075C181.962 97.748 180.846 98.4939 179.618 99.0025C178.39 99.5111 177.074 99.7724 175.745 99.7715H73.6154C72.2862 99.7724 70.9698 99.5111 69.7415 99.0026C68.5131 98.4941 67.397 97.7483 66.4568 96.8079C65.5165 95.8675 64.7707 94.7508 64.2618 93.5218C63.7529 92.2927 63.491 90.9754 63.491 89.645C63.491 88.3142 63.7528 86.9966 64.2616 85.7671C64.7704 84.5377 65.5162 83.4206 66.4563 82.4797C67.3965 81.5387 68.5126 80.7923 69.741 80.2831C70.9693 79.7738 72.2859 79.5117 73.6154 79.5117H175.745C177.074 79.5117 178.391 79.7739 179.619 80.2832C180.847 80.7925 181.962 81.539 182.902 82.4801C183.842 83.4211 184.587 84.5383 185.095 85.7676C185.603 86.997 185.864 88.3146 185.863 89.645Z" fill="white"/>
<path d="M75.6123 87.2078L74.5739 88.1272C74.4625 87.9192 74.3028 87.7409 74.1082 87.6076C73.9135 87.4743 73.6897 87.3897 73.4556 87.3611C73.2926 87.3576 73.1331 87.4093 73.003 87.5077C72.9517 87.5473 72.9096 87.5976 72.8798 87.6551C72.8499 87.7126 72.8329 87.776 72.8299 87.8408C72.8291 87.9697 72.8739 88.0948 72.9564 88.1939C73.2745 88.5339 73.6171 88.8501 73.9815 89.1399C74.5207 89.5863 74.8402 89.8727 74.96 89.986C75.2066 90.224 75.4094 90.5037 75.5591 90.8121C75.6819 91.0817 75.7433 91.3753 75.7388 91.6715C75.7477 91.9517 75.6965 92.2304 75.5885 92.489C75.4806 92.7476 75.3184 92.98 75.1131 93.1705C74.6672 93.5722 74.0816 93.7828 73.4822 93.7568C72.9977 93.7688 72.5205 93.6367 72.111 93.3771C71.6775 93.0678 71.3331 92.6495 71.1125 92.1645L72.2841 91.4517C72.6435 92.1179 73.0496 92.4244 73.5089 92.4244C73.7294 92.4329 73.9452 92.3593 74.1146 92.2178C74.1896 92.1606 74.2508 92.0871 74.2934 92.0029C74.3361 91.9187 74.3591 91.8259 74.3609 91.7315C74.3562 91.5488 74.2906 91.3729 74.1745 91.2318C73.9334 90.9468 73.661 90.6898 73.3624 90.4657C72.7779 90.031 72.2541 89.5202 71.8048 88.9467C71.5849 88.6364 71.4621 88.2677 71.452 87.8874C71.449 87.6363 71.4997 87.3875 71.6007 87.1577C71.7018 86.9279 71.8508 86.7223 72.0378 86.555C72.4286 86.1895 72.9477 85.9932 73.4822 86.0087C73.8457 86.0093 74.2038 86.0961 74.5273 86.2618C74.9442 86.5075 75.312 86.8282 75.6123 87.2078Z" fill="#3C3C3B"/>
<path d="M77.05 86.2109H81.0439V87.5834H78.4213V88.9158H81.0439V90.2483H78.4213V92.187H81.0439V93.566H77.05V86.2109Z" fill="#3C3C3B"/>
<path d="M84.6251 86.2109H86.043L88.8786 93.5794H87.4208L86.8484 92.0604H83.8397L83.2406 93.5794H81.7828L84.6251 86.2109ZM85.344 88.163L84.3589 90.688H86.3558L85.344 88.163Z" fill="#3C3C3B"/>
<path d="M90.0568 86.2072H91.5411C92.1283 86.1736 92.7168 86.2458 93.2785 86.4204C93.6256 86.5683 93.9169 86.8226 94.1105 87.1466C94.3272 87.5082 94.4358 87.9244 94.4234 88.3458C94.4389 88.7764 94.3178 89.2009 94.0773 89.5583C93.8141 89.9075 93.4488 90.166 93.0322 90.2978L94.7762 93.5757H93.2385L91.5877 90.4511H91.4546V93.5757H90.0568V86.2072ZM91.4546 89.0853H91.8939C92.2123 89.1112 92.5317 89.0514 92.8192 88.9121C92.9058 88.8427 92.9737 88.7527 93.0167 88.6503C93.0598 88.5479 93.0765 88.4364 93.0655 88.3258C93.0543 88.1857 93.0035 88.0517 92.919 87.9394C92.8381 87.8214 92.7214 87.7327 92.5862 87.6862C92.3346 87.6196 92.074 87.5926 91.8141 87.6063H91.428L91.4546 89.0853Z" fill="#3C3C3B"/>
<path d="M102.671 87.5021L101.692 88.4348C101.413 88.1098 101.068 87.848 100.68 87.6665C100.293 87.485 99.8705 87.3881 99.4424 87.3822C99.1131 87.3777 98.7862 87.4392 98.4809 87.5631C98.1757 87.687 97.8983 87.8708 97.6651 88.1036C97.4319 88.3364 97.2476 88.6135 97.123 88.9187C96.9984 89.2238 96.936 89.5509 96.9396 89.8805C96.9303 90.3455 97.0427 90.8049 97.2658 91.213C97.4752 91.5917 97.7896 91.9017 98.171 92.1057C98.5772 92.3328 99.0373 92.4457 99.5023 92.4321C99.8848 92.4374 100.264 92.3602 100.614 92.2056C101.032 91.9978 101.409 91.7156 101.726 91.3728L102.677 92.3655C102.235 92.8257 101.711 93.2006 101.133 93.4715C100.607 93.6857 100.043 93.79 99.4757 93.7779C98.7935 93.776 98.1236 93.5957 97.5325 93.2547C96.9414 92.9138 96.4496 92.4242 96.1058 91.8344C95.762 91.2446 95.5783 90.5751 95.5728 89.8923C95.5672 89.2095 95.7401 88.5371 96.0743 87.9418C96.4145 87.3606 96.9071 86.8837 97.4987 86.5627C98.1074 86.2174 98.796 86.0382 99.4957 86.0431C100.105 86.0447 100.707 86.1777 101.261 86.4329C101.814 86.6881 102.307 87.0596 102.704 87.5221L102.671 87.5021Z" fill="#3C3C3B"/>
<path d="M103.896 86.2109H105.313V88.9891H107.776V86.2109H109.187V93.5794H107.776V90.3482H105.313V93.5794H103.896V86.2109Z" fill="#3C3C3B"/>
<path d="M111.464 92.1446C111.568 92.1433 111.671 92.1634 111.768 92.2035C111.864 92.2436 111.951 92.3029 112.023 92.3778C112.097 92.4489 112.156 92.5348 112.195 92.6301C112.234 92.7254 112.253 92.8278 112.249 92.9307C112.251 93.0335 112.232 93.1356 112.193 93.2307C112.154 93.3258 112.097 93.4119 112.023 93.4837C111.912 93.5873 111.773 93.6567 111.624 93.6836C111.474 93.7105 111.32 93.6939 111.18 93.6356C111.039 93.5773 110.919 93.4799 110.832 93.3549C110.746 93.2299 110.697 93.0827 110.692 92.9307C110.69 92.8274 110.71 92.7248 110.75 92.6295C110.79 92.5343 110.849 92.4485 110.925 92.3778C110.995 92.305 111.078 92.2469 111.171 92.2069C111.263 92.1668 111.363 92.1456 111.464 92.1446Z" fill="#3C3C3B"/>
<path d="M114.333 92.1446C114.437 92.1433 114.54 92.1634 114.636 92.2035C114.733 92.2436 114.82 92.3029 114.892 92.3778C114.966 92.4489 115.025 92.5348 115.064 92.6301C115.103 92.7254 115.121 92.8278 115.118 92.9307C115.12 93.0335 115.101 93.1356 115.062 93.2307C115.023 93.3258 114.965 93.4119 114.892 93.4837C114.781 93.5873 114.642 93.6567 114.493 93.6836C114.343 93.7105 114.189 93.6939 114.049 93.6356C113.908 93.5773 113.788 93.4799 113.701 93.3549C113.615 93.2299 113.566 93.0827 113.561 92.9307C113.559 92.8274 113.578 92.7248 113.619 92.6295C113.659 92.5343 113.718 92.4485 113.794 92.3778C113.864 92.305 113.947 92.2469 114.04 92.2069C114.132 92.1668 114.232 92.1456 114.333 92.1446Z" fill="#3C3C3B"/>
<path d="M117.202 92.1446C117.306 92.1437 117.409 92.1639 117.505 92.204C117.601 92.244 117.688 92.3032 117.761 92.3777C117.835 92.4488 117.894 92.5348 117.933 92.6301C117.972 92.7254 117.99 92.8278 117.987 92.9307C117.989 93.0335 117.97 93.1355 117.931 93.2306C117.892 93.3257 117.834 93.4118 117.761 93.4837C117.688 93.5583 117.601 93.6174 117.505 93.6574C117.409 93.6975 117.306 93.7177 117.202 93.7168C116.994 93.7134 116.797 93.6295 116.65 93.4828C116.504 93.3361 116.42 93.1381 116.416 92.9307C116.414 92.8274 116.434 92.7247 116.474 92.6295C116.514 92.5343 116.574 92.4485 116.649 92.3777C116.721 92.3034 116.807 92.2443 116.901 92.2042C116.996 92.1641 117.099 92.1438 117.202 92.1446Z" fill="#3C3C3B"/>
<path d="M154.864 92.8185C154.449 91.8417 154.253 90.7856 154.29 89.7247C154.327 88.6638 154.596 87.624 155.079 86.6786C155.561 85.7333 156.245 84.9054 157.082 84.2534C157.919 83.6014 158.889 83.1411 159.923 82.9051C160.08 81.2763 160.708 79.7287 161.731 78.4517C162.753 77.1748 164.125 76.2239 165.679 75.7156C167.233 75.2072 168.902 75.1635 170.48 75.5896C172.059 76.0158 173.479 76.8934 174.567 78.115C176.347 75.521 179.035 73.69 182.099 72.9842C185.164 72.2784 188.381 72.7491 191.115 74.3032C193.849 75.8573 195.901 78.3817 196.865 81.3772C197.829 84.3726 197.634 87.6211 196.32 90.4801C198.475 91.2002 200.303 92.664 201.477 94.6097C202.652 96.5553 203.096 98.8558 202.731 101.1C202.366 103.343 201.215 105.384 199.485 106.856C197.754 108.328 195.556 109.136 193.285 109.134H161.66C159.771 109.135 157.924 108.577 156.352 107.528C154.78 106.48 153.553 104.99 152.826 103.245C152.099 101.5 151.905 99.5782 152.268 97.7227C152.63 95.8672 153.534 94.1608 154.864 92.8185Z" fill="#00B1EB"/>
<path d="M179.719 67.3446L172.666 71.1523L188.019 99.6442L195.073 95.8365L179.719 67.3446Z" fill="#002E47"/>
<path d="M182.508 72.5516L175.454 76.3594L178.459 81.9358L185.513 78.128L182.508 72.5516Z" fill="#B6CBD8"/>
<path d="M155.49 65.4017C157.028 68.2584 159.378 70.5944 162.243 72.1143C165.108 73.6342 168.359 74.2697 171.584 73.9405C174.81 73.6114 177.866 72.3323 180.365 70.265C182.865 68.1977 184.696 65.4351 185.626 62.3265C186.557 59.2178 186.546 55.9027 185.594 52.8004C184.643 49.698 182.794 46.9478 180.28 44.8973C177.767 42.8469 174.703 41.5884 171.475 41.2809C168.247 40.9734 165.001 41.6307 162.146 43.1698C160.25 44.192 158.574 45.5779 157.214 47.2484C155.853 48.9189 154.835 50.8413 154.217 52.9057C153.599 54.9702 153.393 57.1364 153.611 59.2804C153.83 61.4245 154.468 63.5045 155.49 65.4017ZM159.204 63.403C158.06 61.2821 157.571 58.8694 157.797 56.47C158.024 54.0706 158.956 51.7923 160.476 49.9232C161.996 48.0541 164.036 46.6781 166.337 45.9694C168.639 45.2606 171.099 45.2508 173.406 45.9413C175.713 46.6318 177.764 47.9915 179.298 49.8485C180.833 51.7055 181.784 53.9763 182.029 56.3738C182.274 58.7714 181.804 61.1879 180.677 63.3178C179.55 65.4477 177.818 67.1954 175.699 68.3397C172.856 69.8718 169.522 70.2117 166.429 69.2847C163.336 68.3578 160.738 66.2399 159.204 63.3964V63.403Z" fill="#004060"/>
<path d="M159.204 63.3979C160.347 65.5192 162.092 67.2537 164.22 68.382C166.348 69.5104 168.762 69.9819 171.157 69.7371C173.553 69.4922 175.822 68.5419 177.677 67.0063C179.533 65.4708 180.892 63.4189 181.583 61.1102C182.274 58.8016 182.265 56.3397 181.558 54.0361C180.851 51.7324 179.477 49.6903 177.61 48.1681C175.743 46.6459 173.467 45.7119 171.07 45.4842C168.673 45.2565 166.263 45.7454 164.143 46.8889C161.302 48.4238 159.186 51.0248 158.26 54.1204C157.334 57.2159 157.673 60.5528 159.204 63.3979Z" fill="#CDEAFC"/>
<path d="M176.193 69.2611L172.69 71.1523L188.043 99.6442L191.547 97.753L176.193 69.2611Z" fill="#001B2C"/>
<path d="M178.979 74.433L175.475 76.3242L178.48 81.9006L181.984 80.0094L178.979 74.433Z" fill="#7199AD"/>
<path d="M162.146 43.1719L164.143 46.8894C161.369 48.4591 159.32 51.0549 158.437 54.1196C157.553 57.1844 157.906 60.4736 159.419 63.281C160.931 66.0885 163.484 68.1903 166.527 69.1353C169.571 70.0802 172.864 69.7929 175.699 68.3351L177.695 72.0526C173.881 73.9836 169.464 74.3473 165.386 73.0662C161.308 71.7851 157.89 68.9604 155.863 65.1943C153.835 61.4281 153.357 57.0182 154.531 52.9045C155.705 48.7907 158.437 45.2984 162.146 43.1719Z" fill="#002E43"/>
<path d="M164.143 46.8906L175.698 68.3363C172.864 69.7942 169.571 70.0815 166.527 69.1365C163.483 68.1915 160.931 66.0897 159.418 63.2822C157.906 60.4748 157.553 57.1856 158.436 54.1209C159.32 51.0562 161.369 48.4603 164.143 46.8906Z" fill="#ABC3D1"/>
<path d="M197.865 102.227C197.865 103.965 197.174 105.633 195.946 106.862C194.718 108.092 193.052 108.782 191.315 108.782H169.661C168.103 108.788 166.594 108.237 165.405 107.229C164.216 106.221 163.425 104.822 163.175 103.283C162.924 101.744 163.229 100.165 164.036 98.8314C164.843 97.4974 166.099 96.4951 167.578 96.0043C166.678 94.0456 166.545 91.8201 167.206 89.7682C167.867 87.7162 169.273 85.9871 171.146 84.9228C173.019 83.8585 175.223 83.5365 177.322 84.0205C179.421 84.5045 181.262 85.7593 182.481 87.5366C183.227 86.7036 184.2 86.1059 185.279 85.8165C186.359 85.527 187.499 85.5583 188.561 85.9066C189.624 86.2548 190.562 86.9049 191.261 87.7776C191.96 88.6503 192.39 89.7078 192.499 90.8211C193.207 90.9836 193.871 91.2992 194.443 91.7458C195.016 92.1924 195.484 92.7592 195.815 93.4062C196.145 94.0533 196.33 94.7649 196.357 95.4911C196.383 96.2174 196.25 96.9406 195.967 97.6099C197.184 98.8378 197.866 100.498 197.865 102.227Z" fill="#57C4F2"/>
<path d="M218.353 121.86C225.908 143.385 228.524 153.579 219.225 156.876C210.738 159.894 199.422 164.771 192.466 162.712C184.898 160.474 172.989 145.604 172.989 145.604L173.069 145.517L163.844 137.083C162.886 136.208 162.314 134.989 162.255 133.692C162.196 132.396 162.653 131.129 163.527 130.171C164.401 129.212 165.62 128.64 166.915 128.581C168.21 128.522 169.476 128.98 170.433 129.854L179.626 138.242C182.748 141 181.623 136.836 180.771 134.391C180.771 134.358 180.731 134.338 180.718 134.305L169.402 102.326C169.201 101.76 169.114 101.161 169.145 100.561C169.176 99.962 169.324 99.3745 169.582 98.8326C169.84 98.2906 170.201 97.8048 170.647 97.4029C171.092 97.0009 171.612 96.6907 172.177 96.4899C173.319 96.0844 174.574 96.1493 175.668 96.6703C176.761 97.1913 177.603 98.1257 178.008 99.268L188.892 130.008L189.97 129.654L182.987 109.928C182.534 108.636 182.61 107.217 183.201 105.982C183.791 104.746 184.847 103.796 186.136 103.339C187.426 102.882 188.844 102.956 190.079 103.544C191.315 104.132 192.266 105.187 192.726 106.477L199.808 126.463L200.667 126.183L194.35 108.315C193.926 107.119 193.995 105.803 194.54 104.658C195.086 103.512 196.064 102.63 197.259 102.206C198.454 101.782 199.769 101.851 200.913 102.397C202.058 102.943 202.939 103.921 203.363 105.117L209.773 123.219L210.612 122.952L207.05 112.879C206.86 112.398 206.768 111.884 206.78 111.367C206.792 110.85 206.909 110.341 207.122 109.87C207.336 109.399 207.642 108.977 208.022 108.627C208.403 108.277 208.85 108.008 209.337 107.835C209.824 107.663 210.341 107.59 210.857 107.622C211.372 107.654 211.876 107.79 212.338 108.021C212.8 108.253 213.211 108.575 213.546 108.969C213.88 109.363 214.132 109.82 214.286 110.314C214.286 110.314 218.346 121.826 218.353 121.86Z" fill="#F7B288"/>
<path d="M217.905 149.733L194.483 158.039L202.695 181.236L226.117 172.93L217.905 149.733Z" fill="#F7B288"/>
<path d="M222.477 157.517L195.797 166.973L201.056 181.838L227.736 172.382L222.477 157.517Z" fill="white"/>
<path d="M226.229 161.348L195.31 172.312L199.476 184.081L230.395 173.116L226.229 161.348Z" fill="#002E47"/>
<path d="M146.344 33.849C146.693 33.0251 146.858 32.1345 146.826 31.2399C146.795 30.3454 146.567 29.4686 146.161 28.6715C145.754 27.8743 145.177 27.1761 144.472 26.6261C143.766 26.076 142.949 25.6875 142.077 25.4879C141.94 24.1192 141.409 22.8196 140.548 21.7474C139.687 20.6752 138.534 19.8766 137.227 19.4488C135.921 19.0211 134.519 18.9825 133.191 19.3379C131.863 19.6933 130.668 20.4273 129.749 21.4506C128.252 19.2532 125.985 17.6996 123.396 17.0984C120.808 16.4973 118.088 16.8926 115.778 18.2058C113.467 19.519 111.735 21.654 110.924 24.1868C110.114 26.7196 110.285 29.4648 111.404 31.877C109.586 32.4827 108.044 33.7164 107.052 35.3572C106.061 36.998 105.686 38.9385 105.994 40.8309C106.303 42.7233 107.275 44.444 108.735 45.6843C110.196 46.9247 112.051 47.6038 113.967 47.5999H140.592C142.185 47.6017 143.742 47.1314 145.068 46.2484C146.394 45.3653 147.428 44.109 148.041 42.6381C148.654 41.1671 148.819 39.5473 148.513 37.9831C148.207 36.4189 147.445 34.9804 146.324 33.849H146.344Z" fill="#00B1EB"/>
<path d="M144.779 18.501C144.779 22.1602 143.695 25.7371 141.664 28.7796C139.633 31.8221 136.746 34.1934 133.368 35.5937C129.991 36.994 126.274 37.3604 122.688 36.6465C119.103 35.9326 115.809 34.1706 113.224 31.5832C110.639 28.9958 108.878 25.6992 108.165 22.1104C107.452 18.5215 107.818 14.8016 109.217 11.421C110.616 8.04036 112.985 5.1509 116.025 3.11798C119.065 1.08506 122.639 0 126.295 0C131.197 0 135.899 1.94921 139.365 5.41882C142.832 8.88843 144.779 13.5942 144.779 18.501Z" fill="#E73E20"/>
<path d="M141.984 18.5025C141.984 21.6098 141.063 24.6474 139.338 27.2309C137.613 29.8145 135.161 31.828 132.293 33.0168C129.424 34.2057 126.268 34.5164 123.223 33.9097C120.178 33.303 117.382 31.8061 115.187 29.6085C112.992 27.4108 111.498 24.611 110.893 21.5632C110.288 18.5154 110.6 15.3565 111.789 12.4861C112.978 9.61568 114.99 7.16265 117.572 5.43726C120.155 3.71188 123.19 2.79165 126.294 2.79297C130.456 2.79474 134.447 4.45062 137.389 7.39654C140.331 10.3425 141.984 14.3372 141.984 18.5025Z" fill="white"/>
<path d="M138.982 18.5017C138.982 21.0148 138.237 23.4714 136.842 25.5609C135.447 27.6503 133.464 29.2787 131.144 30.2401C128.824 31.2015 126.271 31.4528 123.809 30.962C121.346 30.4712 119.085 29.2606 117.31 27.4831C115.535 25.7056 114.326 23.4412 113.837 20.9763C113.348 18.5113 113.6 15.9566 114.562 13.6352C115.524 11.3138 117.152 9.33002 119.24 7.93479C121.329 6.53957 123.784 5.79556 126.294 5.79688C127.961 5.79688 129.611 6.12555 131.151 6.76411C132.691 7.40267 134.09 8.33861 135.268 9.51845C136.446 10.6983 137.381 12.0989 138.018 13.6403C138.655 15.1817 138.983 16.8336 138.982 18.5017Z" fill="#E73E20"/>
<path d="M136.046 18.5023C136.046 20.4327 135.474 22.3198 134.403 23.9248C133.331 25.5299 131.808 26.7808 130.026 27.5196C128.244 28.2583 126.284 28.4516 124.392 28.075C122.5 27.6984 120.763 26.7688 119.399 25.4038C118.035 24.0388 117.106 22.2997 116.73 20.4065C116.354 18.5132 116.547 16.5507 117.285 14.7673C118.023 12.9839 119.273 11.4595 120.877 10.3871C122.48 9.31461 124.366 8.74219 126.294 8.74219C128.881 8.74219 131.361 9.77049 133.19 11.6009C135.019 13.4313 136.046 15.9138 136.046 18.5023Z" fill="white"/>
<path d="M133.004 18.5007C133.005 19.8308 132.612 21.1314 131.875 22.2378C131.137 23.3443 130.089 24.2069 128.861 24.7166C127.634 25.2262 126.283 25.3598 124.979 25.1007C123.676 24.8415 122.478 24.2012 121.539 23.2606C120.599 22.3201 119.959 21.1217 119.7 19.8171C119.441 18.5125 119.575 17.1604 120.084 15.9318C120.593 14.7032 121.455 13.6534 122.561 12.9153C123.666 12.1771 124.965 11.7838 126.294 11.7852C128.074 11.7852 129.781 12.4927 131.039 13.7521C132.297 15.0115 133.004 16.7196 133.004 18.5007Z" fill="#E73E20"/>
<path d="M130.308 18.5012C130.308 19.2918 130.074 20.0647 129.635 20.722C129.196 21.3794 128.573 21.8917 127.843 22.1943C127.113 22.4968 126.31 22.576 125.535 22.4218C124.761 22.2675 124.049 21.8868 123.49 21.3278C122.932 20.7687 122.551 20.0565 122.397 19.2811C122.243 18.5057 122.322 17.7019 122.625 16.9715C122.927 16.2411 123.439 15.6168 124.096 15.1776C124.752 14.7383 125.525 14.5039 126.314 14.5039C127.374 14.5039 128.39 14.9251 129.139 15.6747C129.888 16.4243 130.308 17.4411 130.308 18.5012Z" fill="white"/>
<path d="M149.48 7.75081L130.52 16.168L131.087 17.4469L150.047 9.02971L149.48 7.75081Z" fill="#2E2D2C"/>
<path fill-rule="evenodd" clip-rule="evenodd" d="M134.662 19.2408L130.841 16.929L131.606 12.332L126.228 18.8477L134.662 19.2408Z" fill="#2E2D2C"/>
<path fill-rule="evenodd" clip-rule="evenodd" d="M152.507 9.70777L150.184 8.30204L150.65 5.50391L147.562 6.86966L147.049 9.6145L149.372 11.0935L152.507 9.70777Z" fill="#E73E20"/>
<path d="M88.2596 11.5983H79.7993V9.00674C79.8712 8.22182 79.7618 7.43086 79.4797 6.69495C79.3589 6.525 79.1959 6.38952 79.0068 6.30189C78.8177 6.21426 78.609 6.17752 78.4014 6.19528C78.1532 6.18367 77.9064 6.23946 77.6873 6.35674C77.4682 6.47403 77.2848 6.64844 77.1566 6.86151C76.8422 7.47868 76.6974 8.16851 76.7373 8.86017C76.683 9.77332 76.8449 10.6864 77.2099 11.5251C77.5072 12.1202 78.3637 12.8331 79.7793 13.6636C83.822 16.0665 86.3692 18.0385 87.4209 19.5797C88.4726 21.1209 88.9985 23.6037 88.9985 27.0281C88.9985 29.5197 88.7056 31.3563 88.1198 32.5377C87.3625 33.8813 86.173 34.9286 84.745 35.5091C82.9159 36.342 80.9229 36.7519 78.9139 36.7083C76.7573 36.7707 74.6189 36.2969 72.6902 35.3292C71.1653 34.617 69.9615 33.36 69.3154 31.8049C68.7025 29.8428 68.4323 27.7896 68.5166 25.7356V23.4571H76.9436V27.7143C76.8655 28.5725 76.9886 29.4371 77.3031 30.2393C77.4442 30.4381 77.6359 30.5954 77.8583 30.695C78.0807 30.7946 78.3257 30.8328 78.5678 30.8055C78.8333 30.8175 79.097 30.7576 79.3313 30.6321C79.5656 30.5067 79.7617 30.3203 79.8991 30.0927C80.2343 29.4391 80.3883 28.7075 80.3451 27.9741C80.3451 25.9155 80.0589 24.5697 79.4997 23.9368C78.1928 22.7364 76.7677 21.6717 75.2462 20.7589C73.6797 19.7721 72.1809 18.6815 70.7598 17.4944C69.9583 16.7048 69.3421 15.7468 68.9559 14.6896C68.4291 13.2208 68.1829 11.6659 68.2304 10.106C68.2304 7.44112 68.5743 5.48242 69.2621 4.22993C70.0219 2.92146 71.1917 1.90044 72.5903 1.3252C74.3355 0.583444 76.2199 0.226694 78.1152 0.279227C80.1846 0.220338 82.2421 0.611289 84.1459 1.42513C85.5657 1.95508 86.7472 2.97918 87.4741 4.30987C88.0133 5.4691 88.2796 7.43446 88.2796 10.2193L88.2596 11.5983Z" fill="#E73E20"/>
<path d="M91.8407 1.01172H106.991V7.99373H100.907V14.656H106.585V21.3182H100.907V28.9864H107.563V35.9751H91.8407V1.01172Z" fill="#E73E20"/>
<path d="M146.763 37.0413C147.016 36.4637 147.145 35.8397 147.142 35.2092C147.137 34.1504 146.776 33.1242 146.116 32.2962C145.457 31.4682 144.538 30.8867 143.508 30.6456C143.402 29.5952 142.994 28.5982 142.332 27.7758C141.671 26.9533 140.785 26.3408 139.783 26.0127C138.78 25.6846 137.704 25.655 136.685 25.9274C135.666 26.1999 134.748 26.7628 134.043 27.5477C132.889 25.8733 131.15 24.6923 129.17 24.2374C127.189 23.7824 125.11 24.0866 123.343 25.0899C121.575 26.0932 120.247 27.7229 119.62 29.6577C118.994 31.5924 119.114 33.692 119.958 35.5423C118.561 36.0096 117.377 36.9597 116.617 38.2221C115.858 39.4846 115.573 40.9767 115.813 42.4305C116.054 43.8844 116.804 45.2049 117.929 46.155C119.055 47.105 120.482 47.6224 121.954 47.6143H142.41C143.632 47.614 144.827 47.2517 145.843 46.5729C146.86 45.8942 147.653 44.9294 148.123 43.8002C148.593 42.6709 148.718 41.4278 148.483 40.2274C148.248 39.027 147.664 37.923 146.803 37.0547L146.763 37.0413Z" fill="#57C4F2"/>
</g>
<defs>
<clipPath id="clip0_5_2106">
<rect width="230" height="200" fill="white" transform="translate(0.394531)"/>
</clipPath>
</defs>
</svg>
