<svg width="104" height="104" viewBox="0 0 104 104" fill="none" xmlns="http://www.w3.org/2000/svg">
<g id="Group 1171275375">
<path id="Polygon 4" d="M44.5 4.33013C49.141 1.65064 54.859 1.65063 59.5 4.33013L89.5333 21.6699C94.1743 24.3494 97.0333 29.3013 97.0333 34.6603V69.3397C97.0333 74.6987 94.1743 79.6506 89.5333 82.3301L59.5 99.6699C54.859 102.349 49.141 102.349 44.5 99.6699L14.4667 82.3301C9.82566 79.6506 6.96668 74.6987 6.96668 69.3397V34.6603C6.96668 29.3013 9.82566 24.3494 14.4667 21.6699L44.5 4.33013Z" fill="#FFA979"/>
<g id="Group 1171275370">
<g id="Group 1171275087">
<g id="Group 1171275083">
<path id="Ellipse 1708" d="M48.5911 56.0813C48.5911 56.7962 48.0115 57.3758 47.2966 57.3758C46.5817 57.3758 46.0021 56.7962 46.0021 56.0813C46.0021 55.3663 46.5817 54.7867 47.2966 54.7867C48.0115 54.7867 48.5911 55.3663 48.5911 56.0813Z" fill="#1E1951"/>
<path id="Ellipse 1709" d="M53.1218 56.081C53.1218 56.796 52.5422 57.3755 51.8273 57.3755C51.1124 57.3755 50.5328 56.796 50.5328 56.081C50.5328 55.3661 51.1124 54.7865 51.8273 54.7865C52.5422 54.7865 53.1218 55.3661 53.1218 56.081Z" fill="#1E1951"/>
<path id="Ellipse 1710" d="M57.6525 56.0808C57.6525 56.7957 57.073 57.3753 56.358 57.3753C55.6431 57.3753 55.0635 56.7957 55.0635 56.0808C55.0635 55.3658 55.6431 54.7863 56.358 54.7863C57.073 54.7863 57.6525 55.3658 57.6525 56.0808Z" fill="#1E1951"/>
<path id="Subtract" fill-rule="evenodd" clip-rule="evenodd" d="M44.5455 47.3433H59.1088C63.6666 47.3433 67.3614 51.0381 67.3614 55.5958C67.3614 60.1536 63.6666 63.8484 59.1088 63.8484H46.753C44.5094 64.8514 46.4938 67.1013 47.7815 68.2172C43.2383 66.7517 39.7771 63.4369 37.9319 60.5328C36.9025 59.156 36.2929 57.4471 36.2929 55.5958C36.2929 51.0381 39.9877 47.3433 44.5455 47.3433ZM30.144 55.5958C30.144 47.6421 36.5918 41.1943 44.5455 41.1943H59.1088C67.0626 41.1943 73.5103 47.6421 73.5103 55.5958C73.5103 63.5496 67.0626 69.9974 59.1088 69.9974H44.5455C36.5918 69.9974 30.144 63.5496 30.144 55.5958Z" fill="#1E1951"/>
</g>
<g id="Group 1171275085">
<path id="Rectangle 1788" d="M44.3847 38.2822C44.3847 37.746 44.8194 37.3113 45.3556 37.3113V37.3113C45.8918 37.3113 46.3265 37.746 46.3265 38.2822V42.4894C46.3265 43.0256 45.8918 43.4602 45.3556 43.4602V43.4602C44.8194 43.4602 44.3847 43.0256 44.3847 42.4894V38.2822Z" fill="#1E1951"/>
<path id="Ellipse 1702" d="M47.6204 36.6636C47.6204 37.9147 46.6061 38.929 45.355 38.929C44.1038 38.929 43.0896 37.9147 43.0896 36.6636C43.0896 35.4125 44.1038 34.3982 45.355 34.3982C46.6061 34.3982 47.6204 35.4125 47.6204 36.6636Z" fill="#1E1951"/>
</g>
<g id="Group 1171275084">
<path id="Rectangle 1790" d="M57.0059 38.2819C57.0059 37.7457 57.4406 37.311 57.9768 37.311V37.311C58.513 37.311 58.9477 37.7457 58.9477 38.2819V42.4891C58.9477 43.0253 58.513 43.46 57.9768 43.46V43.46C57.4406 43.46 57.0059 43.0253 57.0059 42.4891V38.2819Z" fill="#1E1951"/>
<path id="Ellipse 1703" d="M60.242 36.6636C60.242 37.9147 59.2277 38.929 57.9766 38.929C56.7254 38.929 55.7112 37.9147 55.7112 36.6636C55.7112 35.4125 56.7254 34.3982 57.9766 34.3982C59.2277 34.3982 60.242 35.4125 60.242 36.6636Z" fill="#1E1951"/>
</g>
</g>
</g>
</g>
</svg>
