<svg xmlns="http://www.w3.org/2000/svg" width="199" height="172" fill="none" xmlns:v="https://vecta.io/nano"><path d="M91.177 63.611c5.383 63.959 51.38 86.143 96.474 87.185m-1.295-9.512l10.921 8.383-12.262 11.18" stroke="#fff" stroke-width="2.741" stroke-miterlimit="10" stroke-linecap="round" stroke-linejoin="round"/><path d="M1.672 23.905c-.329-.183-.512-.384-.548-.603-.018-.219.11-.603.384-1.151l1.288-2.549c.439-.822.731-1.462.877-1.919.164-.475.256-.813.274-1.014l.027-.384c-.037-.165-.018-.292.055-.384.073-.11.192-.201.356-.274.091-.091.302-.256.63-.493s.585-.521.768-.85l.548-1.179.85-1.508L8.58 9.185l1.288-2.165 1.508-2.193a2.77 2.77 0 0 1 .63-.603c.219-.146.411-.219.576-.219.402 0 .804.11 1.206.329a4.08 4.08 0 0 1 1.069.768c.311.311.521.603.63.877.091.146.128.457.11.932l-.11 1.727-.192 2.165-.247 2.659-.329 3.207-.219 3.235c-.055 1.023-.055 1.919 0 2.686.018.165.018.32 0 .466l-.027.356c-.11.11-.347.155-.713.137a3.53 3.53 0 0 1-1.069-.164c-.347-.11-.539-.247-.576-.411-.055-.055-.091-.101-.11-.137s-.018-.21 0-.521l.082-1.782.137-4.194-.356.027c-.164 0-.466.018-.905.055l-1.398.164-1.371.192c-.42.055-.713.11-.877.165-.164 0-.365.11-.603.329-.219.219-.429.502-.63.85-.073.256-.21.53-.411.822-.183.274-.274.457-.274.548-.128.091-.238.201-.329.329l-.11.192c0 .11-.082.384-.247.822l-.603 1.425c-.238.512-.484.959-.74 1.343l-.74 1.042-.959-.74zm6.551-9.429l.302-.055.713-.11c.292-.055.548-.082.768-.082l1.042-.247c.292-.055.53-.082.713-.082.183-.018.329 0 .439.055.073.091.137.146.192.164l.11.027c.018-.037.055-.229.11-.576l.192-1.288.219-1.59.192-1.562.11-1.151c.018-.347.009-.658-.027-.932l-.055-.439c-.11 0-.32.201-.63.603-.292.384-.639.905-1.042 1.562l-1.151 2.083c-.183.347-.356.621-.521.822-.146.201-.265.302-.356.302-.037.037-.137.183-.302.439l-.493.822-.439.822c-.11.238-.137.375-.082.411zm10.437 7.703c-.274 0-.548-.201-.822-.603-.274-.42-.493-.932-.658-1.535-.146-.603-.201-1.197-.165-1.782 0-.585.027-1.051.082-1.398l.219-1.069c.055-.11.082-.201.082-.274.018-.073.037-.192.055-.356l.192-.822.219-.768c.091-.201.164-.338.219-.411.219-.292.466-.466.74-.521.274-.073.521-.046.74.082.238.128.375.32.411.576.11.091.165.302.165.63.018.311 0 .64-.055.987-.055.329-.137.566-.247.713-.037.091-.082.329-.137.713l-.137 1.206-.137 1.014c-.055.329-.037.539.055.631.11.073.292-.009.548-.247.274-.256.63-.704 1.069-1.343l.795-1.288a5.08 5.08 0 0 0 .411-.85l.356-.905.247-.713c.091-.183.174-.311.247-.384.201-.292.466-.411.795-.356.347.037.631.128.85.274.219.219.347.521.384.905.055.365-.027.768-.247 1.206-.146.292-.292.64-.439 1.042l-.329 1.206c-.073.402-.11.749-.11 1.042 0 .366.046.585.137.658a.85.85 0 0 0 .384.082c.219 0 .429-.073.63-.219.201-.164.493-.448.877-.85a6.33 6.33 0 0 0 .603-.74l.685-1.042.576-.959c.164-.292.247-.475.247-.548 0-.11.082-.265.247-.466l.247-.329c.073-.091.201-.183.384-.274a.65.65 0 0 1 .493-.027.82.82 0 0 1 .466.274c.091.073.155.256.192.548.055.274.082.521.082.74l-.247.85-.356 1.014c-.11.311-.21.521-.301.63l-.384.411a3.95 3.95 0 0 0-.493.603c-.457.548-.786.904-.987 1.069l-.521.466c-.384.384-.822.694-1.316.932-.493.219-.959.347-1.398.384-.439.018-.786-.064-1.042-.247-.567-.292-.85-.786-.85-1.48a.85.85 0 0 0-.082-.384l-.055-.192c-.073 0-.174.018-.301.055-.11.037-.228.165-.356.384-.165.311-.448.631-.85.959-.384.311-.777.576-1.179.795-.402.201-.713.302-.932.302zm14.818.987a3.46 3.46 0 0 1-1.617-.384c-.475-.274-.859-.603-1.151-.987-.292-.402-.439-.786-.439-1.151 0-.165.027-.283.082-.356.073-.073.174-.11.302-.11.091.018.201.064.329.137a4.55 4.55 0 0 1 .384.247 2.31 2.31 0 0 0 .959.384c.347.055.658.037.932-.055.274-.11.43-.274.466-.493 0-.073-.036-.229-.11-.466a4.47 4.47 0 0 0-.274-.685c-.457-.676-.74-1.316-.85-1.919-.11-.621-.183-1.243-.219-1.864 0-.256.119-.539.356-.85.237-.329.53-.649.877-.959.384-.329.804-.64 1.261-.932.475-.292.941-.539 1.398-.74s.841-.32 1.151-.356c.329 0 .676.018 1.042.055.384.018.64.082.767.192.256.201.493.53.713.987s.329.841.329 1.151c0 .146-.082.329-.247.548-.146.201-.283.43-.411.685-.073.128-.137.265-.192.411s-.119.292-.192.439c-.11.256-.311.365-.603.329-.274-.055-.53-.201-.767-.439-.237-.256-.356-.548-.356-.877a1.09 1.09 0 0 1 .247-.713c.164-.201.247-.338.247-.411 0-.037-.018-.064-.055-.082a.47.47 0 0 0-.192-.027c-.128 0-.338.055-.63.165a4.65 4.65 0 0 0-.877.411 4.23 4.23 0 0 0-.85.658 3.31 3.31 0 0 0-.466.658 1.57 1.57 0 0 0-.164.713c0 .256.046.557.137.905.11.329.228.603.356.822.036.037.091.137.164.302.091.146.192.329.302.548.676 1.389.786 2.421.329 3.098-.439.676-1.261 1.014-2.467 1.014zm8.871-.356c-.238 0-.43-.046-.576-.137l-.493-.384c-.347-.365-.63-.758-.85-1.179-.201-.42-.274-.786-.219-1.096a.83.83 0 0 0 .055-.411v-.219c-.091-.091-.119-.146-.082-.164a.64.64 0 0 0 .11-.165c.11 0 .146-.101.11-.302-.037-.146.018-.457.164-.932.165-.493.384-.959.658-1.398a8.88 8.88 0 0 1 .493-.713 11.06 11.06 0 0 1 .713-.905c.274-.311.521-.557.74-.74.457-.384.877-.694 1.261-.932a4.2 4.2 0 0 1 1.206-.493c.402-.091.813-.137 1.233-.137.439 0 .795.146 1.069.439.42.183.713.429.877.74.183.311.302.713.356 1.206.055.548 0 1.224-.164 2.028-.164.786-.612 1.699-1.343 2.741-.457.658-.905 1.169-1.343 1.535s-.923.704-1.453 1.014c-.384.256-.795.411-1.233.466l-1.288.137zm2.796-3.344c.402-.347.685-.731.85-1.151l.576-1.48c.073-.11.119-.292.137-.548a3.39 3.39 0 0 0 .027-.74c-.018-.256-.082-.402-.192-.439-.164-.128-.329-.155-.493-.082-.164.055-.375.174-.63.356-.548.457-1.06.987-1.535 1.59-.457.585-.777 1.307-.959 2.166-.055.457-.009.804.137 1.042.164.219.42.283.767.192.365-.11.804-.411 1.316-.905zm6.697 2.631a2.02 2.02 0 0 1-.85-.658c-.201-.311-.302-.685-.302-1.124 0-.183.037-.493.11-.932l.302-1.48.384-1.535a3.07 3.07 0 0 0 .356-.987l.11-.603c.037-.219.101-.512.192-.877l.274-.987c.11-.311.183-.484.219-.521.091-.091.247-.146.466-.165s.439.009.658.082c.219.055.366.174.439.356.201.219.311.548.329.987.036.438-.046.95-.247 1.535a13.79 13.79 0 0 0-.493 1.288l-.439 1.37-.192.822-.987-.027.877-.905.603-.768.795-1.042.905-1.042c.365-.42.758-.713 1.179-.877.42-.183.731-.274.932-.274.402.073.758.283 1.069.63.329.329.53.822.603 1.48a5.91 5.91 0 0 1-.082.905l-.055.521.438-.548a13 13 0 0 1 1.233-1.233c.347-.256.685-.402 1.014-.439.329-.055.621.055.877.329.475.256.822.704 1.042 1.343s.292 1.361.219 2.166c-.055.475-.055.859 0 1.151l.219.74c.237.329.274.621.11.877-.164.238-.311.356-.439.356-.183 0-.457-.037-.822-.11a3.24 3.24 0 0 1-1.014-.384c-.292-.183-.439-.429-.439-.74V19.08c0-.402-.018-.694-.055-.877-.018-.201-.064-.329-.137-.384-.201-.11-.448-.027-.74.247s-.612.667-.959 1.179l-1.069 1.672c-.347.567-.63.914-.85 1.042a.6.6 0 0 1-.63-.027c-.402-.128-.658-.302-.768-.521-.091-.238-.1-.503-.027-.795l.329-1.206.411-1.425.247-1.042c-.073-.146-.201-.192-.384-.137-.164.037-.338.119-.521.247l-.713.466c-.238.165-.521.512-.85 1.042l-.74 1.151-.768 1.096c-.219.329-.402.557-.548.685-.128.329-.247.539-.356.63-.11.073-.265.064-.466-.027zm16.949 1.398c-1.005 0-1.782-.292-2.33-.877-.53-.585-.795-1.48-.795-2.686 0-.658.119-1.38.356-2.165.256-.786.585-1.553.987-2.303.42-.749.877-1.398 1.37-1.946.493-.567.987-.959 1.48-1.179.183-.091.375-.155.576-.192.219-.055.43-.082.63-.082a5.07 5.07 0 0 1 .713.055 2.61 2.61 0 0 1 .767.164c.42.128.786.375 1.096.74.329.366.493.895.493 1.59 0 .183-.018.384-.055.603a2.56 2.56 0 0 1-.192.603c-.237.603-.603 1.179-1.096 1.727-.475.548-.978.932-1.508 1.151a2.14 2.14 0 0 1-.439.164c-.128.018-.265.027-.411.027-.384 0-.731-.055-1.042-.165a3.56 3.56 0 0 1-.822-.439l-.219-.192-.137.274-.274.877-.055.521.027.685c.018.219.073.402.164.548a.81.81 0 0 0 .274.219c.128.055.283.082.466.082h.301l.274-.055c.329-.073.594-.192.795-.356.219-.183.448-.338.685-.466l.11-.055-.027-.082.63-.302.247-.137a.34.34 0 0 1 .247-.11c.256-.037.502.037.74.219.256.164.384.375.384.63 0 .11-.082.283-.247.521-.146.238-.338.475-.576.713-.219.219-.448.393-.685.521a.69.69 0 0 0-.164.082.69.69 0 0 0-.164.082h.027c-.164.219-.329.329-.493.329h-.219c-.073.128-.311.265-.713.411a3.1 3.1 0 0 1-1.179.247zm1.425-6.606c.164 0 .311-.027.439-.082.146-.055.283-.119.411-.192.439-.311.722-.713.85-1.206s.082-.868-.137-1.124c-.037-.055-.082-.091-.137-.11-.055-.037-.119-.055-.192-.055-.201 0-.429.064-.685.192-.238.128-.475.311-.713.548a4.55 4.55 0 0 0-.658.85l-.356.576c.037-.018.064-.027.082-.027a.21.21 0 0 1 .082-.027c.165 0 .274.055.329.164a3.07 3.07 0 0 0 .192.329c.091.11.256.165.493.165zm12.011 7.675c-.219 0-.402-.119-.548-.356-.11-.11-.228-.283-.356-.521s-.174-.621-.137-1.151c.055-.548.256-1.343.603-2.385l.439-1.508c.11-.329.164-.567.164-.713 0-.201.018-.365.055-.493.055-.146.082-.283.082-.411.11 0 .219-.101.329-.302s.201-.475.274-.822l.192-.74c.073-.201.11-.338.11-.411.091-.146.183-.375.274-.685a10.16 10.16 0 0 1 .493-1.124l.493-1.7.548-1.672.493-1.234.466-1.179c.11-.238.11-.393 0-.466-.128-.091-.192-.32-.192-.685.018-.384.192-.713.521-.987.201-.238.457-.402.767-.493.311-.11.667-.164 1.069-.164l1.261.055 1.042.027h.713l.603.247.63.274c.201.073.302.137.302.192 0 .11.037.183.11.219l.274.055c.128 0 .338.119.63.356a6.03 6.03 0 0 1 .877.822c.311.311.53.621.658.932.146.311.265.603.356.877.11.274.119.667.027 1.179-.018.274-.064.548-.137.822-.055.274-.119.457-.192.548a1.41 1.41 0 0 0-.301.274c-.091.11-.137.21-.137.301 0 .073-.073.256-.219.548l-.548.959-.713 1.042c-.256.347-.493.621-.713.822-.238.292-.521.566-.85.822-.311.256-.594.466-.85.63-.475.219-1.023.43-1.645.631l-1.754.493c-.566.11-1.023.155-1.371.137-.53.073-.877.146-1.042.219-.164.055-.283.21-.356.466l-.274.74c-.073.256-.11.439-.11.548-.037.073-.119.274-.247.603l-.411 1.151-.411 1.316-.301 1.124c-.073.256-.228.448-.466.576-.219.128-.411.192-.576.192zm3.892-9.155c.073.073.311.082.713.027s.886-.192 1.453-.411c.365-.128.731-.283 1.096-.466a10.51 10.51 0 0 0 1.096-.603c.183-.128.375-.283.576-.466a12.96 12.96 0 0 0 .85-.987c.055-.091.146-.265.274-.521l.384-.768c.165-.256.329-.63.493-1.124.165-.512.201-.932.11-1.261-.091-.475-.274-.868-.548-1.179a2.32 2.32 0 0 0-1.042-.713L90.559 6.8c-.256-.018-.539 0-.85.055-.292.091-.503.219-.63.384-.11.164-.274.512-.493 1.042l-.548 1.069a9.74 9.74 0 0 0-.603 1.343l-.877 2.768-.466 1.261c.018.201.009.347-.027.439-.036.073-.018.155.055.247zm9.039 6.853c-.164-.128-.347-.292-.548-.493-.183-.201-.247-.484-.192-.85.055-.512.128-.959.219-1.343l.329-1.37a12.93 12.93 0 0 1 .274-1.124l.576-1.727.685-1.754c.237-.567.448-.987.63-1.261.201-.183.493-.274.877-.274.402 0 .676.073.822.219.201.165.265.457.192.877-.073.402-.329 1.032-.767 1.891-.091.219-.21.457-.356.713-.128.238-.219.439-.274.603-.055.146-.037.21.055.192.11-.201.311-.429.603-.685l.932-.795.932-.685.603-.384c.146-.091.311-.165.493-.219l.412-.164c.42-.201.877-.274 1.37-.219.512.037.823.192.932.466.018.146.073.256.165.329l.164.11c.073 0 .11.027.11.082l.027.082c0 .128-.128.311-.384.548-.237.238-.502.365-.795.384-.237.018-.447.064-.63.137l-.658.274-1.891 1.069c-.548.311-1.115.786-1.7 1.425a4.37 4.37 0 0 1-.411.411 2.39 2.39 0 0 0-.439.548c-.091.091-.183.292-.274.603l-.247.905-.082.493-.082.274a1.67 1.67 0 0 1-.274.493c-.219.292-.439.475-.658.548-.201.073-.448-.037-.74-.329zm12.043.987c-.237.018-.429-.009-.575-.082a3.79 3.79 0 0 1-.549-.274 4.11 4.11 0 0 1-1.014-1.151c-.256-.457-.374-.841-.356-1.151a.9.9 0 0 0 0-.439l-.028-.192c-.109-.091-.146-.146-.109-.165a.35.35 0 0 0 .082-.164c.146-.037.165-.137.055-.302-.055-.146-.028-.475.082-.987a8.8 8.8 0 0 1 .494-1.48l.383-.795.603-.987c.22-.347.421-.621.603-.822l1.069-1.124a3.38 3.38 0 0 1 1.097-.658c.365-.146.731-.21 1.096-.192.384.018.722.146 1.014.384a3.43 3.43 0 0 1 1.179.603c.347.256.585.621.713 1.096.146.53.192 1.16.137 1.891-.037.713-.347 1.635-.932 2.768-.347.713-.695 1.288-1.042 1.727-.329.439-.731.859-1.206 1.261-.347.292-.795.548-1.343.767s-1.032.375-1.453.466zm2.385-4.139c.238-.329.42-.649.548-.959.146-.311.284-.74.411-1.288.055-.201.083-.448.083-.74.018-.292.009-.557-.028-.795-.018-.256-.082-.393-.192-.411-.237-.091-.484-.091-.74 0-.237.073-.521.292-.849.658-.293.329-.53.64-.713.932-.165.274-.32.612-.466 1.014l-.439 1.508c-.146.603-.155 1.087-.027 1.453.146.365.42.466.822.301s.932-.722 1.59-1.672zm12.727 3.865l-.767.027c-.22 0-.393-.037-.521-.11-.329-.274-.548-.493-.658-.658-.091-.165-.137-.347-.137-.548l.027-.768v-.63c-.073-.073-.219.009-.438.247a5.68 5.68 0 0 1-.768.685c-.566.64-1.069 1.106-1.507 1.398-.439.274-.841.43-1.207.466-.365.055-.73.064-1.096.027-.329-.037-.621-.201-.877-.493-.238-.292-.42-.649-.548-1.069-.11-.42-.147-.831-.11-1.233.091-.749.256-1.425.493-2.028.238-.621.594-1.27 1.069-1.946.22-.292.512-.612.878-.959.383-.347.795-.667 1.233-.959.439-.311.832-.53 1.179-.658.53-.238.968-.347 1.316-.329.365.018.721.073 1.069.164.255.128.456.192.603.192.164 0 .283-.091.356-.274.11-.146.192-.329.247-.548a2.11 2.11 0 0 1 .274-.63l.603-1.782.712-1.699.932-2.138c.421-.713.777-1.087 1.069-1.124.311-.037.631.128.96.493.219.219.338.493.356.822.037.311-.046.676-.247 1.096-.127.201-.264.457-.411.768l-.52 1.042-.631 1.425-.63 1.562-.302 1.014-.274 1.042-.192.822c-.055.237-.119.356-.192.356-.146.128-.283.402-.411.822a11.93 11.93 0 0 0-.329 1.288l-.192 1.124c-.036.219-.064.53-.082.932l-.027 1.124v.713c0 .347-.028.594-.083.74-.036.128-.109.192-.219.192zm-6.195-2.166c.42 0 .813-.174 1.179-.521l1.261-1.151.85-.905.794-1.014.603-.85c.147-.237.22-.393.22-.466 0-.091-.073-.174-.22-.247-.127-.073-.283-.128-.466-.165-.182-.055-.347-.064-.493-.027-.438.128-.795.32-1.069.576l-1.124 1.206c-.493.603-.886 1.179-1.178 1.727s-.476.996-.549 1.343c-.055.329.009.493.192.493zm15.826 2.138c-.183-.183-.329-.43-.439-.74l-.329-1.124c-.036-.146-.055-.311-.055-.493.019-.183.019-.329 0-.439-.054.128-.146.292-.274.493-.109.201-.219.347-.329.438-.073.073-.237.219-.493.439-.256.201-.512.366-.768.493-.603.384-1.142.566-1.617.548-.457-.037-.859-.274-1.206-.713-.292-.238-.53-.539-.713-.905s-.219-.804-.109-1.316c.036-.64.128-1.261.274-1.864.146-.621.448-1.444.904-2.467l.878-1.754.383-.74c.275-.091.613-.082 1.015.027.402.091.621.265.657.521.11.183.11.53 0 1.042-.109.493-.328 1.06-.657 1.699l-.74 1.809c-.22.585-.357 1.078-.412 1.48-.036.402.073.649.329.74.165.091.402.082.713-.027.329-.11.713-.439 1.151-.987s.905-1.416 1.398-2.604l.329-.959a5.04 5.04 0 0 0 .137-.959c-.036-.219.018-.448.165-.685.164-.238.356-.42.575-.548.073-.091.174-.174.302-.247.128-.091.21-.091.246 0l.439-.027c.073-.018.155.055.247.219s.182.283.274.356c.201.164.292.521.274 1.069s-.238 1.316-.658 2.303l-.713 1.7c-.109.384-.173.758-.191 1.124 0 .329.027.612.082.85.055.219.219.448.493.685.201.128.311.347.329.658a3.75 3.75 0 0 1 .028.767c-.037.165-.183.274-.439.329a1.89 1.89 0 0 1-.795.055c-.274-.037-.503-.119-.685-.247zm7.733-.192c-.238.11-.512.155-.822.137s-.731-.119-1.261-.302c-.037 0-.165-.082-.384-.247s-.439-.356-.658-.576-.365-.402-.439-.548c-.292-.42-.383-1.042-.274-1.864.128-.822.421-1.809.877-2.96.128-.274.32-.621.576-1.042l.795-1.151c.274-.366.466-.576.576-.63l.301-.11c.201-.073.457-.192.768-.356.091-.037.246-.082.466-.137l.712-.137c.256-.055.43-.073.521-.055.366.018.74.155 1.124.411.402.238.731.521.987.85.256.311.338.585.247.822 0 .037-.055.155-.165.356l-.301.576-.275.411c-.091.11-.255.155-.493.137a1.21 1.21 0 0 1-.603-.219.68.68 0 0 1-.302-.521c-.036-.146-.173-.283-.411-.411l-.329-.192c-.146 0-.338.146-.575.439l-.74.987c-.329.329-.567.685-.713 1.069a6.31 6.31 0 0 0-.274 1.042c-.037.311-.082.548-.137.713-.073.183-.073.411 0 .685s.164.429.274.466c.164.018.384.009.658-.027l.904-.192.987-.274.877-.329c.347-.219.649-.302.905-.247l.575.11c.201.073.302.228.302.466s-.082.493-.247.768c-.164.256-.402.466-.712.63a4.83 4.83 0 0 0-.795.493c-.22.165-.329.292-.329.384-.073 0-.156.027-.247.082-.073.037-.137.046-.192.027-.036 0-.183.027-.438.082l-.795.192c-.256.073-.43.137-.521.192zm8.356.274c-.201-.037-.421-.155-.658-.356-.238-.219-.457-.457-.658-.713-.183-.274-.302-.503-.356-.685 0-.037-.028-.082-.083-.137l-.054-.082c-.074-.055-.119-.292-.137-.713 0-.439.027-.923.082-1.453l.192-1.261.411-1.179.466-1.371.74-1.59-1.097-.302c-.127-.037-.237-.11-.328-.219-.074-.11-.11-.201-.11-.274 0-.146.082-.356.247-.63s.283-.411.356-.411c.091.018.256.027.493.027l.74-.027.439-.055c.073-.037.146-.082.219-.137.073-.073.128-.174.165-.302.091-.201.173-.356.246-.466l.302-.493.301-.603.412-.685.301-.466a1.69 1.69 0 0 1 .411-.466c.165-.146.43-.247.795-.302.384-.073.713.009.987.247.146.183.228.356.247.521s-.055.375-.22.63c-.146.311-.319.594-.52.85-.183.238-.357.512-.521.822-.293.402-.347.631-.165.685s.695.018 1.535-.11c.53-.091.914-.037 1.152.164a1.15 1.15 0 0 1 .411.768c.055.439.009.704-.137.795s-.567.137-1.261.137l-1.124.137h-.685l-.466.027c-.073 0-.183.018-.329.055s-.256.101-.329.192a2.23 2.23 0 0 0-.192.329c-.073.073-.183.265-.329.576s-.329.649-.548 1.014l-.658 2.22-.439 2.083c-.054.347-.045.603.028.768.091.146.329.238.712.274.202.018.494.018.878 0a5.45 5.45 0 0 0 .959-.164l.63-.274.604-.329.493-.274.247-.164c.091-.146.219-.119.383.082.183.183.311.384.384.603 0 .219-.046.484-.137.795-.091.292-.429.603-1.014.932-.822.512-1.645.822-2.467.932s-1.471.119-1.946.027zM14.254 43.749c-.11.073-.338.165-.685.274-.329.091-.895.183-1.7.274l-1.014.055-1.425.055-1.371.027c-.402-.018-.685-.046-.85-.082l-.137.137c-.073.091-.11.21-.11.356-.128.219-.283.548-.466.987l-.603 1.398-.576 1.535-.466 1.316c-.11.365-.164.621-.164.767-.164.439-.265.813-.302 1.124s-.101.493-.192.548c-.055.274-.228.411-.521.411-.274 0-.484-.082-.63-.247-.402-.201-.676-.457-.822-.767-.146-.329-.155-.694-.027-1.096l.274-1.042.466-1.562.548-1.645c.201-.548.393-.996.576-1.343.201-.347.329-.658.384-.932.055-.292.128-.557.219-.795-.018-.201-.018-.329 0-.384.018-.073.091-.192.219-.356.091-.073.201-.201.329-.384.146-.201.311-.503.493-.905l.247-.74.356-.987.302-.877.137-.384a4.58 4.58 0 0 0 .164-.411l.164-.521.164-.63c.055-.164.046-.247-.027-.247-.146.036-.439.064-.877.082l-.493.082c-.091 0-.174.009-.247.027-.183.018-.347 0-.493-.055s-.219-.164-.219-.329c.037-.292.137-.594.302-.905.183-.311.411-.475.685-.493.128-.037.265-.064.411-.082l.658-.165c.347-.073.649-.091.905-.055.274.018.466.046.576.082a1.14 1.14 0 0 0 .219-.164c.073-.073.119-.146.137-.219.091-.329.256-.576.493-.74.238-.183.484-.274.74-.274.274-.018.493.055.658.219.164.146.21.393.137.74.018.055.037.1.055.137.037.037.174.037.411 0l1.316-.274 1.233-.11c.512-.037.914-.009 1.206.082.311-.055.585-.073.822-.055.256 0 .429-.037.521-.11l.822.164c.183.018.329.073.439.165.073.073.101.146.082.219l-.027.082c-.073-.037-.082-.037-.027 0 .055.018.128.064.219.137.128.055.192.174.192.356a1.69 1.69 0 0 1-.027.521c-.018.164-.037.274-.055.329a.32.32 0 0 1-.274.302c-.165.018-.576.018-1.233 0a11.45 11.45 0 0 0-2.193-.11c-.658.018-1.489.1-2.494.247-.402.018-.749.073-1.042.165l-.411.11c-.073 0-.201.128-.384.384-.183.238-.356.594-.521 1.069-.073.128-.201.393-.384.795l-.521 1.316-.493 1.233-.274.576c.256.073.649.11 1.179.11l1.809-.055 1.864-.165.85-.137c.292-.037.493-.046.603-.027.219.018.384.164.493.439a1.56 1.56 0 0 1 .11.822.76.76 0 0 1-.411.603zm6.145 7.703c-.548.311-1.133.493-1.754.548-.603.036-1.17-.046-1.7-.247-.53-.219-.959-.539-1.288-.959-.183-.238-.356-.612-.521-1.124-.165-.53-.192-1.243-.082-2.138.11-.841.365-1.69.768-2.549.42-.859.932-1.617 1.535-2.275s1.261-1.106 1.974-1.343c.256-.091.512-.155.768-.192.274-.055.63-.064 1.069-.027a3.51 3.51 0 0 1 1.124.329c.329.146.567.311.713.493.292.292.484.576.576.85a2.04 2.04 0 0 1 .11.795c-.091.585-.356 1.215-.795 1.891-.42.676-1.014 1.179-1.782 1.508-.311.128-.676.21-1.096.247s-.996-.018-1.727-.164c-.439-.091-.731-.046-.877.137-.128.183-.183.539-.164 1.069.037.329.11.621.219.877.128.238.356.402.685.493.42.073.722.082.904.027l.685-.301c.146-.091.283-.192.411-.302l.411-.329.356-.247c.091-.073.183-.119.274-.137s.183-.027.274-.027c.201.018.393.128.576.329s.302.393.356.576c0 .146-.091.356-.274.631-.183.256-.429.53-.74.822a5.8 5.8 0 0 1-.987.74zm-.356-6.113c.128-.055.311-.183.548-.384.256-.201.484-.411.685-.63.201-.237.302-.42.302-.548 0-.201-.137-.375-.411-.521-.256-.146-.594-.174-1.014-.082-.146.037-.32.137-.521.302s-.402.356-.603.576c-.201.201-.375.402-.521.603-.146.183-.247.329-.302.438.073.091.219.165.439.219s.457.082.713.082c.274 0 .503-.018.685-.055zm6.66 6.277c-.146.037-.338.055-.576.055-.238-.018-.448-.046-.63-.082-.165-.055-.247-.11-.247-.164 0-.091-.046-.137-.137-.137l-.302-.219c-.201-.164-.384-.283-.548-.356a2.3 2.3 0 0 1-.329-.877c-.037-.347.073-.95.329-1.809.018-.585.183-1.197.493-1.837a10.63 10.63 0 0 1 1.179-1.919c.475-.621.969-1.169 1.48-1.645.512-.493.969-.859 1.371-1.096.256-.256.594-.393 1.014-.411.439-.018.822.064 1.151.247.183.091.384.274.603.548s.429.567.631.877c.201.292.356.557.466.795l.137.548c.055.146.091.329.11.548s0 .548-.055.987l-.247 1.014a6.16 6.16 0 0 0-.082 1.014c-.037.347 0 .594.11.74.128.146.311.155.548.027.219-.11.448-.119.685-.027a.74.74 0 0 1 .493.439c.11.201.082.466-.082.795-.11.238-.283.466-.521.685s-.503.402-.795.548c-.292.128-.576.192-.85.192-.201 0-.402-.073-.603-.219-.201-.164-.384-.384-.548-.658a4.54 4.54 0 0 1-.411-.905l-.165-.63-.987.904-.713.713c-.219.201-.356.347-.411.439-.091.164-.274.311-.548.439-.256.128-.594.274-1.014.438zm.74-2.631c.311-.183.576-.402.795-.658.238-.256.466-.539.685-.85l.713-1.042c.311-.42.53-.758.658-1.014.146-.256.256-.53.329-.822a3.92 3.92 0 0 0-.302-.63c-.128-.238-.256-.366-.384-.384-.256 0-.567.155-.932.466-.347.311-.731.758-1.151 1.343-.073.091-.164.238-.274.439l-.329.576-.192.329c-.055.073-.137.247-.247.521l-.247.795c-.073.256-.11.439-.11.548s.009.229.027.356c.037.128.128.21.274.247s.375-.037.685-.219zm10.009 3.043c-.201-.036-.42-.155-.658-.356a6.08 6.08 0 0 1-.658-.713c-.183-.274-.302-.503-.356-.685 0-.036-.027-.082-.082-.137l-.055-.082c-.073-.055-.119-.292-.137-.713 0-.438.027-.923.082-1.453l.192-1.261.411-1.179.466-1.371.74-1.59-1.096-.301c-.128-.037-.238-.11-.329-.219-.073-.11-.11-.201-.11-.274 0-.146.082-.356.247-.63s.283-.411.356-.411c.091.018.256.027.493.027l.74-.027.439-.055a1.44 1.44 0 0 0 .219-.137c.073-.073.128-.174.165-.302.091-.201.174-.356.247-.466l.302-.493.301-.603.411-.685.301-.466c.11-.183.247-.338.411-.466.164-.146.429-.247.795-.301.384-.073.713.009.987.247.146.183.228.356.247.521s-.055.375-.219.63c-.146.311-.32.594-.521.85-.183.238-.356.512-.521.822-.292.402-.347.63-.164.685s.694.018 1.535-.11c.53-.091.914-.036 1.151.165s.375.457.411.767c.055.439.009.703-.137.795s-.566.137-1.261.137l-1.124.137h-.685l-.466.027c-.073 0-.183.018-.329.055s-.256.101-.329.192c-.055.073-.119.183-.192.329-.073.073-.183.265-.329.576s-.329.649-.548 1.014l-.658 2.22-.439 2.083c-.055.347-.046.603.028.767.091.146.329.238.713.274.201.018.493.018.877 0 .384-.036.703-.091.959-.164l.63-.274.603-.329.493-.274.247-.164c.091-.146.219-.119.384.082.183.183.311.384.384.603 0 .219-.046.484-.137.795-.091.292-.429.603-1.014.932-.822.512-1.645.822-2.467.932s-1.471.119-1.946.027zm9.047-.987c-.347-.311-.649-.63-.905-.959-.256-.347-.429-.877-.521-1.59-.037-.329 0-.786.11-1.371s.274-1.197.493-1.837c.219-.658.457-1.261.713-1.809s.512-.95.767-1.206c.219-.274.493-.493.822-.658a1.22 1.22 0 0 1 1.069 0c.201.238.302.567.302.987.018.402-.082.777-.302 1.124-.365.493-.685 1.115-.959 1.864-.256.731-.429 1.389-.521 1.974-.128.42-.183.749-.165.987.018.219.146.356.384.411.347.091.704-.009 1.069-.301.384-.292.749-.722 1.096-1.288.365-.566.685-1.215.959-1.946.11-.256.192-.557.247-.905.073-.347.146-.603.219-.768.091-.365.247-.649.466-.85.238-.219.484-.356.74-.411s.448-.027.576.082c.164.073.338.192.521.356s.256.457.219.877c0 .676-.146 1.252-.439 1.727a8.88 8.88 0 0 0-.74 1.508c-.165.384-.43.831-.795 1.343a11.07 11.07 0 0 1-1.179 1.398c-.402.42-.777.704-1.124.85-.512.329-1.032.53-1.562.603-.53.055-1.051-.009-1.562-.192zm10.419.384c-.055.018-.174.009-.356-.027l-.521-.137c-.164-.055-.265-.101-.301-.137-.073-.073-.174-.201-.302-.384-.128-.201-.201-.466-.219-.795 0-.329.155-.722.466-1.179.091-.183.201-.457.329-.822l.384-1.151.384-1.124.274-.685c.036-.311.018-.53-.055-.658-.055-.146-.21-.228-.466-.247-.183 0-.329-.064-.439-.192-.091-.128-.137-.356-.137-.685.037-.256.101-.475.192-.658a1.43 1.43 0 0 1 .439-.493c.183-.091.411-.155.685-.192.292-.037.576-.046.85-.027s.466.082.576.192c.128.073.228.238.301.493.091.238.164.484.219.74l.11.576a4.66 4.66 0 0 0 .603-.603l.713-.767c.292-.201.64-.402 1.042-.603.402-.219.694-.329.877-.329.201 0 .448.1.74.301.292.183.475.347.548.493a3.26 3.26 0 0 1 .384.987c.091.329.037.621-.165.877-.183.238-.439.475-.767.713-.329.219-.74.283-1.233.192-.11-.036-.228-.174-.356-.411-.11-.238-.174-.411-.192-.521 0-.055-.082 0-.247.164l-.548.548-.576.603c-.311.384-.64.905-.987 1.562l-1.233 2.385a12.69 12.69 0 0 0-.548 1.316c-.146.402-.301.63-.466.685zm12.975.027c-.548.311-1.133.493-1.754.548-.603.036-1.17-.046-1.7-.247-.53-.219-.959-.539-1.288-.959-.183-.238-.356-.612-.521-1.124-.165-.53-.192-1.243-.082-2.138.11-.841.365-1.69.767-2.549a9.56 9.56 0 0 1 1.535-2.275c.603-.658 1.261-1.106 1.974-1.343.256-.091.512-.155.767-.192.274-.055.63-.064 1.069-.027a3.51 3.51 0 0 1 1.124.329c.329.146.566.311.713.493.292.292.484.576.576.85a2.04 2.04 0 0 1 .11.795c-.091.585-.356 1.215-.795 1.891-.42.676-1.014 1.179-1.782 1.508-.311.128-.676.21-1.097.247s-.996-.018-1.727-.164c-.439-.091-.731-.046-.877.137-.128.183-.183.539-.164 1.069.037.329.11.621.219.877.128.238.356.402.685.493.42.073.722.082.904.027l.685-.301a3.4 3.4 0 0 0 .411-.302l.411-.329.356-.247c.091-.073.183-.119.274-.137s.183-.027.274-.027c.201.018.393.128.576.329s.302.393.356.576c0 .146-.091.356-.274.631-.183.256-.43.53-.74.822a5.8 5.8 0 0 1-.987.74zm-.356-6.113c.128-.055.311-.183.548-.384.256-.201.484-.411.685-.63.201-.237.302-.42.302-.548 0-.201-.137-.375-.411-.521-.256-.146-.594-.174-1.014-.082-.146.037-.32.137-.521.302s-.402.356-.603.576c-.201.201-.375.402-.521.603-.146.183-.247.329-.302.438.073.091.219.165.439.219s.457.082.713.082c.274 0 .503-.018.685-.055z" fill="#fff"/></svg>