<svg xmlns="http://www.w3.org/2000/svg" xmlns:xlink="http://www.w3.org/1999/xlink" width="573" height="438" fill="none" xmlns:v="https://vecta.io/nano"><style><![CDATA[.B{fill:#eab691}.C{stroke-linejoin:round}.D{fill:#1c1a18}.E{stroke-linecap:round}.F{fill:#202020}.G{stroke-miterlimit:10}.H{stroke:#e28776}.I{fill:#3a444b}.J{stroke-width:.81}.K{stroke-width:.86}.L{fill:#7e4ef7}.M{fill:#e28776}]]></style><path d="M1 385.284H572.361" stroke="#fff" class="C E K"/><path d="M149.422 189.932v-7.825H78.403v7.825 37.935h72.476l-1.457-37.935z" class="D"/><path d="M79.874 415.245l.163-36.019 17.729 1.893-2.199 34.201-15.693-.075z" class="B"/><path d="M78.841 415.245l-16.934 9.205-9.526 1.864a10.05 10.05 0 0 0-5.525 3.11c-1.457 1.606-2.355 3.64-2.559 5.798l-.193 2.079 51.366.23.096-22.234-16.726-.052z" class="I"/><path d="M95.671 437.902l-51.775-.237.015-4.566 51.783.23-.022 4.573zM78.403 204.393l-7.252 199.138h32.115l11.725-189.993-36.587-9.145z" class="D"/><path d="M148.025 415.245l-.163-36.019-17.722 1.893 2.192 34.201 15.693-.075z" class="B"/><path d="M149.058 415.245l16.934 9.205 9.533 1.864c2.129.416 4.066 1.508 5.523 3.113a10.05 10.05 0 0 1 2.562 5.795l.193 2.079-51.367.23-.104-22.234 16.726-.052z" class="I"/><path d="M132.228 437.902l51.783-.237-.022-4.566-51.783.23.022 4.573zm17.194-244.63l8.954 210.185h-35.22l-10.581-194.558 36.847-15.627z" class="D"/><g class="L"><path d="M137.028 83.21c-9.124-2.079-13.441-5.456-13.441-5.456l-10.328.475h-1.375l-10.328-.475s-4.317 3.378-13.442 5.456-16.964 9.584-16.964 9.584l7.252 93.59h70.731l4.859-93.59s-7.846-7.505-16.964-9.584z"/><path d="M76.374 88.681s-13.568 8.611-19.222 24.364c-3.79 10.549-11.25 38.833-14.861 52.938a12.73 12.73 0 0 0 1.197 9.388c1.591 2.859 4.222 4.997 7.348 5.972 6.687 2.1 15.173-1.597 17.32-8.278l12.773-45.068a15 15 0 0 0-.282-9.243l-4.273-30.073z"/><path d="M62.472 154.573l41.491 40.155-14.014 18.462-42.68-33.584 15.203-25.033z"/></g><path d="M75.386 147.409l6.093-22.961" stroke="#683de8" class="G"/><path d="M146.896 87.464s15.752 8.589 23.547 23.406c5.201 9.926 14.512 31.922 20.062 45.403a12.74 12.74 0 0 1 .128 9.451 12.75 12.75 0 0 1-6.422 6.941c-3.047 1.444-6.542 1.626-9.723.505a12.77 12.77 0 0 1-7.255-6.489l-18.212-37.719c-1.294-2.882-1.642-6.099-.996-9.191l-1.129-32.307z" class="L"/><path d="M146.227 123.008l3.574 7.676" stroke="#683de8" class="G"/><path d="M124.768 78.496V54.6h-24.394v23.562l-8.79 4.142s18.858 12.991 41.276-.215a58.01 58.01 0 0 1-8.092-3.593z" class="B"/><g class="M"><path d="M100.374 63.136s3.812 9.903 24.394 8.277V58.452l-24.394 4.684z"/><use xlink:href="#B"/><path d="M93.457 50.776c3.566 0 6.457-2.888 6.457-6.451s-2.891-6.451-6.457-6.451S87 40.762 87 44.325s2.891 6.451 6.457 6.451z"/></g><path d="M112.649 21.423h-9.771c-2.499 0-4.895.992-6.662 2.757a9.41 9.41 0 0 0-2.76 6.656v19.116s.528 12.323 13.025 16.414a19.81 19.81 0 0 0 12.342 0c12.498-4.09 13.018-16.414 13.018-16.414V30.837a9.41 9.41 0 0 0-2.76-6.656c-1.766-1.765-4.163-2.757-6.662-2.757h-9.771z" class="B"/><path d="M111.81 40.234v7.32c0 .178.035.355.104.52.138.302.382.544.685.68s.646.159.964.062l1.427-.379" class="C E H J"/><path d="M105.382 40.539a1.42 1.42 0 0 1-.239.788c-.156.233-.377.415-.637.522a1.42 1.42 0 0 1-1.546-.307c-.198-.198-.334-.451-.389-.726a1.42 1.42 0 0 1 .081-.819 1.41 1.41 0 0 1 .523-.636c.233-.156.507-.239.788-.239a1.42 1.42 0 0 1 1.004.415c.267.266.415.627.415 1.003zm16.808 0a1.42 1.42 0 0 1-1.696 1.391 1.43 1.43 0 0 1-.727-.388 1.42 1.42 0 0 1-.388-.726 1.41 1.41 0 0 1 .081-.819c.107-.259.289-.48.522-.636a1.42 1.42 0 0 1 .789-.239c.186-.001.371.035.544.106s.329.175.461.307a1.42 1.42 0 0 1 .308.461 1.41 1.41 0 0 1 .106.544zm-6.078-6.072l11.235 2.903s-.513-3.148-5.105-4.298-6.13 1.396-6.13 1.396zm-7.49 0L97.387 37.37s.513-3.148 5.105-4.298 6.13 1.396 6.13 1.396z" class="F"/><path d="M105.888 50.769s5.275 6.496 14.86 0" class="C E H J"/><path d="M134.324 21.676c-1.041-3.756-3.478-10.237-12.171-14.186-14.363-6.525-20.211 6.934-20.211 6.934-6.516-2.784-10.603 3.83-11.643 7-.624 1.915-.111 3.949.067 5.271l1.181 5.805 1.367 6.756v-.104l.431 2.049c1.847-2.831 2.913-6.098 3.091-9.473a23.13 23.13 0 0 0 5.662-9.873c2.155 2.828 4.926 6.525 17.209 6.8 2.026.018 4.03.419 5.907 1.18l4.384 5.798a25.29 25.29 0 0 0 2.192 5.59l.409-2.138.044.059 1.888-10.022.572-3.036a15.32 15.32 0 0 0-.379-4.41zM272.73 34.407l-2.905-12.412c-1.65-8.396 3.247-15.931 11.234-15.931h22.708c6.955 0 11.361 8.166 10.239 17.23l-2.631 11.136-38.645-.022z" class="F"/><path d="M304.383 47.45h-24.394v26.213h24.394V47.45z" class="B"/><g class="M"><path d="M279.989 55.988s3.79 9.903 24.394 8.285V51.303l-24.394 4.684z"/><use xlink:href="#B" x="179.615" y="-7.149"/><use xlink:href="#B" x="141.282" y="-7.149"/></g><path d="M292.264 14.274h-9.771c-2.498 0-4.895.992-6.662 2.757a9.41 9.41 0 0 0-2.759 6.656v19.116s.527 12.323 13.025 16.414a19.69 19.69 0 0 0 12.335 0c12.505-4.09 13.025-16.414 13.025-16.414V23.688a9.41 9.41 0 0 0-2.759-6.656 9.43 9.43 0 0 0-6.663-2.757h-9.771z" class="B"/><path d="M291.425 33.086v7.32c-.001.178.034.355.104.52.138.302.382.544.685.681s.646.158.964.062l1.427-.379" class="C E H J"/><path d="M284.998 33.405a1.42 1.42 0 0 1-.871 1.315c-.26.108-.545.138-.821.084s-.529-.188-.729-.386a1.41 1.41 0 0 1-.39-.726 1.42 1.42 0 0 1 .079-.82 1.43 1.43 0 0 1 .523-.638 1.42 1.42 0 0 1 2.209 1.171zm16.807 0a1.41 1.41 0 0 1-.235.79c-.155.234-.377.417-.636.526a1.42 1.42 0 0 1-1.549-.303c-.199-.198-.335-.451-.391-.726a1.42 1.42 0 0 1 .603-1.458 1.42 1.42 0 0 1 1.79.173c.266.264.416.623.418.998zm-6.078-6.087l11.235 2.903s-.513-3.148-5.105-4.291-6.13 1.388-6.13 1.388zm-7.49 0l-11.235 2.903s.513-3.148 5.105-4.291 6.13 1.388 6.13 1.388z" class="F"/><g class="C"><path d="M288.683 45.03s8.79 2.71 10.96-3.289" class="E H J"/><g stroke="#202020" stroke-width=".42"><path d="M290.02 33.153a8.57 8.57 0 0 1-1.448 4.768c-.944 1.411-2.286 2.511-3.856 3.161a8.59 8.59 0 0 1-9.361-1.864c-1.201-1.201-2.019-2.731-2.349-4.396a8.58 8.58 0 0 1 .491-4.959 8.59 8.59 0 0 1 3.167-3.85 8.6 8.6 0 0 1 4.774-1.443 8.59 8.59 0 0 1 3.286.653 8.58 8.58 0 0 1 2.785 1.861c.797.797 1.429 1.743 1.86 2.784s.652 2.157.651 3.284zm21.095 0a8.58 8.58 0 0 1-1.447 4.768 8.59 8.59 0 0 1-3.855 3.161 8.6 8.6 0 0 1-4.963.488 8.59 8.59 0 0 1-4.398-2.349c-1.201-1.2-2.019-2.729-2.351-4.394a8.58 8.58 0 0 1 3.653-8.81c1.412-.943 3.073-1.446 4.772-1.446a8.59 8.59 0 0 1 3.288.651 8.58 8.58 0 0 1 4.649 4.645c.432 1.042.653 2.158.652 3.285z"/><path d="M290.02 33.152s2.036-1.9 3.924 0" class="E"/></g></g><g class="F"><path d="M272.73 34.407s4.272-11.187 2.697-20.244c0 0-7.326 4.543-2.697 20.244zm38.645 0s-5.387-10.764-3.574-20.244c0 0 8.486 3.949 3.574 20.244z"/><path d="M314.154 22.908c1.962-13.006-4.242-18.388-4.242-18.388-.959-1.062-4.934-3.422-6.606-3.935-5.335-1.626-9.533.304-15.96 3.712-7.305 3.393-7.29 3.563-7.29 3.563l-1.961 1.366h-.075l-3.967 7.847s17.721 7.424 35.732-1.433l4.369 7.268z"/></g><g fill="#f3d657"><path d="M316.644 77.494c-9.088-2.079-12.261-5.486-12.261-5.486l-11.509.527h-1.375l-11.51-.527s-3.135 3.43-12.26 5.508-16.963 9.591-16.963 9.591l7.252 93.59h70.73l4.859-93.59s-7.846-7.535-16.963-9.614z"/><path d="M255.989 82.965s-13.568 8.611-19.23 24.364c-3.797 10.549-11.249 38.833-14.905 52.938-.818 3.166-.388 6.526 1.202 9.384a12.76 12.76 0 0 0 7.343 5.975c6.687 2.101 15.18-1.596 17.328-8.277l12.772-45.069c.882-3.033.783-6.268-.282-9.242l-4.228-30.073z"/></g><path d="M263.62 113.817l-3.752 17.832" stroke="#dcba3e" class="G"/><path d="M328.644 82.965s13.568 8.611 19.23 24.364c3.797 10.549 11.249 38.833 14.905 52.938.818 3.166.388 6.526-1.202 9.384a12.76 12.76 0 0 1-7.343 5.975c-6.687 2.101-15.18-1.596-17.328-8.277l-12.773-45.069c-.878-3.034-.779-6.267.283-9.242l4.228-30.073z" fill="#f3d657"/><path d="M322.722 113.817l3.752 17.832" stroke="#dcba3e" class="G"/><path d="M304.383 72.022v-6.548h-24.394v6.548l-2.816 2.041 15.01 13.815L307.2 74.064l-2.817-2.041z" fill="#fff"/><path d="M329.037 189.932v-7.825h-71.019v7.825 37.935h72.476l-1.457-37.935z" class="D"/><path d="M259.489 415.245l.163-36.019 17.722 1.893-2.192 34.201-15.693-.075z" class="B"/><path d="M258.456 415.245l-16.934 9.205-9.526 1.864a10.05 10.05 0 0 0-5.525 3.11c-1.457 1.606-2.355 3.64-2.559 5.798l-.193 2.079 51.359.23.104-22.234-16.726-.052z" class="D"/><g stroke="#fff" class="C K"><path d="M251.33 419.67s3.203-10.111-.542-11.796c-5.35-2.405-4.429 6.191.542 11.796z"/><path d="M251.219 419.595s8.136-6.807 11.145-3.994c4.243 4.031-4.071 6.452-11.145 3.994z"/></g><path d="M275.286 437.902l-51.783-.237.023-4.566 51.782.23-.022 4.573z" class="I"/><path d="M258.018 204.393l-7.252 199.138h32.106l11.733-189.993-36.587-9.145z" class="D"/><path d="M327.641 415.245l-.164-36.019-17.721 1.893 2.192 34.201 15.693-.075z" class="B"/><path d="M328.673 415.245l16.934 9.205 9.504 1.864c2.128.416 4.065 1.508 5.522 3.113s2.356 3.638 2.562 5.795l.193 2.079-51.366.23-.104-22.234 16.755-.052z" class="D"/><g stroke="#fff" class="C K"><path d="M335.792 419.67s-3.203-10.111.542-11.796c5.402-2.405 4.436 6.191-.542 11.796z"/><path d="M335.911 419.595s-8.174-6.807-11.146-3.994c-4.243 4.031 4.072 6.452 11.146 3.994z"/></g><path d="M311.844 437.902l51.782-.237-.022-4.566-51.783.23.023 4.573z" class="I"/><path d="M329.037 193.272l8.954 210.185h-35.22l-10.588-194.558 36.854-15.627z" class="D"/><g class="B"><path d="M500.687 293.119s9.994 29.42-5.498 118.229h-9.533s-15.203-85.78-6.138-118.577l21.169.348z"/><path d="M485.552 409.863s-1.204 4.388 3.603 13.645 15.872 6.815 15.872 6.815l-9.861-19.725-9.882-.742"/></g><path d="M503.882 428.066s10.76 4.662 11.986 9.933h-23.295l-4.176-6.08-2.808 6.072h-2.854s-2.675-21.313 2.549-28.135l18.598 18.21z" fill="#1a1a26"/><g class="B"><path d="M437.588 291.902c-7.43 16.488-7.319 119.446-7.319 119.446h10.002s22.744-73.917 23.324-124.212c0 0-23.295-1.262-26.007 4.766z"/><path d="M440.144 409.863s1.204 4.388-3.611 13.645-15.871 6.815-15.871 6.815l9.86-19.725 9.89-.742"/></g><path d="M421.806 428.066s-10.752 4.662-11.978 9.933h23.302l4.176-6.08 2.823 6.08h2.854s2.675-21.313-2.541-28.136l-18.636 18.203z" fill="#1a1a26"/><path d="M448.63 165.901s-13.501 12.62-14.906 43.109l-9.51 85.654L519.479 296l-9.459-87.598s-2.043-30.229-14.274-42.486l-47.116-.015z" fill="#de5a6d"/><g fill="#63b3f7"><path d="M497.143 90.329a77.21 77.21 0 0 1-14.66-10.779h-9.422l-1.806.839-9.146-.638a83.04 83.04 0 0 1-14.713 10.579c-7.92 4.291-17.312 11.395-11.985 28.885s13.197 46.687 13.197 46.687h47.101l13.375-46.687c5.312-17.497-4.02-24.594-11.941-28.885z"/><path d="M489.928 85.37s22.477 6.206 29.372 19.836c6.688 13.207 14.95 49.33 14.95 49.33.842 2.137.833 4.514-.023 6.645s-2.497 3.855-4.583 4.817c-4.34 1.997-12.149.282-14.401-3.92-9.302-17.378-18.516-48.654-17.981-48.172.683.609-7.334-28.536-7.334-28.536z"/><path d="M514.998 146.615c-2.63 2.621-40.191 35.01-40.191 35.01l11.146 16.688 45.689-33.577-16.644-18.121z"/></g><path d="M504.187 135.947l-5.38-16.243" stroke="#74d2ff" class="G"/><path d="M454.76 85.467s-20.367 5.894-31.49 33.31c-5.565 13.711-9.704 49.478-11.889 65.268-.314 2.275.255 4.584 1.592 6.454s3.337 3.156 5.593 3.597a9 9 0 0 0 6.539-1.207c1.945-1.221 3.349-3.14 3.923-5.363l16.347-64.125c-.512.743 9.385-37.934 9.385-37.934z" fill="#63b3f7"/><path d="M446.676 117.589l-2.757 11.996" stroke="#74d2ff" class="G"/><path d="M502.708 46.975c-4.049-3.92-5.676-14.988-5.676-14.988-1.791-10.994-11.733-18.24-23.778-18.24s-21.957 7.231-23.777 18.21l-.126.995-.045.26c-.438 2.969-1.843 10.653-5.06 13.763-6.026 5.828-5.201 16.48-4.882 25.856h25.717V57.68a24.31 24.31 0 0 0 16.703-.171v15.322h25.799c.304-9.376 1.151-20.029-4.875-25.856z" class="F"/><path d="M482.483 79.186V53.59h-20.374v25.983l-7.371 5.939s4.109 6.117 17.521 6.117 17.647-6.021 17.647-6.021l-7.423-6.421z" class="B"/><path d="M460.021 48.794c0 1.124-.334 2.222-.959 3.156s-1.513 1.662-2.552 2.092a5.69 5.69 0 0 1-7.75-4.144 5.68 5.68 0 0 1 .327-3.282c.431-1.038 1.161-1.924 2.097-2.547a5.69 5.69 0 0 1 3.16-.953 5.68 5.68 0 0 1 2.174.432 5.69 5.69 0 0 1 1.843 1.231 5.68 5.68 0 0 1 1.23 1.843c.285.689.431 1.427.43 2.173zm36.758 0a5.67 5.67 0 0 1-.958 3.154 5.68 5.68 0 0 1-2.549 2.092 5.69 5.69 0 0 1-6.194-1.227c-.795-.793-1.337-1.805-1.558-2.906a5.67 5.67 0 0 1 .321-3.281 5.68 5.68 0 0 1 2.09-2.55 5.69 5.69 0 0 1 5.334-.531 5.68 5.68 0 0 1 1.846 1.231 5.67 5.67 0 0 1 1.234 1.843 5.66 5.66 0 0 1 .434 2.175zm-35.607 16.867s4.132 11.343 21.311 9.346V59.076l-21.311 6.585z" class="M"/><path d="M472.719 22.084h-9.355c-4.985 0-9.02 4.499-9.02 10.037v20.393s.498 13.132 12.468 17.498c3.813 1.403 8.001 1.403 11.814 0 11.971-4.365 12.461-17.498 12.461-17.498V32.121c0-5.538-4.035-10.037-9.02-10.037h-9.348z" class="B"/><path d="M472.155 48.007v4.387a1.46 1.46 0 0 0 .104.535 1.41 1.41 0 0 0 .702.681c.308.136.654.158.977.061l1.486-.386" stroke-width=".83" class="C E H"/><path d="M464.152 47.235a1.45 1.45 0 0 0 1.449-1.448 1.45 1.45 0 0 0-1.449-1.448 1.45 1.45 0 0 0-1.449 1.448 1.45 1.45 0 0 0 1.449 1.448zm18.576-1.447c-.007.285-.099.561-.263.795a1.45 1.45 0 0 1-1.493.583c-.279-.061-.534-.202-.732-.407s-.333-.463-.385-.743-.02-.57.092-.832.298-.486.536-.642a1.45 1.45 0 0 1 .803-.238 1.49 1.49 0 0 1 1.023.45c.269.277.419.648.419 1.034zm-6.658-6.637l11.451 2.969s-.52-3.207-5.202-4.372-6.249 1.403-6.249 1.403zm-6.62 0l-11.458 2.969s.52-3.207 5.201-4.372 6.257 1.403 6.257 1.403z" class="F"/><path d="M465.668 56.5h14.274s-1.33 4.269-7.557 4.269-6.717-4.269-6.717-4.269z" fill="#fff"/><path d="M492.7 31.772c-.985-4.485-3.591-8.45-7.319-11.135a15.96 15.96 0 0 0-9.407-4.595s-12.937.379-17.751 6.444c-2.756 2.42-4.628 5.687-5.321 9.287-1.59 7.921 1.368 13.362 1.368 13.362s7.148-10.853 6.315-17.171c3.864 3.192 11.659 7.186 26.43 7.038.92 3.535 2.288 6.938 4.072 10.126 0 0 3.203-5.434 1.613-13.355z" class="F"/><path d="M112.709 304.819h353.434v-173.66H112.709v173.66z" fill="#fff"/><g class="B"><path d="M105.895 201.089l-5.105 14.58s10.507 11.529 21.348 8.745a4.1 4.1 0 0 0 2.033-1.312c.531-.631.858-1.408.939-2.229l2.066-8.322c.252-2.227-1.486-3.667-3.604-4.558-4.495-1.908-8.582-.519-17.677-6.904z"/><path d="M105.895 201.089l6.955-3.474v14.112l-6.955-10.638z"/><path d="M105.895 201.089l-4.072-3.541-9.897 13.044 8.864 5.077 5.105-14.58zm79.171-73.36c.959 1.841.55 7.179 0 10.468-.181 1.02-.717 1.943-1.514 2.606s-1.803 1.023-2.84 1.016h-13.107c-.609.004-1.212-.118-1.771-.36a4.37 4.37 0 0 1-1.475-1.043c-.414-.446-.73-.974-.929-1.549a4.36 4.36 0 0 1-.224-1.791c.2-2.124.133-7.194-.743-9.221-.543-1.262.446-2.405 1.798-2.665 5.275-1.032 13.048-.95 16.533 0 1.723.468 3.455.958 4.272 2.539z"/><path d="M162.834 125.933l-4.235 3.533a2.34 2.34 0 0 0-.556.851c-.121.321-.17.664-.144 1.006a2.35 2.35 0 0 0 .295.973c.169.298.401.556.68.756.406.289.894.441 1.393.433a2.33 2.33 0 0 0 1.378-.478l4.86-3.029-3.671-4.045zm246.236 2.769c-.891 1.633-.512 6.369 0 9.294.192.925.702 1.754 1.442 2.341a4.04 4.04 0 0 0 2.608.874h12.23a4 4 0 0 0 1.618-.288c.513-.207.977-.519 1.362-.916a3.98 3.98 0 0 0 .876-1.389c.192-.519.273-1.072.239-1.624-.186-1.878-.127-6.384.691-8.166.512-1.121-.417-2.13-1.672-2.36-4.912-.921-12.156-.847-15.411 0-1.605.393-3.225.824-3.983 2.234z"/><path d="M429.779 127.105l3.953 3.141a2.02 2.02 0 0 1 .651 1.65 2.01 2.01 0 0 1-.275.868 2.02 2.02 0 0 1-.629.659 2.28 2.28 0 0 1-2.586 0l-4.532-2.687 3.418-3.631zm43.639 60.666l4.369 12.472s-8.426 12.301-19.267 9.517c-.795-.222-1.504-.679-2.035-1.311a4.08 4.08 0 0 1-.937-2.23l-2.073-8.322c-.246-2.227 1.523-3.66 3.611-4.558 4.495-1.908 7.252.817 16.332-5.568z"/><path d="M473.418 187.771l-7.282-3.511v14.654l7.282-11.143z"/><path d="M473.418 187.771l3.477-3.021 7.334 10.972-6.442 4.521-4.369-12.472zM237.8 127.729c-.952 1.841-.543 7.179 0 10.467a4.37 4.37 0 0 0 1.525 2.597 4.38 4.38 0 0 0 2.844.996h13.129c.609.005 1.212-.118 1.771-.36a4.38 4.38 0 0 0 1.475-1.043c.414-.447.73-.974.929-1.549a4.36 4.36 0 0 0 .224-1.791c-.201-2.123-.141-7.194.743-9.22.55-1.262-.446-2.406-1.798-2.665-5.268-1.032-13.041-.951-16.533 0-1.753.497-3.485.987-4.309 2.568z"/><path d="M260.002 125.933l4.242 3.533c.246.24.436.53.557.851a2.33 2.33 0 0 1 .143 1.006 2.35 2.35 0 0 1-.295.973c-.169.298-.4.556-.68.756-.406.289-.894.441-1.393.433a2.33 2.33 0 0 1-1.378-.478l-4.867-3.029 3.671-4.045zm89.372 1.796c.952 1.841.55 7.179 0 10.468a4.37 4.37 0 0 1-1.508 2.608c-.796.663-1.802 1.023-2.838 1.014h-13.122c-.609.003-1.212-.12-1.77-.362a4.4 4.4 0 0 1-1.474-1.043c-.413-.446-.73-.973-.929-1.548a4.39 4.39 0 0 1-.226-1.79c.208-2.124.141-7.194-.743-9.221-.55-1.262.446-2.405 1.798-2.665 5.268-1.032 13.04-.95 16.533 0 1.731.468 3.462.958 4.279 2.539z"/><path d="M327.143 125.933l-4.236 3.533c-.245.239-.436.529-.557.85a2.33 2.33 0 0 0-.146 1.005 2.35 2.35 0 0 0 .293.973c.168.299.399.558.678.758.407.29.897.442 1.397.434s.984-.176 1.382-.479l4.859-3.029-3.67-4.045z"/></g><g class="L"><path d="M184.194 227.438a1.7 1.7 0 0 1-1.698 1.698 1.7 1.7 0 0 1-1.698-1.698 1.7 1.7 0 0 1 1.698-1.698 1.7 1.7 0 0 1 1.698 1.698zm5.942 0a1.7 1.7 0 0 1-1.698 1.698 1.7 1.7 0 0 1-1.697-1.698 1.7 1.7 0 0 1 1.697-1.698 1.7 1.7 0 0 1 1.698 1.698zm5.942 0a1.7 1.7 0 0 1-1.697 1.698 1.7 1.7 0 0 1-1.698-1.698 1.7 1.7 0 0 1 1.698-1.698 1.7 1.7 0 0 1 1.697 1.698z"/><path fill-rule="evenodd" d="M178.888 215.978h19.1c5.978 0 10.823 4.846 10.823 10.823s-4.845 10.824-10.823 10.824h-16.204c-2.944 1.315-.341 4.266 1.348 5.73-5.959-1.922-10.499-6.271-12.919-10.08-1.349-1.805-2.148-4.046-2.148-6.474 0-5.977 4.845-10.823 10.823-10.823zM160 226.801c0-10.431 8.457-18.887 18.888-18.887h19.1a18.89 18.89 0 0 1 18.888 18.887 18.89 18.89 0 0 1-18.888 18.888h-19.1c-10.431 0-18.888-8.456-18.888-18.888z"/><path d="M178.677 204.093c0-.703.57-1.273 1.273-1.273h0c.703 0 1.274.57 1.274 1.273v5.518c0 .703-.571 1.273-1.274 1.273h0c-.703 0-1.273-.57-1.273-1.273v-5.518z"/><path d="M182.921 201.971a2.97 2.97 0 0 1-2.971 2.971c-1.641 0-2.972-1.33-2.972-2.971S178.309 199 179.95 199a2.97 2.97 0 0 1 2.971 2.971zm12.309 2.122c0-.703.57-1.273 1.274-1.273h0c.703 0 1.273.57 1.273 1.273v5.518c0 .703-.57 1.273-1.273 1.273h0c-.704 0-1.274-.57-1.274-1.273v-5.518z"/><path d="M199.474 201.971a2.971 2.971 0 1 1-5.942 0 2.971 2.971 0 1 1 5.942 0zm37.214 36.69c-2.365 0-4.456-.465-6.273-1.394-1.816-.951-3.221-2.292-4.213-4.024s-1.489-3.77-1.489-6.115.496-4.382 1.489-6.114c.992-1.753 2.397-3.094 4.213-4.024 1.817-.95 3.908-1.425 6.273-1.425 3.063 0 5.619.697 7.667 2.091v4.562c-.929-.782-1.996-1.341-3.2-1.679-1.182-.359-2.534-.539-4.055-.539-2.302 0-4.129.644-5.481 1.933-1.33 1.267-1.996 2.999-1.996 5.195 0 2.218.676 3.971 2.028 5.26 1.352 1.267 3.168 1.901 5.449 1.901 1.563 0 2.947-.18 4.15-.539 1.204-.38 2.324-.982 3.359-1.806v4.562c-1.943 1.436-4.584 2.155-7.921 2.155zm10.625-23.889h4.784v9.949c.718-.74 1.531-1.289 2.44-1.648a7.47 7.47 0 0 1 2.914-.57c2.07 0 3.612.56 4.626 1.679 1.035 1.098 1.552 2.587 1.552 4.467v9.536h-4.784v-8.997c0-1.965-.908-2.947-2.724-2.947-.803 0-1.553.201-2.25.602-.697.38-1.288.951-1.774 1.711v9.631h-4.784v-23.413zm25.163 23.889c-1.859 0-3.379-.465-4.562-1.394-1.162-.951-1.743-2.239-1.743-3.866 0-1.689.56-2.999 1.679-3.928 1.12-.951 2.704-1.426 4.753-1.426.908 0 1.774.095 2.598.285s1.552.454 2.186.792v-.38c0-.95-.338-1.647-1.014-2.091s-1.711-.665-3.105-.665c-1.859 0-3.57.348-5.132 1.045v-3.485c.675-.295 1.552-.538 2.629-.728 1.077-.212 2.154-.317 3.232-.317 2.745 0 4.794.57 6.146 1.711 1.352 1.119 2.028 2.693 2.028 4.72v9.251h-4.499v-1.394c-1.289 1.247-3.021 1.87-5.196 1.87zm1.299-3.169c.781 0 1.489-.147 2.123-.443s1.13-.708 1.489-1.236v-1.52a6.26 6.26 0 0 0-3.549-1.078c-.887 0-1.573.19-2.059.571-.465.359-.697.897-.697 1.615 0 .676.232 1.194.697 1.553s1.13.538 1.996.538zm17.126 3.169c-1.774 0-3.126-.486-4.055-1.458-.908-.992-1.362-2.365-1.362-4.118v-6.654h-2.218v-3.453h2.218v-4.562h4.784v4.562h3.58v3.453h-3.58v6.02c0 .887.168 1.531.506 1.933.338.38.94.57 1.806.57a4.18 4.18 0 0 0 1.996-.507v3.58c-.971.422-2.196.634-3.675.634zm12.537 0c-1.351 0-2.693-.127-4.023-.381s-2.419-.591-3.264-1.013v-4.246a15.99 15.99 0 0 0 3.485 1.236c1.204.274 2.355.412 3.454.412 1.225 0 2.154-.212 2.788-.634a2.01 2.01 0 0 0 .95-1.774c0-.549-.158-1.014-.475-1.394s-.781-.718-1.394-1.014c-.591-.317-1.51-.729-2.756-1.236-2.07-.844-3.57-1.784-4.499-2.819-.929-1.056-1.394-2.355-1.394-3.897 0-1.246.338-2.345 1.014-3.295.676-.972 1.626-1.721 2.851-2.249s2.64-.792 4.245-.792c1.31 0 2.472.105 3.485.316s2.007.539 2.979.982v4.119c-1.859-.929-3.718-1.394-5.576-1.394-1.183 0-2.113.211-2.789.634-.675.401-1.013.982-1.013 1.742 0 .549.158 1.004.475 1.363s.76.675 1.331.95l2.788 1.204c1.499.634 2.671 1.246 3.516 1.837.845.571 1.468 1.257 1.869 2.06.402.781.602 1.753.602 2.915 0 2.006-.728 3.569-2.186 4.688-1.436 1.12-3.59 1.68-6.463 1.68zm16.608 0c-1.774 0-3.126-.486-4.055-1.458-.908-.992-1.363-2.365-1.363-4.118v-6.654h-2.217v-3.453h2.217v-4.562h4.784v4.562h3.58v3.453h-3.58v6.02c0 .887.169 1.531.507 1.933.338.38.94.57 1.806.57.697 0 1.362-.169 1.996-.507v3.58c-.971.422-2.196.634-3.675.634zm14.252 0c-1.838 0-3.454-.328-4.848-.983-1.373-.675-2.439-1.615-3.2-2.819-.739-1.225-1.108-2.651-1.108-4.277 0-1.584.369-2.989 1.108-4.214.761-1.225 1.827-2.175 3.2-2.851 1.394-.676 3.01-1.014 4.848-1.014 1.816 0 3.411.338 4.784 1.014 1.394.676 2.46 1.626 3.2 2.851.76 1.225 1.14 2.63 1.14 4.214 0 1.626-.38 3.052-1.14 4.277-.74 1.204-1.796 2.144-3.169 2.819-1.373.655-2.978.983-4.815.983zm0-3.739c1.288 0 2.312-.391 3.073-1.172.76-.803 1.14-1.859 1.14-3.168 0-1.352-.38-2.408-1.14-3.168-.739-.782-1.764-1.173-3.073-1.173s-2.345.391-3.105 1.173c-.761.76-1.141 1.816-1.141 3.168 0 1.309.38 2.365 1.141 3.168.781.781 1.816 1.172 3.105 1.172zm11.804-11.944h4.626v2.186c.612-.739 1.468-1.299 2.566-1.679 1.098-.401 2.345-.602 3.739-.602v3.643c-1.458 0-2.746.222-3.866.666-1.098.443-1.858 1.119-2.281 2.027v8.966h-4.784v-15.207zm21.708 15.683c-2.915 0-5.206-.697-6.875-2.091-1.668-1.416-2.503-3.39-2.503-5.925 0-2.513.74-4.499 2.218-5.956 1.5-1.457 3.633-2.186 6.4-2.186 1.816 0 3.358.338 4.625 1.014s2.229 1.615 2.883 2.819c.655 1.183.983 2.524.983 4.024v1.933h-12.546c.337 1.943 2.154 2.914 5.449 2.914.971 0 1.975-.084 3.01-.253s1.932-.401 2.693-.697v3.358c-.74.317-1.69.57-2.852.76a21.56 21.56 0 0 1-3.485.286zm3.2-9.473c-.063-1.014-.444-1.796-1.141-2.345-.697-.57-1.658-.855-2.883-.855-1.203 0-2.154.285-2.851.855s-1.077 1.352-1.14 2.345h8.015zm13.418 9.473c-1.141 0-2.366-.127-3.675-.381-1.289-.232-2.303-.57-3.042-1.013v-3.739c.845.507 1.859.919 3.042 1.236s2.281.475 3.295.475c.866 0 1.499-.074 1.901-.222s.602-.422.602-.824c0-.316-.117-.57-.349-.76-.232-.211-.591-.391-1.077-.539l-2.345-.728c-1.288-.38-2.302-.761-3.041-1.141-.718-.401-1.267-.897-1.648-1.489-.359-.591-.538-1.352-.538-2.281 0-1.584.623-2.767 1.869-3.548 1.267-.803 2.978-1.204 5.133-1.204 1.056 0 2.143.116 3.263.348 1.14.212 2.017.497 2.629.856v3.643c-.612-.401-1.415-.729-2.407-.982-.972-.253-1.922-.38-2.852-.38-.866 0-1.542.084-2.027.253-.465.169-.697.486-.697.951 0 .401.221.707.665.919.465.211 1.32.475 2.566.792l.634.158c1.33.359 2.365.76 3.105 1.204.739.422 1.256.94 1.552 1.552.317.592.475 1.342.475 2.25 0 1.394-.602 2.513-1.806 3.358-1.204.824-2.946 1.236-5.227 1.236zm19.417-18.6h5.232l7.336 18.378h-5.575l-1.367-3.497h-6.021l-1.393 3.497h-5.574l7.362-18.378zm4.364 10.753l-1.761-5.153-1.762 5.153h3.523zm9.777-10.753h5.443v18.378h-5.443v-18.378z"/></g><defs ><path id="B" d="M131.79 50.776c3.566 0 6.457-2.888 6.457-6.451s-2.891-6.451-6.457-6.451-6.457 2.888-6.457 6.451 2.891 6.451 6.457 6.451z"/></defs></svg>