<svg xmlns="http://www.w3.org/2000/svg" xmlns:xlink="http://www.w3.org/1999/xlink" width="80" height="80" fill="none" xmlns:v="https://vecta.io/nano"><rect width="80" height="80" rx="16" fill="#1d2466"/><g fill="#fff"><use xlink:href="#B"/><path d="M41.937 45.812A1.94 1.94 0 0 1 40 47.749a1.94 1.94 0 0 1-1.937-1.937A1.94 1.94 0 0 1 40 43.875a1.94 1.94 0 0 1 1.937 1.937z"/><use xlink:href="#B" x="13.56"/><path fill-rule="evenodd" d="M29.103 32.736h21.793c6.82 0 12.349 5.529 12.349 12.349s-5.529 12.35-12.349 12.35H32.407c-3.358 1.501-.389 4.868 1.538 6.538-6.799-2.193-11.979-7.154-14.74-11.501-1.54-2.06-2.452-4.617-2.452-7.387 0-6.82 5.529-12.349 12.349-12.349zM7.552 45.085c0-11.902 9.649-21.551 21.551-21.551h21.793c11.902 0 21.551 9.649 21.551 21.551s-9.649 21.551-21.551 21.551H29.103c-11.902 0-21.551-9.649-21.551-21.551z"/><path d="M28.862 19.176c0-.802.651-1.453 1.453-1.453h0c.802 0 1.453.65 1.453 1.453v6.296c0 .802-.651 1.453-1.453 1.453h0c-.802 0-1.453-.651-1.453-1.453z"/><path d="M33.704 16.754a3.39 3.39 0 1 1-6.78 0 3.39 3.39 0 1 1 6.78 0zm14.046 2.422c0-.802.65-1.453 1.453-1.453h0c.802 0 1.453.65 1.453 1.453v6.296c0 .802-.651 1.453-1.453 1.453h0c-.802 0-1.453-.651-1.453-1.453z"/><path d="M52.592 16.754a3.39 3.39 0 1 1-6.78 0 3.39 3.39 0 1 1 6.78 0z"/></g><defs ><path id="B" d="M35.157 45.812a1.94 1.94 0 0 1-1.937 1.937 1.94 1.94 0 0 1-1.937-1.937 1.94 1.94 0 0 1 1.937-1.937 1.94 1.94 0 0 1 1.937 1.937z"/></defs></svg>