<svg width="22" height="22" viewBox="0 0 22 22" fill="none" xmlns="http://www.w3.org/2000/svg">
<g id="pepicons-pencil:hand-point" clip-path="url(#clip0_1_178)">
<path id="Vector" fill-rule="evenodd" clip-rule="evenodd" d="M15.9581 19.6473C15.9259 20.1436 15.6979 20.6067 15.3242 20.9348C14.9505 21.2629 14.4618 21.4291 13.9656 21.3969C13.4694 21.3647 13.0062 21.1367 12.6781 20.763C12.35 20.3894 12.1838 19.9007 12.216 19.4044L12.3999 16.5714C12.1522 16.6813 11.8837 16.7362 11.6127 16.7323C11.3418 16.7285 11.0749 16.6661 10.8304 16.5493C10.5859 16.4324 10.3696 16.2641 10.1964 16.0557C10.0232 15.8473 9.89725 15.6039 9.82711 15.3421C9.53243 15.4962 9.20207 15.5691 8.86993 15.5533C8.53778 15.5375 8.21582 15.4337 7.93708 15.2523C7.65833 15.071 7.43285 14.8188 7.28377 14.5216C7.13468 14.2244 7.06737 13.8929 7.08873 13.561L7.1024 13.3505C6.93772 13.3963 6.7665 13.4139 6.59595 13.4028L6.22273 13.3785C5.18891 13.3114 4.40608 12.4189 4.47312 11.386L4.70372 7.8335C4.70203 7.81182 4.70177 7.79004 4.70294 7.76832C4.84156 5.63281 5.74877 4.16149 7.06748 3.26703C8.36526 2.38624 10.0073 2.1 11.5779 2.20196C13.1646 2.30495 14.4809 2.79024 15.5793 3.6071C16.6701 4.41746 17.5214 5.53695 18.2122 6.87451C18.5144 7.40841 18.8062 7.94821 19.0872 8.49358C20.0969 10.4301 18.5751 12.6772 16.4196 12.5373L15.9581 19.6473ZM17.377 7.32936C17.677 7.85771 17.9664 8.39201 18.245 8.93195C18.9017 10.1931 17.9201 11.6827 16.4812 11.5893L16.4313 11.586L16.5317 10.0393C16.5394 9.9202 16.4995 9.80291 16.4208 9.71323C16.342 9.62355 16.2309 9.56882 16.1118 9.56109C15.9927 9.55336 15.8754 9.59326 15.7857 9.67201C15.696 9.75075 15.6413 9.8619 15.6336 9.981L15.0101 19.5858C14.9942 19.8306 14.8817 20.0591 14.6974 20.2209C14.513 20.3828 14.2719 20.4648 14.0271 20.4489C13.7823 20.433 13.5539 20.3205 13.392 20.1362C13.2301 19.9519 13.1481 19.7108 13.164 19.466L13.6285 12.3561C13.6362 12.237 13.5963 12.1197 13.5176 12.03C13.4389 11.9404 13.3277 11.8856 13.2086 11.8779C13.0895 11.8702 12.9722 11.9101 12.8825 11.9888C12.7929 12.0676 12.7381 12.1787 12.7304 12.2978L12.5588 14.9412C12.5297 15.1779 12.4104 15.3942 12.2258 15.5451C12.0412 15.696 11.8055 15.7699 11.5678 15.7514C11.3301 15.7328 11.1087 15.6233 10.9497 15.4456C10.7907 15.2679 10.7063 15.0358 10.7143 14.7975L10.8584 12.5771C10.8661 12.458 10.8262 12.3407 10.7475 12.2511C10.6687 12.1614 10.5576 12.1067 10.4385 12.0989C10.3194 12.0912 10.2021 12.1311 10.1124 12.2098C10.0227 12.2886 9.968 12.3997 9.96027 12.5188L9.92529 13.0577C9.92125 13.0777 9.91859 13.098 9.91735 13.1183L9.87892 13.7411C9.87119 13.8622 9.83969 13.9806 9.78621 14.0895C9.73273 14.1985 9.65831 14.2958 9.56722 14.3759C9.47613 14.4561 9.37014 14.5175 9.25531 14.5567C9.14047 14.5959 9.01904 14.6121 8.89794 14.6044C8.77685 14.5967 8.65846 14.5652 8.54954 14.5117C8.44062 14.4582 8.3433 14.3838 8.26314 14.2927C8.18298 14.2016 8.12154 14.0956 8.08234 13.9808C8.04314 13.866 8.02695 13.7445 8.03467 13.6234L8.17245 11.5009C8.18018 11.3818 8.14029 11.2645 8.06154 11.1748C7.98279 11.0851 7.87164 11.0304 7.75254 11.0227C7.63345 11.015 7.51616 11.0549 7.42648 11.1336C7.3368 11.2124 7.28207 11.3235 7.27434 11.4426L7.24195 11.9415C7.2325 12.0871 7.16562 12.223 7.05601 12.3192C6.9464 12.4155 6.80304 12.4642 6.65748 12.4548L6.28427 12.4305C5.77434 12.3974 5.38803 11.9575 5.42113 11.4476L5.65594 7.83018C5.65723 7.81022 5.65647 7.79113 5.65564 7.77304L5.65509 7.76599C5.79012 5.93288 6.55863 4.7612 7.60061 4.05421C8.67402 3.32622 10.0864 3.05714 11.5174 3.15003C12.9344 3.24201 14.0721 3.6706 15.0128 4.369C15.9593 5.07179 16.7265 6.06557 17.3726 7.32006C17.3744 7.32333 17.3759 7.32678 17.3769 7.33036L17.377 7.32936Z" fill="#FFA66A"/>
</g>
<defs>
<clipPath id="clip0_1_178">
<rect width="20" height="20" fill="white" transform="translate(20.4672 21.9697) rotate(-176.286)"/>
</clipPath>
</defs>
</svg>
