<svg xmlns="http://www.w3.org/2000/svg" xmlns:xlink="http://www.w3.org/1999/xlink" width="1440" height="863" fill="none"><style><![CDATA[.B{color-interpolation-filters:sRGB}.C{flood-opacity:0}.D{fill:#8424ff}.E{stroke-width:1.641}.F{stroke-miterlimit:10}]]></style><mask id="A" maskUnits="userSpaceOnUse" x="0" y="0" width="1516" height="863" mask-type="alpha"><path fill="#0e1832" d="M0 0h1516v863H0z"/></mask><g mask="url(#A)"><path fill="#0e1832" d="M0 0h1516v863H0z"/><g filter="url(#E)"><ellipse cx="859.284" cy="39.195" rx="372.072" ry="167.217" fill="#2d1aa7" fill-opacity=".1"/></g><mask id="B" maskUnits="userSpaceOnUse" x="172" y="-469" width="1989" height="1003" mask-type="alpha"><path transform="matrix(.975771 .214979 -.738569 .677098 982.258 -468.899)" fill="url(#d)" d="M0 0h1207.99v1096.23H0z"/></mask><g mask="url(#B)"><path d="M1614.41 481.857c-173.29 416.955-573.37 604.903-893.548 419.761-33.58-19.417-65.066-42.237-94.182-67.896 298.493 97.006 635.22-92.69 790.36-465.994S1493-435.574 1245.23-654.643c35.03 11.432 69.61 26.814 103.19 46.232 320.17 185.142 439.27 673.312 265.99 1090.268z" fill="url(#e)"/><g filter="url(#F)"><path d="M1592.48 469.176c-173.29 416.955-551.44 617.584-871.618 432.442-33.58-19.417-65.066-42.237-94.182-67.896 298.493 97.006 657.15-80.009 812.29-453.313S1493-435.574 1245.23-654.643c35.03 11.432 69.61 26.814 103.19 46.232 320.17 185.142 417.34 660.631 244.06 1077.587z" fill="url(#f)"/></g><g filter="url(#G)"><use xlink:href="#AL" fill="url(#g)"/></g><g filter="url(#H)"><use xlink:href="#AL" fill="url(#g)"/></g><g filter="url(#H)"><use xlink:href="#AL" fill="url(#g)"/></g><g filter="url(#I)"><path d="M1510.12 454.639c-173.28 416.956-496.39 632.371-816.563 447.233-33.579-19.418-65.066-42.237-94.181-67.897 298.492 97.007 726.674-42.772 886.194-426.619C1685.45-73.587 1463.54-450.6 1215.78-669.67c35.03 11.432 69.61 26.815 103.19 46.232 320.17 185.142 364.43 661.122 191.15 1078.077z" fill="url(#h)"/></g><g filter="url(#J)"><use xlink:href="#AM" fill="url(#i)"/></g><g filter="url(#K)"><use xlink:href="#AM" fill="url(#i)"/></g><g filter="url(#L)"><use xlink:href="#AM" fill="url(#i)"/></g></g><g filter="url(#M)"><mask id="C" maskUnits="userSpaceOnUse" x="759" y="73" width="889" height="293" mask-type="alpha"><path opacity=".8" d="M759.918 238.335l190.441 127.277 386.601-53.408 310.86-238.872-299.22 16.847-78.16-3.719-468.545 119.619-41.977 32.256z" fill="url(#j)"/></mask><g mask="url(#C)" class="D"><g opacity=".8"><path d="M1600.29 329.844c-10.7 86.752 43.59 29.621 2.02 113.461-19.16 38.636-266 261.635-289.48 294.148-123.84 121.521-274.38 158.73-398.111 96.528-25.153-12.571-47.924-29.326-69.951-48.407 111.493 96.79 284.672-6.086 392.932-129.387 153.33-174.397 233.85-445.046 147.32-695.265 122.74 107.092 137.25 443.602 147.01 389.07l68.26-20.148z"/><g filter="url(#N)"><use xlink:href="#AN"/></g><g filter="url(#O)"><use xlink:href="#AN"/></g><g filter="url(#P)"><use xlink:href="#AN"/></g><g filter="url(#P)"><path d="M1569.33 311.556c-10.71 86.752 43.59 29.621 2.02 113.462-19.16 38.635-266 261.634-289.48 294.148-123.85 121.521-274.38 158.729-398.114 96.528-25.153-12.571-47.924-29.326-69.951-48.407 111.492 96.79 345.175 31.039 453.435-92.262C1420.57 500.628 1547.54 249.748 1461-.472c122.75 107.092 30.31 386.709 40.07 332.177l68.26-20.149z"/></g><g filter="url(#Q)"><path d="M1569.33 311.557c-10.71 86.752 43.59 29.621 2.02 113.461-19.16 38.636-266 261.634-289.48 294.148-123.85 121.521-274.38 158.729-398.115 96.528-25.152-12.571-58.491-27.135-80.518-46.216 111.492 96.791 350.983 36.315 459.253-86.986C1415.82 508.096 1547.54 249.748 1461-.471c122.75 107.092 30.31 386.708 40.07 332.177l68.26-20.149z"/></g><g filter="url(#R)"><path d="M1600.29 329.844c-10.7 86.752 43.59 29.621 2.02 113.461-19.16 38.636-270.88 245.984-294.36 278.497-123.84 121.521-269.5 174.381-393.231 112.179-25.153-12.571-47.924-29.326-69.951-48.407 111.493 96.79 292.522-.671 400.782-123.972 153.33-174.396 276.24-415.803 189.71-666.022 122.74 107.092 87.01 408.944 96.77 354.412l68.26-20.148z"/></g><g filter="url(#S)"><path d="M1584.33 328.047c-10.71 86.752 43.59 29.621 2.02 113.461-19.16 38.636-270.88 245.984-294.37 278.497-123.84 121.521-269.49 174.381-393.224 112.179-25.152-12.571-47.923-29.326-69.95-48.407 111.492 96.79 303.504 6.911 411.774-116.39 153.33-174.397 276.24-415.803 189.7-666.022 122.74 107.092 76.03 401.362 85.79 346.831l68.26-20.149z"/></g><g filter="url(#T)"><path d="M1577.18 316.972c-10.71 86.752 43.59 29.621 2.02 113.461-19.16 38.636-270.89 245.983-294.37 278.497-123.84 121.521-269.49 174.38-393.226 112.179-25.152-12.571-47.923-29.326-69.95-48.407 111.492 96.79 332.906 24.118 441.166-99.183 153.33-174.397 276.24-415.803 189.7-666.022 122.75 107.092 46.64 384.155 56.4 329.623l68.26-20.148z"/></g><g filter="url(#U)"><path d="M1577.18 316.97c-10.71 86.752 43.59 29.621 2.02 113.461-19.16 38.636-255.24 225.792-278.72 258.306-123.85 121.52-309.273 191.862-433.008 129.66-25.152-12.571-23.791-26.616-45.818-45.697 111.492 96.79 296.446 91.08 404.706-32.221 153.33-174.396 335.05-289.237 248.51-539.457 122.74 107.092 24.29 190.628 34.05 136.096l68.26-20.148z"/></g><g filter="url(#V)"><path d="M1577.18 316.97c-10.71 86.752 43.59 29.621 2.02 113.461-19.16 38.636-290.88 248.803-314.36 281.317C1141 833.268 991.207 880.599 867.472 818.397c-25.152-12.571-23.791-26.616-45.818-45.697 111.492 96.79 290.296 54.599 398.566-68.702 153.33-174.396 341.19-252.756 254.65-502.976 122.74 107.092 24.29 190.628 34.05 136.096l68.26-20.148z"/></g></g></g></g><g opacity=".4" class="E F"><path d="M1332.85 188.601C1340.74 159.621 1357.01 133.565 1393 110.266C1514.5 31.7546 1649.38 9.93 1758.79 -106.979C1814.93 -167.046 1847.84 -241.036 1859.53 -315.25C1914.22 -665.775 1702.28 -762.246 1606.75 -763.32C1508.87 -764.448 1418.14 -636.897 1366.53 -544.874C1302.91 -431.501 1246.52 -309.323 1151.62 -216.885C1051.42 -119.292 834.025 117.029 757.545 243.056C703.587 331.971 648.738 482.549 683.593 554.349C718.449 626.149 838.459 620.669 919.288 626.684C1000.12 632.698 936.189 1014.22 1022.24 974.449C1137.95 920.967 1203.71 753.731 1242 641.667C1280.8 528.051 1306.18 413.768 1320.46 301.392C1325.63 259.851 1323.64 222.254 1332.85 188.601Z" stroke="url(#k)"/><path d="M1616.11 -788.377C1512.08 -789.609 1415.58 -653.85 1360.66 -556.11C1292.95 -435.68 1233.08 -305.624 1132.03 -207.436C1025.45 -103.729 809.221 114.302 727.905 248.351C670.419 342.975 621.353 494.413 658.472 570.85C691.646 639.161 800.461 638.521 875.752 647.803C953.302 657.396 905.683 993.145 989.778 959.823C1106.15 913.568 1181.08 763.784 1230.5 658.192C1280.16 552.221 1315.34 442.453 1338.14 332.366C1346.56 291.587 1348.17 254.107 1359.14 219.886C1368.35 190.689 1384.69 164.044 1417.89 139.134C1467.95 101.656 1518.81 71.9226 1568.27 41.0181C1610.47 14.703 1651.71 -12.7486 1690.66 -47.929C1709.56 -64.9689 1727.7 -84.453 1745.67 -106.863C1794.41 -167.884 1824.53 -241.637 1836.61 -318.277C1854.3 -431.948 1849.49 -523.831 1829.54 -595.729C1792.28 -730.574 1689.82 -787.563 1616.11 -788.377Z" stroke="url(#l)"/><path d="M1625.19 -813.136C1515.03 -814.472 1412.73 -670.694 1354.58 -567.133C1282.88 -439.552 1219.41 -301.941 1112.37 -197.765C999.439 -87.9807 784.221 111.96 698.026 253.845C637.181 354.023 593.788 506.564 633.027 587.335C664.592 652.309 762.412 656.365 831.97 668.878C906.32 682.168 874.852 972.617 956.953 945.182C1074.04 906.255 1157.82 773.688 1218.4 674.678C1278.58 576.165 1323.85 471.187 1355.13 363.384C1366.72 323.623 1371.9 286.26 1384.72 251.22C1395.39 221.688 1411.88 194.203 1442.15 167.81C1488.81 127.131 1534.49 91.7892 1578.17 55.3648C1615.15 24.6167 1650.62 -6.64736 1684.57 -44.5037C1700.62 -62.5143 1716.22 -83.2029 1731.94 -106.655C1773.35 -168.089 1800.58 -242.271 1813.18 -321.046C1830.77 -431.52 1832.11 -526.112 1819.37 -604.254C1797.47 -740.178 1708.9 -812.181 1625.19 -813.136Z" stroke="url(#m)"/><path d="M1634.26 -837.468C1517.83 -838.787 1409.89 -687.133 1348.29 -577.787C1272.6 -443.077 1205.46 -297.677 1092.46 -187.924C973.263 -71.9427 759.109 109.767 668.044 259.464C603.847 365.179 566.03 518.699 607.518 604.065C637.419 665.589 724.285 674.71 788.296 690.321C859.318 707.41 844.23 952.583 924.27 931.257C1042.15 899.755 1134.54 784.285 1206.53 691.572C1277.26 600.605 1332.52 500.243 1372.41 394.58C1387.07 355.69 1395.88 318.576 1410.4 282.836C1422.52 252.968 1439.02 224.763 1466.44 197.029C1509.72 153.16 1550.24 112.235 1588.33 70.1948C1619.97 35.1527 1649.92 0.109296 1678.82 -40.5508C1692.26 -59.5119 1705.02 -81.1616 1718.8 -105.892C1752.99 -167.608 1777.35 -242.225 1790.4 -323.27C1807.52 -430.474 1814.74 -527.395 1809.72 -612.375C1801.32 -748.345 1727.92 -836.371 1634.26 -837.468Z" stroke="url(#n)"/><path d="M1643.56 -861.42C1521.01 -862.842 1407.26 -703.177 1342.43 -588.019C1262.52 -446.184 1192 -293.219 1073.02 -177.485C947.474 -55.434 734.228 108.446 638.502 265.988C570.794 377.369 538.738 531.933 582.261 621.885C610.513 679.995 686.412 694.419 745.087 712.606C812.731 733.739 813.803 934.047 892.202 918.3C1011.05 894.45 1111.68 795.668 1195.13 709.329C1275.96 625.807 1341.41 530.023 1389.73 426.573C1407.53 388.674 1419.89 351.659 1436.09 315.211C1449.52 285.116 1466.17 256.066 1490.85 226.732C1530.81 179.281 1566.1 133.433 1598.56 85.6517C1625.16 46.4775 1649.5 7.38708 1673.01 -35.9753C1683.85 -55.8888 1693.95 -78.6219 1705.43 -104.532C1732.72 -166.395 1753.87 -241.76 1767.44 -324.955C1784.25 -429.06 1796.57 -527.736 1799.71 -619.909C1804.51 -755.596 1747.39 -860.165 1643.56 -861.42Z" stroke="url(#o)"/><path d="M1653.44 -885.03C1524.71 -886.556 1405.12 -718.808 1337.04 -597.784C1253.09 -448.743 1179.01 -288.025 1054.01 -166.65C922.074 -38.4725 709.699 107.491 608.971 273.188C537.878 390.167 511.329 545.852 557.123 640.447C583.747 695.194 648.752 714.911 701.988 735.796C766.368 761.108 783.701 916.722 860.073 906.49C979.863 890.506 1088.73 807.76 1183.77 727.988C1274.65 651.694 1350.36 560.548 1407.42 458.998C1428.13 422.044 1444.26 385.122 1462.37 347.961C1477.1 317.623 1493.86 287.576 1515.8 257.02C1552.31 206.089 1582.92 155.086 1609.43 101.657C1630.87 58.4597 1649.75 15.5851 1668.15 -30.8724C1676.47 -51.611 1684.13 -75.4209 1693.26 -102.659C1713.97 -164.554 1731.56 -240.61 1745.68 -326.394C1762.19 -427.478 1778.81 -527.896 1790.96 -627.619C1807.28 -762.192 1767.25 -883.635 1653.44 -885.03Z" stroke="url(#p)"/><path d="M1664.51 -908.059C1529.49 -909.691 1404.09 -733.798 1332.62 -606.914C1244.58 -450.504 1166.8 -281.996 1035.65 -154.456C897.265 -19.8772 685.553 108.372 579.817 282.148C505.272 404.851 484.112 562.094 532.235 661.043C557.325 712.634 611.3 737.64 659.308 761.124C720.341 790.757 753.992 902.078 828.566 897.22C949.33 889.325 1066.75 822.113 1173.47 748.805C1274.56 679.381 1360.65 592.893 1426.25 493.496C1450.05 457.324 1469.74 420.433 1489.62 382.638C1505.82 351.9 1522.55 320.942 1541.78 289.132C1574.81 234.531 1600.77 178.714 1621.58 119.21C1638.05 71.8274 1651.59 24.8696 1664.66 -24.3567C1670.4 -46.0798 1675.64 -70.9924 1682.28 -99.4683C1696.81 -161.57 1710.59 -238.56 1725.4 -326.754C1741.62 -424.941 1761.89 -527.269 1783.62 -634.338C1810.76 -768.536 1788.48 -906.777 1664.51 -908.059Z" stroke="url(#q)"/><path d="M1676.42 -931.163C1534.9 -932.784 1403.53 -748.376 1328.71 -615.413C1236.51 -451.534 1155.07 -274.989 1017.57 -141.475C872.587 -0.545171 661.339 110.328 550.604 292.431C472.35 420.921 456.869 579.584 507.329 683.345C530.832 731.675 573.636 762.499 616.743 788.359C674.227 822.708 724.299 889.55 797.265 889.944C918.765 890.373 1045.04 838.278 1163.35 771.505C1274.63 708.771 1371 627.004 1445.33 529.577C1472.23 494.163 1495.49 457.279 1517.15 418.825C1534.62 387.652 1551.46 355.643 1568.15 322.439C1597.42 264.371 1619.27 203.091 1634.02 137.967C1645.74 86.386 1653.8 35.434 1661.32 -16.6103C1664.56 -39.1953 1667.52 -65.346 1671.61 -95.2149C1680.13 -157.682 1689.95 -235.536 1705.31 -326.079C1721.56 -421.671 1744.77 -526.163 1776.81 -640.459C1814.59 -774.778 1810.54 -929.736 1676.42 -931.163Z" stroke="url(#r)"/><path d="M1658.69 -8.86531C1663.25 -128.719 1663.09 -343.152 1770.44 -646.365C1818.3 -781.29 1833.14 -952.352 1688.78 -954.146C1540.85 -955.961 1403.33 -763.153 1324.99 -624.221C1228.45 -452.975 1143.22 -268.346 999.395 -128.595C847.777 18.812 636.979 111.966 521.05 302.292C439.216 436.609 429.182 596.887 481.872 705.41C534.562 813.933 643.167 873.048 765.41 882.274C887.805 891.38 1022.95 853.943 1153.04 794.029C1417.1 672.277 1609.97 453.009 1647.02 156.669C1654.02 100.863 1656.61 45.8883 1658.69 -8.86531Z" stroke="url(#s)"/></g><mask id="D" maskUnits="userSpaceOnUse" x="-481" y="-249" width="1166" height="544" mask-type="alpha"><path transform="matrix(-.939156 -.339796 .87463 -.488261 66.5768 294.099)" fill="url(#t)" d="M0 0h582.909v706.04H0z"/></mask><g mask="url(#D)"><path d="M-109.777 54.414C22.389-139.236 250.11-181.752 398.811-40.542c15.596 14.81 29.758 31.105 42.399 48.554C295.023-84.155 100.217-31.915-18.112 141.461s-119.951 408.945-12.456 557.804c-17.15-10.841-33.67-23.683-49.266-38.493-148.701-141.21-162.108-412.708-29.943-606.358z" fill="url(#u)"/><g filter="url(#W)"><path d="M-99.592 64.086C32.573-129.564 250.11-181.752 398.811-40.542c15.596 14.81 29.758 31.105 42.399 48.554C295.023-84.155 90.032-41.587-28.297 131.789s-109.766 418.617-2.271 567.476c-17.15-10.841-33.67-23.683-49.266-38.493-148.701-141.21-151.923-403.036-19.758-596.686z" fill="url(#v)"/></g><g filter="url(#X)"><use xlink:href="#AO" fill="url(#w)"/></g><g filter="url(#Y)"><use xlink:href="#AO" fill="url(#w)"/></g><g filter="url(#Y)"><use xlink:href="#AO" fill="url(#w)"/></g><g filter="url(#Z)"><path d="M-58.035 83.13C74.13-110.52 264.395-178.087 413.096-36.877c15.595 14.81 29.758 31.105 42.398 48.555C309.308-80.491 71.73-67.036-49.94 111.236-202.388 334.605-124.183 562.35-16.688 711.208c-17.15-10.841-33.67-23.682-49.266-38.492-148.7-141.21-124.246-395.936 7.919-589.586z" fill="url(#x)"/></g><g filter="url(#a)"><use xlink:href="#AP" fill="url(#y)"/></g><g filter="url(#b)"><use xlink:href="#AP" fill="url(#y)"/></g><g filter="url(#c)"><use xlink:href="#AP" fill="url(#y)"/></g></g><g opacity=".3"><path d="M-89.104-301.47c-17.864 3.336-34.701 11.674-47.296 27.44-11.696 14.554-18.764 33.353-23.391 52.606-6.555 27.895-8.354 57.002-7.84 85.807.771 34.565 3.984 69.433-.257 103.847-7.968 65.037-35.601 125.981-62.333 182.68-6.169 13.189-13.495 25.924-23.52 35.627-11.824 11.521-26.09 15.615-40.999 17.737-6.554.91-15.551 1.971-18.892 9.854-3.599 8.49 2.185 20.769 5.912 28.198 10.153 20.315 28.018 31.988 45.497 41.842 19.921 11.067 39.713 21.982 57.963 36.536 39.971 31.988 72.615 77.165 85.725 132.652 7.582 32.139 10.281 68.524 3.727 101.27-5.784 28.956-20.178 54.121-27.504 82.471-8.74 33.656 16.065 53.667 39.456 64.886 29.175 13.795 60.663 18.95 91.123 26.53 57.064 14.25 114.256 30.017 169.906 50.786 25.19 9.4 51.152 18.951 77.885 18.041 22.62-.758 43.697-10.157 61.819-25.924 33.673-28.956 60.02-76.407 65.289-125.678 3.727-34.11-1.285-68.372-.642-102.634.514-33.807 9.382-63.976 21.848-93.993 11.182-27.288 23.906-54.274 29.946-83.988 5.784-28.804 4.498-58.67-1.542-87.171-6.683-31.684-18.893-60.792-29.046-90.961-10.539-31.381-14.909-65.037-15.68-98.692-.771-32.746 1.542-65.34 3.599-97.935l2.57-48.664c.514-16.373-.128-32.746 0-49.119.129-11.674 3.727-22.134 8.097-32.443 2.57-6.064 5.912-12.886 5.655-19.86-.257-7.277-4.884-12.886-9.511-16.979-8.739-7.884-19.406-12.735-30.202-15.16-49.61-11.219-97.292 26.53-146.644 13.795-19.921-5.154-38.943-15.008-57.193-25.469-19.278-10.915-38.042-23.195-56.55-35.778-15.68-10.46-31.102-21.527-47.425-30.472-20.564-11.37-42.284-20.466-64.39-26.379-21.078-6.064-43.312-8.944-65.161-5.306-.9.152-.514 1.82.386 1.668 46.14-7.732 95.621 11.37 136.491 35.626 34.058 20.164 65.932 44.875 100.376 64.128 16.837 9.399 34.444 18.344 52.695 23.043 20.82 5.458 42.026 1.517 62.59-3.638 25.319-6.367 50.895-14.705 76.985-11.37 15.422 1.971 52.822 13.492 45.368 39.72-2.313 8.034-6.426 15.16-8.996 23.195-3.599 10.915-3.599 21.375-3.342 32.897.643 31.988-1.542 63.976-3.47 95.812-3.984 61.854-7.069 125.677 11.952 184.802 9.383 29.259 21.335 57.154 28.404 87.323 7.326 31.23 9.253 63.672 2.313 95.357-6.297 29.411-19.15 55.941-30.202 83.078-10.668 26.379-19.15 53.212-20.692 82.623-1.671 32.898 2.955 65.644 1.413 98.39-1.285 27.743-8.354 53.667-20.178 77.62-24.162 49.119-65.418 88.687-115.541 86.261-26.604-1.364-52.052-11.825-77.242-21.073-26.733-9.854-54.108-18.04-81.355-25.923-41.77-12.129-83.925-21.831-125.952-32.595-15.037-3.941-30.203-8.49-44.597-15.312-13.109-6.215-27.632-14.705-35.729-28.956-10.539-18.495-2.442-39.264 4.37-57.457 9.51-25.772 20.178-50.18 22.491-78.529 4.627-56.093-9.254-112.792-38.557-157.211-26.732-40.63-63.361-69.282-102.689-90.507-17.736-9.399-37.014-19.253-49.61-37.9-7.068-10.461-19.278-34.717-3.213-41.236 10.539-4.245 22.106-3.335 32.773-7.732 21.721-8.944 34.701-30.775 45.369-53.667 12.595-27.288 24.933-54.728 35.472-83.38 10.282-28.198 19.15-57.457 23.777-87.777 4.883-32.14 2.827-64.734 1.67-97.177-1.028-30.32-.514-60.489 5.27-90.203 4.113-21.376 10.924-42.903 23.519-59.579 12.596-16.525 29.689-25.318 48.068-28.805.9 0 .514-1.667-.386-1.516z" fill="url(#z)"/><path d="M-153.236-169.576c-3.728 32.746-.9 65.644-1.029 98.542-.128 33.656-5.783 65.492-15.551 97.025-9.382 30.472-21.72 59.579-34.187 88.384l-17.222 39.264c-5.783 12.28-12.723 24.257-22.877 31.837-10.924 8.035-23.905 8.641-36.114 12.128-7.84 2.122-13.881 6.519-15.937 16.221-2.442 11.37 3.213 18.344 8.225 27.44 5.784 10.764 12.852 20.77 20.692 29.563 15.423 17.282 33.93 29.259 51.923 42.296 19.536 14.251 38.043 30.776 54.365 50.029 35.601 41.691 58.735 95.509 60.149 155.24.385 15.918-1.028 31.685-5.013 46.997-3.598 13.796-8.611 26.985-12.98 40.326-5.27 16.07-12.082 34.413-4.756 50.938 5.784 13.038 17.479 21.376 28.275 27.592 13.752 7.731 28.403 12.734 43.055 16.979 12.467 3.638 24.933 6.367 37.4 9.551 26.733 6.974 53.337 14.705 79.812 23.043 26.09 8.187 52.438 16.07 77.885 26.682 23.134 9.551 46.139 21.224 70.559 25.015 22.491 3.486 44.083-1.668 63.618-15.464 17.608-12.431 32.645-29.865 44.726-49.422 12.21-19.86 21.72-42.448 26.347-66.402 5.398-28.652 4.884-58.973 6.041-88.08 1.285-31.685 3.984-62.915 14.009-92.629 9.125-27.137 21.977-52.303 31.231-79.591 9.382-27.591 13.237-56.547 10.153-86.261-2.956-28.805-11.567-56.396-21.078-83.078-5.141-14.705-10.924-28.956-15.037-44.116-4.241-15.464-6.94-31.23-8.611-47.3-3.213-31.078-2.313-62.611-.514-93.69 1.799-31.533 4.627-63.066 5.141-94.751.257-14.251-1.542-29.411 1.542-43.358 2.056-9.096 5.912-17.131 8.74-25.924 5.783-17.889-4.499-29.562-17.479-37.749-18.765-11.825-40.999-12.734-61.563-9.399-26.604 4.245-52.437 15.463-79.555 15.918-17.35.303-34.058-6.519-49.995-14.402-36.115-17.889-69.531-42.6-103.332-65.644-35.215-23.649-74.672-38.506-115.156-41.538-19.407-1.516-40.356-.455-58.221 9.247-14.523 7.884-25.704 21.528-33.03 38.204-8.225 18.495-12.081 39.416-14.523 60.034-.128 1.061 1.285 1.516 1.414.455 5.141-42.145 17.736-87.019 55.65-101.118 20.821-7.732 43.955-6.519 65.161-3.184 22.106 3.638 44.083 10.461 64.904 20.163 32.902 15.463 62.462 40.629 93.435 60.338 29.689 18.95 63.362 41.235 98.191 38.961 46.14-2.88 99.477-37.445 142.403-1.667 7.711 6.367 13.881 14.553 11.31 26.227-1.799 7.883-5.526 15.008-7.968 22.588-3.47 10.764-3.856 20.77-3.599 32.14.257 15.312-.128 30.775-.9 46.087-2.827 59.276-10.795 119.462-1.67 178.587s41.127 109.608 43.697 170.855c1.285 31.533-5.912 60.944-16.965 89.142-9.767 25.014-21.591 48.967-28.917 75.194-7.84 27.895-9.382 57.609-10.539 86.716-1.028 28.805-.514 58.974-6.812 87.171-10.667 47.755-40.613 94.448-78.784 115.673-48.453 26.833-98.32-7.732-144.716-23.802-47.168-16.373-94.978-31.533-143.174-43.358-27.632-6.822-57.192-12.734-81.869-30.017-11.053-7.732-21.977-19.405-22.491-35.626-.386-11.219 3.856-23.044 7.326-33.353 4.241-13.038 9.125-25.772 12.852-39.113 14.266-51.393 2.827-111.579-20.435-156.908-21.977-42.6-54.622-76.407-90.48-102.18-18.507-13.341-37.271-25.772-52.694-43.964-8.354-9.854-14.78-20.921-21.078-32.594-3.47-6.519-6.426-11.371-4.626-19.557 2.056-9.096 7.582-13.038 14.908-15.009 10.41-2.88 21.463-3.638 31.36-9.096 8.611-4.699 15.422-12.431 20.949-21.376 6.554-10.46 11.181-22.437 16.194-33.958l17.607-40.933c11.053-26.227 21.335-52.909 29.046-80.652 8.226-29.562 11.953-59.125 11.824-90.355-.257-30.926-2.442-62.005 1.028-92.78 0-.606-1.542-.606-1.67.606z" fill="url(#AA)"/><path d="M-140.641-154.567c-3.727 30.926-1.414 62.156-2.314 93.386-1.028 32.594-8.225 63.066-18.507 93.083-9.896 28.804-21.977 56.244-33.416 84.139-8.739 21.072-15.808 50.028-33.672 63.218-10.025 7.277-21.721 7.58-33.031 10.005-7.068 1.516-15.808 3.487-18.507 12.432-2.442 8.035-1.285 21.224 1.157 29.107 1.156 3.639 3.341 6.216 5.655 8.642 5.012 5.154 7.454 12.279 11.053 18.798 10.924 19.557 25.961 35.02 41.898 48.816 17.736 15.463 35.729 30.017 52.18 47.451 16.965 18.041 32.645 38.052 45.368 60.489 6.427 11.219 12.21 23.044 17.094 35.324 5.526 14.099 8.996 28.956 11.695 44.116 2.699 15.312 4.37 31.23 3.342 46.845-1.028 15.463-5.141 30.168-9.382 44.874-4.884 16.828-14.266 38.507-7.583 56.396 4.755 12.886 15.68 21.224 25.833 27.288 13.366 7.883 27.889 12.886 42.284 17.283 12.467 3.79 25.19 6.67 37.786 10.157 25.704 7.428 51.28 15.615 76.728 24.408 23.905 8.338 48.196 16.373 71.202 27.44 21.077 10.309 42.155 22.588 65.032 26.075 41.77 6.367 78.013-27.591 100.376-65.947 11.31-19.405 20.178-41.538 23.776-64.734 4.37-27.894 6.298-56.547 9.768-84.593 3.47-28.501 6.683-57.912 15.423-85.049 8.482-26.53 21.078-51.09 30.203-77.317 9.253-26.378 13.623-54.122 11.181-82.623-2.442-27.894-10.41-54.425-19.407-80.045-5.012-14.251-10.667-28.047-14.78-42.752-4.37-15.312-7.326-31.078-8.996-46.997-3.214-30.017-2.314-60.337-.386-90.506 1.799-30.017 4.627-59.883 5.269-90.051.257-13.947-1.156-28.198 2.057-41.842 2.056-8.641 5.655-16.525 7.84-25.166 4.755-18.344-6.941-30.624-19.664-38.81-17.994-11.37-39.328-12.583-59.249-9.248-26.476 4.396-52.18 15.767-79.298 15.312-16.066-.303-31.874-7.732-46.397-15.464-33.544-17.737-64.647-41.387-96.263-63.521-13.752-9.702-27.504-18.344-42.926-24.256-20.05-7.58-41.127-11.977-62.205-13.644-34.701-2.729-73.772.909-93.051 40.023-8.739 17.434-12.466 37.597-15.165 57.457-.129 1.061 1.285 1.516 1.414.455 2.699-20.77 6.811-42.146 16.45-60.035 9.511-17.737 24.291-28.956 41.642-33.352 20.821-5.155 43.055-4.093 64.004-1.061 20.821 3.032 41.77 8.641 61.177 18.343 13.752 6.823 26.347 16.677 39.071 25.773l47.039 32.746c15.166 10.005 30.589 19.556 46.782 27.288 13.367 6.367 27.119 11.522 41.77 11.067 45.497-1.061 96.52-36.233 139.19-2.577 7.711 6.064 16.194 14.705 15.165 26.682-.771 8.641-4.755 16.676-7.197 24.559-3.084 9.854-3.984 19.405-3.855 29.865.128 14.857-.257 29.562-1.157 44.419-2.956 56.699-10.668 114.156-1.799 170.704 4.626 29.259 15.165 55.183 24.547 82.623 9.125 26.833 16.708 54.728 17.479 83.835.772 30.321-6.683 58.367-17.479 85.504-9.51 23.801-20.563 46.845-27.503 71.859-7.198 26.379-10.025 54.728-13.238 82.016-3.213 26.834-4.756 54.425-9.511 80.956-8.482 47.148-36.757 92.932-72.872 115.52-21.72 13.644-44.469 14.251-67.86 6.064-21.463-7.428-41.384-20.163-62.462-28.501-45.111-18.04-91.508-33.959-137.904-46.39-26.99-7.125-56.036-12.886-80.069-29.865-10.667-7.581-20.949-19.102-20.692-34.869.257-12.583 4.884-25.621 8.354-37.445 3.727-12.887 7.712-25.773 9.768-39.265 4.113-27.592-.771-55.79-7.326-82.32-5.912-24.256-17.607-46.845-30.331-66.856-24.805-39.265-56.935-67.766-90.094-96.419-17.351-15.009-33.802-31.685-44.983-53.667-2.57-4.851-4.113-10.006-7.711-13.796-4.627-4.7-6.941-9.096-7.84-16.221-.771-5.761-1.542-11.825-.643-17.738 1.414-9.399 8.226-11.976 15.166-13.947 10.153-2.729 20.82-2.577 30.46-7.277 7.325-3.638 13.237-9.702 17.993-17.131 5.526-8.641 9.382-18.647 13.109-28.35 5.012-12.734 10.282-25.469 15.68-38.052 21.463-51.241 43.697-103.695 45.368-161.91.9-30.927-1.542-62.005 2.314-92.932.257-.91-1.286-1.365-1.414-.303z" fill="url(#AB)"/><path d="M-128.046-139.255c-3.856 29.41-1.928 59.124-3.856 88.687-2.056 31.382-11.181 60.641-21.849 89.142-10.024 26.682-21.463 52.606-31.616 79.136-7.583 20.011-12.724 46.238-30.588 57.002-9.768 5.912-20.95 5.306-31.488 7.125-6.426 1.061-16.066 2.881-19.664 10.309-3.47 6.974-1.028 16.98.771 24.105 2.056 8.641 3.213 19.708 8.868 26.379 2.699 3.032 6.04 5.002 8.868 7.883 4.627 4.851 7.583 13.189 11.181 19.102a264.32 264.32 0 0 0 20.95 29.41c14.78 18.193 31.359 33.959 47.039 51.09 16.193 17.738 31.616 36.688 45.111 57.457 14.137 21.528 28.403 46.239 34.958 72.466 3.727 14.705 7.583 29.259 8.996 44.571 1.542 15.463-.257 30.472-3.47 45.48-2.828 13.493-6.555 26.682-8.482 40.478-.9 6.822-1.157 13.189 1.157 19.557 4.37 12.279 14.78 20.314 24.419 26.075 13.238 7.884 27.632 12.886 41.898 17.131L14.1 684.549c24.419 7.883 48.71 16.524 72.744 25.924 22.749 8.944 45.369 17.889 66.832 30.472 17.993 10.612 36.757 22.285 57.192 24.407 38.428 3.942 72.487-34.11 91.508-69.736 10.41-19.405 17.479-40.63 20.435-63.37 3.342-26.53 8.483-52.606 13.752-78.681 5.141-25.621 8.997-52.606 16.451-77.469 8.097-26.682 20.692-51.09 29.946-77.317 8.739-24.711 13.237-50.483 11.309-77.165-1.927-26.833-9.253-52.454-17.864-77.165-9.639-27.895-19.664-54.274-23.391-84.442-3.599-30.018-2.699-60.49-.643-90.658 1.928-29.259 4.756-58.367 5.398-87.626.257-13.038-.514-25.924 2.699-38.658 2.185-8.641 5.784-16.828 7.069-25.772 2.699-18.647-12.081-31.988-24.805-39.265-17.35-10.005-37.528-10.612-56.421-7.277-25.062 4.7-49.995 15.615-75.7 14.099-14.78-.909-29.431-8.489-42.669-15.766-31.617-17.586-60.92-40.326-90.608-62.005-12.081-8.793-24.034-17.738-37.528-23.195-18.379-7.429-38.043-10.461-57.321-11.674-32.516-1.971-74.671-2.425-94.721 33.353-9.125 16.524-12.981 36.232-15.808 55.183-.129 1.061 1.285 1.516 1.414.454 2.827-19.708 6.811-40.174 16.836-56.699 11.182-18.192 27.889-25.772 46.14-28.501 19.921-3.032 40.228-3.032 60.148-.606 19.021 2.274 38.942 6.519 56.164 16.828 12.081 7.125 23.391 16.221 34.829 24.559l43.954 31.685c14.523 10.006 29.432 19.557 44.983 27.288 11.182 5.609 23.006 10.764 35.215 11.219 44.983 1.819 92.536-34.262 135.463-3.942 8.354 5.913 18.507 15.16 19.278 27.743.514 8.338-2.827 16.373-5.141 24.105-6.94 22.74-4.627 46.997-5.912 70.798-3.084 55.183-10.924 110.972-2.185 166.004 4.499 28.198 15.037 53.364 23.906 79.742 8.482 25.47 15.422 52 16.065 79.591.642 29.259-6.94 56.396-17.351 82.623-9.253 23.044-19.921 45.329-26.347 69.737-6.426 24.56-10.41 50.332-15.422 75.195-5.013 25.166-9.64 50.332-12.981 75.801-6.041 45.935-31.745 90.506-65.29 114.914-19.149 13.947-39.584 18.344-61.305 10.915-20.435-6.974-38.428-20.466-57.835-30.32-20.692-10.461-42.541-18.344-64.004-26.379-21.592-8.187-43.44-16.07-65.418-22.589-26.476-7.883-55.008-12.886-78.913-29.714-10.539-7.428-20.692-18.495-19.792-34.262 1.414-26.833 12.981-51.393 13.238-78.681.129-13.341-2.185-26.53-5.012-39.416-2.699-11.977-5.269-23.954-9.768-35.172-9.125-22.589-20.821-43.661-34.187-63.218-13.366-19.708-28.403-37.749-44.212-54.88-14.651-15.918-30.202-30.775-44.083-47.906-8.225-10.157-15.808-20.921-22.62-32.291-2.827-4.7-5.012-10.916-8.225-15.009-2.956-3.79-7.583-5.761-10.668-9.551-3.47-4.396-4.112-10.309-5.526-15.766-1.414-5.306-2.827-10.612-3.856-16.222-.899-5.154-1.799-11.673.9-16.373 3.342-5.761 11.181-7.428 16.579-8.489 9.768-1.971 20.05-1.365 29.432-5.458 6.94-3.032 12.724-8.338 17.222-15.16 4.884-7.429 8.097-16.222 11.181-24.863 4.113-11.825 8.354-23.347 12.981-34.868 19.664-49.271 44.083-98.845 47.81-154.179 1.928-29.411 0-58.973 3.856-88.233.129-1.061-1.285-1.516-1.542-.454z" fill="url(#AC)"/><path d="M-115.451-123.944c-4.37 29.411-2.313 59.428-6.426 88.839-4.113 29.562-15.294 57.609-26.09 84.442-9.768 24.256-20.435 48.209-28.018 73.375-6.04 20.012-11.952 42.903-31.488 49.119-9.382 3.032-19.15 2.123-28.66 3.639-6.426 1.061-15.294 3.183-19.279 9.854-3.341 5.609-1.927 13.341-.385 19.405 2.313 9.702 6.297 18.647 9.253 27.894 2.571 8.035 4.499 13.645 10.796 18.648 8.868 7.125 15.937 15.008 22.877 24.711 14.138 19.556 25.833 41.387 39.842 61.095 13.495 19.102 28.404 36.688 41.898 55.941 14.909 21.376 28.789 43.965 40.356 68.221 2.571 5.458 5.269 10.915 7.454 16.676 2.699 6.822 4.37 14.251 6.426 21.376 3.984 13.796 8.225 27.895 7.968 42.752-.129 15.16-3.342 30.017-5.398 45.025-1.285 8.945-3.213 18.951-1.285 27.744 2.828 12.734 12.852 21.072 22.106 26.833 12.724 7.883 26.733 12.886 40.485 17.283 13.495 4.244 26.99 7.731 40.356 12.431 23.006 8.186 45.882 17.283 68.374 27.288 20.307 9.096 39.842 18.496 58.478 31.533 15.423 10.764 31.873 22.741 50.124 24.863 17.864 2.123 34.829-7.58 48.838-19.86 15.166-13.189 27.889-30.168 37.657-49.119 9.896-19.253 15.423-39.265 18.764-61.247 3.47-23.801 10.154-46.845 16.451-69.585 6.426-23.195 11.953-46.542 17.479-70.04 6.169-26.075 17.865-49.574 27.504-73.982 9.254-23.498 15.937-48.209 15.937-74.436-.129-26.682-6.426-52.454-14.523-77.165-8.74-26.531-19.536-51.545-23.905-79.743-4.499-28.804-3.985-58.215-2.314-87.171l5.912-85.655c.514-13.493-.257-26.985 2.699-40.174 1.928-8.641 5.141-16.979 6.298-25.924 2.313-18.647-10.925-32.594-23.648-40.781-16.708-10.612-36.372-11.977-54.751-8.793-24.548 4.245-48.71 15.312-73.9 13.796-13.495-.758-26.604-7.884-38.557-14.554-30.588-17.283-58.863-39.871-87.395-61.55-10.41-7.884-20.949-16.828-32.388-22.589-16.579-8.49-35.472-10.461-53.337-11.067-19.535-.606-39.199 1.213-58.478 4.851-14.908 2.881-28.403 9.551-37.785 24.105-9.51 15.16-13.495 33.807-16.322 51.696-.128 1.061 1.285 1.516 1.414.455 2.956-19.254 7.326-39.871 18.636-54.728 12.467-16.373 30.203-19.405 47.81-21.679 34.701-4.7 75.828-7.126 107.059 14.402 25.833 17.737 50.252 38.203 75.957 56.244 13.752 9.703 27.76 18.95 42.541 26.379 10.41 5.306 21.334 10.005 32.773 10.157 43.312.758 90.222-33.807 130.707-1.668 8.354 6.67 17.607 16.373 18.25 29.108.386 8.944-2.956 17.889-5.141 26.227-5.912 22.74-3.984 47.603-5.526 71.253-3.599 53.212-10.925 107.789 0 160.546 5.526 26.531 16.708 50.787 24.547 76.408 7.712 25.165 12.981 51.544 11.439 78.529-3.085 53.061-34.701 94.751-44.726 145.538-8.996 45.329-26.347 88.232-32.644 134.319-6.17 45.177-29.818 88.384-62.976 112.489-17.736 12.886-36.244 17.282-56.165 9.096-18.25-7.58-33.801-21.528-51.023-31.837-18.25-10.915-38.171-18.798-57.321-26.985-20.05-8.489-40.356-16.676-60.92-23.346-26.219-8.49-55.522-13.19-78.656-31.23-5.141-4.094-10.153-9.096-12.981-15.767-4.113-9.551-2.056-20.769-.643-30.927 1.671-12.431 4.113-24.559 5.141-37.142 1.157-13.038-.257-25.166-3.342-37.749-2.828-11.37-5.526-23.802-9.768-34.565-4.627-12.128-10.539-23.802-16.579-35.02-11.182-20.921-23.905-40.478-37.272-59.277-12.852-17.889-27.118-34.565-39.585-52.757-13.366-19.557-24.804-40.629-38.813-59.579-6.041-8.187-11.953-15.615-19.793-21.376-4.755-3.639-8.611-7.277-10.539-13.796l-3.598-11.522c-3.213-9.247-7.326-18.647-8.483-28.653-1.542-13.492 8.354-18.192 18.122-20.163 16.451-3.183 34.187.455 46.782-15.16 10.282-12.734 13.495-31.23 18.893-47.148 17.35-51.241 46.011-99.905 52.308-155.543 3.085-27.591 1.671-55.486 5.655-83.078.129-1.061-1.285-1.516-1.542-.455z" fill="url(#AD)"/><path d="M-102.727-108.632c-4.627 28.198-3.342 57.306-9.511 85.049-6.169 27.895-17.993 53.97-28.532 79.894-8.996 22.134-17.222 44.419-23.391 67.917-5.655 21.528-13.88 40.326-34.701 43.055-13.366 1.819-35.986-3.183-45.368 11.825-6.94 10.916 2.185 29.108 6.426 39.113 3.47 8.187 7.197 16.07 9.896 24.56 2.571 7.883 6.812 12.583 12.852 16.828 18.765 13.189 31.874 33.504 43.569 55.031 10.539 19.254 20.436 38.659 32.003 57.154l38.042 62.308c6.683 11.674 13.109 23.499 19.15 35.627 2.828 5.609 5.526 11.218 8.097 16.828 2.828 6.064 4.241 12.734 6.555 19.253 4.113 11.825 9.125 23.347 9.768 36.233.643 14.402-1.285 28.956-1.671 43.358-.257 8.186-.771 16.676 2.57 24.105 2.442 5.154 6.169 9.399 10.153 12.886 11.182 9.702 25.062 15.008 38.171 19.708 13.366 4.7 27.118 8.186 40.485 13.038 21.849 7.883 43.441 17.737 64.39 28.349 17.865 9.096 35.73 18.041 51.665 31.382 14.009 11.673 28.532 25.469 45.754 29.562 16.451 3.942 32.131-4.7 45.369-15.463 14.908-12.128 27.504-28.35 37.271-46.39 10.025-18.496 16.194-38.204 19.407-59.732s10.667-42.145 17.736-62.308c7.197-20.466 15.166-40.932 20.435-62.308 2.699-11.067 4.756-22.286 8.354-33.201 4.113-12.583 9.254-24.559 14.395-36.536 9.382-22.285 18.507-45.026 21.334-70.04 2.828-25.469-.899-50.938-7.582-75.194-7.455-26.531-19.279-51.393-25.319-78.379-6.169-27.591-6.812-56.244-5.398-84.593 1.285-27.743 4.498-55.487 6.169-83.23.899-13.796.128-28.046 2.313-41.539 1.542-10.006 4.884-19.557 6.169-29.562 2.185-18.495-8.611-32.897-21.206-42.297-15.808-11.825-35.087-14.099-53.208-11.37-23.52 3.487-46.011 13.644-69.916 13.644-12.981 0-25.319-6.216-36.758-12.735-29.303-16.676-56.292-38.81-83.411-60.035-10.667-8.338-21.335-16.979-32.516-24.407-13.495-8.945-29.175-10.916-44.34-11.067-18.764-.152-37.528 2.577-56.036 6.215-15.551 2.881-31.36 5.306-42.541 19.709-10.282 13.037-14.138 30.926-17.093 47.754-.257 1.061 1.285 1.516 1.414.455 3.213-18.344 7.711-38.507 20.178-51.242 13.109-13.34 33.03-14.402 49.481-17.131 18.893-3.183 38.3-5.457 57.321-3.335 14.909 1.516 27.247 7.277 39.842 16.525 25.576 18.798 49.995 39.568 75.828 57.912 21.335 15.16 46.139 34.11 71.972 33.049 41.384-1.668 87.652-33.201 124.795 2.729 7.583 7.429 14.652 17.131 14.781 29.259.128 9.551-3.085 18.95-5.013 28.046-2.313 10.915-2.57 21.527-2.956 32.746-.514 13.493-1.414 26.834-2.57 40.326-4.242 52.151-10.282 105.97 4.112 156.756 7.069 25.015 17.865 48.361 24.163 73.831 6.554 26.227 8.868 53.667 3.47 80.652-5.141 25.469-16.194 48.209-25.705 71.707-3.984 10.006-7.84 20.012-10.796 30.624-2.956 10.309-4.626 20.921-7.454 31.23-11.31 40.023-30.845 77.62-36.5 119.462-6.041 43.661-30.589 86.261-63.362 108.244-8.354 5.609-17.607 10.308-27.375 10.46-9.382.152-18.507-3.79-26.733-8.793-15.037-9.247-27.503-23.043-42.283-32.746-17.351-11.37-36.372-20.163-54.751-28.652-17.736-8.339-35.601-16.373-53.979-22.286-13.752-4.396-27.504-8.186-40.999-13.493-12.724-5.002-27.247-11.066-36.5-23.043-5.269-6.974-6.169-14.251-6.169-23.347 0-14.099 1.542-28.046 1.799-42.145.257-12.128-2.313-22.74-6.298-33.959-3.342-9.247-5.655-19.405-9.639-28.198-20.563-44.874-46.782-85.503-72.358-126.435-21.335-34.111-35.858-79.137-68.117-101.27-3.855-2.578-7.583-5.307-10.282-9.4-2.441-3.638-3.341-8.186-4.883-12.279-2.956-8.035-6.684-15.615-9.897-23.499s-7.197-16.979-7.068-25.924c.128-12.128 12.081-16.069 20.563-17.282 15.294-2.274 32.259 1.819 45.24-10.309 11.182-10.612 14.652-28.35 18.764-43.813 13.11-50.029 41.385-93.842 50.895-145.083 4.884-26.227 3.984-53.212 8.354-79.439.257-1.516-1.157-1.971-1.285-.91z" fill="url(#AE)"/><path d="M-90.132-93.32c-5.141 26.985-5.141 55.032-13.623 80.955-8.354 25.772-19.921 50.18-29.56 75.346-4.242 11.067-8.354 22.285-11.567 33.807-2.442 8.793-4.113 18.04-6.298 26.985-2.313 9.399-5.269 18.95-11.053 26.075-6.812 8.339-16.065 11.219-25.704 11.674-14.138.758-34.059-3.487-44.726 10.612-7.069 9.399-.643 24.711 3.213 34.11 3.47 8.49 7.583 16.525 11.567 24.56 3.47 7.125 5.912 14.705 9.125 21.83 3.342 7.277 9.254 11.674 15.294 15.464 8.868 5.609 16.322 12.28 23.263 20.921 13.366 16.828 22.363 37.446 30.974 57.912 8.739 20.921 18.635 41.084 29.046 61.095l36.628 70.343 8.868 17.586c2.571 5.155 3.856 10.612 6.169 15.918 4.884 11.219 10.796 20.618 11.824 33.656 1.028 13.947 1.285 27.895 3.213 41.691.9 6.367 2.828 11.673 6.683 16.373 8.868 10.915 22.234 16.524 34.058 21.224 14.138 5.609 28.789 9.551 43.055 14.705 19.921 7.125 39.199 17.434 57.835 28.198 16.451 9.551 32.773 18.95 46.782 33.201 11.182 11.37 22.492 24.559 36.501 30.927 15.165 6.822 29.56.303 42.669-9.4 15.037-11.218 27.761-26.682 37.657-43.964 10.025-17.586 17.094-37.143 20.05-57.912 2.698-19.557 10.538-37.9 17.993-55.486 7.84-18.647 16.45-36.84 23.262-56.093 7.197-20.011 10.539-41.387 18.25-61.247 8.74-22.286 19.407-43.661 25.191-67.463s5.655-48.664.899-72.617c-5.141-25.924-14.908-49.422-23.134-73.982-8.868-26.53-11.567-55.183-11.053-83.532.515-27.137 3.599-54.122 5.912-81.107 1.157-13.644 1.543-27.288 2.442-41.084.772-11.522 3.856-22.285 5.527-33.504 6.554-41.994-33.93-63.976-63.747-62.308-22.749 1.213-44.469 11.522-67.217 13.493-14.138 1.364-25.705-2.426-38.429-9.551-28.274-15.615-54.107-37.446-79.683-58.215l-33.287-26.53c-10.924-8.187-21.592-12.887-34.701-13.493-18.636-.91-37.271 3.487-55.393 7.732l-25.704 6.215c-7.197 1.668-13.88 4.245-19.664 9.551-11.953 11.219-16.194 29.108-19.407 45.329-.257 1.061 1.157 1.516 1.414.455 3.727-18.495 8.868-38.962 24.419-48.209 7.84-4.7 16.965-5.761 25.319-7.884l26.347-6.215c17.865-3.79 37.4-7.732 55.522-3.032 11.567 3.032 21.335 11.521 30.974 19.253 24.676 19.557 48.838 40.175 74.286 58.367 11.31 8.186 23.006 15.918 35.344 21.982 12.081 5.912 22.877 7.58 35.986 5.912 21.463-2.729 42.027-12.128 63.619-13.189 19.15-1.061 38.171 5.306 51.666 21.679 7.326 8.944 12.209 19.253 11.31 31.988-.643 10.309-3.727 20.315-5.27 30.624-1.799 11.825-1.542 23.801-2.313 35.778l-3.213 38.658c-4.627 50.938-7.454 101.573 10.153 149.783 8.74 23.801 17.608 47.906 21.72 73.527 4.242 26.682 1.928 53.212-6.426 78.529-7.454 22.437-18.121 43.207-25.704 65.644-3.47 10.309-5.527 20.921-8.226 31.533-2.313 8.945-5.398 17.586-8.739 25.924-13.366 34.11-32.773 67.159-38.171 104.757-6.041 42.6-31.874 84.745-64.647 104.302-8.482 5.003-17.351 8.489-26.99 6.215-7.711-1.819-14.651-6.518-21.077-11.824-12.21-10.158-22.235-23.802-34.83-33.201-16.322-12.128-34.315-22.134-51.923-31.23-15.551-8.187-31.359-15.615-47.81-21.073-14.266-4.7-28.66-8.944-42.541-15.16-11.438-5.155-27.375-12.735-31.359-27.895-3.47-13.189-3.084-28.501-3.856-42.145-.643-10.461-2.442-18.496-6.812-27.743-4.498-9.399-7.583-19.405-12.21-28.501l-17.865-34.869-34.573-66.25c-9.253-18.344-17.479-37.294-25.704-56.244-8.097-18.799-17.222-37.142-29.946-51.999-6.04-7.126-12.466-12.583-20.049-17.283-8.611-5.458-13.752-10.764-17.608-21.376-5.526-14.857-13.752-28.198-19.535-42.903-2.828-7.125-6.426-16.373-4.755-24.408 2.313-10.612 14.523-13.796 22.362-14.705 14.909-1.668 31.745 2.88 45.112-7.58 11.053-8.793 15.037-24.712 18.25-39.265 5.141-22.892 12.338-44.42 21.078-65.795 9.125-22.589 19.663-44.874 26.475-68.676 7.069-24.408 7.197-50.483 11.953-75.498.514-1.364-1.028-1.819-1.157-.758z" fill="url(#AF)"/><path d="M-77.537-78.008c-2.956 13.189-4.884 26.834-7.583 40.023-2.956 13.947-7.454 26.834-12.852 39.72-9.767 23.498-20.563 46.542-28.403 70.95-5.784 18.041-7.454 37.294-13.109 55.335-2.828 8.792-7.198 17.131-14.266 21.982-8.097 5.609-17.737 5.609-26.862 5.458-13.494-.455-32.516-2.881-42.026 11.673-6.041 9.399-.643 23.195 3.084 32.291 6.426 15.767 15.294 29.866 22.492 45.177 3.084 6.368 4.883 13.796 8.996 19.405 5.141 6.822 12.21 10.612 19.021 14.706 35.344 21.679 45.883 67.311 60.02 107.485 7.969 22.589 17.222 44.723 27.119 66.25 5.526 11.977 11.31 23.802 17.222 35.475l9.639 18.496c1.799 3.486 2.956 7.125 4.755 10.612 3.727 7.277 10.41 11.825 13.366 19.859.771 2.123.643 3.942 1.028 6.065.514 2.728 1.799 5.609 2.57 8.338 1.671 6.519 2.699 13.341 4.113 20.011 1.542 7.429 3.213 14.402 7.711 20.011 4.241 5.307 9.896 9.097 15.551 12.129 13.752 7.731 28.789 12.128 43.312 16.979 17.865 6.064 34.958 14.099 51.537 24.256 8.74 5.458 17.222 11.219 25.576 17.586 7.454 5.609 15.165 10.916 21.591 18.041 10.411 11.825 18.893 25.772 30.589 35.778 11.567 9.854 22.877 11.067 35.857 4.093 16.194-8.641 29.946-23.195 40.87-39.72 10.796-16.221 19.15-35.171 23.263-55.334 1.542-8.035 2.313-15.918 4.755-23.499 2.828-9.096 6.683-17.737 10.668-26.378 8.354-17.889 17.736-35.172 26.347-52.909 7.454-15.464 12.723-30.472 16.836-47.452 5.912-24.407 17.222-46.238 25.962-69.282 8.482-22.74 13.366-46.39 11.438-71.404-1.928-25.318-9.511-49.271-17.864-72.617-4.627-13.038-9.64-25.773-12.596-39.417s-4.369-27.894-4.884-41.993c-.771-27.289 2.185-54.425 4.884-81.41 1.286-13.341 2.571-26.682 3.213-40.174.643-12.431 2.828-24.408 4.627-36.536 2.956-20.011-1.542-36.233-14.266-50.18-11.824-12.886-27.375-18.647-43.183-18.95-21.463-.303-42.027 9.096-63.105 12.28-15.165 2.274-26.732.152-40.356-7.429-26.989-14.857-51.537-36.384-75.828-56.547l-33.93-28.046c-9.125-7.125-17.736-14.099-28.917-15.463-16.836-1.971-34.187 3.638-50.252 8.793l-25.447 8.338c-7.069 2.122-14.78 3.183-21.335 7.125-12.724 7.883-17.351 24.711-20.949 40.023-.257 1.061 1.157 1.516 1.414.455 4.627-19.86 11.053-37.598 29.689-42.449 16.579-4.396 32.645-10.46 49.096-15.16 15.294-4.396 34.187-9.551 49.353-1.668 9.639 5.003 18.379 13.19 26.99 20.315 24.034 19.86 47.682 40.629 72.744 58.821 10.539 7.732 21.335 15.16 32.902 20.618 11.824 5.609 22.363 6.367 35.086 4.396 20.949-3.184 41.513-12.583 62.848-12.28 18.507.303 35.986 8.338 47.81 25.469 6.812 9.854 10.153 20.618 9.125 33.352-.771 10.764-3.47 21.376-4.755 32.14-1.414 12.583-1.542 25.317-2.699 37.9l-3.727 38.81c-2.442 25.923-3.985 52.302-1.157 78.378 2.827 25.62 11.567 47.754 19.664 71.404 8.097 23.498 14.78 48.209 14.78 73.83 0 27.288-8.611 51.848-18.636 75.801-8.482 20.315-16.322 40.023-21.206 61.853-3.727 16.828-11.953 32.443-19.407 47.3-8.354 16.676-17.222 32.898-24.676 50.029-3.085 6.973-5.912 13.947-8.097 21.376-2.313 7.58-2.956 15.311-4.498 23.043-4.627 21.982-14.523 42.6-26.99 59.731-11.438 15.615-27.247 31.837-44.726 36.991-16.194 4.7-29.817-10.46-39.97-23.195-9.511-11.825-17.865-23.043-29.432-32.14-16.579-12.886-33.673-24.559-51.794-34.11-13.88-7.277-28.146-12.431-42.798-17.283C14.999 610.87-.295 606.17-12.89 596.62c-6.683-5.003-10.796-10.916-12.981-19.86-1.414-5.306-2.314-10.916-3.342-16.373-1.285-6.671-3.47-13.038-4.627-19.557-1.285-6.822-4.37-11.37-8.354-16.524-5.526-6.974-8.611-14.706-12.852-22.741-12.081-22.588-23.263-45.783-33.544-69.433-8.868-20.467-16.836-41.388-23.776-62.915-5.912-18.344-11.824-36.991-20.821-53.667-8.868-16.373-20.563-30.169-35.215-39.113-7.583-4.548-15.551-8.945-20.307-17.738-3.213-6.064-5.269-13.189-8.353-19.405-7.326-14.705-15.809-28.652-21.721-44.116-2.442-6.519-5.269-14.705-3.855-21.982 1.927-10.006 12.209-14.251 19.792-15.615 15.294-2.729 31.745 3.184 46.525-3.79 11.953-5.609 17.736-18.95 21.078-32.746 4.498-18.799 7.326-37.294 13.623-55.486 8.611-24.863 19.921-48.209 29.56-72.466 8.997-22.589 11.438-46.845 16.708-70.798-.514-.91-1.928-1.364-2.185-.303z" fill="url(#AG)"/><path d="M-64.942-62.697c-3.599 12.583-6.555 25.469-10.796 37.749C-80.236-12.062-86.405-.085-92.06 12.043c-10.025 21.679-19.792 44.419-24.805 68.524-3.47 16.828-3.855 35.778-11.438 51.089-9.511 19.102-27.632 18.344-44.212 17.435-13.109-.758-30.974-1.668-39.585 12.734-5.398 8.945-1.156 21.528 2.314 30.472 6.169 15.918 15.037 30.169 23.134 44.874 3.341 6.064 6.811 12.128 9.51 18.647 3.213 7.58 5.912 14.251 11.824 19.708 6.17 5.61 13.495 9.097 20.307 13.19 8.482 5.154 16.065 12.128 22.491 20.466 12.467 16.221 19.664 36.688 24.934 57.457 5.141 20.315 9.125 41.084 15.037 61.247 6.683 22.589 14.909 44.42 24.933 65.189 5.012 10.309 10.539 20.618 16.065 30.472 2.313 4.245 6.555 6.367 10.025 9.096 6.169 5.003 9.639 14.554 13.109 22.437 3.599 8.187 6.555 17.586 12.338 24.256 10.025 11.522 25.576 16.373 38.557 20.921 16.836 6.065 33.544 11.219 49.353 20.77 17.479 10.46 34.187 24.408 48.453 40.174 9.253 10.309 15.165 24.56 23.391 36.082 6.94 9.55 16.451 20.011 28.018 17.889 15.422-2.729 30.588-17.889 40.998-30.624 12.338-15.16 22.106-33.504 27.89-53.364 2.442-8.338 3.084-17.131 5.269-25.621 1.928-7.731 5.141-15.16 8.611-22.133 15.037-31.382 36.629-58.519 49.481-91.416 2.828-7.277 4.113-14.857 6.041-22.589 3.213-12.431 7.968-24.256 12.852-35.93 9.254-22.285 19.15-44.419 21.849-69.433 2.57-23.802-1.543-47.451-8.226-69.737-7.583-25.469-19.021-49.27-22.748-76.104-3.727-26.985-1.8-54.425.899-81.41s4.37-54.425 8.226-81.259c2.827-20.315 3.084-37.749-8.097-54.728-9.639-14.705-23.777-23.498-39.328-25.772-20.049-2.88-39.585 5.003-59.12 9.248-9.511 2.122-20.05 4.396-29.689 2.274-5.141-1.213-10.153-3.487-15.037-6.064-26.218-14.099-49.867-35.475-73.001-55.335l-33.801-29.108c-7.711-6.519-16.451-15.311-25.833-18.04-13.752-4.094-29.303 1.971-42.284 7.125-15.551 6.216-30.717 14.251-46.782 18.95-14.909 4.093-20.178 17.131-24.805 33.201-.257 1.061 1.157 1.516 1.414.455 2.571-9.096 5.269-19.405 11.824-25.924 6.169-6.216 15.037-6.974 22.491-9.854 15.551-5.913 30.588-13.948 46.397-19.102 13.88-4.548 28.018-7.429 40.742 1.819 9.254 6.671 17.993 14.402 26.733 21.831 23.391 20.163 46.397 40.781 70.945 58.973 9.896 7.277 20.049 14.251 30.845 19.253 12.724 5.761 25.576 4.245 38.814 1.364 20.563-4.396 41.127-13.038 62.204-9.096 17.994 3.487 34.316 16.676 42.027 36.536 4.627 11.673 3.856 24.256 2.185 36.688-1.414 10.915-2.827 21.679-3.598 32.898-1.8 25.621-5.527 51.09-7.326 76.71-1.671 24.56-1.543 49.574 3.855 73.376 5.527 24.559 16.58 46.996 22.877 71.404 6.683 25.924 8.483 52.909 1.8 79.136-6.041 23.498-17.094 44.571-25.319 67.008-5.912 16.221-8.226 33.656-15.551 49.271-7.326 15.463-16.066 30.017-24.677 44.571-8.482 14.402-17.222 28.955-23.905 44.57-6.169 14.251-7.069 29.714-11.824 44.571-6.683 21.225-17.993 40.63-32.13 55.942-10.925 11.824-30.332 30.168-46.011 21.679-12.467-6.823-20.564-23.044-28.147-35.779-7.711-12.886-16.836-22.437-27.504-32.139-14.137-12.886-29.688-24.105-46.268-31.836-14.909-6.974-30.845-10.916-46.011-17.131-7.326-2.881-14.651-6.216-21.206-11.067-7.197-5.306-10.924-12.735-14.78-21.528-3.47-7.883-6.812-16.07-10.539-23.801-2.442-5.155-7.84-7.884-11.824-11.067-5.912-4.7-9.896-15.16-13.752-22.286-5.526-10.46-10.667-21.376-15.294-32.442-8.868-21.225-15.937-43.359-21.592-66.099-8.996-36.536-14.522-76.559-39.199-103.847-5.912-6.519-12.595-11.825-19.792-16.07s-14.909-7.883-20.949-14.554c-5.398-5.912-7.455-13.644-10.925-20.921-3.084-6.518-6.683-12.734-10.153-18.95-7.711-13.796-16.065-27.44-21.592-42.6-2.313-6.216-4.755-13.947-3.47-20.921 1.542-9.096 10.153-14.251 16.965-16.221 15.294-4.397 30.974 1.667 46.397-1.516 12.723-2.729 21.334-12.28 25.833-26.227 5.012-15.615 5.526-32.595 9.51-48.665 6.298-25.469 16.965-48.967 27.761-72.011 4.627-10.006 9.382-19.86 12.981-30.624 3.856-11.522 6.683-23.498 9.896-35.172.643-1.213-.9-1.668-1.157-.606z" fill="url(#AH)"/><path d="M-52.218-47.536c-5.912 10.461-9.896 22.286-15.423 33.049C-73.553-2.965-80.236 7.95-85.634 19.775c-9.125 20.011-15.679 41.084-18.636 63.673-2.184 16.525-3.084 36.687-13.494 49.422-12.21 15.009-31.36 10.46-47.04 9.551-12.723-.758-29.046 0-36.885 13.947-5.27 9.248-1.029 21.831 2.442 30.927 6.169 15.918 15.037 30.169 23.391 44.571 3.855 6.67 7.839 13.189 11.438 20.011 3.213 6.064 5.398 12.735 8.611 18.799 8.611 16.525 25.19 21.224 38.557 30.32 17.222 11.825 28.917 30.927 35.6 52.909 5.784 19.102 8.097 39.113 10.41 58.973 2.699 22.741 7.069 45.178 14.009 66.705 5.784 17.586 14.266 39.417 25.062 52.151 1.542 1.819 3.213 2.426 5.912 3.335 2.956.91 5.912 1.819 8.611 3.336 2.313 1.364 3.599 3.638 5.398 5.76 6.94 7.429 12.852 16.373 20.178 23.196 5.398 5.154 11.953 8.338 18.379 11.218 17.222 7.58 35.601 11.673 52.566 20.315 17.093 8.793 31.359 22.285 43.697 38.507 4.37 5.76 8.483 11.218 11.567 18.04 3.085 6.671 5.784 13.493 8.74 20.163 4.884 10.461 11.31 24.56 21.592 28.653 12.081 5.003 27.375-9.096 35.986-17.586 14.009-13.644 25.319-31.382 32.645-50.938 5.655-15.009 6.169-31.685 12.723-46.087 14.009-31.078 35.858-56.396 52.566-85.352 3.598-6.216 6.94-12.431 9.639-19.253 2.699-6.974 3.727-14.402 5.783-21.679 6.555-23.347 17.994-44.268 25.576-67.16 7.583-23.043 9.125-47.148 4.884-71.404-4.498-25.621-15.037-48.21-22.234-72.769-7.84-26.682-7.84-55.183-5.398-82.926 2.442-27.289 5.526-54.729 8.739-81.865 2.571-22.134 4.627-43.055-6.297-62.763C310.729 9.466 297.877-.54 282.968-3.723 249.038-11 214.466 18.865 181.95 1.583c-25.319-13.493-48.068-34.868-70.174-54.425L77.461-83.314c-7.583-6.671-15.551-14.554-24.162-19.254-11.053-6.064-24.676-.151-35.215 4.852-15.037 7.125-28.917 16.828-43.955 23.801-5.783 2.729-12.595 3.487-17.608 7.883-5.141 4.548-7.583 11.37-9.125 18.647-.257 1.061 1.157 1.516 1.414.455 1.542-6.974 3.856-13.796 8.996-18.041 4.37-3.487 9.896-4.245 14.652-6.367 8.996-3.79 17.479-9.096 25.961-13.947 15.423-8.793 39.071-25.469 56.293-14.251 12.467 8.035 23.777 19.405 35.087 29.411l46.654 40.932c13.88 11.673 28.146 23.347 43.697 31.836 5.013 2.729 10.282 5.306 15.809 6.216 11.824 1.668 24.676-1.971 36.114-4.851 24.934-6.367 52.952-14.099 74.672 6.974 10.667 10.309 18.121 25.772 19.278 41.994 1.157 15.767-2.185 31.685-3.599 47.3-3.084 34.262-9.382 68.675-8.868 103.24.258 16.677 2.314 33.201 6.941 48.968s11.181 30.775 15.936 46.541c4.884 16.07 8.483 32.898 8.74 50.181.385 18.647-3.47 36.384-9.639 53.363-5.398 14.857-12.081 28.805-17.608 43.662-4.37 11.521-6.297 23.801-10.153 35.323-6.94 20.315-20.307 37.9-31.617 54.88-11.181 16.979-23.391 33.959-31.873 53.06-3.47 7.884-4.755 15.464-6.426 23.953-2.699 14.099-7.84 27.44-14.266 39.569-6.94 12.886-15.551 24.559-25.705 33.958-7.711 7.126-21.077 19.254-31.616 16.222-8.354-2.426-14.138-12.583-18.379-20.618-4.37-8.49-7.968-17.434-11.824-26.227-8.354-18.647-23.134-35.172-37.785-46.845-19.407-15.312-41.513-21.073-63.361-29.259-10.539-3.942-21.335-8.49-29.432-17.738-6.812-7.731-12.981-16.524-19.921-23.953-2.442-2.577-14.138-8.338-16.708-6.064.386-.303.514-.91.129-1.364-16.708-24.56-27.247-53.819-33.544-84.291-5.269-25.166-6.555-51.241-11.696-76.407-4.755-23.044-13.238-45.329-28.66-61.096-15.937-16.221-41.77-20.011-51.666-43.661-7.197-17.283-17.094-32.443-26.219-48.512-5.012-8.793-10.024-17.738-14.009-27.289-3.213-7.58-6.811-16.676-6.04-25.469 1.028-11.976 12.338-18.192 21.206-19.86 10.282-1.971 20.692 0 30.974.607 16.579 1.061 32.516-3.184 39.97-22.286 3.856-10.006 5.27-21.072 6.684-31.836 1.799-13.796 3.855-27.288 7.839-40.478 5.526-17.889 13.238-34.717 21.977-50.635 4.113-7.58 8.354-14.857 11.953-22.892 3.47-8.035 6.812-16.221 11.053-23.65.771-1.061-.514-1.819-1.028-.91z" fill="url(#AI)"/><path d="M-39.494-32.377c-20.049 21.527-37.4 46.845-45.24 77.923-5.655 22.437-3.599 47.3-11.181 69.13-9.511 27.288-33.673 23.498-54.237 21.679-14.137-1.213-38.942-.91-42.926 20.466-2.956 15.767 7.454 33.959 14.137 46.39 10.153 18.951 22.235 36.233 32.388 55.183 4.37 8.035 7.069 17.435 12.595 24.56 7.069 9.399 17.093 14.554 26.604 19.708 11.439 6.064 22.234 12.886 30.974 23.953 8.225 10.461 13.88 23.195 17.35 36.688 7.968 29.865 5.269 61.095 7.968 91.87 2.828 31.837 10.796 63.067 29.303 87.323.257-.455.643-.909.9-1.364 1.542 1.213 6.94-.304 9.254-.304 3.342 0 6.041.607 8.997 1.82 11.567 4.548 21.335 13.947 32.773 18.95 24.419 10.764 51.537 13.796 73.258 32.139 15.936 13.493 25.447 34.414 31.359 55.942 3.856 14.098 8.483 36.99 20.564 44.419 5.912 3.638 12.209-.152 17.607-3.335 10.539-6.216 19.793-15.312 27.633-25.621 8.096-10.612 14.78-22.74 19.663-35.778 3.856-10.309 4.756-21.073 7.712-31.685 5.269-19.102 19.407-35.778 30.331-50.786 12.21-16.677 24.933-32.898 35.858-50.635 3.984-6.519 7.968-13.341 10.153-21.073 1.671-5.761 2.57-11.673 4.241-17.283 2.571-8.641 5.912-17.131 9.382-25.317 12.339-29.866 23.777-58.367 20.178-92.477-1.67-15.767-5.912-30.927-10.795-45.784-5.398-16.221-12.339-31.836-15.423-49.119-6.555-36.839.9-74.285 5.269-110.821 3.599-30.017 9.254-62.914-5.655-89.9-10.924-19.86-29.431-28.653-48.967-28.046-13.366.303-26.218 4.851-39.199 8.035-10.796 2.577-23.134 6.064-34.058 2.122-14.523-5.154-27.89-16.676-40.228-26.833-29.56-24.408-56.678-52.757-86.367-77.014-4.113-3.335-8.483-7.428-13.623-8.49-6.555-1.364-13.495 1.365-19.535 4.245-18.25 8.945-33.673 24.408-51.537 34.11-7.968 4.245-14.523 5.003-18.122 15.767-.386 1.061 1.028 1.516 1.414.455 3.727-11.37 15.937-13.493 24.419-18.95 8.611-5.609 16.836-12.128 25.447-18.041 8.354-5.912 17.093-11.825 26.604-14.857 7.583-2.274 13.366-1.061 19.792 3.79 28.146 21.376 53.337 48.513 80.455 71.859 13.367 11.522 27.118 23.195 42.027 31.533 4.498 2.426 9.125 4.851 14.137 5.458 12.339 1.819 25.833-2.577 37.786-5.609 23.52-6.216 49.995-11.37 69.659 9.551 22.877 24.408 18.507 60.338 15.037 92.629-3.727 34.262-10.924 68.675-8.225 103.392 2.57 34.11 19.021 62.763 25.833 95.509 3.727 18.041 4.369 36.688.771 54.728-3.213 16.222-9.639 31.23-15.937 46.239-5.783 13.644-11.567 27.591-14.78 42.448-1.799 8.187-4.498 15.161-8.611 22.286-10.667 18.798-24.034 35.323-36.5 52.303-10.925 14.856-23.006 30.168-30.46 48.057-3.342 8.035-3.856 16.98-6.041 25.469-3.727 14.403-9.896 27.743-17.607 39.72-7.969 12.128-17.608 23.043-28.918 30.775-8.225 5.609-16.965 11.219-24.547 1.819-10.796-13.341-13.624-34.11-18.893-50.938-6.426-20.466-18.893-38.81-34.701-50.028-21.078-14.857-46.011-18.041-68.502-28.198-11.053-5.003-20.692-13.493-31.745-18.647-4.884-2.274-10.667-2.123-15.937-1.516-.9.151-6.812 1.061-3.856 3.335.771.606 1.414-.606.9-1.365-18.25-23.801-26.09-54.728-28.789-86.109-2.185-25.469-.643-51.09-4.627-76.256-3.856-23.953-12.724-46.845-29.175-62.157-17.736-16.524-44.597-19.708-55.521-45.48-7.455-17.434-17.479-32.746-27.119-48.513-9.767-16.373-21.977-34.717-25.447-54.728-1.799-10.612 1.542-18.799 9.511-24.56 9.382-6.822 21.206-6.064 31.745-5.154 17.093 1.516 38.042 6.064 50.38-11.825 11.824-17.131 10.282-43.055 13.238-63.673C-81.392 25.384-62.5-5.088-38.723-30.406c1.028-1.516-.129-2.729-.771-1.971z" fill="url(#AJ)"/><path d="M-26.642-17.367c-12.724 5.155-24.676 10.309-33.03 23.498-6.94 10.915-10.796 24.408-12.852 37.749-3.599 22.589-.514 49.271-10.41 69.888-12.467 25.772-39.97 16.828-60.277 15.463-14.266-.909-37.528 2.578-39.713 23.954-1.928 17.889 10.025 37.445 17.864 51.392 11.053 19.406 23.649 37.446 34.701 57.003 4.499 8.035 7.455 17.434 12.596 25.014 7.068 10.461 17.093 16.676 27.375 22.134 11.824 6.216 23.777 11.825 33.416 22.285 8.997 9.703 15.423 22.286 19.278 35.93C-20.73 427.28-55.56 502.02-11.862 552.352c.643.758 1.671-.455 1.028-1.213-2.442-3.335 16.579-8.338 18.893-8.49 11.953-1.364 25.062 6.064 36.757 8.49 25.448 5.155 59.378 10.006 75.829 36.688 9.51 15.463 9.896 36.536 12.723 54.88 1.414 9.247 3.085 18.647 6.041 27.439 1.799 5.307 4.241 12.129 8.868 14.857 5.655 3.336 12.981-2.577 17.736-5.76 9.896-6.671 18.507-15.767 25.704-26.227 6.941-10.006 12.724-21.073 16.837-33.05 3.341-9.702 3.598-20.466 7.326-29.714 6.683-16.979 19.535-31.381 30.331-44.874 12.852-16.07 26.218-31.533 38.171-48.361 4.37-6.064 8.611-12.28 11.952-19.253 4.113-8.642 5.141-18.95 8.226-28.046 10.153-29.866 26.476-56.548 26.99-89.9.257-15.615-2.571-31.079-6.812-45.936-4.627-16.373-11.696-31.684-16.065-48.057-9.511-35.627-2.057-73.072 3.213-108.699 4.369-29.865 7.968-63.369-5.655-90.809-9.639-19.405-26.861-28.956-45.626-29.259-12.466-.152-24.548 3.639-36.629 6.671-10.795 2.729-23.648 6.974-34.572 3.184-13.623-4.548-26.09-15.767-37.4-25.166-29.046-24.408-55.65-52.606-84.311-77.772-8.997-7.883-16.451-15.312-28.146-10.612C22.839-59.968 8.83-44.201-5.05-31.921c-7.069 6.064-13.623 11.219-21.592 14.554-.9.303-.514 2.123.386 1.668C-10.32-22.219 2.275-37.076 15.77-48.597c11.181-9.551 27.118-24.408 40.87-13.947 12.21 9.248 23.263 20.466 34.573 31.23l42.541 39.871c13.366 11.977 26.861 24.105 41.641 33.504 4.498 2.88 9.382 5.761 14.523 7.125 8.997 2.426 19.278-.152 28.146-2.274 23.906-5.609 50.51-15.767 72.615 2.274 23.777 19.253 25.319 57.912 21.978 88.535-3.727 34.565-12.595 68.827-9.768 103.847 2.571 32.746 19.278 60.489 24.805 92.477 3.084 18.193 2.699 36.688-2.056 54.577-4.242 16.221-11.31 30.927-17.479 46.239-2.442 6.215-4.884 12.431-6.812 18.798-1.799 5.913-2.699 11.977-4.498 17.889-2.314 7.429-6.812 13.948-10.925 20.012-11.31 16.676-24.291 31.684-36.886 47.148-11.181 13.795-23.005 27.743-31.745 43.964-3.213 5.913-4.627 11.37-5.783 18.192-2.314 14.251-7.583 27.744-14.266 39.72-7.197 12.886-16.451 24.711-27.504 33.353-6.426 5.002-17.479 14.856-24.034 6.064-4.883-6.519-6.94-16.525-8.611-24.712-1.799-8.792-3.084-17.585-4.112-26.53-2.442-18.95-5.527-38.658-18.636-51.544-19.792-19.405-46.782-23.499-71.33-28.501-11.181-2.275-22.877-9.097-34.315-8.187-5.526.303-11.696 2.274-16.708 4.7-2.442 1.212-6.298 3.487-3.856 6.973l1.028-1.212c-39.328-45.329-13.88-111.579-21.849-167.217-3.47-24.105-13.109-46.542-30.331-60.793-19.664-16.221-46.653-19.253-58.606-46.693-7.583-17.586-17.993-33.049-27.889-48.816-11.053-17.737-23.391-36.232-29.689-57.154-2.313-7.58-3.984-16.524-.257-23.953 6.426-12.734 19.792-15.615 31.231-15.463 18.636.303 41.384 9.551 58.092-4.548 15.551-13.341 15.551-40.326 16.965-60.641 1.157-15.615 2.956-31.533 8.611-45.935 3.084-8.035 7.326-15.463 13.109-21.073 7.326-7.277 16.451-10.612 25.447-14.251.771-.455.386-2.122-.643-1.819z" fill="url(#AK)"/></g></g><defs><filter id="E" x="287.212" y="-328.022" width="1144.14" height="734.435" filterUnits="userSpaceOnUse" class="B"><feFlood class="C"/><feBlend in="SourceGraphic"/><feGaussianBlur stdDeviation="100"/></filter><filter id="F" x="612.156" y="-669.168" width="1079.75" height="1654.5" filterUnits="userSpaceOnUse" class="B"><feFlood class="C"/><feBlend in="SourceGraphic"/><feGaussianBlur stdDeviation="7.262"/></filter><filter id="G" x="555.803" y="-713.243" width="1149.67" height="1726.83" filterUnits="userSpaceOnUse" class="B"><feFlood class="C"/><feBlend in="SourceGraphic"/><feGaussianBlur stdDeviation="21.787"/></filter><filter id="H" x="536.437" y="-732.609" width="1188.4" height="1765.56" filterUnits="userSpaceOnUse" class="B"><feFlood class="C"/><feBlend in="SourceGraphic"/><feGaussianBlur stdDeviation="31.469"/></filter><filter id="I" x="449.291" y="-819.755" width="1311.01" height="1938.59" filterUnits="userSpaceOnUse" class="B"><feFlood class="C"/><feBlend in="SourceGraphic"/><feGaussianBlur stdDeviation="75.042"/></filter><filter id="J" x="479.133" y="-804.729" width="1216.95" height="1936.62" filterUnits="userSpaceOnUse" class="B"><feFlood class="C"/><feBlend in="SourceGraphic"/><feGaussianBlur stdDeviation="45.994"/></filter><filter id="K" x="372.621" y="-911.24" width="1429.98" height="2149.64" filterUnits="userSpaceOnUse" class="B"><feFlood class="C"/><feBlend in="SourceGraphic"/><feGaussianBlur stdDeviation="99.25"/></filter><filter id="L" x="275.792" y="-1008.07" width="1623.63" height="2343.3" filterUnits="userSpaceOnUse" class="B"><feFlood class="C"/><feBlend in="SourceGraphic"/><feGaussianBlur stdDeviation="147.664"/></filter><filter id="M" x="797.289" y="67.384" width="826.876" height="304.177" filterUnits="userSpaceOnUse" class="B"><feFlood class="C"/><feBlend in="SourceGraphic"/><feGaussianBlur stdDeviation="2.974"/></filter><filter id="N" x="807.857" y="-6.42" width="785.345" height="857.731" filterUnits="userSpaceOnUse" class="B"><feFlood class="C"/><feBlend in="SourceGraphic"/><feGaussianBlur stdDeviation="2.974"/></filter><filter id="O" x="750.755" y="-63.522" width="899.55" height="971.936" filterUnits="userSpaceOnUse" class="B"><feFlood class="C"/><feBlend in="SourceGraphic"/><feGaussianBlur stdDeviation="31.525"/></filter><filter id="P" x="779.306" y="-34.971" width="842.447" height="914.834" filterUnits="userSpaceOnUse" class="B"><feFlood class="C"/><feBlend in="SourceGraphic"/><feGaussianBlur stdDeviation="17.25"/></filter><filter id="Q" x="768.738" y="-34.97" width="853.015" height="914.833" filterUnits="userSpaceOnUse" class="B"><feFlood class="C"/><feBlend in="SourceGraphic"/><feGaussianBlur stdDeviation="17.25"/></filter><filter id="R" x="829.303" y="-19.885" width="804.379" height="895.552" filterUnits="userSpaceOnUse" class="B"><feFlood class="C"/><feBlend in="SourceGraphic"/><feGaussianBlur stdDeviation="7.733"/></filter><filter id="S" x="810.961" y="-16.479" width="809.138" height="892.728" filterUnits="userSpaceOnUse" class="B"><feFlood class="C"/><feBlend in="SourceGraphic"/><feGaussianBlur stdDeviation="8.922"/></filter><filter id="T" x="812.137" y="-2.02" width="792.483" height="858.866" filterUnits="userSpaceOnUse" class="B"><feFlood class="C"/><feBlend in="SourceGraphic"/><feGaussianBlur stdDeviation="4.759"/></filter><filter id="U" x="793.103" y="172.471" width="830.551" height="697.555" filterUnits="userSpaceOnUse" class="B"><feFlood class="C"/><feBlend in="SourceGraphic"/><feGaussianBlur stdDeviation="14.276"/></filter><filter id="V" x="793.103" y="172.471" width="830.551" height="701.84" filterUnits="userSpaceOnUse" class="B"><feFlood class="C"/><feBlend in="SourceGraphic"/><feGaussianBlur stdDeviation="14.276"/></filter><filter id="W" x="-209.738" y="-135.129" width="665.472" height="848.918" filterUnits="userSpaceOnUse" class="B"><feFlood class="C"/><feBlend in="SourceGraphic"/><feGaussianBlur stdDeviation="7.262"/></filter><filter id="X" x="-229.673" y="-160.127" width="728.74" height="914.908" filterUnits="userSpaceOnUse" class="B"><feFlood class="C"/><feBlend in="SourceGraphic"/><feGaussianBlur stdDeviation="21.787"/></filter><filter id="Y" x="-249.039" y="-179.492" width="767.472" height="953.639" filterUnits="userSpaceOnUse" class="B"><feFlood class="C"/><feBlend in="SourceGraphic"/><feGaussianBlur stdDeviation="31.469"/></filter><filter id="Z" x="-317.752" y="-262.165" width="923.331" height="1123.46" filterUnits="userSpaceOnUse" class="B"><feFlood class="C"/><feBlend in="SourceGraphic"/><feGaussianBlur stdDeviation="75.042"/></filter><filter id="a" x="-259.296" y="-236.886" width="815.944" height="1052.47" filterUnits="userSpaceOnUse" class="B"><feFlood class="C"/><feBlend in="SourceGraphic"/><feGaussianBlur stdDeviation="45.994"/></filter><filter id="b" x="-365.807" y="-343.397" width="1028.97" height="1265.49" filterUnits="userSpaceOnUse" class="B"><feFlood class="C"/><feBlend in="SourceGraphic"/><feGaussianBlur stdDeviation="99.25"/></filter><filter id="c" x="-462.636" y="-440.226" width="1222.62" height="1459.15" filterUnits="userSpaceOnUse" class="B"><feFlood class="C"/><feBlend in="SourceGraphic"/><feGaussianBlur stdDeviation="147.664"/></filter><linearGradient id="d" x1="603.995" y1="0" x2="603.995" y2="1096.23" xlink:href="#AQ"><stop stop-color="#c4c4c4" stop-opacity="0"/><stop offset=".38" stop-color="#c4c4c4"/><stop offset=".578" stop-color="#c4c4c4"/><stop offset="1" stop-color="#c4c4c4" stop-opacity="0"/></linearGradient><linearGradient id="e" x1="1588.96" y1="-469.317" x2="777.329" y2="934.271" xlink:href="#AQ"><stop stop-color="#923dff"/><stop offset="1" stop-color="#2622ff"/></linearGradient><linearGradient id="f" x1="1578" y1="-475.657" x2="766.365" y2="927.93" xlink:href="#AQ"><stop stop-color="#923dff"/><stop offset="1" stop-color="#2622ff"/></linearGradient><linearGradient id="g" x1="1557.45" y1="-485.532" x2="739.736" y2="928.575" xlink:href="#AQ"><stop stop-color="#923dff"/><stop offset="1" stop-color="#2622ff"/></linearGradient><linearGradient id="h" x1="1527.3" y1="-502.968" x2="709.583" y2="911.138" xlink:href="#AQ"><stop stop-color="#923dff"/><stop offset="1" stop-color="#2622ff"/></linearGradient><linearGradient id="i" x1="1536.85" y1="-574.405" x2="652.736" y2="952.561" xlink:href="#AQ"><stop stop-color="#923dff"/><stop offset="1" stop-color="#2622ff"/></linearGradient><linearGradient id="j" x1="1397.61" y1="120.327" x2="897.223" y2="361.19" xlink:href="#AQ"><stop stop-color="#c4c4c4" stop-opacity="0"/><stop offset=".566" stop-color="#c4c4c4"/><stop offset="1" stop-color="#c4c4c4" stop-opacity="0"/></linearGradient><linearGradient id="k" x1="1931.86" y1="-398.477" x2="547.329" y2="273.657" xlink:href="#AQ"><stop stop-color="#2959a0"/><stop offset=".99" stop-color="#5e1a88"/></linearGradient><linearGradient id="l" x1="1921.88" y1="-418.147" x2="510.935" y2="267.041" xlink:href="#AQ"><stop stop-color="#2959a0"/><stop offset=".99" stop-color="#5e1a88"/></linearGradient><linearGradient id="m" x1="1915.31" y1="-439.375" x2="474.329" y2="260.669" xlink:href="#AQ"><stop stop-color="#2959a0"/><stop offset=".99" stop-color="#5e1a88"/></linearGradient><linearGradient id="n" x1="1912.53" y1="-460.988" x2="438.147" y2="255.567" xlink:href="#AQ"><stop stop-color="#2959a0"/><stop offset=".99" stop-color="#5e1a88"/></linearGradient><linearGradient id="o" x1="1913.92" y1="-481.63" x2="402.912" y2="252.991" xlink:href="#AQ"><stop stop-color="#2959a0"/><stop offset=".99" stop-color="#5e1a88"/></linearGradient><linearGradient id="p" x1="1920.18" y1="-499.539" x2="369.475" y2="254.588" xlink:href="#AQ"><stop stop-color="#2959a0"/><stop offset=".99" stop-color="#5e1a88"/></linearGradient><linearGradient id="q" x1="1932.99" y1="-510.997" x2="339.2" y2="264.129" xlink:href="#AQ"><stop stop-color="#2959a0"/><stop offset=".99" stop-color="#5e1a88"/></linearGradient><linearGradient id="r" x1="1949.87" y1="-518.875" x2="310.406" y2="278.413" xlink:href="#AQ"><stop stop-color="#2959a0"/><stop offset=".99" stop-color="#5e1a88"/></linearGradient><linearGradient id="s" x1="1969.16" y1="-524.269" x2="282.446" y2="294.663" xlink:href="#AQ"><stop stop-color="#2959a0"/><stop offset=".99" stop-color="#5e1a88"/></linearGradient><linearGradient id="t" x1="291.454" y1="0" x2="291.454" y2="706.04" xlink:href="#AQ"><stop stop-color="#c4c4c4" stop-opacity="0"/><stop offset=".38" stop-color="#c4c4c4"/><stop offset=".578" stop-color="#c4c4c4"/><stop offset="1" stop-color="#c4c4c4" stop-opacity="0"/></linearGradient><linearGradient id="u" x1="-191.55" y1="554.684" x2="385.602" y2="-53.085" xlink:href="#AQ"><stop stop-color="#923dff"/><stop offset="1" stop-color="#2622ff"/></linearGradient><linearGradient id="v" x1="-186.458" y1="559.519" x2="390.695" y2="-48.249" xlink:href="#AQ"><stop stop-color="#923dff"/><stop offset="1" stop-color="#2622ff"/></linearGradient><linearGradient id="w" x1="-176.715" y1="567.534" x2="404.763" y2="-44.79" xlink:href="#AQ"><stop stop-color="#923dff"/><stop offset="1" stop-color="#2622ff"/></linearGradient><linearGradient id="x" x1="-162.711" y1="580.833" x2="418.767" y2="-31.491" xlink:href="#AQ"><stop stop-color="#923dff"/><stop offset="1" stop-color="#2622ff"/></linearGradient><linearGradient id="y" x1="-174.877" y1="616.821" x2="453.332" y2="-44.237" xlink:href="#AQ"><stop stop-color="#923dff"/><stop offset="1" stop-color="#2622ff"/></linearGradient><linearGradient id="z" x1="51.639" y1="-303.074" x2="51.639" y2="797.4" xlink:href="#AQ"><stop stop-color="#9a4aff"/><stop offset=".99" stop-color="#4e31ff"/></linearGradient><linearGradient id="AA" x1="56.934" y1="-277.928" x2="56.934" y2="786.571" xlink:href="#AQ"><stop stop-color="#9a4aff"/><stop offset=".99" stop-color="#4e31ff"/></linearGradient><linearGradient id="AB" x1="60.604" y1="-252.749" x2="60.604" y2="775.979" xlink:href="#AQ"><stop stop-color="#bdee60"/><stop offset=".99" stop-color="#005436"/></linearGradient><linearGradient id="AC" x1="62.923" y1="-228.514" x2="62.923" y2="765.635" xlink:href="#AQ"><stop stop-color="#9a4aff"/><stop offset=".99" stop-color="#4e31ff"/></linearGradient><linearGradient id="AD" x1="64.744" y1="-204.711" x2="64.744" y2="755.336" xlink:href="#AQ"><stop stop-color="#9a4aff"/><stop offset=".99" stop-color="#4e31ff"/></linearGradient><linearGradient id="AE" x1="66.074" y1="-182.316" x2="66.074" y2="745.402" xlink:href="#AQ"><stop stop-color="#9a4aff"/><stop offset=".99" stop-color="#4e31ff"/></linearGradient><linearGradient id="AF" x1="67.542" y1="-162.268" x2="67.542" y2="734.666" xlink:href="#AQ"><stop stop-color="#9a4aff"/><stop offset=".99" stop-color="#4e31ff"/></linearGradient><linearGradient id="AG" x1="68.859" y1="-142.691" x2="68.859" y2="724.596" xlink:href="#AQ"><stop stop-color="#9a4aff"/><stop offset=".99" stop-color="#4e31ff"/></linearGradient><linearGradient id="AH" x1="70.393" y1="-123.32" x2="70.393" y2="715.449" xlink:href="#AQ"><stop stop-color="#9a4aff"/><stop offset=".99" stop-color="#4e31ff"/></linearGradient><linearGradient id="AI" x1="71.212" y1="-105.14" x2="71.212" y2="705.304" xlink:href="#AQ"><stop stop-color="#9a4aff"/><stop offset=".99" stop-color="#4e31ff"/></linearGradient><linearGradient id="AJ" x1="72.591" y1="-86.102" x2="72.591" y2="695.586" xlink:href="#AQ"><stop stop-color="#9a4aff"/><stop offset=".99" stop-color="#4e31ff"/></linearGradient><linearGradient id="AK" x1="74.217" y1="-68.103" x2="74.217" y2="685.992" xlink:href="#AQ"><stop stop-color="#9a4aff"/><stop offset=".99" stop-color="#4e31ff"/></linearGradient><path id="AL" d="M1581.51 462.836c-173.28 416.955-567.78 624.174-887.952 439.036-33.58-19.418-65.067-42.237-94.182-67.897 298.492 97.007 695.414-73.921 850.564-447.225 155.14-373.304 13.6-837.35-234.16-1056.42 35.03 11.432 69.61 26.815 103.19 46.232C1639.14-438.295 1754.8 45.88 1581.51 462.836z"/><path id="AM" d="M1508.89 454.928c-173.69 416.98-482.53 713.962-802.494 528.702-33.558-19.43-106.188-176.069-135.276-201.741 298.375 97.105 753.38 9.61 913.27-374.258 200.34-480.971-70.74-835.033-318.26-1054.208-15.7 37.672 101.92-83.469 135.47-64.038 319.97 185.262 380.98 748.564 207.29 1165.543z"/><path id="AN" d="M1569.33 311.556c-10.71 86.752 43.59 29.621 2.02 113.462-19.16 38.635-266 261.634-289.48 294.148-123.85 121.521-274.38 158.729-398.114 96.528-25.153-12.571-47.924-29.326-69.951-48.407 111.492 96.79 349.585-8.898 457.855-132.2C1424.99 460.691 1547.54 249.748 1461-.472c122.75 107.092 30.31 386.709 40.07 332.177l68.26-20.149z"/><path id="AO" d="M-94.499 68.922C37.666-124.728 264.395-178.087 413.096-36.877c15.595 14.81 29.758 31.105 42.398 48.555C309.308-80.491 84.939-46.423-33.39 126.953s-90.793 435.397 16.702 584.255c-17.15-10.841-33.67-23.682-49.266-38.492-148.7-141.21-160.711-410.144-28.546-603.794z"/><path id="AP" d="M-57.647 83.104C74.627-110.537 265.516-222.72 414.133-81.488 429.72-66.675 452.031 25.23 464.661 42.681 318.53-49.507 72.202-67.052-49.568 111.212-202.142 334.569-95.885 557.168 11.523 706.044c11.95-17.494-61.545 29.428-77.132 14.616-148.618-141.233-124.312-443.916 7.962-637.556z"/><linearGradient id="AQ" gradientUnits="userSpaceOnUse"/></defs></svg>