<svg xmlns="http://www.w3.org/2000/svg" xmlns:xlink="http://www.w3.org/1999/xlink" width="574" height="346" fill="none" xmlns:v="https://vecta.io/nano"><style><![CDATA[.B{stroke-miterlimit:10}.C{fill:#fff}.D{stroke-linecap:round}.E{fill:#010002}.F{stroke:#2e4ecc}.G{fill:#2e4ecc}.H{fill:#f6c8a6}.I{stroke:#6fbbef}.J{fill:#161522}.K{fill:#a66957}.L{stroke-width:.75}.M{stroke:#ef8576}.N{stroke:#92cdfe}.O{fill:#92cdfe}.P{fill:#ef8576}.Q{stroke:#161522}.R{fill:#7f4040}.S{stroke:#010002}.T{stroke-linejoin:round}]]></style><path d="M232.869 1.002h31.66c1.892-.046 3.726.66 5.098 1.965a7.15 7.15 0 0 1 2.221 4.993v30.007l-7.44-6.492h-31.539c-1.892.046-3.724-.66-5.095-1.965s-2.168-3.101-2.215-4.993V7.96c.047-1.892.844-3.688 2.215-4.993s3.203-2.012 5.095-1.965z" class="B C N"/><path d="M255.897 16.791a3.19 3.19 0 0 0 .456 1.813c.33.545.816.979 1.395 1.245a3.18 3.18 0 0 0 1.852.248 3.19 3.19 0 0 0 1.673-.834c.462-.439.781-1.007.917-1.629s.082-1.272-.155-1.863-.646-1.099-1.174-1.455a3.19 3.19 0 0 0-1.787-.546c-.822-.019-1.617.289-2.212.855a3.11 3.11 0 0 0-.965 2.166zm-11.048.001a3.19 3.19 0 0 0 .456 1.812 3.18 3.18 0 0 0 1.393 1.245c.578.266 1.223.353 1.851.25s1.211-.393 1.673-.832a3.19 3.19 0 0 0 .767-3.489c-.235-.592-.643-1.099-1.169-1.457s-1.149-.55-1.786-.55a3.1 3.1 0 0 0-2.219.849 3.09 3.09 0 0 0-.699.99 3.11 3.11 0 0 0-.267 1.182zm-11.065 0a3.19 3.19 0 0 0 1.848 3.057c.579.266 1.224.353 1.852.25s1.211-.393 1.673-.832a3.19 3.19 0 0 0 .767-3.489 3.18 3.18 0 0 0-2.955-2.007 3.1 3.1 0 0 0-1.194.203 3.09 3.09 0 0 0-1.025.646c-.296.281-.534.617-.7.99a3.11 3.11 0 0 0-.266 1.182z" class="O"/><g class="K"><path d="M214.649 53.67s-6.042-8.123-5.662-10.541 3.09-1.64 4.497.13 5.99 7.89 6.041 8.4-4.876 2.011-4.876 2.011z"/><path d="M225.956 53.964c-2.59-2.806-4.773-5.05-6.724-4.316-1.557.697-2.958 1.701-4.117 2.952-.3-.233-.635-.416-.993-.544-1.778-.527-3.254.544-3.133 2.685-1.018-.371-2.84.483-2.115 3.021l-.233-.285c-.785-.328-3.055.742-2.054 3.306s4.04 4.532 5.377 4.126a1.79 1.79 0 0 0 .613-.319l14.82 14.926 10.375-10.049s-9.21-12.699-11.816-15.504z"/></g><g class="B"><path d="M237.159 68.044l-6.413-8.175a67.12 67.12 0 0 0-8.148-9.185c-.552-.594-1.287-.987-2.089-1.114a3.7 3.7 0 0 0-1.286.276 9.83 9.83 0 0 0-3.599 2.029 4.32 4.32 0 0 0-1.145 1.705 4.31 4.31 0 0 0-.227 2.041 1.72 1.72 0 0 0 .768 1.225 2.14 2.14 0 0 0 .871.142 2.15 2.15 0 0 0 .855-.22c1.331-.484 2.595-1.133 3.763-1.934m-1.778 1.962a2.02 2.02 0 0 1 .315.778 2.01 2.01 0 0 1-.027.839 2.02 2.02 0 0 1-.364.756 2.03 2.03 0 0 1-.64.544 2.5 2.5 0 0 1-.997.207c-.343 0-.682-.071-.997-.207-.635-.276-1.219-.659-1.726-1.131-1.435-1.214-2.559-2.753-3.28-4.489m5.239 6.328c-.267 1.001-.673 2.124-1.648 2.478a2.18 2.18 0 0 1-.883.084 2.19 2.19 0 0 1-.844-.274 5.19 5.19 0 0 1-1.355-1.139 17.4 17.4 0 0 1-2.883-4.316m4.687 6.231a1.84 1.84 0 0 1-2.002 1.597c-.427-.093-.827-.279-1.174-.544-1.587-1.052-2.853-2.522-3.66-4.247" stroke="#7f4040" class="D L"/><path d="M228.088 94.296l-8.122-11.162 17.84-16.376 8.796 11.81-18.514 15.729z" class="C I"/></g><path d="M305.173 68.043L264.46 91.524l-21.941-21.685-22.959 20.719s23.408 35.394 36.251 43.345c12.662 7.769 30.693.63 41.43-13.977s7.932-51.883 7.932-51.883z" class="E"/><path d="M268.145 95.168l-25.626-25.328-22.959 20.718s23.408 35.394 36.251 43.345c12.662 7.769 30.693.63 41.43-13.977" class="B D F"/><path d="M285.951 295.628l-3.953 21.582 13.767 4.342 5.61-24.085-15.424-1.839z" class="K"/><path d="M249.061 343.972l50.769-.242 1.891-29.653-24.41 1.148-3.236 11.922-25.014 16.825z" class="E"/><path d="M263.432 331.489l2.762 6.043.397.863c.073.123.19.212.328.247a.54.54 0 0 0 .653-.384c.036-.137.015-.284-.057-.406l-2.753-6.043-.397-.864a.55.55 0 0 0-.327-.203c-.13-.026-.265-.003-.38.064s-.2.173-.242.299a.54.54 0 0 0 .016.384zm4.661-2.572l2.762 6.043.389.863a.55.55 0 0 0 .742.198.56.56 0 0 0 .19-.742l-2.753-6.043-.398-.863a.54.54 0 0 0-.326-.204.55.55 0 0 0-.38.064c-.114.067-.2.173-.242.299s-.036.263.016.385z" class="C"/><path d="M362.148 295.628l3.953 21.582-13.767 4.342-5.61-24.085 15.424-1.839z" class="K"/><path d="M399.029 343.972l-50.76-.242-1.891-29.653h24.099l3.547 13.07 25.005 16.825z" class="E"/><path d="M383.734 330.945l-2.762 6.042-.397.864a.55.55 0 0 0 .199.733c.06.036.128.06.197.07s.141.005.209-.012a.53.53 0 0 0 .188-.091.55.55 0 0 0 .14-.156l2.762-6.043.397-.864c.067-.124.083-.27.047-.406a.55.55 0 0 0-.246-.327.54.54 0 0 0-.405-.054c-.137.035-.255.123-.329.244zm-4.66-2.573l-2.762 6.043-.397.863a.56.56 0 0 0-.048.411c.037.138.125.256.246.332.124.069.27.087.407.05s.255-.127.327-.249l2.762-6.043.397-.863c.067-.125.084-.27.047-.407a.55.55 0 0 0-.246-.327c-.121-.074-.268-.089-.405-.054a.54.54 0 0 0-.328.244z" class="C"/><path d="M320.226 190.844l-12.628 138.944-40.54-2.546 23.615-183.843 27.386 3.721 2.167 43.724z" class="G"/><path d="M318.059 147.119l2.167 43.725-12.351 138.961-40.817-2.564" class="B D Q"/><path d="M309.773 177.8h9.158l17.556 149.709 38.711-1.727-24.107-181.589h-42.664" class="G"/><path d="M316.031 177.801h2.9l17.556 149.708 37.995-1.692" class="B D Q"/><path d="M310.421 95.168s-1.865-15.591-1.088-20.114 3.254-9.79 7.207-10.023 13.862.078 15.718 2.59 5.498 6.043 4.186 15.185-6.974 42.586-6.974 42.586l-4.048 9.85h-7.173l-7.828-40.074z" class="C"/><g class="B I"><path d="M321.029 63.002v59.143"/><path d="M314.236 61.552l-4.704 4.506 4.6 11.43 6.905-10.359 6.137 10.359 6.275-11.43-5.179-5.404s-3.409 5.974-14.034.898z" class="C"/></g><path d="M328.167 46.677v-9.772c0-5.611-4.031-10.204-8.96-10.204h-7.414c-4.928 0-8.959 4.593-8.959 10.204v11.49c0 5.611 4.031 10.204 8.959 10.204h2.374v4.8c0 1.163.462 2.279 1.284 3.101s1.938 1.284 3.1 1.284h5.317c1.162-.002 2.275-.465 3.095-1.287s1.281-1.936 1.281-3.098V47.506c.001-.278-.025-.556-.077-.829z" class="K"/><path d="M327.131 42.637s-1.683-9.686-2.132-8.253c-.639 2.037-.57 13.337-2.753 14.33-2.9 1.312-3.971-3.652-9.805-3.85s-9.201 2.676-9.762 5.016 2.434 5.663 4.272 7.2c2.296 1.916 8.968 1.519 8.968 1.519s5.783.354 8.2-3.065c2.554-3.548 3.012-12.897 3.012-12.897zm-9.624-1.976a1.68 1.68 0 0 1-.282.931c-.184.276-.446.49-.752.617a1.67 1.67 0 0 1-1.824-.363c-.235-.234-.394-.533-.459-.858a1.68 1.68 0 0 1 .096-.968 1.67 1.67 0 0 1 .616-.752c.276-.184.599-.282.931-.282.22-.001.438.041.642.125a1.67 1.67 0 0 1 .544.363c.156.156.279.341.363.544a1.66 1.66 0 0 1 .125.642zm-10.936-.25a1.43 1.43 0 0 1-.88 1.331 1.44 1.44 0 0 1-.83.084c-.279-.055-.535-.192-.736-.393a1.43 1.43 0 0 1-.392-.736 1.44 1.44 0 0 1 .615-1.473 1.43 1.43 0 0 1 .799-.238c.378 0 .74.15 1.007.417s.417.629.417 1.007zm8.701-2.72h.595.121.052l.293.052a5.93 5.93 0 0 1 1.096.337.43.43 0 0 0 .527-.302c.029-.111.014-.229-.042-.329a.44.44 0 0 0-.26-.206 6.61 6.61 0 0 0-2.382-.466.44.44 0 0 0-.432.432c-.002.114.046.224.126.305a.43.43 0 0 0 .306.126v.052zm-10.876.311l.397-.216h.112a1.53 1.53 0 0 1 .19-.095 4.17 4.17 0 0 1 .863-.224.45.45 0 0 0 .316-.548.45.45 0 0 0-.549-.315 5.1 5.1 0 0 0-1.778.665.43.43 0 0 0-.127.11.41.41 0 0 0-.074.151c-.015.055-.018.112-.01.168a.42.42 0 0 0 .056.158c.058.098.152.169.262.198a.43.43 0 0 0 .325-.043l.017-.009zm5.179 1.243a30.64 30.64 0 0 0-1.942 3.781c-.014.029-.022.061-.023.093s.005.065.017.095a.24.24 0 0 0 .054.08c.023.023.051.04.081.051l1.942.716c.259.095.38-.319.121-.414l-1.942-.716.13.311c.554-1.305 1.2-2.568 1.933-3.781.147-.233-.224-.458-.371-.216z" class="J"/><path d="M308.79 48.914c1.724-.224 3.395-.75 4.937-1.554 0 0 .319 2.503-1.571 3.065a2.64 2.64 0 0 1-3.366-1.511z" class="C"/><path d="M326.061 44.675l-1.364-8.995s-24.901 3.116-32.971-8.978.414-16.886 4.514-16.204 8.907 6.569 8.907 6.569-3.824-5.18 0-6.043 8.036 3.142 10.237 7.251c0 0 16.399-1.537 21.958 8.4s1.053 16.981-9.098 27.245l-.923-5.741-1.26-3.505z" class="J"/><path d="M337.342 44.865c.01 1.17-.328 2.317-.971 3.295a5.9 5.9 0 0 1-6.056 2.553 5.9 5.9 0 0 1-4.664-4.631c-.232-1.147-.116-2.337.33-3.419a5.91 5.91 0 0 1 2.178-2.657 5.9 5.9 0 0 1 3.287-.995c.772-.003 1.537.145 2.25.438s1.364.723 1.911 1.266.983 1.19 1.28 1.902a5.88 5.88 0 0 1 .455 2.247z" class="K"/><path d="M328.607 45.642v-.38-.181-.095-.052c0-.052.06-.319.095-.483l.077-.25.052-.138s.061-.155 0-.078c.084-.19.185-.372.302-.544l.052-.069.095-.112c.074-.084.155-.162.242-.233 0 0 .129-.104.077-.069l.13-.095.328-.181.147-.06.215-.069a3.39 3.39 0 0 1 .423-.086c.39-.052.785-.052 1.174 0 .086-.013.163-.057.22-.122s.087-.149.087-.236-.031-.17-.087-.236-.134-.109-.22-.122a3.69 3.69 0 0 0-1.765.159 3.7 3.7 0 0 0-1.489.963c-.511.655-.812 1.449-.863 2.279-.013.172-.013.346 0 .518 0 .458.742.458.716 0l-.008-.026z" class="R"/><path d="M331.766 63.866l29.346 17.525.811 42.197 5.403 69.312s-6.369 3.902-17.909 2.504c-3.72-.458-7.63-.864-12.49-2.892-19.929-8.4-16.528-19.519-16.528-19.519l.051-62.959s14.95-34.064 11.316-46.168z" class="E"/><g class="B D F"><path d="M319.881 129.974l.543 47.239s1.934 12.155 21.639 16.816 25.238-1.131 25.238-1.131l-6.042-84.721"/><path d="M359.904 164.747a265.57 265.57 0 0 1-15.666-8.045m-3.755-82.667c5.593 10.506 6.543 15.142 6.543 15.142h-10.617l5.524 12.206-21.509 28.592"/></g><path d="M311.137 63.866L284.26 81.39v41.506l-5.688 70.003s5.178 3.971 15.769 2.59c3.452-.449 7.621-.924 12.084-2.978 18.263-8.4 15.139-19.519 15.139-19.519v-62.959s-13.758-34.064-10.427-46.168z" class="E"/><g class="B F"><path d="M318.353 131.416c-.014.325-.122.638-.312.902a1.66 1.66 0 0 1-1.709.646c-.317-.071-.605-.235-.83-.469a1.66 1.66 0 0 1-.435-.849c-.058-.319-.022-.649.105-.948a1.66 1.66 0 0 1 .611-.733c.27-.179.588-.275.913-.275.445.018.867.207 1.176.529a1.73 1.73 0 0 1 .481 1.197zm0 13.053c-.022.322-.137.631-.332.888a1.66 1.66 0 0 1-1.712.611 1.67 1.67 0 0 1-.819-.478c-.221-.236-.368-.531-.423-.849s-.017-.645.111-.942.34-.549.61-.726.585-.273.908-.274c.453.018.881.214 1.191.545s.478.771.466 1.225zm0 13.053c-.022.322-.137.631-.332.888a1.66 1.66 0 0 1-1.712.611c-.314-.076-.598-.242-.819-.478s-.368-.531-.423-.849-.017-.645.111-.942.34-.549.61-.726.585-.273.908-.274c.453.018.881.214 1.191.545s.478.771.466 1.225z"/><g class="D"><path d="M284.07 120.444c.682 4.153-5.498 72.455-5.498 72.455s5.04 5.792 23.123 1.131 19.851-16.817 19.851-16.817l-.509-68.578"/><path d="M284.993 164.747a233.69 233.69 0 0 0 14.363-8.045m3.823-82.667c-5.127 10.506-5.998 15.142-5.998 15.142h9.736l-5.076 12.206 19.326 27.263"/></g></g><path d="M314.59 121.766s-4.842-4.317-4.161-5.715c1.028-2.115 8.796 3.384 10.565 4.195 3.139 1.787 6.176 3.747 9.097 5.87 2.053 1.313 4.203 2.467 6.431 3.453l-2.236 12.458s-15.657-1.96-23.598-4.196-14.284-5.767-13.879-7.657 2.434-.259 2.434-.259-3.288-2.098-3.012-3.237 3.185-.234 3.185-.234-4.083-2.123-3.642-3.694 5.714.863 5.714.863-4.04-2.521-3.168-3.816 7.889 1.589 12.826 3.566 4.807-.285 3.444-1.597z" class="K"/><path d="M298.19 129.69c2.243 1.323 4.669 2.306 7.199 2.918.405.095.578-.526.172-.621-2.475-.601-4.848-1.564-7.043-2.858a.33.33 0 0 0-.408.138c-.04.068-.054.149-.039.227s.057.147.119.196zm-.379-4.041c2.479 1.29 5.05 2.398 7.69 3.315.388.138.561-.483.173-.621a55.3 55.3 0 0 1-7.535-3.255c-.372-.19-.7.371-.328.561zm2.011-2.736l7.31 2.952c.389.156.561-.466.173-.621l-7.311-2.953c-.388-.164-.552.466-.172.622z" class="R"/><path d="M340.052 147.491l-13.292-3.704 4.298-23.239 13.758 3.134-4.764 23.809z" class="B C I"/><path d="M399.892 128.334c2.909-34.531-65.787-63.019-65.787-63.019l21.578 45.754 7.768 6.207 9.494-.138-38.486.569-6.439 29.213c47.109 23.015 70.759-5.386 71.872-18.586z" class="E"/><g class="B"><path d="M399.892 128.335c-1.113 13.225-24.763 41.627-71.889 18.552l6.439-29.24 38.486-.569m-9.486.138l-7.794-6.207" class="D F"/><path d="M383.26 80.708h31.737c1.899-.046 3.74.663 5.117 1.972s2.178 3.112 2.228 5.012v30.128l-7.466-6.518H383.26a7.17 7.17 0 0 1-7.345-6.983V87.692a7.17 7.17 0 0 1 7.345-6.984z" class="C N"/></g><path d="M398.1 97.974l.35.357.005-.005.005-.005-.36-.347zm4.17-1.025l.166.472.012-.005-.178-.467zm1.863-1.439l-.404-.295-.007.01.411.285zm.154-4.763l-.428.258.007.011.421-.269zm-1.585-1.474l-.241.438.007.003.234-.442zm-4.158-.219l-.181-.466-.006.003.187.464zm-1.573.944l-.32-.384-.006.005.326.38zm-1.394.733l.126.484.008-.002.007-.002-.141-.48zm-1.596-.407l-.304.397.003.002.301-.399zm-.909-1.538l.499-.035-.499.035zm.692-1.629l.35.357.005-.005-.355-.352zm3.006-1.996l.188.463.004-.002-.192-.462zm8.102.472l-.256.43.009.005.247-.435zm3.134 3.018l-.427.26.427-.26zm.565 7.436l.464.188.001-.004-.465-.184zm-1.552 2.331l.35.357-.35-.357zm-2.291 1.541l.199.459.006-.002-.205-.457zm-2.816.79l-.076-.495-.075.012-.068.033.219.45zm-.143.069l-.219-.449-.073.035-.058.057.35.357zm-.67 2.98l.35.357.005-.005.005-.005-.36-.347zm-3.057-.03l-.367.339.005.006.005.005.357-.35zm-.313 6.432l-.369.338.011.012.012.011.346-.361zm.037-3.769l-.35-.357.35.357zm3.626.037l-.368.338.011.012.012.011.345-.361zm-.037 3.768l-.35-.357.35.357zm-3.375-10.735c.005-.496.166-.873.47-1.171l-.7-.714c-.51.5-.763 1.138-.77 1.875l1 .01zm.48-1.181c.306-.318.683-.476 1.17-.472l.01-1a2.51 2.51 0 0 0-1.9.778l.72.694zm1.17-.472c1.02.01 1.958-.13 2.806-.429l-.332-.943c-.722.254-1.541.381-2.464.372l-.01 1zm2.818-.433c.875-.334 1.579-.875 2.096-1.621l-.822-.57c-.397.572-.935.991-1.631 1.257l.357.934zm2.089-1.611c.56-.767.822-1.754.833-2.913l-1-.01c-.01 1.021-.24 1.784-.641 2.334l.808.589zm.833-2.913c.009-.893-.208-1.704-.662-2.413l-.842.539c.339.531.511 1.146.504 1.865l1 .01zm-.654-2.402c-.424-.703-1.022-1.256-1.78-1.658l-.468.884c.609.323 1.068.753 1.391 1.29l.857-.516zm-1.773-1.654c-.742-.407-1.581-.608-2.506-.618l-.01 1c.782.008 1.456.177 2.034.494l.482-.877zm-2.506-.618a5.53 5.53 0 0 0-2.074.371l.362.932a4.53 4.53 0 0 1 1.702-.303l.01-1zm-2.08.373a6.4 6.4 0 0 0-1.706 1.024l.64.768c.438-.365.918-.653 1.441-.865l-.375-.927zm-1.712 1.028c-.322.276-.721.489-1.209.632l.282.96a4.22 4.22 0 0 0 1.578-.833l-.651-.759zm-1.195.629c-.338.089-.715.019-1.168-.322l-.602.798c.629.475 1.316.677 2.023.492l-.253-.967zm-1.165-.32c-.475-.364-.685-.754-.714-1.176l-.998.07c.054.764.45 1.399 1.104 1.9l.608-.794zm-.714-1.176c-.03-.419.123-.825.543-1.236l-.7-.714c-.586.574-.895 1.254-.841 2.02l.998-.07zm.548-1.241a8.4 8.4 0 0 1 2.839-1.885l-.376-.927a9.4 9.4 0 0 0-3.173 2.108l.71.704zm2.843-1.887a8.79 8.79 0 0 1 3.508-.671l.01-1c-1.369-.014-2.671.235-3.902.748l.384.923zm3.508-.671c1.554.016 2.932.389 4.146 1.111l.511-.859c-1.378-.82-2.931-1.235-4.647-1.252l-.01 1zm4.155 1.117c1.248.707 2.23 1.654 2.954 2.843l.854-.52c-.815-1.339-1.923-2.404-3.315-3.193l-.493.87zm2.954 2.843c.717 1.178 1.072 2.511 1.057 4.013l1 .01c.017-1.674-.381-3.193-1.203-4.543l-.854.52zm1.057 4.013c-.011 1.135-.191 2.126-.53 2.979l.93.368c.392-.988.588-2.103.6-3.338l-1-.01zm-.528 2.975c-.339.836-.819 1.555-1.439 2.162l.7.714c.721-.706 1.276-1.541 1.666-2.5l-.927-.376zm-1.439 2.162a7.26 7.26 0 0 1-2.145 1.442l.409.913c.931-.417 1.745-.963 2.436-1.641l-.7-.714zm-2.139 1.44c-.814.352-1.711.604-2.694.754l.151.989c1.059-.161 2.04-.436 2.94-.825l-.397-.918zm-2.837.799l-.143.07.438.899.143-.07-.438-.899zm-.274.162c-.152.149-.186.334-.187.459l1 .01c0 .029-.009.143-.113.245l-.7-.714zm-.187.459l-.013 1.315 1 .01.013-1.315-1-.01zm-.013 1.315a1.69 1.69 0 0 1-.48 1.216l.72.694c.501-.519.753-1.163.76-1.9l-1-.01zm-.47 1.206c-.304.298-.684.451-1.18.446l-.01 1c.737.008 1.38-.232 1.89-.732l-.7-.714zm-1.18.446c-.495-.005-.872-.165-1.17-.469l-.714.7c.499.509 1.138.762 1.874.769l.01-1zm-1.16-.459a1.69 1.69 0 0 1-.456-1.226l-1-.01c-.007.737.232 1.386.722 1.915l.734-.679zm-.456-1.226l.027-2.701-1-.01-.027 2.701 1 .01zm1.375 8.047c-.602-.006-.996-.164-1.254-.411l-.691.723c.494.472 1.163.68 1.935.688l.01-1zm-1.231-.388c-.241-.262-.392-.659-.386-1.261l-1-.01c-.007.772.187 1.445.649 1.948l.737-.677zm-.386-1.261l.006-.605-1-.01-.006.605 1 .01zm.006-.605c.006-.604.165-.977.399-1.207l-.7-.714c-.484.475-.691 1.141-.699 1.911l1 .01zm.399-1.207c.264-.258.657-.415 1.251-.409l.01-1c-.781-.008-1.458.203-1.961.695l.7.714zm1.251-.409l.462.004.01-1-.462-.004-.01 1zm.462.004c.596.006.964.172 1.195.423l.737-.677c-.473-.514-1.143-.738-1.922-.746l-.01 1zm1.218.446c.246.236.404.608.399 1.204l1 .01c.007-.779-.203-1.454-.708-1.937l-.691.723zm.399 1.204l-.007.604 1 .01.007-.604-1-.01zm-.007.604c-.005.594-.171.983-.434 1.242l.7.714c.502-.492.727-1.165.734-1.946l-1-.01zm-.434 1.242c-.234.229-.61.381-1.215.375l-.01 1c.77.007 1.44-.186 1.925-.661l-.7-.714zm-1.215.375l-.462-.005-.01 1 .462.005.01-1z" class="O"/><path d="M414.781 51.02h20.568c1.23-.03 2.422.429 3.314 1.277s1.41 2.016 1.442 3.246v19.519l-4.834-4.221h-20.49c-1.23.03-2.422-.429-3.314-1.278s-1.41-2.016-1.442-3.246V55.543c.032-1.23.55-2.398 1.442-3.246s2.084-1.308 3.314-1.277z" class="B N"/><path d="M418.889 60.896c0 .341-.101.675-.291.959a1.73 1.73 0 0 1-1.772.734 1.73 1.73 0 0 1-1.356-1.356 1.73 1.73 0 0 1 .734-1.772c.284-.19.618-.291.959-.291.458 0 .897.182 1.221.506s.505.763.505 1.221zm5.274 1.743c.963 0 1.744-.781 1.744-1.744s-.781-1.744-1.744-1.744-1.743.781-1.743 1.744.78 1.744 1.743 1.744zm8.752-1.743c0 .341-.101.675-.291.959a1.73 1.73 0 0 1-.775.636 1.72 1.72 0 0 1-.997.098 1.73 1.73 0 0 1-.884-.472c-.241-.242-.406-.549-.472-.884a1.72 1.72 0 0 1 .098-.998 1.73 1.73 0 0 1 .636-.775c.284-.19.617-.291.959-.291.458 0 .897.182 1.221.506a1.73 1.73 0 0 1 .505 1.221z" class="O"/><g class="B F"><path d="M463.573 165.299l43.156.225a8.15 8.15 0 0 1 3.253.686c1.026.45 1.948 1.107 2.708 1.929a8.13 8.13 0 0 1 1.712 2.85c.369 1.058.516 2.18.432 3.297l-6.465 86.526c-.156 2.081-1.104 4.022-2.649 5.424s-3.568 2.158-5.654 2.112l-98.543-2.089a8.15 8.15 0 0 1-3.235-.745c-1.016-.467-1.925-1.139-2.671-1.973s-1.312-1.812-1.663-2.874-.481-2.185-.38-3.299c.185-2.027 1.121-3.911 2.624-5.283a8.15 8.15 0 0 1 5.498-2.133l40.308-.975c4.626 0 12.377-2.78 12.196-7.399l1.182-67.81c-.043-1.1.137-2.198.53-3.227s.99-1.967 1.756-2.758a8.14 8.14 0 0 1 2.698-1.847c1.015-.427 2.106-.643 3.207-.637z" class="C"/><path d="M502.56 174.77l-9.917 73.128m-41.361-.552c.121-.138 28.483 0 28.483 0" class="D"/><path d="M459.888 308.974h7.992v-51.925h-7.992v51.925z" class="C"/></g><g class="G"><path d="M461.424 325.549h4.911c2.045 0 3.703-1.658 3.703-3.703v-36.94c0-2.045-1.658-3.703-3.703-3.703h-4.911c-2.045 0-3.703 1.658-3.703 3.703v36.94c0 2.045 1.658 3.703 3.703 3.703z"/><path d="M432.32 321.837h1.967 59.185 4.652v5.335 6.009h-4.652v-6.009h-59.185v6.009h-4.652v-6.009-5.335h2.685z"/></g><path d="M424.776 336.245c0 1.412.419 2.793 1.203 3.967s1.899 2.089 3.203 2.629a7.13 7.13 0 0 0 4.124.406c1.385-.275 2.657-.955 3.655-1.953s1.678-2.271 1.954-3.656.134-2.82-.406-4.125-1.456-2.419-2.629-3.204a7.14 7.14 0 0 0-3.966-1.203c-1.893 0-3.709.752-5.047 2.091a7.14 7.14 0 0 0-2.091 5.048z" class="B C F"/><use xlink:href="#B" class="G"/><path d="M488.94 336.245c0 1.412.419 2.793 1.203 3.967a7.14 7.14 0 0 0 3.204 2.629c1.304.541 2.739.682 4.124.406s2.657-.955 3.655-1.953a7.14 7.14 0 0 0 1.547-7.781 7.14 7.14 0 0 0-6.595-4.407c-1.893 0-3.708.752-5.047 2.091a7.14 7.14 0 0 0-2.091 5.048z" class="B C F"/><use xlink:href="#B" x="64.13" class="G"/><path d="M356.184 290.422l-4.704 30.396h21.155l2.563-30.396h-19.014z" class="H"/><path d="M317.801 344.23l59.089.596-1.148-29.041-26.222 1.062-3.478 11.024-28.241 16.359z" class="J"/><g class="C"><use xlink:href="#C"/><path d="M339.663 329.529l2.961 5.629.423.794c.319.622 1.251.078.932-.544l-2.969-5.62-.414-.803c-.328-.613-1.261-.069-.933.544z"/></g><path d="M423.516 206.547s-44.96-1.019-57.683 11.783c-8.01 8.046-19.506 81.045-19.506 81.045h42.034l6.862-69.235 42.845-4.463-14.552-19.13z" class="E"/><path d="M346.327 299.375h42.034" class="B D I"/><path d="M389.871 291.441v30.396h21.147l.138-30.396h-21.285z" class="H"/><path d="M356.184 344.23l59.098.596-1.157-29.041-26.222 1.062-3.469 11.024-28.25 16.359z" class="J"/><path d="M387.903 316.848l-3.469 11.024-28.25 16.359" stroke="#fff" class="B D"/><g class="C"><use xlink:href="#C" x="38.383"/><path d="M378.046 329.529l2.961 5.629.423.794c.328.622 1.26.078.932-.544l-2.96-5.62-.423-.803c-.328-.613-1.261-.069-.933.544z"/></g><path d="M475.64 211.459h-35.337c-43.415-3.091-60.643 7.372-60.643 23.628 0 10.989 2.227 69.061 2.227 69.061l38.565-1.139-2.495-52.66s27.827 3.695 45.09-1.26 12.593-37.63 12.593-37.63z" class="E"/><g class="B D I"><path d="M471.195 243.038c-1.893 2.925-4.777 5.071-8.122 6.043-17.263 4.955-45.116 1.2-45.116 1.2m2.495 52.703l-38.539 1.139-2.227-69.061c0-16.256 17.263-26.762 60.643-23.628"/><path d="M417.612 243.038l.898 18.854"/></g><path d="M396.215 128.033c-1.985-3.384-2.969-5.007-4.074-4.489s-1.018 2.65-1.018 2.65c-4.661-5.551-8.096-7.58-8.899-6.397-.104.221-.144.467-.115.71a1.31 1.31 0 0 0 .279.663c-.924-.82-1.933-1.226-2.408-.622-.181.303-.265.654-.24 1.006a1.73 1.73 0 0 0 .378.962c-1.2-1.079-2.52-1.484-2.926-.259-.113.491-.086 1.003.077 1.479a2.69 2.69 0 0 0 .847 1.215c-1.347-.941-2.046-.354-2.193.656-.172 1.191 1.787 3.954 5.956 9.211s11.928 16.273 11.928 16.273l10.66-9.047-8.252-14.011z" class="H"/><g class="B"><path d="M391.036 136.018s-.155-3.212.328-4.386-.863-6.699.303-7.873 2.589.717 3.452 2.348 8.718 14.857 8.718 14.857m-26.36-16.41l5.688 5.55m-3.798-8.114l5.74 6.25m-2.952-7.528l4.885 5.74" class="D M"/><path d="M395.318 156.598l14.215-13.398-4.695-3.781-12.084 11.413 2.564 5.766z" class="C I"/></g><path d="M438.646 163.858L409.3 141.413l-15.303 14.408s2.184 5.439 5.653 12.086c4.584 8.771 11.558 19.329 18.368 22.92 16.045 8.46 31.15 4.092 41.119-.864s-20.491-26.105-20.491-26.105z" class="G"/><path d="M438.646 163.858l-29.346-22.48-15.338 14.443" class="D S T"/><path d="M458.403 132.59c-17.211 2.297-25.73 35.213-25.73 35.213l-11.35 38.727s5.447 10.454 23.356 14.675c21.579 5.085 37.348-2.943 37.348-2.943v-50.571l-14.363-35.101h-9.261z" class="G"/><g class="D S"><path d="M482.208 196.793l-.173 21.469s-10.607 5.577-28.698 4.627-30.495-12.224-32.972-17.852" class="B"/><path d="M427.546 181.685s8.235-25.898 12.662-32.804" class="T"/></g><path d="M516.638 183.256c-14.578-42.542-48.974-50.666-48.974-50.666l-5.411 1.537 9.425 30.465 8.062 15.979h-.812l-35.138-1.027-1.458 22.566s89.195 24.551 74.306-18.854z" class="G"/><path d="M516.638 183.256c14.889 43.405-74.306 18.854-74.306 18.854l1.476-22.618 40.532 1.183m-12.662-16.109l8.061 15.979" class="B D S"/><path d="M452.128 96.134l7.104.112c4.721.078 8.519 4.54 8.432 9.927l-.181 11.016c0 .31 0 .613-.052.915.074.331.109.67.104 1.01l-.104 6.707v.38l-.112 6.708c-.029 1.167-.518 2.275-1.36 3.083s-1.97 1.252-3.137 1.233l-2.813-.043c-1.167-.032-2.273-.521-3.081-1.363a4.44 4.44 0 0 1-1.235-3.135l.095-5.939-4.109-.06c-4.729-.078-8.519-4.541-8.432-9.928l.172-11.015c.044-5.344 3.979-9.686 8.709-9.609z" class="H"/><path d="M471.384 117.423s6.526-4.317 7.544-11.689c0 0 .449-11.283-8.942-15.608-7.063-3.214-15.058-3.73-22.475-1.45-7.052 2.529-10.09 6.638-7.475 12.431 1.942 4.316 12.023 2.218 15.536-.389 0 0 .544 4.524 9.184 5.931l2.77 11.956.121 3.902 3.737-5.084zm-13.844-7.813a1.6 1.6 0 0 1-.285.888c-.181.261-.435.463-.73.579a1.61 1.61 0 0 1-2.17-1.205 1.6 1.6 0 0 1 .107-.926 1.61 1.61 0 0 1 1.498-.967 1.58 1.58 0 0 1 .614.13 1.59 1.59 0 0 1 .517.356c.147.152.262.331.339.528a1.59 1.59 0 0 1 .11.617zm-10.487-.406a1.36 1.36 0 0 1-.244.753c-.154.222-.371.392-.622.491s-.525.12-.789.062a1.36 1.36 0 0 1-.691-.386c-.187-.194-.312-.44-.36-.705a1.37 1.37 0 0 1 .093-.787 1.36 1.36 0 0 1 .513-.602c.227-.146.493-.221.762-.216a1.37 1.37 0 0 1 1.338 1.39z" class="J"/><path d="M448.477 115.783s.768 2.356 2.469 2.546 3.064-1.675 3.176-3.142l-5.645.596z" class="C"/><path d="M462.779 115.385a3.73 3.73 0 0 1-.681 2.055c-.426.603-1.02 1.065-1.708 1.33a3.73 3.73 0 0 1-2.159.157c-.719-.162-1.374-.534-1.882-1.069s-.846-1.208-.972-1.934a3.74 3.74 0 0 1 .267-2.149c.299-.674.792-1.244 1.415-1.638s1.349-.595 2.086-.576c.49.012.973.121 1.42.32a3.74 3.74 0 0 1 1.19.839 3.73 3.73 0 0 1 .777 1.231 3.72 3.72 0 0 1 .247 1.434zm-18.816-2.995c-.223-.006-.446.014-.665.061l-.094 3.867c-.03.563.002 1.128.094 1.684a3.47 3.47 0 0 0 .518.06c.729-.016 1.424-.313 1.94-.828a2.84 2.84 0 0 0 .102-3.916c-.489-.541-1.168-.873-1.895-.928z" class="P"/><g stroke="#eb3341" class="B L"><path d="M462.468 109.092c-.051 3.246-2.295 5.844-5.014 5.801s-4.877-2.711-4.825-5.957 2.296-5.844 5.015-5.801 4.876 2.754 4.824 5.957zm-12.843-.769c-.043 3.048-2.045 5.482-4.471 5.448s-4.315-2.538-4.315-5.586 2.045-5.481 4.471-5.438 4.367 2.538 4.315 5.576z"/><path d="M462.468 109.092l6.336 1.572"/></g><path d="M450.747 106.926a12.11 12.11 0 0 1-2.304 4.635.35.35 0 0 0-.082.139c-.017.052-.022.107-.014.161s.027.105.057.15.07.084.116.112l2.322 1.467c.389.251.742-.362.354-.613l-2.322-1.467.078.552a12.8 12.8 0 0 0 2.477-4.946c.112-.441-.578-.631-.682-.19z" fill="#010001"/><path d="M452.448 109.869c-.494-.29-1.053-.45-1.625-.465a3.39 3.39 0 0 0-1.647.378l.052-.621c.061-.052 1.407-1.226 3.608 0l-.388.708z" fill="#eb3341"/><path d="M444.723 106.856l2.347-.725c.068-.019.132-.051.188-.094a.53.53 0 0 0 .137-.158.54.54 0 0 0 .066-.199c.009-.07.004-.141-.015-.209s-.051-.132-.094-.188-.097-.102-.159-.137a.54.54 0 0 0-.198-.066c-.07-.009-.141-.004-.209.015l-2.348.717a.53.53 0 0 0-.209.083.55.55 0 0 0-.158.16.57.57 0 0 0-.079.211.55.55 0 0 0 .013.225c.02.073.055.141.103.2a.54.54 0 0 0 .175.141c.068.035.142.054.217.059s.152-.008.223-.035zm10.927-.967c1.302.537 2.634 1.001 3.987 1.39a.54.54 0 0 0 .405-.05c.123-.07.213-.185.251-.321a.54.54 0 0 0-.371-.665 40.49 40.49 0 0 1-3.987-1.398c-.139-.037-.286-.018-.411.053a.54.54 0 0 0-.254.326.55.55 0 0 0 .38.665z" class="J"/><path d="M476.494 113.952c-.008 1.122-.35 2.217-.982 3.144s-1.524 1.646-2.565 2.066-2.183.519-3.281.288a5.66 5.66 0 0 1-4.401-4.511 5.67 5.67 0 0 1 2.496-5.788c.942-.609 2.044-.924 3.166-.905a5.65 5.65 0 0 1 2.152.455c.68.292 1.296.715 1.813 1.245s.925 1.156 1.2 1.843a5.64 5.64 0 0 1 .402 2.163z" class="H"/><path d="M468.122 114.522c-.009-.118-.009-.236 0-.354-.004-.057-.004-.115 0-.172-.004-.032-.004-.064 0-.095 0 .129 0 0 0-.044.025-.16.06-.318.103-.474a1.33 1.33 0 0 1 .078-.233c.009-.042.024-.083.043-.121 0-.087 0 0 0 0 0 .086 0 0 0-.052a2.6 2.6 0 0 1 .294-.501c.052-.086 0 0 0-.069l.095-.103c.076-.082.157-.16.241-.234l.13-.086c.105-.066.214-.124.328-.173l.112-.043.199-.06a3.08 3.08 0 0 1 .405-.078c.376-.043.755-.043 1.131 0a.36.36 0 0 0 .362-.362c-.004-.094-.044-.183-.111-.249a.37.37 0 0 0-.251-.105 3.52 3.52 0 0 0-1.729.1c-.559.176-1.065.489-1.473.91a3.94 3.94 0 0 0-.863 2.184 3.11 3.11 0 0 0 0 .492c0 .457.733.457.716 0l.19-.078z" class="P"/><path d="M467.699 128.196l-8.631 3.35-1.554-.932-2.063-1.269-4.315 6.224c.863 1.873 5.308 4.489 5.308 4.489l1.061-3.453a6.78 6.78 0 0 0 .864.38 3.87 3.87 0 0 0 1.009.31h.087a8.71 8.71 0 0 0 1.217.121l.69 2.59s7.863-2.59 10.66-5.931l-4.333-5.879z" class="C"/><g class="B L"><g class="I"><path d="M472.015 134.127l-4.256-5.931-8.709 3.359 2.27 8.503s7.889-2.564 10.695-5.931z"/><path d="M455.434 129.345l3.617 2.21-2.59 8.503s-4.436-2.59-5.334-4.489l4.307-6.224z"/><path d="M457.505 136.535c.431.331.926.567 1.455.692s1.077.137 1.61.034"/></g><path d="M450.54 138.694a16.73 16.73 0 0 0 8.769 3.194c1.955.162 3.922-.083 5.777-.719s3.559-1.649 5.004-2.976" class="D Q"/></g><path d="M200.744 164.515h47.204l-10.962 44.786h-55.585l19.343-44.786z" class="E"/><path d="M202.453 167.26h41.412l-9.615 39.296h-48.766l16.969-39.296z" fill="#5069ff"/><path d="M185.484 206.556h43.346l10.193-37.734H201.78l-16.296 37.734z" class="C"/><path d="M192.259 171.887h42.57l.172-.639h-42.405l-.337.639zm41.758 2.987h-42.975v.63h42.803l.172-.63zm-.975 3.625h-42v.63h41.827l.173-.63zm-.984 3.626h-42.293v.63h42.12l.173-.63zm-.975 3.626h-42.777v.63h42.604l.173-.63zm-52.392 11.499h29.312v-.63h-28.975l-.337.63zm36.234-7.882h-32.013l-.345.639h32.185l.173-.639zm-.975 3.626h-32.98l-.337.63h33.144l.173-.63z" class="J"/><path d="M462.253 209.258l-9.521-40.85h-72.338l10.988 41.584 70.871-.734z" class="E"/><path d="M191.215 267.952l6.413 56.113s-12.679 3.937-15.536.043-12.403-55.059-12.403-55.059l21.526-1.097z" class="H"/><path d="M169.697 269.092l12.119 58.582" class="B M"/><path d="M182.662 342.996l-4.843-29.446 19.99-.475.907 9.79s15.475 18.992 10.909 20.779c-7.431 2.9-16.399-6.086-16.399-6.086l-.578 5.999-9.986-.561z" class="E"/><path d="M197.809 313.04l-19.99.51 5.041 30.007" class="B D I"/><path d="M208.719 267.952l6.413 56.113s-12.688 3.937-15.536.043-12.395-55.059-12.395-55.059l21.518-1.097z" class="H"/><path d="M187.201 269.092l12.11 58.582" class="B M"/><path d="M200.157 342.996l-4.842-29.446 20.016-.475.863 9.755s21.353 19.596 16.796 21.323c-7.431 2.901-22.277-6.665-22.277-6.665l-.578 6-9.978-.492z" class="E"/><path d="M215.305 313.04l-19.99.51 5.04 30.007" class="B D I"/><path d="M144.503 217.787s30.442-2.926 46.747 3.125c17.668 6.552 23.563 67.957 23.563 67.957l-62.913-.535-25.359-63.969 17.962-6.578z" class="E"/><g class="C"><g class="B"><g class="F"><path d="M83.998 217.08h-9.063v126.961h9.063V217.08zm431.708 0h-9.063v126.961h9.063V217.08z"/><path d="M537.198 209.698H53.444v9.686h483.755v-9.686z"/></g><path d="M194.918 78.187h-28.639c-1.713-.044-3.373.594-4.617 1.774s-1.966 2.805-2.011 4.519v27.185l6.732-5.879h28.535c1.713.044 3.374-.594 4.617-1.774s1.966-2.806 2.012-4.519V84.48a6.47 6.47 0 0 0-2.012-4.519c-1.243-1.18-2.904-1.818-4.617-1.774z" class="N"/></g><path d="M179.11 95.559c.006-.556.192-1.014.559-1.374.368-.381.83-.569 1.386-.564.876.009 1.669-.112 2.377-.361.709-.271 1.269-.704 1.682-1.299.433-.594.655-1.384.665-2.367.007-.727-.168-1.371-.526-1.93-.337-.559-.814-1.003-1.431-1.33-.595-.327-1.278-.494-2.048-.502-.599-.006-1.166.095-1.703.304a5.32 5.32 0 0 0-1.42.852c-.346.296-.765.516-1.258.661-.472.124-.952.001-1.44-.367-.51-.39-.783-.853-.821-1.388s.171-1.025.625-1.47a8.02 8.02 0 0 1 2.713-1.802c1.052-.439 2.166-.652 3.343-.64 1.475.015 2.798.37 3.967 1.066a7.68 7.68 0 0 1 2.828 2.723c.695 1.141 1.035 2.427 1.021 3.86-.011 1.069-.181 2.019-.51 2.85a6.15 6.15 0 0 1-1.401 2.103c-.583.572-1.272 1.035-2.067 1.391-.773.334-1.621.572-2.542.712l-.129.063c-.021.021-.032.053-.033.096l-.012 1.187c-.005.556-.192 1.025-.559 1.406-.367.36-.829.537-1.385.532s-1.014-.192-1.374-.559c-.36-.389-.537-.861-.531-1.417l.024-2.438zm1.663 10.155c-.62-.006-1.1-.171-1.438-.496-.318-.345-.473-.828-.467-1.448l.005-.545c.006-.621.172-1.089.496-1.407.345-.339.828-.505 1.448-.499l.417.004c.621.007 1.089.182 1.407.528.339.324.505.796.499 1.416l-.006.546c-.006.62-.182 1.099-.527 1.438-.324.318-.796.473-1.417.467l-.417-.004z"/></g><path d="M179.669 94.185l.35.357.006-.005.004-.005-.36-.347zm3.763-.925l.167.472.012-.005-.179-.467zm1.682-1.299l-.404-.295-.007.01.411.285zm.139-4.298l-.429.258.008.012.421-.269zm-1.431-1.33l-.24.439.006.003.234-.442zm-3.751-.198l-.181-.466-.007.003.188.464zm-1.42.852l-.321-.384-.005.005.326.38zm-1.258.661l.126.484.007-.002.007-.002-.14-.48zm-1.44-.367l-.304.397.002.002.302-.399zm-.821-1.388l.499-.035h0l-.499.035zm.625-1.47l.35.357.004-.005-.354-.352zm2.713-1.802l.187.463.005-.002-.192-.462zm7.31.426l-.256.43.01.005.246-.435zm2.828 2.723l-.427.26.427-.26zm.511 6.711l.463.188.002-.004-.465-.184zm-1.401 2.103l.35.357-.35-.357zm-2.067 1.391l.199.459.005-.003-.204-.456zm-2.542.712l-.075-.494-.075.011-.069.033.219.45zm-.129.063l-.219-.45-.073.036-.058.057.35.357zm-.604 2.689l.35.357.005-.005.005-.005-.36-.347zm-2.759-.028l-.367.34.005.005.005.005.357-.35zm-.282 5.804l-.369.339.011.012.012.011.346-.362zm.034-3.4l-.351-.357.351.357zm3.272.033l-.369.338.011.012.012.011.346-.361zm-.034 3.4l-.35-.357.35.357zm-2.997-9.687c.005-.435.145-.763.409-1.022l-.7-.714c-.47.461-.702 1.049-.709 1.726l1 .01zm.419-1.032c.267-.277.594-.415 1.021-.411l.01-1c-.686-.007-1.283.231-1.751.717l.72.694zm1.021-.411c.925.009 1.777-.118 2.549-.39l-.333-.943c-.645.227-1.378.341-2.206.333l-.01 1zm2.561-.394c.798-.305 1.441-.799 1.914-1.481l-.822-.57c-.352.508-.83.88-1.449 1.117l.357.934zm1.907-1.471c.512-.703.751-1.604.761-2.657l-1-.01c-.009.914-.215 1.592-.569 2.078l.808.589zm.761-2.657c.008-.815-.19-1.555-.605-2.205l-.842.539c.3.47.453 1.016.447 1.656l1 .01zm-.598-2.193c-.386-.643-.933-1.147-1.624-1.514l-.469.884a3.08 3.08 0 0 1 1.236 1.146l.857-.516zm-1.618-1.51c-.677-.371-1.443-.555-2.284-.563l-.01 1c.699.007 1.299.158 1.813.44l.481-.877zm-2.284-.563a5.03 5.03 0 0 0-1.889.338l.362.932a4.03 4.03 0 0 1 1.517-.27l.01-1zm-1.896.34c-.564.228-1.082.539-1.552.931l.64.769a4.83 4.83 0 0 1 1.287-.773l-.375-.927zm-1.558.936c-.285.244-.639.433-1.073.561l.281.96c.553-.162 1.037-.414 1.443-.761l-.651-.759zm-1.059.557c-.287.075-.612.019-1.012-.283l-.603.798c.577.435 1.212.624 1.868.452l-.253-.967zm-1.009-.281c-.42-.322-.6-.662-.626-1.026l-.997.07c.049.706.416 1.291 1.015 1.75l.608-.794zm-.626-1.026c-.025-.362.105-.715.476-1.078l-.7-.714c-.537.526-.823 1.153-.773 1.862l.997-.07zm.48-1.082c.73-.735 1.578-1.298 2.546-1.69l-.375-.927a8.53 8.53 0 0 0-2.88 1.913l.709.705zm2.551-1.692a7.88 7.88 0 0 1 3.146-.602l.01-1c-1.242-.012-2.424.213-3.541.679l.385.923zm3.146-.602c1.395.014 2.629.349 3.717.996l.511-.859c-1.252-.745-2.662-1.121-4.218-1.137l-.01 1zm3.726 1.001c1.119.634 1.998 1.482 2.647 2.548l.855-.52c-.74-1.215-1.746-2.182-3.009-2.898l-.493.87zm2.647 2.548c.643 1.055.961 2.248.948 3.595l1 .01c.015-1.519-.347-2.899-1.093-4.125l-.855.52zm.948 3.595c-.011 1.02-.172 1.907-.475 2.671l.93.368c.355-.898.533-1.91.545-3.029l-1-.01zm-.473 2.667c-.304.748-.733 1.391-1.288 1.935l.7.714c.656-.642 1.16-1.401 1.514-2.272l-.926-.377zm-1.288 1.935c-.538.528-1.177.959-1.921 1.292l.408.913a7.5 7.5 0 0 0 2.213-1.49l-.7-.714zm-1.915 1.289c-.731.316-1.536.542-2.419.677l.151.989a10.79 10.79 0 0 0 2.665-.748l-.397-.918zm-2.563.722l-.129.063.439.899.128-.063-.438-.899zm-.26.155c-.149.147-.181.328-.183.448l1 .01a.37.37 0 0 1-.117.256l-.7-.714zm-.183.448l-.012 1.187 1 .01.012-1.187-1-.01zm-.012 1.187c-.004.436-.145.78-.419 1.064l.72.694c.461-.478.693-1.071.699-1.748l-1-.01zm-.409 1.054c-.264.259-.595.393-1.03.389l-.01 1c.677.007 1.27-.213 1.74-.674l-.7-.714zm-1.03.389c-.435-.004-.763-.145-1.022-.409l-.714.7c.461.47 1.049.703 1.726.709l.01-1zm-1.012-.399c-.268-.29-.402-.637-.398-1.072l-1-.01c-.007.677.213 1.274.664 1.762l.734-.679zm-.398-1.072l.024-2.438-1-.01-.024 2.438 1 .01zm1.192 7.212c-.535-.005-.877-.146-1.098-.357l-.691.723c.457.437 1.074.627 1.779.634l.01-1zm-1.075-.334c-.207-.225-.341-.57-.335-1.105l-1-.01c-.007.705.17 1.326.598 1.792l.737-.677zm-.335-1.105l.005-.545-1-.01-.005.545 1 .01zm.005-.545c.006-.538.147-.86.346-1.055l-.701-.714c-.449.44-.638 1.056-.645 1.759l1 .01zm.346-1.055c.226-.222.567-.361 1.093-.356l.01-1c-.713-.007-1.338.186-1.804.642l.701.714zm1.093-.356l.417.004.01-1-.417-.004-.01 1zm.417.004c.529.006.847.152 1.043.366l.737-.677c-.438-.477-1.058-.682-1.77-.689l-.01 1zm1.066.389c.21.201.35.522.345 1.05l1 .01c.007-.711-.186-1.335-.654-1.783l-.691.723zm.345 1.05l-.006.546 1 .01.006-.546-1-.01zm-.006.546c-.005.526-.151.864-.377 1.086l.7.714c.465-.456.67-1.077.677-1.79l-1-.01zm-.377 1.086c-.199.195-.524.33-1.062.324l-.01 1c.703.007 1.323-.169 1.772-.61l-.7-.714zm-1.062.324l-.417-.004-.01 1 .417.004.01-1z" class="O"/><path d="M192.648 162.296l12.368-13.364s5.015-12.819 7.898-11.801c1.83.656-.786 10.118-.786 10.118l11.739-4.092s7.078-6.423 8.415-6.285c2.806.294-.241 8.538-2.934 12.086-2.374 3.125-14.837 8.305-14.837 8.305l-10.893 15.401-10.97-10.368z" class="H"/><path d="M233.284 137.814l-6.301 8.926m5.705-4.429l-2.986 4.238" class="B D L M"/><path d="M136.847 115.68l5.265 5.015-2.995 2.901-2.27-7.916z" class="H L M T"/><path d="M116.728 129.353l.241.864c-.011.336.021.673.095 1.001l-.336-1.873 13.24 7.001v-.061l3.953-.863c4.54-1.001 7.319-6.043 6.18-11.222l-2.348-10.593c-1.148-5.18-5.8-8.581-10.357-7.579l-6.836 1.519c-4.54 1.001-7.319 6.043-6.172 11.223l2.34 10.583z" class="C"/><path d="M140.084 124.183l-2.348-10.593c-1.148-5.179-5.8-8.581-10.357-7.579l-6.836 1.519c-4.54 1.002-7.32 6.043-6.172 11.223l2.339 10.592a8.36 8.36 0 0 0 .242.863 3.97 3.97 0 0 0 .095 1.002l.69.319.432 14.287h13.983l-.656-9.884 2.39-.535c4.558-1.019 7.337-6.043 6.198-11.214z" class="H"/><path d="M130.952 120.453a1.55 1.55 0 0 0 1.038 1.378c.29.102.603.115.901.038a1.55 1.55 0 0 0 .77-.468 1.56 1.56 0 0 0 .38-.818c.043-.304-.005-.614-.137-.891a1.55 1.55 0 0 0-1.485-.879 1.54 1.54 0 0 0-1.074.515 1.58 1.58 0 0 0-.309.524c-.067.193-.096.397-.084.601zm8.855 8.745l-.086.052-.103.052h-.061a3.01 3.01 0 0 1-.863.198c-.538.015-1.072-.083-1.57-.287a3.87 3.87 0 0 1-1.321-.895c-.303-.277-.76.172-.458.457.428.443.942.794 1.511 1.031a4.51 4.51 0 0 0 1.795.35 3.19 3.19 0 0 0 1.502-.449c.345-.224 0-.785-.328-.552l-.018.043zm-10.512-10.446a16.14 16.14 0 0 1 2.201-2.141.33.33 0 0 0 .093-.229c0-.085-.034-.167-.093-.229-.064-.055-.145-.086-.229-.086a.35.35 0 0 0-.229.086 16.14 16.14 0 0 0-2.201 2.141c-.06.061-.095.143-.095.229s.035.168.095.229a.32.32 0 0 0 .229.095c.086 0 .168-.034.229-.095z" class="J"/><path d="M131.832 126.608a3.83 3.83 0 0 1-.646 2.129c-.421.63-1.019 1.122-1.719 1.412s-1.471.366-2.215.218-1.426-.513-1.962-1.049-.901-1.219-1.049-1.963a3.83 3.83 0 0 1 .218-2.214c.29-.7.782-1.299 1.412-1.72a3.83 3.83 0 0 1 2.129-.646c1.016 0 1.991.404 2.71 1.122s1.122 1.694 1.122 2.711z" class="P"/><path d="M117.34 125.227l1.14-3.677c4.293-.949 8.291-2.928 11.65-5.766a27.14 27.14 0 0 0 7.632-10.524c2.209-5.266-1.528-10.291-7.596-10.36-7.681-.06-14.526 4.316-14.526 4.316s-17.789 8.158-12.084 26.166c0 0 3.047 10.531 14.673 10.989m-13.019-32.796a12.64 12.64 0 0 0-9.396-15.204 12.64 12.64 0 0 0-15.201 9.397 12.64 12.64 0 0 0 9.396 15.204 12.64 12.64 0 0 0 15.201-9.397z" class="R"/><path d="M110.176 128.076c.123 1.019.546 1.978 1.214 2.756a5.18 5.18 0 0 0 2.541 1.615 5.19 5.19 0 0 0 3.01-.072 5.18 5.18 0 0 0 2.461-1.734c.631-.809 1.007-1.787 1.081-2.811s-.157-2.045-.665-2.936a5.17 5.17 0 0 0-2.185-2.071 5.18 5.18 0 0 0-6.399 1.449 5.18 5.18 0 0 0-1.058 3.804z" class="H"/><path d="M118.54 127.731c-.016-.654-.225-1.288-.602-1.823s-.902-.946-1.512-1.181c-.676-.182-1.388-.182-2.063 0-.449.103-.259.794.19.69.282-.07.572-.111.863-.121a2.87 2.87 0 0 1 .371 0 1.82 1.82 0 0 1 .311.052c.183.039.358.109.517.207.082.046.16.098.233.156h.044l.112.103a1.82 1.82 0 0 1 .172.19l.052.061.078.112c.086.138.164.293.242.44v.104l.077.216c.037.118.066.239.087.362a1.12 1.12 0 0 1 0 .164v.069c0-.077 0 .069 0 0v.112c.004.094.044.183.111.249a.37.37 0 0 0 .251.105c.093-.002.182-.04.248-.106a.36.36 0 0 0 .106-.248l.112.087z" class="P"/><g class="E"><path d="M111.195 149.218l6.767-8.029 17.176.578 6.24 6.984s-11.652.467-30.183.467z"/><path d="M149.06 197.638c16.097 9.177 31.073 14.089 36.657 10.515 11.177-7.131 28.854-44.217 28.854-44.217l-18.125-11.093-20.603 20.269s-21.19-19.855-31.867-24.171c-4.626-1.882-30.209-1.002-30.209-1.002s-2.52.769-3.703 1.295c-14.198 6.233-17.547 27.375-22.173 56.847l-.112 3.263 61.558.544-.276-12.25z"/></g><g class="B"><g class="D I"><path d="M214.571 163.936l-18.125-11.093-20.603 20.269s-21.19-19.855-31.867-24.171c-4.626-1.882-28.129-1.062-28.129-1.062"/><path d="M175.377 172.655l4.73 4.774m12.541-20.813l19.316 12.586"/></g><path d="M147.109 308.698h7.993v-51.926h-7.993v51.926z" class="C F"/></g><g class="G"><path d="M148.654 325.282h4.912c2.045 0 3.702-1.658 3.702-3.704v-36.939c0-2.045-1.657-3.704-3.702-3.704h-4.912c-2.045 0-3.702 1.659-3.702 3.704v36.939c0 2.046 1.657 3.704 3.702 3.704z"/><path d="M119.55 321.57h1.968 59.184 4.652v5.335 6.008h-4.652v-6.008h-59.184v6.008h-4.661v-6.008-5.335h2.693z"/></g><path d="M112.006 335.978a7.14 7.14 0 0 0 1.203 3.966c.785 1.174 1.899 2.089 3.204 2.63s2.739.681 4.124.406 2.656-.956 3.655-1.954a7.14 7.14 0 0 0 1.547-7.78 7.13 7.13 0 0 0-2.629-3.204c-1.174-.785-2.554-1.203-3.966-1.203-1.893 0-3.708.752-5.047 2.091s-2.091 3.154-2.091 5.048z" class="B C F"/><path d="M116.408 335.978a2.74 2.74 0 0 0 1.689 2.528c.5.207 1.05.262 1.581.156a2.74 2.74 0 0 0 2.15-2.15 2.74 2.74 0 0 0-.156-1.581 2.73 2.73 0 0 0-1.008-1.228c-.45-.301-.979-.462-1.52-.462a2.73 2.73 0 0 0-1.047.209c-.332.137-.633.339-.887.593a2.73 2.73 0 0 0-.802 1.935z" class="G"/><path d="M176.136 335.978a7.14 7.14 0 0 0 1.203 3.966c.785 1.174 1.899 2.089 3.204 2.63s2.739.681 4.124.406a7.15 7.15 0 0 0 3.655-1.954 7.14 7.14 0 0 0 1.547-7.78 7.13 7.13 0 0 0-2.629-3.204c-1.174-.785-2.554-1.203-3.966-1.203-1.893 0-3.708.752-5.047 2.091s-2.091 3.154-2.091 5.048z" class="B C F"/><path d="M180.538 335.978a2.74 2.74 0 0 0 1.689 2.528c.5.207 1.05.262 1.581.156a2.74 2.74 0 0 0 2.15-2.15 2.74 2.74 0 0 0-.156-1.581 2.73 2.73 0 0 0-1.008-1.228c-.45-.301-.979-.462-1.52-.462a2.73 2.73 0 0 0-1.047.209c-.332.137-.633.339-.887.593a2.75 2.75 0 0 0-.594.888c-.137.332-.208.688-.208 1.047z" class="G"/><g class="B F"><path d="M225.041 263.083H87.589a5.4 5.4 0 0 1-3.676-1.455c-.998-.932-1.605-2.207-1.701-3.569l-6.042-87.096c-.051-.738.05-1.478.298-2.175s.635-1.335 1.139-1.876a5.39 5.39 0 0 1 1.792-1.267c.678-.295 1.409-.448 2.148-.449h72.502c1.28.001 2.518.457 3.493 1.287a5.39 5.39 0 0 1 1.824 3.246l12.679 78.039c.205 1.263.852 2.411 1.827 3.24s2.211 1.284 3.49 1.284h47.739c1.134.001 2.239.359 3.158 1.024a5.39 5.39 0 0 1 1.96 2.679 5.38 5.38 0 0 1 .207 2.531c-.133.848-.467 1.652-.973 2.345a5.39 5.39 0 0 1-1.939 1.64c-.767.385-1.615.581-2.473.572z" class="C"/><path d="M82.513 185.388h62.352m-62.352 19.873h65.9m-61.877 19.881h65.899m-65.899 19.873h65.899m-2.84-75.649l12.679 84.118" class="D"/></g><path d="M1.458 345.577h547.901 22.217.966a1.08 1.08 0 0 0 1.079-1.079c0-.286-.113-.561-.316-.763s-.476-.316-.763-.316H24.641c-7.406 0-14.811-.104-22.217 0h-.967c-.286 0-.561.113-.763.316a1.08 1.08 0 0 0-.316.763 1.08 1.08 0 0 0 1.079 1.079z" class="J"/><defs ><path id="B" d="M429.178 336.246c0 .541.16 1.07.461 1.52a2.74 2.74 0 0 0 2.809 1.164 2.75 2.75 0 0 0 1.401-.749 2.74 2.74 0 0 0 .748-1.402c.106-.53.052-1.081-.155-1.581a2.74 2.74 0 0 0-1.008-1.228c-.45-.301-.979-.461-1.52-.461-.726 0-1.422.288-1.935.801a2.74 2.74 0 0 0-.801 1.936z"/><path id="C" d="M334.657 331.912l2.961 5.619.423.803c.328.613 1.26.069.932-.544l-2.961-5.628-.423-.794c-.328-.613-1.26-.069-.932.544z"/></defs></svg>