<svg xmlns="http://www.w3.org/2000/svg" xmlns:xlink="http://www.w3.org/1999/xlink" width="1065" height="133" fill="none" xmlns:v="https://vecta.io/nano"><style><![CDATA[.B{fill-rule:evenodd}]]></style><mask id="A" maskUnits="userSpaceOnUse" x="0" y="-65" width="1065" height="262"><path d="M0-47c0-9.941 8.059-18 18-18h1029c9.94 0 18 8.059 18 18v226c0 9.941-8.06 18-18 18H18c-9.941 0-18-8.059-18-18V-47z" fill="#fff"/></mask><g mask="url(#A)" class="B"><g style="mix-blend-mode:color-dodge"><path d="M-74.047 4.786c0 .069.056.125.125.125H1170.73a.12.12 0 0 0 .12-.125h0a.12.12 0 0 0-.12-.125H-73.922c-.069 0-.125.056-.125.125h0zM-96.51 24.59c0 .069.056.125.125.125H1201.44c.07 0 .13-.056.13-.125h0c0-.069-.06-.125-.13-.125H-96.386c-.069 0-.125.056-.125.125h0zm-24.467 21.579c0 .069.055.125.124.125H1234.9a.12.12 0 0 0 .12-.125h0a.12.12 0 0 0-.12-.125H-120.853c-.069 0-.124.056-.124.125h0zm-26.754 23.587c0 .069.055.125.124.125H1271.48c.07 0 .13-.056.13-.125h0c0-.069-.06-.125-.13-.125H-147.607c-.069 0-.124.056-.124.125h0zm-29.378 25.902c0 .069.056.125.125.125H1311.65c.07 0 .13-.056.13-.125h0c0-.069-.06-.125-.13-.125H-176.984c-.069 0-.125.056-.125.125h0zm-32.406 28.571c0 .069.056.125.124.125H1355.96a.12.12 0 0 0 .12-.125h0a.12.12 0 0 0-.12-.125H-209.391c-.068 0-.124.056-.124.125h0z" fill="#fff" fill-opacity=".28"/></g><g style="mix-blend-mode:color-dodge"><path d="M1486.28 275.639c.21-.034.27-.305.1-.428L1013.45-60.497c-.05-.036-.11-.051-.17-.041h0c-.21.034-.27.305-.1.428l472.93 335.709a.23.23 0 0 0 .17.041h0z" fill="url(#B)"/><path d="M1339.34 275.633c.22-.031.3-.308.13-.449L933.765-60.475c-.055-.046-.127-.066-.197-.056h0c-.22.03-.299.307-.128.449l405.7 335.66c.06.045.13.065.2.056h0z" fill="url(#C)"/><path d="M1192.4 275.626c.23-.027.32-.307.16-.469L854.075-60.447c-.059-.059-.142-.088-.225-.078h0c-.229.027-.326.306-.162.469l338.482 335.604a.29.29 0 0 0 .23.078h0z" fill="url(#D)"/><path d="M1045.47 275.618c.24-.022.36-.299.21-.484L774.379-60.409a.3.3 0 0 0-.26-.109h0c-.237.022-.354.299-.204.484l271.295 335.543c.07.077.16.118.26.109h0z" fill="url(#E)"/><path d="M898.55 275.612c.241-.017.379-.283.253-.49L694.681-60.358a.32.32 0 0 0-.298-.154h0c-.241.017-.378.283-.253.489l204.122 335.479c.063.103.177.163.298.155h0z" fill="url(#F)"/><path d="M751.64 275.605c.238-.011.394-.255.304-.476L614.971-60.292c-.055-.136-.19-.221-.336-.215h0c-.239.011-.394.255-.304.476l136.973 335.421c.055.135.19.221.336.214h0z" fill="url(#G)"/><path d="M604.748 275.602c.227-.006.393-.215.347-.437L535.239-60.213c-.036-.172-.189-.293-.364-.289h0c-.227.005-.393.215-.347.437l69.856 335.378c.036.171.189.293.364.289h0zm-146.89-.002a.37.37 0 0 0 .369-.372L455.47-60.133a.37.37 0 0 0-.37-.367h0a.37.37 0 0 0-.369.373l2.757 335.361a.37.37 0 0 0 .37.366h0zm-146.884.002c.177.004.332-.121.365-.296L375.68-60.069c.043-.221-.124-.427-.349-.432h0c-.177-.004-.332.121-.365.295l-64.342 335.375c-.042.222.124.428.35.433h0zm-146.898.003c.149.007.285-.082.339-.22L295.877-60.032c.087-.222-.07-.463-.308-.474h0a.35.35 0 0 0-.339.22L163.769 275.132c-.087.221.07.463.307.473h0zm-146.902.006c.122.009.239-.053.301-.158L216.078-60.022c.123-.208-.016-.473-.257-.489h0c-.122-.008-.239.053-.301.158L16.917 275.122c-.123.208.016.473.257.489h0zm-146.922.007a.3.3 0 0 0 .263-.113L136.292-60.032a.3.3 0 0 0-.208-.485h0a.3.3 0 0 0-.263.113l-265.777 335.538a.3.3 0 0 0 .208.485h0z" fill="#fff" fill-opacity=".11"/><path d="M-276.68 275.625c.084.009.168-.02.228-.081L56.516-60.055c.163-.164.065-.444-.165-.47h0c-.084-.01-.168.02-.228.08l-332.968 335.599c-.163.165-.065.444.165.471h0z" fill="#fff" fill-opacity=".16"/></g></g><defs><radialGradient id="B" cx="0" cy="0" r="1" gradientTransform="translate(1051.73 -17.0426) rotate(33.1639) scale(500.132 681.151)" xlink:href="#H"><stop stop-color="#9d9d9d" stop-opacity=".37"/><stop offset="1" stop-color="#9d9d9d" stop-opacity="0"/></radialGradient><radialGradient id="C" cx="0" cy="0" r="1" gradientTransform="translate(966.48 -17.0375) rotate(37.2862) scale(451.603 647.367)" xlink:href="#H"><stop stop-color="#9d9d9d" stop-opacity=".37"/><stop offset="1" stop-color="#9d9d9d" stop-opacity="0"/></radialGradient><radialGradient id="D" cx="0" cy="0" r="1" gradientTransform="translate(881.235 -17.0324) rotate(42.3674) scale(405.959 601.141)" xlink:href="#H"><stop stop-color="#9d9d9d" stop-opacity=".37"/><stop offset="1" stop-color="#9d9d9d" stop-opacity="0"/></radialGradient><radialGradient id="E" cx="0" cy="0" r="1" gradientTransform="translate(795.986 -17.0275) rotate(48.6699) scale(364.296 537.294)" xlink:href="#H"><stop stop-color="#9d9d9d" stop-opacity=".37"/><stop offset="1" stop-color="#9d9d9d" stop-opacity="0"/></radialGradient><radialGradient id="F" cx="0" cy="0" r="1" gradientTransform="translate(710.743 -17.0217) rotate(56.4774) scale(328.121 449.299)" xlink:href="#H"><stop stop-color="#9d9d9d" stop-opacity=".37"/><stop offset="1" stop-color="#9d9d9d" stop-opacity="0"/></radialGradient><radialGradient id="G" cx="0" cy="0" r="1" gradientTransform="translate(625.501 -17.016) rotate(65.9907) scale(299.438 331.008)" xlink:href="#H"><stop stop-color="#9d9d9d" stop-opacity=".37"/><stop offset="1" stop-color="#9d9d9d" stop-opacity="0"/></radialGradient><linearGradient id="H" gradientUnits="userSpaceOnUse"/></defs></svg>