<svg xmlns="http://www.w3.org/2000/svg" width="32" height="29" fill="none" xmlns:v="https://vecta.io/nano"><mask id="A" maskUnits="userSpaceOnUse" x="0" y="0" width="32" height="29"><g stroke="#fff" stroke-width="2" stroke-linejoin="round"><path d="M1 27.52v-16.5h4.5v16.5H1z" fill="#555"/><path d="M5.5 11.02l9.268-8.475c1.275-1.085 2.715-.629 2.715 2.084s-3.947 4.324-3.947 6.391c-.003.013 5.068.014 15.212.002a2.25 2.25 0 0 1 1.593.658 2.25 2.25 0 0 1 .66 1.592v.002c0 .296-.058.589-.171.862s-.279.522-.488.731-.458.375-.731.489-.567.172-.862.172h-5.26l-1.498 9.749c-.141.785-.889 2.244-3.04 2.244H5.5v-16.5z"/></g></mask><g mask="url(#A)"><path d="M34-3.23H-2v36h36v-36z" fill="url(#B)"/></g><defs><linearGradient id="B" x1="49.517" y1="-20.516" x2="-30.673" y2="63.924" gradientUnits="userSpaceOnUse"><stop stop-color="#ffeba3"/><stop offset=".389" stop-color="#322ef4"/><stop offset="1" stop-color="#5768ff"/></linearGradient></defs></svg>