<svg xmlns="http://www.w3.org/2000/svg" width="210" height="189" fill="none" xmlns:v="https://vecta.io/nano"><mask id="A" maskUnits="userSpaceOnUse" x="0" y="0" width="210" height="189" mask-type="alpha"><path d="M210 109.695c0 54.218-47.367 78.964-101.585 78.964S0 173.73 0 119.512 54.196 0 108.415 0 210 55.477 210 109.695z" fill="#d9d9d9"/></mask><g mask="url(#A)"><path d="M202.744 132.744c0 54.218-40.111 55.914-94.329 55.914S0 173.73 0 119.512 60.599 16.646 114.817 16.646s87.927 61.879 87.927 116.098z" fill="#fff3eb"/><path d="M138.677 96.777c-.038 0-8.22 1.526-13.994 1.571l.393 5.24-46.733-5.684-3.218-.386L55.17 95.09s9.81-20.174 39.568-22.768c.18 0 10.023 1.114 15.069.335 13.248-2.06 22.716 5.536 24.995 1.03 2.923-5.793-9.224-11.509-9.224-11.509l4.377-8.523s16.286 3.431 22.562 13.132c4.332 6.617 8.69 23.566-13.84 29.99z" fill="#469bd2"/><path d="M99.193 39.327s-8.207-1.287-6.701 12.539c1.069 9.733 4.731 11.921 4.731 11.921l.998-8.233 1.365-5.536 2.749-7.66-3.141-3.032z" fill="#302824"/><path d="M109.711 74.086l-1.037-9.656-10.421-9.115-3.457 17.341s11.484 10.299 14.915 1.429z" fill="#eda38f"/><path d="M109.415 71.196c-6.656-.154-8.652-6.437-8.652-6.437l8.111 1.493.541 4.944z" fill="#302824"/><path d="M119.437 51.557c-1.931 8.046-3.811 19.517-11.986 17.515-8.934-2.195-10.054-11.162-9.655-17.715.212-3.289 3.044-8.561 10.788-7.905 9.688.837 11.645 4.886 10.853 8.104z" fill="#eda38f"/><path d="M99.624 54.628a2.29 2.29 0 0 0-.734-2.17 2.29 2.29 0 0 0-2.246-.45 2.49 2.49 0 0 0-1.287 1.204c-1.384 2.575.367 5.15 3.598 5.15l.669-3.733z" fill="#eda38f"/><path d="M99.193 39.326c8.812-9.849 22.87-.83 22.658 6.714-.135 4.77-2.71 6.913-2.71 6.913.875-2.774-1.082-3.862-1.082-3.862-2.922 7.081-14.991 3.425-14.991 3.425-.983 1.094-1.552 2.496-1.61 3.965-2.767-.927-1.982-3.09-3.579-3.965a1.93 1.93 0 0 0-2.575.721c-.644 1.32 3.888-13.91 3.888-13.91z" fill="#302824"/><path d="M109.215 54.698c1.596.202 3.216-.02 4.699-.644a8.33 8.33 0 0 0 2.711-1.998c.758-.843 1.336-1.833 1.698-2.907l-.534-.154c-.346.995-.887 1.911-1.593 2.694s-1.56 1.416-2.514 1.864c-2.735 1.204-6.263.766-10.498-1.287l-.239.496a18.67 18.67 0 0 0 6.27 1.938z" fill="#302824"/><path d="M128.056 270.306s9.263-48.967 8.426-66.739c-.811-17.193-12.61-71.187-12.61-71.187l-39.594-1.139 18.667 79.568-3.321 58.576 28.432.921z" fill="#ffb269"/><path d="M103.872 264.847l.535 4.699-4.777-.148 3.322-58.596-4.564-19.44 5.156-6.398 4.603 22.684-4.275 57.199z" fill="#9b6c49"/><path d="M116.276 138.231l-2.162 7.873-.49 1.77-33.247 120.945-29.597-.947L74.301 152.36l1.313-6.424 1.925-9.462 38.738 1.757z" fill="#ffb269"/><path d="M79.734 121.218c0-.148 1.403-14.393 9.417-24.667l-.586-.502c-8.162 10.46-9.572 24.944-9.585 25.105l.753.064z" fill="#fff"/><path d="M123.872 132.38l-2.15 10.73-.251.181c-2.481 1.753-5.111 3.287-7.86 4.583-19.658 9.327-38.782 3.572-38.782 3.572l-.521.914 1.287-6.437c-1.474-.418-2.942-.869-4.403-1.371l.283-3.379 1.062-12.72 51.335 3.927z" fill="#9b6c49"/><path d="M127.818 139.898c-2.044 1.252-4.159 2.385-6.334 3.393a59.16 59.16 0 0 1-7.37 2.813c-12.598 3.862-25.858 3.373-38.5-.168-1.474-.418-2.942-.869-4.403-1.371l.283-3.379 1.062-12.72 1.584-18.905 1.004-12.037 1.609-17.953 18.024-7.235c10.106 7.686 15.075.335 15.075.335l14.509 21.493 3.457 45.734z" fill="#469bd2"/><path d="M78.124 107.437l-5.697 33.923-.933-.168 2.646-31.625 3.985-2.13z" fill="#3f90be"/><path d="M71.423 144.16c.515.643 2.092 2.658 2.839 2.954s4.628 1.288 4.345 2.079-2.864-.392-2.987.322c-.077.438 4.918 2.961 4.197 3.779-.476.534-3.296-1.403-3.437-1.037s3.862 2.009 3.173 2.839-4.165-2.401-4.467-1.982c-.148.206 4.326 2.941 3.766 3.604-.747.889-3.952-2.343-4.326-1.963-.187.18 1.152 1.12 1.873 1.777.399.367.174.746-.187.643-3.701-.94-7.441-6.437-7.995-6.784-.824-.502-2.015-.985-2.787-1.5l5.993-4.731zm58.12-89.584l-3.064 5.993a7.87 7.87 0 0 0-2.433-1.326c-.74-.077-4.802 0-4.738-.843s2.858-.393 2.794-1.107c-.052-.444-5.536-1.538-5.053-2.523.309-.644 3.54.476 3.585.084s-4.235-.914-3.817-1.886 4.661 1.204 4.828.715c.09-.238-4.95-1.686-4.583-2.472.489-1.049 4.428 1.204 4.692.74.129-.225-1.403-.772-2.278-1.21-.49-.251-.367-.676 0-.682 3.823-.084 8.896 4.223 9.52 4.409.174.019.354.071.547.109z" fill="#eda38f"/><path d="M74.99 145.537s-16.582-24.866 2.929-38.377l12.185-30.769v-.212c-12.964-.502-27.196 6.92-35.107 17.798-13.292 18.158-10.602 46.05 11.735 59.864l8.259-8.304z" fill="#469bd2"/><path d="M124.805 92.825s16.209 3.798 28.484-5.439l-.103.309c-2.536 3.676-7.08 6.958-14.502 9.083-.039 0-8.22 1.526-13.988 1.571l.109-5.523z" fill="#3f90be"/><path d="M124.706 89.654l-.655.045 3.45 50.219.655-.045-3.45-50.219zM80.699 268.909l-.637-.18 27.615-100.965.63.18-27.608 100.965zm22.948-190.368c-5.059 0-9.746-4.242-9.958-4.435l.431-.476c.058.051 5.356 4.847 10.505 4.21 2.292-.283 4.236-1.603 5.794-3.933l.54.361c-1.654 2.491-3.752 3.907-6.243 4.21-.355.045-.712.066-1.069.064zm-21.892 6.765c-.837-6.476-5.472-7.576-5.671-7.621l.142-.644c.052 0 5.272 1.223 6.167 8.162l-.637.103zM49.55 123.007c-.879-4.696-.72-9.528.464-14.156a32.79 32.79 0 0 1 6.392-12.641l.496.406a32.13 32.13 0 0 0-6.263 12.372 32.12 32.12 0 0 0-.464 13.859l-.624.16zm24.854-12.384l-.528-.367c.167-.238 4.145-5.794 9.926-6.251l.052.644c-5.484.418-9.411 5.922-9.449 5.974zm21.223 33.73a66.73 66.73 0 0 1-11.664-.927l.122-.644c.212.045 21.139 4.036 38.577-5.008l.296.573c-9.327 4.86-19.652 6.006-27.332 6.006zm38.486-67.994a8.5 8.5 0 0 1-4.222-.901l.341-.547s2.813 1.654 8.072.18l.174.644a16.04 16.04 0 0 1-4.365.624zm-30.55 61.814v-.643c.116 0 11.587-.747 18.185-8.22l.483.424c-6.836 7.686-18.545 8.433-18.668 8.439z" fill="#302824"/><g opacity=".53"><path d="M169.453 105.911a2.96 2.96 0 0 1-2.735-1.82 2.96 2.96 0 0 1 .637-3.222c.413-.413.939-.696 1.512-.81s1.168-.056 1.708.167a2.95 2.95 0 0 1 1.327 1.088c.325.486.499 1.058.499 1.642-.002.782-.313 1.532-.865 2.085s-1.302.866-2.083.87zm0-5.259a2.31 2.31 0 0 0-2.141 1.423 2.32 2.32 0 0 0-.133 1.337 2.31 2.31 0 0 0 .633 1.185c.324.323.736.544 1.185.633s.914.042 1.336-.134a2.3 2.3 0 0 0 1.037-.853 2.31 2.31 0 0 0 .387-1.287c0-.302-.06-.602-.175-.882a2.31 2.31 0 0 0-.5-.747c-.214-.214-.468-.384-.748-.5s-.579-.175-.881-.175z" fill="#b18444"/></g></g></svg>