<svg xmlns="http://www.w3.org/2000/svg" xmlns:xlink="http://www.w3.org/1999/xlink" width="421" height="402" fill="none" xmlns:v="https://vecta.io/nano"><g style="mix-blend-mode:multiply" opacity=".45"><path d="M242.517 396.591L72.781 343.188a104.16 104.16 0 0 1-38.201-21.752c-11.036-9.883-19.83-22.004-25.792-35.553S-.168 257.671.007 242.875s3.516-29.385 9.798-42.789L72.072 67.029a103.92 103.92 0 0 1 26.601-34.933c11.258-9.622 24.444-16.734 38.678-20.861s29.186-5.173 43.858-3.068 28.723 7.311 41.215 15.272l150.013 95.55c21.28 13.561 36.898 34.376 43.947 58.571a103.73 103.73 0 0 1-5.626 72.956l-42.563 90.958a104.02 104.02 0 0 1-52.448 51.157 104.32 104.32 0 0 1-73.23 3.961z" fill="#d0eff4"/></g><path d="M180.753 51.048H64.343c-2.487 0-4.503 2.016-4.503 4.503v101.227c0 2.487 2.016 4.503 4.503 4.503h116.41c2.487 0 4.503-2.016 4.503-4.503V55.551c0-2.487-2.016-4.503-4.503-4.503z" fill="url(#A)"/><path style="mix-blend-mode:multiply" opacity=".6" d="M143.083 60.702H69.968v7.315h73.115v-7.315z" fill="url(#B)"/><path style="mix-blend-mode:multiply" opacity=".6" d="M117.02 72.502H69.968v7.315h47.052v-7.315z" fill="url(#C)"/><g opacity=".35"><path d="M172.886 151.172H72.219c-.048.002-.096-.007-.14-.024a.36.36 0 0 1-.12-.078c-.034-.033-.062-.073-.08-.117a.36.36 0 0 1-.028-.14.37.37 0 0 1 .108-.26c.069-.069.163-.108.26-.108h100.667a.37.37 0 0 1 .368.368c0 .048-.01.096-.029.14s-.045.084-.08.117a.36.36 0 0 1-.119.078c-.045.017-.093.026-.14.024z" fill="url(#D)"/><path d="M172.886 133.17H72.219c-.098 0-.191-.039-.26-.108a.37.37 0 0 1-.108-.26.36.36 0 0 1 .028-.14c.019-.044.046-.084.08-.117a.36.36 0 0 1 .12-.078c.045-.017.092-.026.14-.025h100.667c.047-.001.095.008.14.025a.36.36 0 0 1 .119.078c.035.033.062.073.08.117s.029.092.029.14a.37.37 0 0 1-.368.368z" fill="url(#E)"/><path d="M172.886 115.158H72.219c-.048.001-.096-.007-.14-.025s-.085-.044-.12-.077-.062-.074-.08-.118-.028-.091-.028-.139a.37.37 0 0 1 .108-.261c.069-.069.163-.107.26-.107h100.667c.097 0 .191.038.26.107a.37.37 0 0 1 .108.261.35.35 0 0 1-.029.139c-.018.044-.045.084-.08.118s-.075.059-.119.077-.093.026-.14.025z" fill="url(#F)"/><path d="M172.886 97.154H72.219c-.098 0-.191-.039-.26-.108s-.108-.163-.108-.26a.36.36 0 0 1 .108-.257.36.36 0 0 1 .26-.102h100.667a.36.36 0 0 1 .14.025.35.35 0 0 1 .119.077c.035.034.062.074.081.118a.37.37 0 0 1-.08.4.37.37 0 0 1-.26.108z" fill="url(#G)"/></g><path d="M75.592 150.812l12.37-15.217 4.687 3.557 8.629-12.746 5.387 4.879 7.736-7.875 6.746 6.377 12.369-19.685 9.567 11.249 5.247-13.877 7.499 2.252 13.5-17.066v57.916l-93.737.236z" fill="url(#H)"/><path d="M381.307 159.117H275.13c-2.831 0-5.125 2.295-5.125 5.125v160.335c0 2.83 2.294 5.125 5.125 5.125h106.177c2.831 0 5.125-2.295 5.125-5.125V164.242c0-2.83-2.294-5.125-5.125-5.125z" fill="url(#I)"/><path d="M365.863 170.883h-82.034v8.489h82.034v-8.489z" fill="url(#J)"/><path d="M335.464 184.688h-51.635v5.66h51.635v-5.66z" fill="url(#K)"/><path d="M328.219 192.319h-44.39v5.66h44.39v-5.66z" fill="url(#L)"/><path d="M304.416 226.205a5.47 5.47 0 0 0-5.467-5.467 5.47 5.47 0 0 0-5.466 5.467v60.272a5.47 5.47 0 0 0 5.466 5.467 5.47 5.47 0 0 0 5.467-5.467v-60.272z" fill="url(#M)"/><path d="M304.416 253.284a5.47 5.47 0 0 0-5.467-5.467 5.47 5.47 0 0 0-5.466 5.467v33.194c0 3.019 2.447 5.466 5.466 5.466a5.47 5.47 0 0 0 5.467-5.466v-33.194z" fill="url(#N)"/><path d="M328.236 291.944a5.47 5.47 0 0 1-5.467-5.467v-60.272a5.47 5.47 0 0 1 5.467-5.467 5.47 5.47 0 0 1 2.094.414c.665.274 1.268.677 1.777 1.184s.912 1.111 1.187 1.775a5.47 5.47 0 0 1 .417 2.094v60.272a5.47 5.47 0 0 1-.417 2.094c-.275.664-.679 1.267-1.187 1.775s-1.112.91-1.777 1.184a5.47 5.47 0 0 1-2.094.414z" fill="url(#O)"/><path d="M328.236 291.945a5.47 5.47 0 0 1-5.467-5.467v-44.092c0-1.449.576-2.84 1.601-3.865a5.47 5.47 0 0 1 3.866-1.601c.718-.001 1.43.139 2.094.414s1.268.676 1.777 1.184a5.48 5.48 0 0 1 1.187 1.774c.275.664.417 1.376.417 2.094v44.066a5.49 5.49 0 0 1-.409 2.102 5.46 5.46 0 0 1-1.186 1.783c-.509.511-1.114.916-1.78 1.192a5.48 5.48 0 0 1-2.1.416z" fill="url(#P)"/><path d="M357.478 291.944c-.719.001-1.43-.14-2.095-.414a5.47 5.47 0 0 1-1.776-1.184c-.509-.508-.912-1.111-1.187-1.775a5.45 5.45 0 0 1-.417-2.094v-60.272a5.45 5.45 0 0 1 .417-2.094c.275-.664.678-1.267 1.187-1.775a5.47 5.47 0 0 1 1.776-1.184c.665-.274 1.376-.415 2.095-.414 1.45 0 2.84.576 3.865 1.601s1.602 2.416 1.602 3.866v60.272c0 1.45-.576 2.84-1.602 3.866s-2.415 1.601-3.865 1.601z" fill="url(#Q)"/><path d="M357.478 291.944c-.719.002-1.43-.139-2.095-.413s-1.268-.677-1.776-1.185a5.44 5.44 0 0 1-1.187-1.774c-.276-.664-.417-1.376-.417-2.094v-29.786a5.48 5.48 0 0 1 5.475-5.475 5.47 5.47 0 0 1 3.866 1.607c1.025 1.026 1.601 2.417 1.601 3.868v29.786a5.46 5.46 0 0 1-1.602 3.865c-1.025 1.025-2.415 1.601-3.865 1.601z" fill="url(#R)"/><path d="M306.02 301.817h-14.131v9.76h14.131v-9.76z" fill="url(#S)"/><path d="M335.279 301.817h-14.13v9.76h14.13v-9.76z" fill="url(#T)"/><path d="M364.54 301.817h-14.131v9.76h14.131v-9.76z" fill="url(#U)"/><path d="M384.329 0H231.756a4.81 4.81 0 0 0-4.81 4.81v131.346a4.81 4.81 0 0 0 4.81 4.809h152.573a4.81 4.81 0 0 0 4.81-4.809V4.81a4.81 4.81 0 0 0-4.81-4.81z" fill="url(#V)"/><path d="M384.303 0H231.756a4.81 4.81 0 0 0-4.81 4.81v8.813h162.193V4.81c0-.634-.126-1.261-.369-1.847a4.81 4.81 0 0 0-1.049-1.564c-.45-.447-.983-.801-1.57-1.041s-1.214-.362-1.848-.359z" fill="url(#W)"/><path d="M382.849 6.991c0 .71-.211 1.405-.605 1.996s-.956 1.051-1.612 1.323-1.379.343-2.076.204a3.6 3.6 0 0 1-1.839-.983c-.502-.502-.844-1.142-.983-1.839s-.067-1.419.205-2.075a3.59 3.59 0 0 1 3.318-2.217 3.59 3.59 0 0 1 3.592 3.592z" fill="url(#X)"/><path d="M372.039 6.991a3.59 3.59 0 0 1-2.22 3.319 3.59 3.59 0 0 1-3.915-.783c-.502-.503-.843-1.144-.981-1.841a3.6 3.6 0 0 1 .208-2.076 3.59 3.59 0 0 1 3.325-2.211 3.59 3.59 0 0 1 3.583 3.592z" fill="url(#Y)"/><path d="M361.167 6.991c0 .71-.211 1.405-.605 1.996s-.956 1.051-1.612 1.323-1.379.343-2.076.204a3.6 3.6 0 0 1-1.839-.983c-.502-.502-.844-1.142-.983-1.839s-.067-1.419.205-2.075.732-1.217 1.323-1.612a3.59 3.59 0 0 1 1.995-.605 3.6 3.6 0 0 1 3.592 3.592z" fill="url(#Z)"/><path d="M295.153 54.468c3.099-14.833-6.414-29.37-21.247-32.469s-29.371 6.414-32.469 21.247 6.413 29.37 21.247 32.469 29.37-6.414 32.469-21.247z" fill="url(#a)"/><path d="M287.062 28.84c-3.989-3.738-9.003-6.198-14.399-7.066a27.43 27.43 0 0 0-27.834 12.897 27.44 27.44 0 0 0-3.918 15.553l27.403-1.367 18.748-20.018z" fill="url(#b)"/><path d="M248.901 68.262a27.32 27.32 0 0 0 11.389 6.833l8.024-26.238-27.403 1.367c.324 6.798 3.173 13.23 7.99 18.038z" fill="url(#c)"/><path d="M317.408 39.965c2.018 0 3.653-1.636 3.653-3.653s-1.635-3.653-3.653-3.653-3.653 1.636-3.653 3.653 1.636 3.653 3.653 3.653z" fill="url(#d)"/><path d="M367.509 34.359h-39.51v3.907h39.51v-3.907z" fill="url(#e)"/><path d="M321.061 50.926c0 .722-.214 1.429-.615 2.03s-.972 1.069-1.64 1.345a3.65 3.65 0 0 1-2.11.208c-.709-.141-1.36-.489-1.871-1s-.859-1.162-1-1.87-.068-1.443.208-2.111.745-1.238 1.346-1.639a3.65 3.65 0 0 1 2.029-.616c.968.002 1.896.388 2.581 1.072s1.07 1.612 1.072 2.581z" fill="url(#f)"/><path d="M357.61 48.98h-29.611v3.907h29.611V48.98z" fill="url(#g)"/><path d="M317.408 69.2c2.018 0 3.653-1.635 3.653-3.653s-1.635-3.653-3.653-3.653-3.653 1.636-3.653 3.653 1.636 3.653 3.653 3.653z" fill="url(#h)"/><path d="M372.012 63.593h-44.013V67.5h44.013v-3.907z" fill="url(#i)"/><path d="M252.931 91.275h-8.218v38.45h8.218v-38.45z" fill="url(#j)"/><path d="M266.089 104.592h-8.217v25.134h8.217v-25.134z" fill="url(#k)"/><path d="M279.247 91.275h-8.217v38.45h8.217v-38.45z" fill="url(#l)"/><path d="M292.414 104.592h-8.217v25.134h8.217v-25.134z" fill="url(#m)"/><path d="M305.572 91.275h-8.217v38.45h8.217v-38.45z" fill="url(#n)"/><path d="M318.74 104.592h-8.218v25.134h8.218v-25.134z" fill="url(#o)"/><path d="M331.898 91.275h-8.218v38.45h8.218v-38.45z" fill="url(#p)"/><path d="M345.056 104.592h-8.217v25.134h8.217v-25.134z" fill="url(#q)"/><path d="M358.223 91.275h-8.217v38.45h8.217v-38.45z" fill="url(#r)"/><path d="M371.381 104.592h-8.217v25.134h8.217v-25.134z" fill="url(#s)"/><path d="M165.728 368.108l-2.777 15.752h93.685l-1.349-15.752h-89.559z" fill="url(#t)"/><path d="M186.5 222.876s-8.831 4.932-10.749 11.967-2.979 29.207-3.198 31.774-17.056 41.175-17.056 41.175l17.275 1.279 8.314-14.893 5.414-71.302z" fill="url(#u)"/><path d="M206.964 213.064s-16.417 5.336-20.465 9.812-16.207 43.067-16.645 48.402 4.477 33.29 5.117 40.088-10.434 57.171-10.434 57.171 50.741 7.674 66.737 6.185a100.4 100.4 0 0 0 27.079-6.185l-8.524-65.704c0-4.502 11.941-70.364 10.232-78.897 0 0-14.288-5.755-21.752-7.245s-31.345-3.627-31.345-3.627z" fill="url(#v)"/><path style="mix-blend-mode:multiply" d="M203.127 328.423l-1.042 44.872h.07l2.015-44.872c-.219-3.408-4.056-42.856-3.417-45.204s6.746-13.675 6.746-13.675l.324-3.627-8.104 16.426 3.408 46.08z" fill="url(#w)"/><path d="M206.009 220.529s-3.837 32.835 1.49 49.059c0 0 16.741-35.287 22.777-44.775l-24.267-4.284z" fill="url(#x)"/><path d="M215.707 224.365c-4.126 10.022-7.534 35.323-8.602 43.908.122.438.254.876.394 1.297l.201-.421c4.293-36.557 8.971-45.318 8.971-45.318l-.964.534z" fill="url(#y)"/><path style="mix-blend-mode:multiply" opacity=".45" d="M174.979 311.367c.333 3.566-2.531 19.002-5.344 32.931 5.143.298 13.316.683 19.423.543 9.636-.21 39.229-3.837 46.483-6.824 5.09-2.077 12.974-6.851 17.354-9.558l-.254-1.892-42.269.788 17.696-8.103 21.823-15.226c-.053-.543-.071-.955-.071-1.192 0-2.076 2.567-17.363 5.152-34.008l-.876-.315-6.396 17.477s-14.892 7.683-19.185 7.464-20.044-5.116-20.044-5.116l-8.761-5.327s-11.94 1.06-15.996-1.279-13.851-10.433-13.851-10.433c-.429 5.308 4.477 33.29 5.116 40.07z" fill="url(#z)"/><path d="M223.11 136.331c2.215-2.483 5.064-4.315 8.242-5.301a18.32 18.32 0 0 1 9.795-.297c11.608 2.558 14.017 19.186 12.265 29.908s-4.363 21.297-2.269 28.779 2.558 21.218-2.085 25.326c0 0 1.446-10.048-4.476-12.483S220 175.009 219.018 157.987s4.092-21.656 4.092-21.656z" fill="url(#AA)"/><path style="mix-blend-mode:multiply" opacity=".45" d="M245.694 150.401c-6.027-11.073-17.162-15.051-20.569-16.041a13.79 13.79 0 0 0-2.042 1.971s-5.054 4.635-4.073 21.656c.876 14.429 14.376 34.456 22.085 41.7 1.2-1.918 2.523-4.441 3.96-7.385 3.197-6.552 7.84-28.717.639-41.901z" fill="url(#AB)"/><path d="M192.597 180.037s3.837 16.96 1.174 28.148c0 0 5.44-10.443 1.813-27.394l-2.987-.754z" fill="url(#AC)"/><path d="M236.101 198.163s10.154-15.226 10.338-26.221-11.73-3.206-11.73-3.206-4.582 13.868-3.408 16.312 4.8 13.115 4.8 13.115z" fill="url(#AD)"/><path d="M207.341 214.054c.415-1.787.665-3.608.745-5.441.105-2.882 24.415-8.953 24.415-8.953s-.876 10.443-.429 13.01-15.348 13.14-16.741 13.14-7.99-11.756-7.99-11.756z" fill="url(#AE)"/><path d="M191.642 172.95s2.558 11.039 3.04 16.313.954 10.241 2.873 12.956 15.673 11.836 17.591 12.265 3.198.166 5.116-1.113 12.475-10.556 14.394-13.438 2.085-11.993 1.918-16.645-3.031-24.95-15.83-31.985-27.026 6.553-28.787 10.557-.64 8.532-.315 11.09z" fill="url(#AF)"/><path d="M220.149 185.758c.175 1.638-.342 3.031-1.148 3.119s-1.594-1.183-1.752-2.821.35-3.04 1.156-3.119 1.577 1.174 1.744 2.821z" fill="url(#AG)"/><path d="M204.712 186.932c.342 1.612 0 3.057-.814 3.224s-1.752-.999-2.05-2.628 0-3.058.806-3.224 1.673 1.016 2.058 2.628z" fill="url(#AH)"/><path d="M214.086 184.347c-.06.001-.12-.016-.171-.049s-.092-.079-.118-.135a.32.32 0 0 1-.005-.238c.03-.076.088-.139.163-.173 2.562-1.017 5.363-1.275 8.068-.745l.517-.561c.056-.06.134-.096.216-.099s.162.026.222.082.097.133.1.215a.31.31 0 0 1-.082.223l-.64.692c-.037.04-.084.069-.137.084a.3.3 0 0 1-.16.004c-2.638-.55-5.379-.315-7.885.674l-.088.026z" fill="url(#AI)"/><path d="M199.106 185.626c-.059.004-.117-.012-.166-.043l-.798-.482c-.035-.02-.066-.047-.091-.079s-.042-.069-.052-.109-.011-.08-.005-.12.021-.079.043-.113a.32.32 0 0 1 .193-.14c.081-.02.166-.007.237.035l.648.394a11.5 11.5 0 0 1 6.877-.806c.04.009.077.025.111.048s.061.053.083.087.037.073.045.113.006.081-.003.12-.025.078-.048.111-.052.062-.087.084-.072.037-.112.044-.081.006-.121-.002a11.04 11.04 0 0 0-6.614.823c-.043.024-.091.036-.14.035z" fill="url(#AJ)"/><path d="M220.201 177.558a21.19 21.19 0 0 0-4.021.088 18.58 18.58 0 0 0-1.971.368 12.75 12.75 0 0 0-1.875.621c-.04.019-.085.03-.129.031a.34.34 0 0 1-.131-.023.33.33 0 0 1-.112-.072.35.35 0 0 1-.075-.111.33.33 0 0 1-.031-.128c-.002-.044.005-.089.02-.13s.04-.08.07-.112.067-.059.108-.076c.647-.28 1.319-.5 2.006-.658a18.01 18.01 0 0 1 2.05-.359c1.376-.159 2.764-.182 4.144-.07.083.009.159.049.213.113s.081.146.076.229c-.003.041-.015.082-.034.119s-.045.07-.077.097-.068.047-.108.059-.081.018-.123.014z" fill="url(#AK)"/><path d="M197.406 178.329c1.423-.305 2.873-.466 4.328-.482a18.05 18.05 0 0 1 2.181.105 11.97 11.97 0 0 1 2.173.412c.045.012.087.033.124.062a.34.34 0 0 1 .091.105c.023.041.037.086.043.132s.001.094-.013.139a.37.37 0 0 1-.064.125c-.03.037-.067.068-.108.091s-.087.037-.134.042-.095.001-.141-.013c-.662-.187-1.339-.318-2.023-.394a18.93 18.93 0 0 0-2.103-.114 21.11 21.11 0 0 0-4.187.429.32.32 0 0 1-.127.006.32.32 0 0 1-.119-.046c-.036-.023-.067-.053-.091-.088a.31.31 0 0 1-.049-.117c-.012-.04-.016-.082-.011-.124s.017-.082.038-.119.048-.069.081-.095.071-.045.111-.056z" fill="url(#AL)"/><path d="M197.827 163.839s-5.011-13.009-.534-21.323 15.988-9.812 25.476-7.359 22.602 13.43 23.776 24.95-1.174 19.273-4.381 21.104-13.964-.42-20.893-2.023-16.943-5.222-23.444-15.349z" fill="url(#AM)"/><path d="M197.293 143.9s-6.72 2.769-10.557 8.419-3.302 10.881-2.242 15.568 4.38 10.933 8.927 13.465c0 0 .35-6.641 1.524-9.838s4.801-8.104 4.801-8.104l-2.453-19.51z" fill="url(#AN)"/><path d="M196.119 163.62s1.919 14.288 24.529 17.065c0 0-16.644-4.59-21.752-17.521l-2.777.456z" fill="url(#AO)"/><path d="M236.145 181.807s2.409-2.138 4.214-.456.307 10.636-3.732 13.141l-.482-12.685z" fill="url(#AP)"/><path d="M231.301 179.933s6.29 10.127 1.489 29.111c0 0 7.254-9.917 3.198-27.937l-4.687-1.174z" fill="url(#AQ)"/><path d="M218.528 203.201c-1.122 1.171-2.637 1.886-4.254 2.008a6.57 6.57 0 0 1-4.506-1.351c-.43-.316-.877.403-.421.709 1.44 1.078 3.223 1.592 5.016 1.447s3.47-.94 4.717-2.235c.049-.078.071-.17.062-.261s-.048-.178-.112-.244-.147-.11-.238-.123-.184.004-.264.05z" fill="url(#AR)"/><path d="M212.65 199.118a24.66 24.66 0 0 1-4.652-1.463 26.82 26.82 0 0 0 2.058-8.857c0-.534-.788-.534-.823 0-.17 3.073-.888 6.09-2.12 8.91a.42.42 0 0 0-.055.153c-.007.054-.004.11.01.163s.038.103.071.146.075.08.123.107c1.658.744 3.391 1.307 5.169 1.682.516.07.735-.727.219-.841z" fill="url(#AS)"/><path d="M215.304 225.741l5.117-5.327c2.032-1.918 8.637-5.44 11.52-9.172 0 0 5.86 2.348 8.76 5.651 0 0-8.103 7.998-10.767 10.022 0 0-5.755-2.874-7.674-2.769-2.354.363-4.679.896-6.956 1.595z" fill="url(#AT)"/><path d="M224.485 224.646c-.797-.534-3.267-2.164-3.583-2.12s-5.598 3.25-5.598 3.25c2.272-.697 4.591-1.23 6.939-1.594.767.033 1.525.19 2.242.464z" fill="url(#AU)"/><path d="M215.304 225.741l-3.837-5.809c-1.209-1.55-3.653-5.895-3.828-7.534 0 0-3.049 1.034-3.899 2.208s-.376 8.314.377 10.819l4.845-2.19 6.342 2.506z" fill="url(#AV)"/><path d="M210.845 222.578c-.473-.105-1.866.692-1.866.692l6.343 2.505a51.97 51.97 0 0 0-4.477-3.197z" fill="url(#AW)"/><path d="M259.983 224.182s7.674 6.824 13.429 23.031 15.568 52.668 16.418 57.995-.211 9.811-3.408 13.219-41.367 22.392-44.784 23.461-10.872-5.546-12.361-10.881 5.326-11.94 5.326-11.94l27.298-16.233s-12.58-25.161-14.893-34.753-1.121-33.667 12.975-43.899z" fill="url(#AX)"/><path style="mix-blend-mode:multiply" opacity=".45" d="M241.375 329.676c-1.261-3.957-3.651-7.459-6.877-10.075l-.306-.105c-1.455 1.542-6.185 7.009-4.915 11.511 1.489 5.336 8.953 11.941 12.361 10.881.237-.079.648-.237 1.192-.473.814-2.838-.176-7.464-1.455-11.739z" fill="url(#AY)"/><path d="M219.062 312.803s3.759.157 5.765 1.121 7.832 5.598 8.235 5.913-5.677 1.604-5.677 1.604l-5.598-.719-2.725-7.919z" fill="url(#AZ)"/><path d="M143.389 307.766s-.447-2.795 1.157-3.995 3.434-1.358 4.231-.718 1.2 3.635 1.2 3.635l-6.588 1.078z" fill="url(#Aa)"/><path d="M148.943 344.708l76.436-17.433-10.872-37.258-82.682 19.352 17.118 35.339z" fill="url(#Ab)"/><path d="M242.602 334.433a41.32 41.32 0 0 1-5.011 3.075c-1.027.429-2.084.78-3.163 1.051-3.33.941-6.727 1.626-10.162 2.05-2.453.096-12.151-.105-14.893-.876s-4.906-4.267-4.906-4.267c-1.613-.211-3.19-.642-4.687-1.279-1.603-.876-2.137-3.618-2.137-3.618s-7.885-2.777-8.953-3.732-.211-2.882.324-3.311 10.337.543 12.045.639 15.033 0 15.033 0l-9.592-1.27c-1.481-.307-9.593-.648-10.671-1.498s-1.27-1.498-.876-2.243 11.52-1.174 12.686-1.06l14.892 1.595c1.989.105 11.634-.21 11.634-.21l.43.21a21.42 21.42 0 0 1 6.736 9.96c.517 1.604.947 3.224 1.271 4.784z" fill="url(#Ac)"/><path style="mix-blend-mode:multiply" opacity=".45" d="M225.221 339.435c-3.504-.324-11.94-1.069-11.721-1.708s5.326-1.279 5.326-1.279-5.65-.105-8.419-.324-5.974-.64-5.974-.64 2.137 3.504 4.906 4.266 12.475.955 14.892.876a46.11 46.11 0 0 0 6.063-1.042 48.43 48.43 0 0 1-5.073-.149zm-9.119-7.359s-5.493-.429-8.91-.482-9.54-1.007-9.54-1.007a9.51 9.51 0 0 0 .307 1.06c1.358.088 3.241.228 4.065.324 4.681.429 9.39.464 14.078.105z" fill="url(#Ad)"/><path d="M181.883 318.883c.015 1.08-.291 2.139-.879 3.045s-1.433 1.614-2.426 2.038-2.09.542-3.151.34a5.44 5.44 0 0 1-2.806-1.472c-.768-.759-1.294-1.729-1.509-2.787a5.44 5.44 0 0 1 .3-3.154c.41-.999 1.109-1.853 2.006-2.453a5.44 5.44 0 0 1 3.033-.918c.709-.006 1.412.128 2.069.395s1.255.66 1.76 1.158a5.4 5.4 0 0 1 1.603 3.808z" fill="url(#Ae)"/><path d="M139.586 333.837a19.3 19.3 0 0 0 2.068 3.294c.972 1.104 2.093 2.453 3.609 2.777s3.206 1.445 3.163.245c-.123-.719-.399-1.404-.808-2.009a5.13 5.13 0 0 0-1.567-1.495c-1.349-.972-6.465-2.812-6.465-2.812z" fill="url(#Af)"/><path style="mix-blend-mode:multiply" opacity=".45" d="M146.691 337.122c-.204-.181-.417-.351-.64-.508-1.349-.937-6.465-2.777-6.465-2.777a24.31 24.31 0 0 0 1.463 2.514c.753.299 1.543.494 2.348.578l3.294.193z" fill="url(#Ag)"/><path d="M136.197 328.02s-.745 2.286 0 3.434a19.41 19.41 0 0 0 6.079 4.564c2.208.483 4.46.733 6.72.745 1.06 0 1.918-.877 1.918-1.28s-1.673-1.699-2.488-2.452-6.246-2.287-6.246-2.287l-5.983-2.724z" fill="url(#Ah)"/><path style="mix-blend-mode:multiply" opacity=".45" d="M144.887 331.576l-2.707-.832-5.983-2.724a5.9 5.9 0 0 0-.158 3.118 13.27 13.27 0 0 0 3.574.666l5.274-.228z" fill="url(#Ai)"/><path d="M136.302 318.603s-3.504 3.118-3.302 4.511 2.137 5.861 3.311 6.711 5.116 1.279 7.008 1.279 4.153.114 4.582-.105.964-1.384-.21-2.453-7.99-2.882-7.99-2.882l-3.399-7.061z" fill="url(#Aj)"/><path d="M149.101 199.338H59.875c-2.83 0-5.125 2.294-5.125 5.125v76.751c0 2.83 2.294 5.125 5.125 5.125h89.226c2.831 0 5.125-2.295 5.125-5.125v-76.751c0-2.831-2.294-5.125-5.125-5.125z" fill="url(#Ak)"/><path style="mix-blend-mode:multiply" opacity=".6" d="M141.742 209.893H66.577v9.277h75.165v-9.277z" fill="url(#Al)"/><path style="mix-blend-mode:multiply" opacity=".6" d="M123.827 224.173h-57.25v9.277h57.25v-9.277z" fill="url(#Am)"/><path d="M147.113 281.308H104.23v-39.361h42.927l-.044 39.361zm-42.051-.823h41.236v-37.714h-41.244l.008 37.714z" fill="url(#An)" style="mix-blend-mode:screen"/><path style="mix-blend-mode:screen" d="M122.548 254.353h-9.593v21.27h9.593v-21.27z" fill="url(#Ao)"/><path style="mix-blend-mode:screen" d="M137.905 247.633h-9.593v27.99h9.593v-27.99z" fill="url(#Ap)"/><path style="mix-blend-mode:multiply" opacity=".6" d="M95.206 248.598H66.577v5.755h28.629v-5.755z" fill="url(#Aq)"/><path style="mix-blend-mode:multiply" opacity=".6" d="M91.369 258.751H66.577v5.756h24.792v-5.756z" fill="url(#Ar)"/><path style="mix-blend-mode:multiply" opacity=".6" d="M85.132 268.903H66.577v5.756h18.555v-5.756z" fill="url(#As)"/><path d="M304.425 155.552h-.823v-5.562h-46.711v-.824h47.534v6.386z" fill="url(#At)"/><path d="M304.013 156.936c.765 0 1.384-.619 1.384-1.384s-.619-1.384-1.384-1.384-1.384.62-1.384 1.384.62 1.384 1.384 1.384z" fill="url(#Au)"/><path d="M258.275 149.578a1.38 1.38 0 0 1-.855 1.278c-.253.105-.531.132-.799.079s-.516-.185-.709-.379-.326-.44-.379-.708-.026-.547.079-.8a1.38 1.38 0 0 1 .51-.621c.227-.152.495-.234.769-.234a1.38 1.38 0 0 1 1.384 1.385z" fill="url(#Av)"/><path d="M189.811 290.016h-.824v-50.075h-28.795v-.824h29.619v50.899z" fill="url(#Aw)"/><path d="M161.576 239.53c.002.276-.079.546-.231.777a1.4 1.4 0 0 1-1.432.598c-.271-.053-.52-.186-.715-.382a1.4 1.4 0 0 1-.382-.715c-.053-.271-.025-.552.082-.807a1.38 1.38 0 0 1 .517-.624c.23-.153.501-.233.777-.231a1.39 1.39 0 0 1 .976.407c.259.26.406.61.408.977z" fill="url(#Ax)"/><path d="M190.784 290.017c0 .274-.082.541-.234.769a1.38 1.38 0 0 1-.621.51c-.253.105-.531.132-.8.079a1.39 1.39 0 0 1-.708-.379 1.38 1.38 0 0 1-.3-1.509 1.38 1.38 0 0 1 .509-.621c.228-.152.496-.233.769-.233.367 0 .72.146.979.405s.406.612.406.979z" fill="url(#Ay)"/><path d="M188.146 188.01h-33.062v-21.954h.824v21.13h32.238v.824z" fill="url(#Az)"/><path d="M156.88 166.055c0 .274-.081.541-.233.769a1.38 1.38 0 0 1-.621.51c-.253.105-.532.132-.8.079s-.515-.186-.709-.379-.325-.44-.379-.709-.026-.547.079-.8a1.38 1.38 0 0 1 .51-.621c.228-.152.495-.233.769-.233a1.38 1.38 0 0 1 .531.103c.169.069.322.171.45.3s.231.282.3.45a1.38 1.38 0 0 1 .103.531z" fill="url(#BA)"/><path d="M189.53 187.598c0 .274-.081.541-.233.769a1.38 1.38 0 0 1-.621.51c-.253.105-.531.132-.8.079a1.4 1.4 0 0 1-.709-.379c-.193-.194-.325-.44-.378-.709s-.026-.547.078-.8a1.39 1.39 0 0 1 .51-.621c.228-.152.495-.233.769-.233a1.39 1.39 0 0 1 1.384 1.384z" fill="url(#BB)"/><path d="M209.374 128.482h-.824v-45.66h14.534v.823h-13.71v44.836z" fill="url(#BC)"/><path d="M224.467 83.234c0 .274-.081.541-.233.769s-.368.405-.621.51-.531.132-.8.079a1.39 1.39 0 0 1-.709-.379c-.193-.194-.325-.44-.378-.709s-.026-.547.078-.8a1.39 1.39 0 0 1 .51-.621c.228-.152.495-.233.769-.233.367 0 .719.146.979.405a1.38 1.38 0 0 1 .405.979z" fill="url(#BD)"/><path d="M208.962 129.866c.764 0 1.384-.62 1.384-1.384s-.62-1.384-1.384-1.384-1.384.619-1.384 1.384.619 1.384 1.384 1.384z" fill="url(#BE)"/><defs><linearGradient id="A" x1="122.557" y1="46.317" x2="122.557" y2="160.16" xlink:href="#BF"><stop stop-color="#0cb5f9"/><stop offset="1" stop-color="#625eff"/></linearGradient><linearGradient id="B" x1="106.525" y1="61.088" x2="106.525" y2="74.842" xlink:href="#BF"><stop stop-color="#0cb5f9"/><stop offset="1" stop-color="#625eff"/></linearGradient><linearGradient id="C" x1="93.499" y1="72.887" x2="93.499" y2="86.641" xlink:href="#BF"><stop stop-color="#0cb5f9"/><stop offset="1" stop-color="#625eff"/></linearGradient><linearGradient id="D" x1="71.851" y1="150.813" x2="173.254" y2="150.813" xlink:href="#BF"><stop stop-color="#fffffe"/><stop offset="1" stop-color="#c8e7ff"/></linearGradient><linearGradient id="E" x1="71.851" y1="132.802" x2="173.254" y2="132.802" xlink:href="#BF"><stop stop-color="#fffffe"/><stop offset="1" stop-color="#c8e7ff"/></linearGradient><linearGradient id="F" x1="71.851" y1="114.799" x2="173.254" y2="114.799" xlink:href="#BF"><stop stop-color="#fffffe"/><stop offset="1" stop-color="#c8e7ff"/></linearGradient><linearGradient id="G" x1="71.851" y1="96.786" x2="173.254" y2="96.786" xlink:href="#BF"><stop stop-color="#fffffe"/><stop offset="1" stop-color="#c8e7ff"/></linearGradient><linearGradient id="H" x1="122.461" y1="90.172" x2="122.461" y2="150.225" xlink:href="#BF"><stop stop-color="#fffffe"/><stop offset="1" stop-color="#c8e7ff"/></linearGradient><linearGradient id="I" x1="328.21" y1="141.631" x2="328.21" y2="295.177" xlink:href="#BF"><stop stop-color="#fffffe"/><stop offset="1" stop-color="#c8e7ff"/></linearGradient><linearGradient id="J" x1="376.708" y1="159.1" x2="294.614" y2="184.47" xlink:href="#BF"><stop stop-color="#0cb5f9"/><stop offset="1" stop-color="#625eff"/></linearGradient><linearGradient id="K" x1="381.973" y1="161.508" x2="284.74" y2="196.471" xlink:href="#BF"><stop stop-color="#c8e7ff"/><stop offset="1" stop-color="#92b7d4"/></linearGradient><linearGradient id="L" x1="383.988" y1="167.107" x2="286.755" y2="202.079" xlink:href="#BF"><stop stop-color="#c8e7ff"/><stop offset="1" stop-color="#92b7d4"/></linearGradient><linearGradient id="M" x1="317.382" y1="250.647" x2="288.218" y2="259.661" xlink:href="#BF"><stop stop-color="#c8e7ff"/><stop offset="1" stop-color="#92b7d4"/></linearGradient><linearGradient id="N" x1="298.949" y1="248.886" x2="298.949" y2="293.906" xlink:href="#BF"><stop stop-color="#ff98e5"/><stop offset="1" stop-color="#b777fa"/></linearGradient><linearGradient id="O" x1="346.642" y1="250.647" x2="317.478" y2="259.661" xlink:href="#BF"><stop stop-color="#c8e7ff"/><stop offset="1" stop-color="#92b7d4"/></linearGradient><linearGradient id="P" x1="328.209" y1="237.367" x2="328.209" y2="286.154" xlink:href="#BF"><stop stop-color="#ff3b49"/><stop offset="1" stop-color="#681514"/></linearGradient><linearGradient id="Q" x1="375.901" y1="250.647" x2="346.738" y2="259.661" xlink:href="#BF"><stop stop-color="#c8e7ff"/><stop offset="1" stop-color="#92b7d4"/></linearGradient><linearGradient id="R" x1="357.478" y1="255.282" x2="357.478" y2="294.126" xlink:href="#BF"><stop stop-color="#00d1d9"/><stop offset="1" stop-color="#008ffa"/></linearGradient><linearGradient id="S" x1="338.88" y1="225.25" x2="306.896" y2="290.499" xlink:href="#BF"><stop stop-color="#c8e7ff"/><stop offset="1" stop-color="#92b7d4"/></linearGradient><linearGradient id="T" x1="362.472" y1="236.814" x2="330.487" y2="302.063" xlink:href="#BF"><stop stop-color="#c8e7ff"/><stop offset="1" stop-color="#92b7d4"/></linearGradient><linearGradient id="U" x1="386.055" y1="248.387" x2="354.071" y2="313.635" xlink:href="#BF"><stop stop-color="#c8e7ff"/><stop offset="1" stop-color="#92b7d4"/></linearGradient><linearGradient id="V" x1="308.042" y1="-6.045" x2="308.042" y2="139.546" xlink:href="#BF"><stop stop-color="#fffffe"/><stop offset="1" stop-color="#c8e7ff"/></linearGradient><linearGradient id="W" x1="310.25" y1="72.87" x2="307.85" y2="3.583" xlink:href="#BF"><stop stop-color="#0cb5f9"/><stop offset="1" stop-color="#625eff"/></linearGradient><linearGradient id="X" x1="378.504" y1="3.093" x2="379.905" y2="10.303" xlink:href="#BF"><stop stop-color="#ff3b49"/><stop offset="1" stop-color="#681514"/></linearGradient><linearGradient id="Y" x1="368.053" y1="5.125" x2="369.454" y2="12.335" xlink:href="#BF"><stop stop-color="#fffffe"/><stop offset="1" stop-color="#c8e7ff"/></linearGradient><linearGradient id="Z" x1="356.839" y1="2.795" x2="358.635" y2="13.01" xlink:href="#BF"><stop stop-color="#fffffe"/><stop offset="1" stop-color="#c8e7ff"/></linearGradient><linearGradient id="a" x1="323.487" y1="43.242" x2="230.513" y2="54.313" xlink:href="#BF"><stop stop-color="#00d1d9"/><stop offset="1" stop-color="#008ffa"/></linearGradient><linearGradient id="b" x1="274.409" y1="26.278" x2="216.421" y2="73.215" xlink:href="#BF"><stop stop-color="#ff3b49"/><stop offset="1" stop-color="#681514"/></linearGradient><linearGradient id="c" x1="264.485" y1="51.415" x2="232.23" y2="77.526" xlink:href="#BF"><stop stop-color="#ff98e5"/><stop offset="1" stop-color="#b777fa"/></linearGradient><linearGradient id="d" x1="317.408" y1="34.061" x2="317.408" y2="47.745" xlink:href="#BF"><stop stop-color="#ff3b49"/><stop offset="1" stop-color="#681514"/></linearGradient><linearGradient id="e" x1="382.989" y1="17.706" x2="329.524" y2="45.932" xlink:href="#BF"><stop stop-color="#c8e7ff"/><stop offset="1" stop-color="#92b7d4"/></linearGradient><linearGradient id="f" x1="317.408" y1="48.674" x2="317.408" y2="62.367" xlink:href="#BF"><stop stop-color="#ff98e5"/><stop offset="1" stop-color="#b777fa"/></linearGradient><linearGradient id="g" x1="387.948" y1="27.087" x2="334.482" y2="55.322" xlink:href="#BF"><stop stop-color="#c8e7ff"/><stop offset="1" stop-color="#92b7d4"/></linearGradient><linearGradient id="h" x1="317.408" y1="63.295" x2="317.408" y2="76.979" xlink:href="#BF"><stop stop-color="#00d1d9"/><stop offset="1" stop-color="#008ffa"/></linearGradient><linearGradient id="i" x1="395.552" y1="41.49" x2="342.086" y2="69.725" xlink:href="#BF"><stop stop-color="#c8e7ff"/><stop offset="1" stop-color="#92b7d4"/></linearGradient><linearGradient id="j" x1="248.822" y1="90.11" x2="248.822" y2="151.539" xlink:href="#BF"><stop stop-color="#ff3b49"/><stop offset="1" stop-color="#681514"/></linearGradient><linearGradient id="k" x1="261.98" y1="106.125" x2="261.98" y2="157.996" xlink:href="#BF"><stop stop-color="#0cb5f9"/><stop offset="1" stop-color="#625eff"/></linearGradient><linearGradient id="l" x1="275.138" y1="90.11" x2="275.138" y2="151.539" xlink:href="#BF"><stop stop-color="#ff3b49"/><stop offset="1" stop-color="#681514"/></linearGradient><linearGradient id="m" x1="288.306" y1="106.125" x2="288.306" y2="157.996" xlink:href="#BF"><stop stop-color="#0cb5f9"/><stop offset="1" stop-color="#625eff"/></linearGradient><linearGradient id="n" x1="301.464" y1="90.11" x2="301.464" y2="151.539" xlink:href="#BF"><stop stop-color="#ff3b49"/><stop offset="1" stop-color="#681514"/></linearGradient><linearGradient id="o" x1="314.622" y1="106.125" x2="314.622" y2="157.996" xlink:href="#BF"><stop stop-color="#0cb5f9"/><stop offset="1" stop-color="#625eff"/></linearGradient><linearGradient id="p" x1="327.789" y1="90.11" x2="327.789" y2="151.539" xlink:href="#BF"><stop stop-color="#ff3b49"/><stop offset="1" stop-color="#681514"/></linearGradient><linearGradient id="q" x1="340.947" y1="106.125" x2="340.947" y2="157.996" xlink:href="#BF"><stop stop-color="#0cb5f9"/><stop offset="1" stop-color="#625eff"/></linearGradient><linearGradient id="r" x1="354.114" y1="90.11" x2="354.114" y2="151.539" xlink:href="#BF"><stop stop-color="#ff3b49"/><stop offset="1" stop-color="#681514"/></linearGradient><linearGradient id="s" x1="367.272" y1="106.125" x2="367.272" y2="157.996" xlink:href="#BF"><stop stop-color="#0cb5f9"/><stop offset="1" stop-color="#625eff"/></linearGradient><linearGradient id="t" x1="211.94" y1="409.589" x2="209.163" y2="376.264" xlink:href="#BF"><stop stop-color="#823d3f"/><stop offset="1" stop-color="#3d1520"/></linearGradient><linearGradient id="u" x1="224.205" y1="331.638" x2="194.779" y2="294.966" xlink:href="#BF"><stop stop-color="#0058a1"/><stop offset="1" stop-color="#002f61"/></linearGradient><linearGradient id="v" x1="219.719" y1="226.976" x2="210.451" y2="380.495" xlink:href="#BF"><stop stop-color="#0058a1"/><stop offset="1" stop-color="#002f61"/></linearGradient><linearGradient id="w" x1="204.17" y1="274.52" x2="197.959" y2="377.289" xlink:href="#BF"><stop stop-color="#0058a1"/><stop offset="1" stop-color="#002f61"/></linearGradient><linearGradient id="x" x1="212.291" y1="268.984" x2="217.941" y2="224.419" xlink:href="#BF"><stop stop-color="#fffffe"/><stop offset="1" stop-color="#c8e7ff"/></linearGradient><linearGradient id="y" x1="207.656" y1="264.024" x2="216.399" y2="221.799" xlink:href="#BF"><stop stop-color="#c8e7ff"/><stop offset="1" stop-color="#92b7d4"/></linearGradient><linearGradient id="z" x1="205.44" y1="346.716" x2="215.444" y2="267.81" xlink:href="#BF"><stop stop-color="#0058a1"/><stop offset="1" stop-color="#002f61"/></linearGradient><linearGradient id="AA" x1="109.924" y1="26.755" x2="342.235" y2="274.817" xlink:href="#BF"><stop stop-color="#823d3f"/><stop offset="1" stop-color="#3d1520"/></linearGradient><linearGradient id="AB" x1="130.897" y1="54.263" x2="312.362" y2="248.037" xlink:href="#BF"><stop stop-color="#823d3f"/><stop offset="1" stop-color="#3d1520"/></linearGradient><linearGradient id="AC" x1="166.386" y1="148.201" x2="212.659" y2="223.901" xlink:href="#BF"><stop stop-color="#823d3f"/><stop offset="1" stop-color="#3d1520"/></linearGradient><linearGradient id="AD" x1="205.116" y1="124.53" x2="251.389" y2="200.23" xlink:href="#BF"><stop stop-color="#823d3f"/><stop offset="1" stop-color="#3d1520"/></linearGradient><linearGradient id="AE" x1="219.168" y1="226.476" x2="220.131" y2="202.061" xlink:href="#BF"><stop stop-color="#ffbda7"/><stop offset="1" stop-color="#ff8690"/></linearGradient><linearGradient id="AF" x1="214.612" y1="207.493" x2="212.684" y2="132.17" xlink:href="#BF"><stop stop-color="#ffbda7"/><stop offset="1" stop-color="#ff8690"/></linearGradient><linearGradient id="AG" x1="225.195" y1="193.388" x2="213.526" y2="179.959" xlink:href="#BF"><stop stop-color="#823d3f"/><stop offset="1" stop-color="#3d1520"/></linearGradient><linearGradient id="AH" x1="215.733" y1="201.615" x2="204.055" y2="188.185" xlink:href="#BF"><stop stop-color="#823d3f"/><stop offset="1" stop-color="#3d1520"/></linearGradient><linearGradient id="AI" x1="226.316" y1="192.425" x2="214.638" y2="178.986" xlink:href="#BF"><stop stop-color="#823d3f"/><stop offset="1" stop-color="#3d1520"/></linearGradient><linearGradient id="AJ" x1="216.373" y1="201.062" x2="204.704" y2="187.624" xlink:href="#BF"><stop stop-color="#823d3f"/><stop offset="1" stop-color="#3d1520"/></linearGradient><linearGradient id="AK" x1="210.258" y1="168.64" x2="229.128" y2="197.742" xlink:href="#BF"><stop stop-color="#823d3f"/><stop offset="1" stop-color="#3d1520"/></linearGradient><linearGradient id="AL" x1="199.684" y1="175.49" x2="218.563" y2="204.602" xlink:href="#BF"><stop stop-color="#823d3f"/><stop offset="1" stop-color="#3d1520"/></linearGradient><linearGradient id="AM" x1="201.708" y1="126.616" x2="247.981" y2="202.307" xlink:href="#BF"><stop stop-color="#823d3f"/><stop offset="1" stop-color="#3d1520"/></linearGradient><linearGradient id="AN" x1="180.28" y1="139.713" x2="226.553" y2="215.412" xlink:href="#BF"><stop stop-color="#823d3f"/><stop offset="1" stop-color="#3d1520"/></linearGradient><linearGradient id="AO" x1="185.913" y1="136.269" x2="232.186" y2="211.969" xlink:href="#BF"><stop stop-color="#823d3f"/><stop offset="1" stop-color="#3d1520"/></linearGradient><linearGradient id="AP" x1="234.963" y1="182.438" x2="240.955" y2="191.671" xlink:href="#BF"><stop stop-color="#ffbda7"/><stop offset="1" stop-color="#ff8690"/></linearGradient><linearGradient id="AQ" x1="195.041" y1="130.69" x2="241.306" y2="206.389" xlink:href="#BF"><stop stop-color="#823d3f"/><stop offset="1" stop-color="#3d1520"/></linearGradient><linearGradient id="AR" x1="211.765" y1="201.44" x2="216.636" y2="206.276" xlink:href="#BF"><stop stop-color="#ff3b49"/><stop offset="1" stop-color="#681514"/></linearGradient><linearGradient id="AS" x1="214.918" y1="184.059" x2="210.459" y2="195.815" xlink:href="#BF"><stop stop-color="#ffbda7"/><stop offset="1" stop-color="#ff8690"/></linearGradient><linearGradient id="AT" x1="226.369" y1="210.944" x2="229.558" y2="231.383" xlink:href="#BF"><stop stop-color="#fffffe"/><stop offset="1" stop-color="#c8e7ff"/></linearGradient><linearGradient id="AU" x1="222.357" y1="238.339" x2="219.159" y2="221.282" xlink:href="#BF"><stop stop-color="#c8e7ff"/><stop offset="1" stop-color="#92b7d4"/></linearGradient><linearGradient id="AV" x1="207.429" y1="211.33" x2="210.451" y2="230.673" xlink:href="#BF"><stop stop-color="#fffffe"/><stop offset="1" stop-color="#c8e7ff"/></linearGradient><linearGradient id="AW" x1="212.378" y1="230.769" x2="212.01" y2="221.176" xlink:href="#BF"><stop stop-color="#c8e7ff"/><stop offset="1" stop-color="#92b7d4"/></linearGradient><linearGradient id="AX" x1="264.722" y1="234.177" x2="257.863" y2="347.722" xlink:href="#BF"><stop stop-color="#0058a1"/><stop offset="1" stop-color="#002f61"/></linearGradient><linearGradient id="AY" x1="248.997" y1="304.533" x2="236.207" y2="333.96" xlink:href="#BF"><stop stop-color="#0058a1"/><stop offset="1" stop-color="#002f61"/></linearGradient><linearGradient id="AZ" x1="230.372" y1="303.534" x2="226.772" y2="314.248" xlink:href="#BF"><stop stop-color="#ffbda7"/><stop offset="1" stop-color="#ff8690"/></linearGradient><linearGradient id="Aa" x1="150.555" y1="326.592" x2="147.515" y2="311.323" xlink:href="#BF"><stop stop-color="#ffbda7"/><stop offset="1" stop-color="#ff8690"/></linearGradient><linearGradient id="Ab" x1="206.009" y1="373.785" x2="169.136" y2="290.586" xlink:href="#BF"><stop stop-color="#c8e7ff"/><stop offset="1" stop-color="#92b7d4"/></linearGradient><linearGradient id="Ac" x1="188.339" y1="320.915" x2="271.818" y2="342.668" xlink:href="#BF"><stop stop-color="#ffbda7"/><stop offset="1" stop-color="#ff8690"/></linearGradient><linearGradient id="Ad" x1="215.655" y1="330.061" x2="213.535" y2="336.369" xlink:href="#BF"><stop stop-color="#ffbda7"/><stop offset="1" stop-color="#ff8690"/></linearGradient><linearGradient id="Ae" x1="176.6" y1="315.212" x2="175.321" y2="345.708" xlink:href="#BF"><stop stop-color="#fffffe"/><stop offset="1" stop-color="#c8e7ff"/></linearGradient><linearGradient id="Af" x1="147.304" y1="341.047" x2="128.11" y2="316.5" xlink:href="#BF"><stop stop-color="#ffbda7"/><stop offset="1" stop-color="#ff8690"/></linearGradient><linearGradient id="Ag" x1="147.874" y1="341.853" x2="140.673" y2="332.645" xlink:href="#BF"><stop stop-color="#ffbda7"/><stop offset="1" stop-color="#ff8690"/></linearGradient><linearGradient id="Ah" x1="148.68" y1="339.978" x2="129.486" y2="315.422" xlink:href="#BF"><stop stop-color="#ffbda7"/><stop offset="1" stop-color="#ff8690"/></linearGradient><linearGradient id="Ai" x1="145.448" y1="337.735" x2="137.038" y2="326.977" xlink:href="#BF"><stop stop-color="#ffbda7"/><stop offset="1" stop-color="#ff8690"/></linearGradient><linearGradient id="Aj" x1="149.758" y1="339.137" x2="130.564" y2="314.581" xlink:href="#BF"><stop stop-color="#ffbda7"/><stop offset="1" stop-color="#ff8690"/></linearGradient><linearGradient id="Ak" x1="104.484" y1="195.606" x2="104.484" y2="285.463" xlink:href="#BF"><stop stop-color="#0cb5f9"/><stop offset="1" stop-color="#625eff"/></linearGradient><linearGradient id="Al" x1="124.536" y1="187.466" x2="82.635" y2="243.121" xlink:href="#BF"><stop stop-color="#0cb5f9"/><stop offset="1" stop-color="#625eff"/></linearGradient><linearGradient id="Am" x1="127.278" y1="186.214" x2="85.377" y2="241.869" xlink:href="#BF"><stop stop-color="#0cb5f9"/><stop offset="1" stop-color="#625eff"/></linearGradient><linearGradient id="An" x1="142.89" y1="238.758" x2="108.453" y2="284.497" xlink:href="#BF"><stop stop-color="#0cb5f9"/><stop offset="1" stop-color="#625eff"/></linearGradient><linearGradient id="Ao" x1="117.756" y1="255.474" x2="117.756" y2="295.483" xlink:href="#BF"><stop stop-color="#0cb5f9"/><stop offset="1" stop-color="#625eff"/></linearGradient><linearGradient id="Ap" x1="133.104" y1="255.473" x2="133.104" y2="295.483" xlink:href="#BF"><stop stop-color="#0cb5f9"/><stop offset="1" stop-color="#625eff"/></linearGradient><linearGradient id="Aq" x1="109.644" y1="245.225" x2="64.063" y2="255.133" xlink:href="#BF"><stop stop-color="#0cb5f9"/><stop offset="1" stop-color="#625eff"/></linearGradient><linearGradient id="Ar" x1="111.667" y1="254.52" x2="66.086" y2="264.437" xlink:href="#BF"><stop stop-color="#0cb5f9"/><stop offset="1" stop-color="#625eff"/></linearGradient><linearGradient id="As" x1="113.63" y1="263.568" x2="68.057" y2="273.476" xlink:href="#BF"><stop stop-color="#0cb5f9"/><stop offset="1" stop-color="#625eff"/></linearGradient><linearGradient id="At" x1="279.502" y1="163.262" x2="247.832" y2="460.716" xlink:href="#BF"><stop stop-color="#fffffe"/><stop offset="1" stop-color="#c8e7ff"/></linearGradient><linearGradient id="Au" x1="302.927" y1="165.758" x2="271.266" y2="463.213" xlink:href="#BF"><stop stop-color="#fffffe"/><stop offset="1" stop-color="#c8e7ff"/></linearGradient><linearGradient id="Av" x1="255.699" y1="160.73" x2="224.039" y2="458.184" xlink:href="#BF"><stop stop-color="#fffffe"/><stop offset="1" stop-color="#c8e7ff"/></linearGradient><linearGradient id="Aw" x1="185.413" y1="166.738" x2="153.753" y2="464.192" xlink:href="#BF"><stop stop-color="#fffffe"/><stop offset="1" stop-color="#c8e7ff"/></linearGradient><linearGradient id="Ax" x1="168.129" y1="164.899" x2="136.468" y2="462.344" xlink:href="#BF"><stop stop-color="#fffffe"/><stop offset="1" stop-color="#c8e7ff"/></linearGradient><linearGradient id="Ay" x1="202.33" y1="168.535" x2="170.67" y2="465.998" xlink:href="#BF"><stop stop-color="#fffffe"/><stop offset="1" stop-color="#c8e7ff"/></linearGradient><linearGradient id="Az" x1="172.851" y1="165.399" x2="141.19" y2="462.862" xlink:href="#BF"><stop stop-color="#fffffe"/><stop offset="1" stop-color="#c8e7ff"/></linearGradient><linearGradient id="BA" x1="155.759" y1="163.585" x2="124.098" y2="461.04" xlink:href="#BF"><stop stop-color="#fffffe"/><stop offset="1" stop-color="#c8e7ff"/></linearGradient><linearGradient id="BB" x1="190.31" y1="167.256" x2="158.641" y2="464.719" xlink:href="#BF"><stop stop-color="#fffffe"/><stop offset="1" stop-color="#c8e7ff"/></linearGradient><linearGradient id="BC" x1="206.684" y1="168.999" x2="175.024" y2="466.463" xlink:href="#BF"><stop stop-color="#fffffe"/><stop offset="1" stop-color="#c8e7ff"/></linearGradient><linearGradient id="BD" x1="213.867" y1="169.761" x2="182.207" y2="467.215" xlink:href="#BF"><stop stop-color="#fffffe"/><stop offset="1" stop-color="#c8e7ff"/></linearGradient><linearGradient id="BE" x1="204.678" y1="168.789" x2="173.009" y2="466.244" xlink:href="#BF"><stop stop-color="#fffffe"/><stop offset="1" stop-color="#c8e7ff"/></linearGradient><linearGradient id="BF" gradientUnits="userSpaceOnUse"/></defs></svg>