<svg xmlns="http://www.w3.org/2000/svg" xmlns:xlink="http://www.w3.org/1999/xlink" width="325" height="189" fill="none" xmlns:v="https://vecta.io/nano"><style><![CDATA[.B{fill:#fff}.C{fill:#ffb2a0}.D{fill:#373660}.E{fill:#ffd1c1}.F{fill:#4f5285}.G{fill:#fe6d60}.H{fill:#ffc967}]]></style><path d="M27.152 187.081l279.424.068c6.911-15.283 13.324-31.235 14.189-47.948 1.417-27.333-11.68-49.916-36.686-61.616-11.453-5.359-24.366-7.894-34.687-15.463-3.854-2.827-6.871-6.48-9.898-10.12-16.634-20.003-40.305-35.463-66.642-39.762-17.432-2.846-35.812-.883-50.421 9.586-13.67 9.795-21.039 25.683-29.035 39.842-2.221 3.928-4.609 7.899-8.12 10.77-6.983 5.711-14.665 3.892-22.896 3.706-24.165-.543-46.865 16.625-54.693 39.042-8.551 24.488-5.137 52.969 14.689 68.822 1.634 1.305 3.021 1.93 4.777 3.072z" fill="#f7f7f7"/><mask id="A" maskUnits="userSpaceOnUse" x="3" y="11" width="318" height="177"><path d="M27.152 187.081l279.424.068c6.911-15.283 13.324-31.235 14.189-47.948 1.417-27.333-11.68-49.916-36.686-61.616-11.453-5.359-24.366-7.894-34.687-15.463-3.854-2.827-6.871-6.48-9.897-10.12-16.635-20.003-40.306-35.463-66.643-39.762-17.432-2.846-35.812-.883-50.421 9.586-13.67 9.795-21.039 25.683-29.035 39.842-2.221 3.928-4.609 7.899-8.12 10.77-6.983 5.711-14.665 3.892-22.896 3.706-24.165-.543-46.865 16.625-54.693 39.042-8.551 24.488-5.137 52.969 14.689 68.822 1.634 1.305 3.021 1.93 4.777 3.072z" class="B"/></mask><g mask="url(#A)"><path d="M320.869 119.037s-19.239 25.907-16.768 47.009c0 0 .936-39.232-2.655-53.183 0 0-11.084 25.855-8.822 41.649 0 0-9.403-22.967-24.929-31.801 0 0 4.968 36.599 18.224 47.715 0 0-16.266-20.848-39.759-27.853 0 0 1.556 20.614 25.277 29.921 0 0-16.492-6.018-46.581-3.556 0 0 10.12 15.171 29.269 18.254h68.383s6.571-55.415-1.639-68.155z" fill="url(#N)"/><path d="M0 152.985s15.999 9.409 27.062 24.363c0 0-13.275-27.256-3.064-49.042 0 0 10.213 29.104 10.553 45.784 0 0-2.262-28.083 14.356-40.338 0 0-.965 24.09-4.369 36.078 0 0 6.456-20.728 31.167-24.15 0 0-10.535 22.981-20.993 29.518 0 0 8.091-8.095 33.281-10.138 0 0-9.464 15.131-27.807 16.106 0 0 23.212-3.167 35.466 7.553H22.296S4.085 165.921 0 152.985zM242.563 55.46v124.319H118.414V18.976h124.149V55.46z" fill="#f6f9ff"/></g><path d="M237.624 0H111.767V175.504H237.624V0Z" fill="#d4dfff"/><path d="M166.413 53.463h-44.514V11.145h44.514v42.319zM126.064 49.3h36.191V15.309h-36.191V49.3z" class="B"/><path d="M146.692 31.185l24.59-24.591 6.776 6.775-24.592 24.592-6.774 6.775-6.776-6.775-9.385-9.385 6.776-6.776 9.385 9.385z" class="G"/><g class="B"><use xlink:href="#O"/><use xlink:href="#O" y="11.94"/><path d="M205.027 44.244H178.14c-.045 0-.082.037-.082.083v6.581c0 .046.037.083.082.083h26.887c.046 0 .083-.037.083-.083v-6.581c0-.046-.037-.083-.083-.083zm-38.614 64.353h-44.514V66.275h44.514v42.322zm-40.349-4.163h36.191V70.443h-36.191v33.992z"/><use xlink:href="#O" y="55.135"/><use xlink:href="#O" y="67.074"/><path d="M205.027 99.377H178.14c-.045 0-.082.037-.082.083v6.581c0 .046.037.083.082.083h26.887c.046 0 .083-.037.083-.083V99.46c0-.046-.037-.083-.083-.083zm-38.614 64.355h-44.514v-42.319h44.514v42.319zm-40.349-4.164h36.191v-33.992h-36.191v33.992zm99.93-28.935h-47.826a.11.11 0 0 0-.11.11v6.526a.11.11 0 0 0 .11.11h47.826a.11.11 0 0 0 .11-.11v-6.526a.11.11 0 0 0-.11-.11z"/><use xlink:href="#O" y="122.208"/><path d="M205.027 154.512H178.14c-.045 0-.082.037-.082.083v6.581c0 .045.037.082.082.082h26.887c.046 0 .083-.037.083-.082v-6.581c0-.046-.037-.083-.083-.083z"/></g><path d="M49.81 171.031l-.998 2.225 7.3 7.49c.606.622 1.011 1.411 1.162 2.265a4.33 4.33 0 0 1-.312 2.527l-21.479-9.627 4.218-9.411 10.108 4.531z" class="F"/><path d="M43.96 174.763c-.158.354-.418.652-.746.858s-.71.309-1.097.298a1.96 1.96 0 0 1-1.078-.361c-.316-.225-.558-.538-.695-.899a1.96 1.96 0 0 1 1.503-2.627 1.95 1.95 0 0 1 1.127.144c.235.105.446.255.623.442s.314.407.406.648a1.94 1.94 0 0 1 .127.753 1.95 1.95 0 0 1-.171.744zm5.733-.605l-1.381 1.142a.69.69 0 0 0-.174.217.67.67 0 0 0-.075.267.69.69 0 0 0 .036.275c.03.088.079.17.141.239a.69.69 0 0 0 .45.223.7.7 0 0 0 .483-.14l1.534-1.181-1.013-1.042zm1.78 1.832l-1.382 1.14a.69.69 0 0 0-.213.759c.031.088.078.17.141.239a.69.69 0 0 0 .933.082l1.534-1.18-1.013-1.04zm2.015 2.067l-1.382 1.14a.68.68 0 0 0-.174.215.69.69 0 0 0 .103.781c.116.129.277.209.45.224a.69.69 0 0 0 .482-.14l1.534-1.181-1.012-1.039zm-18.001-2.161l-.715 1.594 21.479 9.626.715-1.594-21.479-9.626zm42.944-72.803H54.493l-3.732 32.184c-.424 3.654-1.461 7.21-3.068 10.518l-10.225 21.036 15.502 5.696 9.697-24.103a16.78 16.78 0 0 0 1.185-5.243l1.938-31.767.382 63.653h15.484l-3.225-71.974z" class="D"/><path d="M79.131 175.062v2.439l9.726 3.845a4.33 4.33 0 0 1 2.736 4.025H68.054v-10.313l11.077.004z" class="F"/><path d="M75.265 181.297a1.96 1.96 0 0 0-1.46-2.353 1.96 1.96 0 0 0-2.353 1.46c-.246 1.053.407 2.106 1.46 2.352a1.96 1.96 0 0 0 2.352-1.459zm5.034-3.333l-.792 1.606a.67.67 0 0 0-.071.268.69.69 0 0 0 .04.274c.032.088.081.168.145.236a.7.7 0 0 0 .226.161.69.69 0 0 0 .885-.306l.917-1.705-1.349-.534zm2.375.944l-.792 1.605a.68.68 0 0 0-.071.268c-.005.093.008.187.04.275s.081.168.145.236a.7.7 0 0 0 .226.161.69.69 0 0 0 .886-.307l.916-1.704-1.349-.534zm2.686 1.06l-.792 1.606c-.041.084-.066.175-.071.268s.008.187.04.275a.7.7 0 0 0 .37.397.69.69 0 0 0 .885-.306l.916-1.705-1.349-.535zm6.232 5.407H68.054v1.748h23.538v-1.748z" class="D"/><path d="M67.723 53.929c-2.488.503-3.87 4.049-3.088 7.917l.689 3.411c.274 1.352.426 2.727.452 4.106l.094 4.976 5.745-1.182-1.055-5.214c2.488-.503 3.87-4.049 3.088-7.917s-3.437-6.601-5.925-6.098z" class="E"/><mask id="B" maskUnits="userSpaceOnUse" x="64" y="53" width="10" height="22"><path d="M67.723 53.929c-2.488.503-3.87 4.049-3.088 7.917l.689 3.411c.274 1.352.426 2.727.452 4.106l.094 4.976 5.745-1.182-1.055-5.214c2.488-.503 3.87-4.049 3.088-7.917s-3.437-6.601-5.925-6.098z" class="B"/></mask><g mask="url(#B)" class="C"><path d="M73.833 60.953s-3.682-2.778-6.786-2.149l-.277-2.036 7.024.848s.679 2.76.033 3.337"/></g><path d="M70.558 67.944s-1.853.093-3.459-2.067c0 0 1.039 3.262 3.638 2.955l-.18-.888z" class="C"/><path d="M91.735 83.722l-10.36-9.656c-2.634-2.456-6.102-3.822-9.704-3.822h-9.423-.339c-4.75.113-8.991 3.006-10.96 7.33L45.86 88.737l7.947 4.775-1.168 9.576h27.553l-1.236-13.922 4.058 4.103 8.722-9.547z" class="H"/><mask id="C" maskUnits="userSpaceOnUse" x="45" y="70" width="47" height="34"><path d="M91.735 83.722l-10.36-9.656c-2.634-2.456-6.102-3.822-9.704-3.822h-9.423-.339c-4.75.113-8.991 3.006-10.96 7.33L45.86 88.737l7.947 4.775-1.168 9.576h27.553l-1.236-13.922 4.058 4.103 8.722-9.547z" class="B"/></mask><g mask="url(#C)"><path d="M47.751 81.187s5.889 10.133 6.424 9.491 2.569-8.992 2.569-8.992l23.767 23.66-1.952.639H45.867l-2.184-17.983 4.068-6.815z" fill="#ffa648"/></g><path d="M71.35 51.583c-3.177-1.602-5.414 1.871-5.414 1.871-2.395.119-3.011 1.521-3.219 2.998s2.627 8.892 2.627 8.892l.369-3.393c-.242-.244-.404-.556-.465-.895-.149-.734.137-1.411.637-1.513s1.027.412 1.175 1.147c.012.06.021.122.027.183l.036-.024c.481-.325.387-3.37.387-3.37l9.715.253s-2.249-4.321-5.875-6.149z" class="D"/><path d="M82.392 87.521L44.697 49.827 34.313 60.212l37.694 37.695 10.386 10.385 10.385-10.385 14.386-14.386-10.386-10.385-14.385 14.385z" class="G"/><mask id="D" maskUnits="userSpaceOnUse" x="34" y="49" width="74" height="60"><path d="M82.392 87.521L44.697 49.827 34.313 60.212l37.694 37.695 10.386 10.385 10.385-10.385 14.386-14.386-10.386-10.385-14.385 14.385z" class="B"/></mask><g mask="url(#D)"><path d="M87.113 103.571s1.051-4.961 1.754-5.542 5.105-1.897 5.105-1.897-2.697 5.676-3.431 5.968l-3.428 1.471zM64.416 91.345s9.96 0 10.372-.179c.436-.183 3.04-3.131 3.301-2.173.162.595-.546 1.623.353 1.493s4.677-1.106 4.677-1.106-3.223 6.398-4.506 6.87-7.541 2.79-7.663 2.654-6.534-7.559-6.534-7.559z" fill="#e63e36"/></g><path d="M53.736 93.376l-7.408-4.358-1.457 4.886s-2.057 6.801.995 9.188c3.111 2.434 30.694-7.364 30.694-7.364l.36-3.732-23.184 1.381z" class="E"/><mask id="E" maskUnits="userSpaceOnUse" x="44" y="89" width="33" height="15"><path d="M53.736 93.376l-7.408-4.358-1.457 4.886s-2.057 6.801.995 9.188c3.111 2.434 30.694-7.364 30.694-7.364l.36-3.732-23.184 1.381z" class="B"/></mask><g mask="url(#E)" class="C"><path d="M53.736 93.376l-9.543.715 2.352-6.839 7.191 6.124z"/></g><path d="M75.082 92.239s2.744-3.898 3.007-3.245-.382.891-.282 1.647c.167 1.257 6.433-2.019 6.638-1.583s-.745 5.515-1.771 6.057c-2.616 1.396-8.266 1.107-8.266 1.107l.674-3.983zm19.734 3.629s-4.673 1.439-5.123 1.953-1.044 4.214-.948 4.118 3.094-1.416 3.865-2.058 2.207-4.013 2.207-4.013z" class="E"/><path d="M274.362 55.417s5.068-.284 6.108 6.167 1.043 9.645 1.043 9.645l-14.007-.266s-.123-9.134 1.044-11.223 5.812-4.324 5.812-4.324z" class="D"/><path d="M291.985 174.119l.803 1.791-5.881 6.035a3.49 3.49 0 0 0-.936 1.825c-.122.688-.034 1.397.252 2.035l17.304-7.755-3.399-7.577-8.143 3.646z" class="F"/><path d="M296.698 177.125c.128.285.337.525.602.691s.572.249.884.24.614-.111.868-.292a1.58 1.58 0 0 0 .56-.725c.111-.292.133-.61.063-.914a1.58 1.58 0 0 0-1.277-1.202c-.308-.052-.624-.011-.908.117a1.59 1.59 0 0 0-.502.357c-.142.151-.252.328-.326.522a1.57 1.57 0 0 0-.102.606c.006.207.053.411.138.6zm-4.619-.488l1.113.92a.55.55 0 0 1 .14.174c.035.066.056.14.061.215a.57.57 0 0 1-.143.414.56.56 0 0 1-.363.179.55.55 0 0 1-.388-.113l-1.235-.951.815-.838zm-1.434 1.476l1.113.92a.55.55 0 0 1 .14.174.54.54 0 0 1 .061.215.58.58 0 0 1-.029.222.56.56 0 0 1-.115.192c-.094.103-.223.167-.362.179a.55.55 0 0 1-.388-.113l-1.236-.951.816-.838zm-1.623 1.665l1.113.919a.54.54 0 0 1 .14.174c.035.066.056.14.061.215a.57.57 0 0 1-.143.414.56.56 0 0 1-.363.18c-.139.012-.278-.028-.388-.114l-1.237-.95.817-.838zm14.501-1.703l-17.303 7.755.575 1.284 17.304-7.755-.576-1.284z" class="D"/><path d="M268.365 177.366v1.964l-7.834 3.101a3.49 3.49 0 0 0-1.601 1.282c-.394.579-.604 1.262-.604 1.961h18.962v-8.308h-8.923z" class="F"/><path d="M273.013 183.613c.871 0 1.577-.706 1.577-1.576a1.58 1.58 0 0 0-1.577-1.577c-.871 0-1.576.706-1.576 1.577s.705 1.576 1.576 1.576zm-5.593-3.909l.641 1.293a.56.56 0 0 1 .056.217c.005.075-.007.15-.032.221a.55.55 0 0 1-.118.19c-.051.055-.113.099-.182.129-.128.056-.273.062-.405.016s-.242-.139-.308-.262l-.738-1.373 1.086-.431zm-1.911.759l.639 1.294c.034.068.053.141.057.216a.58.58 0 0 1-.032.222.55.55 0 0 1-.118.19.56.56 0 0 1-.183.129c-.128.056-.272.062-.404.016a.56.56 0 0 1-.308-.263l-.739-1.373 1.088-.431zm-2.162.855l.64 1.294a.56.56 0 0 1 .056.216.55.55 0 0 1-.033.221.54.54 0 0 1-.117.191c-.051.055-.113.099-.182.129a.56.56 0 0 1-.713-.247l-.738-1.373 1.087-.431zm13.941 4.356h-18.962v1.407h18.962v-1.407z" class="D"/><path d="M275.074 57.062c2.488.503 3.87 4.049 3.087 7.917l-.689 3.405c-.274 1.353-.425 2.728-.452 4.108l-.094 4.976-5.745-1.182 1.055-5.214c-2.488-.503-3.87-4.049-3.087-7.917s3.437-6.597 5.925-6.094z" class="E"/><mask id="F" maskUnits="userSpaceOnUse" x="268" y="57" width="11" height="21"><path d="M275.074 57.062c2.488.503 3.87 4.049 3.087 7.917l-.689 3.405c-.274 1.353-.425 2.728-.452 4.108l-.094 4.976-5.745-1.182 1.055-5.214c-2.488-.503-3.87-4.049-3.087-7.917s3.437-6.597 5.925-6.094z" class="B"/></mask><g mask="url(#F)" class="C"><path d="M268.462 64.873c.098-.073 8.394-1.244 8.567-1.545s.12-4.968.12-4.968-1.219-.486-1.638-.339-1.774 4.017-2.587 4.042-3.917-.612-3.993-.148l-.469 2.959z"/></g><path d="M272.238 71.078s1.853.092 3.459-2.068c0 0-1.039 3.262-3.638 2.955l.179-.887z" class="C"/><path d="M277.332 57.319l-.889 5.06h-9.693s1.506-7.273 8.11-6.959c0-.002 2.105.484 2.472 1.899z" class="D"/><path d="M278.374 63.189s.725-1.47 1.169-.266c.566 1.543-1.672 2.391-1.672 2.391l.503-2.125zm20.953 107.637l-4.165-12.475-9.245 3.295 6.91 12.095 6.5-2.915z" class="E"/><mask id="G" maskUnits="userSpaceOnUse" x="285" y="158" width="15" height="16"><path d="M299.327 170.826l-4.165-12.475-9.245 3.295 6.91 12.095 6.5-2.915z" class="B"/></mask><g mask="url(#G)" class="C"><path d="M287.154 166.375s7.284-2.731 9.697-5.1l-.729-2.686-11.117 3.779 2.149 4.007z"/></g><path d="M276.224 177.367l1.329-13.087-9.782-.794 1.328 13.865 7.125.016z" class="E"/><mask id="H" maskUnits="userSpaceOnUse" x="267" y="163" width="11" height="15"><path d="M276.224 177.367l1.329-13.087-9.782-.794 1.328 13.865 7.125.016z" class="B"/></mask><g mask="url(#H)" class="C"><path d="M266.979 168.864s5.842-.064 11.318-2.488l.049-3.269-11.415.379.048 5.378z"/></g><path d="M288.821 107.621l-4.597-28.016c-.189-1.154-.679-2.237-1.422-3.14s-1.71-1.594-2.805-2.003c-.844 2.004-2.705 3.005-4.24 3.506-.902.3-1.861.392-2.803.268s-1.845-.46-2.639-.983c-1.489-1.001-1.977-2.254-2.132-2.853-1.195.406-2.25 1.144-3.04 2.127a6.64 6.64 0 0 0-1.422 3.427l-3.054 27.672s-3.475 26.091-3.469 32.837c0 4.298 3.949 26.352 3.949 26.352s29.13-1.513 41.438-9.22c-.004-.003-11.887-38.532-13.764-49.974z" class="H"/><mask id="I" maskUnits="userSpaceOnUse" x="257" y="74" width="46" height="93"><path d="M288.821 107.621l-4.597-28.016c-.189-1.154-.679-2.237-1.422-3.14s-1.71-1.594-2.805-2.003c-.844 2.004-2.705 3.005-4.24 3.506-.902.3-1.861.392-2.803.268s-1.845-.46-2.639-.983c-1.489-1.001-1.977-2.254-2.132-2.853-1.195.406-2.25 1.144-3.04 2.127a6.64 6.64 0 0 0-1.422 3.427l-3.054 27.672s-3.475 26.091-3.469 32.837c0 4.298 3.949 26.352 3.949 26.352s29.13-1.513 41.438-9.22c-.004-.003-11.887-38.532-13.764-49.974z" class="B"/></mask><g mask="url(#I)"><path d="M292.49 120.09s-15.816-11.914-16.533-12.016-7.178 15.227-8.256 14.636c-3.047-1.663-8.994-4.777-8.994-5.089s10.271-21.431 12.017-22.269 24.956 14.221 24.542 15.882-2.776 8.856-2.776 8.856z" fill="#ffa648"/></g><path d="M270.315 77.245c.794.523 1.696.859 2.639.983s1.901.032 2.803-.268c1.535-.496 3.393-1.497 4.24-3.506-.742-.277-1.527-.418-2.319-.417h-7.363a6.63 6.63 0 0 0-2.132.351c.155.607.649 1.86 2.132 2.858z" class="E"/><mask id="J" maskUnits="userSpaceOnUse" x="268" y="74" width="12" height="5"><path d="M270.315 77.245c.794.523 1.696.859 2.639.983s1.901.032 2.803-.268c1.535-.496 3.393-1.497 4.24-3.506-.742-.277-1.527-.418-2.319-.417h-7.363a6.63 6.63 0 0 0-2.132.351c.155.607.649 1.86 2.132 2.858z" class="B"/></mask><g mask="url(#J)" class="C"><path d="M268.931 74.044s.876 3.534 6.485 4.145c0 0-5.276 2.398-7.907-3.794l1.422-.351z"/></g><path d="M272.6 78.176s-2.319 2.497-3.669 1.87-1.85-5.161-1.85-5.161a4.59 4.59 0 0 1 1.102-.49s1.574 3.302 4.417 3.781zm2.024.045s1.457 2.73 3.148 2.558 3.619-5.598 3.619-5.598c-.424-.31-.894-.553-1.393-.719 0 0-1.001 2.8-5.374 3.759z" class="B"/><path d="M259.742 92.157l-1.462 6.889-8.238 19.991s-4.072 3.167-3.873 3.495 2.255-.966 2.706 0-2.848 5.024-2.715 5.281 4.58.966 5.353 0 1.99-7.21 1.99-7.21l8.354-14.223 2.79-11.394-4.905-2.829z" class="E"/><mask id="K" maskUnits="userSpaceOnUse" x="246" y="92" width="19" height="37"><path d="M259.742 92.157l-1.462 6.889-8.238 19.991s-4.072 3.167-3.873 3.495 2.255-.966 2.706 0-2.848 5.024-2.715 5.281 4.58.966 5.353 0 1.99-7.21 1.99-7.21l8.354-14.223 2.79-11.394-4.905-2.829z" class="B"/></mask><g mask="url(#K)" class="C"><path d="M258.273 94.184l5.203 4.863s-8.911 16.718-8.515 19.076c0 0 13.321-21.482 12.802-22.457s-8.445-6.755-8.769-6.625-.721 5.143-.721 5.143z"/></g><path d="M300.125 100.222l-17.46-10.071 10.071-17.46L281.31 66.1l-10.071 17.46-17.46-10.071-6.592 11.426 17.46 10.071-10.071 17.46 11.426 6.591 10.072-17.46 17.459 10.071 6.592-11.426z" fill="#fe6c61"/><mask id="L" maskUnits="userSpaceOnUse" x="247" y="66" width="54" height="54"><path d="M300.125 100.222l-17.46-10.071 10.071-17.46L281.31 66.1l-10.071 17.46-17.46-10.071-6.592 11.426 17.46 10.071-10.071 17.46 11.426 6.591 10.072-17.46 17.459 10.071 6.592-11.426z" class="B"/></mask><g mask="url(#L)"><path d="M280.663 104.699l13.459-8.313-2.538-1.89-13.796 8.963 2.875 1.24zm-9.58 6.242s-2.174 1.751-2.687 1.722-4.696-3.088-4.696-3.088l9.952-2.285-2.569 3.651z" fill="#e63e36"/></g><path d="M292.901 90.837l-4.071-11.364-4.524 7.843 1.615 4.208-14.685 12.962c-.77.039-6.203.339-5.954.833.268.536 3.14-.268 3.018.806s-5.218 2.735-5.056 3.111 4.291 2.2 5.257 1.985 5.749-4.911 5.749-4.911c2.103-1.206 7.798-4.499 12.638-7.516l4.227-2.692a4.46 4.46 0 0 0 1.786-5.266z" class="E"/><mask id="M" maskUnits="userSpaceOnUse" x="263" y="79" width="31" height="33"><path d="M292.901 90.837l-4.071-11.364-4.524 7.843 1.615 4.208-14.685 12.962c-.77.039-6.203.339-5.954.833.268.536 3.14-.268 3.018.806s-5.218 2.735-5.056 3.111 4.291 2.2 5.257 1.985 5.749-4.911 5.749-4.911c2.103-1.206 7.798-4.499 12.638-7.516l4.227-2.692a4.46 4.46 0 0 0 1.786-5.266z" class="B"/></mask><g mask="url(#M)" class="C"><path d="M285.923 91.525l3.54-2.349s-2.488.244-2.978-.293-2.684-4.344-2.684-4.344l-.83.927 2.952 6.059z"/></g><path d="M87.054 37.4a16.6 16.6 0 0 0 0-23.472 16.6 16.6 0 0 0-23.472 0A16.6 16.6 0 0 0 87.054 37.4z" class="H"/><path d="M81.497 20.072c-.731-4.51-6.174-4.453-6.174-4.453s-5.447-.058-6.178 4.453 3.1 10.719 3.1 10.719h6.158s3.825-6.21 3.094-10.719z" class="B"/><path d="M77.157 31.223h-3.845c-.015.001-.031-.002-.045-.007s-.028-.014-.039-.024-.02-.023-.026-.037-.009-.029-.009-.045v-8.672a2.04 2.04 0 0 1 2.041-2.041 2.04 2.04 0 0 1 2.041 2.041v8.664c.001.016-.001.032-.007.047s-.014.029-.025.04-.025.02-.04.026-.031.008-.047.008zm-3.732-.236h3.608v-8.549c0-.478-.19-.937-.528-1.276s-.797-.528-1.276-.528-.937.19-1.276.528-.528.797-.528 1.276v8.549z" class="G"/><path d="M79.212 32.12h-7.804c-.176 0-.346-.07-.47-.195a.67.67 0 0 1-.195-.47c0-.087.017-.174.05-.255s.082-.154.144-.216.135-.111.216-.144.167-.051.255-.051h7.804c.177 0 .346.07.471.195s.195.294.195.471a.66.66 0 0 1-.196.47.67.67 0 0 1-.471.195zm.011 2.13H71.42c-.177 0-.346-.07-.471-.195s-.195-.294-.195-.47.07-.346.195-.471.294-.195.471-.195h7.804a.66.66 0 0 1 .47.196.67.67 0 0 1 .195.471.66.66 0 0 1-.195.47.67.67 0 0 1-.47.195z" class="D"/><path d="M77.447 32.123h-4.426v.796h4.426v-.796zm-1.457 3.585h-1.512c-.387 0-.757-.154-1.03-.427a1.46 1.46 0 0 1-.427-1.03h4.427a1.46 1.46 0 0 1-1.458 1.458z" class="F"/><path d="M307.285 25.706h-32.038c-.201 0-.4.039-.585.116s-.354.189-.496.331a1.53 1.53 0 0 0-.332.496c-.077.185-.116.384-.116.585V42.37c0 .201.039.4.116.585a1.53 1.53 0 0 0 .332.496 1.52 1.52 0 0 0 1.081.447h6.346l-.963 6.169c-.02.13 0 .263.058.381s.15.216.265.28.247.092.377.079.255-.066.355-.151l7.683-6.759h17.917c.201 0 .399-.039.585-.116s.354-.189.496-.331a1.53 1.53 0 0 0 .332-.496c.076-.185.116-.384.116-.585V27.234c0-.201-.04-.4-.116-.585a1.53 1.53 0 0 0-.332-.496c-.142-.142-.311-.254-.496-.331a1.53 1.53 0 0 0-.585-.116z" fill="#d4dfff"/><g class="B"><use xlink:href="#P"/><use xlink:href="#P" x="0.026" y="4.845"/><path d="M293.239 38.654h-16.807a.08.08 0 0 0-.08.08v1.825a.08.08 0 0 0 .08.08h16.807c.045 0 .081-.036.081-.08v-1.825c0-.044-.036-.08-.081-.08z"/></g><path d="M318.212 186.841H14.401v.614h303.811v-.614z" class="D"/><defs><linearGradient id="N" x1="224.855" y1="150.712" x2="324.997" y2="150.712" gradientUnits="userSpaceOnUse"><stop stop-color="#fff"/><stop offset="1" stop-color="#e8e8e8"/></linearGradient><path id="O" d="M225.994 20.364h-47.826a.11.11 0 0 0-.11.11v6.527a.11.11 0 0 0 .11.11h47.826a.11.11 0 0 0 .11-.11v-6.527a.11.11 0 0 0-.11-.11z"/><path id="P" d="M306.068 28.964h-29.662c-.059 0-.106.048-.106.106v1.773c0 .059.047.106.106.106h29.662c.059 0 .106-.048.106-.106v-1.773c0-.059-.047-.106-.106-.106z"/></defs></svg>