<svg xmlns="http://www.w3.org/2000/svg" width="452" height="398" fill="none" xmlns:v="https://vecta.io/nano"><style><![CDATA[.B{fill:#fff}.C{fill:#ff3e6c}.D{fill:#fefefe}.E{fill:#f6f7f9}.F{fill:#dbe2e8}.G{fill:#3e6dc1}.H{fill:#b4cbd8}.I{color-interpolation-filters:sRGB}]]></style><g stroke="#fff" stroke-width="2" stroke-miterlimit="10"><path opacity=".3" d="M225.877 385.575c104.973 0 190.071-85.097 190.071-190.071S330.85 5.433 225.877 5.433 35.805 90.531 35.805 195.504s85.098 190.071 190.072 190.071z"/><path opacity=".3" d="M225.876 332.282c75.54 0 136.778-61.237 136.778-136.777S301.416 58.728 225.876 58.728 89.099 119.965 89.099 195.505s61.237 136.777 136.777 136.777z"/></g><g style="mix-blend-mode:overlay" opacity=".5"><path d="M395.272 397.462H56.052c-1.376 0-2.739-.271-4.011-.798s-2.426-1.3-3.399-2.273a10.48 10.48 0 0 1-2.27-3.402c-.526-1.272-.796-2.635-.794-4.012a10.47 10.47 0 0 1 10.474-10.473h339.22a10.47 10.47 0 0 1 7.406 3.068c1.964 1.964 3.067 4.628 3.067 7.405a10.46 10.46 0 0 1-3.063 7.414 10.49 10.49 0 0 1-3.399 2.273 10.48 10.48 0 0 1-4.011.798z" fill="#212e57"/></g><path d="M73.858 111.354h304.037a8.85 8.85 0 0 1 6.256 2.592c1.659 1.659 2.591 3.909 2.591 6.255v187.552a.18.18 0 0 1-.181.181H65.226a.18.18 0 0 1-.128-.053c-.034-.034-.053-.08-.053-.128V120.201c0-2.34.927-4.585 2.579-6.243s3.893-2.595 6.234-2.604z" class="E"/><path d="M79.846 130.821h292.072v164.255c0 .048-.019.094-.052.128a.18.18 0 0 1-.128.053H80.027a.18.18 0 0 1-.128-.053c-.034-.034-.053-.08-.053-.128V130.821z" class="H"/><path d="M405.746 376.458H46.008l19.004-68.829h321.73l19.004 68.829z" class="F"/><path d="M377.127 352.19H74.626l8.203-35.285h286.107l8.191 35.285zm-91.155 18.721H166.99c-.58-.013-1.151-.15-1.674-.4a4.08 4.08 0 0 1-2.281-4.289l.961-7.197a4.04 4.04 0 0 1 1.309-2.521c.727-.655 1.667-1.023 2.645-1.038h117.062a4.04 4.04 0 0 1 3.954 3.559l.961 7.197a4.08 4.08 0 0 1-2.281 4.289c-.523.25-1.094.387-1.674.4z" class="H"/><g style="mix-blend-mode:overlay" opacity=".3"><path d="M391.826 325.943H59.938l5.073-18.314h321.731l5.084 18.314z" fill="#46435a"/></g><path d="M46.019 376.458h359.738v.52c0 2.774-1.102 5.436-3.064 7.398s-4.624 3.064-7.398 3.064H56.47c-2.773-.003-5.431-1.107-7.391-3.068s-3.06-4.621-3.06-7.394v-.52z" class="E"/><path d="M197.292 376.458h57.181v1.774a3.29 3.29 0 0 1-3.288 3.288H200.58a3.29 3.29 0 0 1-2.325-.963c-.617-.617-.963-1.453-.963-2.325v-1.774z" class="H"/><path d="M343.933 295.257h-235.66L97.279 111.354h257.647l-10.993 183.903z" fill="#46435a" style="mix-blend-mode:overlay"/><path d="M113.255 75.46h225.243c1.393 0 2.73.553 3.715 1.539s1.539 2.322 1.539 3.715v214.362c0 .024-.005.048-.014.07s-.023.041-.039.058-.037.03-.059.039-.045.014-.069.014H108.159c-.048 0-.094-.019-.127-.053a.18.18 0 0 1-.053-.128V80.702c.001-.691.139-1.375.405-2.012a5.25 5.25 0 0 1 1.145-1.703c.49-.487 1.072-.873 1.711-1.135s1.324-.395 2.015-.392z" class="F"/><path d="M113.255 75.46h225.243c1.394 0 2.73.553 3.715 1.539s1.539 2.322 1.539 3.715v23.941H108.013V80.702a5.25 5.25 0 0 1 5.242-5.242z" class="B"/><g class="G"><path d="M343.752 119.252H108.013v-14.598h235.739v14.598z"/><path d="M216.524 50.399l9.315-1.537v14.532c1.305 0 2.516-.605 3.727-.745a20.48 20.48 0 0 1 9.036.559 6.85 6.85 0 0 1 3.191 2.222c.826 1.033 1.336 2.284 1.467 3.601a32.31 32.31 0 0 1 .419 4.658v9.316c.044 1.481-.252 2.952-.866 4.301a9.7 9.7 0 0 1-2.674 3.478 12.16 12.16 0 0 1-5.683 2.282 42.48 42.48 0 0 1-12.39 0c-1.676 0-3.353-.512-5.077-.699-.465 0-.605 0-.605-.699V51.052c.093 0 .14-.279.14-.652zm9.315 35.4c1.775.28 3.582.28 5.357 0a3.21 3.21 0 0 0 2.143-1.086c.547-.626.83-1.438.791-2.268v-8.757a2.93 2.93 0 0 0-.134-1.198 2.94 2.94 0 0 0-1.577-1.755 2.95 2.95 0 0 0-1.177-.261 8.66 8.66 0 0 0-5.17 1.071.79.79 0 0 0-.242.286c-.057.113-.086.239-.084.366v13.648l.093-.047zm108.574 7.546h-9.315a1.26 1.26 0 0 1-1.212-.652l-7.638-12.809-.326-.512v13.974h-8.757c-.606 0-.792 0-.792-.792v-8.99-32.232c0-.932 0-.932.978-1.071l7.779-1.304h.745v27.016l.699-1.071 7.173-11.365a1.16 1.16 0 0 1 1.211-.698h9.316l-.42.699c-2.794 4.658-5.636 8.99-8.524 13.461-.151.202-.232.447-.232.699s.081.497.232.699c2.935 4.658 5.776 9.595 8.664 14.393l.419.559zm-121.757-8.474a3.38 3.38 0 0 1 0 .652v6.428c0 .419 0 .605-.559.745-4.254.898-8.607 1.242-12.949 1.025a15.32 15.32 0 0 1-5.915-1.444 10.11 10.11 0 0 1-6.009-8.011 29.04 29.04 0 0 1-.326-4.006v-7.033c-.01-2.589.897-5.097 2.562-7.08 1.536-1.656 3.558-2.781 5.775-3.214a21.52 21.52 0 0 1 11.272.419 9.31 9.31 0 0 1 4.54 3.017 9.32 9.32 0 0 1 2.075 5.041c.372 3.074.279 6.242.419 9.316h-16.442c-.606 0-.839 0-.746.745a13.91 13.91 0 0 0 0 1.444 2.84 2.84 0 0 0 2.842 2.608 40.49 40.49 0 0 0 5.822 0c2.375 0 4.658-.559 7.033-.838l.606.186zm-12.39-10.387h1.863c2.05 0 2.05 0 1.863-2.05a2.75 2.75 0 0 0-2.282-2.655c-.958-.139-1.93-.139-2.888 0a2.52 2.52 0 0 0-1.446.681 2.51 2.51 0 0 0-.743 1.415c-.046.698-.046 1.398 0 2.096 0 .419 0 .559.559.559l3.074-.046zm103.543 3.54c0 2.143 0 4.192-.419 6.195a9.83 9.83 0 0 1-2.545 5.805c-1.466 1.601-3.421 2.671-5.56 3.044a21.15 21.15 0 0 1-11.551-.279 9.87 9.87 0 0 1-4.84-3.108 9.88 9.88 0 0 1-2.287-5.277 31.82 31.82 0 0 1-.279-4.658v-6.894a10.24 10.24 0 0 1 2.612-6.562c1.621-1.809 3.831-2.983 6.237-3.313a21.15 21.15 0 0 1 11.04.419 9.78 9.78 0 0 1 4.774 3.078c1.252 1.476 2.038 3.29 2.259 5.213.466 2.096.419 4.239.559 6.335zm-9.642 0v-4.658c-.006-.689-.236-1.358-.657-1.904a3.17 3.17 0 0 0-1.672-1.123 6.47 6.47 0 0 0-3.4 0c-.708.12-1.352.483-1.82 1.028s-.73 1.236-.742 1.953v9.316a2.98 2.98 0 0 0 2.329 2.935 9.73 9.73 0 0 0 2.608.233c.463-.005.92-.105 1.343-.293a3.4 3.4 0 0 0 1.117-.801 3.39 3.39 0 0 0 .894-2.54v-4.145zm-20.027.322c0 1.956 0 4.239-.559 6.475a9.87 9.87 0 0 1-2.732 5.513c-1.475 1.5-3.389 2.489-5.466 2.825a21.61 21.61 0 0 1-10.899 0 10.06 10.06 0 0 1-5.086-3.024c-1.354-1.495-2.227-3.362-2.506-5.36a24.89 24.89 0 0 1-.28-3.214v-7.592c-.024-1.564.283-3.116.901-4.553a11.09 11.09 0 0 1 2.686-3.785 11.87 11.87 0 0 1 5.962-2.608c3.602-.703 7.324-.462 10.806.699a9.69 9.69 0 0 1 4.57 3.15c1.183 1.473 1.91 3.26 2.091 5.141.186 1.863.186 3.959.512 6.335zm-17.979-.279v4.052a2.92 2.92 0 0 0 0 .606c.012.647.238 1.272.642 1.778a2.94 2.94 0 0 0 1.594 1.017c.924.164 1.87.164 2.794 0a3.26 3.26 0 0 0 1.27-.257c.402-.17.765-.418 1.069-.731a3.26 3.26 0 0 0 .701-1.09 3.27 3.27 0 0 0 .221-1.276v-8.664a3.17 3.17 0 0 0-.647-1.972c-.431-.566-1.04-.971-1.729-1.148a5.73 5.73 0 0 0-3.54 0 3.03 3.03 0 0 0-2.375 2.935c-.233 1.723-.186 3.214-.186 4.751h.186zM149.635 91.715l-5.263 1.63a12.16 12.16 0 0 1-6.335 0 7.78 7.78 0 0 1-5.822-6.474 12.33 12.33 0 0 1 0-4.658 6.61 6.61 0 0 1 5.496-5.45 25.66 25.66 0 0 1 4.239-.419h5.636c.605 0 .792 0 .699-.699a7.41 7.41 0 0 1 0-1.444c0-2.422-1.165-2.934-3.075-3.028h-9.315-.932v-2.096c0-1.817.326-3.587.559-5.357 0 0 .326-.466.512-.466h11.785a17.38 17.38 0 0 1 3.773.699c1.519.404 2.874 1.271 3.876 2.482s1.601 2.704 1.713 4.272a31.96 31.96 0 0 1 .28 4.239v17.886c0 .652 0 .885-.792.838h-6.382c-.605 0-.838-.233-.885-.792s.28-.931.233-1.164zm-4.099-9.316h-2.096c-1.397 0-1.956.699-1.956 2.049a2.14 2.14 0 0 0 .103.939c.103.301.273.576.496.803a2.14 2.14 0 0 0 .793.512c.3.11.62.151.937.121 1.47.044 2.923-.327 4.192-1.071a.79.79 0 0 0 .243-.286.8.8 0 0 0 .083-.366v-2.143c0-.745 0-.606-.605-.559h-2.19zM132.96 48.022v5.263 2.143c0 .745 0 .605-.605.605h-3.68a6.19 6.19 0 0 0-1.304 0 1.54 1.54 0 0 0-.955.542c-.241.292-.365.663-.349 1.041v5.077h6.987c0 1.258 0 2.422-.373 3.587s-.28 2.376-.373 3.587c0 .512 0 .792-.792.745h-5.542V93.11h-9.316a5.79 5.79 0 0 1 0-.931V71.404c0-.605 0-.838-.839-.792s-2.515 0-3.819 0v-.792-6.102c0-1.118 0-1.025.978-1.025h2.795c.512 0 .605 0 .605-.605v-5.636c.009-2.321.929-4.546 2.562-6.195a7.78 7.78 0 0 1 4.658-2.096l9.362-.14zm51.375 23.339l-4.332-.652c-2.371-.443-4.803-.443-7.173 0-.675.091-1.294.425-1.74.94a2.79 2.79 0 0 0-.682 1.855v9.316a2.56 2.56 0 0 0 2.282 2.701 27.94 27.94 0 0 0 5.217 0c2.003 0 3.912-.559 5.869-.838h.465a2.44 2.44 0 0 1 0 .512v6.568c0 .419 0 .606-.559.745a37.54 37.54 0 0 1-10.666 1.025c-3.147-.055-6.183-1.171-8.617-3.167a10.02 10.02 0 0 1-3.447-6.987c-.21-3.335-.21-6.68 0-10.014.019-1.829.504-3.622 1.408-5.211s2.2-2.922 3.762-3.871c1.868-1.079 3.952-1.731 6.102-1.91a35.78 35.78 0 0 1 11.552.978s.559.326.559.466v7.546z" fill-rule="evenodd"/></g><path d="M323.177 197.844H192.106v29.861h131.071v-29.861z" class="B"/><path d="M323.177 227.704H192.106v67.553h131.071v-67.553z" class="E"/><path d="M319.89 231.297H195.383v63.96H319.89v-63.96z" class="B"/><path d="M277.634 219.299H227.21a2.17 2.17 0 0 1-1.53-.631c-.406-.405-.636-.954-.639-1.527a2.17 2.17 0 0 1 2.169-2.169h50.424c.576 0 1.127.228 1.534.635a2.17 2.17 0 0 1-1.534 3.692zm-23.726-8.723H227.21a2.17 2.17 0 0 1-1.534-3.692c.407-.406.959-.635 1.534-.635h26.698a2.16 2.16 0 0 1 .828.165 2.17 2.17 0 0 1 .702.471c.2.202.359.441.467.704a2.16 2.16 0 0 1 .161.829c0 .573-.227 1.122-.632 1.526a2.16 2.16 0 0 1-1.526.632zm-34.471-9.603h-23.602v23.602h23.602v-23.602z" class="F"/><path d="M207.585 204.328a4.28 4.28 0 0 0-2.136.497c-2.259 1.221-2.169 2.26-2.169 3.311l-.079 3.05c-.576-.26-.283.339-.283 1.311a1.44 1.44 0 0 0 .104.714c.095.226.246.423.439.574.079 2 1.062 2.553 1.062 2.553l-.192 2.034c-.859 0-.384.723-.667.87s-.316.938-.316.938c-8.338 3.141-7.536 4.395-7.536 4.395h23.557s.791-1.254-7.536-4.395c0 0 0-.78-.328-.938s.192-.847-.666-.87l-.193-2.034s.983-.553 1.063-2.553a1.44 1.44 0 0 0 .438-.574 1.43 1.43 0 0 0 .104-.714c0-.972.294-1.571-.283-1.311l-.079-3.05c0-1.028.113-2.09-2.169-3.311-.656-.348-1.392-.52-2.135-.497z" class="E"/><path d="M323.381 125.455H128.383v52.447h194.998v-52.447z" class="B"/><path d="M323.381 177.891H128.383v15.015h194.998v-15.015z" fill="#e6ebef"/><path d="M175.859 148.176h-37.59v37.589h37.59v-37.589z" class="F"/><path d="M157.058 153.52a6.99 6.99 0 0 0-3.389.779c-3.638 1.966-3.457 3.639-3.457 5.277l-.136 4.869c-.915-.418-.452.543-.452 2.091-.045.385.011.776.161 1.135a2.27 2.27 0 0 0 .698.91c.135 3.186 1.706 4.067 1.706 4.067l-.305 3.243c-1.367 0-.61 1.129-1.062 1.389s-.52 1.492-.52 1.492c-13.276 4.993-11.999 6.993-11.999 6.993h37.522s1.277-2-11.999-6.993c0 0-.068-1.243-.52-1.492s.305-1.367-1.062-1.389l-.305-3.243s1.559-.881 1.695-4.067a2.27 2.27 0 0 0 .704-.909c.152-.358.209-.75.166-1.136 0-1.548.452-2.509-.452-2.091l-.136-4.869c0-1.638.181-3.311-3.457-5.277-1.05-.541-2.22-.809-3.401-.779z" class="E"/><path d="M186.784 197.764h-58.401v58.401h58.401v-58.401zm0 63.971h-58.401v33.522h58.401v-33.522z" class="B"/><path d="M155.996 265.125h-24.031v30.133h24.031v-30.133zm27.342 0h-24.031v30.133h24.031v-30.133z" class="F"/><g filter="url(#A)" class="B"><path d="M298.096 210.43h134.449c2.457 0 4.814.976 6.551 2.713s2.714 4.094 2.714 6.551v23.004c0 2.457-.976 4.813-2.714 6.551s-4.094 2.713-6.551 2.713H288.831v-32.268c0-2.457.976-4.813 2.713-6.551a9.27 9.27 0 0 1 6.552-2.713z"/></g><path d="M376.087 222.948h-39.702a2.72 2.72 0 0 1-1.042-.207 2.74 2.74 0 0 1-.883-.59c-.253-.253-.454-.553-.591-.884a2.72 2.72 0 0 1 2.516-3.753h39.691a2.72 2.72 0 0 1 2.723 2.711c0 .72-.285 1.411-.794 1.922a2.72 2.72 0 0 1-1.918.801zm50.154 10.971h-89.856a2.73 2.73 0 0 1-1.041-.203 2.72 2.72 0 0 1-1.474-1.468c-.137-.33-.208-.684-.208-1.041s.071-.711.207-1.042a2.73 2.73 0 0 1 .591-.883 2.71 2.71 0 0 1 .883-.59 2.72 2.72 0 0 1 1.042-.208h89.844c.357 0 .711.071 1.041.208a2.72 2.72 0 0 1 1.468 1.474 2.73 2.73 0 0 1 .203 1.041 2.71 2.71 0 0 1-.202 1.037 2.7 2.7 0 0 1-.585.88c-.251.252-.549.452-.877.588a2.71 2.71 0 0 1-1.036.207zm-23.727 10.982h-66.129a2.74 2.74 0 0 1-1.042-.207 2.73 2.73 0 0 1-.883-.591 2.72 2.72 0 0 1-.591-.883c-.136-.33-.207-.684-.207-1.042s.071-.712.207-1.042a2.72 2.72 0 0 1 .591-.883 2.73 2.73 0 0 1 .883-.591 2.74 2.74 0 0 1 1.042-.207h66.118a2.71 2.71 0 0 1 1.04.208c.33.137.629.337.881.59s.452.554.587.884a2.71 2.71 0 0 1 .203 1.041c-.002.357-.067.709-.202 1.039s-.333.629-.584.882-.549.454-.877.591-.681.209-1.037.211zm-75.857-28.54h-29.692v29.692h29.692v-29.692z" class="F"/><path d="M311.811 220.575c-.934-.024-1.859.19-2.689.621-2.869 1.548-2.722 2.87-2.722 4.17l-.113 3.841c-.712-.328-.362.429-.362 1.65a1.79 1.79 0 0 0 .134.897c.12.283.312.53.555.718.102 2.52 1.345 3.209 1.345 3.209l-.249 2.565c-1.073 0-.474.904-.836 1.129s-.407 1.13-.407 1.13c-10.484 3.955-9.479 5.536-9.479 5.536h29.636s1.005-1.581-9.48-5.536c0 0 0-.983-.406-1.13s.237-1.129-.837-1.129l-.237-2.565s1.232-.689 1.333-3.209a1.8 1.8 0 0 0 .556-.718 1.79 1.79 0 0 0 .134-.897c0-1.221.361-1.978-.362-1.65l-.113-3.841c0-1.288.147-2.622-2.723-4.17a5.48 5.48 0 0 0-2.678-.621z" class="E"/><g filter="url(#B)" class="B"><path d="M19.265 190.793h134.449c2.458 0 4.814.976 6.552 2.714s2.713 4.093 2.713 6.551v23.003c0 2.457-.976 4.814-2.713 6.551a9.27 9.27 0 0 1-6.552 2.714H10v-32.302c.009-2.452.989-4.799 2.726-6.529a9.26 9.26 0 0 1 6.539-2.702z"/></g><path d="M97.257 203.311H57.566c-.722 0-1.415-.287-1.925-.797s-.797-1.204-.797-1.926a2.72 2.72 0 0 1 2.723-2.723h39.691a2.72 2.72 0 0 1 2.723 2.723c0 .722-.287 1.415-.797 1.926a2.72 2.72 0 0 1-1.925.797zm50.142 10.97H57.566c-.722 0-1.415-.287-1.925-.797s-.797-1.204-.797-1.926a2.71 2.71 0 0 1 .798-1.921 2.7 2.7 0 0 1 .883-.587c.33-.136.684-.205 1.041-.203h89.833c.357-.002.71.067 1.041.203a2.7 2.7 0 0 1 .883.587 2.71 2.71 0 0 1 .799 1.921 2.72 2.72 0 0 1-.798 1.926c-.253.253-.553.453-.883.59a2.72 2.72 0 0 1-1.042.207zm-23.727 10.971H57.566a2.72 2.72 0 0 1-2.723-2.723c.003-.72.291-1.41.801-1.918s1.201-.794 1.921-.794h66.106c.72 0 1.411.286 1.922.794a2.72 2.72 0 0 1 .801 1.918c.003.72-.287 1.415-.797 1.925s-1.204.798-1.926.798zm-75.857-28.538H18.123v29.692h29.692v-29.692z" class="F"/><path d="M32.969 200.938c-.93-.028-1.852.182-2.678.61-2.87 1.548-2.723 2.881-2.723 4.169l-.113 3.842c-.723-.328-.361.441-.361 1.661-.033.306.013.615.134.898s.312.53.556.717c.102 2.509 1.333 3.209 1.333 3.209l-.237 2.554c-1.073 0-.474.915-.836 1.129s-.407 1.13-.407 1.13c-10.485 3.943-9.479 5.525-9.479 5.525h29.636s1.005-1.582-9.479-5.525c0 0 0-.983-.407-1.13s.237-1.129-.836-1.129l-.237-2.554s1.231-.7 1.333-3.209c.244-.187.435-.435.556-.717s.167-.592.134-.898c0-1.22.361-1.989-.361-1.661l-.113-3.842c0-1.299.147-2.621-2.723-4.169-.829-.429-1.755-.639-2.689-.61z" class="E"/><path d="M366.462 81.821c13.078 0 23.681-10.602 23.681-23.681s-10.603-23.681-23.681-23.681-23.682 10.603-23.682 23.681 10.603 23.681 23.682 23.681z" class="C"/><path d="M380.313 54.817c0-4.644-3.582-7.909-7.231-7.909a6.89 6.89 0 0 0-4.118 1.344c-1.193.879-2.07 2.119-2.503 3.536-.434-1.416-1.312-2.655-2.504-3.534a6.9 6.9 0 0 0-4.117-1.347c-1.997.12-3.87 1.012-5.222 2.488s-2.076 3.42-2.02 5.421c0 7.039 10.801 15.095 13.468 15.942h.158.215.226.158c2.689-.847 13.49-8.903 13.49-15.942z" class="D"/><path d="M264.057 239.731a15.9 15.9 0 0 0 8.447-20.834 15.9 15.9 0 0 0-20.834-8.447 15.9 15.9 0 0 0-8.447 20.834 15.9 15.9 0 0 0 20.834 8.447z" class="C"/><path d="M267.465 225.321c.397-1.292.273-2.687-.346-3.889a5.17 5.17 0 0 0-2.964-2.54c-.959-.261-1.977-.206-2.903.156a4.64 4.64 0 0 0-2.238 1.855 4.64 4.64 0 0 0-1.009-2.728c-.621-.777-1.475-1.334-2.437-1.588-1.323-.273-2.7-.017-3.837.714s-1.941 1.878-2.241 3.195c-1.22 4.52 4.372 11.672 5.954 12.677h.102a.35.35 0 0 0 .135.057h.147.113c1.864 0 10.27-3.345 11.524-7.909z" class="D"/><path d="M124.523 40.44a14.59 14.59 0 0 0 7.895-19.059 14.59 14.59 0 0 0-19.059-7.895 14.59 14.59 0 0 0-7.895 19.059 14.59 14.59 0 0 0 19.059 7.895z" class="C"/><path d="M127 24.998c0-2.922-2.198-4.976-4.437-4.976-.909-.004-1.796.293-2.527.846s-1.271 1.333-1.536 2.225a4.34 4.34 0 0 0-1.537-2.224c-.731-.553-1.617-.85-2.526-.847-2.239 0-4.437 2.09-4.437 4.976 0 4.429 6.621 9.498 8.257 10.024h.097.132.132.097c1.636-.526 8.285-5.595 8.285-10.024z" class="D"/><path d="M261.827 33.107a15.3 15.3 0 0 1-13.39 10.468c-3.017.225-6.033-.449-8.666-1.937s-4.767-3.725-6.13-6.425a15.3 15.3 0 0 1 2.061-16.871c1.973-2.293 4.582-3.95 7.497-4.76a15.3 15.3 0 0 1 8.878.206c1.909.628 3.676 1.626 5.199 2.937a15.28 15.28 0 0 1 3.679 4.703c.906 1.794 1.449 3.749 1.598 5.753a15.29 15.29 0 0 1-.726 5.927z" class="C"/><path d="M256.472 29.086c.451-1.219.407-2.566-.123-3.753a4.97 4.97 0 0 0-2.713-2.596 4.45 4.45 0 0 0-5.05 1.661c.022-.957-.264-1.897-.818-2.678s-1.345-1.364-2.255-1.66c-1.252-.33-2.584-.162-3.713.471s-1.97 1.679-2.343 2.919c-1.424 4.327 3.581 11.445 5.039 12.507l.09.056.124.068h.147.102c1.83.09 10.089-2.666 11.513-6.994z" class="D"/><path d="M75.501 119.686a15.3 15.3 0 0 0-14.98-15.61 15.3 15.3 0 0 0-15.61 14.98 15.3 15.3 0 0 0 14.98 15.61 15.3 15.3 0 0 0 15.61-14.98z" class="C"/><path d="M68.446 115.286a4.96 4.96 0 0 0-5.649-3.966c-.934.196-1.78.687-2.413 1.401s-1.019 1.614-1.101 2.565a4.45 4.45 0 0 0-2.09-1.866c-.879-.38-1.858-.467-2.791-.247a4.96 4.96 0 0 0-3.389 6.056c1.005 4.429 8.971 7.909 10.767 8.101h.271l.136-.057h.09c1.548-.937 7.186-7.57 6.169-11.987z" class="D"/><path d="M227.706 188.148a15.3 15.3 0 0 0 5.421-20.945c-4.287-7.28-13.664-9.707-20.945-5.42a15.3 15.3 0 0 0 15.524 26.365z" class="C"/><path d="M228.739 172.252c-.038-1.3-.583-2.533-1.518-3.437s-2.186-1.405-3.487-1.399c-.946.068-1.847.432-2.575 1.04a4.52 4.52 0 0 0-1.481 2.35 4.44 4.44 0 0 0-1.778-2.193c-.816-.518-1.778-.756-2.741-.677a4.98 4.98 0 0 0-3.271 1.843c-.809 1.017-1.188 2.31-1.056 3.603.293 4.519 7.603 9.264 9.355 9.705h.101.17.135.102c1.729-.644 8.35-6.305 8.044-10.835z" class="D"/><path d="M390.645 136.689c11.565-4.887 16.977-18.224 12.09-29.788s-18.224-16.977-29.788-12.09-16.977 18.224-12.09 29.788 18.224 16.977 29.788 12.09z" class="B"/><path d="M370.368 110.949l-3.206 10.338a1.32 1.32 0 0 0 .871 1.654l3.723 1.155c.697.216 1.438-.174 1.654-.871l3.206-10.338a1.32 1.32 0 0 0-.871-1.654l-3.723-1.155c-.697-.216-1.438.174-1.654.871zm21.831 6.71l-.215-.067c.528.163 1.098.11 1.587-.147a2.09 2.09 0 0 0 1.018-1.226c.163-.528.11-1.098-.147-1.587s-.699-.854-1.226-1.017l-6.384-1.978a10.86 10.86 0 0 0 3.39-4.259c.791-2.554-.17-4.406-1.028-4.858-.365-.207-.794-.267-1.201-.168s-.762.348-.991.699c-.497.689-.486 2.259-.825 2.756-.531.724-2.26 1.356-4.937 3.209a7.69 7.69 0 0 0-2.938 4.316l-1.13 3.536-1.13 3.526-.508 1.649a1.28 1.28 0 0 0-.052.503 1.27 1.27 0 0 0 .465.875 1.28 1.28 0 0 0 .446.238l11.84 3.672a1.51 1.51 0 0 0 1.15-.107c.353-.186.619-.505.737-.888a1.51 1.51 0 0 0-.106-1.149c-.187-.354-.506-.619-.888-.737l.203.067a1.85 1.85 0 0 0 .72.082c.243-.02.479-.088.696-.2a1.85 1.85 0 0 0 .566-.451c.158-.186.277-.402.351-.634s.102-.477.082-.72a1.85 1.85 0 0 0-.2-.696c-.112-.216-.265-.409-.451-.566s-.402-.277-.634-.351l.655.203a1.84 1.84 0 0 0 .718.082 1.85 1.85 0 0 0 .694-.198c.216-.112.408-.264.565-.45a1.86 1.86 0 0 0 .351-.631c.074-.231.102-.475.082-.718a1.85 1.85 0 0 0-.648-1.259 1.87 1.87 0 0 0-.632-.351h-.045zm-63.171 61.926c4.343-8.781.746-19.42-8.035-23.764a17.74 17.74 0 0 0-23.764 8.034c-4.344 8.781-.747 19.421 8.034 23.765s19.421.746 23.765-8.035z" class="G"/><path d="M307.217 171.652l-2.88 1.006a1.03 1.03 0 0 0-.632 1.31l2.786 7.978a1.03 1.03 0 0 0 1.31.632l2.88-1.006c.536-.187.819-.773.631-1.309l-2.786-7.979a1.03 1.03 0 0 0-1.309-.632zm13.351-3.568l-.17.068a1.63 1.63 0 0 0 .93-.83c.187-.389.213-.836.07-1.243a1.63 1.63 0 0 0-2.073-1l-4.915 1.717c.398-1.375.441-2.829.124-4.226-.677-1.965-2.146-2.689-2.892-2.564a1.28 1.28 0 0 0-.829.45 1.29 1.29 0 0 0-.301.894c0 .667.757 1.661.757 2.113 0 .7-.791 1.909-1.604 4.305a6.01 6.01 0 0 0 .158 4.067l.949 2.723.949 2.723.441 1.265c.043.126.111.242.199.342a1.01 1.01 0 0 0 .315.238 1 1 0 0 0 .383.098c.133.007.266-.012.391-.056l9.14-3.186a1.21 1.21 0 0 0 .403-.236c.117-.104.213-.23.282-.371a1.18 1.18 0 0 0 .118-.451c.01-.157-.012-.314-.063-.462s-.131-.285-.235-.403a1.19 1.19 0 0 0-.371-.282c-.141-.069-.295-.109-.451-.118a1.21 1.21 0 0 0-.462.063h.158a1.44 1.44 0 0 0 .529-.265 1.42 1.42 0 0 0 .379-.454c.094-.176.15-.37.166-.569a1.43 1.43 0 0 0-.382-1.094c-.135-.146-.3-.263-.482-.343s-.381-.12-.58-.12a1.44 1.44 0 0 0-.579.122l.497-.181c.193-.051.373-.141.529-.264a1.45 1.45 0 0 0 .38-.455 1.47 1.47 0 0 0 .165-.568c.015-.199-.011-.399-.077-.587a1.46 1.46 0 0 0-.305-.508 1.45 1.45 0 0 0-1.062-.463 1.46 1.46 0 0 0-.579.122v-.011zm50.989-138.369a17.46 17.46 0 0 0-11.065-22.068 17.46 17.46 0 0 0-22.068 11.065 17.46 17.46 0 0 0 11.065 22.068 17.46 17.46 0 0 0 22.068-11.065z" class="B"/><path d="M349.216 24.517l-2.791 1.145c-.514.211-.76.798-.549 1.312l3.16 7.704c.211.514.798.76 1.312.549l2.791-1.145c.514-.211.759-.798.549-1.312l-3.16-7.704c-.211-.514-.798-.759-1.312-.549zm12.896-4.249l-.17.068c.359-.183.635-.493.776-.87a1.6 1.6 0 0 0-.019-1.165c-.152-.372-.439-.674-.803-.845s-.779-.199-1.163-.079l-4.745 1.955a8.38 8.38 0 0 0-.102-4.158c-.779-1.909-2.259-2.531-2.982-2.373a1.27 1.27 0 0 0-.792.484c-.193.255-.281.575-.248.894 0 .644.836 1.593.859 2.034 0 .689-.678 1.921-1.345 4.316a5.85 5.85 0 0 0 .362 3.988l1.13 2.633 1.073 2.621.497 1.22a1.01 1.01 0 0 0 .215.324 1 1 0 0 0 .322.217c.121.05.25.076.381.077a.99.99 0 0 0 .381-.075l8.813-3.615c.14-.058.268-.143.375-.25s.193-.234.251-.374.088-.29.089-.442-.03-.302-.088-.442a1.16 1.16 0 0 0-.25-.375c-.107-.107-.234-.193-.374-.251s-.29-.088-.442-.089a1.15 1.15 0 0 0-.442.087l.158-.068c.348-.15.622-.432.761-.783a1.43 1.43 0 0 0-.799-1.853c-.351-.14-.744-.134-1.092.016l.486-.203a1.42 1.42 0 0 0 .459-.316 1.43 1.43 0 0 0 .302-.467 1.41 1.41 0 0 0 .101-.548c-.003-.187-.042-.372-.116-.544a1.43 1.43 0 0 0-.316-.459c-.135-.131-.293-.233-.468-.303a1.41 1.41 0 0 0-.547-.101 1.44 1.44 0 0 0-.545.116h.057z" class="G"/><path d="M192.367 29.576a17.46 17.46 0 0 0-9.368-22.84 17.46 17.46 0 0 0-22.84 9.367 17.46 17.46 0 0 0 9.368 22.84 17.46 17.46 0 0 0 22.84-9.367z" class="B"/><path d="M170.469 23.143l-2.791 1.145c-.513.211-.759.798-.548 1.312l3.159 7.704c.211.514.798.759 1.312.549l2.791-1.145c.514-.211.76-.798.549-1.312l-3.16-7.704c-.21-.514-.798-.76-1.312-.549zm12.892-4.242l-.17.068c.392-.163.704-.474.867-.866s.164-.832.003-1.225a1.59 1.59 0 0 0-.343-.518 1.6 1.6 0 0 0-.516-.347 1.59 1.59 0 0 0-.609-.124 1.6 1.6 0 0 0-.611.119l-4.745 1.943a8.52 8.52 0 0 0-.09-4.158c-.78-1.898-2.26-2.531-2.983-2.373-.317.053-.601.225-.795.482a1.25 1.25 0 0 0-.244.896c0 .655.824 1.604.858 2.045 0 .678-.689 1.909-1.356 4.316a5.96 5.96 0 0 0 .362 3.988l1.13 2.621 1.073 2.632.497 1.22a1.01 1.01 0 0 0 .539.537c.243.102.516.104.761.006l8.812-3.616c.285-.117.512-.342.63-.626a1.16 1.16 0 0 0-1.511-1.521l.158-.056a1.43 1.43 0 0 0 .765-.785c.141-.353.136-.747-.013-1.096s-.433-.624-.785-.765-.748-.136-1.097.014l.486-.192a1.42 1.42 0 0 0 .774-1.847 1.41 1.41 0 0 0-.305-.461 1.42 1.42 0 0 0-1-.419 1.41 1.41 0 0 0-.542.106zm-63.575 234.066a11.6 11.6 0 0 1 .635 6.699c-.456 2.247-1.567 4.308-3.194 5.923a11.6 11.6 0 0 1-5.946 3.152 11.59 11.59 0 0 1-6.694-.683c-2.115-.884-3.92-2.376-5.187-4.287a11.59 11.59 0 0 1-1.932-6.445c.007-2.293.695-4.532 1.974-6.434s3.094-3.381 5.215-4.252a11.6 11.6 0 0 1 4.441-.868c1.522.005 3.029.31 4.434.897a11.58 11.58 0 0 1 3.754 2.527 11.62 11.62 0 0 1 2.5 3.771z" class="G"/><path d="M105.199 257.577l-1.85.759c-.341.14-.504.529-.364.87l2.101 5.122a.67.67 0 0 0 .87.364l1.85-.759a.67.67 0 0 0 .364-.87l-2.101-5.122c-.14-.341-.529-.504-.87-.364zm8.61-2.824h-.113a1.07 1.07 0 0 0 .345-.23c.099-.099.178-.216.231-.345a1.06 1.06 0 0 0 .081-.408 1.07 1.07 0 0 0-.081-.407c-.052-.129-.129-.246-.227-.345a1.06 1.06 0 0 0-.747-.312c-.139 0-.276.027-.405.081l-3.152 1.288a5.56 5.56 0 0 0-.068-2.757c-.519-1.265-1.491-1.683-1.977-1.582-.212.036-.402.153-.53.325a.84.84 0 0 0-.159.602c0 .429.554 1.062.565 1.356a26.71 26.71 0 0 1-.893 2.858 3.91 3.91 0 0 0 .238 2.655l.723 1.74.712 1.751.327.814a.69.69 0 0 0 .364.352.68.68 0 0 0 .506.009l5.853-2.406a.79.79 0 0 0 .25-.166.78.78 0 0 0 .168-.25c.038-.094.058-.194.058-.295a.77.77 0 0 0-.058-.295.78.78 0 0 0-.418-.413c-.188-.079-.399-.08-.588-.005h.102c.114-.046.218-.114.306-.2a.93.93 0 0 0 .206-.302c.049-.114.074-.235.075-.358a.92.92 0 0 0-.067-.36.95.95 0 0 0-1.232-.52l.316-.135a.95.95 0 0 0 .514-.509c.097-.231.099-.49.006-.723a.96.96 0 0 0-1.231-.508zM88.026 83.336a17.46 17.46 0 0 0 17.456-17.456 17.46 17.46 0 0 0-17.456-17.456A17.46 17.46 0 0 0 70.57 65.88a17.46 17.46 0 0 0 17.456 17.456z" class="B"/><path d="M78.616 64.306l-.574 8.307c-.038.554.38 1.034.934 1.072l3.01.208c.554.038 1.034-.38 1.072-.934l.574-8.307c.038-.554-.38-1.034-.934-1.072l-3.01-.208c-.554-.038-1.034.38-1.072.934zm17.534 1.188h-.181a1.6 1.6 0 0 0 1.158-.39c.158-.138.287-.306.38-.494s.148-.392.162-.602a1.6 1.6 0 0 0-.08-.618c-.067-.199-.173-.382-.311-.54s-.306-.287-.494-.38-.392-.148-.601-.162l-5.107-.35a8.6 8.6 0 0 0 1.751-3.774c.136-2.056-.904-3.265-1.627-3.389a1.25 1.25 0 0 0-.921.08c-.286.143-.506.389-.616.688-.26.61 0 1.808-.136 2.26-.271.633-1.457 1.412-3.13 3.276a5.94 5.94 0 0 0-1.435 3.74l-.192 2.825-.192 2.836-.09 1.322a.98.98 0 0 0 .048.382c.041.123.106.236.191.334a.98.98 0 0 0 .305.235 1 1 0 0 0 .371.1l9.502.667c.148.01.297-.009.438-.056s.271-.122.384-.219.204-.216.271-.349.106-.278.116-.426a1.13 1.13 0 0 0-.056-.438c-.047-.141-.122-.271-.219-.384a1.13 1.13 0 0 0-.776-.387h.169a1.4 1.4 0 0 0 .548-.071 1.43 1.43 0 0 0 .479-.275 1.41 1.41 0 0 0 .337-.437c.082-.166.132-.348.144-.533s-.011-.372-.071-.548a1.43 1.43 0 0 0-.275-.479 1.41 1.41 0 0 0-.437-.337c-.166-.082-.348-.132-.533-.144h.52a1.42 1.42 0 0 0 .986-.372 1.43 1.43 0 0 0 .46-.949c.026-.363-.088-.723-.319-1.005a1.42 1.42 0 0 0-.923-.509v-.124z" class="G"/><path d="M291.548 114.838a9 9 0 0 1-3.005 4.274c-1.402 1.096-3.098 1.752-4.873 1.884a9 9 0 0 1-8.705-4.92c-.802-1.588-1.114-3.379-.899-5.146a9 9 0 0 1 2.112-4.779c1.161-1.349 2.696-2.324 4.41-2.8a9 9 0 0 1 5.224.121 8.98 8.98 0 0 1 3.058 1.728c.897.771 1.632 1.711 2.165 2.767s.852 2.205.94 3.384a9 9 0 0 1-.427 3.487z" class="C"/><path d="M288.826 112.719c.255-.756.229-1.59-.072-2.325s-.855-1.313-1.542-1.611a2.33 2.33 0 0 0-1.593-.003c-.518.185-.967.547-1.281 1.033a2.93 2.93 0 0 0-.465-1.66c-.315-.485-.765-.845-1.284-1.029-.712-.205-1.469-.1-2.112.292s-1.121 1.04-1.334 1.809c-.81 2.674 2.038 7.093 2.868 7.751h.051l.071.042h.084.057c1.042.091 5.742-1.624 6.552-4.299z" class="D"/><path d="M189.055 119.579a10.34 10.34 0 0 1-.322 6c-.698 1.924-1.951 3.598-3.601 4.81s-3.621 1.907-5.666 1.998-4.071-.426-5.822-1.486-3.148-2.616-4.015-4.471a10.34 10.34 0 0 1 1.74-11.367c1.381-1.51 3.18-2.577 5.168-3.065 2.665-.655 5.481-.224 7.829 1.198a10.35 10.35 0 0 1 4.689 6.383z" class="C"/><path d="M184.547 119.196c-.185-.859-.696-1.611-1.425-2.1a3.39 3.39 0 0 0-2.484-.522c-.621.164-1.174.52-1.58 1.017s-.644 1.111-.68 1.751c-.33-.555-.83-.99-1.426-1.241s-1.256-.302-1.884-.148a3.39 3.39 0 0 0-2.26 4.146c.735 2.983 6.169 5.277 7.378 5.356h.192.091.056c1.006-.712 4.757-5.265 4.022-8.259z" class="D"/><path d="M109.263 168.217a17.46 17.46 0 0 0-7.739-23.442 17.46 17.46 0 0 0-23.442 7.739 17.46 17.46 0 0 0 7.739 23.442 17.46 17.46 0 0 0 23.442-7.739z" class="G"/><path d="M84.647 157.252l-1.918 8.103c-.128.54.206 1.082.747 1.21l2.935.695c.541.128 1.082-.207 1.21-.747l1.918-8.103c.128-.54-.206-1.082-.747-1.21l-2.936-.695c-.54-.128-1.082.206-1.21.747zm17.107 4.029h-.181c.412.098.846.027 1.206-.195s.617-.579.714-.991a1.59 1.59 0 0 0-.195-1.206c-.222-.36-.579-.618-.991-.715l-4.982-1.13a8.36 8.36 0 0 0 2.339-3.389c.475-2-.362-3.39-1.039-3.672a1.26 1.26 0 0 0-.927-.066c-.306.096-.564.306-.722.586-.35.553-.249 1.785-.486 2.158-.373.576-1.672 1.129-3.615 2.711a5.92 5.92 0 0 0-2.022 3.469l-.655 2.756-.655 2.757-.305 1.288c-.061.256-.018.526.12.751s.359.385.615.447l9.276 2.192a1.15 1.15 0 0 0 .453.015 1.16 1.16 0 0 0 .755-.467c.089-.123.153-.264.188-.413s.04-.302.015-.452a1.13 1.13 0 0 0-.159-.424 1.16 1.16 0 0 0-.308-.331 1.17 1.17 0 0 0-.413-.188h.158a1.43 1.43 0 0 0 .552.021c.184-.03.36-.095.518-.193a1.41 1.41 0 0 0 .405-.376 1.42 1.42 0 0 0 .231-.503c.043-.181.05-.368.02-.552a1.41 1.41 0 0 0-.192-.518c-.098-.159-.226-.296-.377-.405a1.41 1.41 0 0 0-.502-.231l.508.113c.366.087.751.025 1.071-.172s.548-.513.635-.878a1.42 1.42 0 0 0-1.05-1.707v-.09z" class="B"/><path d="M205.551 267.238c.395 2.877-.072 5.807-1.342 8.419s-3.286 4.789-5.793 6.255a14.68 14.68 0 0 1-8.291 1.984 14.69 14.69 0 0 1-7.997-2.955c-2.314-1.755-4.057-4.156-5.008-6.9a14.69 14.69 0 0 1 4.125-15.787 14.69 14.69 0 0 1 13.467-3.23 14.68 14.68 0 0 1 5.159 2.505 14.67 14.67 0 0 1 3.806 4.289c.975 1.666 1.612 3.508 1.874 5.42z" class="G"/><path d="M186.192 268.255l-2.507.344a.85.85 0 0 0-.725.954l.954 6.952a.85.85 0 0 0 .955.724l2.507-.344c.464-.064.788-.491.724-.955l-.953-6.951a.85.85 0 0 0-.955-.724zm11.416-.735h-.146a1.35 1.35 0 0 0 .496-.171c.153-.089.286-.207.393-.347a1.35 1.35 0 0 0 .231-.472 1.34 1.34 0 0 0 .032-.524c-.024-.175-.082-.344-.171-.497a1.36 1.36 0 0 0-.347-.393c-.141-.107-.301-.185-.472-.23a1.36 1.36 0 0 0-.524-.033l-4.282.588a7.04 7.04 0 0 0 .802-3.39c-.237-1.706-1.299-2.53-1.932-2.553a1.06 1.06 0 0 0-.742.23c-.21.168-.348.408-.388.674-.101.542.351 1.48.271 1.842-.607 1.115-1.278 2.194-2.011 3.231a5.02 5.02 0 0 0-.542 3.333l.328 2.361.327 2.373.147 1.13a.85.85 0 0 0 .329.549c.178.133.4.192.62.162l7.909-1.129c.13-.018.255-.062.367-.129s.211-.155.289-.26.134-.225.165-.353.036-.259.015-.388c-.039-.261-.18-.495-.392-.652a.99.99 0 0 0-.738-.184h.136c.16-.016.316-.063.457-.14s.266-.182.366-.308.174-.271.217-.426a1.2 1.2 0 0 0 .032-.477 1.19 1.19 0 0 0-.156-.451c-.082-.139-.191-.259-.321-.355s-.277-.164-.434-.201a1.2 1.2 0 0 0-.477-.015l.429-.056a1.21 1.21 0 0 0 .445-.151 1.19 1.19 0 0 0 .353-.31c.096-.126.166-.269.206-.422s.05-.312.028-.469a1.21 1.21 0 0 0-.154-.444 1.19 1.19 0 0 0-.737-.553c-.153-.039-.312-.047-.469-.024l.045.034z" class="B"/><defs><filter id="A" x="278.831" y="207.43" width="172.979" height="61.532" filterUnits="userSpaceOnUse" class="I"><feFlood flood-opacity="0" result="A"/><feColorMatrix in="SourceAlpha" values="0 0 0 0 0 0 0 0 0 0 0 0 0 0 0 0 0 0 127 0"/><feOffset dy="7"/><feGaussianBlur stdDeviation="5"/><feColorMatrix values="0 0 0 0 0.0862745 0 0 0 0 0.192157 0 0 0 0 0.34902 0 0 0 1 0"/><feBlend in2="A"/><feBlend in="SourceGraphic"/></filter><filter id="B" x="0" y="187.793" width="172.979" height="61.532" filterUnits="userSpaceOnUse" class="I"><feFlood flood-opacity="0" result="A"/><feColorMatrix in="SourceAlpha" values="0 0 0 0 0 0 0 0 0 0 0 0 0 0 0 0 0 0 127 0"/><feOffset dy="7"/><feGaussianBlur stdDeviation="5"/><feColorMatrix values="0 0 0 0 0.0862745 0 0 0 0 0.192157 0 0 0 0 0.34902 0 0 0 1 0"/><feBlend in2="A"/><feBlend in="SourceGraphic"/></filter></defs></svg>