<svg xmlns="http://www.w3.org/2000/svg" width="1440" height="5305" fill="none" xmlns:v="https://vecta.io/nano"><style><![CDATA[.B{fill:#8177f9}.C{fill-opacity:.1}.D{color-interpolation-filters:sRGB}.E{flood-opacity:0}]]></style><mask id="A" maskUnits="userSpaceOnUse" x="-2529" y="355" width="4959" height="4677" mask-type="alpha"><path d="M2429.81 1909.8L-1242.34 355.374-2493.71 2142.16l-34.32 644.55 1981.314 1763.51 1662.736 480.92 810.51-1640.29 503.28-1481.05z" fill="url(#I)"/></mask><g mask="url(#A)"><mask id="B" maskUnits="userSpaceOnUse" x="-2794" y="232" width="5253" height="4912" mask-type="alpha"><path d="M973.56 5143.8c-1652.711-818.2-3683.74-1955.65-3767.55-1993.35l1469.38-2918.076L2458.13 1898.18 973.56 5143.8z" fill="url(#J)"/></mask><g mask="url(#B)" class="B C"><path d="M-1610.43 2395.05c158.53-320.83 883.94-298 1414.791-35.69 530.851 262.3 1163.324 736.41 993.235 1080.63-84.288 170.58 168.232 553.04-196.261 625.08-371.041 73.34-1071.876-331.33-1339.665-463.65-530.85-262.3-1030.63-885.54-872.1-1206.37z"/><g filter="url(#C)"><path d="M-1566.86 2421.36c170.02-344.09 751.4-363.19 1163.535-159.54 412.135 203.64 888.841 600.71 718.822 944.8-84.254 170.51 99.667 518.97-205.667 620.14-310.819 102.98-849.75-221.66-1057.652-324.38-412.138-203.65-789.058-736.94-619.038-1081.02z"/></g><g filter="url(#D)"><path d="M-1561.71 2410.95c190.56-385.65 894.577-381.17 1403.476-129.71S946.607 3008.2 756.048 3393.85c-94.431 191.11 191.74 621.21-173.873 723.04-372.181 103.66-1083.332-313.12-1340.046-439.97-508.899-251.46-994.399-880.32-803.839-1265.97z"/></g><g filter="url(#E)"><path d="M-1373.43 2448.42c373.27-407.96 1297.794-441.82 1956.202-116.49 658.408 325.34 1250.768 918.71 1022.238 1381.22-113.26 229.2 458.75 878.41-3.67 988.71-470.74 112.27-1659.691-509.38-1991.827-673.5-658.413-325.33-1415.343-1107.35-982.943-1579.94z"/></g><g filter="url(#F)"><path d="M-1144.92 2406.16c246.071-498.01 1323.787-543.14 1967.518-225.06s1211.062 922.16 964.982 1420.16c-121.94 246.79-24.33 667.82-489.77 802.63-473.802 137.22-1880.491-376.77-2205.222-537.23-643.728-318.08-483.588-962.5-237.508-1460.5z"/></g><g filter="url(#G)"><path d="M-774.623 2303.73c254.296-514.64 1340.857-528.97 1999.263-203.64 658.41 325.34 1237.31 945.95 983.02 1460.59-126.02 255.03-1204.91 195.69-1682.501 336.68-486.171 143.52-1349.504-370.34-1681.639-534.45-658.41-325.34 127.56-544.54 381.857-1059.18z"/></g><g filter="url(#H)"><path d="M-1070.6 2639.08c222.512-450.31 1281.707-409.26 1940.116-83.93 658.404 325.34 1253.924 912.33 1031.414 1362.64-110.27 223.16-69.01 580.64-527.88 683.76-467.124 104.96-1334.789-400.12-1666.924-564.24-658.409-325.33-999.236-947.92-776.726-1398.23z"/></g></g></g><defs><filter id="C" x="-1618.61" y="2120.73" width="1979.39" height="1735.9" filterUnits="userSpaceOnUse" class="D"><feFlood class="E"/><feBlend in="SourceGraphic"/><feGaussianBlur stdDeviation="4.971"/></filter><filter id="D" x="-1638.83" y="2070.06" width="2466.04" height="2098.02" filterUnits="userSpaceOnUse" class="D"><feFlood class="E"/><feBlend in="SourceGraphic"/><feGaussianBlur stdDeviation="17.398"/></filter><filter id="E" x="-1550.21" y="2062.59" width="3384.59" height="2702.45" filterUnits="userSpaceOnUse" class="D"><feFlood class="E"/><feBlend in="SourceGraphic"/><feGaussianBlur stdDeviation="24.854"/></filter><filter id="F" x="-1494.69" y="1844.95" width="3475.17" height="2716.18" filterUnits="userSpaceOnUse" class="D"><feFlood class="E"/><feBlend in="SourceGraphic"/><feGaussianBlur stdDeviation="67.105"/></filter><filter id="G" x="-1746.26" y="1548.54" width="4348.17" height="2706.87" filterUnits="userSpaceOnUse" class="D"><feFlood class="E"/><feBlend in="SourceGraphic"/><feGaussianBlur stdDeviation="166.519"/></filter><filter id="H" x="-1292.63" y="2151.93" width="3395.15" height="2617.93" filterUnits="userSpaceOnUse" class="D"><feFlood class="E"/><feBlend in="SourceGraphic"/><feGaussianBlur stdDeviation="77.046"/></filter><linearGradient id="I" x1="-502.146" y1="2298.18" x2="-975.45" y2="3378.48" gradientUnits="userSpaceOnUse"><stop stop-color="#c4c4c4"/><stop offset=".943" stop-color="#c4c4c4" stop-opacity="0"/></linearGradient><linearGradient id="J" x1="-993.308" y1="2705.57" x2="930.751" y2="4150.41" gradientUnits="userSpaceOnUse"><stop stop-color="#c4c4c4"/><stop offset="1" stop-color="#c4c4c4" stop-opacity="0"/></linearGradient></defs></svg>