<svg xmlns="http://www.w3.org/2000/svg" xmlns:xlink="http://www.w3.org/1999/xlink" width="511" height="446" fill="none" xmlns:v="https://vecta.io/nano"><style><![CDATA[.B{fill:#071a24}.C{fill:#fff}.D{fill:#3856f8}.E{fill:#455a64}.F{fill:#fafafa}.G{fill:#e5baab}.H{fill:#b78876}.I{fill:#a36957}.J{fill:#f4f9ff}]]></style><path d="M60.946 277.327C5.346 166.87 88.966 119.891 199.423 64.291s143.89-32.174 199.49 78.284S416.1 247.47 373.134 326.804c-19.69 15.607-238.797 144.401-312.188-49.477z" class="C"/><path d="M511 359.902c0 .125-114.403.216-255.488.216S0 360.027 0 359.902s114.378-.216 255.512-.216l255.488.216z" class="B"/><path d="M396.056 109.66h-283.05c-2.345 0-4.593.932-6.25 2.59a8.84 8.84 0 0 0-2.589 6.252v200.009a8.84 8.84 0 0 0 2.589 6.252c1.657 1.658 3.905 2.59 6.25 2.59h108.632s6.909 21.377-14.509 32.44H308.71s-24.188-8.318-17.968-32.44h105.323c1.163.003 2.315-.223 3.39-.666s2.052-1.094 2.876-1.915a8.84 8.84 0 0 0 1.922-2.872c.446-1.074.675-2.226.675-3.389V118.502a8.83 8.83 0 0 0-.676-3.391c-.446-1.075-1.1-2.051-1.924-2.873a8.84 8.84 0 0 0-2.879-1.914 8.83 8.83 0 0 0-3.393-.664z" fill="#0285fe"/><path d="M258.314 306.341c3.85 5.507-2.178 11.537-7.683 7.686-.184-.13-.344-.29-.474-.474-3.841-5.507 2.179-11.529 7.683-7.686a2.13 2.13 0 0 1 .474.474z" class="E"/><path d="M395.2 121.655H113.271a2.72 2.72 0 0 0-2.718 2.72v165.081a2.72 2.72 0 0 0 2.718 2.72H395.2a2.72 2.72 0 0 0 2.719-2.72V124.375a2.72 2.72 0 0 0-2.719-2.72z" fill="#e6e6e6"/><path d="M397.678 134.231H110.312V292.258H397.678V134.231Z" class="C"/><path d="M134.125 128.243c0 .454-.134.898-.387 1.276s-.61.671-1.029.845a2.3 2.3 0 0 1-1.326.131c-.446-.089-.854-.308-1.175-.629a2.29 2.29 0 0 1-.628-1.175c-.089-.445-.044-.907.13-1.327a2.3 2.3 0 0 1 2.12-1.417c.608.002 1.191.245 1.621.675s.672 1.013.674 1.621zm-13.911 0c0 .454-.134.898-.387 1.276s-.61.671-1.029.845a2.3 2.3 0 0 1-2.501-.498 2.29 2.29 0 0 1-.628-1.175 2.3 2.3 0 0 1 2.25-2.744c.608.002 1.191.245 1.621.675s.672 1.013.674 1.621zm6.677 0a2.3 2.3 0 0 1-.387 1.276c-.252.377-.61.671-1.03.845s-.88.219-1.326.131a2.3 2.3 0 0 1-.827-4.161 2.3 2.3 0 0 1 2.895.288c.43.43.673 1.013.675 1.621z" class="E"/><path d="M242.923 191.594h-22.358v2.836h22.358v-2.836z" fill="#dadada"/><path d="M326.146 200.727H220.565v47.554h105.581v-47.554z" fill="#f5f5f5"/><g fill="#dadada"><path d="M224.382 244.206l29.858-30.087 25.892 22.875 14.002-12.511 26.948 19.723h-96.7zm57.272-25.687a3.55 3.55 0 0 1-4.234 3.476c-.687-.137-1.318-.475-1.813-.97a3.55 3.55 0 0 1-.768-3.862 3.54 3.54 0 0 1 1.305-1.59c.582-.39 1.267-.597 1.968-.597a3.54 3.54 0 0 1 2.504 1.037c.664.665 1.038 1.566 1.038 2.506z"/><path d="M320.825 244.338c-.011-.063-.011-.128 0-.191v-.557l-.059-2.138-.116-8.077-.241-28.714.465.2h-96.06c-.133.05 1.014-.441.532-.225v5.374 5.29 10.248l-.05 18.749-.474-.2 69.462.1 19.589.058h5.197 1.821a3.61 3.61 0 0 1-.416 0h-1.297-5.105l-19.49.05-69.761.108h-.474v-.208l-.05-18.749v-10.248-10.53l.549-.241h96.061.465v.199l-.233 28.839-.124 8.035-.05 2.096v.541c0 .141-.133.2-.141.191z"/></g><g class="D"><path d="M230.95 262.713c-.008.819-.258 1.618-.718 2.295s-1.109 1.204-1.867 1.514a4.16 4.16 0 0 1-2.393.227c-.803-.162-1.54-.557-2.119-1.137a4.16 4.16 0 0 1-1.135-2.119c-.162-.803-.083-1.635.226-2.394s.836-1.408 1.513-1.868a4.16 4.16 0 0 1 2.294-.718c1.113.002 2.18.445 2.967 1.232a4.21 4.21 0 0 1 1.232 2.968z"/><use xlink:href="#D"/><use xlink:href="#E"/><path d="M269.398 266.914a9.1 9.1 0 0 1-1.38.083l-3.758.067-12.389.066c-4.84 0-9.23 0-12.398-.066l-3.758-.067a9.09 9.09 0 0 1-1.38-.083c.456-.074.918-.105 1.38-.091l3.758-.067 12.398-.067 12.389.067 3.758.067c.462-.014.924.017 1.38.091zm-42.647 15.895a4.201 4.201 0 1 0 0-8.401 4.201 4.201 0 1 0 0 8.401z"/><use xlink:href="#E" y="12.951"/><use xlink:href="#D" y="18.883"/><path d="M269.398 282.81a7.87 7.87 0 0 1-1.38.083l-3.758.067-12.389.066c-4.84 0-9.23 0-12.398-.066l-3.758-.067c-.462.013-.923-.015-1.38-.083.457-.068.918-.096 1.38-.083l3.758-.067 12.398-.066 12.389.066 3.758.067a7.87 7.87 0 0 1 1.38.083z"/></g><path d="M397.919 133.99H110.553v47.214h287.366V133.99z" fill="#0285fe"/><path d="M179.599 181.221c0 4.771-1.415 9.435-4.064 13.402a24.11 24.11 0 0 1-10.822 8.884 24.1 24.1 0 0 1-13.931 1.373 24.11 24.11 0 0 1-12.347-6.602 24.13 24.13 0 0 1-6.599-12.351c-.93-4.679-.453-9.529 1.372-13.937a24.13 24.13 0 0 1 8.881-10.826c3.966-2.651 8.628-4.065 13.397-4.065 6.395 0 12.528 2.541 17.05 7.065s7.063 10.659 7.063 17.057z" class="F"/><path d="M184.338 233.75c0 .133-12.373.241-27.63.241s-27.639-.108-27.639-.241 12.373-.233 27.639-.233l27.63.233zm0 6.122c0 .124-12.373.232-27.63.232s-27.639-.108-27.639-.232 12.373-.233 27.639-.233l27.63.233zm0 6.113c0 .133-12.373.233-27.63.233s-27.639-.1-27.639-.233 12.373-.233 27.639-.233l27.63.233zm-23.514 6.289c0 .133-7.176.233-16.023.233s-16.031-.1-16.031-.233 7.176-.233 16.031-.233 16.023.067 16.023.233zm-31.754-28.215h38.081v-2.787H129.07v2.787z" class="B"/><path d="M140.378 199.629c4.243 3.675 9.669 5.699 15.282 5.699a23.35 23.35 0 0 0 15.283-5.699c-1.281-4.359-4.391-9.533-11.949-10.681 1.697-.75 3.136-1.982 4.139-3.544s1.523-3.384 1.499-5.24c0-5.232-3.941-9.49-8.847-9.515s-8.897 4.159-8.922 9.441a9.47 9.47 0 0 0 1.493 5.278c1.008 1.574 2.459 2.814 4.169 3.564-7.674 1.164-10.842 6.363-12.147 10.697z" class="D"/><path d="M150.422 261.781h-21.353v2.604h21.353v-2.604zm289.629-129.736a2.57 2.57 0 0 0 .532.058l1.563.116a17.02 17.02 0 0 1 2.494.333c.491.1 1.031.141 1.589.308l1.771.49c3.022.92 5.875 2.325 8.447 4.159 3.391 2.465 6.224 5.617 8.315 9.25 1.228 2.098 2.207 4.331 2.919 6.655a32.12 32.12 0 0 1 1.264 7.769 31.72 31.72 0 0 1-.075 4.159c0 .707-.183 1.397-.275 2.113a15.6 15.6 0 0 1-.399 2.121 30.21 30.21 0 0 1-3.209 8.318c-3.146 5.634-8.045 10.085-13.952 12.677a27.12 27.12 0 0 1-9.837 2.212 26.62 26.62 0 0 1-10.269-1.48l-1.006-.375-.133-.041-.116.058-14.443 7.336.424.366 4.474-13.891.058-.166-.133-.133c-3.506-3.531-6.108-7.857-7.583-12.61-1.321-4.346-1.695-8.924-1.098-13.426a30.84 30.84 0 0 1 10.319-19.373c2.154-1.812 4.539-3.331 7.092-4.516a30.74 30.74 0 0 1 5.995-1.889l2.245-.382 1.663-.117 1.015-.075a1.86 1.86 0 0 0 .34-.049h-.34-1.023l-1.663.066-2.262.341c-2.084.39-4.121.998-6.078 1.813a31.87 31.87 0 0 0-7.217 4.501c-5.815 5.004-9.581 11.979-10.576 19.589-.626 4.577-.261 9.235 1.072 13.658 1.482 4.863 4.121 9.293 7.691 12.91l-.066-.3-4.498 13.875-.225.698.657-.332 14.451-7.32h-.258l1.031.374c3.364 1.191 6.93 1.706 10.493 1.514a27.76 27.76 0 0 0 10.053-2.271 30.77 30.77 0 0 0 11.272-8.645 30.78 30.78 0 0 0 6.189-12.791c.182-.708.315-1.428.399-2.154.092-.724.241-1.431.274-2.146.107-1.406.126-2.817.059-4.226a32.53 32.53 0 0 0-1.356-7.885c-.731-2.355-1.736-4.616-2.993-6.738a30.09 30.09 0 0 0-8.489-9.316c-2.611-1.847-5.507-3.252-8.573-4.159l-1.804-.466a13.62 13.62 0 0 0-1.605-.274 16.21 16.21 0 0 0-2.494-.283l-1.572-.05-.54.042z" class="B"/><path d="M433.523 158.796h2.112l4.623-6.439v-4.225s3.268-.2 2.886 5.332 0 4.159 0 4.159 6.942 0 7.483.632c.416.441.607 7.336.682 11.088.044.903-.216 1.795-.737 2.534a4.05 4.05 0 0 1-2.14 1.542c-.244.066-.496.099-.749.1-1.729 0-10.584-1.406-10.584-1.406h-3.65l.074-13.317zm-6.061-1.156l1.297 14.481h3.625v-14.19l-4.922-.291zm41.432 53.876H340.905c-1.323 0-2.592.526-3.527 1.462a4.99 4.99 0 0 0-1.461 3.529v40.6c0 1.324.525 2.594 1.461 3.529a4.99 4.99 0 0 0 3.527 1.462h2.927v14.757l14.534-14.723h110.587c1.323 0 2.592-.526 3.527-1.462a4.99 4.99 0 0 0 1.461-3.529v-40.634c.001-.661-.13-1.314-.385-1.924a4.99 4.99 0 0 0-1.096-1.626c-.47-.464-1.027-.831-1.639-1.078a4.99 4.99 0 0 0-1.927-.363z" class="D"/><path d="M435.062 243.881l.058-8.775c-.679-1.766-.822-3.693-.411-5.54s1.358-3.531 2.722-4.841c4.79-4.933 7.999-3.835 9.845-3.801 1.713 0 10.377 2.071 12.788 12.269.1.432.183 1.231.258 1.979l.133 1.331a10.7 10.7 0 0 0 1.638 5.134 10.68 10.68 0 0 0 3.933 3.683 21.12 21.12 0 0 0 1.732-10.241c-.284-3.504-1.439-6.883-3.359-9.828s-4.546-5.363-7.638-7.035a21.09 21.09 0 0 0-10.067-2.541c-4.63-.003-9.133 1.517-12.815 4.326s-6.338 6.751-7.56 11.219a21.13 21.13 0 0 0 .797 13.507 21.12 21.12 0 0 0 8.827 10.251c-.979-3.612-1.277-7.375-.881-11.097z" class="F"/><path d="M435.078 244.388v-.507c-.4 3.732-.101 7.507.882 11.129a20.74 20.74 0 0 0 4.423 1.98c-.066-2.944-.307-7.128-.307-7.128s-4.798-.599-4.998-5.474z" class="B"/><path d="M452.797 235.43s-7.808-.899-9.063-8.21v.041c-.483 1.107-1.331 3.477-.832 5.407l-6.968 1.722-.831.715-.058 8.776v.507c.199 4.875 4.989 5.474 4.989 5.474a11.63 11.63 0 0 0 6.319-2.072s-1.488 3.552-6.236 3.269l-.083-1.197a247.76 247.76 0 0 0 .307 7.128 21.2 21.2 0 0 0 11.691.275l.765-21.835zm-9.62 1.181a.62.62 0 0 1 .177-.438c.058-.057.126-.103.201-.133a.6.6 0 0 1 .237-.045.63.63 0 0 1 .428.195c.112.118.173.275.171.437s-.064.316-.178.43-.268.178-.429.178a.61.61 0 0 1-.607-.608v-.016zm-.142-1.057c.268-.216.596-.344.94-.366.347-.017.689.083.973.283.208.158.291.308.257.341s-.557-.249-1.214-.216-1.105.408-1.18.324.05-.191.249-.366h-.025zm-7.242-.124c.268-.217.596-.345.94-.366a1.56 1.56 0 0 1 .973.282c.207.15.291.308.249.342s-.549-.25-1.206-.217-1.105.408-1.189.325.059-.158.258-.366h-.025zm.349 1.056c0-.08.016-.16.047-.234a.61.61 0 0 1 .134-.198c.057-.057.125-.101.2-.131s.154-.045.235-.044c.152.017.292.09.393.205a.62.62 0 0 1 0 .829c-.101.115-.241.188-.393.205-.083-.001-.164-.018-.239-.052s-.142-.083-.198-.143-.097-.133-.124-.211-.037-.161-.03-.243l-.025.017zm2.852 5.074c-.063-.016-.122-.047-.171-.091a.41.41 0 0 1-.111-.158c-.053-.238-.027-.486.074-.707l.449-1.39c.352-1.204.794-2.38 1.323-3.518-.259 1.228-.609 2.435-1.048 3.61l-.474 1.381c-.088.165-.126.353-.108.54 0 .117.191.15.357.158.361.006.719.062 1.065.167-.356.048-.717.048-1.073 0-.085.016-.172.019-.258.008h-.025zm2.495 2.396c-.382.152-.804.168-1.197.046a1.79 1.79 0 0 1-.957-.72c1.339 0 3.85-1.497 3.185-1.056a1.42 1.42 0 0 1 .034.551c-.024.184-.085.362-.179.522a1.39 1.39 0 0 1-.365.414c-.148.113-.317.195-.496.243h-.025z" class="G"/><path d="M437.357 236.511a.62.62 0 0 0-.169-.44c-.055-.059-.122-.106-.196-.139a.61.61 0 0 0-.234-.053c-.152.018-.292.09-.394.205a.62.62 0 0 0-.158.415c0 .153.056.3.158.415a.62.62 0 0 0 .394.204.61.61 0 0 0 .421-.183.62.62 0 0 0 .178-.424zm-.583-1.039c.657 0 1.14.308 1.206.216s0-.191-.249-.341c-.284-.2-.626-.3-.973-.283s-.672.15-.94.366c-.199.175-.266.333-.233.366s.533-.299 1.189-.324zm7.642 1.156c.002-.162-.059-.32-.171-.438s-.265-.187-.428-.194c-.165 0-.324.066-.441.183a.62.62 0 0 0-.182.441c0 .165.065.324.182.441s.276.183.441.183a.62.62 0 0 0 .599-.616zm-.408-.99c.657 0 1.139.308 1.214.216s-.05-.183-.258-.341c-.283-.2-.626-.3-.972-.283s-.672.15-.94.366c-.2.175-.266.333-.224.366s.54-.324 1.18-.324zm-3.633 5.914a3.85 3.85 0 0 0-1.065-.166c-.166 0-.324 0-.357-.158a.96.96 0 0 1 .108-.541l.474-1.381c.439-1.175.789-2.382 1.047-3.61a25.05 25.05 0 0 0-1.322 3.519l-.449 1.389c-.101.221-.127.469-.074.707a.42.42 0 0 0 .111.159.43.43 0 0 0 .171.091.84.84 0 0 0 .283 0c.356.045.717.042 1.073-.009z" class="B"/><path d="M439.344 243.282c.227.347.568.603.964.726s.822.105 1.206-.052c.182-.045.353-.125.504-.237s.277-.251.373-.412a1.43 1.43 0 0 0 .186-.525c.026-.186.015-.375-.032-.556.632-.441-1.863 1.081-3.201 1.056z" class="C"/><path d="M446.378 247.79a11.64 11.64 0 0 1-6.319 2.071l.083 1.198c4.748.283 6.236-3.269 6.236-3.269z" fill="#d78776"/><path d="M460.447 236.528c0-.35-.083-.832-.133-1.331l-.258-1.98c-2.411-10.198-11.075-12.244-12.788-12.269-1.846 0-5.055-1.131-9.845 3.801-1.364 1.311-2.311 2.995-2.722 4.841a9.6 9.6 0 0 0 .411 5.54l.831-.715 6.968-1.722c-.516-1.93.333-4.301.831-5.407v-.041c1.256 7.311 9.064 8.21 9.064 8.21l-.749 21.81c.291-.075.574-.15.832-.242a21.15 21.15 0 0 0 7.815-4.4c2.26-2.009 4.064-4.479 5.289-7.245a10.69 10.69 0 0 1-3.927-3.702c-.97-1.549-1.528-3.322-1.619-5.148z" class="B"/><path d="M417.9 226.422h-66.368v3.66H417.9v-3.66zm0 9.416h-66.368v3.66H417.9v-3.66zm-33.475 9.149h-32.893v3.66h32.893v-3.66z" class="F"/><path d="M462.7 353.039l-1.547-7.877-14.767 2.77 2.145 11.554.923-.117c4.157-.549 20.903-3.077 23.473-4.425 2.86-1.464-10.227-1.905-10.227-1.905z" class="D"/><g class="J"><path d="M453.861 358.379a5.22 5.22 0 0 0-2.495-2.786c-1.124-.594-2.429-.745-3.658-.425l.781 4.159 5.372-.948z"/><path d="M469.135 353.472s4.639.432 4.232 1.264-17.278 4.018-24.836 4.783l-.042-.341 19.706-3.552s.092-1.955.94-2.154z"/></g><g class="B"><path d="M448.256 359.211h.258l.74-.091 2.711-.391 8.888-1.522 8.839-1.822 2.661-.624.756-.174.25-.075-.258.041-.732.15-2.677.557-8.839 1.772-8.88 1.572-2.694.449-.731.133-.292.025z"/><path d="M468.229 355.851a6.23 6.23 0 0 1 .258-1.373c.193-.426.436-.828.723-1.198-.429.252-.746.656-.89 1.132a2.03 2.03 0 0 0-.091 1.439zm-4.773-1.38c.05 0 .208-.275.357-.657.116-.225.181-.472.192-.724-.05 0-.208.274-.358.657s-.241.699-.191.724zm-1.314-.408c.042 0 .241-.167.449-.449s.349-.524.316-.558-.249.175-.457.449-.349.524-.308.558zm-1.022-1.256c.53.037 1.061-.057 1.546-.274a1.81 1.81 0 0 0-.831.049c-.251.028-.494.104-.715.225zm-.483-.933a1.51 1.51 0 0 0 .915.092c.3-.011.59-.112.831-.291a5.32 5.32 0 0 0-.889.108 5.6 5.6 0 0 0-.857.091z"/><path d="M463.714 353.082c.325-.001.646-.063.948-.183a5.71 5.71 0 0 0 .964-.416 2.41 2.41 0 0 0 .532-.35.47.47 0 0 0 .125-.148c.032-.057.051-.12.058-.184.002-.074-.018-.147-.056-.21s-.094-.115-.16-.148a1.76 1.76 0 0 0-1.193.091c-.375.168-.68.463-.861.832a1.67 1.67 0 0 0-.191.691c-.021.084-.021.173 0 .258a2.67 2.67 0 0 1 .275-.89 1.78 1.78 0 0 1 .715-.683c.172-.097.363-.159.56-.182a1.49 1.49 0 0 1 .587.049c.166.084.141.267 0 .4-.15.129-.315.241-.49.332-.295.171-.604.315-.923.433-.533.216-.898.283-.89.308z"/><path d="M463.963 353.08a.9.9 0 0 0 0-.673c-.079-.244-.212-.466-.391-.649a.99.99 0 0 0-.398-.278c-.154-.058-.32-.077-.483-.055a.39.39 0 0 0-.206.203c-.04.091-.044.194-.01.288a1.13 1.13 0 0 0 .249.399c.163.184.348.349.549.491.179.145.395.24.623.274 0 0-.224-.133-.54-.382-.185-.146-.355-.311-.507-.491-.167-.183-.325-.524-.1-.607s.524.116.707.283a1.66 1.66 0 0 1 .382.565c.069.205.111.417.125.632zm-16.164 2.04s.407-.125 1.098-.175a4.71 4.71 0 0 1 2.564.534c.787.416 1.44 1.047 1.884 1.82.341.591.449 1.015.482 1.006-.004-.102-.024-.203-.058-.299-.075-.267-.181-.523-.316-.765a4.58 4.58 0 0 0-1.912-1.922 4.65 4.65 0 0 0-2.661-.499 3.76 3.76 0 0 0-.832.175c-.157.066-.257.108-.249.125zm.366-6.439a26.61 26.61 0 0 0 .441 3.052 26.25 26.25 0 0 0 .632 3.028 26 26 0 0 0-.449-3.053c-.151-1.02-.359-2.031-.624-3.027zm7.284 7.91a8.18 8.18 0 0 0 2.195-.199c.733-.094 1.45-.29 2.129-.583 0-.05-.965.192-2.162.408l-2.162.374zm-2.894.541c0 .042.116.191.258.391s.233.391.282.383 0-.25-.133-.483-.382-.341-.407-.291zm-1.347-1.148c0 .042.092.175.275.3s.357.199.382.158-.091-.183-.274-.308-.358-.192-.383-.15z"/><path d="M449.529 355.66h.449c.233 0 .407.125.44.083s-.133-.225-.415-.266-.499.141-.474.183zm-1.164-.084c0 .05.083.108.216.133s.249 0 .258-.05-.092-.108-.225-.133-.241 0-.249.05zm-49.573-17.301s20.429-45.75 39.653-46.141c0 0 11.084-2.495 15.416 20.105 2.178 11.338 9.47 38.563 9.47 38.563l-19.398 3.327-7.251-33.788-9.187 20.97-28.703-3.036z"/></g><g class="E"><path d="M442.628 352.465l.573 2.471 21.095-3.993-.491-2.595-21.177 4.117zm-12.922-41.631c0 .108-.291.316-.74.44s-.881.084-.831-.05.308-.241.748-.366.79-.141.823-.024zm6.494-1.165a5.81 5.81 0 0 1-1.663.232c-.545.13-1.11.149-1.663.059 0-.117.682-.391 1.614-.491s1.737.066 1.712.2zm3.6 4.99c-.116 0-.44-.64-.74-1.497s-.44-1.597-.324-1.663.441.615.732 1.489.449 1.597.332 1.671zm1.763 6.356c-.116 0-.399-.666-.632-1.548s-.332-1.663-.216-1.663.399.665.632 1.547.332 1.63.216 1.664zm1.613 6.438c-.116 0-.39-.674-.607-1.564s-.307-1.663-.191-1.663.391.665.607 1.555.316 1.647.191 1.672zm1.555 6.446c-.116 0-.383-.665-.59-1.564s-.291-1.663-.175-1.663.382.674.59 1.564.283 1.638.175 1.663zm1.505 6.472c-.116 0-.374-.683-.582-1.573s-.283-1.663-.166-1.663.382.674.582 1.564.282 1.638.166 1.672zm1.472 6.471c-.117 0-.374-.674-.582-1.572s-.266-1.664-.15-1.664.374.674.574 1.573.274 1.638.158 1.663z"/><path d="M448.789 351.708c-.117 0-.291-.316-.391-.765s-.083-.832 0-.832.291.316.391.757.116.807 0 .84z"/></g><path d="M366.863 275.133l-2.586.208-7.101 16.087 4.366 17.626c2.344 8.177-4.224 18.608-5.347 25.886l37.816.956 1.862-24.879 1.256 11.038 16.355 2.063-8.805-31.085c-4.74-17.9-20.089-17.709-20.089-17.709" class="D"/><path d="M383.659 275.124c-.232-1.398.3-6.505.3-6.505s5.346-.565 5.67-5.872 0-17.543 0-17.543l-9.745-4.766-9.204 8.209.108 26.444 12.871.033z" class="H"/><g class="B"><path d="M388.149 254.071a.68.68 0 0 1-.115.379c-.075.112-.181.199-.306.251a.68.68 0 0 1-.394.039c-.132-.027-.253-.092-.349-.187a.68.68 0 0 1-.186-.349c-.027-.132-.013-.27.039-.394s.139-.231.251-.306a.68.68 0 0 1 .378-.115c.181 0 .355.072.483.199s.199.302.199.483z"/><path d="M389.13 253.58c-.091.092-.59-.333-1.322-.374s-1.28.308-1.355.216.05-.208.291-.374a1.82 1.82 0 0 1 1.089-.283 1.76 1.76 0 0 1 1.048.416c.249.191.307.366.249.399zm-8.88.358a.68.68 0 0 1-.423.631c-.125.051-.263.064-.395.037a.68.68 0 0 1-.349-.189c-.095-.096-.159-.218-.185-.351s-.01-.27.043-.395a.68.68 0 0 1 1.309.267z"/><path d="M381.248 253.455c-.091.091-.59-.333-1.322-.374s-1.28.307-1.355.216.05-.208.291-.374c.321-.213.705-.312 1.089-.283a1.76 1.76 0 0 1 1.048.416c.216.191.291.366.249.399zm2.511 6.106c.39-.105.793-.158 1.197-.158.183 0 .366 0 .399-.167a1.03 1.03 0 0 0-.1-.59l-.498-1.514c-.467-1.289-.842-2.61-1.123-3.951.563 1.247 1.033 2.534 1.405 3.851l.482 1.53a1.18 1.18 0 0 1 .067.766.45.45 0 0 1-.122.167c-.054.044-.117.076-.186.091a1.17 1.17 0 0 1-.324 0 4.94 4.94 0 0 1-1.197-.025z"/></g><path d="M381.339 260.251a8 8 0 0 0 3.534 1.214 2.02 2.02 0 0 1-2.419.691c-1.564-.657-1.115-1.905-1.115-1.905z" class="C"/><path d="M383.959 268.619c-2.523-.107-4.962-.929-7.035-2.371 0 0 1.597 3.893 6.918 3.677l.117-1.306z" class="I"/><g class="B"><path d="M361.949 254.071l.133-1.073c.05-.433 0-.516 0-.516l.316-2.703c2.262-13.966 14.044-13.143 14.044-13.143.632 0 4.382-.324 8.988 2.895a12.75 12.75 0 0 1 4.25 4.475c1.03 1.817 1.597 3.859 1.654 5.947.025.744-.022 1.487-.142 2.221-.025.27-.092.534-.199.782-.092 0 .158-1.148 0-2.986-.098-1.368-.401-2.714-.898-3.993.625 2.2.481 4.548-.408 6.655l-9.445-1.472c.607-2.08.158-5.366-.125-6.979-1.663 7.727-8.315 11.437-8.315 11.437l-.79-.125v11.754c-8.04-1.714-9.013-9.716-9.046-13.176h-.017z"/><path d="M362.407 250.252a6.72 6.72 0 0 0-4.506-2.229c-1.733-.132-3.45.414-4.79 1.522a3.72 3.72 0 0 0-1.197 1.597 1.91 1.91 0 0 0-.085.994 1.93 1.93 0 0 0 .425.903 1.31 1.31 0 0 0 1.813.1 1.52 1.52 0 0 0-.978 1.06c-.064.243-.066.499-.007.744s.177.471.344.659.378.332.615.419.49.114.739.079a1.52 1.52 0 0 0 .689-.278c.204-.148.368-.344.477-.571a3.87 3.87 0 0 0-.266 1.531 1.48 1.48 0 0 0 .247.733 1.46 1.46 0 0 0 .585.506c.3.073.615.06.909-.037a1.66 1.66 0 0 0 .754-.512c.382-.496.729-1.019 1.039-1.563a4.98 4.98 0 0 1 1.814-1.582c.725-.371 1.529-.559 2.343-.548"/><path d="M354.291 246.26a2.87 2.87 0 0 1 1.38-.275 6.95 6.95 0 0 1 5.929 2.97c.308.366.52.803.615 1.273-.297-.348-.575-.711-.831-1.09a7.92 7.92 0 0 0-2.536-2.03 8.07 8.07 0 0 0-3.152-.832c-.468.024-.937.019-1.405-.016z"/></g><path d="M362.523 249.887c.046.812-.004 1.628-.149 2.429-.003.816-.103 1.628-.3 2.42a5.39 5.39 0 0 1-.133-2.495c.016-.819.215-1.623.582-2.354z" class="E"/><path d="M371.386 258.197a2.19 2.19 0 0 1-1.429.296c-.497-.068-.955-.305-1.298-.671-.327-.378-.561-.828-.682-1.314s-.127-.993-.016-1.481c.086-.609.401-1.162.881-1.547a2.5 2.5 0 0 1 2.337.15l.207 4.567z" class="H"/><path d="M370.189 257.357c0-.075-.258-.117-.574-.341-.193-.14-.347-.328-.446-.545s-.14-.457-.119-.695a1.35 1.35 0 0 1 .245-.66c.139-.194.327-.348.545-.446.341-.166.607-.158.615-.233s-.266-.183-.723-.066a1.55 1.55 0 0 0-.779.505c-.202.244-.325.543-.352.859a1.57 1.57 0 0 0 .831 1.555c.458.2.757.117.757.067z" class="I"/><path d="M368.202 257.399c-.382.08-.723.292-.965.598-.128.162-.217.351-.259.554s-.036.412.018.611a1.44 1.44 0 0 0 .382.629c.179.174.4.298.641.361a1.42 1.42 0 0 0 .737-.056c.237-.083.447-.227.61-.418.131-.16.225-.346.275-.546a1.4 1.4 0 0 0 .016-.611 2.92 2.92 0 0 0-.449-1.073s.1.067.216.242c.182.246.304.53.358.831.049.223.047.453-.004.675s-.153.429-.296.606c-.171.226-.404.398-.669.496a1.5 1.5 0 0 1-.831.057c-.277-.06-.531-.198-.732-.398a1.48 1.48 0 0 1-.403-.729c-.058-.221-.061-.453-.011-.675s.154-.431.302-.605a1.27 1.27 0 0 1 .464-.407c.185-.096.391-.145.6-.142z" fill="#ebebeb"/><path d="M364.943 275.282s-7.966.125-12.015 10.664a22.35 22.35 0 0 0-.05 15.455l1.455 4.101 16.097-4.667-5.487-25.553z" class="D"/><path d="M395.175 317.479a5.25 5.25 0 0 1-.066-1.106 27.7 27.7 0 0 1 .141-3.02c.145-1.49.395-2.969.748-4.425l1.489-5.265a9.42 9.42 0 0 0-.283-5.282c-.444-1.407-1-2.775-1.663-4.093l-1.422-2.678c-.189-.319-.345-.656-.466-1.006.235.287.441.596.616.923l1.496 2.62c.726 1.33 1.333 2.722 1.813 4.159.285.849.471 1.729.557 2.62a8.48 8.48 0 0 1-.233 2.878l-1.521 5.257a37.23 37.23 0 0 0-.832 4.367l-.274 2.995a5.59 5.59 0 0 1-.1 1.056z" class="B"/><path d="M383.967 272.088H370.43v3.194h13.537v-3.194z" class="D"/><g class="B"><path d="M386.703 334.939c-.046-.199-.071-.402-.075-.607 0-.441-.075-1.023-.133-1.747l-.416-6.438-1.663-21.194a490.76 490.76 0 0 0-2.494-21.112l-.965-6.38-.258-1.73a3.09 3.09 0 0 1-.066-.607c.071.191.121.389.15.591l.34 1.721 1.098 6.355a372.64 372.64 0 0 1 2.652 21.12c.79 8.277 1.256 15.804 1.539 21.22l.282 6.446v1.755a3.08 3.08 0 0 1 .009.607zm-6.37-62.818s.084.191.15.557c.094.522.13 1.052.108 1.581-.012.814-.282 1.604-.773 2.254a2.7 2.7 0 0 1-1.189.832c-.485.176-.998.261-1.513.249a11.91 11.91 0 0 1-4.989-1.322 5.89 5.89 0 0 1-1.771-1.215c.041-.058.715.408 1.904.94a13.24 13.24 0 0 0 4.881 1.157 2.93 2.93 0 0 0 1.301-.178 2.92 2.92 0 0 0 1.093-.729c.456-.581.728-1.285.782-2.021l.016-2.105z"/><path d="M384.083 274.817c.067 0 .083.549-.416 1.181-.283.393-.685.684-1.147.832-.292.053-.593.031-.873-.067-.315-.076-.602-.237-.832-.466-.376-.453-.595-1.017-.623-1.605a9.35 9.35 0 0 1 0-1.339c-.03-.414.021-.829.149-1.223.117.394.168.804.15 1.214 0 .375.067.832.133 1.298a2.41 2.41 0 0 0 .532 1.347 1.36 1.36 0 0 0 .624.366 1.52 1.52 0 0 0 .665.092 2.21 2.21 0 0 0 .998-.641c.257-.299.472-.632.64-.989z"/></g><g class="C"><path d="M359.779 283.642c-.041 0-.532-.74-1.355-1.506s-1.613-1.197-1.588-1.247c.643.25 1.226.633 1.712 1.123.523.448.943 1.004 1.231 1.63z"/><path d="M358.84 282.427c-.186-.365-.274-.772-.258-1.181-.045-.405-.028-.815.05-1.215a5.08 5.08 0 0 1 .116 1.198l.092 1.198z"/><path d="M359.139 282.769c-.258.136-.541.218-.832.241-.269.083-.552.108-.831.075.26-.13.542-.212.831-.241a1.97 1.97 0 0 1 .832-.075zm33.6 20.869a19.93 19.93 0 0 0-1.355-1.506c-.832-.765-1.613-1.206-1.588-1.247.644.248 1.228.631 1.712 1.123.523.448.943 1.004 1.231 1.63z"/><path d="M391.799 302.424a2.5 2.5 0 0 1-.266-1.19c-.05-.402-.03-.81.058-1.206.087.393.126.796.117 1.198l.091 1.198z"/><path d="M392.099 302.756a2.05 2.05 0 0 1-.832.25 1.98 1.98 0 0 1-.831.075c.256-.141.54-.223.831-.241a2.27 2.27 0 0 1 .832-.084zm-27.913 29.181c-.05 0-.54-.74-1.355-1.497s-1.622-1.206-1.597-1.256c1.271.551 2.313 1.524 2.952 2.753z"/><path d="M363.272 330.722a2.31 2.31 0 0 1-.266-1.181c-.046-.405-.029-.815.049-1.215a4.8 4.8 0 0 1 .125 1.206c.025.657.175 1.181.092 1.19zm.299.341c-.257.139-.541.221-.832.241a2.29 2.29 0 0 1-.831.083 2.13 2.13 0 0 1 .831-.249 2.02 2.02 0 0 1 .832-.075zm11.424-34.619c0-.042.69-.599 1.372-1.489s1.056-1.722 1.098-1.664c-.187.663-.513 1.279-.956 1.805-.41.546-.924 1.004-1.514 1.348z"/><path d="M376.126 295.395c.347-.222.745-.35 1.156-.374a4.05 4.05 0 0 1 1.214-.058 4.39 4.39 0 0 1-1.189.232l-1.181.2z"/><path d="M375.826 295.727c-.159-.238-.267-.507-.316-.79a2.25 2.25 0 0 1-.157-.832c.163.235.273.501.324.782.101.269.151.554.149.84zm25.61-5.248c0 .05-.831-.366-1.937-.59l-2.012-.25c.679-.12 1.376-.095 2.045.075.681.121 1.329.381 1.904.765z"/><path d="M400.006 289.922a2.42 2.42 0 0 1-.832-.882c-.246-.323-.443-.682-.582-1.064.281.289.524.614.724.964l.69.982z"/><path d="M400.43 290.055s-.216.316-.565.632c-.196.205-.427.374-.682.499 0 0 .216-.316.565-.632.196-.206.427-.375.682-.499zm-28.611-5.682c0-.041.699-.607 1.38-1.489s1.048-1.722 1.098-1.663c-.441 1.317-1.322 2.442-2.494 3.185l.016-.033z"/><path d="M372.941 283.326c.349-.218.746-.347 1.156-.375.399-.08.809-.099 1.214-.058-.382.128-.779.207-1.181.233l-1.189.2z"/><path d="M372.634 283.65c-.155-.238-.262-.504-.316-.782a1.99 1.99 0 0 1-.15-.832c.152.243.259.51.316.79a1.96 1.96 0 0 1 .15.824zm29.426 22.9c-.042-.042.69-.599 1.371-1.489s1.048-1.722 1.098-1.664a6.08 6.08 0 0 1-2.494 3.186l.025-.033z"/><path d="M403.182 305.51a2.4 2.4 0 0 1 1.156-.366 3.44 3.44 0 0 1 1.205-.058 4.79 4.79 0 0 1-1.18.224l-1.181.2z"/><path d="M402.874 305.834c-.271-.501-.432-1.054-.474-1.622.159.236.267.502.316.782.106.267.16.552.158.84zm-14.899-21.652c0-.05.69-.607 1.372-1.489a19.34 19.34 0 0 0 1.097-1.664c-.183.667-.509 1.286-.956 1.814-.41.543-.925.998-1.513 1.339z"/><path d="M389.13 283.134c.347-.221.745-.35 1.156-.374.4-.08.809-.1 1.214-.058-.385.127-.784.206-1.189.233l-1.181.199z"/><path d="M388.789 283.458c-.16-.234-.268-.501-.316-.781a2.26 2.26 0 0 1-.158-.832 2.14 2.14 0 0 1 .325.832 2.32 2.32 0 0 1 .149.781zm-8.747 24.248c0 .049-.898-.175-2.012-.167s-2.004.233-2.02.175a5.07 5.07 0 0 1 2.02-.35c.687-.028 1.373.088 2.012.342z"/><path d="M378.529 307.465a2.35 2.35 0 0 1-1.006-.682c-.324-.262-.604-.574-.831-.924a4.88 4.88 0 0 1 .914.832l.923.774z"/><path d="M378.978 307.506a2.04 2.04 0 0 1-.424.732c-.274.383-.524.666-.565.641s.149-.358.424-.74.524-.657.565-.633z"/></g><path d="M385.231 293.789c0-.042.133-.191.391-.05.075.047.135.114.175.193s.057.168.049.256a.55.55 0 0 1-.432.45.49.49 0 0 1-.574-.358c-.027-.086-.028-.178-.005-.265s.072-.165.138-.226l.092-.066h.05c.149.074.232.149.224.199s-.125.075-.291.075l.133-.042c0 .092.067.283.15.233s.166-.116.099-.233-.174-.091-.199-.166zm.914 11.18c0-.042.133-.183.391-.05.076.046.137.113.177.192s.056.169.048.257c-.016.111-.066.214-.144.295a.53.53 0 0 1-.289.154c-.123.026-.251.003-.358-.064a.49.49 0 0 1-.216-.293c-.027-.087-.029-.18-.004-.267a.45.45 0 0 1 .146-.224l.083-.067h.05c.149.075.233.15.224.2s-.124.083-.291.075l.142-.042c-.042.092.058.283.141.233s.166-.116.1-.233-.175-.108-.2-.166zm.757 9.89c0-.05.133-.191.383-.05a.45.45 0 0 1 .224.449.54.54 0 0 1-.145.294c-.077.08-.178.135-.287.156a.5.5 0 0 1-.574-.366c-.026-.086-.027-.177-.001-.263s.074-.162.142-.22l.084-.066h.058c.149.074.233.141.216.199s-.116.075-.291.075h.141c-.041.092.059.283.142.233s.174-.116.099-.233-.174-.15-.191-.208zm-3.342-31.525c0-.041.133-.183.39-.05.075.048.135.115.174.194a.49.49 0 0 1 .051.255c-.017.111-.068.213-.145.294s-.178.135-.287.156a.49.49 0 0 1-.359-.065c-.107-.066-.184-.171-.215-.293a.47.47 0 0 1-.005-.265c.024-.087.071-.165.138-.226l.091-.066h.05c.15.075.233.149.225.199s-.125.083-.291.075l.133-.041c0 .091.066.282.149.232s.167-.116.092-.232-.166-.109-.191-.167zm-27.506 50.824s-8.381 23.174 11.973 24.122c18.201.832 42.456.757 51.735.74 4.365 0 7.849.707 11.832-1.089 4.315-1.947 8.722-5.149 9.071-10.19.457-6.538-3.891-12.71-19.024-13.575s-65.587-.008-65.587-.008z" class="B"/><path d="M359.738 335.663c-.117 0-.092-.416.058-.832s.366-.757.474-.715.083.424-.058.832-.366.756-.474.715zm-1.09 6.597c-.116 0-.274-.749-.208-1.664s.308-1.663.425-1.663a4.47 4.47 0 0 1 0 1.663c-.059.907-.092 1.656-.217 1.664zm2.761 5.955c-.075.092-.74-.333-1.297-1.123s-.774-1.539-.666-1.58.483.599 1.015 1.331 1.023 1.281.948 1.372zm6.195 2.387c0 .117-.782.092-1.663-.124s-1.605-.549-1.572-.666a4.34 4.34 0 0 1 1.663.25c.865.208 1.588.424 1.572.54zm6.701.483c0 .124-.756.207-1.663.191-.569.05-1.142-.047-1.663-.283a3.72 3.72 0 0 1 1.663-.15c.566-.053 1.136.03 1.663.242zm6.727.075c0 .125-.757.208-1.663.2s-1.663-.108-1.663-.233c1.104-.289 2.263-.289 3.367 0l-.041.033zm6.726.033c0 .125-.756.217-1.663.217-.564.058-1.134-.019-1.663-.225 0-.125.757-.216 1.663-.208.564-.063 1.135.011 1.663.216zm6.719 0c0 .125-.749.216-1.663.216a3.43 3.43 0 0 1-1.663-.208c0-.124.756-.216 1.663-.224a3.47 3.47 0 0 1 1.663.216zm6.726-.034c0 .125-.748.225-1.663.233a3.53 3.53 0 0 1-1.663-.208c0-.124.749-.224 1.663-.233a3.58 3.58 0 0 1 1.663.208zm6.727-.049c-.527.212-1.098.292-1.663.233-.931 0-1.663-.083-1.663-.208s.748-.225 1.663-.233 1.663.083 1.663.208zm6.718-.075c0 .125-.748.225-1.663.242-.562.069-1.133 0-1.663-.2 0-.125.749-.225 1.663-.233a3.45 3.45 0 0 1 1.663.191zm6.719-.066c-.527.212-1.098.292-1.663.232-.923 0-1.663-.074-1.663-.199.527-.212 1.098-.292 1.663-.233.906-.008 1.663.075 1.663.2zm6.718-.067c0 .117-.748.225-1.663.233-.562.068-1.133 0-1.663-.2 0-.124.748-.224 1.663-.233a3.48 3.48 0 0 1 1.663.2zm6.727-.05c0 .124-.757.224-1.663.233a3.54 3.54 0 0 1-1.663-.208c0-.125.748-.225 1.663-.225.562-.069 1.133 0 1.663.2zm5.038-.018c0 .117-.366.217-.831.217s-.832-.092-.832-.217.374-.216.832-.216.831.1.831.216zm-1.097 1.64a.97.97 0 0 1-.241 0h-.732l-2.81.049-10.336.117-34.09.141c-6.652 0-13.005-.116-18.775-.224-2.742.073-5.484-.142-8.182-.641a8.53 8.53 0 0 1-3.45-1.489c-.904-.735-1.679-1.615-2.295-2.603-.487-.945-.748-1.99-.765-3.053-.071-.93-.071-1.865 0-2.795a23.6 23.6 0 0 1 .831-4.384 47.21 47.21 0 0 1 .832-2.695l.241-.69c.022-.078.053-.153.091-.225-.005.083-.022.164-.049.242l-.2.707c-.175.615-.449 1.522-.74 2.703a24.1 24.1 0 0 0-.723 4.359c-.066.919-.066 1.842 0 2.761a6.77 6.77 0 0 0 .756 2.92 10.47 10.47 0 0 0 2.237 2.495 8.21 8.21 0 0 0 3.326 1.398 40.12 40.12 0 0 0 8.115.59l18.766.192h34.091 10.335 2.811.731l.225.125z" class="E"/><path d="M398.393 329.807s-42.406 3.826-44.9-15.638c-2.702-20.654-1.297-23.291-1.297-23.291l16.305.183s.832 19.772 2.669 20.853c7.957 4.758 21.752 6.239 26.366 6.231l.857 11.662z" class="D"/><g class="B"><path d="M398.393 329.808a4.67 4.67 0 0 1-.108-.832l-.225-2.321-.723-8.484.158.158a138.5 138.5 0 0 1-18.858-2.92c-2.087-.327-4.075-1.114-5.82-2.304a9.21 9.21 0 0 1-3.11-4.908c-.455-1.695-.717-3.436-.782-5.19l-.34-4.534-.308-6.588v-1.796c0-.21.019-.418.058-.624a3.25 3.25 0 0 1 0 .624 21.56 21.56 0 0 0 .058 1.788l.441 6.571.391 4.534a23.06 23.06 0 0 0 .831 5.099c.492 1.832 1.538 3.467 2.994 4.683a13.84 13.84 0 0 0 5.62 2.221c6.195 1.398 12.471 2.404 18.792 3.011h.149v.141l.574 8.493.133 2.329a4.83 4.83 0 0 1 .075.849z"/><path d="M398.983 329.758a2.64 2.64 0 0 1-.557.124l-1.613.258c-1.991.249-3.997.36-6.003.333-6.619-.15-13.207-.961-19.665-2.421-3.604-.647-7.091-1.833-10.343-3.518a17.92 17.92 0 0 1-3.85-2.853c-.988-.992-1.841-2.111-2.536-3.327a11.66 11.66 0 0 1-1.588-5.782 7.29 7.29 0 0 1 .291-2.187c-.082.726-.124 1.456-.125 2.187.077 1.987.648 3.923 1.663 5.632.688 1.177 1.526 2.26 2.495 3.219 1.135 1.085 2.41 2.014 3.791 2.761a37.18 37.18 0 0 0 10.244 3.444 106.84 106.84 0 0 0 19.606 2.537 51.79 51.79 0 0 0 5.987-.191c.707-.05 1.247-.142 1.621-.175a2.64 2.64 0 0 1 .582-.041z"/></g><g class="C"><path d="M365.159 294.472a19.74 19.74 0 0 0-1.355-1.506c-.832-.765-1.613-1.206-1.588-1.256.641.254 1.224.636 1.712 1.123a4.78 4.78 0 0 1 1.231 1.639z"/><path d="M364.186 293.257c-.18-.37-.269-.778-.258-1.189a4.02 4.02 0 0 1 .05-1.214 5.03 5.03 0 0 1 .116 1.206c.092.657.167 1.181.092 1.197zm.333.333c-.256.142-.54.227-.832.25a2.4 2.4 0 0 1-.831.074 2.13 2.13 0 0 1 .831-.249c.269-.084.552-.109.832-.075z"/></g><path d="M397.869 320.915s7.084-.125 8.19 1.896 2.112 6.655 2.112 6.655l-9.678-.383-.624-8.168z" class="H"/><g class="C"><path d="M388.698 325.174c0-.042.69-.599 1.372-1.489s1.056-1.722 1.106-1.664a5.08 5.08 0 0 1-.965 1.789c-.405.554-.92 1.018-1.513 1.364z"/><path d="M389.82 324.126c.347-.222.745-.351 1.156-.375a4.09 4.09 0 0 1 1.214-.058 4.31 4.31 0 0 1-1.189.233l-1.181.2z"/><path d="M389.513 324.458a2.2 2.2 0 0 1-.316-.79c-.105-.265-.159-.547-.158-.832.163.234.274.501.324.782.106.267.157.553.15.84zm-29.118-4.633s.69-.607 1.372-1.489 1.056-1.722 1.105-1.705a6.02 6.02 0 0 1-2.494 3.194h.017z"/><path d="M361.517 318.819c.347-.222.745-.351 1.156-.374a4.05 4.05 0 0 1 1.213-.059c-.384.129-.784.207-1.189.233-.656.042-1.164.2-1.18.2zm-.308.282c-.156-.237-.264-.503-.316-.782-.104-.265-.158-.547-.158-.832a4.02 4.02 0 0 1 .474 1.622v-.008zm17.469 1.814c-.049 0-.482-.782-1.238-1.597s-1.53-1.322-1.497-1.364c1.222.647 2.187 1.691 2.735 2.961z"/><path d="M377.831 319.651c-.161-.377-.221-.79-.175-1.198a3.84 3.84 0 0 1 .133-1.206 4.35 4.35 0 0 1 0 1.206l.042 1.198z"/><path d="M378.105 319.992c-.261.12-.544.185-.831.191a2.12 2.12 0 0 1-.832 0 2.45 2.45 0 0 1 .832-.183c.274-.054.556-.057.831-.008zm-18.908-14.191c-.05 0-.482-.782-1.247-1.605-.474-.479-.974-.931-1.497-1.356a4.88 4.88 0 0 1 1.663 1.239 4.81 4.81 0 0 1 1.081 1.722z"/><path d="M358.366 304.52a2.49 2.49 0 0 1-.183-1.206 4 4 0 0 1 .141-1.207c.051.404.051.812 0 1.215l.042 1.198z"/><path d="M358.632 304.877c-.265.109-.546.171-.832.183a2.04 2.04 0 0 1-.831 0c.261-.12.544-.185.831-.191.275-.052.558-.049.832.008z"/></g><g class="B"><path d="M356.819 289.065c.22-.354.459-.695.715-1.023.205-.358.436-.7.691-1.023a4.27 4.27 0 0 1-1.397 2.037l-.009.009zm9.196-5.948c-.284-.352-.519-.741-.698-1.156a5.57 5.57 0 0 1-.541-1.239c.282.354.516.742.699 1.156.229.389.411.806.54 1.239zm9.089 7.604a8.84 8.84 0 0 1 1.139-1.356c.38-.456.803-.874 1.263-1.248-.712.946-1.517 1.818-2.402 2.604zm1.221 11.071a2.22 2.22 0 0 1-1.105-.574 2.17 2.17 0 0 1-.765-.998 7.4 7.4 0 0 0 .831.832c.474.399 1.056.69 1.039.74zm4.773.549a2.92 2.92 0 0 1 .158-.998 3.07 3.07 0 0 1 .333-.948c.005.34-.051.678-.166.998a3.19 3.19 0 0 1-.325.948zm-5.795 9.674a4.68 4.68 0 0 1-1.031-.766 4.95 4.95 0 0 1-.923-.906c.378.209.725.469 1.031.773a4.82 4.82 0 0 1 .923.899zm6.502 2.229c-.09-.253-.121-.523-.091-.79a1.81 1.81 0 0 1 .091-.79 2.05 2.05 0 0 1 .083.79 2.01 2.01 0 0 1-.083.79zm10.893-3.743a7.8 7.8 0 0 1-1.414.674c-.468.23-.962.403-1.472.515.444-.272.915-.498 1.405-.673.471-.232.968-.405 1.481-.516zm2.926-8.426c-.078-.383-.094-.776-.05-1.165-.02-.389.022-.78.125-1.156.069.384.085.776.05 1.164.014.39-.028.779-.125 1.157zm-4.831-6.605a2.42 2.42 0 0 1-1.247-.416c-.399-.198-.738-.5-.981-.873 0-.042.449.374 1.072.723s1.156.516 1.156.566zm.832-9.283a6.12 6.12 0 0 1 .956-1.04 5.95 5.95 0 0 1 1.081-.915c-.272.387-.593.737-.956 1.04a5.94 5.94 0 0 1-1.081.915zm-3.792-7.686a2.89 2.89 0 0 1-.997-.159 2.82 2.82 0 0 1-.948-.332 3.03 3.03 0 0 1 .998.166c.331.058.651.167.947.325zm-12.239-3.169c.121-.289.289-.557.499-.79.167-.267.381-.501.632-.69-.113.291-.279.559-.491.79-.171.266-.388.499-.64.69zm3.7 6.113a4.15 4.15 0 0 1-.723-.973 4.28 4.28 0 0 1-.574-1.065c.29.285.534.614.723.973a4.28 4.28 0 0 1 .574 1.065zm-8.365 12.078c-.105-.452-.158-.916-.158-1.38a5.64 5.64 0 0 1 0-1.398c.172.916.222 1.85.15 2.778h.008zm32.054 5.107a3.59 3.59 0 0 1-.932-.54 3.46 3.46 0 0 1-.831-.674 3.17 3.17 0 0 1 .931.532c.316.176.598.407.832.682zm-4.191 12.27a4.66 4.66 0 0 1 .241-1.181 3.96 3.96 0 0 1 .416-1.14c-.03.403-.114.8-.25 1.181-.076.399-.213.783-.407 1.14zm4.631 3.56a5.19 5.19 0 0 1-1.197-.574c-.401-.199-.778-.445-1.122-.732a10.59 10.59 0 0 1 2.319 1.306zm-33.708 15.663a5.94 5.94 0 0 1-1.047.957 5.73 5.73 0 0 1-1.165.831c.313-.362.668-.686 1.056-.964a5.83 5.83 0 0 1 1.156-.824zm8.015 2.32a3.21 3.21 0 0 1-.831-.74c-.266-.241-.493-.522-.673-.832a6.96 6.96 0 0 1 1.471 1.597l.033-.025zm-17.485-6.03a1.76 1.76 0 0 1-.79.749 1.83 1.83 0 0 1-1.048.308c0-.05.458-.167.957-.458s.848-.632.881-.599zm-1.763-29.803a6.99 6.99 0 0 1-1.222-.907c-.407-.306-.778-.658-1.106-1.048.439.261.849.567 1.222.915.408.303.779.652 1.106 1.04zm7.143 4.142a8.21 8.21 0 0 1-1.156 1.223c-.386.405-.813.77-1.272 1.089.341-.444.728-.852 1.156-1.214a8.07 8.07 0 0 1 1.272-1.098zm-6.02 11.819a7.84 7.84 0 0 1-2.694-1.946c.466.303.916.63 1.347.982.465.298.914.62 1.347.964zm8.738 2.979c-.183-.602-.309-1.221-.374-1.847a9.88 9.88 0 0 1-.199-1.863 11.26 11.26 0 0 1 .366 1.838 11.53 11.53 0 0 1 .207 1.872zm4.108 7.893c-.47.26-.978.446-1.505.549-.517.156-1.056.226-1.596.208l1.554-.382a12.86 12.86 0 0 1 1.547-.375zm11.857-2.228a10.34 10.34 0 0 1-.765 1.705 9.97 9.97 0 0 1-.923 1.664 10.15 10.15 0 0 1 .765-1.706 9.82 9.82 0 0 1 .923-1.663zm10.867 5.756c-.341.3-.718.557-1.122.765-.372.261-.778.471-1.206.624a5.42 5.42 0 0 1 1.123-.774 5.19 5.19 0 0 1 1.205-.615z"/><path d="M388.582 293.257a5.02 5.02 0 0 1 1.097-.232l3.143-.516h.183v.183l.657 4.799v.108l-.083.075-.383.366-1.505 1.431-.108.108-.133-.066-2.494-1.298-.092-.05v-.141l-.291-3.527c-.051-.417-.064-.837-.041-1.256.111.446.192.899.241 1.356l.457 3.385-.1-.141 2.495 1.247h-.241l1.496-1.439.383-.366-.067.183-.582-4.799.2.15-3.06.316c-.388.063-.779.105-1.172.124z"/><path d="M392.789 294.788c-.678.195-1.383.279-2.087.25-.646.117-1.308.117-1.954 0 1.315-.365 2.692-.444 4.041-.233v-.017z"/></g><path d="M383.085 333.617l.009-1.456 17.203-2.429 8.539-21.527h32.652l-11.674 25.428-46.729-.016z" fill="#e6e6e6"/><path d="M422.622 321.314a1.67 1.67 0 0 1-.729.635c-.301.134-.635.177-.96.121a1.66 1.66 0 0 1-.864-.433c-.239-.227-.405-.519-.478-.841a1.67 1.67 0 0 1 .666-1.727 1.67 1.67 0 0 1 .919-.302 1.66 1.66 0 0 1 .931.26c.37.236.632.609.729 1.037s.02.878-.214 1.25z" class="C"/><path d="M29.717 369.742l4.374-4.708-8.764-8.318-6.494 6.821.507.549c2.278 2.453 11.84 12.169 13.919 13.209 2.32 1.156-3.542-7.553-3.542-7.553z" class="D"/><g class="J"><path d="M22.093 366.506c.567-.864.797-1.905.648-2.928-.148-1.008-.666-1.925-1.455-2.57l-2.312 2.445 3.118 3.053z"/><path d="M32.428 374.125s1.896 3.219 1.164 3.328-10.701-9.325-14.742-13.883l.2-.183 11.566 11.163s1.314-.882 1.813-.425z"/></g><g class="B"><path d="M18.917 363.254c.038.058.083.111.133.158l.408.432 1.53 1.581 5.163 5.057 5.338 4.891 1.663 1.439.457.383c.108.092.166.133.166.125l-.15-.142-.432-.407-1.621-1.473-5.313-4.916-5.188-5.032-1.563-1.547-.424-.416-.166-.133z"/><path d="M30.49 374.658c.317-.202.658-.364 1.014-.482a4.58 4.58 0 0 1 1.114-.092c-.365-.161-.778-.178-1.156-.05a1.57 1.57 0 0 0-.973.624zm-1.346-3.76c0 .042.274 0 .59-.074s.574-.175.557-.217-.274 0-.59.075-.599.175-.557.216zm-.358-1.048a1.76 1.76 0 0 0 .507.091c.283.008.507 0 .507-.066-.16-.069-.334-.097-.507-.083a1.02 1.02 0 0 0-.507.058zm.316-1.247a3.01 3.01 0 0 0 .407.49c.25.242.474.416.499.383s-.15-.249-.399-.491-.457-.416-.507-.382zm.416-.707a1.2 1.2 0 0 0 .374.632c.274.307.565.465.59.432s-.224-.241-.482-.532c-.148-.189-.309-.367-.482-.532z"/><path d="M30.158 370.392a2.5 2.5 0 0 0 .574.532 4.62 4.62 0 0 0 .723.433c.15.08.309.141.474.183a.46.46 0 0 0 .308-.042c.047-.035.083-.083.105-.137s.029-.113.02-.171c-.119-.312-.345-.571-.637-.733a1.41 1.41 0 0 0-.959-.148 1.66 1.66 0 0 0-.54.199c-.061.036-.115.084-.158.142.224-.119.465-.2.715-.242.266-.027.534.022.773.142.291.136.518.381.632.682 0 .15-.108.224-.266.191-.155-.039-.306-.095-.449-.166-.25-.112-.489-.246-.715-.399l-.599-.466z"/><path d="M30.283 370.582s.216-.05.432-.332a1.16 1.16 0 0 0 .233-.558c.034-.127.035-.26.001-.387a.75.75 0 0 0-.193-.336c-.068-.044-.151-.059-.231-.042s-.149.065-.193.133c-.072.102-.12.218-.141.341-.041.194-.061.392-.058.591a1.12 1.12 0 0 0 .108.532v-.532a2.49 2.49 0 0 1 .083-.558c0-.191.183-.457.349-.349.067.081.114.177.138.279a.7.7 0 0 1 .003.312 1.25 1.25 0 0 1-.183.515c-.175.275-.366.366-.349.391zm-8.922-9.557a4.88 4.88 0 0 0 .624.633c.464.544.764 1.209.864 1.918a3.77 3.77 0 0 1-.299 2.083c-.225.499-.449.765-.424.781s.067-.049.166-.174a2.98 2.98 0 0 0 .349-.566 3.64 3.64 0 0 0 .349-2.146c-.105-.734-.434-1.415-.931-1.963a3.37 3.37 0 0 0-.491-.441.73.73 0 0 0-.208-.125zm4.348-2.787a21.08 21.08 0 0 0-1.771 1.73 18.71 18.71 0 0 0-1.663 1.83 22.57 22.57 0 0 0 1.771-1.73 19.86 19.86 0 0 0 1.663-1.83zm-1.712 8.451a7.18 7.18 0 0 0 1.164 1.339c.408.43.873.802 1.38 1.107l-1.28-1.215-1.264-1.231z"/><path d="M22.284 365.068c-.041 0-.066.166-.133.349s-.141.333-.108.358.175-.092.25-.308.033-.408-.008-.399zm.116-1.422c-.042 0-.067.149-.067.324s.041.324.083.324.066-.149.066-.324-.033-.324-.083-.324zm-.573-1.24a3.81 3.81 0 0 0 .175.307c.084.166.116.325.158.325s.083-.183 0-.391-.316-.275-.333-.241zm-.499-.799v.208c0 .1.116.158.15.142s0-.108 0-.208-.116-.158-.15-.142z"/></g><g class="D"><path d="M110.778 378.95l-.224-6.429-12.057.341.233 9.416h.748c3.326.091 16.937.224 19.124-.516 2.478-.799-7.824-2.812-7.824-2.812z"/><path d="M103.104 382.036c-.213-1.002-.787-1.89-1.613-2.495a4.05 4.05 0 0 0-2.836-.832l.092 3.369 4.357-.042z"/></g><path d="M115.817 380.114s3.617.932 3.184 1.539-14.185.982-20.271.624v-.266l16.047-.316s.333-1.531 1.04-1.581z" class="J"/><g class="B"><path d="M98.555 382.036a.56.56 0 0 0 .208 0h.59 2.195l7.234-.074 7.233-.325 2.187-.15.59-.049h-.598l-2.187.108-7.225.274-7.234.117h-2.195-.832l.033.099z"/><path d="M114.794 381.886a3.18 3.18 0 0 1 1.106-1.921c-.356.172-.651.448-.849.79a1.97 1.97 0 0 0-.257 1.131zm-3.609-1.705c.042 0 .2-.191.374-.474.121-.162.204-.35.242-.549-.042 0-.2.191-.366.474s-.283.524-.25.549zm-.989-.491s.216-.108.424-.299.341-.366.316-.4-.216.1-.424.3-.341.366-.316.399zm-.649-1.123a1.47 1.47 0 0 0 .632.067 1.67 1.67 0 0 0 .632-.083 1.33 1.33 0 0 0-.632-.067 1.46 1.46 0 0 0-.632.083zm-.233-.798c.211.134.458.2.707.191a1.3 1.3 0 0 0 .724-.117c-.238-.025-.478-.025-.716 0a5.19 5.19 0 0 0-.715-.074z"/><path d="M111.568 379.117a2.33 2.33 0 0 0 .773 0c.283-.045.561-.114.831-.208.164-.05.32-.12.466-.208.046-.027.086-.063.117-.106s.054-.092.066-.144.007-.116-.015-.169-.061-.099-.11-.13a1.43 1.43 0 0 0-1.746.457c-.11.16-.192.337-.241.524-.018.071-.018.146 0 .217a2.07 2.07 0 0 1 .333-.674c.169-.208.394-.364.648-.449.149-.055.307-.08.466-.073a1.19 1.19 0 0 1 .457.114c.125.083.083.233-.05.316s-.282.147-.432.2c-.256.098-.521.173-.79.225l-.773.108z"/><path d="M111.767 379.15c.048-.081.079-.17.092-.263s.007-.188-.017-.278c-.03-.204-.107-.397-.224-.566-.069-.113-.165-.207-.28-.273a.78.78 0 0 0-.377-.101.31.31 0 0 0-.187.137c-.042.069-.055.151-.038.229.018.124.066.241.142.341.103.169.229.323.374.457.249.233.44.317.449.3s-.158-.133-.374-.374c-.13-.137-.244-.288-.341-.45-.108-.166-.192-.457 0-.499s.39.167.515.316a1.29 1.29 0 0 1 .233.5 2.7 2.7 0 0 1 .033.524zm-13.062-.441s.349-.042.89 0c.712.057 1.394.315 1.966.745a3.77 3.77 0 0 1 1.26 1.684c.199.507.233.832.258.832a.82.82 0 0 0 0-.242 3.15 3.15 0 0 0-.15-.649c-.239-.699-.682-1.31-1.272-1.755a3.77 3.77 0 0 0-2.046-.74 2.78 2.78 0 0 0-.657.042.76.76 0 0 0-.249.083z"/><path d="M99.819 373.651a20.91 20.91 0 0 0 0 2.496 21.18 21.18 0 0 0 .116 2.495v-2.495l-.116-2.496zm4.764 7.187a6.33 6.33 0 0 0 1.763.125c.591.016 1.181-.048 1.755-.191 0-.042-.79 0-1.763.05s-1.755-.025-1.755.016zm-2.361.067l.15.341c.083.174.133.341.174.332s.058-.191 0-.399-.274-.308-.324-.274zm-.923-1.082s.05.15.183.275.25.199.283.166-.058-.15-.183-.274-.258-.2-.283-.167zm-1.289-.474c0 .042.167 0 .35.092s.307.15.341.116-.075-.191-.3-.257-.407.016-.391.049zm-.914-.216c0 .042.058.1.158.133s.2.042.208 0-.058-.099-.158-.133-.191-.033-.208 0zM81.668 284.59l-4.673 28.665c-1.289 5.648-2.977 12.535-6.078 17.426l-35.562 42.297-16.072-16.461 35.596-45.55 8.622-46.872 18.168 20.495z"/><path d="M60.058 275.981l20.23 44.086 14.276 56.322 23.04.299L102.33 315.6l-19.182-61.662-30.008-5.407-.349 3.136a31.95 31.95 0 0 0 4.581 20.637c.799 1.293 1.697 2.522 2.686 3.677z"/></g><g class="E"><path d="M67.009 274.899c-.108.05-.449-.399-.773-1.006s-.49-1.157-.382-1.207.449.391.765 1.007.491 1.148.391 1.206zm2.262 4.45c-.108.05-.449-.407-.757-1.023s-.474-1.156-.366-1.206.441.399.748 1.015.474 1.156.374 1.214zm2.236 4.475c-.108.05-.441-.408-.74-1.023s-.457-1.165-.349-1.223.441.408.74 1.032.416 1.164.349 1.214zm2.096 4.509c-.108.05-.432-.407-.723-1.031s-.441-1.173-.333-1.223.432.408.723 1.04.441 1.164.332 1.214zm2.062 4.542c-.117.05-.432-.416-.715-1.048s-.424-1.173-.316-1.223.424.416.707 1.048.449 1.173.324 1.223zm2.02 4.574c-.108.042-.416-.424-.698-1.056s-.407-1.19-.299-1.231.424.424.698 1.056.407 1.181.299 1.231zm1.946 4.592c-.108.05-.416-.432-.682-1.065s-.391-1.189-.283-1.239.416.432.682 1.073.391 1.189.283 1.231zm1.854 4.626c-.116.041-.416-.441-.674-1.073s-.374-1.198-.258-1.24.407.433.665 1.073.399 1.198.266 1.24zm1.83 4.665c-.108 0-.399-.44-.648-1.081s-.358-1.206-.249-1.248.407.45.657 1.09.357 1.181.241 1.239zm1.745 4.658c-.116 0-.399-.449-.64-1.089s-.341-1.207-.224-1.248.391.449.632 1.098.341 1.206.233 1.239zm1.672 4.709c-.117 0-.391-.457-.624-1.106s-.316-1.206-.208-1.248.391.449.624 1.107.316 1.206.208 1.247zm1.605 4.725c-.117 0-.383-.466-.607-1.115s-.299-1.214-.191-1.256.382.466.607 1.115.299 1.214.191 1.256zm1.53 4.749c-.108 0-.374-.466-.582-1.123s-.291-1.223-.175-1.256.374.465.582 1.123.291 1.214.175 1.256zm1.471 4.767c-.116 0-.374-.475-.574-1.132s-.266-1.222-.158-1.256.374.474.574 1.132.283 1.222.158 1.256zm1.389 4.79c-.108 0-.358-.474-.549-1.139s-.249-1.223-.133-1.256.358.474.549 1.139.249 1.223.133 1.256zm1.33 4.808c-.116 0-.358-.482-.532-1.139s-.241-1.231-.125-1.265.358.483.541 1.148.233 1.231.116 1.256zm1.256 4.833c-.117 0-.349-.49-.516-1.156s-.216-1.231-.1-1.264.349.49.516 1.156.216 1.231.1 1.264zm1.188 4.849c-.116 0-.341-.499-.499-1.164s-.2-1.231-.083-1.264.341.49.499 1.164.2 1.231.083 1.264zm1.123 4.858c-.116 0-.333-.491-.482-1.164s-.183-1.24-.066-1.265.333.491.482 1.165.183 1.239.067 1.264zm1.056 4.883c-.116 0-.333-.507-.474-1.181s-.166-1.24 0-1.265.324.508.466 1.182.125 1.239.008 1.264zm.981 4.891c-.116 0-.316-.508-.449-1.182s-.15-1.239 0-1.264.324.499.457 1.181.108 1.24-.008 1.265zm.699 3.668c-.125 0-.266-.233-.333-.574s0-.623.1-.648.266.232.332.574.017.623-.099.648zm-6.968.001l1.172 3.884 23.04.3-.948-3.777-23.264-.407z"/><path d="M98.497 372.887l-.083-.267-.216-.781-.782-3.012-2.86-11.096-4.315-16.453-5.654-20.022a131.18 131.18 0 0 0-3.65-10.115l-3.866-9.258-7.009-15.479-4.889-10.365-1.339-2.811-.341-.741a2.58 2.58 0 0 1-.108-.258 1.64 1.64 0 0 1 .15.242l.374.715 1.413 2.778 4.989 10.306 7.093 15.455 3.9 9.258c1.297 3.244 2.561 6.655 3.667 10.149 2.178 7.062 3.983 13.866 5.629 20.046l4.216 16.47 2.76 11.08.707 3.036.175.79c.035.107.049.22.041.333zm-71.79-19.132c.091.075-.2.566-.648 1.081s-.89.89-.973.832.2-.565.64-1.081.881-.89.981-.832zm3.226-3.81c.091.075-.191.566-.632 1.098s-.832.898-.956.832.183-.574.624-1.098.84-.907.964-.832zm3.11-3.885c.091.075-.183.574-.615 1.107s-.832.915-.956.831.183-.574.615-1.106.856-.907.956-.832zm3.11-3.901c.092.075-.183.574-.607 1.115s-.831.915-.948.832.175-.574.607-1.115.848-.882.948-.832zm3.093-3.909c.091.075-.175.574-.607 1.106s-.831.924-.94.832.175-.574.607-1.114.848-.899.94-.824zm3.102-3.91c.092.075-.175.574-.607 1.106s-.831.924-.948.832.183-.574.607-1.115.856-.898.948-.823zm3.126-3.876c.091.075-.183.574-.615 1.107s-.831.915-.948.832.183-.574.615-1.107.856-.923.948-.832zm3.176-3.868c.092.075-.191.574-.632 1.098s-.832.899-.965.832.191-.565.632-1.098.873-.906.965-.832zm3.235-3.801c.091.083-.208.565-.649 1.089s-.89.882-.981.832.2-.566.649-1.09.89-.906.981-.831zm3.234-3.801c.091.083-.2.574-.64 1.098s-.881.89-.973.832.2-.566.64-1.098.881-.907.973-.832zm3.134-3.877c.1.067-.175.566-.599 1.107s-.831.923-.948.831.175-.574.607-1.114.89-.899.94-.824zm2.104-4.458c.116 0 .058.59-.125 1.264a5.22 5.22 0 0 1-.299.832c-.091.208-.224.333-.266.299s-.05-.158 0-.382a5.78 5.78 0 0 1 .175-.874c.158-.657.399-1.173.515-1.139zm1.172-4.85c.116 0 .083.591-.075 1.265s-.374 1.198-.491 1.164-.083-.59.075-1.264.391-1.189.491-1.165zm1.023-4.891c.116 0 .108.591 0 1.273s-.341 1.206-.457 1.181-.1-.59 0-1.264.341-1.206.457-1.19zm.873-4.908c.116 0 .116.591 0 1.265s-.308 1.214-.424 1.197-.116-.59 0-1.272.308-1.206.424-1.19zm.816-4.924c.116 0 .125.591 0 1.273s-.291 1.214-.416 1.189-.125-.582 0-1.264.299-1.214.416-1.198zm.689-4.15c.116 0 .15.416.067.881s-.233.832-.358.832-.15-.407-.067-.881.233-.857.358-.832z"/><path d="M19.282 356.517l3.201-4.201 15.815 17.169-2.943 3.494-16.072-16.462z"/></g><path opacity=".2" d="M60.948 277.919l13.22 45.749c.175-.49 2.827-10.414 2.827-10.414l-16.047-35.335z" fill="#000"/><path d="M77.103 215.883l13.994-2.105s6.527 14.249 8.315 14.723c9.761 2.645 20.962 1.215 24.944.566a29.13 29.13 0 0 0 1.563-1.331c.502-.466.921-1.015 1.239-1.622.429-.736.754-1.528.964-2.354.03-.153.103-.295.21-.409a.83.83 0 0 1 .394-.236c.151-.04.31-.036.459.01s.282.134.384.252c.333.633.067 2.779-1.314 4.9s2.403.898 3.792.482 5.745-1.505 6.211-1.181c.682.482.299 1.298-1.097 1.664s-5.497 1.838-5.247 2.553 7.292-1.505 7.292-1.505 1.422-.716 1.746.108c.582 1.489-7.067 3.327-7.799 3.452-.507.108-.258.898.283.757s6.959-2.379 7.566-.832c.466 1.156-6.278 1.539-7.35 2.745s5.088-.832 5.487.308c.15.416.2.748-3.5 1.397-2.692.354-5.401.563-8.115.624 0 0-34.457 8.21-42.405-6.854-7.907-14.889-8.015-16.112-8.015-16.112z" class="G"/><path d="M78.633 184.066c1.214-.948 3.051-.574 4.282.35a19.56 19.56 0 0 1 3.01 3.485c.965 1.198 2.228 2.321 3.767 2.437-.189.645-.539 1.231-1.016 1.704a3.98 3.98 0 0 1-1.712 1.001c-.646.183-1.328.2-1.982.049a3.98 3.98 0 0 1-1.759-.916c.448.269.827.639 1.106 1.082a1.18 1.18 0 0 1 .167.746c-.029.261-.143.504-.325.693-.354.229-.784.31-1.197.224-.977-.107-1.922-.409-2.78-.889a7.34 7.34 0 0 1-2.215-1.901c-.604-.775-1.046-1.664-1.301-2.614s-.316-1.94-.181-2.914a4.91 4.91 0 0 1 1.064-2.578 2.99 2.99 0 0 1 1.117-.841 3 3 0 0 1 1.377-.241" class="E"/><path d="M77.544 197.3c-.116-1.898-.116-3.801 0-5.698 0 0 4.989-.532 5.321-5.515s0-16.453 0-16.453l-9.146-4.467-9.321 7.678.2 24.305-4.989.191 15.973 22.018c2.212-8.542 5.105-16.469 5.213-21.627l-3.251-.432z" class="G"/><path d="M81.868 178.002c0 .126-.038.25-.108.356s-.17.187-.287.236a.64.64 0 0 1-.37.036.65.65 0 0 1-.328-.175.63.63 0 0 1-.175-.328.64.64 0 0 1 .273-.658c.106-.071.229-.108.356-.108a.64.64 0 0 1 .64.641zm.615-.69c-.083.074-.549-.325-1.239-.358s-1.197.291-1.272.2.05-.192.274-.35a1.72 1.72 0 0 1 1.023-.266 1.66 1.66 0 0 1 .981.391c.208.183.274.341.233.383zm-7.999.69a.64.64 0 0 1-.632.64.64.64 0 1 1 0-1.281c.168.003.329.071.447.191a.64.64 0 0 1 .185.45zm.399-.69c-.083.075-.549-.325-1.239-.358s-1.197.291-1.272.2.05-.192.274-.35c.309-.179.667-.258 1.023-.224a1.66 1.66 0 0 1 .981.391c.183.141.274.299.233.341z" class="B"/><path d="M75.091 183.75c1.05.534 2.169.918 3.326 1.14a1.95 1.95 0 0 1-1.029.711c-.412.117-.851.095-1.249-.063-.189-.043-.368-.124-.524-.239a1.43 1.43 0 0 1-.571-.974c-.024-.193-.007-.389.047-.575z" class="C"/><path d="M77.544 191.602c-2.365-.102-4.652-.875-6.594-2.229 0 0 1.497 3.652 6.486 3.452l.108-1.223z" fill="#d78776"/><path d="M56.882 174.234c3.002-10.306 11.832-12.319 13.636-12.319 1.937 0 5.321-1.065 10.252 4.067.744.766 1.374 1.634 1.871 2.579 1.08 1.373 1.823 2.979 2.17 4.691.229.812.266 1.667.108 2.496-.091 0-.108-.94-.49-2.379a12.12 12.12 0 0 0-.956-2.496c.433 1.917.255 3.921-.507 5.732l-1.771-.483-6.336-2.163c.582-1.963-.266-4.4-.748-5.531l-.05-.05c-1.447 7.486-9.653 8.227-9.653 8.227l.407 14.14c-8.423-1.796-8.531-11.005-8.481-13.309.11-1.078.294-2.148.549-3.202z" class="E"/><g class="B"><path d="M77.328 183.101a4.38 4.38 0 0 1 1.122-.142c.175 0 .349 0 .383-.166a.95.95 0 0 0-.091-.549l-.474-1.422-.832-2.604a5.14 5.14 0 0 1-.249-1.098 4.69 4.69 0 0 1 .441 1.04l.832 2.578.449 1.431a1.09 1.09 0 0 1 .067.716c-.026.06-.066.113-.117.155s-.11.071-.174.086a1 1 0 0 1-.299 0c-.352.033-.706.025-1.056-.025z"/><path d="M65.787 179.075l3.326-.549a4.37 4.37 0 0 1-.091-.832 4.03 4.03 0 0 1 .831-2.379 3.92 3.92 0 0 1 1.871-1.397c.631-.23 1.31-.296 1.973-.191s1.289.376 1.818.79c.711.554 1.21 1.335 1.413 2.212a2.97 2.97 0 0 1 .083.716c.012.085.012.172 0 .258 0 0 0-.35-.175-.94-.136-.513-.376-.991-.707-1.405a3.81 3.81 0 0 0-1.213-1c-.469-.246-.984-.391-1.513-.427s-1.058.039-1.556.22c-.724.269-1.348.753-1.788 1.387s-.677 1.388-.677 2.16.236 1.527.677 2.161 1.065 1.118 1.788 1.387c.498.178 1.028.251 1.555.214a3.84 3.84 0 0 0 1.51-.428c.469-.245.881-.585 1.212-.998a3.83 3.83 0 0 0 .711-1.4 4.01 4.01 0 0 0 .141-.715c-.125 0-.208-.058-.208-.1s.1-.075.233-.1c.155-.014.311-.014.466 0a2.53 2.53 0 0 1 .582.058v-.049c.004-.857.28-1.691.79-2.379a3.91 3.91 0 0 1 1.813-1.439c.631-.231 1.31-.296 1.973-.192s1.289.377 1.818.79c.711.554 1.209 1.335 1.413 2.213.057.234.085.474.083.715.012.086.012.173 0 .258 0 0 0-.349-.175-.94a3.82 3.82 0 0 0-.707-1.404c-.331-.414-.743-.755-1.213-1.001a3.83 3.83 0 0 0-1.513-.426c-.528-.036-1.058.039-1.556.219-.724.269-1.348.754-1.788 1.388s-.677 1.388-.677 2.16.236 1.526.677 2.16a3.78 3.78 0 0 0 1.788 1.388c.633.228 1.315.288 1.979.174.582-.105 1.131-.344 1.605-.698.692-.52 1.192-1.254 1.422-2.088.158-.591.15-.94.175-.932a.84.84 0 0 1 0 .25c.001.241-.026.481-.083.715-.204.878-.703 1.659-1.413 2.213-.529.413-1.155.685-1.818.79s-1.342.039-1.973-.191c-.746-.269-1.395-.753-1.866-1.392a4.01 4.01 0 0 1-.778-2.193c-.195.05-.397.072-.599.066a3.49 3.49 0 0 1-.457 0 2.96 2.96 0 0 1-.083.715c-.204.878-.703 1.659-1.414 2.213-.529.413-1.155.685-1.818.79s-1.342.039-1.973-.191a3.92 3.92 0 0 1-1.871-1.397c-.33-.445-.56-.956-.673-1.498-.424.142-1.721.441-3.276.749-1.15.281-2.321.473-3.501.574a22.91 22.91 0 0 1 3.426-.832z"/></g><path d="M59.21 185.879c-1.214-.948-3.043-.574-4.274.35a18.59 18.59 0 0 0-3.01 3.477c-.965 1.206-2.237 2.32-3.767 2.437.186.646.533 1.234 1.009 1.708s1.065.82 1.711 1.004 1.329.201 1.983.048a3.95 3.95 0 0 0 1.757-.922c-.444.277-.822.65-1.106 1.09a1.18 1.18 0 0 0-.16.744c.03.258.145.5.326.687.173.117.369.198.575.236s.418.035.622-.012a7.35 7.35 0 0 0 2.758-.891c.851-.478 1.598-1.12 2.198-1.89a7.35 7.35 0 0 0 1.296-2.594c.255-.942.32-1.925.191-2.893-.095-.946-.462-1.845-1.056-2.587-.3-.364-.684-.652-1.117-.838a2.97 2.97 0 0 0-1.377-.235" class="E"/><path d="M61.339 189.714c-.067 0 0-.366-.116-.923-.093-.718-.381-1.397-.831-1.963a3.91 3.91 0 0 0-1.746-1.215c-.524-.183-.89-.199-.89-.266s.374-.141.973 0c.789.165 1.498.593 2.012 1.214a3.68 3.68 0 0 1 .831 2.213c-.042.599-.183.957-.233.94z" class="B"/><path d="M89.334 186.444s.141-.125.441-.1a1.28 1.28 0 0 1 .587.249 1.27 1.27 0 0 1 .394.5 1.59 1.59 0 0 1-.457 1.772 2.39 2.39 0 0 1-1.04.487c-.381.075-.775.057-1.147-.055a5.39 5.39 0 0 1-1.921-1.048 7.01 7.01 0 0 1-1.247-1.239 3.23 3.23 0 0 1-.782-1.414c.067 0 .349.507 1.014 1.214a8.53 8.53 0 0 0 1.256 1.123 5.41 5.41 0 0 0 1.788.948 2.04 2.04 0 0 0 .944.058c.315-.055.612-.183.869-.374a1.29 1.29 0 0 0 .423-.612 1.3 1.3 0 0 0 .017-.744 1.15 1.15 0 0 0-.285-.434 1.14 1.14 0 0 0-.447-.264c-.241-.075-.399-.034-.407-.067zm-32.519.2c0 .067-.541.2-1.305.657s-1.713 1.256-2.86 2.088a7.32 7.32 0 0 1-1.779.94c-.535.178-1.1.251-1.663.216-.973-.083-1.438-.524-1.397-.557a6.64 6.64 0 0 0 1.405.25 5.6 5.6 0 0 0 3.168-1.182c.932-.749 1.925-1.42 2.968-2.004a2.63 2.63 0 0 1 1.463-.408z" class="E"/><path d="M61.014 176.064c0-.075.906.125 2.353.075 1.887-.05 3.733-.561 5.377-1.487s3.038-2.241 4.06-3.828c.831-1.215 1.098-2.08 1.164-2.055-.01.217-.063.429-.158.624a8.88 8.88 0 0 1-.74 1.589c-.984 1.691-2.402 3.088-4.106 4.049a11 11 0 0 1-5.589 1.416 8.99 8.99 0 0 1-1.746-.192c-.407-.083-.624-.158-.615-.191z" class="B"/><use xlink:href="#F" class="D"/><use xlink:href="#F" opacity=".2" fill="#000"/><path d="M92.909 212.721h-.624c-.59.043-1.161.228-1.663.541a7.68 7.68 0 0 0-2.004 1.93 10.8 10.8 0 0 1-2.694 2.662 9.14 9.14 0 0 1-4.349 1.439 8.9 8.9 0 0 1-5.08-1.206c-1.613-.957-2.935-2.496-4.731-3.219s-3.95-.308-5.82.64-3.484 2.296-5.288 3.227a9.6 9.6 0 0 1-2.835.999c-.952.167-1.925.167-2.877 0-1.769-.304-3.396-1.16-4.648-2.446a16.97 16.97 0 0 0-3.326-3.028c-1.081-.601-2.307-.889-3.542-.832-.933.049-1.848.278-2.694.674-.53.265-1.027.592-1.48.973a3.52 3.52 0 0 1-.466.416 3.47 3.47 0 0 1 .407-.482 6.65 6.65 0 0 1 1.472-.998 7.23 7.23 0 0 1 2.752-.766 6.92 6.92 0 0 1 3.708.774c1.269.859 2.418 1.882 3.417 3.044a8.12 8.12 0 0 0 4.465 2.313c1.873.302 3.793-.041 5.446-.973 1.755-.907 3.326-2.254 5.288-3.236.951-.499 1.975-.842 3.035-1.015a5.82 5.82 0 0 1 3.11.358c1.921.832 3.226 2.362 4.773 3.277 1.48.867 3.185 1.272 4.897 1.165a8.9 8.9 0 0 0 4.207-1.34 10.62 10.62 0 0 0 2.669-2.553 7.48 7.48 0 0 1 2.112-1.922c.525-.315 1.125-.482 1.738-.482a1.88 1.88 0 0 1 .624.066zm-5.662-8.6c-.548.123-1.087.285-1.613.483-.604.26-1.181.58-1.721.956-.71.512-1.388 1.067-2.029 1.664a27.97 27.97 0 0 1-2.494 2.046 12.64 12.64 0 0 1-3.326 1.664 12.86 12.86 0 0 1-8.398-.167c-2.852-1.056-5.18-2.77-7.409-4.051a25.58 25.58 0 0 0-3.251-1.663 14.64 14.64 0 0 0-3.035-.882c-1.506-.28-3.056-.211-4.532.2-1.039.316-1.563.64-1.58.599a1.57 1.57 0 0 1 .366-.242 6.52 6.52 0 0 1 1.164-.515c1.494-.484 3.082-.604 4.631-.35a14.69 14.69 0 0 1 3.118.832c1.148.471 2.26 1.027 3.326 1.664 2.253 1.281 4.581 2.969 7.358 3.992 1.333.49 2.738.752 4.157.774a12.9 12.9 0 0 0 3.941-.574 12.27 12.27 0 0 0 3.251-1.555 26.15 26.15 0 0 0 2.494-1.98c.666-.597 1.369-1.153 2.104-1.664a9.17 9.17 0 0 1 1.796-.915 5.38 5.38 0 0 1 1.231-.308c.149-.023.3-.026.449-.008zm-22.915-3.494c-.508-.127-1.003-.3-1.48-.516-1.179-.412-2.401-.691-3.642-.831a16.07 16.07 0 0 0-3.733 0 8.29 8.29 0 0 1-1.555.174 4.51 4.51 0 0 1 1.513-.482 12.78 12.78 0 0 1 7.483.832 8 8 0 0 1 1.031.532c.274.175.399.266.382.291zm19.356-1.131s-.191.325-.649.69a6.58 6.58 0 0 1-4.257 1.348c-.582 0-.923-.133-.923-.183a23.78 23.78 0 0 0 3.043-.541 23.66 23.66 0 0 0 2.785-1.314zm12.414 23.465c-.084.117-.185.221-.299.308a4.49 4.49 0 0 1-1.048.665c-1.418.581-2.971.751-4.482.491-.956-.117-1.979-.341-3.068-.541a16.93 16.93 0 0 0-3.509-.316 30.17 30.17 0 0 0-7.957 1.497 75.41 75.41 0 0 1-7.907 2.171c-2.207.462-4.481.498-6.702.109a11.32 11.32 0 0 1-4.207-1.664c-.342-.229-.667-.482-.973-.757-.2-.2-.308-.299-.291-.316a1.69 1.69 0 0 1 .349.249l1.006.683a11.9 11.9 0 0 0 4.157 1.497c2.183.342 4.411.275 6.569-.2 2.494-.466 5.072-1.356 7.857-2.196a29.6 29.6 0 0 1 8.074-1.48c1.204-.01 2.405.11 3.584.357l3.043.591c1.462.28 2.972.162 4.374-.341a7.89 7.89 0 0 0 1.43-.807z" class="C"/><path d="M62.851 213.819a19.41 19.41 0 0 1-1.663 2.022l-4.058 4.841-3.916 4.974a16.77 16.77 0 0 1-1.663 2.013 13.85 13.85 0 0 1 1.43-2.196l3.85-5.032 4.157-4.767a13.16 13.16 0 0 1 1.862-1.855zm21.486 15.813c-.058-.042.723-.923 1.779-2.495.616-.893 1.085-1.879 1.389-2.92a5.61 5.61 0 0 0 .183-1.88 6.28 6.28 0 0 0-.499-1.955 17.53 17.53 0 0 0-2.12-3.393 21.37 21.37 0 0 1-1.846-2.779 7.63 7.63 0 0 1-.74-2.146 2.4 2.4 0 0 1 0-.832 3.34 3.34 0 0 1 .183.791 8.29 8.29 0 0 0 .832 2.029c.571.938 1.201 1.838 1.887 2.695a15.94 15.94 0 0 1 2.203 3.461 6.53 6.53 0 0 1 .549 2.121c.045.675-.028 1.354-.216 2.004a9.98 9.98 0 0 1-1.53 2.995 18.59 18.59 0 0 1-1.43 1.738c-.383.391-.599.591-.624.566zm-6.086-32.257s0 .441-.075 1.231 0 1.947-.075 3.377a11.06 11.06 0 0 1-1.081 4.941 5.39 5.39 0 0 1-2.12 2.18c-.983.508-2.092.722-3.193.615a6.6 6.6 0 0 1-3.076-1.056 8.33 8.33 0 0 1-2.178-2.088 12.55 12.55 0 0 1-2.062-4.617 25.38 25.38 0 0 1-.549-3.327c-.069-.409-.094-.825-.075-1.239.117.396.198.803.241 1.214l.682 3.327a12.74 12.74 0 0 0 2.079 4.459 7.03 7.03 0 0 0 4.989 2.953 5.39 5.39 0 0 0 2.96-.566 4.99 4.99 0 0 0 1.971-1.996 11.09 11.09 0 0 0 1.123-4.758l.216-3.386c.024-.313.069-.624.133-.931.042-.208.075-.333.091-.333z" class="B"/><path d="M112.848 269.318l1.663-34.162c.032-.655-.066-1.31-.288-1.927s-.563-1.184-1.004-1.669-.973-.879-1.566-1.158-1.235-.439-1.89-.47l-99.136-4.716a4.97 4.97 0 0 0-1.926.288c-.617.222-1.184.563-1.669 1.004s-.878.974-1.157 1.567a4.99 4.99 0 0 0-.47 1.89l-1.663 34.154c-.031.655.067 1.31.288 1.927a4.99 4.99 0 0 0 1.004 1.669c.441.485.973.879 1.566 1.158s1.235.439 1.89.47l85.509 4.076 8.847 9.483.673-9.034 4.074.2c.658.036 1.316-.059 1.936-.279s1.192-.56 1.68-1.001a4.99 4.99 0 0 0 1.166-1.571c.282-.596.442-1.241.473-1.899z" class="D"/><path d="M102.204 244.182l-52.558-2.629-.145 2.894 52.558 2.629.145-2.894zm-.064 7.011l-52.498-2.505-.138 2.892 52.498 2.504.138-2.891zm-26.824 5.975l-26.021-1.241-.138 2.891 26.021 1.241.138-2.891z" class="F"/><path d="M30.109 264.874c9.279-2.304 14.934-11.697 12.631-20.98s-11.693-14.941-20.972-12.636-14.934 11.697-12.631 20.98 11.693 14.94 20.972 12.636z" fill="#f5f5f5"/><path d="M34.59 244.114a.82.82 0 0 1-.091.075 5.11 5.11 0 0 1-2.178.516c-4.648.449-7.741-2.371-10.094-2.729s-2.295 2.412-2.295 2.412l-.183 6.538h-1.148l-.549-3.892c-.32-.049-.645-.049-.965 0-.939.124-2.22.74-2.145 3.152.091 2.753 2.129 2.745 3.209 2.496l-.407 10.655a17.23 17.23 0 0 0 7.375 2.071c1.111.047 2.225-.008 3.326-.166l.299-3.003c-4.39-.083-5.396-3.369-5.396-3.369a10.19 10.19 0 0 0 5.513 2.238v.058c.091 0 4.44-.241 4.989-4.55.324-3.194.607-9.333.74-12.502zm-17.128 7.212a.7.7 0 0 1-.59.116 1.66 1.66 0 0 1-.998-1.58c-.025-.36.04-.721.191-1.048a.94.94 0 0 1 .252-.387c.115-.106.254-.182.405-.221.128-.018.258.012.366.084a.48.48 0 0 1 .158.233c0 .149 0 .224-.05.216s0-.083-.05-.183c-.037-.068-.095-.121-.166-.152s-.15-.035-.224-.015a.76.76 0 0 0-.3.2c-.083.09-.142.198-.174.316-.115.299-.166.62-.15.94-.006.286.064.568.203.818s.341.459.587.605c.078.032.161.049.245.049s.168-.017.245-.049c.108-.05.15-.109.166-.1s.033.058-.116.158zm7.733-3.161c0-.042.05-.166.258-.291.277-.158.597-.222.913-.183a1.48 1.48 0 0 1 .841.399c.166.166.216.316.183.341s-.466-.308-1.073-.374-1.031.191-1.089.108h-.033zm1.912 1.114c-.105.134-.258.22-.427.24a.64.64 0 0 1-.471-.131.65.65 0 0 1-.213-.305.64.64 0 0 1-.008-.372c.034-.122.104-.231.2-.314a.64.64 0 0 1 .34-.149c.126-.016.253.007.366.064s.206.147.268.258a.64.64 0 0 1-.055.709zm4.931-1.222c.278-.153.597-.214.912-.175s.61.176.842.391c.166.175.216.316.183.349s-.474-.307-1.073-.382-1.073.199-1.131.108.091-.166.299-.291h-.033zm-1.555 3.568l.316 1.281a1 1 0 0 1 0 .666c-.029.057-.072.108-.124.147a.42.42 0 0 1-.176.077.97.97 0 0 1-.274 0 2.84 2.84 0 0 1-.989-.141 2.85 2.85 0 0 1 .998-.1c.158 0 .283 0 .308-.108.017-.156-.006-.313-.067-.458l-.341-1.272c-.337-1.084-.562-2.198-.674-3.328.459 1.041.812 2.125 1.056 3.236h-.033zm-2.428 4.109c-1.256-.624-.832-1.663-.832-1.663-.59-.441 1.663 1.106 2.852 1.181a1.67 1.67 0 0 1-.911.583 1.66 1.66 0 0 1-1.076-.101h-.033zm5.654-6.18a.63.63 0 0 1-.217.126c-.08.028-.164.039-.248.033a.64.64 0 0 1-.242-.064.66.66 0 0 1-.199-.153c-.07-.06-.126-.134-.164-.218a.64.64 0 0 1-.059-.266c0-.092.019-.183.057-.266s.094-.159.163-.219.151-.105.239-.131a.64.64 0 0 1 .272-.02.65.65 0 0 1 .448.288.64.64 0 0 1-.017.89h-.033z" class="H"/><g class="B"><path d="M33.791 248.655c-.05-.077-.115-.143-.193-.192s-.164-.082-.255-.095a.64.64 0 0 0-.272.02.63.63 0 0 0-.239.131c-.069.06-.125.134-.163.218s-.058.175-.057.266.02.183.059.267.094.157.164.217a.64.64 0 0 0 .193.193c.077.05.164.082.255.095a.64.64 0 0 0 .272-.02.63.63 0 0 0 .239-.131c.069-.06.125-.135.163-.218s.057-.175.057-.267a.64.64 0 0 0-.059-.266c-.038-.083-.094-.158-.164-.218z"/><path d="M32.935 248.24c.599.075.989.449 1.073.383s0-.175-.183-.349a1.51 1.51 0 0 0-.842-.392 1.52 1.52 0 0 0-.912.175c-.208.125-.291.258-.266.291s.532-.183 1.131-.108zm-5.912.141a.64.64 0 0 0-.782 1.006.64.64 0 0 0 .226.14c.084.03.174.042.263.035a.65.65 0 0 0 .255-.074c.079-.042.148-.101.203-.171a.65.65 0 0 0 .116-.239.66.66 0 0 0 .009-.266.64.64 0 0 0-.1-.246c-.05-.075-.115-.137-.191-.185z"/><path d="M27.439 248.431s0-.175-.183-.341a1.48 1.48 0 0 0-.841-.399c-.316-.039-.636.025-.913.182-.208.125-.291.25-.258.292s.524-.183 1.123-.109.981.441 1.073.375zm3.085 4.559a.92.92 0 0 1 .067.457c0 .083-.15.108-.308.108a2.85 2.85 0 0 0-.998.1 2.84 2.84 0 0 0 .989.141.97.97 0 0 0 .274 0 .42.42 0 0 0 .176-.077.43.43 0 0 0 .124-.147 1 1 0 0 0 0-.666l-.316-1.281c-.228-1.109-.565-2.193-1.006-3.235a16.7 16.7 0 0 0 .674 3.327l.324 1.273z"/></g><path d="M27.264 254.104s-.432 1.007.832 1.664a1.66 1.66 0 0 0 2.029-.449c-1.239-.108-3.451-1.656-2.86-1.215z" class="C"/><path d="M23.323 258.829s1.006 3.327 5.396 3.369l.108-1.073v-.058a10.18 10.18 0 0 1-5.504-2.238z" class="I"/><path d="M18.601 250.893h1.147l.183-6.538s-.058-2.762 2.295-2.412 5.446 3.177 10.094 2.728a5.11 5.11 0 0 0 2.178-.516c.032-.022.063-.047.091-.074a2.1 2.1 0 0 0 .981-1.789 1.45 1.45 0 0 0-.478-.955c-.275-.246-.634-.377-1.002-.367.26.015.52-.03.76-.133s.451-.262.618-.462.285-.437.343-.691a1.66 1.66 0 0 0-.357-1.457 1.66 1.66 0 0 0-.624-.454c-.241-.1-.501-.142-.761-.123s-.512.099-.735.234a5 5 0 0 0 1.33-1.523c.16-.3.224-.641.184-.979a1.66 1.66 0 0 0-.408-.909c-.268-.199-.584-.323-.916-.358s-.667.02-.971.159c-.948.349-1.721 1.106-2.686 1.389-1.008.172-2.037.194-3.052.066-1.139-.03-2.259.299-3.201.94a3.64 3.64 0 0 0-1.119 1.255c-.27.5-.419 1.055-.436 1.623-1.413-.249-3.002-.341-4.157.499-.475.381-.859.863-1.124 1.412s-.404 1.149-.406 1.758c.046 1.214.276 2.414.682 3.56l.067.208c.32-.049.645-.049.965 0l.515 3.909z" class="B"/><path d="M17.462 251.234c-.078.033-.161.05-.245.05s-.168-.017-.245-.05c-.246-.145-.448-.354-.587-.604s-.209-.532-.203-.818a2.28 2.28 0 0 1 .15-.94c.032-.118.091-.226.174-.316a.76.76 0 0 1 .3-.2c.074-.02.154-.015.224.015a.34.34 0 0 1 .166.152c.05.099 0 .174.05.183s.083-.067.05-.217a.49.49 0 0 0-.158-.233.53.53 0 0 0-.366-.083c-.151.039-.291.115-.405.221a.94.94 0 0 0-.252.387c-.151.327-.217.688-.191 1.048-.011.333.078.661.256.943a1.66 1.66 0 0 0 .742.637.7.7 0 0 0 .59-.116c.117-.1.133-.183.117-.192s-.075.083-.166.133z" class="I"/><path d="M49.058 265.874c-1.663-1.006-3.684-2.437-3.858-3.327l-.249-1.464c-.831-5.756-1.505-19.181-.532-27.067.1-.832 2.885-4.009 6.012-7.353l-10.435-7.694-1.663 2.079c-8.847 11.088-5.712 33.173-3.991 42.023l.94 4.825s.773 5.298 1.472 5.623 1.089-.466 1.089-.466.74.923 1.339.832c.773-.092 1.139-1.498 1.139-1.498s.699 1.14 1.364 1.123c.831 0 1.014-1.355 1.014-1.355a2.24 2.24 0 0 0 .805.808c.334.195.712.301 1.099.306.273-.031.529-.147.732-.332a1.31 1.31 0 0 0 .398-.699s-1.139-4.991-.466-5.482 1.705.399 2.12.566 2.96 1.264 4.249.549-.915-.99-2.578-1.997z" class="G"/><g clip-path="url(#C)"><use xlink:href="#G" fill="url(#A)"/><use xlink:href="#G" fill="url(#B)"/><path d="M139.67 110.534c-11.524 0-12.971.051-17.497.256-4.517.208-7.601.923-10.299 1.972-2.791 1.084-5.158 2.534-7.517 4.893s-3.81 4.726-4.897 7.516c-1.052 2.699-1.768 5.784-1.972 10.299-.202 4.526-.255 5.973-.255 17.498l.256 17.492c.208 4.518.923 7.601 1.971 10.299 1.084 2.791 2.534 5.159 4.893 7.517s4.726 3.814 7.515 4.898c2.7 1.049 5.784 1.764 10.301 1.971 4.526.206 5.971.256 17.495.256s12.967-.05 17.493-.256c4.517-.207 7.604-.922 10.304-1.971 2.79-1.084 5.154-2.537 7.512-4.898s3.81-4.726 4.898-7.516c1.043-2.699 1.759-5.783 1.971-10.299.203-4.526.256-5.969.256-17.493l-.256-17.497c-.212-4.518-.928-7.601-1.971-10.299-1.088-2.791-2.537-5.158-4.898-7.517a20.74 20.74 0 0 0-7.514-4.893c-2.705-1.049-5.791-1.765-10.308-1.972-4.526-.205-5.967-.256-17.495-.256h.013zm-3.807 7.647h3.807l17.147.244c4.137.189 6.383.881 7.878 1.461 1.981.769 3.392 1.689 4.877 3.174s2.404 2.9 3.175 4.88c.581 1.494 1.273 3.74 1.461 7.877.204 4.473.248 5.816.248 17.141l-.248 17.141c-.189 4.138-.88 6.383-1.461 7.877a13.11 13.11 0 0 1-3.175 4.875c-1.485 1.485-2.895 2.404-4.877 3.174-1.494.583-3.741 1.273-7.878 1.462-4.474.203-5.817.247-17.147.247s-12.674-.044-17.146-.247c-4.138-.191-6.383-.882-7.88-1.463-1.98-.77-3.395-1.689-4.88-3.174a13.15 13.15 0 0 1-3.175-4.877c-.581-1.494-1.273-3.74-1.462-7.877-.203-4.473-.244-5.817-.244-17.149l.244-17.141c.189-4.137.881-6.383 1.462-7.878.769-1.981 1.69-3.395 3.175-4.88s2.9-2.405 4.88-3.176c1.496-.583 3.742-1.273 7.88-1.463 3.914-.177 5.431-.23 13.339-.239v.011zm26.458 7.046c-2.811 0-5.092 2.278-5.092 5.09s2.281 5.092 5.092 5.092 5.092-2.281 5.092-5.092-2.281-5.092-5.092-5.092v.002zm-22.651 5.949c-12.034 0-21.791 9.757-21.791 21.792s9.757 21.787 21.791 21.787a21.79 21.79 0 0 0 21.788-21.787c0-12.034-9.754-21.792-21.789-21.792h.001zm0 7.647a14.15 14.15 0 0 1 14.145 14.145 14.15 14.15 0 0 1-14.145 14.145c-7.812 0-14.144-6.334-14.144-14.145s6.332-14.145 14.144-14.145z" class="C"/></g><defs><radialGradient id="A" cx="0" cy="0" r="1" gradientUnits="userSpaceOnUse" gradientTransform="translate(114.206 215.649) rotate(-90) scale(107.659 100.132)"><stop stop-color="#fd5"/><stop offset=".1" stop-color="#fd5"/><stop offset=".5" stop-color="#ff543e"/><stop offset="1" stop-color="#c837ab"/></radialGradient><radialGradient id="B" cx="0" cy="0" r="1" gradientUnits="userSpaceOnUse" gradientTransform="matrix(9.445439396612143,47.18836244207811,-194.511629394549,38.93434127191094,67.1558,106.478)"><stop stop-color="#3771c8"/><stop offset=".128" stop-color="#3771c8"/><stop offset="1" stop-color="#60f" stop-opacity="0"/></radialGradient><clipPath id="C"><path transform="translate(85.352 98.653)" d="M0 0h108.629v108.629H0z" class="C"/></clipPath><path id="D" d="M299.896 260.458c0 .125-14.684.217-32.793.217s-32.802-.092-32.802-.217 14.684-.216 32.802-.216l32.793.216z"/><path id="E" d="M299.896 263.445c0 .116-14.684.216-32.793.216s-32.802-.1-32.802-.216 14.684-.216 32.802-.216l32.793.216z"/><path id="F" d="M86.557 229.965l12.705-9.15-14.226-19.914c-.804-1.151-1.874-2.09-3.119-2.738s-2.629-.983-4.032-.98c0 0 1.879 11.995-5.662 12.086s-8.614-12.003-8.614-12.003l-.05-.233-1.197.05v-.05s-.59 0-1.48.108l-2.303.092-.091.216a13.19 13.19 0 0 0-4.939 1.664c-2.644 1.83-16.455 17.742-16.455 17.742l14.36 10.581 3.077-3.993 1.455 5.823c1.214 4.899-4.673 16.511-4.532 21.91l36.402 4.017-1.281-18.408-.017-6.82z"/><path id="G" d="M168.521 98.653h-57.709c-14.062 0-25.46 11.399-25.46 25.46v57.709c0 14.062 11.399 25.46 25.46 25.46h57.709c14.061 0 25.46-11.398 25.46-25.46v-57.709c0-14.061-11.399-25.46-25.46-25.46z"/></defs></svg>