<svg xmlns="http://www.w3.org/2000/svg" xmlns:xlink="http://www.w3.org/1999/xlink" width="257" height="229" fill="none" xmlns:v="https://vecta.io/nano"><path d="M248.896 165.583c-4.191-9.535-12.243-17.492-21.915-21.409-10.072-4.079-21.639-2.594-32.249-3.961-9.218-1.186-15.862-5.299-21.365-12.613-5.272-7.008-9.998-14.769-18.611-18.011-6.811-2.562-14.555-1.851-21.324.818-12.475 4.918-21.895 15.375-29.83 25.794-7.244 9.51-13.157 19.927-26.55 20.266s-26.173-7.305-39.674-5.282c-17.847 2.678-32.706 17.529-35.813 35.216-2.919 16.572 4.404 32.645 16.984 42.091h216.228c15.858-16.817 24.17-40.049 14.118-62.909z" fill="#f7f0e3"/><path d="M53.425 228.492h.595a45.62 45.62 0 0 0 9.424-16.165c3.329-9.898 3.19-20.287-.395-29.252-1.812-4.522-4.428-8.752-6.957-12.836-2.565-4.141-5.218-8.423-7.018-13.012a29.05 29.05 0 0 1-1.626-6.012l-.447-.054a29.37 29.37 0 0 0 1.668 6.225c1.814 4.626 4.479 8.926 7.055 13.083 2.519 4.066 5.124 8.272 6.922 12.768 3.545 8.871 3.682 19.15.386 28.951a45.12 45.12 0 0 1-9.606 16.304zm180.309-18.858c4.456.949 8.748 1.8 12.902 2.336l.21-.413c-4.186-.532-8.522-1.391-13.02-2.349-6.853-1.46-14.263-3.041-21.627-3.041-4.555 0-9.086.607-13.445 2.221-1.657.616-3.251 1.391-4.759 2.314-3.936-1.677-7.893-3.509-11.811-5.519a299.84 299.84 0 0 1 8.622-6.262c21.567-15.057 41.465-23.594 60.691-26.016l-.118-.423c-19.279 2.435-39.223 10.999-60.822 26.09a266.7 266.7 0 0 0-8.798 6.39 145.26 145.26 0 0 1-12.984-7.549c-7.653-5.009-16.739-12.159-24.681-21.661 30.778-3.453 62.111-7.803 87.7-24.905a53.84 53.84 0 0 0 3.162-2.284l-.372-.259c-1.068.828-2.099 1.565-3.031 2.181-25.582 17.097-56.975 21.414-87.793 24.872-5.611-6.783-10.625-14.762-14.111-23.992-5.428-14.379-5.141-28.488.787-38.714.257-.443.53-.88.81-1.313-.249.113-.494.231-.739.348l-.447.746c-5.994 10.338-6.291 24.583-.818 39.084 3.467 9.182 8.436 17.124 14.004 23.897l-5.349.593-19.496 2.261c-2.351.303-4.743.656-7.131 1.099-5.095-10.756-10.699-21.261-17.943-30.269l-.313.306c7.182 8.94 12.751 19.365 17.821 30.059-10.38 1.979-20.459 5.7-25.841 14.363-5.027 8.088-5.022 19.27.014 33.235l.536 1.431h.464l-.591-1.579c-4.988-13.833-5.006-24.888-.054-32.859 5.319-8.558 15.342-12.231 25.665-14.186l5.27 11.469.188.414c6.006 13.257 12.217 26.052 20.35 36.741h.543c-8.208-10.71-14.454-23.579-20.496-36.92l-.188-.414-5.218-11.372c2.334-.431 4.68-.777 6.987-1.075l19.489-2.269 5.63-.623c8.018 9.648 17.219 16.899 24.961 21.966a145.98 145.98 0 0 0 12.833 7.468c-7.398 5.596-14.593 11.48-21.618 17.22l-7.373 6.011h.695l6.958-5.674 21.769-17.344c3.898 2.005 7.827 3.826 11.747 5.508-5.355 3.407-9.721 8.681-12.359 15.085a35.32 35.32 0 0 0-.887 2.425h.459a34.96 34.96 0 0 1 .83-2.261c2.647-6.424 7.047-11.692 12.444-15.044 10.944 4.649 21.698 8.1 30.939 10.834l.348.103c3.896 1.152 7.879 2.333 11.402 4.227l.295-.336c-3.581-1.943-7.622-3.131-11.573-4.308l-.348-.103c-9.147-2.706-19.78-6.115-30.612-10.695 1.404-.838 2.881-1.546 4.414-2.115 11.28-4.169 23.791-1.503 34.827.849zM19.633 181.467c1.913 7.862 1.063 16.35-2.352 23.293-2.237 4.548-5.467 8.664-9.444 12.2l.24.367c4.042-3.582 7.324-7.759 9.594-12.374 3.46-7.032 4.328-15.631 2.383-23.588-1.518-6.218-4.573-11.48-8.792-15.306l-.28.334c4.15 3.76 7.154 8.948 8.651 15.074z" fill="#fff"/><path d="M118.047 81.88c3.789 3.872 5.486 10.392 3.397 16.405-2.023 5.822-6.456 10.643-11.782 13.741-4.286 2.494-9.876 3.87-14.088 1.259-3.15-1.952-4.783-5.781-4.87-9.486s1.155-7.305 2.694-10.685c2.171-4.75 5.091-9.357 9.443-12.246 5.992-3.98 11.564-2.708 15.206 1.012z" fill="#f7f0e3"/><g fill="#e9ddca"><path d="M67.833 14.012H36.468V0h31.365v14.012zM37.12 13.36h30.062V.652H37.12V13.36z"/><path d="M47.43 27.412H16.063V13.392H47.43v14.021zm-30.715-.652h30.062V14.051H16.715V26.76z"/></g><path d="M199.443 204.553c0 7.615-2.465 13.494-7.396 17.635s-10.505 6.216-16.723 6.222c-6.23 0-11.808-2.074-16.732-6.222s-7.387-10.026-7.386-17.635 2.463-13.484 7.387-17.634c7.587-6.405 18.814-7.827 27.699-3.336 7.886 3.988 13.151 12.091 13.151 20.97z" fill="#e49b31"/><path d="M191.18 204.551c0 7.615-2.465 13.493-7.395 17.635s-10.505 6.216-16.722 6.222c-6.23 0-11.808-2.074-16.732-6.222s-7.387-10.026-7.386-17.635 2.462-13.485 7.386-17.635 10.5-6.223 16.732-6.221c6.221 0 11.795 2.074 16.722 6.221s7.392 10.026 7.395 17.635z" fill="#fbc343"/><path d="M66.153 96.616a4.55 4.55 0 0 0-3.632-5.309 4.55 4.55 0 0 0-5.309 3.632 4.55 4.55 0 0 0 3.632 5.309 4.55 4.55 0 0 0 5.309-3.632zm2.166 8.525c.26-1.389-.662-2.727-2.061-2.989s-2.743.651-3.003 2.04.663 2.727 2.061 2.989 2.743-.651 3.003-2.04zM63.12 85.532a17.91 17.91 0 0 0-25.326-25.326c-6.993 6.993-6.993 18.332 0 25.326a17.91 17.91 0 0 0 25.326 0z" fill="#d3dfff"/><g fill="#fff"><use xlink:href="#B"/><use xlink:href="#B" x="6.876"/><use xlink:href="#B" x="13.752"/></g><path d="M37.626 219.446l1.673 6.449c.437 1.684 2.065 2.819 3.863 2.698 5.486-.374 16.885-1.717 23.429-6.54l-1.861-9.297c-8.994-.508-17.407 0-24.698 2.446-1.818.614-2.872 2.442-2.406 4.244z" fill="#102048"/><path d="M48.112 224.579c-.047 0-.094-.016-.131-.045s-.065-.069-.077-.115l-2.247-8.047a.22.22 0 0 1 .02-.166c.028-.05.076-.087.131-.102s.115-.009.165.02.087.075.103.131l2.247 8.044a.22.22 0 0 1 .006.085c-.004.028-.013.056-.026.081a.21.21 0 0 1-.055.064.2.2 0 0 1-.135.05zm4.856-1.086a.22.22 0 0 1-.132-.045c-.038-.029-.065-.069-.077-.115l-2.247-8.044c-.008-.028-.01-.057-.006-.085a.22.22 0 0 1 .026-.081c.014-.025.033-.046.055-.064a.2.2 0 0 1 .076-.038.22.22 0 0 1 .085-.007.23.23 0 0 1 .081.027c.025.014.047.033.064.055a.22.22 0 0 1 .038.076l2.245 8.044c.008.028.01.056.007.085a.21.21 0 0 1-.026.08.23.23 0 0 1-.055.065.2.2 0 0 1-.076.038.29.29 0 0 1-.059.009z" fill="#fff"/><g fill="#fbc343"><path d="M58.606 184.574L37.7 190.779l15.527 21.275 22.291 1.772 30.746-13.001-11.685-17.579-35.973 1.328z"/><path d="M84.381 187.528c45.918-13.592 53.293 26.986-18.345 34.373-2.531-2.847-5.488-7.787-6.662-11.916l37.832-17.484-12.826-4.973z"/></g><path d="M86.333 216.612c-2.148-.696-4.206-2.046-4.206-2.046l-7.378 2.314 1.691 8.028 7.665 1.566c2.339-4.281 2.472-7.787 2.228-9.862z" fill="#f9b384"/><path d="M59.539 210.269l-.327-.565c7.891-4.587 28.107-15.605 45.332-18.854l.12.64c-17.124 3.231-37.262 14.208-45.125 18.779z" fill="#e49b31"/><path d="M58.615 184.577c-42.737-8.127-53.804 32.946 17.833 40.333a26.03 26.03 0 0 0 5.688-10.342c-11.005-7.365-23.307-14.362-36.792-21.029l13.271-8.962z" fill="#fbc343"/><g fill="#e49b31"><path d="M81.952 214.841l-6.394-4.11c-11.257-7.269-24.018-15.508-34.859-20.206l.259-.598c10.892 4.719 23.676 12.973 34.96 20.256l6.39 4.108-.356.55zm-54.701-9.902l-.572-.315c1.605-2.905 4.174-4.87 7.637-5.823l.174.629c-3.334.924-5.702 2.726-7.239 5.509zm89.199-2.473c-1.538-2.783-3.907-4.584-7.241-5.508l.174-.628c3.465.958 6.034 2.919 7.637 5.822l-.57.314z"/><path d="M72.437 224.545l-.477-.445c3.418-3.652 5.519-7.526 6.418-11.817l.638.134c-.922 4.411-3.077 8.378-6.58 12.128z"/></g><path d="M107.646 214.22c-5.475-3.383-16.09 2.462-18.755 2.757-.777.087-1.675-.083-2.559-.367.243 2.075.108 5.582-2.228 9.853l1.303.265s9.001 3.305 18.55 1.379c8.813-1.772 7.994-11.229 3.689-13.887z" fill="#102048"/><path d="M100.185 225.285c-.023 0-.045-.003-.066-.01-.027-.009-.053-.022-.074-.041a.21.21 0 0 1-.053-.065.22.22 0 0 1-.023-.082c-.002-.028.001-.056.009-.083.65-2.061.934-6.114-.95-8.834a.22.22 0 0 1 .07-.27c.041-.029.092-.043.142-.04s.098.026.135.061c1.974 2.851 1.684 7.072 1.007 9.218-.014.042-.041.078-.076.104s-.078.041-.122.042zm-4.297.816c-.022 0-.045-.003-.066-.01-.055-.018-.1-.056-.127-.108s-.032-.11-.014-.165c.651-2.06.934-6.112-.95-8.833-.033-.047-.045-.105-.035-.162a.22.22 0 0 1 .167-.175.22.22 0 0 1 .085-.002.21.21 0 0 1 .079.032c.024.016.045.035.061.059 1.974 2.85 1.684 7.07 1.007 9.218-.015.043-.043.08-.08.106s-.082.041-.127.04z" fill="#fff"/><path d="M51.045 131.619s10.763-9.152 10.365-10.891c-.285-1.244-3.332.579-3.332.579s4.275-5.074 4.058-5.69c-.39-1.101-3.346.952-3.346.952s1.999-2.877 1.044-3.347-3.039 1.305-3.039 1.305 1.218-1.597.645-2.016-3.039 1.304-3.039 1.304.885-2.014-.997-1.25-15.068 12.871-15.068 12.871l12.709 6.183z" fill="#f9b384"/><path d="M55.449 120.763c-.051-.001-.101-.02-.139-.054-1.847-1.689-2.663-2.097-4.696-2.725a.23.23 0 0 1-.152-.187.22.22 0 0 1 .009-.085c.017-.055.055-.101.106-.128s.11-.033.166-.016c2.111.651 2.957 1.073 4.87 2.819a.23.23 0 0 1 .05.069c.012.026.019.054.02.083s-.003.057-.013.084-.025.051-.044.072-.05.043-.081.055-.064.016-.097.013zm-3.242 4.964h-.031a.21.21 0 0 1-.08-.028c-.025-.014-.046-.033-.063-.056s-.03-.049-.037-.076-.009-.057-.004-.085c.21-1.513.687-2.46 1.456-2.891.657-.369 1.511-.332 2.541.113.027.011.052.027.072.048s.037.045.048.072a.21.21 0 0 1 .016.084c0 .03-.007.058-.018.085s-.029.051-.05.071-.046.035-.073.046-.056.014-.085.013a.22.22 0 0 1-.084-.02c-.898-.388-1.623-.432-2.155-.133-.633.348-1.044 1.218-1.24 2.573-.008.051-.034.097-.072.131s-.088.052-.14.053zm-.507-9.149a.22.22 0 0 1-.122-.037c-.036-.024-.064-.059-.08-.1s-.02-.085-.01-.127.031-.082.063-.112l2.701-2.544a.21.21 0 0 1 .158-.066.21.21 0 0 1 .085.018c.027.012.051.029.071.05a.22.22 0 0 1 .046.075c.01.027.014.057.013.086s-.009.058-.022.084-.031.05-.054.069l-2.699 2.545c-.04.038-.094.059-.15.059zm2.499.868c-.028.001-.055-.005-.081-.015s-.049-.026-.069-.046a.21.21 0 0 1-.047-.07c-.011-.027-.017-.054-.017-.083a.22.22 0 0 1 .017-.083c.011-.026.027-.05.047-.07l2.595-2.703c.019-.022.043-.04.07-.053s.055-.02.085-.022.059.004.087.014.053.026.074.047a.24.24 0 0 1 .05.072c.012.027.017.057.017.086s-.006.059-.018.086-.029.051-.05.071l-2.593 2.703c-.021.022-.047.039-.076.05s-.059.017-.09.016zm2.555 1.525a.22.22 0 0 1-.148-.057c-.021-.02-.038-.043-.05-.069s-.019-.054-.019-.083a.24.24 0 0 1 .014-.084c.01-.027.025-.051.045-.072l2.035-2.183c.019-.022.042-.041.069-.054s.055-.02.084-.022a.21.21 0 0 1 .086.013c.027.01.053.025.074.045s.039.044.051.071.018.055.019.085-.005.058-.016.085-.028.052-.048.073l-2.035 2.182a.2.2 0 0 1-.073.052c-.028.012-.057.018-.087.018z" fill="#e28b6d"/><g fill="#3a6bea"><path d="M91.703 192.836l-39.35 1.522-4.348-35.874 18.242-17.097 8.558-.439c26.546 12.068 22.199 27.139 16.899 51.888z"/><path d="M74.803 140.948s30.373 2.597 39.947 23.406c9.37 20.362-29.133 27.612-29.133 27.612l-10.813-51.018zm-34.719 4.459l12.551-15.273-11.735-7.113c-4.896 3.403-14.363 11.114-22.387 19.845-1.771 1.927-3.155 4.175-3.851 6.658-.582 2.031-.708 4.165-.369 6.25.87 5.332 5.065 9.446 10.664 10.102 4.781.56 23.046-.87 37.83-5.218l4.348-16.783c-2.235-1.268-18.842-1.487-27.052 1.532z"/></g><g opacity=".8" fill="#fff"><path d="M100.148 149.207l.197-.045-.412-.24-6.783 1.31c-1.36.163-5.905.464-7.234-2.566-.661-1.506-.16-3.181.586-4.357l-.325-.094c-.765 1.246-1.256 2.994-.56 4.583 1.419 3.236 6.155 2.928 7.573 2.757 2.326-.276 4.682-.822 6.959-1.348zm14.176 23.467c-1.453-.561-2.957-1.14-4.523-.992-2.765.261-5.131 2.995-5.273 6.088-.098 2.113.71 4.327 2.247 6.275l.278-.174c-1.504-1.892-2.294-4.04-2.2-6.087.138-2.943 2.369-5.538 4.978-5.784 1.499-.139 2.898.399 4.378.971l1.612.584.08-.316-1.577-.565zm-76.66-10.37c-1.896-1.566-4.842-1.988-8.083-1.15-2.887.746-5.364 2.226-7.065 4.183l.334.11c1.656-1.856 4.04-3.26 6.813-3.978 3.131-.811 5.978-.414 7.792 1.087a7.08 7.08 0 0 1 1.913 2.638l.337-.038a7.44 7.44 0 0 0-2.042-2.852zm-17.14-21.569c3.553-.882 7.02-2.122 10.218-3.964 1.218-.696 2.572-1.585 3.532-2.888 1.021-1.391 1.36-3.036.908-4.414a3.45 3.45 0 0 0-.885-1.391l-.25.207a3.12 3.12 0 0 1 .824 1.29c.421 1.279.099 2.82-.859 4.121-.924 1.254-2.261 2.118-3.433 2.796-3.016 1.74-6.279 2.94-9.629 3.808l-.426.435z"/></g><path d="M77.582 132.972v.556l-.089 8.65-.01.937c-.061 1.388-.655 2.698-1.659 3.659s-2.339 1.496-3.728 1.496-2.724-.536-3.728-1.496-1.598-2.271-1.659-3.659l-.104-10.688 10.977.545z" fill="#f9b384"/><path d="M77.574 133.529l-.089 8.649c-4.807-1.956-6.783-7.16-6.783-7.16l6.872-1.489z" fill="#102048"/><path d="M79.487 118.436c1.724 2.066 6.754 13.781 1.654 17.778-5.74 4.498-14.471-2.895-14.471-2.895l-1.172-13.643 7.582-1.998 6.408.758z" fill="#f9b384"/><path d="M61.627 117.684s-16.812 8.765-3.103 34.046c1.76 3.243 5.656 4.664 8.996 3.08a6.83 6.83 0 0 0 2.212-1.684 6.82 6.82 0 0 0 1.631-5.194c-.099-.931-.389-1.832-.852-2.647-2.244-3.983-4.407-9.114-3.479-12.93l-5.406-14.671z" fill="#102048"/><path d="M66.431 125.051a4.55 4.55 0 0 0 0-6.433 4.55 4.55 0 0 0-6.432 0 4.55 4.55 0 0 0 0 6.433 4.55 4.55 0 0 0 6.432 0z" fill="#fbc343"/><path d="M68.811 127.3c-.492-2.837-.791-4.783 2.077-6.246 0 0 10.107 1.838 12.036-1.976s-1.011-9.831-7.166-5.649C60 110.35 57.886 125.096 62.664 130.013l4.715-.724a1.71 1.71 0 0 0 .636-.233 1.72 1.72 0 0 0 .497-.461c.134-.185.228-.395.279-.618s.058-.452.019-.677zm7.825.678a.671.671 0 1 0 0-1.342.671.671 0 1 0 0 1.342zm4.549-2.239a.672.672 0 1 0 0-1.343.672.672 0 1 0 0 1.343zm-.467 3.637a.19.19 0 0 1-.071-.014c-.022-.009-.043-.023-.06-.04s-.032-.039-.041-.062-.015-.047-.015-.072a.19.19 0 0 1 .015-.073c.01-.023.024-.044.041-.061.27-.284.565-.682.44-.972s-.673-.43-.922-.43c-.536 0-.793-.953-.84-1.144-.009-.026-.012-.052-.01-.079s.01-.052.023-.076a.19.19 0 0 1 .052-.059c.021-.017.045-.028.071-.034s.053-.007.079-.002.051.015.073.03.041.034.055.057a.2.2 0 0 1 .027.074c.097.402.318.852.47.852.256 0 1.044.122 1.272.661.165.385 0 .851-.513 1.392-.019.018-.042.032-.068.041a.19.19 0 0 1-.078.011zm.035 2.549a.2.2 0 0 1-.106-.031c-1.264-.854-2.543-.138-2.555-.131-.022.013-.046.021-.07.024s-.05.001-.074-.005-.047-.018-.066-.034a.22.22 0 0 1-.049-.056c-.013-.022-.021-.045-.024-.07s-.002-.05.005-.074a.21.21 0 0 1 .033-.067c.015-.02.034-.036.056-.048.061-.035 1.498-.84 2.957.144.042.029.071.072.081.122a.19.19 0 0 1-.028.143c-.017.026-.041.047-.069.062s-.058.022-.09.021zm-4.41-7.529c.383.72-.285.869-1.064 1.28s-1.579.565-1.762.223.303-.959 1.082-1.373 1.449-.687 1.745-.13zm2.845-1.298c.174.642.647.36 1.343.174s1.259-.532 1.179-.838-.71-.407-1.405-.227-1.247.394-1.117.891z" fill="#102048"/><path opacity=".4" d="M74.883 131.885a1.98 1.98 0 1 0-2.686-2.912 1.98 1.98 0 1 0 2.686 2.912z" fill="#eb5d60"/><path d="M68.424 132.319c.905-1.173.559-2.959-.774-3.988s-3.148-.911-4.053.262-.559 2.959.774 3.988 3.148.911 4.053-.262z" fill="#f9b384"/><path d="M67.19 131.443a.19.19 0 0 1-.19-.189 1.67 1.67 0 0 0-.192-.788c-.128-.242-.313-.45-.54-.604-.178-.129-.386-.212-.604-.243s-.44-.006-.647.069a.2.2 0 0 1-.076.024c-.027.003-.053-.001-.079-.01s-.048-.023-.068-.041-.035-.041-.045-.066a.19.19 0 0 1 .005-.155c.012-.024.028-.045.049-.062s.044-.03.07-.038c.264-.1.549-.134.829-.099a1.73 1.73 0 0 1 .778.303 2.04 2.04 0 0 1 .901 1.704c.001.026-.004.051-.013.075a.19.19 0 0 1-.041.064c-.018.019-.039.032-.063.042s-.049.015-.074.014zm-27.265 13.812l-6.864 7.426.319.295 6.864-7.425-.319-.296zm48.363 31.916l-.127-.416c4.999-1.522 9.848-3.345 14.243-8.841l.348.271c-4.481 5.594-9.398 7.443-14.464 8.986z" fill="#102048"/><path d="M91.326 160.333H48.814c-1.529 0-2.767 1.342-2.767 2.996v30.352c0 1.655 1.238 2.996 2.767 2.996h42.512c1.529 0 2.769-1.341 2.769-2.996v-30.359c.002-1.647-1.24-2.989-2.769-2.989z" fill="#d3dfff"/><path d="M72.316 176.585c.081.004.157.039.211.099s.084.137.081.218v3.206c.003.08-.026.158-.081.217s-.131.094-.211.097h-4.482c-.08-.003-.156-.038-.211-.097s-.084-.137-.081-.217v-3.206c-.003-.081.026-.159.081-.218s.131-.095.211-.099h4.489m0-.869h-4.489a1.17 1.17 0 0 0-.826.353c-.218.222-.338.522-.336.833v3.206c-.003.311.118.61.336.832s.515.349.826.352h4.489c.311-.003.608-.13.826-.352s.339-.521.336-.832v-3.206c.003-.311-.118-.611-.336-.833a1.17 1.17 0 0 0-.826-.353z" fill="#1f3c88"/><path d="M256.32 228.057H0v.87h256.32v-.87z" fill="#102048"/><path d="M188.191 138.44a25.34 25.34 0 0 0 6.999 7.05 34.28 34.28 0 0 0 8.525 4.117l8.039 2.289 4.632 1.252c1.116.322 2.195.762 3.218 1.312.574.301 1.081.714 1.491 1.215.159.195.219.578.242.863.016.191.03.372-.549.866-.324.276-1.687 1.2-5.64 1.521-1.947.158-4.154.073-6.561-.251-2.419-.326-4.797-.898-7.099-1.704a5.66 5.66 0 0 0-4.563.36c-.693.375-1.3.89-1.78 1.512a5.6 5.6 0 0 0-1.011 2.102l-2.523 10.377a5.58 5.58 0 0 0 .452 3.862c.609 1.192 1.626 2.128 2.867 2.638a45.88 45.88 0 0 0 10.772 2.959l1.352.177c-.636 2.626-1.411 6.636-.7 8.298 1.1 2.573 9.819 2.015 13.372 1.873 3.024-.12 2.392-8.158 2.137-10.556 3.098-.497 5.891-1.251 8.331-2.257 3.644-1.503 6.692-3.467 9.046-5.837 2.467-2.483 4.221-5.378 5.216-8.599.939-3.066 1.281-6.282 1.009-9.475-.355-4.38-1.572-8.143-3.614-11.182-1.846-2.778-4.223-5.168-6.995-7.034a32.9 32.9 0 0 0-8.273-3.982c-2.56-.82-5.008-1.505-7.278-2.035l-5.208-1.332a17.32 17.32 0 0 1-3.488-1.279c-.708-.359-1.259-.763-1.635-1.203-.056-.066-.132-.277-.163-.658-.104-1.283.229-1.749.968-2.257 1.678-1.153 3.97-1.854 6.811-2.085 2.556-.195 5.127-.008 7.627.553 2.761.609 5.742.69 7.914 1.671 3.257 1.467 6.563.308 7.347-3.164l2.482-10.975a5.59 5.59 0 0 0-.435-3.699c-.564-1.147-1.505-2.068-2.668-2.61-3.028-1.413-6.383-2.487-9.987-3.201.532-2.595 1.031-6.02.357-7.514-1.148-2.549-9.858-1.81-13.407-1.596-2.374.143-2.39 5.13-2.141 8.42-4.078.338-7.901 1.118-11.367 2.321-3.722 1.294-6.963 3.135-9.63 5.468a24.18 24.18 0 0 0-6.332 8.695c-1.478 3.431-2.049 7.367-1.697 11.698.352 4.307 1.539 8.012 3.538 11.015z" fill="#f7974d"/><path d="M192.555 139.565a25.35 25.35 0 0 0 6.999 7.049c2.636 1.758 5.506 3.142 8.526 4.113l8.039 2.288 4.632 1.252a16.32 16.32 0 0 1 3.219 1.313c.574.302 1.082.714 1.492 1.214.158.196.219.579.242.863.015.192.03.373-.549.866-.324.276-1.688 1.2-5.64 1.521-1.947.158-4.154.074-6.563-.25-2.419-.326-4.799-.897-7.101-1.705-.744-.262-1.534-.365-2.32-.303a5.63 5.63 0 0 0-2.244.662c-.694.374-1.301.89-1.781 1.513a5.6 5.6 0 0 0-1.01 2.102l-2.522 10.378c-.318 1.3-.157 2.669.451 3.861a5.62 5.62 0 0 0 2.867 2.639c3.355 1.379 6.863 2.356 10.45 2.909-.623 2.624-1.321 6.418-.634 8.025 1.1 2.572 9.818 2.015 13.371 1.872 2.766-.11 2.477-6.849 2.209-9.831 3.721-.481 7.031-1.312 9.869-2.481 3.649-1.504 6.692-3.466 9.045-5.837 2.468-2.483 4.223-5.377 5.217-8.599.939-3.066 1.281-6.282 1.009-9.475-.356-4.38-1.572-8.143-3.616-11.182a25.45 25.45 0 0 0-6.993-7.035 32.95 32.95 0 0 0-8.273-3.981c-2.56-.819-5.007-1.504-7.278-2.035l-5.21-1.335c-1.206-.3-2.376-.729-3.489-1.279-.708-.359-1.259-.762-1.634-1.204-.057-.065-.127-.277-.158-.656-.104-1.283.229-1.751.967-2.259 1.685-1.153 3.971-1.854 6.812-2.084 2.556-.195 5.127-.008 7.628.553 2.76.609 5.261 1.41 7.433 2.39a5.65 5.65 0 0 0 2.43.501 5.64 5.64 0 0 0 2.411-.587c.75-.372 1.407-.906 1.924-1.563s.879-1.42 1.062-2.233l2.479-10.972a5.58 5.58 0 0 0-.435-3.7c-.564-1.147-1.505-2.068-2.668-2.609-3.419-1.597-7.253-2.761-11.398-3.461-.146-.025-.296-.047-.444-.069.598-2.595 1.446-7.079.648-8.843-1.154-2.548-9.859-1.81-13.408-1.596-2.874.173-2.291 7.449-1.965 10.213-3.558.393-6.907 1.122-9.977 2.188-3.722 1.294-6.963 3.136-9.63 5.468-2.739 2.388-4.903 5.36-6.332 8.694-1.478 3.43-2.05 7.368-1.698 11.697.349 4.306 1.54 8.011 3.539 11.019z" fill="#ffcc59"/><defs ><path id="B" d="M43.58 75.125c1.246 0 2.256-1.01 2.256-2.256s-1.01-2.256-2.256-2.256-2.256 1.01-2.256 2.256 1.01 2.256 2.256 2.256z"/></defs></svg>