<svg xmlns="http://www.w3.org/2000/svg" width="448" height="332" fill="none" xmlns:v="https://vecta.io/nano"><path d="M447.421 332V0H.579v332h446.842z" fill="#98d3e5"/><path d="M436.981 324.144V8.352H8.433v315.792h428.548z" fill="#fff"/><path d="M250.095 208.845a10.85 10.85 0 0 1-6.03-1.824c-1.786-1.191-3.178-2.885-4-4.867s-1.038-4.165-.62-6.27 1.451-4.039 2.969-5.557 3.451-2.551 5.556-2.969a10.85 10.85 0 0 1 11.135 4.621c1.191 1.785 1.825 3.884 1.823 6.03-.003 2.873-1.145 5.627-3.176 7.658a10.85 10.85 0 0 1-7.657 3.178zm0-19.299a8.46 8.46 0 0 0-4.705 1.421c-1.393.928-2.479 2.249-3.122 3.795a8.47 8.47 0 0 0-.486 4.891c.325 1.643 1.13 3.152 2.313 4.336s2.691 1.992 4.332 2.32a8.46 8.46 0 0 0 4.891-.48c1.547-.64 2.869-1.725 3.8-3.117s1.426-3.028 1.426-4.703a8.45 8.45 0 0 0-.639-3.239c-.424-1.028-1.046-1.961-1.831-2.748a8.46 8.46 0 0 0-2.742-1.839c-1.026-.427-2.126-.647-3.237-.649v.012zm0 50.992a10.85 10.85 0 0 1-6.029-1.822c-1.785-1.191-3.177-2.884-4-4.866s-1.039-4.163-.622-6.268a10.84 10.84 0 0 1 2.966-5.557c1.516-1.518 3.448-2.552 5.552-2.972s4.286-.205 6.268.615 3.677 2.211 4.869 3.995a10.85 10.85 0 0 1 1.829 6.028c-.003 2.874-1.145 5.629-3.176 7.662s-4.784 3.179-7.657 3.185zm0-19.298c-1.675-.003-3.313.492-4.706 1.421s-2.48 2.251-3.122 3.798-.81 3.249-.484 4.892a8.46 8.46 0 0 0 15.34 3.046c.929-1.393 1.424-3.031 1.421-4.706-.003-2.241-.894-4.388-2.478-5.973a8.46 8.46 0 0 0-5.971-2.478z" fill="#9dc11e"/><path d="M245.852 231.992l2.479 2.468 7.448-7.462M245.852 200l2.479 2.468 7.448-7.462" stroke="#294459" stroke-miterlimit="10"/><path d="M344.08 192.621h-75.429v10.764h75.429v-10.764z" fill="#98d3e5"/><path d="M414.003 198.914h-61.306v4.47h61.306v-4.47z" fill="#d0eff4"/><path d="M344.08 224.305h-75.429v10.763h75.429v-10.763z" fill="#98d3e5"/><path d="M414.003 230.609h-61.306v4.47h61.306v-4.47z" fill="#d0eff4"/><path d="M218.774 181.691H42.185v22.231h176.589v-22.231z" fill="#98d3e5"/><path d="M218.774 215.83H42.185v5.96h176.589v-5.96zm0 17.856H42.185v7.151h176.589v-7.151zm192.452 75.261H26.334a2.49 2.49 0 0 1-1.753-.726 2.47 2.47 0 0 1-.537-.804 2.48 2.48 0 0 1-.189-.949 2.48 2.48 0 0 1 .718-1.769 2.49 2.49 0 0 1 .807-.543 2.48 2.48 0 0 1 .954-.191h384.952a2.48 2.48 0 0 1 2.292 3.449 2.47 2.47 0 0 1-.552.82c-.236.234-.518.417-.827.54a2.47 2.47 0 0 1-.973.173z" fill="#d0eff4"/><g clip-path="url(#A)"><path d="M341.594 241.359c1.158-2.735 1.703-5.691 1.598-8.661a20.38 20.38 0 0 0-2.203-8.525 20.32 20.32 0 0 0-5.591-6.789 20.22 20.22 0 0 0-7.929-3.778c-.451-4.543-2.209-8.856-5.06-12.415s-6.67-6.21-10.994-7.63-8.966-1.547-13.362-.368a23.46 23.46 0 0 0-11.395 7.013 35.03 35.03 0 0 0-21.031-14.446c-8.568-1.996-17.572-.684-25.221 3.675s-13.385 11.446-16.067 19.853a35.27 35.27 0 0 0 1.588 25.525c-6.018 2.01-11.125 6.106-14.407 11.552s-4.523 11.887-3.502 18.168 4.238 11.992 9.075 16.11a26.63 26.63 0 0 0 17.318 6.358h88.144a26.62 26.62 0 0 0 14.816-4.486 26.76 26.76 0 0 0 9.844-11.984 26.86 26.86 0 0 0 1.561-15.45c-1.012-5.192-3.534-9.967-7.248-13.722h.066z" fill="#00b1eb"/><path d="M336.416 190.409c0 12.144-3.588 24.016-10.312 34.114s-16.279 17.97-27.459 22.618a60.99 60.99 0 0 1-35.354 3.498c-11.87-2.367-22.774-8.214-31.333-16.8a61.47 61.47 0 0 1-16.752-31.436 61.61 61.61 0 0 1 3.473-35.479 61.36 61.36 0 0 1 22.529-27.564A61.04 61.04 0 0 1 275.199 129a61 61 0 0 1 23.425 4.668 61.2 61.2 0 0 1 19.861 13.31 61.43 61.43 0 0 1 13.271 19.926c3.076 7.451 4.66 15.439 4.66 23.505z" fill="#e73e20"/><path d="M327.161 190.409c0 10.313-3.048 20.394-8.757 28.969s-13.825 15.258-23.32 19.205a51.79 51.79 0 0 1-30.022 2.967 51.91 51.91 0 0 1-26.605-14.27c-7.267-7.293-12.215-16.584-14.22-26.698a52.31 52.31 0 0 1 2.957-30.127 52.1 52.1 0 0 1 19.137-23.402 51.84 51.84 0 0 1 28.869-8.787 51.87 51.87 0 0 1 36.742 15.272 52.24 52.24 0 0 1 15.219 36.871z" fill="#fff"/><path d="M317.222 190.408c0 8.341-2.464 16.494-7.082 23.429a42.05 42.05 0 0 1-18.859 15.532c-7.679 3.191-16.128 4.027-24.28 2.399s-15.639-5.643-21.516-11.541a42.21 42.21 0 0 1-11.501-21.592c-1.621-8.18-.789-16.659 2.391-24.364a42.14 42.14 0 0 1 15.478-18.926c6.91-4.633 15.035-7.107 23.347-7.107 11.145 0 21.833 4.443 29.714 12.352s12.308 18.634 12.308 29.818z" fill="#e73e20"/><path d="M307.483 190.41a32.48 32.48 0 0 1-5.441 17.998c-3.547 5.328-8.589 9.48-14.488 11.932a32.18 32.18 0 0 1-18.653 1.843c-6.262-1.25-12.014-4.335-16.529-8.866s-7.59-10.303-8.835-16.587-.607-12.798 1.837-18.718 6.581-10.979 11.89-14.539a32.21 32.21 0 0 1 17.936-5.459 32.16 32.16 0 0 1 12.357 2.46 32.26 32.26 0 0 1 10.477 7.022 32.38 32.38 0 0 1 6.997 10.513 32.5 32.5 0 0 1 2.452 12.401z" fill="#fff"/><path d="M297.434 190.409a22.38 22.38 0 0 1-3.736 12.403c-2.441 3.672-5.912 6.535-9.974 8.227a22.17 22.17 0 0 1-12.849 1.279 22.22 22.22 0 0 1-11.39-6.101 22.34 22.34 0 0 1-6.091-11.424c-.86-4.329-.421-8.817 1.261-12.895s4.532-7.564 8.189-10.017a22.18 22.18 0 0 1 12.356-3.762c2.918-.003 5.809.572 8.507 1.691s5.148 2.76 7.213 4.83 3.703 4.528 4.821 7.234a22.35 22.35 0 0 1 1.693 8.535z" fill="#e73e20"/><path d="M288.509 190.409a13.3 13.3 0 0 1-2.228 7.371 13.24 13.24 0 0 1-5.934 4.887 13.18 13.18 0 0 1-7.639.755c-2.565-.512-4.92-1.776-6.77-3.631s-3.108-4.22-3.618-6.794a13.32 13.32 0 0 1 .752-7.666c1.001-2.424 2.696-4.496 4.87-5.954a13.19 13.19 0 0 1 7.346-2.236c3.506 0 6.869 1.397 9.349 3.886s3.872 5.863 3.872 9.382z" fill="#fff"/><g fill="#2e2d2c"><path d="M351.996 154.778l-62.772 27.927 1.875 4.245 62.772-27.927-1.875-4.245z"/><g fill-rule="evenodd"><path d="M302.921 192.863l-12.649-7.673 2.512-15.258-17.783 21.627 27.92 1.304z"/></g></g><g fill="#e73e20"><path fill-rule="evenodd" d="M362 161.219l-7.691-4.666 1.521-9.287-10.203 4.533-1.697 9.111 7.691 4.909 10.379-4.6z"/><path d="M149.241 167.499h-27.942v-8.602c.246-2.607-.124-5.236-1.08-7.673a3.9 3.9 0 0 0-1.561-1.314 3.88 3.88 0 0 0-2.009-.345 4.52 4.52 0 0 0-2.353.539 4.54 4.54 0 0 0-1.746 1.673c-1.051 2.045-1.531 4.337-1.388 6.634-.185 3.029.344 6.059 1.543 8.845 1.013 1.968 3.834 4.423 8.506 7.098 13.398 7.976 21.838 14.521 25.319 19.637s5.215 13.357 5.201 24.723c0 8.27-.962 14.366-2.887 18.288-2.507 4.459-6.445 7.935-11.172 9.862a44.21 44.21 0 0 1-19.304 3.98 43.06 43.06 0 0 1-20.604-4.533c-5.048-2.371-9.037-6.54-11.194-11.698a60.11 60.11 0 0 1-2.644-20.145v-7.607h27.942v14.13c-.25 2.847.149 5.713 1.168 8.381.469.659 1.104 1.18 1.84 1.51a4.53 4.53 0 0 0 2.347.37 4.92 4.92 0 0 0 2.524-.582 4.94 4.94 0 0 0 1.883-1.784 13.71 13.71 0 0 0 1.521-7.01c0-6.84-.926-11.307-2.777-13.401a89.12 89.12 0 0 0-14.081-10.548c-5.186-3.275-10.148-6.895-14.852-10.835-2.685-2.608-4.749-5.791-6.038-9.31a40.97 40.97 0 0 1-2.402-15.236c0-8.846 1.131-15.347 3.394-19.504a22.83 22.83 0 0 1 10.974-9.619 43.55 43.55 0 0 1 18.29-3.494c6.85-.192 13.66 1.106 19.964 3.803 4.703 1.756 8.615 5.156 11.018 9.575 1.778 3.848 2.674 10.379 2.689 19.593l-.088 4.599zm11.899-35.138h50.177v23.175h-20.075v22.114h18.774v22.113h-18.774v25.452h22.036v23.197H161.14V132.361z"/></g><path d="M343.027 251.95a15.53 15.53 0 0 0 1.234-6.081 15.65 15.65 0 0 0-3.426-9.696 15.55 15.55 0 0 0-8.694-5.452c-.35-3.487-1.702-6.796-3.892-9.526a18.02 18.02 0 0 0-8.44-5.852 17.97 17.97 0 0 0-10.255-.283c-3.374.905-6.413 2.773-8.748 5.378-3.802-5.593-9.56-9.548-16.132-11.079s-13.478-.526-19.346 2.815-10.27 8.774-12.331 15.221a27.06 27.06 0 0 0 1.202 19.579 20.51 20.51 0 0 0-11.058 8.895 20.62 20.62 0 0 0-2.662 13.969c.796 4.825 3.28 9.208 7.006 12.362s8.451 4.871 13.325 4.844h67.717a20.44 20.44 0 0 0 11.38-3.466 20.54 20.54 0 0 0 7.546-9.223c1.552-3.756 1.959-7.888 1.172-11.876s-2.736-7.652-5.598-10.529z" fill="#57c4f2"/></g><path d="M114.075 113.75c-4 0-7.05-1.125-9.15-3.375-2.1-2.3-3.15-5.575-3.15-9.825V60.5h8.25v40.65c0 1.8.35 3.1 1.05 3.9.75.8 1.8 1.2 3.15 1.2s2.375-.4 3.075-1.2c.75-.8 1.125-2.1 1.125-3.9V60.5h7.95v40.05c0 4.25-1.05 7.525-3.15 9.825-2.1 2.25-5.15 3.375-9.15 3.375zm18.176-53.25h10.35l8.025 31.425h.15V60.5h7.35V113h-8.475l-9.9-38.325h-.15V113h-7.35V60.5zm32.007 0h8.25v45h13.575v7.5h-21.825V60.5zm25.781 0h8.25V113h-8.25V60.5zm14.429 0h11.775l5.25 37.575h.15l5.25-37.575h11.775V113h-7.8V73.25h-.15l-6 39.75h-6.9l-6-39.75h-.15V113h-7.2V60.5zm40.356 0h8.25V113h-8.25V60.5zm20.879 7.5h-8.625v-7.5h25.5V68h-8.625v45h-8.25V68zm20.869-7.5h22.5V68h-14.25v13.875h11.325v7.5h-11.325V105.5h14.25v7.5h-22.5V60.5zm27.246 0h12.6c4.1 0 7.175 1.1 9.225 3.3s3.075 5.425 3.075 9.675v26.55c0 4.25-1.025 7.475-3.075 9.675s-5.125 3.3-9.225 3.3h-12.6V60.5zm12.45 45c1.35 0 2.375-.4 3.075-1.2.75-.8 1.125-2.1 1.125-3.9V73.1c0-1.8-.375-3.1-1.125-3.9-.7-.8-1.725-1.2-3.075-1.2h-4.2v37.5h4.2z" fill="#57c4f2"/><defs><clipPath id="A"><path fill="#fff" transform="translate(83 129)" d="M0 0h279v158H0z"/></clipPath></defs></svg>