<svg xmlns="http://www.w3.org/2000/svg" width="357" height="399" fill="none" xmlns:v="https://vecta.io/nano"><rect x="39.354" y="38.417" width="278.291" height="359.811" rx="20" fill="#8424ff"/><rect x="16.866" y="19.677" width="322.331" height="359.811" rx="20" fill="#ffcc59"/><rect width="357" height="359.811" rx="20" fill="#0285fe"/><path d="M88.894 125.56H99.52c3.586 0 6.275.962 8.068 2.886s2.689 4.744 2.689 8.461v4.525c0 3.717-.896 6.538-2.689 8.462s-4.482 2.886-8.068 2.886h-3.411v18.693h-7.215V125.56zm10.626 20.661c1.181 0 2.056-.328 2.624-.984.612-.656.918-1.771.918-3.345v-5.444c0-1.575-.306-2.69-.918-3.346-.568-.655-1.443-.983-2.624-.983h-3.411v14.102h3.411zm14.675-20.661h10.691c3.717 0 6.428.874 8.133 2.623 1.706 1.706 2.558 4.351 2.558 7.937v2.82c0 4.766-1.574 7.783-4.722 9.052v.131c1.749.524 2.973 1.596 3.673 3.214.743 1.618 1.115 3.782 1.115 6.493v8.068c0 1.312.044 2.383.131 3.214.088.787.306 1.574.656 2.361h-7.346c-.262-.743-.437-1.443-.525-2.099s-.131-1.836-.131-3.542v-8.395c0-2.099-.35-3.564-1.049-4.395-.656-.831-1.815-1.246-3.477-1.246h-2.492v19.677h-7.215V125.56zm9.838 19.677c1.443 0 2.515-.372 3.214-1.115.744-.744 1.115-1.99 1.115-3.739v-3.542c0-1.661-.306-2.864-.918-3.607-.568-.744-1.487-1.115-2.755-1.115h-3.279v13.118h2.623zm16.616-19.677h19.677v6.559h-12.462v12.134h9.904v6.559h-9.904v14.102h12.462v6.559h-19.677V125.56zm23.828 0h10.297l4.592 32.86h.131l4.591-32.86h10.298v45.913h-6.821V136.71h-.132l-5.247 34.763h-6.034l-5.247-34.763h-.132v34.763h-6.296V125.56zm35.293 0h7.215v45.913h-7.215V125.56zm23.113 46.569c-3.498 0-6.165-.984-8.002-2.952-1.837-2.011-2.755-4.875-2.755-8.592V125.56h7.215v35.55c0 1.574.306 2.711.918 3.41.656.7 1.575 1.05 2.755 1.05s2.077-.35 2.689-1.05c.656-.699.984-1.836.984-3.41v-35.55h6.953v35.025c0 3.717-.918 6.581-2.755 8.592-1.836 1.968-4.504 2.952-8.002 2.952zm15.896-46.569h10.297l4.592 32.86h.131l4.591-32.86h10.298v45.913h-6.822V136.71h-.131l-5.247 34.763h-6.034l-5.248-34.763h-.131v34.763h-6.296V125.56zM73.92 193.96h-7.543v-6.559h22.301v6.559h-7.543v39.354H73.92V193.96zm18.251-6.559h19.677v6.559H99.386v12.134h9.904v6.559h-9.904v14.102h12.462v6.559H92.171v-45.913zm23.828 0h10.298l4.591 32.861h.131l4.592-32.861h10.297v45.913h-6.821v-34.763h-.131l-5.247 34.763h-6.035l-5.247-34.763h-.131v34.763h-6.297v-45.913zm35.293 0h10.626c3.586 0 6.275.962 8.068 2.886s2.689 4.744 2.689 8.461v4.526c0 3.717-.896 6.537-2.689 8.461s-4.482 2.886-8.068 2.886h-3.411v18.693h-7.215v-45.913zm10.626 20.661c1.181 0 2.055-.328 2.624-.984.612-.656.918-1.771.918-3.345v-5.444c0-1.574-.306-2.689-.918-3.345-.569-.656-1.443-.984-2.624-.984h-3.411v14.102h3.411zm14.675-20.661h7.215v39.354h11.872v6.559h-19.087v-45.913zm28.379 0h9.773l7.477 45.913h-7.215l-1.312-9.117v.132h-8.199l-1.311 8.985h-6.691l7.478-45.913zm7.871 30.696l-3.214-22.694h-.132l-3.148 22.694h6.494zm15.51-24.137h-7.543v-6.559h22.301v6.559h-7.543v39.354h-7.215V193.96zm18.251-6.559h19.677v6.559h-12.462v12.134h9.904v6.559h-9.904v14.102h12.462v6.559h-19.677v-45.913zm33.335 46.569c-3.498 0-6.144-.984-7.936-2.951-1.793-2.012-2.69-4.876-2.69-8.593v-2.623h6.822v3.148c0 2.974 1.246 4.46 3.739 4.46 1.224 0 2.142-.35 2.754-1.049.656-.744.984-1.924.984-3.542 0-1.924-.437-3.608-1.312-5.051-.874-1.486-2.492-3.257-4.853-5.312-2.974-2.624-5.051-4.985-6.231-7.084-1.181-2.143-1.771-4.548-1.771-7.215 0-3.629.918-6.428 2.754-8.396 1.837-2.011 4.504-3.017 8.002-3.017 3.455 0 6.057 1.006 7.806 3.017 1.793 1.968 2.689 4.81 2.689 8.527v1.902h-6.821v-2.361c0-1.574-.307-2.711-.919-3.411-.612-.743-1.508-1.115-2.689-1.115-2.405 0-3.607 1.465-3.607 4.395 0 1.661.437 3.214 1.311 4.657.919 1.443 2.558 3.192 4.92 5.247 3.017 2.624 5.094 5.007 6.231 7.149s1.705 4.657 1.705 7.543c0 3.761-.94 6.647-2.82 8.658-1.837 2.012-4.526 3.017-8.068 3.017z" fill="#fff"/><path stroke="#fff" d="M49.224 89.516h258.551v180.78H49.224z"/><path d="M51.535 56.221H312.96v11.244H51.535zm0 229.566h101.197v11.244H51.535zm0 17.804H312.96v11.244H51.535z" fill="#4ea6f8"/></svg>