<svg xmlns="http://www.w3.org/2000/svg" width="1440" height="4891" fill="none"><style><![CDATA[.B{fill:#d9d9d9}.C{stroke:#fff}.D{stroke-miterlimit:10}.E{stroke-width:.63}.F{stroke-width:.8}]]></style><path d="M0 0h1440v4891H0z" fill="#f0f4ff"/><path d="M-2218.32 1595.81s327.98-771.529 582.86-395.71c160.91 237.29 232.89 1099.81 421.65 1250.67 553.877 442.03 407.879-894.62 535.505-1082.92 182.666-269.51 745.877 327.94 1357.426 52.21C1859.45 888.159 3221.47 646.202 3467.92 1301.86" mask="url(#BC)" class="C D E"/><path d="M3467.99 1364.74C3284.8 877.941 2404.67 800.177 1456.1 1111.23c-246.6 80.77-495.975 185.64-738.351 301.39-596.19 284.95-1147.805-249.51-1344.175 4.34-37.648 48.76-54.514 178.63-74.166 330.71-51.653 399.93-97.885 965.05-493.408 672.77-46.91-34.66-87.5-108.64-124.99-204.07-115.28-293.06-198.94-782.2-323.77-942.61-258.95-333.831-575.56 400.71-575.56 415.15" mask="url(#BB)" class="C D E"/><path d="M3467.99 1427.39c-170.92-454.915-1034.63-654.213-1980.27-337.27-244.56 81.65-491.077 193.52-731.345 315.06-580.829 293.83-1120.773-177.75-1330.848 60.87-40.358 45.77-59.483 166.64-84.782 306.06-66.787 366.6-126.196 882.62-514.795 618-47.44-32.33-89.15-99.98-128.76-187.3-122.35-269.51-218.35-713.32-346.36-855.4-262.78-291.73-569.15 405.81-569.15 433.48" mask="url(#BA)" class="C D E"/><path d="M3467.99 1490.05c-158.72-422.15-1005.94-743.532-1948.94-421.03-242.61 82.54-486.11 201.29-724.347 328.6-565.469 302.39-1093.742-105.09-1317.671 117.43-42.918 42.77-64.603 155.52-95.475 281.39-82.147 334.5-154.581 800.75-536.177 563.23-47.89-29.88-90.36-91.42-132.45-170.63-129.5-245.85-237.4-644.33-369.7-768.2-265.49-249.18-561.7 411.04-561.7 452.59" mask="url(#Az)" class="C D E"/><path d="M3467.99 1552.71c-146.52-389.93-977.18-833.189-1917.55-504.91-240.57 83.54-481.14 208.96-717.188 342.27-550.184 311.05-1066.711-33.33-1304.269 173.97-45.553 39.77-69.949 144.42-106.166 256.62-97.884 303.94-183.269 719.54-557.567 508.46-48.41-27.21-92.46-82.65-136.13-153.75-136.59-222.51-256.01-575.34-392.59-681.1-267.6-207.18-554.85 416.82-554.85 471.7" mask="url(#Ay)" class="C D E"/><path d="M3467.99 1615.25c-134.33-357.38-948.72-922.055-1886.08-588.78-238.53 84.32-476.24 216.52-710.182 355.49-534.598 318.61-1039.68 39.33-1290.941 230.52-48.114 36.77-75.672 133.86-116.784 231.95-114.976 274.51-212.408 638.78-579.023 453.7-49.02-24.77-94.27-74.1-139.82-136.97-144.34-198.64-274.15-505.58-416.16-593.34-268.13-165.97-547.32 421.03-547.32 490.69" mask="url(#Ax)" class="C D E"/><path d="M3467.99 1677.79c-122.13-324.83-919.81-1010.926-1854.6-672.32-236.58 85.32-471.43 223.96-703.186 369.49-519.539 326.28-1012.649 111.09-1277.614 287.06-50.749 33.33-81.921 123.31-127.475 207.3-133.123 245.84-241.774 558.79-600.405 398.92-49.62-22.21-96.08-65.43-143.59-120.31-152.1-175.74-291.85-437.81-438.82-506.68-268.73-125.76-540.62 426.81-540.62 509.79" mask="url(#Aw)" class="C D E"/><path d="M3467.99 1740.56c-109.93-292.39-891.12-1100.913-1823.13-756.196-234.62 86.096-466.83 231.176-696.105 383.046-504.63 333.6-985.844 183.74-1264.437 343.71-53.309 30.78-88.773 112.54-138.092 182.64-152.85 217.29-271.064 479.47-621.866 344.38-50.22-19.44-97.88-56.77-147.28-103.54-160.08-152.19-309.31-370.04-461.94-419.48-268.27-87.2-533.46 431.59-533.46 528.46" mask="url(#Av)" class="C D E"/><path d="M3467.99 1803.21c-97.88-259.95-862.43-1190.338-1792.03-840.067-232.51 87.097-461.64 238.397-689.03 396.707-489.421 340.61-958.587 255.51-1251.034 399.93-55.945 27.77-96.228 101.31-148.784 157.97-174.084 187.74-301.182 400.93-643.172 288.84-50.98-16.56-100.07-47.88-151.05-86.65-167.98-127.65-326.25-302.39-484.67-331.06-267.68-49.99-526.54 436.59-526.54 547.24" mask="url(#Au)" class="C D E"/><path d="M3467.99 1865.76c-85.46-227.4-833.75-1279.549-1760.26-923.723-230.55 87.873-456.89 245.403-682.02 410.263C551.346 1699.57 94.151 1680.46-212 1808.99c-58.505 24.67-104.059 89.43-159.476 133.31-196.597 155.53-331.3 323.17-664.554 234.52-53.05-15.55-104.9-39-154.74-69.99-176.71-103.98-343.72-236.74-508.09-245.07-266.92-13.44-519.54 442.48-519.54 566.57" mask="url(#At)" class="C D E"/><path d="M3467.99 1928.42c-73.26-194.97-805.06-1368.979-1728.78-1007.599-228.52 88.869-451.78 252.399-674.95 423.809-459.756 353.83-904.602 399.93-1224.457 513.36-61.14 21.66-112.039 76.76-170.092 108.64-219.863 120.87-361.419 246.07-686.021 179.75-53.5-12.13-106.34-29.91-158.12-53.21-185.45-79.32-361.04-170.97-531.51-157.86-266.24 21.33-512.38 447.58-512.38 585.89" mask="url(#As)" class="C D E"/><path d="M3467.99 1991.07c-61.06-162.41-776.37-1458.293-1697.31-1090.914-226.56 88.873-447.48 258.624-667.95 436.924-444.917 359.93-877.564 472.58-1211.123 569.9-63.7 18.66-119.946 63.32-180.71 83.98-242.978 82.65-391.536 169.86-707.401 124.98-52.706-7.56-106.166-20.78-162.106-36.44-193.59-54.32-378.59-106.98-554.26-70.76-266.16 54.99-505.45 452.92-505.45 605" mask="url(#Ar)" class="C D E"/><path d="M3467.99 2053.73c-48.86-129.98-747.68-1547.727-1665.84-1175.238-224.6 90.65-442.88 265.728-660.94 451.028-370.073 314.62-776.013 526.78-1197.8 626-66.335 15.67-127.551 49.33-191.401 59.32-265.342 41.55-421.655 94.32-728.861 70.1-53.758-4.22-108.198-11.11-165.648-19.66-201.94-28.66-396.43-43.1-577.37 16.55-266.54 88.32-498.45 458.48-498.45 624.45" mask="url(#Aq)" class="C D E"/><path d="M3467.99 2116.27c-36.67-97.42-719.15-1636.928-1634.44-1258.995-222.5 91.539-438.29 272.285-653.79 464.695-415.855 371.38-823.505 617-1184.472 682.99-68.971 12.66-134.929 34.99-202.168 34.66-286.123-1.44-451.246 19.55-750.244 15.33l-169.486-2.89c-210.15-2.78-414.73 20.22-600.41 103.65-267.37 120.31-491.3 463.36-491.3 643.11" mask="url(#Ap)" class="C D E"/><path d="M3467.99 2178.93c-24.47-64.99-690.23-1726.36-1602.96-1342.762-220.54 92.428-433.86 278.502-646.79 478.252-401.553 376.71-796.478 688.76-1171.148 739.53-71.606 9.67-141.781 20.55-212.861 10-306.452-45.44-480.912-54.55-771.553-39.44-55.116 2.89-112.188 7.33-173.178 13.89-218.36 23.33-433.4 83.09-623.52 190.85-268.96 152.42-484.3 468.48-484.3 662.11" mask="url(#Ao)" class="C D E"/><path d="M3467.99 2241.58c-12.2-32.44-661.54-1815.674-1571.49-1426.632-218.36 93.317-429.18 284.612-640.01 491.912-387.096 382.04-769.221 761.42-1157.595 796.08-74.166 6.67-148.407 6.11-223.477-14.66-325.352-89.65-510.353-128.09-793.012-94.32-55.719 6.78-113.996 16.89-176.946 30.66-225.88 49.66-452.45 145.98-646.64 277.73-270.98 184.86-477.14 474.14-477.14 681.54" mask="url(#An)" class="C D E"/><path d="M3467.99 2304.24S2835.51 399.136 1927.97 793.399C1247.23 1089.57 643.281 2395.34-83.471 2112.16c-413.598-161.08-613.357-225.96-995.029-101.64-556.89 181.74-1139.82 684.76-1139.82 1065.92" mask="url(#Am)" class="C D E"/><path d="M1123.97 5736.96s-3.38-303.39 623.15-442.14c622.77-137.98 965.21 222.18 1116.33 76.09 147.88-142.41 97.28-857.06 604.55-1943.43" mask="url(#Al)" class="C D E"/><path d="M3468 3379.16c-542.13 1054.48-403.44 1809.56-581.21 1965.31-162.94 142.98-496.95-186.85-1089.3-48.88-612.15 142.42-601.91 434.7-604.55 441.48" mask="url(#Ak)" class="C D E"/><path d="M3468 3330.72c-577.75 1022.04-349.75 1818.79-557.87 1987.43-174.23 141.19-499.74-159.53-1062.34-22.22-597.7 146.42-580.61 427.37-585.8 440.92" mask="url(#Aj)" class="C D E"/><path d="M3467.99 3282.4c-612.98 990.6-295.76 1828.56-534.6 2009.31-185.23 140.19-502.82-131.87-1035.39 5.33-583.24 150.31-559.37 419.92-567.12 440.36" mask="url(#Ai)" class="C D E"/><path d="M3468 3234.07c-648.15 958.72-241.55 1838.9-511.18 2031.2-195.77 139.86-505.84-103.76-1008.36 32.55-568.93 154.41-538.14 412.48-548.45 439.69" mask="url(#Ah)" class="C D E"/><path d="M-2218.32 2304.24c443.19 139.09 2440.624 1034.04 1704.234 1642.48-938.104 775.09 757.322 1492.07 663.579 1988.54" mask="url(#Ag)" class="C D E"/><path d="M120.58 5922.82c87.87-465.25-1505.91-1202.45-650.327-1970.54C142.19 3349.06-1757.67 2490.43-2218.32 2374.79" mask="url(#Af)" class="C D E"/><path d="M91.591 5910.37c82.072-434.25-1410.131-1191.67-637-1952.65C62 3359.94-1740.2 2537.42-2218.32 2444.33" mask="url(#Ae)" class="C D E"/><path d="M62.678 5898.38c76.199-403.26-1314.658-1180.57-623.824-1934.88C-18.34 3370.94-1722.65 2584.41-2218.32 2514.87" mask="url(#Ad)" class="C D E"/><path d="M33.764 5886.16c70.326-372.27-1219.784-1169.35-610.571-1917.11 477.976-587-1128.383-1337.54-1641.513-1383.97" mask="url(#Ac)" class="C D E"/><path d="M4.851 5873.82c64.453-341.16-1124.461-1157.46-597.319-1899.66C-179.548 3393.6-1687.72 2678.51-2218.32 2655.4" mask="url(#Ab)" class="C D E"/><path d="M-2218.32 273.711s1505.153-515.13 2062.415-70.432C397.969 645.311 392.246 1007.14 572.353 1024.8c176.192 17.22 105.414-308.724 953.547-727.093 1170.24-577.564 1799.93-551.124 1942.09 235.846" mask="url(#Aa)" class="C D E"/><path d="M3467.99 581.101c-133.27-737.313-762.14-837.962-1912.5-279.617-838.344 406.15-774.267 719.876-978.318 683.989-179.58-31.661-193.886-340.828-727.957-749.199-579.022-443.032-2050.675 91.317-2067.535 63.988" mask="url(#AZ)" class="C D E"/><path d="M3467.99 629.204C3343.6-58.895 2715.04-233.864 1585.6 305.262 756.902 699.081 814.729 1001.92 582.443 946.148c-179.505-43.104-214.592-299.947-728.032-676.879C-747.05-171.764-2184.59 381.36-2218.32 326.147" mask="url(#AY)" class="C D E"/><path d="M3467.99 677.311c-115.5-638.997-743.16-888.175-1852.27-368.268C796.357 690.642 848.16 983.59 587.864 906.826c-179.203-52.769-235.675-258.399-727.957-604.448-624.576-438.922-2027.857 132.865-2078.227 49.991" mask="url(#AX)" class="C D E"/><path d="M3467.99 725.298c-106.62-589.784-733.68-913.17-1822.75-412.482C835.812 682.083 881.516 966.81 592.608 867.495 413.48 806.172 335.097 652.422-135.274 335.368c-647.24-436.367-2015.656 153.75-2083.046 42.659" mask="url(#AW)" class="C D E"/><path d="M3467.99 773.402c-97.88-540.681-724.19-938.277-1792.93-456.807C875.342 673.642 914.571 950.481 597.652 828.17 418.675 759.182 317.93 657.645-130.154 368.363-801.037-64.782-2134.07 542.888-2218.32 404.69" mask="url(#AV)" class="C D E"/><path d="M3467.99 821.505c-88.85-491.579-714.78-963.383-1763.12-501.133C914.797 665.2 947.927 935.485 602.923 789.067 423.946 713.08 300.612 664.311-124.808 401.58-820.162-27.899-2117.28 596.768-2218.32 430.908" mask="url(#AU)" class="C D E"/><path d="M3467.99 869.497c-79.96-442.365-705.29-988.712-1733.3-545.236C954.252 656.647 980.831 921.488 607.742 749.519c-179.128-82.541-325.427-77.764-727.58-315.166C-839.136 9.873-2100.19 650.537-2218.32 457.016" mask="url(#AT)" class="C D E"/><path d="M3467.99 917.599c-71.08-393.263-695.8-1013.486-1703.41-589.561-770.798 320.165-751.15 580.563-1152.019 382.154-179.354-88.873-348.769-29.773-727.505-242.846C-858.713 48.754-2083.54 704.415-2218.32 483.232" mask="url(#AS)" class="C D E"/><path d="M3467.99 965.698C3405.8 621.315 2781.67-72.894 1794.4 331.811c-761.16 307.834-748.59 564.677-1176.418 339.051-179.655-94.761-372.487 19.219-727.354-170.525C-878.817 89.188-2066.75 758.18-2218.32 509.446" mask="url(#AR)" class="C D E"/><path d="M3467.99 1013.69c-53.31-294.835-676.83-1063.586-1643.77-677.655-751.45 295.614-746.33 549.791-1201.268 295.947-180.107-99.982-396.506 69.21-727.355-98.205-794.97-402.483-1945.487 278.284-2113.917 1.889" mask="url(#AQ)" class="C D E"/><path d="M3467.99 1061.79C3423.57 816.059 2800.65-26.901 1854.03 339.7c-741.81 282.727-744.44 535.349-1226.034 252.51-180.709-106.092-420.6 119.979-727.279-25.884-821.172-390.486-1933.737 299.502-2119.037-4.555" mask="url(#AP)" class="C D E"/><path d="M3467.99 1109.9C3432.45 913.267 2810.14-4.014 1883.85 343.368c-732.17 271.063-742.87 522.13-1250.809 209.741C451.88 442.018 188.195 724.745-94.087 599.656-942.14 223.39-2016.23 919.71-2218.32 587.991" mask="url(#AO)" class="C D E"/><path d="M3467.99 1157.89c-26.65-147.42-648.44-1138.907-1554.32-810.966-722.84 258.843-741.51 510.02-1275.584 166.637C456.248 396.693 168.92 737.632-88.967 632.429-964.428 275.048-1999.36 973.479-2218.32 614.21" mask="url(#AN)" class="C D E"/><path d="M3467.99 1205.99c-17.77-98.32-638.96-1164.014-1524.43-855.403-712.9 246.512-740.61 498.245-1300.429 123.534C460.539 351.92 149.644 751.849-83.847 665.309-987.393 332.035-1982.5 1027.24-2218.32 640.202" mask="url(#AM)" class="C D E"/><path d="M3467.99 1254.1c-8.88-49.22-629.47-1188.681-1494.61-899.844-703.26 234.292-740.01 487.135-1325.204 80.43C464.681 307.264 130.369 765.849-78.727 698.195-1011.11 396.471-1965.71 1081.13-2218.32 666.867" mask="url(#AL)" class="C D E"/><path d="M3467.99 1302.08S2848.01 87.968 2003.42 358.364c-693.55 222.183-739.63 476.582-1349.898 37.216C469.198 262.937 111.394 781.4-73.306 731.409-1035.51 471.344-1948.84 1135-2218.32 692.749" mask="url(#AK)" class="C D E"/><path d="M558.505 143.961c-516.527 0-1248.625 936.829-1646.415 992.709-342.52 48.11-843.31.56-1014.3-992.709" mask="url(#AJ)" class="C D E"/><path d="M-2066.38 143.959c159.93 931.171 681.88 1040.261 1020.79 971.601C-652.1 1036.02 10.124 119.075 528.533 112.965" mask="url(#AI)" class="C D E"/><path d="M-2030.46 143.96c149.24 869.07 691.82 1039.7 1027.18 950.61C-614.075 991.364-21.801 94.746 498.641 81.971" mask="url(#AH)" class="C D E"/><path d="M-1994.77 143.959c138.55 807.078 701.91 1039.151 1033.658 929.501C-576.276 946.705-53.876 69.417 468.524 51.42" mask="url(#AG)" class="C D E"/><path d="M-1958.77 143.958c128 744.978 711.99 1038.592 1040.13 908.392C-538.096 902.045-85.646 44.754 438.712 19.981" mask="url(#AF)" class="C D E"/><path d="M-1922.94 143.959C-1805.7 826.837-1200.93 1182-876.329 1031.36-499.852 857.387-117.502 19.759 408.814-11.014" mask="url(#AE)" class="C D E"/><path d="M-1887.1 143.96c106.62 620.778 732.1 1037.37 1053.084 866.51C-462.132 812.952-149.43-4.792 378.843-41.674" mask="url(#AD)" class="C D E"/><path d="M-1851.26 143.957c95.93 558.679 742.19 1036.813 1059.562 845.072C-424.106 767.957-181.353-30.012 348.878-73.004" mask="url(#AC)" class="C D E"/><path d="M-1815.41 143.96c85.31 496.578 752.2 1036.26 1066.033 824.186C-386.077 723.745-213.273-54.671 318.991-103.885" mask="url(#AB)" class="C D E"/><path d="M-1779.57 143.96c74.69 434.589 762.29 1035.7 1072.357 803.079C-348.28 678.754-245.275-79.555 288.871-134.879" mask="url(#AA)" class="C D E"/><path d="M-1743.74 143.958c64.01 372.489 772.385 1035.152 1078.988 781.971C-310.11 634.092-277.055-104.331 259.049-166.32" mask="url(#z)" class="C D E"/><path d="M-1707.81 143.959c53.3 310.389 782.316 1034.481 1085.38 760.864C-272.08 589.324-308.975-129.215 229.162-196.869" mask="url(#y)" class="C D E"/><path d="M-1671.98 143.961c42.62 248.289 792.414 1033.929 1091.788 739.868C-234.134 544.668-340.827-153.985 199.192-227.75" mask="url(#x)" class="C D E"/><path d="M-1636.14 143.96c32 186.189 802.5 1033.15 1098.411 718.761C-196.114 500.23-372.757-178.76 169.22-258.746" mask="url(#w)" class="C D E"/><path d="M-1600.3 143.958c21.31 124.089 812.518 1033.152 1104.89 697.654 337.324-385.82 90.731-1045.258 634.741-1131.354" mask="url(#v)" class="C D E"/><path d="M-1564.45 143.959c10.69 61.989 822.603 1032.261 1111.361 676.657 333.183-409.927 16.49-1049.035 562.458-1141.352" mask="url(#u)" class="C D E"/><path d="M-1528.61 143.959S-695.918 1175.55-410.774 799.398C-82.26 366.03-468.45-253.304 79.4-351.73" mask="url(#t)" class="C D E"/><path d="M3468 2026.29c-178.38-486.8-1112.04 238.07-1493.79-392.38-279.5-461.47-523.53-1185.452-568.86-1728.244" mask="url(#s)" class="C D E"/><path d="M3467.99 2077.72c-160.53-437.92-1088.1 174.86-1451.32-441.36-276.34-468.92-591.37-1141.465-649.73-1724.917" mask="url(#r)" class="C D E"/><path d="M3468 2129.38c-143.06-389.37-1064.3 111.09-1408.86-490.47C1786.12 1162.22 1399.93 541.333 1328.78-83" mask="url(#q)" class="C D E"/><path d="M3467.99 2181.04c-124.84-340.83-1040.05 46.99-1366.38-539.68-269.56-484.58-727.06-1053.591-811.39-1718.139" mask="url(#p)" class="C D E"/><path d="M3467.99 2232.59c-106.99-292.06-1015.58-17.22-1323.92-588.79-265.94-492.69-794.89-1009.595-892.25-1714.802" mask="url(#o)" class="C D E"/><path d="M3468 2284.13c-89.15-243.4-990.82-81.76-1281.53-637.77-261.95-501.25-862.66-965.721-973.05-1711.477" mask="url(#n)" class="C D E"/><path d="M3468 2335.68c-71.61-194.74-965.82-146.86-1238.69-686.88-257.81-509.91-930.43-922.056-1054.14-1708.027" mask="url(#m)" class="C D E"/><path d="M3467.99 2387.23c-53.53-145.98-940.59-211.63-1196.59-735.98-253.37-518.91-998.35-877.736-1134.78-1704.699" mask="url(#l)" class="C D E"/><path d="M3467.99 2438.77c-35.69-97.32-915.06-276.84-1154.12-785.08-248.48-528.24-1066.11-833.743-1215.65-1701.254" mask="url(#k)" class="C D E"/><path d="M3468 2490.32c-17.85-48.66-889.24-342.16-1111.67-834.08-243.2-538.01-1133.95-789.856-1296.43-1698.027" mask="url(#j)" class="C D E"/><path d="M3468 2541.98s-863.19-407.82-1069.2-883.29C2161.54 1111.23 1197.01 912.823 1021.49-35.896" mask="url(#i)" class="C D E"/><path d="M-2218.32 3737.43C-839.362 3401.82-957.35 5106.07-344.897 5576.1c400.798 307.61 565.394-596.78 1132.369-810.97 379.488-143.3 0 985.83 1056.848 202.3 541.15-401.26 1555.76-99.98 1623.67-794.19" mask="url(#h)" class="C D F"/><path d="M3467.99 4271c-63.7 650.66-1044.35 340.39-1585.04 709.54-1030.874 703.43-713.8-345.6-1106.847-197.3C200.619 5000.43 7.26 5843.72-387.815 5522.67-982.649 5039.31-837.856 3412.71-2218.32 3708.99" mask="url(#g)" class="C D F"/><path d="M3467.99 4368.65c-59.48 607.66-1005.27 288.06-1547.4 625-1003.986 624.66-750.16-345.61-1156.685-192.3C180.44 5021.53-41.757 5803.5-431.035 5469.12-1008.4 4972.87-836.426 3423.7-2218.32 3680.55" mask="url(#f)" class="C D F"/><path d="M3467.99 4466.19c-55.19 564.23-966.27 235.96-1508.84 540.35-975.909 548.34-786.62-345.39-1206.539-187.08-591.823 223.29-842.406 944.27-1226.413 596.11-560.278-508.68-361.419-1980.98-1744.518-1763.46" mask="url(#e)" class="C D F"/><path d="M3468 4564.17c-50.98 520.8-926.14 184.3-1470.6 455.47-946.77 472.14-822.98-345.6-1256.456-182.19-600.03 226.19-879.753 886.51-1257.435 524.36-543.179-520.69-316.843-1916.55-1701.679-1738.25" mask="url(#d)" class="C D F"/><path d="M3467.99 4661.93c-46.68 477.69-885.7 133.31-1432.27 371.04-916.57 398.71-859.42-345.6-1306.376-177.19-608.312 229.19-917.024 829.08-1288.833 452.81-526.091-532.46-272.494-1852.22-1658.831-1713.25" mask="url(#c)" class="C D F"/><path d="M3467.99 4759.58c-42.46 434.03-844.59 83.21-1394.02 286.51-885.25 327.6-896.02-345.61-1356.221-172.2-616.595 232.3-954.145 771.98-1320.156 381.05-509.153-543.57-228.07-1787.68-1615.913-1688.03" mask="url(#b)" class="C D F"/><path d="M3467.99 4857.34c-38.25 390.6-802.87 34.1-1355.77 201.85-853.1 258.96-932.23-345.6-1406.142-167.19-624.953 235.29-991.416 715.09-1351.404 309.5-492.284-554.57-183.645-1723.36-1572.994-1663.04" mask="url(#a)" class="C D F"/><path d="M3467.99 4954.99c-33.96 347.16-760.48-13.67-1317.67 117.2-819.97 193.07-968.45-345.5-1455.838-161.64C61.323 5148.84-334.355 5568.88-688.244 5148.4-1163.89 4582.83-827.691 3488.58-2218.32 3510.02" mask="url(#Z)" class="C D F"/><path d="M3468 5052.86c-30.12 303.83-718.32-59.88-1279.2 32.55-786.76 129.75-1005.12-345.61-1505.907-157.19-641.367 241.4-1066.41 601.89-1413.974 166.63-459.299-575.45-94.872-1594.6-1487.159-1612.93" mask="url(#Y)" class="C D F"/><path d="M3467.99 5150.51c-25.45 260.51-675.62-103.98-1240.94-51.99-752.96 69.32-1041.49-345.49-1555.834-152.2C21.567 5190.73-432.917 5492-774.081 5040.97-1216.89 4455.08-824.529 3510.8-2218.32 3453.15" mask="url(#X)" class="C D F"/><path d="M3467.99 5248.27c-21.23 217.07-633.01-145.86-1202.62-136.64-719.37 11.77-1077.93-345.5-1605.749-147.2-658.008 247.4-1142.007 489.8-1476.62 23-426.701-595.01-6.099-1465.52-1401.321-1562.61" mask="url(#W)" class="C D F"/><path d="M3467.99 5346.03c-17.01 173.64-590.54-185.19-1164.37-221.29-686.01-43.1-1114.37-345.5-1655.67-142.09-666.215 250.07-1179.956 433.93-1507.868-48.77-410.812-604.44 38.326-1400.86-1358.402-1537.5" mask="url(#V)" class="C D F"/><path d="M3467.99 5443.79c-12.72 130.2-548.68-221.63-1126.12-305.94-653.26-95.32-1150.74-345.5-1705.516-137.09-674.497 253.4-1218.205 377.71-1539.19-120.31-395.074-614.23 82.674-1336.32-1315.484-1512.51" mask="url(#U)" class="C D F"/><path d="M3467.99 5541.44c-8.51 86.87-507.64-254.95-1087.79-390.49-621.72-145.19-1187.19-345.49-1755.441-132.08-682.78 256.39-1256.682 322.94-1570.514-191.97-379.635-622.78 127.099-1272.44-1272.565-1487.4" mask="url(#T)" class="C D F"/><path d="M3467.99 5639.2c-4.29 43.44-467.88-285.06-1049.54-475.14-591.52-193.18-1223.55-345.49-1805.362-127.08-691.062 259.39-1295.083 267.73-1601.761-263.62C-1353.1 4141.69-817.15 3565.35-2218.32 3310.84" mask="url(#S)" class="C D F"/><path d="M3467.99 5736.96s-429.78-312.17-1011.29-559.79c-563.21-239.73-1260-345.49-1855.208-122.2C-97.852 5317.48-732.744 5267.6-1031.59 4719.7c-349.45-640.33 215.946-1143.47-1186.73-1437.08" mask="url(#R)" class="C D F"/><path d="M3467.99 4373.54c-512.01-703.99-2265.56 574.45-2723.662 332.27-166.252-87.87-237.331-623.77-1085.309-205.41-381.297 187.97-1612.079 1046.04-1877.339 1088.92" mask="url(#Q)" class="C D E"/><path d="M-2218.32 5535.33c287.17-12.88 1492.052-822.07 1883.362-1004.37 160.229-74.66 292.975-118.76 403.283-138.09 456.517-82.76 540.17 252.62 684.737 309.05 487.988 190.53 2214.518-1075.8 2714.928-396.59" mask="url(#P)" class="C D E"/><path d="M-2218.32 5481.45c308.71 17 1487.609-743.09 1889.461-919.95 160.53-70.54 293.653-112.98 403.735-131.86 437.768-75.32 532.565 226.96 686.845 268.39 517.729 139.2 2217.229-1115.46 2706.269-460.91" mask="url(#O)" class="C D E"/><path d="M-2218.32 5427.57c330.92 46.99 1483.317-664.55 1895.56-835.41 160.756-66.65 294.406-107.64 404.262-125.86 418.869-69.1 524.885 201.41 688.954 227.84 547.174 88.21 2219.864-1155.34 2697.534-525.12" mask="url(#N)" class="C D E"/><path d="M-2218.32 5373.69c352.83 76.88 1478.649-586.22 1901.584-750.97 161.057-62.77 295.234-102.32 404.864-119.65 399.969-63.21 517.129 175.86 691.062 187.19 576.61 37.55 2222.57-1194.67 2688.8-589.45" mask="url(#M)" class="C D E"/><path d="M-2218.32 5319.7c374.74 106.87 1474.131-507.91 1907.683-666.55 161.207-58.99 295.911-96.98 405.316-113.42 381.071-57.55 509.45 150.42 693.246 146.53 605.976-12.89 2225.206-1234.23 2680.066-653.78" mask="url(#L)" class="C D E"/><path d="M-2218.32 5266.04c396.73 136.65 1469.463-430.14 1913.707-582.22 161.508-55.55 296.664-91.66 405.918-107.32 362.171-51.88 501.693 125.2 695.353 105.98C1432 4619.38 3024.5 3408.6 3467.99 3964.39" mask="url(#K)" class="C D E"/><path d="M-2218.32 5211.94c418.49 166.64 1464.795-352.27 1920.031-497.58 161.66-51.54 297.417-86.31 406.596-101.09 343.272-46.44 494.089 99.98 697.462 65.32 664.411-112.42 2230.101-1313.43 2662.221-782.3" mask="url(#J)" class="C D E"/><path d="M-2218.32 5157.95c440.4 196.96 1460.126-274.62 1925.904-412.93 161.735-48.1 298.095-81.1 406.596-94.98 324.297-41.22 486.333 74.65 699.57 24.66 694.3-162.75 2233.19-1353.09 2653.94-846.63" mask="url(#I)" class="C D E"/><path d="M-2218.32 5104.07c462.31 226.74 1455.383-197.29 1931.928-328.49 161.961-44.44 298.848-75.88 407.499-88.88 305.248-36.21 478.654 49.55 701.679-15.99C1546.53 4458.3 3058.61 3278.07 3467.99 3759.76" mask="url(#H)" class="C D E"/><path d="M-2218.32 5050.2c484.22 256.62 1450.639-120.21 1938.027-244.41 162.111-41.21 299.525-70.76 407.951-82.65 286.123-31.21 471.048 24.44 703.862-56.54 752.95-261.96 2238.46-1432.3 2636.47-975.16" mask="url(#G)" class="C D E"/><path d="M-2218.32 4996.21c506.06 286.72 1445.67-43.33 1944.126-159.53 162.186-37.88 300.278-65.66 408.478-76.43 267.299-26.55 463.368-.67 705.895-97.21C1623.25 4351.99 3081.35 3191.19 3467.99 3623.56" mask="url(#F)" class="C D E"/><path d="M-2218.32 4942.32c527.97 316.61 1441.152 33.33 1950.149-75.1 162.413-34.55 301.182-60.65 409.081-70.21 248.475-22.21 455.688-25.77 707.777-137.86C1661.2 4298.33 3092.49 3147.64 3467.77 3555.35" mask="url(#E)" class="C D E"/><path d="M-2218.32 4888.34c549.65 346.49 1436.333 109.75 1956.248 9.33 162.488-31.33 301.71-55.55 409.533-63.99 229.35-17.78 448.309-50.1 710.187-178.52C1700.35 4247.45 3104.16 3104.21 3467.99 3487.14" mask="url(#D)" class="C D E"/><path d="M-2218.32 4834.57c571.79 376.48 1431.589 185.85 1962.347 93.87 162.639-28.22 302.387-51.1 410.06-57.99 210.3-13.44 440.629-75.32 712.295-219.07C1738.68 4193.57 3115.53 3060.66 3467.99 3419.04" mask="url(#C)" class="C D E"/><path d="M-2218.32 4780.57c593.63 406.49 1426.846 261.96 1968.371 178.41 162.864-25.1 303.14-46.43 410.586-51.76 191.326-9.45 433.025-100.65 714.479-259.73C1776.93 4139.69 3126.9 3017.22 3467.99 3350.83" mask="url(#B)" class="C D E"/><path d="M-2218.32 4726.7c797.07 565.12 1914.535 232.74 2385.583 217.18C890.853 4920 3035.19 2877.58 3467.99 3282.51" mask="url(#A)" class="C D E"/></svg>